<svg width="64" height="64" viewBox="0 0 64 64" fill="none" xmlns="http://www.w3.org/2000/svg">
<g clip-path="url(#clip0_721_1349)">
<path d="M26.9356 36.723C28.4543 35.483 29.677 33.9258 30.5158 32.163C31.3547 30.4003 31.789 28.4757 31.7876 26.5272C31.7876 25.6368 32.0262 24.796 32.4487 24.0745C32.6444 23.7356 32.883 23.4203 33.1527 23.1357C33.9599 22.2828 35.0466 21.7409 36.2196 21.6065L36.2422 21.6041C36.426 21.5864 36.6527 21.5073 36.7017 21.4896C36.7635 21.4633 36.8213 21.4288 36.8735 21.3868V13.2789C33.8568 13.2789 31.1587 14.2118 28.9558 15.7977C28.7172 15.9677 28.4845 16.1484 28.2578 16.3303C26.739 17.5703 25.5164 19.1275 24.6775 20.8902C23.8386 22.653 23.4043 24.5776 23.4057 26.526C23.4057 27.4164 23.1671 28.2572 22.7446 28.9787C22.5477 29.3178 22.3114 29.6328 22.0406 29.9175C21.5749 30.4111 21.0116 30.8045 20.3856 31.0733C19.7597 31.3421 19.0845 31.4805 18.4021 31.4799H18.3938C15.6348 31.4799 13.389 29.2574 13.389 26.5272C13.389 23.797 15.6348 21.5746 18.3938 21.5746C19.8317 21.5746 21.1229 22.1745 22.0406 23.1369C22.7007 20.3416 24.1573 17.7925 26.2375 15.7918C23.9578 14.1525 21.2117 13.2707 18.3938 13.273C11.0084 13.273 5 19.2187 5 26.5272C5 33.8357 11.0084 39.7815 18.3938 39.7815H18.4093C21.6635 39.7815 24.6444 38.6266 26.9558 36.7076L26.9356 36.723ZM38.2613 33.883C38.1858 33.7815 38.102 33.6863 38.0107 33.5984C37.7209 33.3186 37.3749 33.1022 36.9952 32.9631C36.8056 32.8951 36.6264 32.8013 36.463 32.6844C36.2733 32.545 36.0107 32.2852 35.9129 32.0668C35.864 31.9522 35.7172 31.6062 35.6504 31.4976C35.5346 31.3157 35.2339 31.4492 35.3258 31.6794C35.4057 31.879 35.5036 32.127 35.5274 32.3088C35.5704 32.6182 35.2709 32.7151 35.105 32.721C34.6885 32.7387 34.4499 32.7387 34.0346 32.7871C33.4096 32.8631 32.7797 32.8915 32.1504 32.8721C31.3914 34.5136 30.1134 36.1963 28.9558 37.2615C31.1529 38.8406 33.7852 39.7174 36.5 39.7744C36.8735 39.7744 36.8735 39.7803 36.8735 39.7803V36.638C36.7666 36.681 36.6488 36.6896 36.5367 36.6625C36.4246 36.6353 36.3241 36.5739 36.2494 36.4868C36.1699 36.4018 36.1003 36.3084 36.0418 36.2081C35.9749 36.0936 35.9188 35.966 35.858 35.8385C35.7351 35.5716 35.7231 35.5598 35.4296 35.5716L35.4021 35.5728C35.3381 35.5727 35.2747 35.5592 35.2163 35.5332C35.1579 35.5071 35.1057 35.4691 35.0632 35.4217C34.8565 35.1882 34.6742 34.9346 34.5191 34.6647C34.4881 34.6411 34.611 34.5561 34.6659 34.5502C34.9654 34.4958 35.2721 34.4474 35.5776 34.399C35.7673 34.3683 35.9081 34.4533 36.0119 34.6045C36.0859 34.7072 36.1408 34.8229 36.2076 34.9316C36.2387 34.9859 36.2685 35.0402 36.2936 35.1016C36.4344 35.4169 36.6909 35.5256 37.0215 35.4772C37.5107 35.411 37.9153 35.1808 38.2446 34.8111C38.599 34.3931 38.5262 34.2242 38.2625 33.8841L38.2613 33.883ZM37.3735 34.7674C37.2802 34.8159 37.1787 34.8467 37.074 34.8584C36.8842 34.882 36.7983 34.8348 36.7196 34.6647C36.6277 34.4651 36.5418 34.2656 36.5298 34.0223C36.8055 33.9562 37.074 33.9078 37.3437 33.8948C37.4725 34.0282 37.5394 34.1428 37.5704 34.2821C37.6253 34.4876 37.5644 34.6635 37.3747 34.7663L37.3735 34.7674ZM39.0752 24.1584C39.5406 24.4796 39.969 24.8303 40.2685 25.3204C40.3353 25.4349 40.4212 25.4715 40.5012 25.4349C40.611 25.3865 40.599 25.2837 40.611 25.2046C40.6022 24.9805 40.537 24.7621 40.4212 24.5693C40.1486 24.0927 39.7622 23.6893 39.2959 23.3943C39.1945 23.3362 39.0878 23.2876 38.9773 23.2491C38.9297 23.2327 38.8797 23.2244 38.8293 23.2243H38.8174C38.6885 23.2243 38.5907 23.2786 38.5298 23.3872C38.469 23.4959 38.469 23.6116 38.5418 23.7144C38.5929 23.7823 38.6526 23.8434 38.7196 23.8962C38.8293 23.9871 38.9523 24.0722 39.074 24.156L39.0752 24.1584ZM44.3186 32.0183C44.1897 32.055 44.0561 32.1034 43.9451 32.1813C43.7184 32.3384 43.6396 32.5745 43.6885 32.8414C43.7064 32.9501 43.7685 32.9985 43.9761 33.0174C44.4773 32.9808 44.5943 32.7812 44.5943 32.3632C44.5943 32.3325 44.5883 32.2722 44.5823 32.2061C44.5644 32.055 44.4654 31.9758 44.3186 32.0183Z" fill="white"/>
<path d="M38.481 13.2716V21.1304L38.6337 21.1611C38.7626 21.1918 38.8783 21.2402 38.9153 21.252C38.9893 21.2827 39.0562 21.3182 39.2149 21.4091C40.1087 21.9842 41.0752 22.414 42.0048 22.923C42.5621 23.2312 43.1242 23.5229 43.6504 23.8854C44.1647 24.2432 44.66 24.6247 45.0573 25.1088C45.3628 25.4784 45.6325 25.8658 45.8044 26.3133C46.0609 26.9912 46.3127 27.6702 46.5573 28.3539C46.759 28.9172 46.9428 29.4923 47.1934 30.0367C47.407 30.509 47.6528 30.9625 47.9583 31.3805C48.3986 31.9922 48.901 32.4457 49.574 32.7858C49.574 32.7858 49.7757 32.8767 49.7387 32.9192C49.4201 33.0408 49.2793 33.0467 49.0168 32.9617C48.7848 32.882 48.5751 32.7493 48.4046 32.5744C48.2519 32.4291 48.111 32.2721 47.9583 32.1197C47.7137 31.8836 47.469 31.6533 47.2184 31.423C47.1461 31.3608 47.0633 31.3116 46.9738 31.2778C46.9466 31.2663 46.9169 31.262 46.8875 31.2652C46.8581 31.2684 46.83 31.2791 46.806 31.2962C46.782 31.3133 46.7629 31.3362 46.7505 31.3628C46.7381 31.3894 46.7328 31.4186 46.7351 31.4478V31.4466C46.7408 31.5397 46.766 31.6306 46.8091 31.7135C46.901 31.8647 47.0108 32.0099 47.1206 32.1493C47.3044 32.3913 47.4881 32.6393 47.6898 32.8696C47.8485 33.0515 48.0263 33.2203 48.2041 33.3786C48.333 33.4872 48.4738 33.5781 48.6075 33.6809C48.6564 33.7175 48.6993 33.76 48.7662 33.8261C48.6993 33.8497 48.6624 33.8686 48.6254 33.8745C48.3318 33.9052 48.0561 33.832 47.7877 33.7234C47.4944 33.5977 47.2155 33.4413 46.9559 33.2569C46.7912 33.1424 46.6254 33.0208 46.4547 32.918C46.234 32.7846 46.0931 32.7964 45.9046 32.9605C45.795 33.0601 45.6929 33.1674 45.5991 33.2817C45.5194 33.3812 45.4166 33.4601 45.2994 33.5118C45.1822 33.5634 45.0541 33.5862 44.9261 33.5781C44.767 33.5712 44.6076 33.5732 44.4487 33.584C44.0665 33.6174 43.6986 33.7444 43.3783 33.9537C43.2626 34.0269 43.1456 34.1048 43.0239 34.1721C42.867 34.2612 42.7035 34.3382 42.5347 34.4024C42.4471 34.4319 42.3542 34.4425 42.2622 34.4335C42.1701 34.4245 42.0811 34.3962 42.0011 34.3503C41.921 34.3044 41.8518 34.2421 41.7981 34.1676C41.7445 34.0931 41.7075 34.0081 41.6898 33.9182C41.6719 33.8273 41.6779 33.7305 41.6719 33.6336C41.6719 33.5486 41.6779 33.4636 41.6719 33.3797C41.66 33.1743 41.5979 33.1259 41.3903 33.1554C41.1206 33.1861 41.0597 33.1129 41.1516 32.859C41.2435 32.5992 41.3533 32.35 41.4511 32.0961C41.6098 31.684 41.8115 31.2908 42.0633 30.9211C42.1791 30.7452 42.2769 30.5574 42.376 30.3697C42.4308 30.261 42.4678 30.1335 42.4989 30.0119C42.5227 29.9032 42.475 29.8064 42.3951 29.7757C42.3032 29.7391 42.2304 29.7698 42.1624 29.83C41.9905 29.9871 41.8139 30.1382 41.654 30.3083C41.314 30.662 40.8545 30.8797 40.3628 30.92C40.2161 30.9377 40.0693 30.9684 39.9225 30.9861C39.8485 30.992 39.7757 30.9861 39.6958 30.9861C39.6719 30.8586 39.7268 30.7676 39.7566 30.6708C39.9153 30.1807 40.0192 29.6777 40.0752 29.1628C40.1242 28.7507 40.0693 28.3456 39.9774 27.9394C39.9578 27.8578 39.9247 27.78 39.8795 27.7091C39.8056 27.5875 39.6528 27.5816 39.549 27.6843C39.5188 27.7146 39.4951 27.7506 39.4793 27.7902C39.4636 27.8298 39.456 27.8721 39.4571 27.9146L39.469 28.2594C39.475 28.7259 39.4452 29.1852 39.3461 29.6399C39.2996 29.8237 39.2447 30.0054 39.1814 30.1843C39.0981 30.4116 38.9596 30.6151 38.7781 30.7771C38.6433 30.8987 38.5084 31.0133 38.3807 31.1408C38.0812 31.4372 38.0442 31.795 38.2948 32.1339C38.5514 32.4846 38.8032 32.8365 39.0776 33.1695C39.3044 33.4482 39.4141 33.7505 39.4141 34.0965C39.4141 34.1934 39.4261 34.2843 39.438 34.3811C39.4499 34.4296 39.481 34.4721 39.518 34.5441C39.5788 34.5016 39.6409 34.478 39.6647 34.4296C39.8664 34.054 39.9273 33.6549 39.8604 33.2369C39.8355 33.135 39.7918 33.0385 39.7316 32.9523C39.5478 32.6854 39.3521 32.4197 39.1624 32.1528L38.9177 31.7112C39.1803 31.475 39.2853 31.4927 39.475 31.7714C39.7566 32.1776 40.0192 32.5945 40.2888 33.0125C40.4356 33.2487 40.4666 33.4967 40.4118 33.7694C40.3509 34.054 40.3079 34.3504 40.2471 34.7023C40.1803 35.0235 40.1182 35.0897 39.7757 35.0838C39.5251 35.0838 39.3414 35.1688 39.2184 35.3743C39.1079 35.5565 38.9372 35.6954 38.7351 35.7675L38.4965 35.8702V39.7695L39.1385 39.7636C46.1683 39.5936 51.8652 33.9088 51.9141 26.8967C51.9141 26.7691 51.9082 26.6428 51.9141 26.5153V21.8165H55.8855L59.0001 13.261H38.4845L38.481 13.2716Z" fill="white"/>
<path d="M45.0955 29.9719C45.1265 30.0628 45.1694 30.1479 45.2112 30.2258C45.2542 30.299 45.327 30.3049 45.4069 30.299C45.4928 30.2931 45.5477 30.2447 45.5788 30.1715C45.5967 30.1231 45.5966 30.0688 45.6098 30.0085C45.5429 29.5728 45.4451 29.1429 45.0716 28.8394C44.7023 28.539 44.3509 28.2177 44.0191 27.877C43.9153 27.792 43.8114 27.792 43.7005 27.8711C43.6574 27.9023 43.6185 27.9388 43.5847 27.9798C43.358 28.2644 43.2112 28.5915 43.1253 28.9422C43.1134 28.9906 43.1134 29.0449 43.1134 29.0992C43.1193 29.2327 43.1682 29.3106 43.2721 29.3413C43.3819 29.372 43.4857 29.3472 43.5537 29.2563C43.6086 29.1831 43.6575 29.0992 43.7184 29.026C43.7852 28.941 43.8711 28.9115 43.969 28.9528C44.0489 28.9835 44.1277 29.013 44.2017 29.0556C44.3663 29.1642 44.5322 29.2858 44.6909 29.4063C44.8819 29.5474 45.023 29.7445 45.0943 29.9696L45.0955 29.9719ZM10.679 45.2727H10.2876V50.6681H13.4081V50.2808H10.679V45.2727ZM48.6993 45.9446C48.4874 45.729 48.2332 45.5586 47.9522 45.4441C47.6712 45.3295 47.3695 45.2732 47.0656 45.2786H44.5811V50.667H46.0191V49.8439H47.0656L47.1635 49.838L47.6587 50.667H49.3353L48.5334 49.3231C49.0966 48.8626 49.3783 48.2757 49.3783 47.5553C49.3783 46.9318 49.1515 46.3933 48.6993 45.9446ZM47.6838 48.167C47.6037 48.2484 47.5074 48.3125 47.401 48.3552C47.2946 48.3979 47.1804 48.4183 47.0656 48.415H46.0191V46.6956H47.0656C47.3043 46.6956 47.5119 46.7807 47.6838 46.9495C47.8556 47.1184 47.9344 47.3191 47.9344 47.5612C47.9381 47.674 47.9178 47.7863 47.8746 47.8907C47.8314 47.9951 47.7664 48.0893 47.6838 48.167ZM16.3807 45.2786H14.08V50.667H14.4714V48.9535H16.3807C16.889 48.9535 17.3294 48.7716 17.6897 48.415C18.0501 48.0584 18.2339 47.6214 18.2339 47.1196C18.2339 46.6165 18.0501 46.1749 17.6897 45.8241C17.5209 45.6494 17.3176 45.5109 17.0924 45.4172C16.8672 45.3236 16.6249 45.2756 16.3807 45.2786ZM17.4212 48.1422C17.2869 48.2807 17.1251 48.3903 16.9461 48.4642C16.7671 48.5382 16.5746 48.5749 16.3807 48.5721H14.4714V45.6718H16.3807C16.784 45.6718 17.1336 45.8171 17.4212 46.0957C17.7088 46.3744 17.8496 46.7193 17.8496 47.1255C17.8496 47.5187 17.7088 47.8576 17.4212 48.1422ZM7.22792 45.2786H6.95823L5 50.667H5.4284L6.05251 48.9535H8.40811L9.03222 50.667H9.45465L7.49642 45.2715H7.22673L7.22792 45.2786ZM6.18735 48.5662L7.22792 45.7084L8.2685 48.5662H6.18735ZM50.4308 45.2786H51.8687V50.674H50.4308V45.2786ZM26.3854 45.2786H26.1157L24.1575 50.667H24.5799L25.2041 48.9535H27.5597L28.1838 50.667H28.6062L26.648 45.2715H26.3854V45.2786ZM25.3449 48.5662L26.3854 45.7084L27.426 48.5662H25.3449ZM33.1885 45.2786H28.0549L28.5752 46.7015H29.9033V50.667H31.3473V46.7015H32.6754L33.1885 45.2786ZM41.9379 48.2568C41.9379 48.8437 41.4606 49.316 40.8675 49.316C40.2745 49.316 39.7971 48.8437 39.7971 48.2568V45.2774H38.3592V48.2568C38.3592 49.6254 39.4845 50.739 40.8675 50.739C42.2506 50.739 43.3759 49.6254 43.3759 48.2568V45.2774H41.9379V48.2568ZM22.9523 48.5662H19.4224V45.2727H19.037V50.6681H19.4224V48.9547H22.9535V50.6681H23.3449V45.2727H22.9535L22.9523 48.5662ZM34.5967 45.2786L32.6325 50.667H34.0764L34.3031 50.0493H36.3222L36.5549 50.667H38.0048L36.0406 45.2715H34.5967V45.2786ZM34.7613 48.748L35.3186 47.1007L35.8687 48.748H34.7613Z" fill="white"/>
</g>
<defs>
<clipPath id="clip0_721_1349">
<rect width="54" height="38" fill="white" transform="translate(5 13)"/>
</clipPath>
</defs>
</svg>
