<?xml version="1.0" encoding="utf-8"?>
<!-- Generator: Adobe Illustrator 28.2.0, SVG Export Plug-In . SVG Version: 6.00 Build 0)  -->
<svg version="1.1" id="uuid-d61134fd-200c-4926-a328-b60d288bdb01"
	 xmlns="http://www.w3.org/2000/svg" xmlns:xlink="http://www.w3.org/1999/xlink" x="0px" y="0px" viewBox="0 0 524.4 524.4"
	 style="enable-background:new 0 0 524.4 524.4;" xml:space="preserve">
<style type="text/css">
	.st0{fill:none;}
	.st1{fill:#241758;}
</style>
<g id="uuid-248ed557-0b9b-4805-9c08-25326a6492b9">
	<rect class="st0" width="524.4" height="524.4"/>
	<g id="uuid-57e0587b-3064-43be-a2f7-a647a0f89f66">
		<g>
			<polygon class="st1" points="274.4,246.4 275,251.5 263.9,262.9 250.4,254.7 249.7,249.8 263.4,258 			"/>
			<polygon class="st1" points="275.7,256.4 276.4,261.4 265.2,272.8 251.5,264.5 250.9,259.6 264.5,267.9 			"/>
		</g>
	</g>
	<g id="uuid-610b62e9-abea-427c-8a7c-35dc59dd28ce">
		<path class="st1" d="M30,387.3c-7.9,0-15.2-2.7-19.5-6.4c-10-8.7-12.5-21.7-9.1-29.2c1.4-3.1,11.2-22.9,21.2-43
			c3-6.1,5.4-10.9,6.2-12.5c5-10.2,10.5-18.9,16.8-26.6c2.8-3.4,7.2-8.7,12.2-14.8c10.1-12.2,22.7-27.4,31.8-38.8
			c29-36.2,43.3-42,57.1-47.6l0.5-0.2c11.9-4.9,27.1-8,33.5-9c-0.2-1.2-0.4-2.7-0.6-4.2c-0.3-1.8-0.5-3.8-0.8-5.6
			c-0.6-4.3,0.9-8,4.1-10.3c4.1-3,9.4-2.1,13-0.4c3,1.4,55.9,21.8,76,27.8c22.6,6.7,58.3,19.7,65.3,22.3l2.1,0.8
			c61.7,22.9,100.3,37.2,111.8,41.6c10.9,4.1,28.5,9.4,41.3,13.2c10.1,3,15.9,4.8,18.4,5.8c7.7,3.1,13.1,9.6,13.1,15.8l0,0.3
			c0.2,6.3-2,17.2-18.3,19.4c-9.7,1.3-35.6,3.9-76.8,7.6c-22.8,2.1-43.2-4.4-56.7-9.5c-9-3.4-14.5-2.1-22.4,0.4
			c-12.4,4-17.4,21.7-20.3,32.2c-3.6,12.6-10.8,20.2-22.1,23.1c-6.5,1.7-42.7,9.4-53,10.6c-8.5,1-19.1-1.4-21.2-18.6
			c-0.8-7.6-16.8-144.6-16.9-146l0,0c-0.1-0.7-0.2-1.3-0.2-1.7c-1.6,0.1-3.4,0.3-6.4,0.8c-2.8,0.4-4.5,1-7.2,2.6
			c-2.6,1.5-12.9,7.1-21.9,12l-6.7,3.6c-7,3.9-6.7,11.8-6.6,13.3c0.4,4.6,4.4,41.8,6.1,54.4c1.5,11.3-2.7,18.4-5.3,21.6
			c-3.1,3.8-7.2,6.1-11.1,6.4l-0.4,0c-4.4,0.2-9.1,0.4-16.9,0.1c-10.9-0.4-19.4-8.7-20.4-15.9c-0.3-2-1-7.2-1.7-12.2
			c-0.4-3-0.8-5.8-1-7.7c-3.6,0.6-9.9,1.9-14.4,2.8c-5,1-9.3,1.8-11.6,2.2c-2.9,0.5-3.1,0.8-4.4,2.8l-0.6,0.8
			c-10.7,15.8-13.9,20.8-14.8,22.2c-2.1,3.6-3.5,7.2-3.6,8.7c-0.1,1-0.5,4.6-1.1,10.1c-1.4,12.6-3.7,33.7-4.3,41
			c-1.5,20.9-12.9,28.7-19.6,31.5C38.4,386.6,34.1,387.3,30,387.3L30,387.3z M194.7,153.6c0.4,2.8,0.7,5.1,0.8,6.5
			c0.6,6.4-4,12.1-10.6,13c-2.8,0.4-19.8,3.4-32.1,8.4l-0.6,0.2c-12.6,5.1-24.6,10-51.2,43.2c-9.2,11.5-21.8,26.8-32,39
			c-5.1,6.1-9.4,11.4-12.2,14.8c-8.3,10.2-13.4,20.5-15,23.8c-0.8,1.6-3.1,6.4-6.2,12.5c-7.3,14.8-19.6,39.4-21,42.6
			c-0.6,1.5,0.1,7.7,5.3,12.2c2.4,2.1,10.1,4.4,16.9,1.6c6.4-2.6,10-9.1,10.7-19.2c0.6-7.6,3-28.8,4.4-41.6c0.6-5,1-9,1.1-9.9
			c0.5-5.7,4.4-12.7,5.6-14.7c1.4-2.4,6.2-9.7,15.3-23l0.4-0.6c3.1-4.7,6.5-7.9,14.2-9.2c2.1-0.3,6.5-1.2,11.2-2.1
			c9.9-2,16.1-3.2,18.5-3.4c7.4-0.6,11.7,3.3,12.9,11.7c0.3,1.8,0.7,5.3,1.2,8.9c0.6,4.6,1.3,9.7,1.6,11.8c0.5,0.9,3,3.6,6.7,3.7
			c7.1,0.3,11.2,0.1,15.4-0.1c1.3-0.7,4.3-4.5,3.3-11.6c-1.6-12.1-5.7-49.8-6.2-55.1c-0.8-9,2.5-20.9,14.1-27.3l6.7-3.7
			c8.5-4.6,19.1-10.3,21.5-11.8c3.5-2,6.9-3.6,12.3-4.4c4.4-0.7,6.9-1,9.9-1l0.5,0c7.7,0.3,11.8,4.9,12.8,14.6
			c0.7,5.9,16.1,138.4,16.9,146c0.8,6.4,1.9,6.2,5.1,5.9c9.1-1.1,44-8.5,51-10.3c4.5-1.2,9-3.6,11.7-13c3.8-13.3,10.1-35.6,29.9-42
			c9.3-3,18.7-5.2,32-0.2c7.7,2.9,28.1,10.6,50.2,8.6c51.1-4.7,69.6-6.7,76.2-7.6c5.8-0.8,5.8-2.4,5.7-4.6c-0.4-0.6-1.6-2-4-3
			c-2-0.8-9.3-3-17.1-5.3c-13.8-4.1-30.9-9.3-42.3-13.6c-11.5-4.3-50.1-18.7-111.7-41.6l-2.1-0.8c-4.2-1.5-41.8-15.3-64.4-22
			C250.6,175.1,208.7,159.2,194.7,153.6L194.7,153.6z"/>
	</g>
</g>
</svg>
