<svg width="100" height="100" viewBox="0 0 100 100" fill="none" xmlns="http://www.w3.org/2000/svg">
<g clip-path="url(#clip0_429_1647)">
<path d="M52.3264 46.9871L52.4408 47.9596L50.3241 50.1335L47.7497 48.5698L47.6162 47.6354L50.2287 49.1991L52.3264 46.9871Z" fill="white"/>
<path d="M52.5739 48.894L52.7074 49.8475L50.5717 52.0214L47.9591 50.4387L47.8447 49.5043L50.4382 51.087L52.5739 48.894Z" fill="white"/>
<path d="M5.72034 73.8558C4.21385 73.8558 2.82179 73.341 2.0018 72.6354C0.0948611 70.9764 -0.381874 68.4973 0.266486 67.0671C0.533458 66.476 2.40226 62.7002 4.3092 58.8673C4.88128 57.7041 5.33895 56.7887 5.4915 56.4836C6.44498 54.5385 7.49379 52.8795 8.69517 51.4112C9.22911 50.7628 10.0682 49.7521 11.0216 48.5889C12.9476 46.2624 15.3504 43.3639 17.0857 41.1899C22.6158 34.2868 25.3428 33.1808 27.9743 32.1129L28.0697 32.0748C30.3389 31.1404 33.2375 30.5492 34.4579 30.3585C34.4198 30.1297 34.3817 29.8436 34.3435 29.5576C34.2863 29.2144 34.2482 28.833 34.191 28.4897C34.0766 27.6697 34.3626 26.9642 34.9728 26.5256C35.7547 25.9535 36.7653 26.1251 37.4518 26.4493C38.0239 26.7163 48.1116 30.6064 51.9446 31.7506C56.2543 33.0282 63.0621 35.5073 64.3969 36.0031L64.7974 36.1556C76.5632 40.5225 83.924 43.2494 86.117 44.0885C88.1955 44.8703 91.5518 45.881 93.9926 46.6057C95.9187 47.1777 97.0247 47.521 97.5014 47.7117C98.9698 48.3028 99.9995 49.5423 99.9995 50.7247V50.7819C100.038 51.9832 99.6181 54.0618 96.5098 54.4813C94.6601 54.7292 89.7211 55.225 81.8645 55.9306C77.5167 56.3311 73.6265 55.0915 71.0521 54.119C69.3359 53.4706 68.2871 53.7186 66.7806 54.1953C64.416 54.9581 63.4625 58.3333 62.9095 60.3356C62.223 62.7384 60.85 64.1877 58.6952 64.7407C57.4557 65.0649 50.5525 66.5332 48.5884 66.762C46.9675 66.9527 44.9461 66.4951 44.5457 63.2151C44.3931 61.7658 41.342 35.6407 41.3229 35.3738C41.3039 35.2403 41.2848 35.1259 41.2848 35.0496C40.9797 35.0687 40.6364 35.1068 40.0643 35.2022C39.5304 35.2784 39.2062 35.3928 38.6913 35.698C38.1955 35.984 36.2314 37.0519 34.5151 37.9863L33.2375 38.6728C31.9026 39.4165 31.9598 40.923 31.9789 41.209C32.0552 42.0862 32.818 49.18 33.1422 51.5828C33.4282 53.7376 32.6273 55.0915 32.1315 55.7018C31.5403 56.4264 30.7585 56.865 30.0148 56.9222H29.9385C29.0994 56.9604 28.2032 56.9985 26.7158 56.9413C24.6372 56.865 23.0163 55.2822 22.8256 53.9092C22.7684 53.5279 22.6349 52.5362 22.5014 51.5828C22.4251 51.0107 22.3489 50.4767 22.3107 50.1144C21.6242 50.2288 20.4229 50.4768 19.5647 50.6484C18.6113 50.8391 17.7913 50.9916 17.3527 51.0679C16.7997 51.1632 16.7615 51.2205 16.5136 51.6018L16.3992 51.7544C14.3588 54.7674 13.7486 55.7208 13.5769 55.9878C13.1765 56.6743 12.9095 57.3608 12.8904 57.6468C12.8714 57.8375 12.7951 58.524 12.6807 59.5729C12.4137 61.9756 11.9751 65.9993 11.8607 67.3913C11.5746 71.3768 9.40073 72.8642 8.12308 73.3982C7.32217 73.7224 6.50218 73.8558 5.72034 73.8558ZM37.1277 29.2906C37.2039 29.8246 37.2611 30.2632 37.2802 30.5301C37.3946 31.7506 36.5174 32.8375 35.2589 33.0092C34.7249 33.0854 31.4831 33.6575 29.1376 34.611L29.0232 34.6491C26.6204 35.6217 24.3321 36.5561 19.2596 42.8871C17.5052 45.0801 15.1025 47.9977 13.1574 50.3242C12.1849 51.4874 11.3649 52.4981 10.8309 53.1465C9.24818 55.0916 8.27564 57.0557 7.97053 57.685C7.81797 57.9901 7.37938 58.9054 6.78822 60.0687C5.39616 62.8909 3.05062 67.582 2.78365 68.1922C2.66923 68.4783 2.80272 69.6606 3.79433 70.5187C4.25199 70.9192 5.72034 71.3578 7.01706 70.8238C8.2375 70.328 8.924 69.0885 9.05748 67.1625C9.1719 65.7132 9.62957 61.6705 9.89654 59.2296C10.011 58.2761 10.0872 57.5134 10.1063 57.3417C10.2016 56.2548 10.9454 54.9199 11.1742 54.5385C11.4412 54.0809 12.3565 52.6888 14.0918 50.1526L14.1681 50.0382C14.7592 49.1419 15.4076 48.5317 16.8759 48.2838C17.2764 48.2266 18.1155 48.0549 19.0117 47.8833C20.8996 47.5019 22.0819 47.2731 22.5396 47.2349C23.9507 47.1205 24.7707 47.8642 24.9995 49.4661C25.0567 49.8093 25.133 50.4767 25.2283 51.1632C25.3428 52.0404 25.4762 53.013 25.5335 53.4134C25.6288 53.5851 26.1055 54.0999 26.8111 54.119C28.165 54.1762 28.9469 54.1381 29.7478 54.0999C29.9957 53.9665 30.5678 53.2418 30.3771 51.8879C30.072 49.5805 29.2901 42.3913 29.1948 41.3806C29.0422 39.6644 29.6715 37.3951 31.8836 36.1747L33.1612 35.4691C34.7821 34.5919 36.8035 33.505 37.2611 33.2189C37.9286 32.8375 38.5769 32.5324 39.6067 32.3799C40.4457 32.2464 40.9225 32.1892 41.4946 32.1892H41.5899C43.0582 32.2464 43.8401 33.1236 44.0308 34.9733C44.1643 36.0984 47.101 61.3654 47.2535 62.8147C47.4061 64.0351 47.6158 63.997 48.2261 63.9398C49.9614 63.73 56.6166 62.3189 57.9515 61.9756C58.8096 61.7468 59.6677 61.2891 60.1826 59.4966C60.9072 56.9604 62.1086 52.7079 65.8843 51.4874C67.6578 50.9153 69.4503 50.4958 71.9865 51.4493C73.4549 52.0023 77.3451 53.4706 81.5594 53.0893C91.3039 52.193 94.8317 51.8116 96.0903 51.64C97.1963 51.4874 97.1963 51.1823 97.1772 50.7628C97.101 50.6484 96.8721 50.3814 96.4145 50.1907C96.0331 50.0382 94.641 49.6186 93.1536 49.18C90.522 48.3982 87.2611 47.4066 85.0872 46.5866C82.8943 45.7666 75.5335 43.0206 63.7867 38.6537L63.3862 38.5012C62.5853 38.2151 55.4152 35.5835 51.1055 34.3059C47.7875 33.3906 39.7974 30.3585 37.1277 29.2906Z" fill="white"/>
</g>
<defs>
<clipPath id="clip0_429_1647">
<rect width="100" height="100" fill="white"/>
</clipPath>
</defs>
</svg>
