<?xml version="1.0" encoding="UTF-8"?> <svg xmlns="http://www.w3.org/2000/svg" id="uuid-8798c53c-e9f7-4c7f-86d2-bcdd67379b3b" data-name="Layer 2" width="524.40002" height="524.40002" viewBox="0 0 524.40002 524.40002"><g id="uuid-6df1de52-ff5e-4753-9cae-85e6199a710b" data-name="uuid-d61134fd-200c-4926-a328-b60d288bdb01"><rect width="524.40002" height="524.40002" style="fill: none;"></rect><path d="M432.45508,470.29395c-21.61035,0-36.10742-7.84961-37.09961-8.40234l-.47656-.26562-.43848-.32617L22.23682,183.79199l-.22021-.18994c-15.25586-13.14355-21.50244-23.59961-19.65918-32.90674,1.26221-6.37354,6.13867-10.10303,9.93115-11.35986l.54346-.18018,13.94824-2.55713c2.95117-.54102,4.5459-1.46777,4.75098-2.75879-1.42627-3.81738-6.05469-16.22998-10.2251-27.71143l-.34375-.94531-.10596-1.00049c-1.30078-12.27734,2.89258-19.98584,6.63916-24.29053,3.31299-3.80713,6.89014-5.69971,8.64404-6.46387,4.55176-2.65527,35.38721-20.35059,56.86279-25.26465,9.84619-2.25244,17.04736-.72314,21.39844,4.5498,6.54199,7.92529,2.02881,19.30176,1.05762,21.50195-.08398.19238-2.31592,5.33643-11.22412,28.84131-6.62598,17.48291,5.14258,26.70605,6.50635,27.7002l.29004.21631,193.33643,150.89941c1.38086.43262,2.36328.61523,3.02051.68555.03223-1.09766-.15137-2.67871-.4873-4.09082-4.68164-7.05566-29.67578-44.79248-41.42773-64.08496-11.4502-18.79834-33.67041-31.36768-33.89355-31.49268-.26367-.14893-21.62695-12.22852-51.52979-26.44336-14.51855-6.90137-23.55566-15.31006-26.86035-24.99219-2.24121-6.56543-1.21045-11.83105-.28223-14.59766.38428-5.3999,2.01514-26.70654,5.05664-45.7085l.13818-.86475.31689-.81641c3.99023-10.27539,10.48584-13.74365,15.23242-14.84326,12.39062-2.87158,24.22021,7.62891,25.52832,8.83545l.41699.41309c2.896,3.08008,71.07764,75.64648,85.20557,94.05273,10.20801,13.29932,29.21094,16.96387,33.64941,17.65186,7.79004-1.26514,51.3584-8.41748,70.2627-13.14453,24.12695-6.03662,40.7373,5.32764,54.08398,14.45801l1.42285.97314c7.79785,5.31982,10.30078,11.51465,11.02637,15.7749,1.42188,8.33936-2.77441,14.88721-3.70508,16.21387-1.62012,2.36572-29.44531,42.94385-44.12891,60.94141-11.08496,13.58496-5.79883,29.53516-5.23926,31.10352,6.02539,14.22559,24.24609,52.85059,37.33008,63.55469,2.39453,1.95801,4.01562,2.43848,4.45996,2.27734,1.74609-.6084,4.40137-5.51855,5.54492-10.14648l2.58887-65.99414c-.82324-6.92871,1.63281-20.10547,16.6084-26.83008l.76367-.29785c15.35742-5.1333,30.07812-.76758,41.44824,12.2959,7.94824,9.13086,11.69824,19.57129,11.85352,20.01074l.51855,1.46387-2.58008,80.29883c.37891,5.75488,2.01562,50.69043-36.52637,76.23828l-.21875.14062c-19.09766,11.80957-36.9248,15.38574-51.50977,15.38574ZM403.7832,447.69922c3.99121,2.02344,34.44922,16.03418,71.39844-6.74512,31.94629-21.26562,29.19238-59.92578,29.05957-61.5625l-.03809-.46582.01367-.49121,2.48828-77.4668c-1.0957-2.5791-3.91504-8.53809-8.47656-13.67383-6.83691-7.7002-14.41211-10.09668-23.13184-7.32715-6.75586,3.20312-6.80078,8.13477-6.60938,9.75586l.2373,1.01465-.12207.74121-2.67676,68.22168-.14355.68066c-.65137,3.09277-4.50293,18.72852-16.33691,22.89844-4.52148,1.59473-11.73047,2.00977-20.38086-5.06641-18.65723-15.2627-39.80371-64.51074-42.15332-70.07617l-.0918-.22754c-.40723-1.05078-9.77148-25.98145,7.81836-47.53955,14.36816-17.61035,43.0459-59.4624,43.33398-59.8833l.11523-.16846c3.01758-4.62207-1.62598-7.79004-3.1582-8.83496l-1.44141-.98535c-12.78906-8.74951-23.83594-16.30811-40.77344-12.0708-21.38477,5.34766-70.75977,13.28809-72.85059,13.62354l-1.06641.1709-1.0752-.10938c-1.21582-.12402-29.97852-3.27539-45.99902-24.14844-13.22998-17.23633-79.37744-87.72852-83.90137-92.54541-2.68994-2.36328-7.84521-5.34766-10.45898-4.72998-1.44287.34082-2.62695,2.54053-3.26709,4.00342-3.2207,20.53906-4.80762,44.27197-4.82373,44.5127l-.13916,2.11279-.64893.94824c-1,3.27393,1.62939,11.20166,18.64453,19.28955,30.47559,14.4873,52.31543,26.84033,52.53223,26.96338,1.00293.55664,26.13867,14.70361,39.89453,37.28662,12.55176,20.60596,41.51074,64.18848,41.80176,64.62695l.62793.94434.34961,1.0791c.79688,2.46094,4.38574,15.10938-3.22656,22.47949-4.8916,4.73633-12.125,5.42871-21.50098,2.05371l-1.24121-.44629L101.04248,144.0918c-8.28711-5.90674-21.24854-23.07324-12.22607-46.87939,9.19385-24.2583,11.46533-29.4458,11.55762-29.65479.50195-1.17822.89648-2.79395.99561-3.91748-.86816-.02637-2.35449.06104-4.68945.59521-20.27002,4.63867-52.35791,23.50586-52.67969,23.6958l-.90479.53467-.48926.12891c-1.30762.59229-6.12207,3.43457-5.4375,12.90918,4.85693,13.3501,10.18945,27.58643,10.24414,27.73242l.24268.64795.13135.6792c.22803,1.17725,1.15625,7.35352-2.93701,13.34717-2.18555,3.2002-6.57861,7.34326-15.09668,8.90527l-10.98096,2.0127c.67285,2.00146,3.32861,7.04492,13.78906,16.09473l371.22168,276.77588Z" style="fill: #1d1d1b;"></path></g></svg> 