<?xml version="1.0" encoding="utf-8"?>
<!-- Generator: Adobe Illustrator 28.2.0, SVG Export Plug-In . SVG Version: 6.00 Build 0)  -->
<svg version="1.1" id="uuid-0ea26210-0535-4554-8a8f-8b06c372aaa6"
	 xmlns="http://www.w3.org/2000/svg" xmlns:xlink="http://www.w3.org/1999/xlink" x="0px" y="0px" viewBox="0 0 524.4 524.4"
	 style="enable-background:new 0 0 524.4 524.4;" xml:space="preserve">
<style type="text/css">
	.st0{fill:none;}
	.st1{fill:#241758;}
</style>
<g id="uuid-46f511a3-e035-4b0a-9d62-359161a38f89">
	<rect class="st0" width="524.4" height="524.4"/>
	<g id="uuid-cf95cc74-0e61-4f77-b4cf-27ea2a1aa4b5">
		<g>
			<polygon class="st1" points="268.1,362.4 263,362.5 252.8,350.3 262.4,337.7 267.4,337.5 257.8,350.3 			"/>
			<polygon class="st1" points="258.1,362.7 253,362.9 242.8,350.6 252.5,337.9 257.5,337.7 247.8,350.4 			"/>
		</g>
	</g>
	<g id="uuid-54cbbcb3-1e64-42f7-ba34-e720a6777573">
		<path class="st1" d="M206.4,394.8c-2.5,0-7.7-0.4-10.4-3.9c-2.1-2.6-3.6-9.3-3.8-10.4c-0.5-1.5-4.1-7.4-8.3-9.8
			c-4.4-2.5-11-5.3-23.3-3.7c-14,1.8-47.2,1.6-60.8,0.2c-13.6-1.4-37.6-5.8-45.5-7.8l-1.4-0.3c-11.2-2.9-16.8-4.4-19.2-5.5
			c-0.2-0.1-0.5-0.2-0.8-0.3c-2.3-0.9-7.8-3.1-9-10.3c-0.9-5.4,0.7-8.2,2.4-10.7c0.3-0.4,0.5-0.7,0.7-1.1c0,0,0-0.1,0.1-0.1
			c1-1.8,4.4-6.5,8.7-12.6c1.6-2.3,3.2-4.5,3.6-5.1c0.4-0.6,0.5-0.9,0.6-0.9l0,0c0,0,0-0.2,0-0.8c0-0.1,0-0.2,0-0.3
			c-0.1-0.1-0.3-0.3-0.6-0.7l-2.1-1.9c-19.7-17.9-29.2-26.7-30.8-28.3c-3.2-3.4-7.1-7.6-6.4-17.1c0.3-3.9,1-9.2,1.7-13.9
			c0.5-3.5,1-6.7,1.2-8.8c0.5-5.5,1.8-13.4,3.5-18.7c1-3.1,2.3-6.1,3.9-9.8c0.9-2.1,2-4.5,3.2-7.4c0.9-2.2,1.8-4.4,2.8-6.5
			c2.2-5.1,4.5-10.4,5.2-13.1c1.1-4.5,3-13.2,3.4-16.1c0.6-3.9,3.1-13,14.2-12.3c0,0,0.1,0,0.1,0c3.9,0.3,12.8-0.2,18.6-4.7
			c1.1-0.8,2.4-2.1,4-3.5c7.8-7.1,20.8-19,40.3-19c20.9,0,33.5,8.8,41.1,14.1c0.7,0.5,1.4,1,2,1.4c7.3,5,20.9,14.8,26.1,20.1
			l0.3,0.3c5.2,5.2,13.1,13.1,26.1,45.1c10.2,25.1,18,35.3,36.2,47.5c21.2,14.2,34.9,13.4,57.5,12.2c1.9-0.1,3.9-0.2,5.9-0.3
			c9.9-0.5,21.7-1.7,23.9-2c2.3-0.2,2.9-0.7,4.2-2.5c0.7-0.9,2-2.8,3.6-4.9c3.4-4.6,8.4-11.6,9.3-12.9l0.1-0.2
			c2.6-4,5.8-6.6,13.6-7.2c1.9-0.1,7.4-0.6,14.5-1.2c20.3-1.8,38.8-3.4,43.1-3.5c5.6-0.2,18.7-0.5,34.7,6.9
			c14.4,6.8,60.5,31.2,63.3,32.8c3.5,1.9,10.5,6.4,12.7,8.6c6,6,3.8,12.3,2.6,14.7c-0.7,1.4-2.5,4.4-5.9,10
			c-3.9,6.5-10.5,17.3-11.6,20.2c0,0,0,0.1-0.1,0.1c-2.2,5.4-5.5,11.8-8.6,16.8c-3.9,6.2-12.6,16-27.5,12.5c-4-1-9.9-2.5-16.2-4.1
			c-9.2-2.3-21.5-5.5-25.5-6.4c0.1,2.3,0.4,5.3,0.6,8.2c0.4,4.5,0.7,9.2,0.8,12.6c0,0,0,0.1,0,0.1c0.2,10.6-9.8,20-22.2,20.9
			c-4.6,0.3-65.9,1.9-139.4,3.8c-31.1,0.8-57.9,1.5-59.9,1.6C207.4,394.8,207,394.8,206.4,394.8L206.4,394.8z M207,383.2L207,383.2
			L207,383.2z M167.3,353c11.4,0,18.5,3.3,23.2,6c7.7,4.5,13.6,13.7,14.7,18.4c0,0.1,0,0.1,0,0.2c0.3,1.2,0.7,2.7,1,3.8
			c0.1,0,0.2,0,0.3,0c0.9-0.1,13-0.4,60.5-1.6c53.4-1.4,134.2-3.5,138.7-3.8c0,0,0,0,0,0c6-0.4,9.7-4.5,9.7-7.2
			c-0.1-3-0.4-7.5-0.8-11.8c-0.4-5-0.7-9.7-0.7-12.4c0-4.4,2-7,3.6-8.4c3.9-3.3,8.8-2.4,11-2c2,0.3,9.2,2.2,27.8,6.9
			c6.2,1.6,12.2,3.1,16.1,4.1c5.3,1.3,9.2-0.7,12.9-6.6c2.7-4.3,5.6-10,7.5-14.6c1.5-3.8,6.2-11.7,12.6-22.3c2-3.3,4.2-6.9,5.1-8.5
			c-1.4-1.1-6-4.3-9.3-6c-4.8-2.6-49.4-26.1-62.6-32.4c-13.1-6.1-23.6-5.8-28.6-5.6c-4.3,0.1-27.2,2.1-42.3,3.5
			c-7.1,0.6-12.7,1.1-14.6,1.3c-1.9,0.1-2.7,0.4-3,0.5c-0.1,0.1-0.3,0.4-0.4,0.6l-0.1,0.2c-0.9,1.4-4.7,6.6-9.6,13.4
			c-1.6,2.1-2.9,4-3.5,4.9c-2.5,3.5-6.1,7.2-13.7,8c-2.3,0.2-14.4,1.5-24.6,2c-2,0.1-4,0.2-5.9,0.3c-23.7,1.3-40.8,2.2-65.7-14.4
			c-22.6-15.1-31.3-29.3-41.1-53.6c-12-29.5-18.7-36.2-23.1-40.6l-0.3-0.3c-3.9-3.9-15.6-12.6-24.2-18.5c-0.7-0.5-1.4-1-2.2-1.5
			c-7.1-4.9-16.7-11.7-33.4-11.7c-14.3,0-24.1,9-31.3,15.5c-1.8,1.6-3.3,3-4.7,4.1c-8.4,6.5-20.1,8.1-27.8,7.5
			c0,0.2-0.1,0.5-0.1,0.8c-0.5,3.6-2.6,13.2-3.6,17.3c0,0,0,0.1,0,0.1c-1,3.7-3.2,9-5.9,15.1c-0.9,2.1-1.8,4.3-2.7,6.4
			c-1.2,3-2.3,5.4-3.2,7.6c-1.5,3.5-2.7,6.1-3.5,8.7c-1.3,4-2.5,10.9-2.9,15.7c-0.2,2.4-0.7,5.9-1.2,9.5c-0.6,4.5-1.4,9.5-1.6,13
			c-0.3,3.7,0.3,4.3,2.8,6.9c0.8,0.9,6.8,6.5,30.1,27.7l2.1,1.9c3.5,3.2,5,6.5,5,10.9c0,3.7-0.7,6-2.8,9.1c-0.5,0.8-1.7,2.5-3.8,5.4
			c-2.7,3.8-7.2,10.1-8.1,11.6c-0.5,0.8-0.9,1.5-1.3,2c-0.1,0.1-0.2,0.3-0.3,0.4c0,0,0,0,0,0.1c0.2,0.1,0.5,0.2,0.8,0.3
			c0.6,0.2,1.1,0.5,1.6,0.7c0,0,0.1,0,0.1,0.1c1.7,0.8,11,3.1,16.6,4.6l1.3,0.3c7.3,1.9,30.7,6.1,43.6,7.4
			c12.5,1.3,45.1,1.4,57.7-0.2C161.9,353.2,164.7,353,167.3,353L167.3,353z"/>
	</g>
</g>
</svg>
