<?xml version="1.0" encoding="utf-8"?>
<!-- Generator: Adobe Illustrator 28.2.0, SVG Export Plug-In . SVG Version: 6.00 Build 0)  -->
<svg version="1.1" id="uuid-515fa650-80db-4a9e-9f7f-088f32e3df67"
	 xmlns="http://www.w3.org/2000/svg" xmlns:xlink="http://www.w3.org/1999/xlink" x="0px" y="0px" viewBox="0 0 524.6 524.4"
	 style="enable-background:new 0 0 524.6 524.4;" xml:space="preserve">
<style type="text/css">
	.st0{fill:none;}
	.st1{fill:#241758;}
</style>
<g id="uuid-ad7d9a68-2725-4c39-a9cc-95065b3b08e0">
	<rect class="st0" width="524.4" height="524.4"/>
	<g id="uuid-a61a222a-4fa1-47b4-813d-5f90504353a4">
		<g>
			<polygon class="st1" points="290.2,391.1 285.2,392.2 272.9,382.1 279.9,367.9 284.7,366.8 277.7,381.1 			"/>
			<polygon class="st1" points="280.4,393.3 275.4,394.4 263.1,384.3 270.3,369.9 275.1,368.8 268,383.2 			"/>
		</g>
	</g>
	<g id="uuid-92440398-65aa-4b56-8525-769e7b10f171">
		<path class="st1" d="M214.6,436.2c-4.6,0-10.3-2-14.9-10.8c-4.8-9.3-16.3-28.2-28.8-46.5c-10.2-15-51-78.4-58.9-101.2l-0.3-0.9
			c-7.2-20.8-18.1-52.2-31.4-73.7c-10.7-17.3-29.9-38.4-41.4-51c-3-3.3-5.7-6.2-7.5-8.3c-4.5-5.2-10.9-11.7-16.6-17.4
			C9.1,120.4,5.7,117,4,114.9c-3.7-4.8-4.8-10.4-3-15c1.3-3.2,4.4-7.2,12.2-8.4c9.1-1.3,41.3-3.3,64.4-2.3
			c22.4,0.9,63.9,9.5,79.1,13.8c14.8,4.2,63.1,15.7,75.1,17.3c8.3,1.2,43.8,4.1,67.3,6c12.3,1,22.1,1.8,25.1,2.1
			c12.3,1.3,16.4,6.7,18.8,11.9c4.1,8.9-3.9,22-6.4,25.8c-4.9,7.3-11.3,13.8-20.8,21.1c-8.9,6.7-26.7,14.8-44.8,16.7
			c-17.2,1.9-36.1-2.3-52.3-6.8c-13.5-3.7-26.7-6.3-34.6-6.9c-4.4-0.3-19.2-0.7-24.4,7.9c-4.9,7.8-7,14-6.7,19.9
			c0.2,4.4,3.3,9.9,6.4,15.2c1.1,2,2.3,4,3.3,6c3.9,7.5,19.9,37.7,22.4,42c4.6,7.7,11.2,11.7,19.6,11.7c12.9,0,16.9-3.7,23-12.2
			c7.1-9.7,27.3-32.3,62-33.8c29.9-1.3,179.7,1.9,185.8,2.4c4.7,0.3,8.3,1.2,11.1,2.6c0.3,0.1,0.7,0.3,1.2,0.6
			c5.1,2.5,8.2,4.1,9.9,5.4c0.1,0,0.1,0.1,0.2,0.1c0.1,0.1,0.3,0.2,0.4,0.3c2.8,2.1,5.9,4.9,8.2,13l1.4,5.1
			c7.6,26.4,15.4,53.9,16.1,56.7c0,0.1,0,0.1,0,0.2c0.9,4.5,1.4,9.4-1.7,15c-3.3,6.2-13.9,12.3-18.2,14.6
			c-1.7,0.9-17.8,9.3-46.3,16.1c-15,3.4-32.6,7.6-32.9,7.7l0,0c-8.1,1.9-199,47.3-203.1,48.2c-0.4,0.1-0.7,0.2-1.1,0.3
			C219.1,435.6,217,436.2,214.6,436.2L214.6,436.2z M15.5,105.9C15.5,105.9,15.5,105.9,15.5,105.9c1.2,1.6,5.5,5.9,9.7,10.1
			c5.9,5.9,12.5,12.6,17.3,18.1c1.7,2,4.3,4.8,7.2,8c11.8,13,31.6,34.7,43,53.2c14.2,22.9,25.4,55.2,32.8,76.6l0.3,0.9
			c6.5,18.8,43,77,57.2,97.7c12.8,18.8,24.6,38.4,29.7,48c1.1,2.1,1.9,2.8,2.1,3c0.4,0,1.4-0.3,2.1-0.5c0.6-0.2,1.1-0.3,1.7-0.4
			c4-0.9,200.9-47.7,202.9-48.2c0,0,0,0,0,0c0.2,0,17.9-4.3,33-7.7c21.6-5.2,37.1-11.7,42.8-14.8c6.6-3.6,11.5-7.5,12.4-8.8
			c0.7-1.2,0.8-2,0.2-5c-0.9-3.5-12.1-42.9-15.9-55.9l-1.5-5.1c-1.1-4-2-4.7-2.9-5.3c-0.3-0.2-0.5-0.4-0.7-0.6
			c-0.7-0.5-3.2-1.8-7.4-3.8c-0.6-0.3-1.1-0.5-1.4-0.7c-0.5-0.2-2-0.8-5.7-1.1c-6.3-0.4-154.4-3.6-184.1-2.3
			c-28.4,1.2-45,19.8-50.8,27.8c-8.3,11.5-16.7,18.1-34.8,18.1c-13.5,0-24.9-6.7-32.1-18.8c-2.8-4.8-19.3-36-22.8-42.7
			c-0.9-1.7-1.9-3.5-3-5.4c-3.7-6.5-8-13.9-8.3-21.9c-0.3-8.9,2.5-17.9,8.9-28.1c9.2-15.1,29.5-15.4,37.8-14.8
			c8.8,0.7,23.1,3.5,37.4,7.4c14,3.8,32,8,46.9,6.4c14.5-1.5,30.2-8.3,37.5-13.9c8.3-6.3,13.5-11.6,17.5-17.6
			c3.8-5.7,5.2-10.5,5.1-12.1c-0.7-1.6-1.5-2.6-6.9-3.1c-2.9-0.3-13-1.1-24.8-2.1c-25.1-2-59.5-4.8-68.2-6.1
			c-13.5-1.9-63.1-13.7-77-17.7c-14.2-4.1-54.8-12.4-75.7-13.3C55.7,102.8,24.5,104.6,15.5,105.9L15.5,105.9z"/>
	</g>
</g>
</svg>
