<svg width="525" height="525" viewBox="0 0 525 525" fill="none" xmlns="http://www.w3.org/2000/svg">
<g clip-path="url(#clip0_429_1426)">
<path d="M268.1 362.4L263 362.5L252.8 350.3L262.4 337.7L267.4 337.5L257.8 350.3L268.1 362.4Z" fill="white"/>
<path d="M258.1 362.7L253 362.9L242.8 350.6L252.5 337.9L257.5 337.7L247.8 350.4L258.1 362.7Z" fill="white"/>
<path d="M206.4 394.8C203.9 394.8 198.7 394.4 196 390.9C193.9 388.3 192.4 381.6 192.2 380.5C191.7 379 188.1 373.1 183.9 370.7C179.5 368.2 172.9 365.4 160.6 367C146.6 368.8 113.4 368.6 99.8 367.2C86.2 365.8 62.2 361.4 54.3 359.4L52.9 359.1C41.7 356.2 36.1 354.7 33.7 353.6C33.5 353.5 33.2 353.4 32.9 353.3C30.6 352.4 25.1 350.2 23.9 343C23 337.6 24.6 334.8 26.3 332.3C26.6 331.9 26.8 331.6 27 331.2C27 331.2 27 331.1 27.1 331.1C28.1 329.3 31.5 324.6 35.8 318.5C37.4 316.2 39 314 39.4 313.4C39.8 312.8 39.9 312.5 40 312.5C40 312.5 40 312.3 40 311.7C40 311.6 40 311.5 40 311.4C39.9 311.3 39.7 311.1 39.4 310.7L37.3 308.8C17.6 290.9 8.09997 282.1 6.49997 280.5C3.29997 277.1 -0.600027 272.9 0.0999725 263.4C0.399973 259.5 1.09997 254.2 1.79997 249.5C2.29997 246 2.79997 242.8 2.99997 240.7C3.49997 235.2 4.79997 227.3 6.49997 222C7.49997 218.9 8.79997 215.9 10.4 212.2C11.3 210.1 12.4 207.7 13.6 204.8C14.5 202.6 15.4 200.4 16.4 198.3C18.6 193.2 20.9 187.9 21.6 185.2C22.7 180.7 24.6 172 25 169.1C25.6 165.2 28.1 156.1 39.2 156.8H39.3C43.2 157.1 52.1 156.6 57.9 152.1C59 151.3 60.3 150 61.9 148.6C69.7 141.5 82.7 129.6 102.2 129.6C123.1 129.6 135.7 138.4 143.3 143.7C144 144.2 144.7 144.7 145.3 145.1C152.6 150.1 166.2 159.9 171.4 165.2L171.7 165.5C176.9 170.7 184.8 178.6 197.8 210.6C208 235.7 215.8 245.9 234 258.1C255.2 272.3 268.9 271.5 291.5 270.3C293.4 270.2 295.4 270.1 297.4 270C307.3 269.5 319.1 268.3 321.3 268C323.6 267.8 324.2 267.3 325.5 265.5C326.2 264.6 327.5 262.7 329.1 260.6C332.5 256 337.5 249 338.4 247.7L338.5 247.5C341.1 243.5 344.3 240.9 352.1 240.3C354 240.2 359.5 239.7 366.6 239.1C386.9 237.3 405.4 235.7 409.7 235.6C415.3 235.4 428.4 235.1 444.4 242.5C458.8 249.3 504.9 273.7 507.7 275.3C511.2 277.2 518.2 281.7 520.4 283.9C526.4 289.9 524.2 296.2 523 298.6C522.3 300 520.5 303 517.1 308.6C513.2 315.1 506.6 325.9 505.5 328.8C505.5 328.8 505.5 328.9 505.4 328.9C503.2 334.3 499.9 340.7 496.8 345.7C492.9 351.9 484.2 361.7 469.3 358.2C465.3 357.2 459.4 355.7 453.1 354.1C443.9 351.8 431.6 348.6 427.6 347.7C427.7 350 428 353 428.2 355.9C428.6 360.4 428.9 365.1 429 368.5V368.6C429.2 379.2 419.2 388.6 406.8 389.5C402.2 389.8 340.9 391.4 267.4 393.3C236.3 394.1 209.5 394.8 207.5 394.9C207.4 394.8 207 394.8 206.4 394.8ZM167.3 353C178.7 353 185.8 356.3 190.5 359C198.2 363.5 204.1 372.7 205.2 377.4C205.2 377.5 205.2 377.5 205.2 377.6C205.5 378.8 205.9 380.3 206.2 381.4C206.3 381.4 206.4 381.4 206.5 381.4C207.4 381.3 219.5 381 267 379.8C320.4 378.4 401.2 376.3 405.7 376C411.7 375.6 415.4 371.5 415.4 368.8C415.3 365.8 415 361.3 414.6 357C414.2 352 413.9 347.3 413.9 344.6C413.9 340.2 415.9 337.6 417.5 336.2C421.4 332.9 426.3 333.8 428.5 334.2C430.5 334.5 437.7 336.4 456.3 341.1C462.5 342.7 468.5 344.2 472.4 345.2C477.7 346.5 481.6 344.5 485.3 338.6C488 334.3 490.9 328.6 492.8 324C494.3 320.2 499 312.3 505.4 301.7C507.4 298.4 509.6 294.8 510.5 293.2C509.1 292.1 504.5 288.9 501.2 287.2C496.4 284.6 451.8 261.1 438.6 254.8C425.5 248.7 415 249 410 249.2C405.7 249.3 382.8 251.3 367.7 252.7C360.6 253.3 355 253.8 353.1 254C351.2 254.1 350.4 254.4 350.1 254.5C350 254.6 349.8 254.9 349.7 255.1L349.6 255.3C348.7 256.7 344.9 261.9 340 268.7C338.4 270.8 337.1 272.7 336.5 273.6C334 277.1 330.4 280.8 322.8 281.6C320.5 281.8 308.4 283.1 298.2 283.6C296.2 283.7 294.2 283.8 292.3 283.9C268.6 285.2 251.5 286.1 226.6 269.5C204 254.4 195.3 240.2 185.5 215.9C173.5 186.4 166.8 179.7 162.4 175.3L162.1 175C158.2 171.1 146.5 162.4 137.9 156.5C137.2 156 136.5 155.5 135.7 155C128.6 150.1 119 143.3 102.3 143.3C88 143.3 78.2 152.3 71 158.8C69.2 160.4 67.7 161.8 66.3 162.9C57.9 169.4 46.2 171 38.5 170.4C38.5 170.6 38.4 170.9 38.4 171.2C37.9 174.8 35.8 184.4 34.8 188.5V188.6C33.8 192.3 31.6 197.6 28.9 203.7C28 205.8 27.1 208 26.2 210.1C25 213.1 23.9 215.5 23 217.7C21.5 221.2 20.3 223.8 19.5 226.4C18.2 230.4 17 237.3 16.6 242.1C16.4 244.5 15.9 248 15.4 251.6C14.8 256.1 14 261.1 13.8 264.6C13.5 268.3 14.1 268.9 16.6 271.5C17.4 272.4 23.4 278 46.7 299.2L48.8 301.1C52.3 304.3 53.8 307.6 53.8 312C53.8 315.7 53.1 318 51 321.1C50.5 321.9 49.3 323.6 47.2 326.5C44.5 330.3 40 336.6 39.1 338.1C38.6 338.9 38.2 339.6 37.8 340.1C37.7 340.2 37.6 340.4 37.5 340.5C37.5 340.5 37.5 340.5 37.5 340.6C37.7 340.7 38 340.8 38.3 340.9C38.9 341.1 39.4 341.4 39.9 341.6C39.9 341.6 40 341.6 40 341.7C41.7 342.5 51 344.8 56.6 346.3L57.9 346.6C65.2 348.5 88.6 352.7 101.5 354C114 355.3 146.6 355.4 159.2 353.8C161.9 353.2 164.7 353 167.3 353Z" fill="white"/>
</g>
<defs>
<clipPath id="clip0_429_1426">
<rect width="524.4" height="524.4" fill="white"/>
</clipPath>
</defs>
</svg>
