<svg width="100" height="100" viewBox="0 0 100 100" fill="none" xmlns="http://www.w3.org/2000/svg">
<g clip-path="url(#clip0_429_1516)">
<path d="M55.3183 74.5804L54.3652 74.7902L52.0205 72.8642L53.3549 70.1563L54.2698 69.9465L52.9355 72.6735L55.3183 74.5804Z" fill="white"/>
<path d="M53.4501 74.9999L52.497 75.2097L50.1523 73.2836L51.5248 70.5376L52.4398 70.3279L51.0864 73.0739L53.4501 74.9999Z" fill="white"/>
<path d="M40.9075 83.1807C40.0307 83.1807 38.9441 82.7993 38.0673 81.1212C37.1523 79.3477 34.9601 75.7436 32.5774 72.2539C30.633 69.3935 22.8557 57.3035 21.3498 52.9557L21.2926 52.784C19.9201 48.8176 17.8423 42.8298 15.3071 38.7299C13.2674 35.4309 9.60748 31.4072 7.41533 29.0045C6.84346 28.3752 6.32879 27.8222 5.98567 27.4217C5.12787 26.4301 3.90789 25.1906 2.82135 24.1037C1.73481 22.9595 1.0867 22.3111 0.762641 21.9107C0.0573413 20.9953 -0.152342 19.9275 0.190776 19.0503C0.438584 18.44 1.02951 17.6773 2.51636 17.4484C4.25101 17.2005 10.389 16.8191 14.7924 17.0098C19.0623 17.1815 26.9731 18.8214 29.8705 19.6414C32.6917 20.4423 41.8987 22.6353 44.1862 22.9404C45.7684 23.1693 52.5354 23.7223 57.015 24.0846C59.3597 24.2753 61.2278 24.4278 61.7996 24.485C64.1443 24.7329 64.9258 25.7627 65.3833 26.7543C66.1649 28.4515 64.6399 30.9496 64.1633 31.6742C63.2293 33.0663 62.0093 34.3058 60.1984 35.6979C58.5019 36.9755 55.1088 38.5201 51.6586 38.8824C48.3799 39.2448 44.7771 38.4439 41.6891 37.5857C39.1157 36.8802 36.5995 36.3844 35.0936 36.2699C34.2548 36.2127 31.4336 36.1365 30.4424 37.7764C29.5084 39.2638 29.108 40.4461 29.1652 41.5712C29.2034 42.4103 29.7943 43.4591 30.3852 44.4698C30.5949 44.8512 30.8236 45.2326 31.0143 45.614C31.7577 47.0442 34.8076 52.8031 35.2842 53.6231C36.161 55.0915 37.4191 55.8542 39.0204 55.8542C41.4794 55.8542 42.2419 55.1487 43.4047 53.5278C44.7581 51.678 48.6086 47.3683 55.2232 47.0823C60.9228 46.8344 89.4779 47.4446 90.6406 47.54C91.5366 47.5972 92.2228 47.7688 92.7565 48.0358C92.8137 48.0548 92.89 48.093 92.9853 48.1502C93.9575 48.6269 94.5484 48.932 94.8724 49.1799C94.8915 49.1799 94.8915 49.199 94.9106 49.199C94.9296 49.2181 94.9677 49.2371 94.9868 49.2562C95.5206 49.6567 96.1115 50.1906 96.5499 51.7352L96.8168 52.7078C98.2655 57.7421 99.7523 62.9862 99.8858 63.5201C99.8858 63.5392 99.8858 63.5392 99.8858 63.5583C100.057 64.4164 100.153 65.3508 99.5617 66.4187C98.9327 67.601 96.9121 68.7642 96.0924 69.2028C95.7684 69.3744 92.6994 70.9763 87.2666 72.273C84.4073 72.9214 81.0524 73.7223 80.9952 73.7413C79.4512 74.1037 43.0615 82.7612 42.28 82.9328C42.2037 82.9519 42.1466 82.9709 42.0703 82.99C41.7653 83.0663 41.365 83.1807 40.9075 83.1807ZM2.95479 20.1944C3.18353 20.4995 4.00321 21.3195 4.80382 22.1204C5.92848 23.2455 7.18658 24.5232 8.10157 25.572C8.42562 25.9534 8.92124 26.4873 9.47404 27.0976C11.7234 29.5766 15.4977 33.7146 17.6708 37.2425C20.3776 41.6094 22.5125 47.7688 23.9231 51.8496L23.9803 52.0213C25.2194 55.6063 32.1771 66.7047 34.8839 70.6521C37.3238 74.2371 39.5732 77.9747 40.5453 79.8054C40.755 80.2059 40.9075 80.3394 40.9456 80.3775C41.0219 80.3775 41.2125 80.3203 41.3459 80.2821C41.4603 80.244 41.5556 80.2249 41.67 80.2059C42.4325 80.0342 79.9658 71.1098 80.3471 71.0144C80.3852 71.0144 83.7592 70.1944 86.6376 69.5461C90.755 68.5545 93.7096 67.3149 94.7962 66.7238C96.0543 66.0373 96.9883 65.2936 97.1599 65.0457C97.2933 64.8169 97.3124 64.6643 97.198 64.0922C97.0265 63.4248 94.8915 55.9114 94.1671 53.4324L93.8812 52.4599C93.6715 51.6971 93.5 51.5636 93.3284 51.4492C93.2712 51.4111 93.2331 51.3729 93.195 51.3348C93.0615 51.2394 92.585 50.9915 91.7844 50.6101C91.67 50.5529 91.5747 50.5148 91.5175 50.4767C91.4222 50.4385 91.1363 50.3241 90.431 50.2669C89.23 50.1906 60.999 49.5804 55.3376 49.8283C49.9239 50.0571 46.7596 53.604 45.654 55.1296C44.0718 57.3226 42.4706 58.5812 39.0204 58.5812C36.447 58.5812 34.2739 57.3035 32.9014 54.9961C32.3677 54.0808 29.2224 48.1311 28.5552 46.8535C28.3837 46.5293 28.1931 46.186 27.9834 45.8237C27.2781 44.5842 26.4584 43.1731 26.4012 41.6475C26.344 39.9503 26.8778 38.2341 28.0978 36.289C29.8515 33.4095 33.7211 33.3523 35.3032 33.4667C36.9807 33.6002 39.7066 34.1342 42.4325 34.8779C45.1012 35.6025 48.5324 36.4034 51.3726 36.0983C54.1366 35.8123 57.1294 34.5156 58.5209 33.4477C60.1031 32.2463 61.0943 31.2356 61.8568 30.0915C62.5812 29.0045 62.848 28.0892 62.829 27.7841C62.6955 27.4789 62.543 27.2882 61.5137 27.1929C60.9609 27.1357 59.0356 26.9831 56.7863 26.7924C52.0017 26.4111 45.4443 25.8771 43.7859 25.6292C41.2125 25.2669 31.7577 23.0167 29.108 22.2539C26.4012 21.4721 18.662 19.8893 14.678 19.7177C10.6178 19.6033 4.67038 19.9465 2.95479 20.1944Z" fill="white"/>
</g>
<defs>
<clipPath id="clip0_429_1516">
<rect width="100" height="100" fill="white"/>
</clipPath>
</defs>
</svg>
