<svg width="100" height="100" viewBox="0 0 100 100" fill="none" xmlns="http://www.w3.org/2000/svg">
<g clip-path="url(#clip0_429_1576)">
<path d="M82.3642 62.6049L83.2031 63.1197L83.5654 66.1327L80.7437 67.1625L79.9238 66.6857L82.7837 65.6178L82.3642 62.6049Z" fill="white"/>
<path d="M84.0039 63.5964L84.8428 64.0922L85.2051 67.1052L82.3452 68.154L81.5254 67.6773L84.3853 66.6285L84.0039 63.5964Z" fill="white"/>
<path d="M91.0769 78.3181C90.6384 78.3181 90.1236 78.2037 89.5326 77.9176C88.789 77.5553 55.1189 57.9138 48.2552 53.8902C48.0264 53.7758 47.5307 53.4897 46.5774 52.9558C46.0626 52.6697 45.5097 52.3646 45.2809 52.2311C44.8424 52.0404 43.7747 51.6781 43.0121 51.4302C42.5926 51.2967 37.9215 50.0191 30.5049 48.0168L30.3143 47.9596C29.7232 47.807 28.8653 47.9596 28.6556 48.0549C28.4458 48.1312 28.0454 48.2838 27.3781 48.5126C26.7108 48.7414 25.8719 49.0466 25.4144 49.2182C24.3086 49.6568 22.5545 49.8475 21.5059 49.6186C20.6098 49.447 16.4344 48.4745 14.8901 48.1122C13.5364 47.788 12.564 47.9596 11.8395 48.074C11.6679 48.0931 11.5154 48.1312 11.401 48.1503C11.096 48.1884 9.58977 48.4935 8.40769 48.7224C7.20655 48.9703 6.0626 49.1991 5.47157 49.2945C4.44201 49.4661 3.77471 49.1419 3.37433 48.8559C2.4973 48.1694 2.42104 47.1015 2.38291 46.701C2.36384 46.5103 2.21132 45.5378 2.09692 44.7559C1.90626 43.5546 1.69654 42.2197 1.62028 41.4569C1.52495 40.5225 0.743252 36.6514 0.381003 34.7826C0.247542 34.1152 0.152213 33.6003 0.114082 33.4096C-0.0956418 32.2464 0.266608 31.4073 1.23896 30.9306C1.25803 30.9306 1.27709 30.9115 1.29616 30.9115C1.31523 30.8925 1.33429 30.8925 1.35336 30.8734C1.62028 30.7208 3.31713 29.5576 3.98443 29.0618C4.30855 28.8139 5.68129 27.5553 6.50112 26.7925C7.20655 26.1442 7.64506 25.7247 7.87385 25.534C8.46489 24.9237 9.11313 24.714 9.58977 24.5424C9.7423 24.4851 10.6956 24.1419 11.7251 23.7605C13.5745 23.074 15.8815 22.2159 16.3963 22.0443C17.483 21.6629 19.2561 21.7773 20.0569 22.1205C20.1141 22.1396 20.2094 22.1777 20.3619 22.254C21.525 22.7308 25.0712 24.2182 27.3591 25.4195C29.952 26.7735 33.6508 29.3097 34.1465 29.6911C34.1656 29.6911 34.1656 29.7102 34.1846 29.7102C35.176 30.5302 35.0998 31.8269 34.5278 32.6469C34.5087 32.685 34.4706 32.7422 34.4325 32.8185C34.28 33.0473 34.0893 33.3715 33.8605 33.6575C33.8986 33.7147 33.9368 33.7719 33.9749 33.8292C34.0512 33.9436 34.1656 34.0961 34.2228 34.1724C34.2418 34.1915 34.2418 34.1915 34.2609 34.2105C34.8138 34.8589 34.8901 35.5835 34.9282 35.8505V35.8887C34.9282 35.9268 34.9282 35.9649 34.9473 36.0031C35.6146 36.8612 35.462 38.0244 34.9282 38.8063C34.7757 39.016 32.3352 42.5439 31.2676 44.1076C31.4201 44.1266 31.5726 44.1648 31.7442 44.2029C32.8119 44.4127 42.402 47.1777 44.9759 47.9405C45.014 47.8642 45.0331 47.788 45.0712 47.7117C45.0712 47.7117 45.0712 47.6926 45.0903 47.6926C45.7004 46.4913 47.1684 45.6713 48.8081 46.415C49.0178 46.4912 49.7614 46.7773 50.4859 47.0443C52.3352 47.7308 53.7843 48.2838 54.3562 48.5317C54.3562 48.5317 54.3753 48.5317 54.3753 48.5507C55.0235 48.8559 56.9682 49.981 59.0464 51.2205C59.4277 51.4302 59.7328 51.6209 59.9806 51.7735C60.9149 50.0954 63.9844 45.3852 64.2514 45.0038L64.2704 44.9848C64.6517 44.4508 65.5288 43.2113 67.1112 44.0122L67.1684 44.0313C67.1875 44.0313 67.1875 44.0504 67.2066 44.0504C67.3019 44.1076 67.9883 44.489 70.1046 45.6713C74.871 48.3219 83.7366 53.28 85.2809 54.0809C87.5497 55.225 97.4639 61.5179 98.627 62.3189C99.2943 62.7956 99.9044 63.3295 100.038 64.1495C100.171 64.9314 99.7518 65.4844 99.5612 65.7514C99.5421 65.7895 99.5231 65.8086 99.504 65.8467C99.0655 66.5713 93.8033 75.9726 93.3839 76.8307C93.3839 76.8498 93.3648 76.8498 93.3648 76.8688C92.9644 77.4409 92.2971 78.3181 91.0769 78.3181ZM47.2447 49.9619C47.4735 50.0954 47.7404 50.2289 48.0073 50.4005C48.5602 50.7056 49.3991 51.1823 49.5707 51.2586C49.6088 51.2777 49.647 51.2967 49.6851 51.3158C63.3171 59.2678 89.1894 74.3707 90.7909 75.2479C91.6108 73.7033 95.7099 66.3806 96.7394 64.5691C95.0045 63.3868 85.8338 57.6278 83.8891 56.6362C82.2876 55.8162 73.4029 50.8391 68.6174 48.1884C67.7213 47.6926 66.9206 47.254 66.4058 46.9489C65.4525 48.3982 62.688 52.7269 62.402 53.3372C62.116 54.0046 61.6203 54.5004 60.972 54.7102C60.2857 54.939 59.523 54.8627 58.8176 54.4623C58.627 54.3478 58.1503 54.0809 57.5211 53.7186C56.1865 52.9367 53.708 51.4874 53.0788 51.1823C52.545 50.9344 50.7337 50.267 49.4182 49.7712C48.4268 49.4089 47.8548 49.18 47.626 49.0847C47.5879 49.18 47.5497 49.2754 47.5116 49.3898C47.4163 49.6186 47.34 49.8093 47.2447 49.9619ZM13.3076 45.0038C13.9558 45.0038 14.6994 45.061 15.5383 45.2708C17.6737 45.7666 21.3343 46.6247 22.0588 46.7582C22.0779 46.7582 22.0779 46.7582 22.0969 46.7582C22.5354 46.8536 23.7175 46.7392 24.3276 46.4913C24.8424 46.3006 25.6622 45.9954 26.3867 45.7475C26.8824 45.5759 27.3972 45.3852 27.5497 45.328C27.626 45.2899 27.7213 45.2708 27.8167 45.2327C27.6451 44.5271 27.8167 43.7643 28.3124 43.116C28.5793 42.7346 31.4964 38.5012 32.278 37.3761C32.0302 36.8993 31.9921 36.4417 31.973 36.2319V36.1366C31.973 36.1175 31.973 36.0794 31.973 36.0603C31.8014 35.8505 31.6489 35.6408 31.5345 35.4691C31.4964 35.4119 31.4392 35.3166 31.401 35.2784C31.0197 34.9161 30.7909 34.325 30.7719 33.6957C30.7528 33.0282 30.9816 32.418 31.4201 31.9794C31.5154 31.8841 31.6298 31.7315 31.7251 31.5599C30.5431 30.7399 27.9311 29.0046 26.0054 28.013C23.8128 26.8688 20.3619 25.4386 19.218 24.9619C19.0845 24.9047 18.9701 24.8665 18.9129 24.8284C18.6079 24.733 17.6927 24.6949 17.3305 24.8093C16.8538 24.9619 14.4706 25.8581 12.7356 26.4874C11.4582 26.9642 10.7147 27.2311 10.5621 27.2884C10.1999 27.4218 10.0664 27.479 9.93296 27.5935C9.89483 27.6316 9.83763 27.6888 9.7995 27.7269C9.64697 27.8414 9.03687 28.4134 8.48396 28.9283C7.13029 30.1869 6.13887 31.0832 5.71942 31.4073C5.26184 31.7506 3.79378 32.7613 3.06928 33.238C3.12647 33.4859 3.18367 33.8101 3.25994 34.1915C3.83191 37.0328 4.44201 40.1411 4.55641 41.1137C4.63267 41.8002 4.84239 43.1732 5.01399 44.2792C5.18558 45.3471 5.28091 45.9764 5.31904 46.3196C5.92914 46.2052 6.88243 46.0145 7.83572 45.8238C9.57071 45.4806 10.6575 45.2517 11.0578 45.2136C11.1532 45.1945 11.2676 45.1755 11.382 45.1564C11.8014 45.1183 12.4687 45.0038 13.3076 45.0038ZM31.401 35.2975C31.4201 35.2975 31.4201 35.3166 31.4201 35.3166C31.4201 35.3166 31.401 35.3166 31.401 35.2975Z" fill="white"/>
</g>
<defs>
<clipPath id="clip0_429_1576">
<rect width="100" height="100" fill="white"/>
</clipPath>
</defs>
</svg>
