<?xml version="1.0" encoding="utf-8"?>
<!-- Generator: Adobe Illustrator 28.2.0, SVG Export Plug-In . SVG Version: 6.00 Build 0)  -->
<svg version="1.1" id="uuid-c6abf49d-2854-495c-9e40-5290c5779206"
	 xmlns="http://www.w3.org/2000/svg" xmlns:xlink="http://www.w3.org/1999/xlink" x="0px" y="0px" viewBox="0 0 524.5 524.4"
	 style="enable-background:new 0 0 524.5 524.4;" xml:space="preserve">
<style type="text/css">
	.st0{fill:#241758;}
	.st1{fill:none;}
</style>
<g id="uuid-32676db7-eb69-4b86-9398-f923286a7e0a">
	<g id="uuid-93f0e073-88c3-4b0e-86b9-30defa22949c">
		<g>
			<polygon class="st0" points="325.4,402.2 320.2,402.2 310.2,389.9 319.9,377.4 324.8,377.3 315.1,389.9 			"/>
			<polygon class="st0" points="315.3,402.3 310.2,402.5 300.2,390.1 310,377.5 315,377.3 305.1,390 			"/>
		</g>
	</g>
	<rect class="st1" width="524.4" height="524.4"/>
	<g id="uuid-fa1b4092-4016-40a4-81f8-60b9395f662f">
		<path class="st0" d="M479.4,434c-0.4,0-0.9,0-1.3,0l-1.2,0H17.3c-8.1,0-14.2-3.3-16.4-8.9c-1-2.5-2.5-9.2,5.1-16.4
			c4.8-4.6,15.8-17.3,17.8-19.8c0,0,0.1-0.1,0.1-0.1c0.7-0.8,1.8-2.1-0.1-7c-1.6-4.3-4.3-11.6-6.6-18c-2-5.4-3.8-10.4-4.6-12.4
			c0,0,0-0.1-0.1-0.1c-2.4-6.7-1.8-17.7-0.8-25.8c1.1-9,32.4-216.8,33.5-222.4c1.6-8.2,9.2-13.1,20.3-13.1c8,0,15.5,3.7,20.3,9.9
			c3.2,4.1,22,26.7,32.2,37.7c9.7,10.3,16.7,17.4,22,20.9c0.9,0.6,1.8,1.2,2.7,1.8c4.7,3.1,8.3,5.5,15.6,8.1
			c10.7,3.8,20.8,8.2,26.8,19.4c2.8,5.3,2.6,13.1,1.9,24.2c-0.1,2.6-0.3,5-0.3,7.1c0,1.2-0.1,2.5-0.2,3.7
			c-0.5,7.9-0.9,15.4,11.1,24.5c8.4,6.4,22.3,16.6,34.6,25.7c15.2,11.2,24.7,18.2,27,20.2c9.1,7.7,7.4,15.4,6.2,18.3
			c-2.8,7.2-11.6,11.6-22.4,11.2c-7.8-0.3-33.7-3.6-54.4-6.2c-8.1-1-15.1-1.9-19.1-2.4c-36.7-4.2-50.2-5.1-55-5.1
			c-7.8,0-15.4,6.4-17.7,9.9c-1.8,2.7-4.3,6.1-6.5,9.1c-0.7,0.9-1.4,2-2.2,2.9c11.2,1.4,35.1,4,40.2,4h243.9c5.8,0,8.8-4.6,8.8-13.8
			c0-15.5-10.9-41.8-34.3-49c-2.2-0.7-4.4-1.3-6.5-2c-24.3-7.3-43.5-13.1-54.2-38.7c-10.1-24.3-1.9-44.5,0.9-50.1
			c2.9-5.9,14.8-33.2,17.5-39.8c3.4-8.4,12.2-15.8,16.9-18.8c7.8-5,19.3-9.2,30.2-0.3c10.3,8.4,16.4,19.7,19.7,25.8
			c2.4,4.4,66.6,109.9,109,179.7c33.1,54.5,41.5,68.3,42,69.1c2.3,4.2,3.7,12.7-0.3,18.8c-1.4,2.1-3.4,5.2-29.7,16.4l-0.3,0.1
			c0,0-0.1,0-0.1,0.1C487.5,433.8,483.1,434,479.4,434L479.4,434z M16.1,419.3c0.4,0,0.8,0.1,1.3,0.1h459.5l1.3,0c3.1,0,6,0,8.1-0.8
			l0.2-0.1c16.7-7.2,21.9-10.3,23.4-11.4c0.1-0.9-0.1-2.5-0.4-3.3c-1.6-2.7-20.2-33.2-41.6-68.5c-58.6-96.3-107.2-176.4-109.4-180.3
			c-2.8-5.2-8-14.8-16.1-21.4c-3.6-2.9-7.1-2.6-13,1.2c-3.6,2.3-9.5,7.6-11.3,12c-2.8,7-14.9,34.5-17.9,40.7
			c-2.1,4.2-8.2,19.4-0.5,38c8.1,19.2,21.9,23.4,44.9,30.3c2.1,0.6,4.3,1.3,6.5,2c30.8,9.5,44.7,42.6,44.7,63.1
			c0,10-2.7,17.6-8.2,22.6c-4,3.7-9.5,5.8-15.3,5.8H128.4c-7.7,0-41.8-3.9-47.7-4.9c-5.3-0.8-7.8-3.6-8.9-5.7
			c-2.4-4.7-0.1-9.2,0.8-11.1c0.8-1.7,2.6-4.1,5.9-8.6c2.1-2.9,4.5-6.1,6.1-8.5c4.5-6.6,16.1-16.4,29.9-16.4
			c7.6,0,26.7,1.8,56.7,5.2c4,0.5,11.1,1.4,19.2,2.4c18.3,2.3,45.9,5.9,53.1,6.1c4.4,0.2,7-1,7.9-1.7c-0.3-0.4-0.8-1.1-1.8-2
			c-2-1.7-14.3-10.8-26.2-19.5c-12.3-9.1-26.3-19.3-34.8-25.8c-18.3-13.9-17.5-27.9-16.9-37.1c0.1-1.1,0.1-2.1,0.2-3.2
			c0.1-2.4,0.2-4.9,0.4-7.6c0.3-5,0.8-14.3-0.3-16.6c-3.4-6.5-9.9-9.2-18.7-12.4c-8.9-3.2-13.9-6.5-18.7-9.7
			c-0.8-0.5-1.7-1.1-2.5-1.7c-6.6-4.3-14.1-11.7-24.7-23.2c-10.5-11.3-29.9-34.6-33.1-38.6c0,0,0-0.1-0.1-0.1
			c-1.9-2.6-5.3-4.1-8.6-4.1c-4,0-5.7,1-5.9,1.2c0,0,0,0,0,0.1c-1.2,6-32.3,212.8-33.3,221.3c-1.2,9.8-0.8,16.6,0,19
			c0.8,2.1,2.6,6.9,4.6,12.5c2.3,6.4,5,13.6,6.5,17.8c3.3,8.6,2.5,15.7-2.3,21.5C33,400.7,21.6,413.9,16.1,419.3
			C16.1,419.2,16.1,419.2,16.1,419.3L16.1,419.3z"/>
	</g>
</g>
</svg>
