<svg width="100" height="100" viewBox="0 0 100 100" fill="none" xmlns="http://www.w3.org/2000/svg">
<g clip-path="url(#clip0_429_1456)">
<path d="M62.0396 76.6973H61.0482L59.1416 74.3517L60.991 71.968L61.9252 71.949L60.0758 74.3517L62.0396 76.6973Z" fill="white"/>
<path d="M60.1143 76.7163L59.1419 76.7545L57.2354 74.3899L59.1038 71.9871L60.0571 71.949L58.1696 74.3708L60.1143 76.7163Z" fill="white"/>
<path d="M91.4016 82.7611C91.3254 82.7611 91.23 82.7611 91.1538 82.7611H90.925H3.29867C1.75435 82.7611 0.591334 82.1318 0.171887 81.064C-0.0187708 80.5872 -0.304757 79.3096 1.14424 77.9366C2.0594 77.0594 4.15663 74.6376 4.53795 74.1608L4.55702 74.1418C4.69048 73.9892 4.9002 73.7413 4.53795 72.8069C4.2329 71.9869 3.71812 70.5948 3.27961 69.3744C2.89829 68.3447 2.55511 67.3912 2.40258 67.0098C2.40258 67.0098 2.40258 66.9907 2.38352 66.9907C1.92594 65.7131 2.04033 63.6154 2.23099 62.0708C2.44071 60.3546 8.4083 20.7283 8.61803 19.6604C8.92308 18.0968 10.3721 17.1624 12.4884 17.1624C14.0136 17.1624 15.4436 17.8679 16.3587 19.0502C16.9688 19.8321 20.5532 24.1418 22.4979 26.2394C24.3473 28.2035 25.6819 29.5575 26.6924 30.2249C26.864 30.3393 27.0356 30.4537 27.2072 30.5682C28.1032 31.1593 28.7896 31.617 30.1814 32.1128C32.2215 32.8374 34.1471 33.6765 35.291 35.8122C35.8249 36.8229 35.7868 38.3103 35.6533 40.427C35.6342 40.9228 35.5961 41.3805 35.5961 41.781C35.5961 42.0098 35.577 42.2577 35.558 42.4865C35.4626 43.993 35.3864 45.4232 37.6743 47.1585C39.2758 48.379 41.9259 50.3241 44.271 52.0594C47.169 54.1952 48.9803 55.53 49.4188 55.9114C51.1538 57.3797 50.8297 58.8481 50.6009 59.4011C50.067 60.7741 48.3892 61.6132 46.3301 61.5369C44.843 61.4797 39.905 60.8504 35.9584 60.3546C34.414 60.1639 33.0794 59.9923 32.3168 59.8969C25.3196 59.096 22.7458 58.9244 21.8306 58.9244C20.3435 58.9244 18.8945 60.1448 18.456 60.8122C18.1128 61.3271 17.6361 61.9755 17.2167 62.5476C17.0832 62.7192 16.9498 62.9289 16.7972 63.1006C18.9326 63.3675 23.4893 63.8633 24.4617 63.8633H70.9631C72.0689 63.8633 72.6409 62.9862 72.6409 61.2318C72.6409 58.276 70.5627 53.2608 66.1013 51.8878C65.6819 51.7543 65.2625 51.6399 64.8621 51.5064C60.2291 50.1143 56.5685 49.0083 54.5284 44.1265C52.6028 39.4926 54.1662 35.6406 54.7 34.5727C55.2529 33.4476 57.5217 28.2417 58.0365 26.9831C58.6848 25.3813 60.3625 23.9701 61.2586 23.3981C62.7458 22.4446 64.9383 21.6437 67.0165 23.3408C68.9803 24.9427 70.1433 27.0975 70.7725 28.2608C71.23 29.0998 83.4703 49.218 91.5542 62.5285C97.8649 72.9213 99.4664 75.5529 99.5618 75.7054C100 76.5064 100.267 78.1273 99.5046 79.2905C99.2377 79.691 98.8563 80.2821 93.842 82.4179L93.7848 82.4369C93.7848 82.4369 93.7658 82.437 93.7658 82.456C92.946 82.723 92.1071 82.7611 91.4016 82.7611ZM3.06989 79.9579C3.14615 79.9579 3.22241 79.977 3.31774 79.977H90.925H91.1728C91.7639 79.977 92.3168 79.977 92.7172 79.8244L92.7553 79.8054C95.9393 78.4324 96.9307 77.8412 97.2167 77.6315C97.2358 77.4598 97.1976 77.1547 97.1404 77.0022C96.8354 76.4873 93.2891 70.6711 89.2091 63.9396C78.0365 45.5758 68.7706 30.3012 68.3511 29.5575C67.8173 28.5659 66.8258 26.7352 65.2815 25.4766C64.5951 24.9236 63.9278 24.9808 62.803 25.7055C62.1166 26.144 60.9917 27.1547 60.6485 27.9938C60.1147 29.3286 57.8077 34.5727 57.2358 35.755C56.8354 36.5559 55.6724 39.4545 57.1404 43.0014C58.6848 46.6627 61.3158 47.4637 65.701 48.7794C66.1013 48.8939 66.5208 49.0273 66.9402 49.1608C72.8125 50.9724 75.4626 57.2844 75.4626 61.1936C75.4626 63.1006 74.9479 64.5498 73.8992 65.5033C73.1366 66.2089 72.088 66.6093 70.9822 66.6093H24.4808C23.0127 66.6093 16.5113 65.8656 15.3864 65.6749C14.3759 65.5224 13.8992 64.9884 13.6895 64.588C13.2319 63.6917 13.6705 62.8336 13.842 62.4713C13.9946 62.1471 14.3378 61.6894 14.9669 60.8313C15.3673 60.2783 15.8249 59.6681 16.1299 59.2104C16.9879 57.9518 19.1995 56.083 21.8306 56.083C23.2796 56.083 26.9212 56.4263 32.6409 57.0746C33.4035 57.17 34.7572 57.3416 36.3015 57.5323C39.7906 57.9709 45.0527 58.6574 46.4255 58.6955C47.2644 58.7337 47.7601 58.5048 47.9317 58.3714C47.8745 58.2951 47.7791 58.1616 47.5885 57.99C47.2072 57.6658 44.8621 55.9305 42.5932 54.2714C40.2481 52.5361 37.5789 50.591 35.9584 49.3515C32.4693 46.7009 32.6218 44.0312 32.7362 42.2768C32.7553 42.067 32.7553 41.8763 32.7744 41.6665C32.7934 41.2089 32.8125 40.7321 32.8506 40.2173C32.9078 39.2638 33.0032 37.4903 32.7934 37.0518C32.1452 35.8122 30.9059 35.2974 29.2281 34.6871C27.5313 34.0769 26.578 33.4476 25.6628 32.8374C25.5103 32.7421 25.3387 32.6276 25.1862 32.5132C23.9278 31.6932 22.4979 30.2821 20.4769 28.0891C18.475 25.9343 14.7763 21.4911 14.1662 20.7283C14.1662 20.7283 14.1662 20.7093 14.1471 20.7093C13.7849 20.2135 13.1366 19.9274 12.5074 19.9274C11.7448 19.9274 11.4207 20.1181 11.3826 20.1563C11.3826 20.1563 11.3826 20.1563 11.3826 20.1753C11.1538 21.3195 5.22432 60.755 5.03366 62.3759C4.80487 64.2447 4.88113 65.5415 5.03366 65.9991C5.18619 66.3996 5.52937 67.3149 5.91069 68.3828C6.3492 69.6032 6.86397 70.9762 7.14996 71.7771C7.77913 73.4171 7.62661 74.771 6.71145 75.8771C6.292 76.411 4.1185 78.9282 3.06989 79.9579C3.06989 79.9389 3.06989 79.9389 3.06989 79.9579Z" fill="white"/>
</g>
<defs>
<clipPath id="clip0_429_1456">
<rect width="100" height="100" fill="white"/>
</clipPath>
</defs>
</svg>
