<?xml version="1.0" encoding="utf-8"?>
<!-- Generator: Adobe Illustrator 28.2.0, SVG Export Plug-In . SVG Version: 6.00 Build 0)  -->
<svg version="1.1" id="uuid-66dd20bc-20cc-40a5-b171-ff00ce902f5d"
	 xmlns="http://www.w3.org/2000/svg" xmlns:xlink="http://www.w3.org/1999/xlink" x="0px" y="0px" viewBox="0 0 524.4 524.4"
	 style="enable-background:new 0 0 524.4 524.4;" xml:space="preserve">
<style type="text/css">
	.st0{fill:#241758;}
	.st1{fill:none;}
</style>
<g id="uuid-179bb868-4097-4245-b11c-ffea15302ecc">
	<g>
		<g id="uuid-8a61a152-2a1b-41d7-9fc2-89b1024a972c">
			<g>
				<polygon class="st0" points="363.5,381.9 358.3,381.8 348.4,369.4 358.3,357 363.2,357 353.4,369.5 				"/>
				<polygon class="st0" points="353.4,381.9 348.3,382 338.4,369.5 348.4,357 353.4,356.9 343.4,369.4 				"/>
			</g>
		</g>
		<g id="uuid-744ccbae-5fd9-48e4-9378-0db73cdc9cff">
			<path class="st0" d="M479.5,343.1H93.5c-16,0-25.1-7.7-25.1-21.1l0-1.4c0-12-0.6-20.2-9.8-24c-4.1-1.7-8.6-3.5-13-5.3
				c-10.3-4.1-20.1-8-25.2-11C11,274.7,0,260.6,0,239.2c0-11.9,7.2-26.6,17.9-36.6c13-12.3,35.7-21.2,54-21.2h91
				c12.3,0,26.1,9.9,26.1,24.2c0,11.7-5.3,22.4-14.9,30.1c-8.4,6.8-19.4,10.6-30.1,10.6H78.4c-3.4,0-9.1,1-9.1,7.8
				c0,5.5,2,6.7,5.4,8.6c0.3,0.2,0.6,0.3,0.9,0.5c2.5,1.5,12.6,8.2,24.5,16.3c4.4,3,8.2,5.5,9.6,6.4c0.3,0.2,0.8,0.5,1.3,0.9
				c5.8,3.9,23.6,15.7,42.6,15.7h34.2c2,0,11.9-0.4,11.9-9.1v-11c0-1.3,0.2-13.1,7.5-23.6c2.4-3.4,9.2-13.1,16.5-23.4
				c10.2-14.5,21.8-30.8,23.6-33.6c3-4.5,10.3-8.9,18.6-11.3c9.9-2.8,19.4-2.2,26.6,1.8c9.7,5.3,57.7,34.1,100.1,59.5
				c30.1,18,58.5,35.1,61.2,36.5c5.2,2.7,9.1,2.6,11.8-0.3c2.7-2.9,3.4-11.8-1.6-24.1c-4.5-11.3-14.9-15-20.5-16.9
				c-1-0.3-2.2-0.7-3.5-1.1c-7.7-2.3-19.3-5.8-23.3-15.5c-4.4-10.6-2.6-23.4,4.3-31.1c6.8-7.6,19-9.7,26.8-7.4
				c5.3,1.6,34.6,11.6,51.5,17.4l0.8,0.3c19.2,6.5,24.3,25,24.3,34.9v62c0,3.1-0.7,13.8-9.1,23.2
				C505.2,340.7,490.3,343.1,479.5,343.1L479.5,343.1z M71.9,191.5c-15.7,0-35.9,7.9-47.1,18.4c-10.1,9.5-14.7,21.8-14.7,29.3
				c0,18.3,9.7,29,15.4,32.4c4.4,2.6,14.3,6.5,23.8,10.4c4.4,1.8,9,3.6,13.2,5.3c16,6.7,16,22.1,16,33.3l0,1.4c0,3.3,0,10.9,15,10.9
				h385.9c27.5,0,34.8-16.7,34.8-26.6v-62c0-6.7-3.6-20.6-17.4-25.3c0,0,0,0,0,0l-0.8-0.3c-29.1-10-47.3-16.1-51.1-17.2
				c-4.6-1.4-12.5,0.1-16.5,4.5c-4.3,4.8-5.4,13.5-2.5,20.4c2.2,5.3,11,8,16.9,9.7c1.4,0.4,2.8,0.8,4,1.3
				c6.1,2.1,20.3,7.2,26.5,22.7c6.1,15,6,28-0.4,34.8c-6,6.3-14.7,7.2-23.9,2.3c-2.8-1.5-25.3-14.9-61.7-36.8
				c-40.2-24.1-90.2-54.1-99.7-59.3c-11.7-6.4-29.2,2.2-31.9,6.2c-1.9,2.9-13,18.6-23.8,33.9c-7.3,10.3-14.1,20-16.4,23.3
				c-5.6,8.1-5.7,17.4-5.7,17.8v11c0,13.2-11.4,19.2-22,19.2h-34.2c-22.1,0-41.8-13.1-48.2-17.4c-0.5-0.3-0.9-0.6-1.2-0.8
				c-1.5-1-5.1-3.4-9.7-6.5c-8.6-5.8-21.5-14.5-24-15.9c-0.3-0.2-0.5-0.3-0.8-0.5c-3.9-2.2-10.5-6-10.5-17.4
				c0-7.6,3.7-11.9,6.8-14.2c3.3-2.4,7.7-3.8,12.4-3.8H144c14.6,0,34.8-10.7,34.8-30.7c0-8.7-9.3-14.1-15.9-14.1H71.9L71.9,191.5z"
				/>
		</g>
	</g>
	<rect class="st1" width="524.4" height="524.4"/>
	<rect class="st1" width="524.4" height="524.4"/>
	<rect class="st1" width="524.4" height="524.4"/>
	<rect class="st1" width="524.4" height="524.4"/>
</g>
</svg>
