<svg width="100" height="100" viewBox="0 0 100 100" fill="none" xmlns="http://www.w3.org/2000/svg">
<g clip-path="url(#clip0_429_1534)">
<path d="M24.499 67.2388L23.6411 67.7156L20.8193 66.5905L21.2769 63.6157L22.0967 63.1389L21.6392 66.1519L24.499 67.2388Z" fill="white"/>
<path d="M22.8213 68.1923L22.0014 68.6881L19.1797 67.563L19.6373 64.5309L20.4571 64.0542L19.9995 67.0862L22.8213 68.1923Z" fill="white"/>
<path d="M85.5287 83.4286C83.3933 83.4286 78.8175 81.3882 77.5211 80.5492C76.1865 79.691 70.7146 75.0762 68.2742 70.0991C68.0835 69.7368 67.8928 69.2982 67.6641 68.8405C66.2341 65.8276 63.87 60.7551 60.8004 59.0961C57.3876 57.2273 53.7079 55.7017 53.0025 55.3966H52.9834C51.7632 54.8627 50.3523 54.8245 49.2275 55.2631C48.8843 55.3966 48.3886 55.5873 47.8166 55.8161C44.4801 57.1128 41.1436 58.4096 40.1903 58.7337C38.7222 59.2105 36.4724 59.5919 33.8223 59.8207C31.0959 60.0495 27.4353 60.2974 26.787 60.3546C26.1197 60.3928 25.5287 60.164 25.1092 59.7063C24.8233 59.3821 24.4991 58.8291 24.5373 57.9138C20.3619 60.3165 4.00343 69.7177 3.1836 70.1182C2.26844 70.5949 1.27702 70.4996 0.628785 69.8703C-0.0957141 69.1647 -0.171977 68.0587 0.399996 66.8955C0.991035 65.7132 2.93574 61.8993 3.75557 60.2212C4.74699 58.1998 8.10257 54.0999 10.7718 52.0404C13.1931 50.1334 17.1969 46.8916 18.5125 45.8238L18.6841 45.6712C19.6183 44.9084 19.9234 44.3363 20.3047 43.6117C20.7813 42.6964 21.3342 41.6666 22.9548 40.4271C24.5945 39.1685 26.0816 39.016 27.3971 38.8825C28.6173 38.749 29.5897 38.6537 30.7908 37.7383C31.8013 36.9565 34.1846 35.5072 36.2818 34.2296C37.4257 33.524 38.5125 32.8756 38.9701 32.5705C40.0759 31.8268 41.9253 30.7971 44.4419 30.0343C46.4438 29.4241 76.7203 20.9191 77.4829 20.7475L77.5592 20.7284C78.3028 20.5759 80.6097 20.1182 82.0396 22.5781C82.44 23.2837 83.012 23.5507 83.7746 23.3981C84.7089 23.2074 85.3571 22.9977 85.8719 22.8451C86.2913 22.7116 86.6536 22.5972 87.0158 22.54C87.0539 22.54 87.0921 22.5209 87.1493 22.5019C87.95 22.3112 90.0473 21.8154 91.8013 24.3707C92.4114 25.2669 93.8604 27.4027 95.3857 29.672C97.1207 32.2463 98.9129 34.9351 99.3323 35.5072C100.114 36.5942 100.228 37.929 99.6564 39.1495C99.0463 40.4462 97.7689 41.3615 96.4152 41.4569C95.1569 41.5522 93.9748 40.942 93.2122 39.7788C91.8395 37.7193 90.6574 35.6788 90.3333 35.1067C89.8185 34.1914 89.5134 34.0389 88.7889 34.2868C87.6831 34.6681 82.0587 36.6132 78.9701 37.2044C77.2732 37.5286 74.2608 38.0053 71.8204 38.4058C70.2951 38.6537 68.9796 38.8634 68.3504 38.9778C67.3018 39.1685 66.3294 40.1411 66.1579 41.1708C65.9291 42.5438 65.8719 43.3066 65.7956 44.5652L65.7765 44.9084C65.7003 45.881 66.9014 48.8749 68.6364 49.5614C69.6469 49.9618 71.9539 50.8962 74.3752 51.8878C77.7117 53.2608 81.5058 54.8055 82.421 55.1487C83.5268 55.5682 85.033 56.6933 85.624 58.4096C85.9291 59.3249 86.1007 60.7551 85.1092 62.376C83.3171 65.2936 84.0988 65.8085 84.8614 66.2852C85.7765 66.8764 87.0349 67.6964 88.2551 68.4782C89.9329 69.5461 91.5153 70.5568 92.1254 70.9954C94.1274 72.4065 94.7375 74.6186 93.5935 76.392C92.7355 77.7269 91.1531 79.9389 90.1807 81.1212C89.3037 82.1701 88.0072 83.3714 85.6431 83.4286C85.5859 83.4286 85.5478 83.4286 85.5287 83.4286ZM54.1083 52.7269C54.8518 53.032 58.6459 54.6338 62.1731 56.5408C66.0625 58.6575 68.5792 64.035 70.257 67.582C70.4667 68.0396 70.6574 68.4401 70.848 68.8024C72.9643 73.1121 77.9786 77.4027 79.0654 78.1083C80.4381 79.0045 84.3466 80.5301 85.4906 80.5301C85.5096 80.5301 85.5096 80.5301 85.5287 80.5301C86.5392 80.511 87.1683 80.1678 87.931 79.2524C88.7317 78.2799 90.2379 76.2013 91.1531 74.8093C91.5725 74.1609 90.6383 73.4553 90.4477 73.3219C89.8947 72.9405 88.2551 71.8916 86.6726 70.881C85.4524 70.0991 84.175 69.2791 83.2408 68.6689C79.3895 66.1518 81.8299 62.1662 82.6307 60.8505C82.9739 60.2974 83.0501 59.8016 82.8785 59.2868C82.6307 58.5431 81.9253 57.99 81.3533 57.7803C80.4191 57.418 76.7775 55.9305 73.2503 54.5003C70.829 53.5087 68.522 52.5743 67.5306 52.1739C64.3657 50.9153 62.726 46.5865 62.8785 44.6415L62.8976 44.3173C62.9929 43.0206 63.0501 42.1624 63.298 40.6369C63.6793 38.4248 65.5668 36.5179 67.8166 36.0984C68.4839 35.9839 69.7994 35.7742 71.3438 35.5263C73.746 35.1449 76.7394 34.6682 78.3981 34.344C81.3152 33.791 86.7489 31.9031 87.8166 31.5217C89.2465 31.0068 91.2865 30.9687 92.8118 33.6193C93.1359 34.1723 94.2608 36.1365 95.5954 38.1197C95.8814 38.5583 96.1102 38.5392 96.2055 38.5392C96.5296 38.5202 96.8919 38.2341 97.0635 37.8718C97.2351 37.5095 97.1016 37.2616 97.0063 37.109C96.5678 36.4797 94.8328 33.9244 93.0215 31.1975C91.5725 29.0427 90.0663 26.8116 89.4562 25.9153C88.808 24.9809 88.4267 25.0762 87.8166 25.2097C87.7213 25.2288 87.6259 25.2479 87.5497 25.2669H87.4925C87.3209 25.286 87.0539 25.3813 86.7298 25.4767C86.1769 25.6483 85.4334 25.8771 84.3657 26.106C81.9825 26.6018 80.8385 26.0678 79.5802 23.9321C79.2179 23.3028 78.9129 23.3028 78.1502 23.4553H78.1312C76.8728 23.7604 47.2827 32.0938 45.2999 32.6849C43.1264 33.3333 41.5439 34.2296 40.6097 34.8588C40.114 35.2021 39.0463 35.8505 37.8071 36.5942C35.8814 37.7574 33.4791 39.2257 32.583 39.9122C30.7527 41.3424 29.0749 41.5141 27.7403 41.6476C26.6154 41.762 25.7193 41.8573 24.747 42.601C23.6221 43.4591 23.298 44.0694 22.8785 44.8512C22.44 45.6903 21.9253 46.6437 20.5335 47.7879L20.3428 47.9405C19.0273 49.0083 15.0044 52.2692 12.564 54.1952C10.1045 56.1022 7.11115 59.8588 6.34852 61.3844C5.77655 62.5476 4.67073 64.7406 3.8509 66.3615C7.87378 64.0732 17.1779 58.7337 23.8318 54.9199C24.9758 54.0999 25.8337 54.2524 26.3485 54.5385C27.4543 55.1296 27.4925 56.4645 27.4734 57.3226C28.8652 57.2273 31.5153 57.0366 33.6316 56.8649C36.0339 56.6743 38.1121 56.331 39.3514 55.9115C40.3047 55.6064 44.5373 53.9473 46.8252 53.0511C47.4162 52.8222 47.9119 52.6315 48.236 52.498C50.0091 51.8497 52.1826 51.9069 54.1083 52.7269Z" fill="white"/>
</g>
<defs>
<clipPath id="clip0_429_1534">
<rect width="100" height="100" fill="white"/>
</clipPath>
</defs>
</svg>
