<?xml version="1.0" encoding="utf-8"?>
<!-- Generator: Adobe Illustrator 28.2.0, SVG Export Plug-In . SVG Version: 6.00 Build 0)  -->
<svg version="1.1" id="uuid-62c8041b-fe07-4810-9e87-f0f674d7bf5f"
	 xmlns="http://www.w3.org/2000/svg" xmlns:xlink="http://www.w3.org/1999/xlink" x="0px" y="0px" viewBox="0 0 524.5 524.4"
	 style="enable-background:new 0 0 524.5 524.4;" xml:space="preserve">
<style type="text/css">
	.st0{fill:#241758;}
	.st1{fill:none;}
</style>
<g id="uuid-6936a763-ccbe-42ad-9af4-e738b0c967c0">
	<g id="uuid-85418295-d455-4b96-baef-5041e75394c2">
		<g>
			<polygon class="st0" points="128.5,352.6 124,355.1 109.2,349.2 111.6,333.6 115.9,331.1 113.5,346.9 			"/>
			<polygon class="st0" points="119.7,357.6 115.4,360.2 100.6,354.3 103,338.4 107.3,335.9 104.9,351.8 			"/>
		</g>
	</g>
	<rect class="st1" width="524.4" height="524.4"/>
	<g id="uuid-6fa37490-49df-4b57-ab39-4c9339b1f85d">
		<path class="st0" d="M448.6,437.5c-11.2,0-35.2-10.7-42-15.1c-7-4.5-35.7-28.7-48.5-54.8c-1-1.9-2-4.2-3.2-6.6
			c-7.5-15.8-19.9-42.4-36-51.1c-17.9-9.8-37.2-17.8-40.9-19.4l-0.1,0c-6.4-2.8-13.8-3-19.7-0.7c-1.8,0.7-4.4,1.7-7.4,2.9
			c-17.5,6.8-35,13.6-40,15.3c-7.7,2.5-19.5,4.5-33.4,5.7c-14.3,1.2-33.5,2.5-36.9,2.8c-3.5,0.2-6.6-1-8.8-3.4
			c-1.5-1.7-3.2-4.6-3-9.4c-21.9,12.6-107.7,61.9-112,64c-4.8,2.5-10,2-13.4-1.3c-3.8-3.7-4.2-9.5-1.2-15.6
			c3.1-6.2,13.3-26.2,17.6-35c5.2-10.6,22.8-32.1,36.8-42.9c12.7-10,33.7-27,40.6-32.6l0.9-0.8c4.9-4,6.5-7,8.5-10.8
			c2.5-4.8,5.4-10.2,13.9-16.7c8.6-6.6,16.4-7.4,23.3-8.1c6.4-0.7,11.5-1.2,17.8-6c5.3-4.1,17.8-11.7,28.8-18.4
			c6-3.7,11.7-7.1,14.1-8.7c5.8-3.9,15.5-9.3,28.7-13.3c10.5-3.2,169.3-47.8,173.3-48.7l0.4-0.1c3.9-0.8,16-3.2,23.5,9.7
			c2.1,3.7,5.1,5.1,9.1,4.3c4.9-1,8.3-2.1,11-2.9c2.2-0.7,4.1-1.3,6-1.6c0.2,0,0.4-0.1,0.7-0.2c4.2-1,15.2-3.6,24.4,9.8
			c3.2,4.7,10.8,15.9,18.8,27.8c9.1,13.5,18.5,27.6,20.7,30.6c4.1,5.7,4.7,12.7,1.7,19.1c-3.2,6.8-9.9,11.6-17,12.1
			c-6.6,0.5-12.8-2.7-16.8-8.8c-7.2-10.8-13.4-21.5-15.1-24.5c-2.7-4.8-4.3-5.6-8.1-4.3c-5.8,2-35.3,12.2-51.5,15.3
			c-8.9,1.7-24.7,4.2-37.5,6.3c-8,1.3-14.9,2.4-18.2,3c-5.5,1-10.6,6.1-11.5,11.5c-1.2,7.2-1.5,11.2-1.9,17.8l-0.1,1.8
			c-0.4,5.1,5.9,20.8,15,24.4c5.3,2.1,17.4,7,30.1,12.2c17.5,7.2,37.4,15.3,42.2,17.1c5.8,2.2,13.7,8.1,16.8,17.1
			c1.6,4.8,2.5,12.3-2.7,20.8c-9.4,15.3-5.3,18-1.3,20.5c4.8,3.1,11.4,7.4,17.8,11.5c8.8,5.6,17.1,10.9,20.3,13.2
			c10.5,7.4,13.7,19,7.7,28.3c-4.5,7-12.8,18.6-17.9,24.8c-4.6,5.5-11.4,11.8-23.8,12.1C448.9,437.5,448.7,437.5,448.6,437.5
			L448.6,437.5z M283.8,276.5c3.9,1.6,23.8,10,42.3,20c20.4,11.1,33.6,39.3,42.4,57.9c1.1,2.4,2.1,4.5,3.1,6.4
			c11.1,22.6,37.4,45.1,43.1,48.8c7.2,4.7,27.7,12.7,33.7,12.7c0.1,0,0.1,0,0.2,0c5.3-0.1,8.6-1.9,12.6-6.7
			c4.2-5.1,12.1-16,16.9-23.3c2.2-3.4-2.7-7.1-3.7-7.8c-2.9-2-11.5-7.5-19.8-12.8c-6.4-4.1-13.1-8.4-18-11.6
			c-20.2-13.2-7.4-34.1-3.2-41c1.8-2.9,2.2-5.5,1.3-8.2c-1.3-3.9-5-6.8-8-7.9c-4.9-1.9-24-9.7-42.5-17.2
			c-12.7-5.2-24.8-10.1-30-12.2c-16.6-6.6-25.2-29.3-24.4-39.5l0.1-1.7c0.5-6.8,0.8-11.3,2.1-19.3c2-11.6,11.9-21.6,23.7-23.8
			c3.5-0.6,10.4-1.7,18.5-3c12.6-2,28.3-4.5,37-6.2c15.3-2.9,43.8-12.8,49.4-14.8c7.5-2.7,18.2-2.9,26.2,11
			c1.7,2.9,7.6,13.2,14.6,23.6c1.5,2.3,2.7,2.2,3.2,2.2c1.7-0.1,3.6-1.6,4.5-3.5c0.9-1.9,0.2-3.2-0.3-4c-2.3-3.3-11.4-16.7-20.9-31
			c-7.6-11.3-15.5-23-18.7-27.7c-3.4-4.9-5.4-4.4-8.6-3.7c-0.5,0.1-1,0.2-1.4,0.3l-0.3,0c-0.9,0.1-2.3,0.6-4,1.1
			c-2.9,0.9-6.8,2.1-12.4,3.3c-12.5,2.6-18.5-0.2-25.1-11.4c-1.9-3.3-3.5-3.3-7.5-2.5l-0.1,0c-6.6,1.6-161.8,45.3-172.2,48.4
			c-11.4,3.4-19.7,8.1-24.6,11.4c-2.6,1.8-8.2,5.2-14.7,9.1c-10.1,6.1-22.7,13.8-27.4,17.4c-9.6,7.5-18.4,8.4-25.4,9.1
			c-5.9,0.6-10.6,1.1-15.7,5c-5.9,4.5-7.6,7.7-9.8,11.8c-2.3,4.4-5,9.4-12.3,15.4l-1,0.8c-6.9,5.6-28,22.7-40.8,32.8
			c-12.9,10-28.6,29.7-32.6,37.7c-3,6.1-8.8,17.6-13.1,26.1c21.1-12,69.9-40,104.8-60c6-4.3,10.5-3.5,13.2-2
			c5.8,3.1,6,10.1,5.9,14.6c7.3-0.5,21.2-1.5,32.3-2.4c12.6-1,23.5-2.8,30-5c5-1.6,27.2-10.3,39.2-15c3.1-1.2,5.7-2.2,7.4-2.9
			C262.3,271.9,273.7,272.2,283.8,276.5L283.8,276.5z"/>
	</g>
</g>
</svg>
