<svg width="100" height="100" viewBox="0 0 100 100" fill="none" xmlns="http://www.w3.org/2000/svg">
<g clip-path="url(#clip0_429_1664)">
<path d="M25.3814 21.5867L24.466 21.949L21.8535 20.4234L22.7307 17.544L23.6079 17.1816L22.7307 20.0993L25.3814 21.5867Z" fill="white"/>
<path d="M23.5888 22.2923L22.6926 22.6546L20.0801 21.129L20.9763 18.2114L21.8535 17.8682L20.9573 20.7858L23.5888 22.2923Z" fill="white"/>
<path d="M69.6411 82.0939C69.088 82.0939 68.535 82.0367 67.982 81.9032C67.0476 81.6935 58.8668 79.7102 48.5312 77.1931C35.1445 73.9322 18.4778 69.8895 14.4733 68.9742C9.47707 67.8109 2.05906 63.158 2.05906 55.0916C2.05906 49.428 3.48927 47.216 4.44274 45.7667C4.95761 44.9658 5.16738 44.6225 5.16738 44.0123C5.16738 43.2686 4.99575 43.1542 4.38553 42.7156L4.23298 42.6012C4.1567 42.544 4.06135 42.4867 3.96601 42.4105C2.91719 41.724 0.457234 40.1031 0.075846 37.3189C-0.305542 34.4013 2.45952 31.9032 7.66547 30.4349C9.21009 29.9963 12.3947 29.1 15.9035 28.1084C20.6136 26.7736 25.8958 25.2861 28.5083 24.5424C29.3093 24.3136 45.8996 19.5272 49.8089 18.6309C53.8897 17.6965 58.4855 17.7919 60.5831 18.0779C61.8989 18.2686 70.8615 20.0802 80.339 22.0062C82.0934 22.3685 83.3329 22.6164 83.6571 22.6736C85.4687 23.0359 88.577 24.7903 89.8356 25.534C91.9141 26.7736 94.7173 31.6744 95.8234 33.7148C97.4824 36.8041 99.7707 45.3472 99.9614 46.6439C100.133 47.9215 100.152 49.9429 99.8089 51.1633C99.58 51.9833 97.7112 57.9139 97.2726 58.8864L97.2536 58.9246C96.7387 59.9734 96.0141 60.7362 95.4801 61.1938C94.4694 62.071 92.3718 62.1092 91.3039 61.5562C90.5602 61.1938 79.5762 54.6912 79.0804 54.4051C79.0423 54.3861 78.966 54.3479 78.9088 54.3098C74.6182 51.8498 72.4443 48.7224 72.4443 45.0611C72.4443 39.8361 73.8554 38.0626 75.3047 36.7087C76.3535 35.698 80.1483 32.2083 81.3115 31.2358C81.9027 30.74 82.2269 30.0726 82.2269 29.7865C82.0934 29.5768 81.8455 29.2716 81.5213 29.3289C80.3581 29.5577 77.86 30.1107 75.934 30.6065C74.2559 31.0642 72.9591 32.1702 71.9485 33.1999C71.0331 34.1153 69.9843 35.2594 68.9736 36.3655C68.6876 36.6706 68.4206 36.9757 68.1536 37.2617C67.1239 38.3868 65.1597 39.6645 63.024 39.6073C61.5366 39.5691 60.2208 38.9017 59.2101 37.6813C57.3031 35.3929 57.265 32.8948 59.0766 30.2633L59.1147 30.187C59.2292 30.0344 59.3626 29.8628 59.5152 29.653C59.9729 29.081 61.0408 27.708 60.6784 27.0977C60.1636 26.2587 58.9241 26.354 57.2459 26.5829L57.0552 26.6019C55.4343 26.8117 50.4572 27.8414 48.1308 28.4898C46.7006 28.8903 44.5076 32.1321 44.5076 35.3929C44.5076 38.4631 45.7471 39.7789 46.9675 40.6561C47.4443 40.9993 49.58 42.4867 52.307 44.3556C58.5808 48.7034 68.0583 55.2633 71.6243 57.8758C77.3832 62.0901 76.8302 67.7728 76.6014 70.2137L76.5823 70.3853C76.3535 72.7499 76.0865 74.2373 75.4954 77.4219C75.1903 79.0428 74.3893 80.3205 73.1498 81.1404C72.0819 81.7697 70.8996 82.0939 69.6411 82.0939ZM56.998 20.9955C55.0339 20.9955 52.6311 21.1671 50.4382 21.6629C46.6052 22.5401 29.4809 27.4791 29.3093 27.5173C26.6967 28.261 21.4145 29.7484 16.6853 31.0832C13.1956 32.0748 10.011 32.9711 8.44732 33.4097C4.76692 34.4585 2.95533 35.9459 3.08881 36.8994C3.27951 38.2915 4.78599 39.2831 5.60597 39.817C5.73946 39.9124 5.87295 39.9887 5.96829 40.0649L6.10178 40.1603C6.90269 40.7133 8.21848 41.6286 8.21848 43.9932C8.21848 45.5379 7.58919 46.5104 6.99804 47.4257C6.15899 48.7224 5.11017 50.3433 5.11017 55.0726C5.11017 57.8948 6.29247 60.412 8.65708 62.5096C10.7929 64.4166 13.4054 65.5417 15.1407 65.9421C19.1643 66.8575 35.831 70.9192 49.2368 74.1801C59.1529 76.5829 67.715 78.6614 68.6113 78.8712C69.6411 79.1 70.6517 78.9665 71.3001 78.547C71.834 78.2038 72.1582 77.6507 72.3108 76.8498C72.9019 73.7034 73.1498 72.3304 73.3596 70.0993L73.3787 69.9086C73.5884 67.6774 73.9889 63.5394 69.6601 60.3739C66.1132 57.7804 56.6548 51.2396 50.4 46.9109C47.5587 44.9467 45.5183 43.5356 45.0224 43.1732C43.4206 42.01 41.2658 39.9505 41.2658 35.3929C41.2658 31.0832 44.088 26.354 47.1773 25.4959C49.6563 24.8094 54.786 23.7415 56.5404 23.5318L56.7311 23.5127C58.5427 23.2839 61.5747 22.8834 63.1956 25.4768C64.7211 27.9559 62.6998 30.5112 61.8417 31.5981C61.7272 31.7316 61.6128 31.8842 61.5747 31.9604L61.5175 32.0367C60.8119 33.0665 60.2208 34.1916 61.4793 35.7171C61.937 36.2511 62.4137 36.518 63.0049 36.5371C63.9965 36.5562 65.1407 35.8697 65.789 35.1832C66.056 34.8971 66.342 34.592 66.609 34.2869C67.6578 33.1427 68.7257 31.9795 69.6792 31.026C70.9187 29.7865 72.654 28.28 75.0758 27.6317C77.0781 27.1168 79.6334 26.5638 80.8348 26.3159C82.4366 25.9917 84.0003 26.7736 84.8966 28.3563C85.831 30.0154 84.7631 32.3418 83.1994 33.6385C82.1315 34.5157 78.4321 37.9482 77.3642 38.9589C76.4679 39.798 75.4763 40.7324 75.4763 45.0611C75.4763 48.7987 79.1758 50.9345 80.3962 51.6401C80.4725 51.6973 80.5488 51.7354 80.606 51.7736C81.7883 52.4791 91.876 58.4288 92.6388 58.8292C92.8104 58.8864 93.2681 58.8674 93.4778 58.8102C93.7639 58.5432 94.1453 58.1427 94.3932 57.6279C94.6983 56.9223 96.4526 51.4684 96.7578 50.4006C96.9294 49.7331 96.9675 48.1694 96.834 47.1206C96.7196 46.2244 94.5076 37.9673 93.0392 35.2404C90.9225 31.293 88.9774 28.6996 88.2147 28.2419C86.4412 27.1931 84.0385 25.9536 83.0087 25.7629C82.6845 25.7057 81.426 25.4387 79.6716 25.0764C73.7791 23.875 61.5175 21.3769 60.1064 21.1671C59.3817 21.0718 58.2948 20.9955 56.998 20.9955Z" fill="white"/>
</g>
<defs>
<clipPath id="clip0_429_1664">
<rect width="100" height="100" fill="white"/>
</clipPath>
</defs>
</svg>
