<?xml version="1.0" encoding="utf-8"?>
<!-- Generator: Adobe Illustrator 28.2.0, SVG Export Plug-In . SVG Version: 6.00 Build 0)  -->
<svg version="1.1" id="uuid-777fdc6b-bbbc-46aa-ba5c-2bf45be293da"
	 xmlns="http://www.w3.org/2000/svg" xmlns:xlink="http://www.w3.org/1999/xlink" x="0px" y="0px" viewBox="0 0 524.4 524.4"
	 style="enable-background:new 0 0 524.4 524.4;" xml:space="preserve">
<style type="text/css">
	.st0{fill:#241758;}
	.st1{fill:none;}
</style>
<g id="uuid-d9840fab-0b5b-4e11-8cb6-d2bc44636ea2">
	<g id="uuid-f05fff01-e27d-4fd4-89a5-0a33d9b1e2f9">
		<g>
			<polygon class="st0" points="133.1,113.2 128.3,115.1 114.6,107.1 119.2,92 123.8,90.1 119.2,105.4 			"/>
			<polygon class="st0" points="123.7,116.9 119,118.8 105.3,110.8 110,95.5 114.6,93.7 109.9,109 			"/>
		</g>
	</g>
	<g id="uuid-71569b2a-3075-42fe-9d4a-50ec54cd4dc6">
		<path class="st0" d="M365.2,430.5c-2.9,0-5.8-0.3-8.7-1c-4.9-1.1-47.8-11.5-102-24.7c-70.2-17.1-157.6-38.3-178.6-43.1
			c-26.2-6.1-65.1-30.5-65.1-72.8c0-29.7,7.5-41.3,12.5-48.9c2.7-4.2,3.8-6,3.8-9.2c0-3.9-0.9-4.5-4.1-6.8l-0.8-0.6
			c-0.4-0.3-0.9-0.6-1.4-1c-5.5-3.6-18.4-12.1-20.4-26.7c-2-15.3,12.5-28.4,39.8-36.1c8.1-2.3,24.8-7,43.2-12.2
			c24.7-7,52.4-14.8,66.1-18.7c4.2-1.2,91.2-26.3,111.7-31c21.4-4.9,45.5-4.4,56.5-2.9c6.9,1,53.9,10.5,103.6,20.6
			c9.2,1.9,15.7,3.2,17.4,3.5c9.5,1.9,25.8,11.1,32.4,15c10.9,6.5,25.6,32.2,31.4,42.9c8.7,16.2,20.7,61,21.7,67.8
			c0.9,6.7,1,17.3-0.8,23.7c-1.2,4.3-11,35.4-13.3,40.5l-0.1,0.2c-2.7,5.5-6.5,9.5-9.3,11.9c-5.3,4.6-16.3,4.8-21.9,1.9
			c-3.9-1.9-61.5-36-64.1-37.5c-0.2-0.1-0.6-0.3-0.9-0.5c-22.5-12.9-33.9-29.3-33.9-48.5c0-27.4,7.4-36.7,15-43.8
			c5.5-5.3,25.4-23.6,31.5-28.7c3.1-2.6,4.8-6.1,4.8-7.6c-0.7-1.1-2-2.7-3.7-2.4c-6.1,1.2-19.2,4.1-29.3,6.7
			c-8.8,2.4-15.6,8.2-20.9,13.6c-4.8,4.8-10.3,10.8-15.6,16.6c-1.5,1.6-2.9,3.2-4.3,4.7c-5.4,5.9-15.7,12.6-26.9,12.3
			c-7.8-0.2-14.7-3.7-20-10.1c-10-12-10.2-25.1-0.7-38.9l0.2-0.4c0.6-0.8,1.3-1.7,2.1-2.8c2.4-3,8-10.2,6.1-13.4
			c-2.7-4.4-9.2-3.9-18-2.7l-1,0.1c-8.5,1.1-34.6,6.5-46.8,9.9c-7.5,2.1-19,19.1-19,36.2c0,16.1,6.5,23,12.9,27.6
			c2.5,1.8,13.7,9.6,28,19.4c32.9,22.8,82.6,57.2,101.3,70.9c30.2,22.1,27.3,51.9,26.1,64.7l-0.1,0.9c-1.2,12.4-2.6,20.2-5.7,36.9
			c-1.6,8.5-5.8,15.2-12.3,19.5C378,428.8,371.8,430.5,365.2,430.5L365.2,430.5z M298.9,110.1c-10.3,0-22.9,0.9-34.4,3.5
			c-20.1,4.6-109.9,30.5-110.8,30.7l0,0c-13.7,3.9-41.4,11.7-66.2,18.7c-18.3,5.2-35,9.9-43.2,12.2c-19.3,5.5-28.8,13.3-28.1,18.3
			c1,7.3,8.9,12.5,13.2,15.3c0.7,0.5,1.4,0.9,1.9,1.3l0.7,0.5c4.2,2.9,11.1,7.7,11.1,20.1c0,8.1-3.3,13.2-6.4,18
			c-4.4,6.8-9.9,15.3-9.9,40.1c0,14.8,6.2,28,18.6,39c11.2,10,24.9,15.9,34,18c21.1,4.8,108.5,26.1,178.8,43.2
			c52,12.6,96.9,23.5,101.6,24.6c5.4,1.2,10.7,0.5,14.1-1.7c2.8-1.8,4.5-4.7,5.3-8.9c3.1-16.5,4.4-23.7,5.5-35.4l0.1-1
			c1.1-11.7,3.2-33.4-19.5-50c-18.6-13.6-68.2-47.9-101-70.6c-14.9-10.3-25.6-17.7-28.2-19.6c-8.4-6.1-19.7-16.9-19.7-40.8
			c0-22.6,14.8-47.4,31-51.9c13-3.6,39.9-9.2,49.1-10.3l1-0.1c9.5-1.2,25.4-3.3,33.9,10.3c8,13-2.6,26.4-7.1,32.1
			c-0.6,0.7-1.2,1.5-1.4,1.9l-0.3,0.4c-3.7,5.4-6.8,11.3-0.2,19.3c2.4,2.8,4.9,4.2,8,4.3c5.2,0.1,11.2-3.5,14.6-7.1
			c1.4-1.5,2.9-3.1,4.3-4.7c5.5-6,11.1-12.1,16.1-17.1c6.5-6.5,15.6-14.4,28.3-17.8c10.5-2.7,23.9-5.6,30.2-6.9
			c8.4-1.7,16.6,2.4,21.3,10.7c4.9,8.7-0.7,20.9-8.9,27.7c-5.6,4.6-25,22.6-30.6,27.9c-4.7,4.4-9.9,9.3-9.9,32
			c0,19.6,19.4,30.8,25.8,34.5c0.4,0.3,0.8,0.5,1.1,0.7c6.2,3.7,59.1,34.9,63.1,37c0.9,0.3,3.3,0.2,4.4-0.1c1.5-1.4,3.5-3.5,4.8-6.2
			c1.6-3.7,10.8-32.3,12.4-37.9c0.9-3.5,1.1-11.7,0.4-17.2c-0.6-4.7-12.2-48-19.9-62.3c-11.1-20.7-21.3-34.3-25.3-36.7
			c-9.3-5.5-21.9-12-27.3-13c-1.7-0.3-8.3-1.7-17.5-3.6c-30.9-6.3-95.2-19.4-102.6-20.5C311.4,110.5,305.7,110.1,298.9,110.1
			L298.9,110.1z M485.8,308.4C485.8,308.4,485.8,308.4,485.8,308.4C485.8,308.4,485.8,308.4,485.8,308.4z M490.5,308.1L490.5,308.1
			L490.5,308.1z"/>
	</g>
	<rect class="st1" width="524.4" height="524.4"/>
	<rect class="st1" width="524.4" height="524.4"/>
	<rect class="st1" width="524.4" height="524.4"/>
	<rect class="st1" width="524.4" height="524.4"/>
</g>
</svg>
