<svg width="100" height="100" viewBox="0 0 100 100" fill="none" xmlns="http://www.w3.org/2000/svg">
<g clip-path="url(#clip0_429_1507)">
<path d="M88.2148 41.1519L89.092 41.5905L89.7022 44.5653L86.9753 45.8239L86.1172 45.4043L88.8823 44.1267L88.2148 41.1519Z" fill="white"/>
<path d="M89.9498 42.01L90.8079 42.4295L91.4181 45.4044L88.653 46.682L87.7949 46.2625L90.5791 44.9848L89.9498 42.01Z" fill="white"/>
<path d="M55.3967 68.4591C54.6149 68.4591 53.7949 68.3447 52.9368 68.1349C50.7629 67.5819 43.0207 64.6833 40.3891 63.3485C37.605 61.9564 32.666 58.4476 29.9772 56.1784C27.6317 54.1761 27.3838 53.9854 27.2312 53.871L27.174 53.8138C26.2777 53.0891 26.068 51.964 26.6591 50.8771C26.9642 50.2859 26.9642 49.8283 26.6591 49.5041C25.7056 48.5125 21.7773 45.2135 19.7751 43.7833C19.6416 43.6879 19.4699 43.5735 19.2983 43.44C17.0291 41.8 12.3189 38.3866 7.26552 37.2425C4.25255 36.556 3.05118 36.3271 2.42189 36.1936C2.26934 36.1555 2.13585 36.1364 2.02143 36.1174C0.686574 35.8504 -0.190619 34.6681 0.0382142 33.3904C0.228908 32.3225 1.27773 31.3119 3.10839 31.617C4.13814 31.7886 5.70183 32.3607 6.54088 32.6658C6.67437 32.723 6.78879 32.7611 6.86506 32.7802C7.01762 32.8374 7.60877 32.9518 9.80175 32.9709C13.0817 33.009 22.769 33.4286 24.0275 33.4858C25.6484 33.5621 27.6889 33.8672 29.92 34.4011C31.1404 34.6871 38.6156 36.3462 45.8239 37.948C54.7865 39.9312 60.2976 41.1517 60.698 41.2661C60.8124 41.3042 60.9078 41.3233 61.0031 41.3424C61.8994 41.5331 62.7194 41.9526 62.7575 43.5354C63.2915 43.6498 63.5394 43.6879 63.6347 43.707C67.5249 44.4316 81.7888 47.559 84.4013 48.2836C86.9375 48.9892 89.264 50.3241 91.1328 51.3729L91.457 51.5636C92.9063 52.3836 93.5546 52.8222 93.9551 53.0891C94.0313 53.1273 94.0886 53.1845 94.1458 53.2226C94.6797 52.6505 94.9085 52.4408 95.309 52.0785L95.3281 52.0594C96.3387 51.1059 98.1503 51.1822 99.1992 52.2119C100.229 53.2035 100.286 55.3203 99.3136 56.636C98.5889 57.6086 96.2243 60.5071 94.0504 61.9945C91.8002 63.5392 86.0031 65.961 85.9459 65.9801C84.7636 66.4568 83.6385 66.2089 82.7613 65.2936C82.4753 64.9884 82.1702 64.6833 81.9985 64.5498C81.9604 64.5498 81.8651 64.5498 81.7125 64.588C81.293 64.6643 79.4814 65.1601 78.1656 65.5224C77.0405 65.8275 76.3349 66.0182 76.087 66.0754C75.801 66.1517 74.9619 66.6665 74.5996 66.8954C74.5043 66.9526 74.428 67.0098 74.3517 67.0479C73.6461 67.4865 72.4638 68.0777 70.4425 68.0777C68.6118 68.0777 66.5142 67.0861 64.8361 66.2661C64.6645 66.1898 64.4928 66.0945 64.3212 66.0182C63.6728 65.7131 63.1008 65.427 62.605 65.1791C61.8994 64.8359 61.251 64.5117 60.9841 64.4164C60.7743 64.3401 60.5264 64.3019 60.3548 64.2829C60.2976 64.3592 60.2403 64.4926 60.2403 64.6452C60.2403 65.9038 59.7445 66.8 58.6004 67.601C57.7995 68.173 56.6744 68.4591 55.3967 68.4591ZM29.2335 51.9259C29.5386 52.1738 30.187 52.7268 31.7697 54.0617C34.3441 56.2356 39.1114 59.6109 41.6286 60.8695C44.2602 62.2043 51.7735 64.9694 53.6042 65.4461C55.4921 65.9228 56.6362 65.5796 56.9985 65.3317C57.4562 65.0075 57.4562 64.9312 57.4562 64.6452C57.4562 63.3294 58.1618 62.3759 58.8292 61.8992L58.8483 61.8801C59.9162 61.1555 61.4608 61.6322 61.8994 61.7848C62.3189 61.9373 62.9291 62.2425 63.8063 62.681C64.3021 62.9289 64.8742 63.215 65.4844 63.501C65.637 63.5773 65.8086 63.6536 65.9993 63.7489C67.3532 64.3973 69.222 65.2936 70.4234 65.2936C71.7201 65.2936 72.4257 64.9694 72.8834 64.6833C72.9596 64.6452 73.0359 64.588 73.1313 64.5308C74.0085 63.9778 74.7712 63.5201 75.4577 63.3485C75.6675 63.2913 76.5638 63.0624 77.441 62.8145C79.3288 62.2997 80.7018 61.9373 81.1595 61.842C82.1511 61.6322 82.9711 61.7848 83.6385 62.2806C83.9436 62.5094 84.2678 62.8336 84.7636 63.3485C84.7827 63.3675 84.8017 63.3866 84.8208 63.4057C84.8399 63.4057 84.859 63.3866 84.8971 63.3675C86.0222 62.9099 90.7705 60.8313 92.4677 59.649C94.1839 58.4667 96.3006 55.9686 97.0634 54.9198C97.2159 54.71 97.2541 54.3096 97.1969 54.0998C97.1587 54.0807 97.1397 54.0807 97.1015 54.0807C96.7201 54.424 96.5485 54.5765 96.0527 55.1105C95.1564 56.064 93.9169 56.2547 92.8109 55.5872C92.6965 55.5109 92.563 55.4347 92.3914 55.3203C92.0291 55.0724 91.4188 54.6719 90.0458 53.89L89.7217 53.7184C87.891 52.6696 85.8124 51.5064 83.6004 50.8771C81.1023 50.1715 66.743 47.0441 63.0626 46.3576C63.0436 46.3576 63.0054 46.3386 62.9863 46.3386C62.9673 46.3386 62.7766 46.2814 62.0901 46.1479C60.431 45.8428 60.0497 44.8702 59.9734 43.8595C59.9543 43.8595 59.9543 43.8595 59.9352 43.8595C59.4776 43.7451 51.8879 42.067 45.1946 40.5796C37.9673 38.9778 30.473 37.3187 29.2335 37.0327C26.64 36.4225 24.8857 36.2318 23.8559 36.1936C22.8452 36.1555 15.8468 35.8504 11.7278 35.736C15.6942 37.3759 19.0313 39.7978 20.8811 41.1326C21.0527 41.247 21.2053 41.3614 21.3387 41.4568C23.4745 42.9823 27.5363 46.4148 28.5851 47.5018C29.7674 48.7032 29.9772 50.3241 29.2335 51.9259Z" fill="white"/>
</g>
<defs>
<clipPath id="clip0_429_1507">
<rect width="100" height="100" fill="white"/>
</clipPath>
</defs>
</svg>
