<?xml version="1.0" encoding="utf-8"?>
<!-- Generator: Adobe Illustrator 28.2.0, SVG Export Plug-In . SVG Version: 6.00 Build 0)  -->
<svg version="1.1" id="uuid-b19049fb-5163-4ca9-8056-34c78e2163ac"
	 xmlns="http://www.w3.org/2000/svg" xmlns:xlink="http://www.w3.org/1999/xlink" x="0px" y="0px" viewBox="0 0 524.4 524.4"
	 style="enable-background:new 0 0 524.4 524.4;" xml:space="preserve">
<style type="text/css">
	.st0{fill:#241758;}
	.st1{fill:none;}
</style>
<g id="uuid-556f3940-be90-4300-8b7a-6e1b8d2bdd42">
	<g id="uuid-48d13d8d-602c-4076-941d-a152bd8c9bbf">
		<g>
			<polygon class="st0" points="462.6,215.8 467.2,218.1 470.4,233.7 456.1,240.3 451.6,238.1 466.1,231.4 			"/>
			<polygon class="st0" points="471.7,220.3 476.2,222.5 479.4,238.1 464.9,244.8 460.4,242.6 475,235.9 			"/>
		</g>
	</g>
	<rect class="st1" width="524.4" height="524.4"/>
	<g id="uuid-556dd4e6-8322-4e92-becb-933199cda747">
		<path class="st0" d="M290.5,359c-4.1,0-8.4-0.6-12.9-1.7c-11.4-2.9-52-18.1-65.8-25.1c-14.6-7.3-40.5-25.7-54.6-37.6
			c-12.3-10.5-13.6-11.5-14.4-12.1l-0.3-0.3c-4.7-3.8-5.8-9.7-2.7-15.4c1.6-3.1,1.6-5.5,0-7.2c-5-5.2-25.6-22.5-36.1-30
			c-0.7-0.5-1.6-1.1-2.5-1.8c-11.9-8.6-36.6-26.5-63.1-32.5c-15.8-3.6-22.1-4.8-25.4-5.5c-0.8-0.2-1.5-0.3-2.1-0.4
			c-7-1.4-11.6-7.6-10.4-14.3c1-5.6,6.5-10.9,16.1-9.3c5.4,0.9,13.6,3.9,18,5.5c0.7,0.3,1.3,0.5,1.7,0.6c0.8,0.3,3.9,0.9,15.4,1
			c17.2,0.2,68,2.4,74.6,2.7c8.5,0.4,19.2,2,30.9,4.8c6.4,1.5,45.6,10.2,83.4,18.6c47,10.4,75.9,16.8,78,17.4
			c0.6,0.2,1.1,0.3,1.6,0.4c4.7,1,9,3.2,9.2,11.5c2.8,0.6,4.1,0.8,4.6,0.9c20.4,3.8,95.2,20.2,108.9,24
			c13.3,3.7,25.5,10.7,35.3,16.2l1.7,1c7.6,4.3,11,6.6,13.1,8c0.4,0.2,0.7,0.5,1,0.7c2.8-3,4-4.1,6.1-6l0.1-0.1
			c5.3-5,14.8-4.6,20.3,0.8c5.4,5.2,5.7,16.3,0.6,23.2c-3.8,5.1-16.2,20.3-27.6,28.1c-11.8,8.1-42.2,20.8-42.5,20.9
			c-6.2,2.5-12.1,1.2-16.7-3.6c-1.5-1.6-3.1-3.2-4-3.9c-0.2,0-0.7,0-1.5,0.2c-2.2,0.4-11.7,3-18.6,4.9c-5.9,1.6-9.6,2.6-10.9,2.9
			c-1.5,0.4-5.9,3.1-7.8,4.3c-0.5,0.3-0.9,0.6-1.3,0.8c-3.7,2.3-9.9,5.4-20.5,5.4c-9.6,0-20.6-5.2-29.4-9.5
			c-0.9-0.4-1.8-0.9-2.7-1.3c-3.4-1.6-6.4-3.1-9-4.4c-3.7-1.8-7.1-3.5-8.5-4c-1.1-0.4-2.4-0.6-3.3-0.7c-0.3,0.4-0.6,1.1-0.6,1.9
			c0,6.6-2.6,11.3-8.6,15.5C303.1,357.5,297.2,359,290.5,359L290.5,359z M153.3,272.3c1.6,1.3,5,4.2,13.3,11.2
			c13.5,11.4,38.5,29.1,51.7,35.7c13.8,7,53.2,21.5,62.8,24c9.9,2.5,15.9,0.7,17.8-0.6c2.4-1.7,2.4-2.1,2.4-3.6
			c0-6.9,3.7-11.9,7.2-14.4c0,0,0.1-0.1,0.1-0.1c5.6-3.8,13.7-1.3,16-0.5c2.2,0.8,5.4,2.4,10,4.7c2.6,1.3,5.6,2.8,8.8,4.3
			c0.8,0.4,1.7,0.8,2.7,1.3c7.1,3.4,16.9,8.1,23.2,8.1c6.8,0,10.5-1.7,12.9-3.2c0.4-0.2,0.8-0.5,1.3-0.8c4.6-2.9,8.6-5.3,12.2-6.2
			c1.1-0.3,5.8-1.5,10.4-2.8c9.9-2.7,17.1-4.6,19.5-5.1c5.2-1.1,9.5-0.3,13,2.3c1.6,1.2,3.3,2.9,5.9,5.6c0.1,0.1,0.2,0.2,0.3,0.3
			c0.1,0,0.2-0.1,0.4-0.2c5.9-2.4,30.8-13.3,39.7-19.5c9-6.2,20.1-19.3,24.1-24.8c0.8-1.1,1-3.2,0.7-4.3c-0.2-0.1-0.3-0.1-0.5-0.1
			c-2,1.8-2.9,2.6-5.5,5.4c-4.7,5-11.2,6-17,2.5c-0.6-0.4-1.3-0.8-2.2-1.4c-1.9-1.3-5.1-3.4-12.3-7.5l-1.7-0.9
			c-9.6-5.5-20.5-11.6-32.1-14.9c-13.1-3.7-88.4-20.1-107.7-23.7c-0.1,0-0.3-0.1-0.4-0.1c-0.1,0-1.1-0.3-4.7-1
			c-8.7-1.6-10.7-6.7-11.1-12c-0.1,0-0.1,0-0.2,0c-2.4-0.6-42.2-9.4-77.3-17.2c-37.9-8.4-77.2-17.1-83.7-18.6
			c-13.6-3.2-22.8-4.2-28.2-4.4c-5.3-0.2-42-1.8-63.6-2.4c20.8,8.6,38.3,21.3,48,28.3c0.9,0.6,1.7,1.2,2.4,1.7
			c11.2,8,32.5,26,38,31.7C156.1,255.4,157.2,263.9,153.3,272.3L153.3,272.3z M152.5,273.9L152.5,273.9L152.5,273.9z"/>
	</g>
</g>
</svg>
