<?xml version="1.0" encoding="utf-8"?>
<!-- Generator: Adobe Illustrator 28.2.0, SVG Export Plug-In . SVG Version: 6.00 Build 0)  -->
<svg version="1.1" id="uuid-2807dc66-7a84-4ed7-8095-79793493134d"
	 xmlns="http://www.w3.org/2000/svg" xmlns:xlink="http://www.w3.org/1999/xlink" x="0px" y="0px" viewBox="0 0 524.4 524.4"
	 style="enable-background:new 0 0 524.4 524.4;" xml:space="preserve">
<style type="text/css">
	.st0{fill:#241758;}
	.st1{fill:none;}
</style>
<g id="uuid-c9fa05e2-4393-4246-9253-d7e261a1cbb9">
	<g id="uuid-d4a3ffc7-f4bd-4ffe-9f79-b72615af158f">
		<g>
			<polygon class="st0" points="137.9,259 139.6,254.2 154.5,248.7 163.2,261.9 161.7,266.6 152.9,253.3 			"/>
			<polygon class="st0" points="141.1,249.4 142.6,244.6 157.5,239.1 166.3,252.5 164.8,257.2 156.1,243.9 			"/>
		</g>
	</g>
	<path class="st0" d="M522.7,373.6c-1.9-6-5-10.6-10.2-14.9c-5.3-4.4-12.1-7.7-19.1-9.5c-5.5-1.4-12.5-1.5-18.7-0.4
		c-7.4,1.4-12,5.7-14.3,13.6c-1.4,4.7,0.6,9.3,2.1,13c0.7,1.6,1.3,3.1,1.6,4.3c0.2,1,0.6,2,0.9,2.9c0.1,0.3,0.3,0.9,0.5,1.4
		c-0.5,0.5-1,0.9-1.4,0.9c-41.6-1.4-84.3-3.4-125.7-5.4l-17.4-0.8c-6.8-0.3-13.4-0.3-19.8-0.2c-1.7,0-3.3,0-5,0c-3,0-5-0.7-5.3-1.1
		c-1.6-1.7-2.6-4.8-3.8-8.4c-0.4-1.2-0.8-2.4-1.2-3.6c-0.5-1.3-1-2.7-1.5-4.1c-1.8-4.7-3.5-9.2-3.8-13.2c-0.1-1.4,0.6-2.9,1.3-3.2
		c1.5-0.9,4.7-1.1,8.5-0.6c3.6,0.5,7.2,1.5,11.2,2.6c6.2,1.7,12.7,3.5,19.3,3.2c7.8-0.4,15-4.7,21.1-9c3.6-2.5,10.1-7.7,13.3-14.8
		c3.3-7.3,2.6-16.1,2.2-19.6c-0.8-5.7-3.6-10.8-6.1-15.3L351,291c-2.5-4.4-5.3-8.5-8-12.5c-2.5-3.7-5.1-7.5-7.3-11.3
		c-3.3-5.8-5.3-11.1-6.3-16.3c-1.1-6-1-12.2,0.1-17.6c1.3-6,3.2-11.6,5.6-16c2.1-3.8,5.2-7.2,8.7-9.3c5.8-3.6,12.2-6.1,18.2-7
		c5.8-0.9,12.2-0.5,18.5-0.1c1,0.1,2,0.1,2.9,0.2c7.2,0.4,14.5,0.9,21.5,1.5c11.6,0.9,23.7,1.7,35.7,2.1c7.6,0.2,16.3,0.3,24.7-1.4
		c8.1-1.6,15.9-4.5,22.5-7.1c3.1-1.2,7.4-3.4,9-8c1.5-4.4,1-10.6-3-14.2c-3.7-3.3-8.7-4.6-13.2-5.9l-0.1,0c-0.5-0.1-1.1-0.3-1.6-0.4
		c-26.8-7.6-49.7-13.6-72.2-18.7c-6.3-1.5-13.6-0.8-19.2-0.1c-22.6,2.9-44.8,6.1-67.4,9.3c-2.8,0.4-5.6,0.8-8.5,1.3
		c-7.4,1.1-15.1,2.3-21.8,2.9c-3,0.3-7.4-1.3-12.1-4.3c-2.7-1.8-5.6-5-8.5-9.4c-2.3-3.6-3.6-7.4-3.6-9.1c0-1.3,1.3-4.1,3-5.7
		c0.6-0.6,2.6-1.4,3.5-1.6c3.3,1.3,6.2,3.7,6.5,4.6c2.5,7.1,8.7,13,15,14.3c6.1,1.3,12.7-1.8,16.5-5.4c4.4-4.2,7.9-10.1,9.1-15.5
		c1.2-5.6,0.4-12.5-2.1-17.8c-2.8-5.9-7.7-11.6-12.9-14.9c-6.9-4.4-15.6-5.5-21.8-5.7c-7.5-0.2-14.9,1.3-20.8,4.3
		c-5.6,2.9-12.6,8.4-15.2,15.4c-15.6,41-32.3,83.2-49.7,125.6c-13.3,32.4-25,65.7-36.4,97.9c-5.3,15.1-10.8,30.6-16.4,46
		c-0.7,2-1.3,3.9-1.8,5.8c-0.6,2.1-1.1,4.2-1.9,5.8c-0.6,0.3-2.3,1-4.3,1.1c-9.4,0.4-18.9,0.8-27.3,1.2c-11,0.5-22.3,0.9-33.8,1.5
		c-4.4,0.2-8.8,0.2-13.1,0.3c-7.7,0-15.7,0.1-24,1.3c-9.7,1.5-19.2,4.8-29.8,10.4c-3.3,1.7-10.2,8.5-7.4,14.6
		c1.9,4,6.8,6.6,12.4,6.7c96.3,1.5,194.2,1.7,288.8,1.9l0.9,0c43.4,0.1,88.2,0.2,132.3,0.4c3.9,0,8,0.1,11.9,0.2l0.2,0
		c4.4,0.1,9,0.2,13.6,0.2c8,0,14.5-0.3,20.5-1c8.2-0.9,15.6-4.7,20.4-7.6c4.7-2.9,8.9-7.2,13.2-13.4c3.7-5.4,7.5-11.1,8.8-17.7
		C524.9,386.7,524.6,379.7,522.7,373.6L522.7,373.6z M208.3,239.9c17.2-41.9,33.7-83.6,49.1-124.1c1.4-3.6,6-7.3,9.7-9.2
		c4.2-2.1,9.6-3.2,15.1-3c6.6,0.2,12.2,1.6,15.9,3.9c3.4,2.1,6.8,6.1,8.6,10c1.4,3,1.9,7.4,1.3,10.5c-0.6,3-3,6.9-5.7,9.4
		c-1.9,1.8-4.8,2.8-6.1,2.5c-2.1-0.4-5.2-3.4-6.5-6.9c-2.2-6.2-9.9-10.4-14.1-11.9c-5.2-1.9-12.4,2-14.9,4.4
		c-3.2,3.1-6.6,8.8-6.6,14.1c0,6.3,4.2,13.3,5.4,15.3c3.8,5.9,7.8,10.2,11.9,12.9c4.9,3.2,12.3,6.9,19.6,6.2c7-0.7,14.8-1.9,22.4-3
		c2.8-0.4,5.6-0.8,8.4-1.2c22.6-3.3,44.7-6.4,67.3-9.3c4.6-0.6,10.5-1.1,15.1-0.1c22.3,5.1,45,11,71.6,18.6c0.5,0.1,1,0.3,1.6,0.4
		l0.3,0.1c2.9,0.8,6.6,1.8,8.3,3.2c0.1,0.4,0.2,1.1,0.1,1.6c-0.2,0.2-0.8,0.6-2.3,1.2c-6.1,2.4-13.3,5-20.5,6.5
		c-7.1,1.4-14.8,1.4-22,1.2c-11.7-0.3-23.6-1.2-35.1-2.1l-0.1,0c-7.1-0.5-14.4-1.1-21.6-1.5c-1-0.1-1.9-0.1-3-0.2
		c-6.8-0.4-13.9-0.9-20.9,0.2c-7.5,1.2-15.5,4.2-22.5,8.6c-5.2,3.2-9.8,8.1-12.8,13.6c-3,5.5-5.3,11.9-6.8,19.1
		c-1.4,6.8-1.5,14.6-0.2,22c1.2,6.5,3.6,13,7.6,20c2.4,4.2,5.1,8.2,7.8,12.1c2.7,4,5.3,7.7,7.5,11.6l0.2,0.4
		c2.1,3.8,4.3,7.6,4.7,11.1c0.7,5.1,0.2,10.1-1.2,13.3c-1.5,3.3-4.9,7-9.3,10.1c-4.5,3.1-10.2,6.7-15.1,6.9
		c-4.8,0.2-10.1-1.2-15.7-2.8c-4.1-1.1-8.3-2.3-12.7-2.9c-6.6-0.9-11.9-0.2-15.8,2c-4.7,2.6-7.6,8.5-7.2,14.3
		c0.4,5.7,2.5,11.1,4.5,16.4l0,0.1c0.5,1.3,1,2.5,1.4,3.8c0.4,1.1,0.8,2.2,1.1,3.4c1.5,4.5,3,9.1,6.3,12.6c4,4.2,10.4,4.8,13.9,4.8
		c1.7,0,3.4,0,5,0c6.5-0.1,12.7-0.1,19.1,0.2l17.2,0.8c41.4,2,84.3,4,126,5.4c5.1,0.2,10-2.9,12.6-7.8c1.9-3.7,0.6-7.5-0.2-10
		c-0.2-0.6-0.4-1.2-0.5-1.7c-0.5-2.2-1.4-4.3-2.2-6.2c-0.7-1.5-1.9-4.4-1.7-5.2c1.2-4.2,2.6-4.9,5.2-5.4c4.6-0.8,9.9-0.8,13.8,0.2
		c5.4,1.4,10.6,3.9,14.5,7.2c3.5,2.9,5.3,5.5,6.5,9.4c1.3,4.2,1.6,9.2,0.7,13.3c-0.9,4.4-4,9.1-7,13.4c-3.4,4.9-6.5,8.1-9.8,10.1
		c-3.7,2.3-9.5,5.3-15.6,6c-10.6,1.2-21.8,1-32.6,0.7l-0.1,0c-4-0.1-8.1-0.2-12.1-0.2c-44.8-0.2-89.7-0.3-133.3-0.4
		c-94.2-0.2-191.5-0.4-287.2-1.9c9.1-4.7,16.9-7.3,25-8.5c7.4-1.1,14.7-1.2,22.4-1.2c4.4,0,8.9-0.1,13.5-0.3
		c11.5-0.6,22.8-1,33.7-1.5c8.9-0.4,18.1-0.7,27.4-1.2c5.3-0.3,11.9-2.4,14.2-7.5c1.2-2.6,2-5.4,2.7-8c0.5-1.7,0.9-3.4,1.5-4.9
		c5.6-15.4,11.1-31,16.4-46.1c11.3-32,22.9-65.1,36.1-97.3L208.3,239.9L208.3,239.9L208.3,239.9z"/>
	<rect class="st1" width="524.4" height="524.4"/>
	<rect class="st1" width="524.4" height="524.4"/>
	<rect class="st1" width="524.4" height="524.4"/>
	<rect class="st1" width="524.4" height="524.4"/>
</g>
</svg>
