<svg width="525" height="525" viewBox="0 0 525 525" fill="none" xmlns="http://www.w3.org/2000/svg">
<g clip-path="url(#clip0_429_1435)">
<path d="M146.054 259L147.754 254.2L162.654 248.7L171.354 261.9L169.854 266.6L161.054 253.3L146.054 259Z" fill="white"/>
<path d="M149.254 249.4L150.754 244.6L165.654 239.1L174.454 252.5L172.954 257.2L164.254 243.9L149.254 249.4Z" fill="white"/>
<path d="M530.854 373.6C528.954 367.6 525.854 363 520.654 358.7C515.354 354.3 508.554 351 501.554 349.2C496.054 347.8 489.054 347.7 482.854 348.8C475.454 350.2 470.854 354.5 468.554 362.4C467.154 367.1 469.154 371.7 470.654 375.4C471.354 377 471.954 378.5 472.254 379.7C472.454 380.7 472.854 381.7 473.154 382.6C473.254 382.9 473.454 383.5 473.654 384C473.154 384.5 472.654 384.9 472.254 384.9C430.654 383.5 387.954 381.5 346.554 379.5L329.154 378.7C322.354 378.4 315.754 378.4 309.354 378.5C307.654 378.5 306.054 378.5 304.354 378.5C301.354 378.5 299.354 377.8 299.054 377.4C297.454 375.7 296.454 372.6 295.254 369C294.854 367.8 294.454 366.6 294.054 365.4C293.554 364.1 293.054 362.7 292.554 361.3C290.754 356.6 289.054 352.1 288.754 348.1C288.654 346.7 289.354 345.2 290.054 344.9C291.554 344 294.754 343.8 298.554 344.3C302.154 344.8 305.754 345.8 309.754 346.9C315.954 348.6 322.454 350.4 329.054 350.1C336.854 349.7 344.054 345.4 350.154 341.1C353.754 338.6 360.254 333.4 363.454 326.3C366.754 319 366.054 310.2 365.654 306.7C364.854 301 362.054 295.9 359.554 291.4L359.154 291C356.654 286.6 353.854 282.5 351.154 278.5C348.654 274.8 346.054 271 343.854 267.2C340.554 261.4 338.554 256.1 337.554 250.9C336.454 244.9 336.554 238.7 337.654 233.3C338.954 227.3 340.854 221.7 343.254 217.3C345.354 213.5 348.454 210.1 351.954 208C357.754 204.4 364.154 201.9 370.154 201C375.954 200.1 382.354 200.5 388.654 200.9C389.654 201 390.654 201 391.554 201.1C398.754 201.5 406.054 202 413.054 202.6C424.654 203.5 436.754 204.3 448.754 204.7C456.354 204.9 465.054 205 473.454 203.3C481.554 201.7 489.354 198.8 495.954 196.2C499.054 195 503.354 192.8 504.954 188.2C506.454 183.8 505.954 177.6 501.954 174C498.254 170.7 493.254 169.4 488.754 168.1H488.654C488.154 168 487.554 167.8 487.054 167.7C460.254 160.1 437.354 154.1 414.854 149C408.554 147.5 401.254 148.2 395.654 148.9C373.054 151.8 350.854 155 328.254 158.2C325.454 158.6 322.654 159 319.754 159.5C312.354 160.6 304.654 161.8 297.954 162.4C294.954 162.7 290.554 161.1 285.854 158.1C283.154 156.3 280.254 153.1 277.354 148.7C275.054 145.1 273.754 141.3 273.754 139.6C273.754 138.3 275.054 135.5 276.754 133.9C277.354 133.3 279.354 132.5 280.254 132.3C283.554 133.6 286.454 136 286.754 136.9C289.254 144 295.454 149.9 301.754 151.2C307.854 152.5 314.454 149.4 318.254 145.8C322.654 141.6 326.154 135.7 327.354 130.3C328.554 124.7 327.754 117.8 325.254 112.5C322.454 106.6 317.554 100.9 312.354 97.6C305.454 93.2 296.754 92.1 290.554 91.9C283.054 91.7 275.654 93.2 269.754 96.2C264.154 99.1 257.154 104.6 254.554 111.6C238.954 152.6 222.254 194.8 204.854 237.2C191.554 269.6 179.854 302.9 168.454 335.1C163.154 350.2 157.654 365.7 152.054 381.1C151.354 383.1 150.754 385 150.254 386.9C149.654 389 149.154 391.1 148.354 392.7C147.754 393 146.054 393.7 144.054 393.8C134.654 394.2 125.154 394.6 116.754 395C105.754 395.5 94.4537 395.9 82.9537 396.5C78.5537 396.7 74.1536 396.7 69.8536 396.8C62.1536 396.8 54.1536 396.9 45.8536 398.1C36.1536 399.6 26.6536 402.9 16.0536 408.5C12.7536 410.2 5.85365 417 8.65365 423.1C10.5536 427.1 15.4536 429.7 21.0536 429.8C117.354 431.3 215.254 431.5 309.854 431.7H310.754C354.154 431.8 398.954 431.9 443.054 432.1C446.954 432.1 451.054 432.2 454.954 432.3H455.154C459.554 432.4 464.154 432.5 468.754 432.5C476.754 432.5 483.254 432.2 489.254 431.5C497.454 430.6 504.854 426.8 509.654 423.9C514.354 421 518.554 416.7 522.854 410.5C526.554 405.1 530.354 399.4 531.654 392.8C533.054 386.7 532.754 379.7 530.854 373.6ZM216.454 239.9C233.654 198 250.154 156.3 265.554 115.8C266.954 112.2 271.554 108.5 275.254 106.6C279.454 104.5 284.854 103.4 290.354 103.6C296.954 103.8 302.554 105.2 306.254 107.5C309.654 109.6 313.054 113.6 314.854 117.5C316.254 120.5 316.754 124.9 316.154 128C315.554 131 313.154 134.9 310.454 137.4C308.554 139.2 305.654 140.2 304.354 139.9C302.254 139.5 299.154 136.5 297.854 133C295.654 126.8 287.954 122.6 283.754 121.1C278.554 119.2 271.354 123.1 268.854 125.5C265.654 128.6 262.254 134.3 262.254 139.6C262.254 145.9 266.454 152.9 267.654 154.9C271.454 160.8 275.454 165.1 279.554 167.8C284.454 171 291.854 174.7 299.154 174C306.154 173.3 313.954 172.1 321.554 171C324.354 170.6 327.154 170.2 329.954 169.8C352.554 166.5 374.654 163.4 397.254 160.5C401.854 159.9 407.754 159.4 412.354 160.4C434.654 165.5 457.354 171.4 483.954 179C484.454 179.1 484.954 179.3 485.554 179.4L485.854 179.5C488.754 180.3 492.454 181.3 494.154 182.7C494.254 183.1 494.354 183.8 494.254 184.3C494.054 184.5 493.454 184.9 491.954 185.5C485.854 187.9 478.654 190.5 471.454 192C464.354 193.4 456.654 193.4 449.454 193.2C437.754 192.9 425.854 192 414.354 191.1H414.254C407.154 190.6 399.854 190 392.654 189.6C391.654 189.5 390.754 189.5 389.654 189.4C382.854 189 375.754 188.5 368.754 189.6C361.254 190.8 353.254 193.8 346.254 198.2C341.054 201.4 336.454 206.3 333.454 211.8C330.454 217.3 328.154 223.7 326.654 230.9C325.254 237.7 325.154 245.5 326.454 252.9C327.654 259.4 330.054 265.9 334.054 272.9C336.454 277.1 339.154 281.1 341.854 285C344.554 289 347.154 292.7 349.354 296.6L349.554 297C351.654 300.8 353.854 304.6 354.254 308.1C354.954 313.2 354.454 318.2 353.054 321.4C351.554 324.7 348.154 328.4 343.754 331.5C339.254 334.6 333.554 338.2 328.654 338.4C323.854 338.6 318.554 337.2 312.954 335.6C308.854 334.5 304.654 333.3 300.254 332.7C293.654 331.8 288.354 332.5 284.454 334.7C279.754 337.3 276.854 343.2 277.254 349C277.654 354.7 279.754 360.1 281.754 365.4V365.5C282.254 366.8 282.754 368 283.154 369.3C283.554 370.4 283.954 371.5 284.254 372.7C285.754 377.2 287.254 381.8 290.554 385.3C294.554 389.5 300.954 390.1 304.454 390.1C306.154 390.1 307.854 390.1 309.454 390.1C315.954 390 322.154 390 328.554 390.3L345.754 391.1C387.154 393.1 430.054 395.1 471.754 396.5C476.854 396.7 481.754 393.6 484.354 388.7C486.254 385 484.954 381.2 484.154 378.7C483.954 378.1 483.754 377.5 483.654 377C483.154 374.8 482.254 372.7 481.454 370.8C480.754 369.3 479.554 366.4 479.754 365.6C480.954 361.4 482.354 360.7 484.954 360.2C489.554 359.4 494.854 359.4 498.754 360.4C504.154 361.8 509.354 364.3 513.254 367.6C516.754 370.5 518.554 373.1 519.754 377C521.054 381.2 521.354 386.2 520.454 390.3C519.554 394.7 516.454 399.4 513.454 403.7C510.054 408.6 506.954 411.8 503.654 413.8C499.954 416.1 494.154 419.1 488.054 419.8C477.454 421 466.254 420.8 455.454 420.5H455.354C451.354 420.4 447.254 420.3 443.254 420.3C398.454 420.1 353.554 420 309.954 419.9C215.754 419.7 118.454 419.5 22.7536 418C31.8536 413.3 39.6536 410.7 47.7536 409.5C55.1536 408.4 62.4536 408.3 70.1536 408.3C74.5536 408.3 79.0536 408.2 83.6536 408C95.1536 407.4 106.454 407 117.354 406.5C126.254 406.1 135.454 405.8 144.754 405.3C150.054 405 156.654 402.9 158.954 397.8C160.154 395.2 160.954 392.4 161.654 389.8C162.154 388.1 162.554 386.4 163.154 384.9C168.754 369.5 174.254 353.9 179.554 338.8C190.854 306.8 202.454 273.7 215.654 241.5L216.454 239.9Z" fill="white"/>
</g>
<defs>
<clipPath id="clip0_429_1435">
<rect width="524.4" height="524.4" fill="white"/>
</clipPath>
</defs>
</svg>
