<?xml version="1.0" encoding="utf-8"?>
<!-- Generator: Adobe Illustrator 28.2.0, SVG Export Plug-In . SVG Version: 6.00 Build 0)  -->
<svg version="1.1" id="uuid-f7feded9-3869-435c-b7e7-26386ff54209"
	 xmlns="http://www.w3.org/2000/svg" xmlns:xlink="http://www.w3.org/1999/xlink" x="0px" y="0px" viewBox="0 0 524.4 524.4"
	 style="enable-background:new 0 0 524.4 524.4;" xml:space="preserve">
<style type="text/css">
	.st0{fill:#241758;}
	.st1{fill:none;}
</style>
<g id="uuid-78360069-d13c-42d6-9da3-ef5c92ac79ca">
	<path class="st0" d="M60.6,423.7c-2.7,0-5.9-0.6-9-2.5c-6.1-3.6-9.8-10.8-11.1-21.3c-2.9-23.7-22.7-144.6-22.9-145.8l-0.1-0.8
		l0-0.1c-4.7,0-8.9-1.4-11.9-4.2c-3.7-3.4-5.5-8.5-5.5-15c0-0.7,0-1.5,0-2.3C-0.1,220-0.2,204,22.8,189.9l0,0l96.1-57.8
		c1.3-0.8,14.4-8.9,33.8-13.6c26.7-6.4,52.8-3.1,75.3,9.6l0.1,0.1c1.3,0.8,2.5,1.6,3.5,2.3c3.3,2.3,5.1,3.6,11.1,2.5
		c10.2-2.4,18-4.6,19.9-5.2c5.4-2.6,15.6-7.7,18.4-9.2c0.5-0.3,1.1-0.7,1.9-1.3c4.3-2.9,12.2-8.3,26.9-9.8c5.9-0.6,8.8-1.2,10.2-1.6
		c1.4-1.9,4-3.8,7.2-4c2.3-0.1,5.8,0.7,9.1,4.9c1.7,2.2,3.4,4.4,5.5,5c2.7,0.8,6.9-0.8,12.2-4.6l1.5-1.1h0.3
		c3.2-1.9,11.1-5.7,31.3-5.4c24.3,0.4,93,2.1,93.7,2.1l0.2,0c0.4,0,43.3,3.4,43.3,47.9c0,16.5-7.7,29.3-21.8,35.8
		c-8.1,3.8-18,5.3-28,4.3c-9.5-0.9-18-4.1-23.4-8.6l-65.6-52.4c-2.2-1-8.1-2.6-12.7,4.8c-7.2,11.5-14.8,22.5-16.7,25.4
		c-1.6,3.9-7.5,10-28.5,9.3l-4.2-0.1c-4.1,0-11.1,0.1-17.4,0.3c-1.3,0.2-8,1.5-14.5,5.9c-9.2,6.2-13.9,15.9-13.9,28.6v25.7l0,0.3
		c-0.1,1.2-0.2,5.3,1.4,7.5c1.8,2.5,4.6,6.3,3.5,11.2c-0.9,4.2-4.3,7.7-11.2,11.5c-11.2,6.2-30.3,16.2-30.5,16.3l-0.1,0
		c-0.3,0.2-9.2,4.9-9.2,15.6c0,4.1,1.3,8.3,2.6,12.6c2.8,9,6.3,20.2-3.6,31.9c-10.2,12.2-23.1,13.6-25.9,13.7l-68.7,11.1
		c-0.3,0.1-0.6,0.3-0.9,0.4c0.8,1,1.6,1.8,2.2,2.5c3.7,3.9,5.3,6.4,5.7,15.4l0.1,2.6l-0.4,0.4c-0.2,2.2-0.3,6.2-0.4,9.7
		c0.4,6.3-3.5,18.3-21.4,21.1l-2.9,0.5l-0.1-0.1c-8.2,1.2-34.3,5.7-51.3,8.7C65.4,423.1,63.2,423.7,60.6,423.7L60.6,423.7z
		 M29.2,252.7c1.6,9.8,20,122.4,22.8,145.8c0.8,6.5,2.7,10.9,5.4,12.6c2.5,1.5,5.3,0.5,5.4,0.5l0.6-0.3l0.4,0c0,0,13.6-2.4,27.3-4.7
		c8-1.4,14.3-2.4,18.9-3.2c2.6-0.4,4.8-0.8,6.4-1c1-0.1,1.9-0.3,2.7-0.3c10.7-1.8,11.2-7.5,11.2-8.8l-0.1-0.5l0.1-0.2
		c0.2-7.2,0.4-10.9,0.7-13c-0.2-4.6-0.5-4.9-2.5-7c-0.9-1-2.1-2.2-3.4-3.9c-3.4-4.2-2.9-8-2.3-9.9c1.8-5.8,8.4-8.1,9.8-8.5l0.4-0.1
		l0.4-0.1l69.9-11.3l0.4,0c0.3,0,9.9-0.4,17.6-9.6c5.5-6.5,4.2-11.6,1.4-20.9c-1.5-4.8-3.2-10.2-3.2-16.1c0-17.5,14.3-25.3,15.6-26
		c0.6-0.3,19.3-10.1,30.2-16.1c3.3-1.8,4.7-3.1,5.2-3.6c-0.4-0.6-1-1.5-1.3-1.9c-4.2-5.7-3.8-13.4-3.6-15.4V204
		c0-32.7,25.4-44.5,38.9-46.1l0.6,0c14.5-0.4,20.4-0.5,23.3-0.2c11.7,0.3,15.7-1.7,16.7-2.4l0-0.1l0.7-1c0.1-0.1,8.8-12.5,16.9-25.5
		c8.9-14.2,22.6-11.9,28.5-8.7l0.5,0.3l0.4,0.3l66.3,52.9c7.5,6.3,25.8,8.8,39,2.7c10-4.7,15-13.1,15-25.2c0-32.8-29.9-36-32.3-36.2
		c-3.7-0.1-69.7-1.7-93.4-2.1c-8.6-0.1-20.1,0.4-25.5,4.1c-0.3,0.2-0.6,0.4-1.1,0.7c-18.7,13-28.1,3.4-32.4-2.2
		c-2.7,2-7.6,3.1-16.8,4.1c-11.8,1.2-17.6,5.2-21.5,7.9c-1,0.7-1.9,1.3-2.9,1.8c-3.8,2.1-18.8,9.4-19.4,9.7l-0.4,0.2l-0.5,0.1
		c-0.4,0.1-8.9,2.7-21.2,5.5l-0.2,0.1c-11,2.1-16.1-1.6-20.2-4.5c-0.9-0.6-1.7-1.2-2.6-1.7c-20.1-11.2-42.5-14.1-66.4-8.4
		c-18.2,4.3-30.6,12.1-30.7,12.2L125,142l-96.1,57.8c-17.4,10.7-17.3,20.9-17.2,31.7c0,0.8,0,1.6,0,2.4c0,3.1,0.6,5.3,1.8,6.4
		c1.2,1.1,3.3,1.1,4.4,1.1c3.1-0.2,6,0.7,8.1,2.8C28.8,247,29.2,250.9,29.2,252.7L29.2,252.7z"/>
	<g id="uuid-85abc1e2-6b90-43c1-b776-34bd7346e539">
		<g>
			<polygon class="st0" points="55.9,328.1 55,323 65.6,311.2 79.5,318.7 80.4,323.6 66.3,316 			"/>
			<polygon class="st0" points="54.1,318.2 53.2,313.2 63.8,301.3 77.8,309 78.8,313.9 64.7,306.2 			"/>
		</g>
	</g>
	<rect class="st1" width="524.4" height="524.4"/>
	<rect class="st1" width="524.4" height="524.4"/>
	<rect class="st1" width="524.4" height="524.4"/>
	<rect class="st1" width="524.4" height="524.4"/>
</g>
</svg>
