<?xml version="1.0" encoding="utf-8"?>
<!-- Generator: Adobe Illustrator 28.2.0, SVG Export Plug-In . SVG Version: 6.00 Build 0)  -->
<svg version="1.1" id="uuid-49ff0557-e6b6-4748-ae5f-6b001917d79a"
	 xmlns="http://www.w3.org/2000/svg" xmlns:xlink="http://www.w3.org/1999/xlink" x="0px" y="0px" viewBox="0 0 524.4 524.4"
	 style="enable-background:new 0 0 524.4 524.4;" xml:space="preserve">
<style type="text/css">
	.st0{fill:none;}
	.st1{fill:#241758;}
</style>
<g id="uuid-c8f399eb-f9a3-4345-9cd4-a5e3df88ce96">
	<rect class="st0" width="524.4" height="524.4"/>
	<g id="uuid-b8c771dc-766e-45d4-b4c5-c4461cc9b815">
		<g>
			<polygon class="st1" points="410.3,309 406.5,312.4 390.8,310 389.6,294.3 393.2,290.9 394.5,306.8 			"/>
			<polygon class="st1" points="402.9,315.9 399.3,319.3 383.5,316.9 382.3,301 385.9,297.6 387.1,313.5 			"/>
		</g>
	</g>
	<rect class="st0" width="524.4" height="524.4"/>
	<g id="uuid-f2cd47aa-fa80-4191-a174-e27fac343100">
		<path class="st1" d="M506.4,259.7l-226,226c-10.9,10.9-22.7,8.9-29.5,2c-5.7-5.7-7.6-11.5-6.8-20.9c0.7-7.7,3.7-24.4,5.1-31.6
			c1.6-7.9,10.5-30.8,26.7-46.9l63.8-63.8c0.9-0.9,6-8.9,0.2-14.7c-4.1-4.1-8.9-3.6-15.8-1.2c-0.5,0.2-0.9,0.3-1.3,0.4
			c-2,0.6-10.8,4.4-17.3,7.1c-8.4,3.5-13.6,5.8-15.8,6.5L289,323c-4.9,1.8-16.3,5.9-30.2-4.1c-6.2-4.5-45.9-30.4-74.9-49.3
			c-22.1-14.5-35.9-23.4-38.4-25.2c-3.3-2.3-14.8-10.6-23.3-19.6c-6.2-6.6-9.4-9.9-12.3-12.9l-0.3-0.3c-0.4-0.4-0.8-0.8-1.2-1.2
			c-2,0.3-6.8,1.1-12.2,1.9c-25.1,4-50.2,8-56.1,8.4c-9.2,0.7-22.9-0.4-34.6-17.4c-14.6-21.1,3.2-40.8,11.7-50.3
			c10.4-11.7,22.5-20.6,30.4-26.4c2.1-1.5,3.9-2.9,5.3-4l0.1-0.1c7.4-5.6,26.1-19.3,30.2-22.1c4.5-3.2,8.7-5.2,14.6-4.8
			c6.3,0.4,9.9,4.6,11.8,6.9c0.3,0.4,0.6,0.7,0.9,1c0.5,0.5,1.1,1.1,1.7,1.8c0.3,0.4,0.7,0.8,1.1,1.2c8.9-1.1,50.5-7,54.6-7.9
			c3.1-0.7,6.9-2.2,7.6-4.8c0.6-2.2,1.5-5.6,2.6-9.6c3.5-13.2,6.1-22.7,6.9-25.3c2.1-6.4,12.4-18.3,24.6-18.3
			c8.8,0,46.9,10,53.1,12.5c5,2,17.8,4.2,21.1,3.9c3.1-0.3,14.5-4.4,26.1-10.5c4.5-2.4,8.3-4.4,11.6-6.3c4.9-2.7,8.7-4.8,12.2-6.4
			c11.5-5.3,28.4-6.3,41.3,6.8c11.6,11.8,100.7,111.9,101.5,112.9c3.7,4.2,5.5,9.6,5,15c-0.4,4.3-2.6,10.8-10.6,16.8
			c-1.5,1.1-3.5,2.6-5.9,4.3c-11.5,8.4-32.8,23.9-46.8,37.7c-3.1,3.1-4.8,6.2-4.8,8.8c0,1.6,0.7,3.1,2,4.3c1.4,1.3,5.3,3.9,9.9-0.7
			l39.8-39.8c13.8-13.8,35.8-10.1,47.9,1.9c14.3,14.3,15.1,35.1,1.9,48.5C512.7,253.4,507.5,258.7,506.4,259.7z M264.4,473.7
			c0.5-0.3,1.2-0.8,2.2-1.7l226-226c2.3-2.3,6.5-6.6,7.8-8.2l0.6-0.6c6.4-6.4,4-15.5-1.7-21.2c-4.5-4.5-14.6-7.5-20.2-1.9
			l-39.8,39.8c-12.1,12.1-27.8,9.7-37.1,1.1c-5.2-4.9-8.1-11.4-8.2-18.4c-0.1-5.6,1.7-14,10.3-22.6c0.1-0.1,0.2-0.2,0.3-0.3
			c15-14.8,37.1-30.9,49-39.6c2.3-1.7,4.2-3.1,5.7-4.2c2.1-1.6,2.7-2.6,2.9-3c0,0-0.1-0.1-0.1-0.1c-0.9-1-89.8-100.9-100.9-112.2
			c-7.1-7.2-15.8-4.3-19.2-2.8c-2.9,1.3-6.5,3.3-11,5.8c-3.4,1.9-7.2,4-11.9,6.4c-10.7,5.6-25.7,12-33.4,12.7
			c-7.7,0.7-23.7-2.7-30.2-5.2c-5.2-2.1-40-10.9-45.8-11.1c-1.5,0.2-5.1,3.4-6.1,5.2c-0.9,2.9-4.4,16-6.5,23.9c-1.1,4-2,7.5-2.6,9.7
			c-1.8,6.6-7.1,15.1-22,18.6c-6.1,1.4-53.3,8-58.3,8.5c-8.9,0.9-14.3-5.3-16.6-7.9c-0.3-0.3-0.5-0.6-0.7-0.8c-0.5-0.5-1-1-1.4-1.5
			c-0.2,0.2-0.5,0.4-0.8,0.6l-0.3,0.2c-3.2,2.1-21.7,15.7-29.3,21.4c-1.6,1.3-3.5,2.7-5.7,4.3c-7.8,5.7-18.4,13.5-27.4,23.7
			c-14.8,16.4-13.4,21.6-10.2,26.2c6.2,9,11.4,9.4,17.1,9c5.5-0.4,38.5-5.7,54.4-8.2c7.9-1.3,12.1-2,13.4-2.1
			c8.9-1.2,13.8,3.6,17,6.8l0.3,0.3c3.1,3.1,6.3,6.5,12.7,13.3c5.7,6.1,14.2,12.7,20.2,16.9c2.4,1.7,19.6,12.9,37.9,24.8
			c30.8,20.1,69.1,45.1,75.7,49.8c5.5,4,8.4,2.9,12.1,1.6l1-0.4c1.7-0.6,8.7-3.6,14.4-6c10-4.3,16.3-6.9,19-7.8
			c0.3-0.1,0.6-0.2,1-0.3c5.5-1.9,22.4-7.6,35.9,5.9c6.5,6.5,9.4,15.2,8.2,24.4c-0.9,6.8-4.1,13.6-8.4,17.9l-63.8,63.8
			c-13.1,13.1-20.3,31.9-21.3,36.9c-1.3,6.5-4.2,22.8-4.8,29.5C263.2,472.2,263.4,472.7,264.4,473.7L264.4,473.7z"/>
	</g>
</g>
</svg>
