<svg width="100" height="100" viewBox="0 0 100 100" fill="none" xmlns="http://www.w3.org/2000/svg">
<g clip-path="url(#clip0_429_1543)">
<path d="M78.2413 58.9245L77.5167 59.5728L74.5228 59.1152L74.2939 56.1213L74.9804 55.4729L75.2283 58.5049L78.2413 58.9245Z" fill="white"/>
<path d="M76.8306 60.2402L76.1441 60.8885L73.1312 60.4309L72.9023 57.3988L73.5888 56.7505L73.8177 59.7825L76.8306 60.2402Z" fill="white"/>
<path d="M96.5675 49.5233L53.4707 92.6201C51.3921 94.6987 49.1419 94.3173 47.8452 93.0015C46.7582 91.9146 46.3959 90.8085 46.5485 89.016C46.682 87.5477 47.254 84.3631 47.521 82.9901C47.8261 81.4836 49.5233 77.1167 52.6125 74.0465L64.7788 61.8803C64.9505 61.7086 65.923 60.1831 64.817 59.077C64.0351 58.2952 63.1198 58.3906 61.804 58.8482C61.7087 58.8864 61.6324 58.9054 61.5561 58.9245C61.1747 59.0389 59.4966 59.7636 58.2571 60.2784C56.6553 60.9459 55.6637 61.3845 55.2441 61.5179L55.1106 61.5942C54.1762 61.9375 52.0023 62.7193 49.3517 60.8124C48.1694 59.9542 40.5988 55.0153 35.0687 51.4111C30.8543 48.6461 28.2228 46.9489 27.746 46.6057C27.1167 46.1671 24.9238 44.5843 23.3029 42.8681C22.1206 41.6095 21.5103 40.9802 20.9573 40.4081L20.9001 40.3509C20.8238 40.2746 20.7476 40.1983 20.6713 40.1221C20.2899 40.1793 19.3746 40.3318 18.3448 40.4844C13.5584 41.2472 8.77196 42.0099 7.64687 42.0862C5.89248 42.2197 3.27997 42.0099 1.04885 38.7681C-1.73528 34.7445 1.65907 30.9878 3.27997 29.1762C5.26319 26.9451 7.57059 25.2479 9.07708 24.1419C9.47753 23.8558 9.82078 23.5889 10.0878 23.3791L10.1068 23.36C11.518 22.2922 15.0839 19.6796 15.8658 19.1457C16.7239 18.5355 17.5248 18.1541 18.6499 18.2304C19.8513 18.3066 20.5378 19.1076 20.9001 19.5462C20.9573 19.6224 21.0145 19.6796 21.0717 19.7369C21.1671 19.8322 21.2815 19.9466 21.3959 20.0801C21.4531 20.1564 21.5294 20.2327 21.6057 20.3089C23.3029 20.0992 31.2357 18.9741 32.0176 18.8025C32.6087 18.669 33.3334 18.3829 33.4669 17.8871C33.5813 17.4676 33.7529 16.8192 33.9627 16.0565C34.6301 13.5393 35.1259 11.7277 35.2784 11.2319C35.6789 10.0115 37.6431 7.7422 39.9695 7.7422C41.6476 7.7422 48.9131 9.64914 50.0954 10.1259C51.0489 10.5073 53.4897 10.9268 54.119 10.8696C54.7102 10.8124 56.8841 10.0305 59.0961 8.86729C59.9543 8.40963 60.6789 8.02824 61.3082 7.66592C62.2426 7.15105 62.9672 6.75059 63.6347 6.44548C65.8277 5.4348 69.0504 5.2441 71.5103 7.7422C73.7224 9.99239 90.7132 29.0809 90.8658 29.2716C91.5714 30.0725 91.9146 31.1022 91.8193 32.132C91.743 32.952 91.3235 34.1915 89.7979 35.3356C89.5119 35.5454 89.1305 35.8314 88.6728 36.1556C86.4798 37.7575 82.418 40.7132 79.7483 43.3448C79.1572 43.9359 78.833 44.5271 78.833 45.0229C78.833 45.328 78.9665 45.614 79.2144 45.8429C79.4813 46.0908 80.2251 46.5866 81.1022 45.7094L88.6919 38.1198C91.3235 35.4882 95.5187 36.1938 97.8261 38.4821C100.553 41.209 100.706 45.1755 98.1884 47.7308C97.7689 48.3219 96.7773 49.3326 96.5675 49.5233ZM50.4196 90.3318C50.5149 90.2746 50.6484 90.1793 50.8391 90.0076L93.936 46.9108C94.3746 46.4722 95.1755 45.6522 95.4234 45.3471L95.5378 45.2327C96.7582 44.0122 96.3006 42.2769 95.2136 41.1899C94.3555 40.3318 92.4295 39.7597 91.3616 40.8276L83.772 48.4172C81.4646 50.7246 78.4707 50.267 76.6972 48.627C75.7056 47.6926 75.1526 46.4531 75.1335 45.1182C75.1145 44.0504 75.4577 42.4485 77.0977 40.8086C77.1167 40.7895 77.1358 40.7704 77.1549 40.7513C80.0153 37.9291 84.2296 34.8589 86.4989 33.1999C86.9375 32.8757 87.2998 32.6087 87.5858 32.3989C87.9863 32.0938 88.1007 31.9031 88.1389 31.8269L88.1198 31.8078C87.9482 31.6171 70.9955 12.5668 68.8788 10.4119C67.5248 9.03892 65.8658 9.59193 65.2174 9.87797C64.6644 10.1259 63.9779 10.5073 63.1198 10.984C62.4714 11.3463 61.7468 11.7468 60.8505 12.2044C58.8101 13.2723 55.9497 14.4928 54.4814 14.6263C53.013 14.7597 49.9619 14.1114 48.7224 13.6346C47.7308 13.2342 41.0946 11.5561 39.9886 11.5179C39.7025 11.5561 39.0161 12.1663 38.8254 12.5095C38.6537 13.0626 37.9863 15.5607 37.5858 17.0671C37.3761 17.8299 37.2045 18.4973 37.09 18.9169C36.7468 20.1755 35.7361 21.7964 32.8948 22.4638C31.7315 22.7308 22.7308 23.9893 21.7773 24.0847C20.0801 24.2563 19.0504 23.074 18.6118 22.5782C18.5546 22.521 18.5164 22.4638 18.4783 22.4256C18.3829 22.3303 18.2876 22.2349 18.2113 22.1396C18.1732 22.1777 18.116 22.2159 18.0588 22.254L18.0016 22.2922C17.3913 22.6926 13.8635 25.2861 12.4142 26.373C12.1091 26.6209 11.7468 26.8879 11.3273 27.193C9.83985 28.28 7.81849 29.7674 6.10225 31.7124C3.27997 34.8398 3.54695 35.8314 4.15717 36.7086C5.33947 38.4249 6.33108 38.5012 7.41804 38.4249C8.46685 38.3486 14.7598 37.3379 17.7918 36.8612C19.2983 36.6133 20.0992 36.4798 20.3471 36.4607C22.0443 36.2319 22.9787 37.1472 23.5889 37.7574L23.6461 37.8147C24.2373 38.4058 24.8475 39.0542 26.0679 40.3509C27.1549 41.5141 28.7758 42.7727 29.9199 43.5736C30.3776 43.8978 33.6575 46.0336 37.1472 48.3028C43.0206 52.1358 50.3242 56.9031 51.5828 57.7994C52.6316 58.5622 53.1846 58.3524 53.8902 58.1045L54.0809 58.0282C54.4051 57.9138 55.7399 57.3417 56.8269 56.8841C58.7338 56.0641 59.9352 55.5683 60.4501 55.3967C60.5073 55.3776 60.5645 55.3585 60.6408 55.3394C61.6896 54.9771 64.9123 53.8902 67.4867 56.4645C68.7262 57.7041 69.2792 59.3631 69.0504 61.1175C68.8788 62.4142 68.2685 63.7109 67.4486 64.5309L55.2823 76.6972C52.7842 79.1953 51.4112 82.7803 51.2205 83.7338C50.9726 84.9733 50.4196 88.0816 50.3051 89.3593C50.1907 90.0458 50.2289 90.1411 50.4196 90.3318Z" fill="white"/>
</g>
<defs>
<clipPath id="clip0_429_1543">
<rect width="100" height="100" fill="white"/>
</clipPath>
</defs>
</svg>
