<?xml version="1.0" encoding="utf-8"?>
<!-- Generator: Adobe Illustrator 28.2.0, SVG Export Plug-In . SVG Version: 6.00 Build 0)  -->
<svg version="1.1" id="uuid-e8ff0f68-d994-4e8b-b99b-66d0a3265913"
	 xmlns="http://www.w3.org/2000/svg" xmlns:xlink="http://www.w3.org/1999/xlink" x="0px" y="0px" viewBox="0 0 524.4 524.4"
	 style="enable-background:new 0 0 524.4 524.4;" xml:space="preserve">
<style type="text/css">
	.st0{fill:none;}
	.st1{fill:#241758;}
</style>
<g id="uuid-51b92da5-5a21-4c57-bdc3-dca1c7811998">
	<rect class="st0" width="524.4" height="524.4"/>
	<g id="uuid-05396778-7b77-4a47-8f03-aa116410787d">
		<g>
			<polygon class="st1" points="359.4,203.7 354.3,203.5 344.7,190.8 354.9,178.7 359.8,178.7 349.6,191 			"/>
			<polygon class="st1" points="349.3,203.4 344.3,203.4 334.7,190.6 345,178.4 350,178.4 339.7,190.7 			"/>
		</g>
	</g>
	<path class="st1" d="M523,144.5c-2.1-5.1-7.8-17.7-10.6-22.3c-5.8-9.3-15.6-12-26.3-7.2c-5.3,2.4-24.1,10.4-39.1,16.9
		c-10.5,4.5-20.4,8.8-23.1,10c-5.4,2.4-12.9,4.6-16.8,5.2c-4.7,0.8-10,1-12.1,1.1c-8.9,0.3-26.9,0.7-42.8,1.1l-0.5,0
		c-11.9,0.3-22.1,0.5-26.6,0.6c-6.7,0.2-14.9-1.3-22.9-2.7c-3.2-0.6-6.4-1.2-9.7-1.7c-2.9-0.4-6.6-1.1-10.9-1.9
		c-12.3-2.3-29-5.5-43.2-5.5c-18.6,0-60.5,5.6-70.9,7.4c-11.5,2-29.2,8.3-31.1,9c-8.5,3-9.6,9.7-10.4,14.3c-0.1,0.7-0.2,1.4-0.4,2.2
		c-1,4.7-1.3,6.2-5.7,8.2c-2.2,1-4.3,2-6.3,2.9l-0.2,0.1c-6,2.7-10.7,4.9-13.8,7.1c-4.4,3.1-10,8.1-13.8,19.7
		c-3.5,10.4-33.7,93.9-35.6,98.2c-3.9,9.1,0.3,19.1,1.1,21c0.1,0.3,0.3,0.7,0.5,1.1c3,6.5,1.9,7.5,1.3,8
		c-3.1,2.6-10.6,9.6-19.4,17.8l-0.1,0.1c-9.7,9-24.4,22.7-26.8,24.4C0.8,383.7-1.7,393,1.3,401c2.5,6.7,8.3,10.8,15.2,10.8
		c0.6,0,1.3,0,1.9-0.1c6.4-0.7,37.5-5.9,58.1-9.4c7.7-1.3,15-2.5,17.1-2.8l1.6-0.2c7.2-1.1,20.7-3.3,33.8-1.8
		c12,1.3,22.6,3.2,29.6,4.4c1.8,0.3,3.4,0.6,4.7,0.8c6.9,1.1,21.2,3.5,29-12.4c5.4-10.9,7.3-15,9.2-22.4l0.2-0.7
		c1.9-7.2,4.7-18,1.2-32.8c-1.8-7.7-4.9-19.2-7.4-28.4l0-0.1c-1.7-6.5-3.2-12-3.6-13.8l0-0.1c-0.7-3.1-0.2-6.4,0.7-7.6
		c2.8-3.8,8.6-12.9,10.4-15.8c0.3,0.1,0.8,0.5,1.3,0.8c2.7,1.6,6.7,3.9,11.6,4.1c2.1,0.1,22.4-0.7,86.7-3.3l0.2,0
		c15.3-0.6,29.9-1.2,32.3-1.3c4.9,9.9,12.7,8.2,16,7c1.7-0.7,6.8-3,15.6-7.1l0.1-0.1c7.5-3.5,16-7.4,19.9-9
		c7.4-3.1,24.2-11.8,35.2-22.1c7-6.5,26.4-26.9,38.1-39.1c4.4-4.6,8.5-8.9,9.3-9.7c1.8-1.8,8.6-7,17.5-11.1l5.3-2.4
		c12.3-5.6,20.6-9.4,22.8-10.6C527.2,158.1,524.7,148.3,523,144.5L523,144.5z M395.6,164.2L395.6,164.2
		C395.6,164.2,395.6,164.2,395.6,164.2L395.6,164.2c2.4-0.1,8.5-0.4,14-1.3c5-0.8,14-3.3,20.9-6.4c2.5-1.1,11.9-5.2,22.8-9.8l0.1,0
		c15.9-6.8,33.9-14.6,39.4-17c4.3-1.9,5.1-0.6,6,1c1.7,2.8,6.3,12.6,9.2,19.5c-0.2,0.1-0.4,0.3-0.7,0.4c-2,1.1-13.9,6.5-21.8,10.1
		l-5.4,2.4c-10.6,4.9-19,11.3-22.1,14.3c-0.9,0.9-3.8,3.9-9.7,10.1c-11.5,12-30.7,32.1-37.4,38.4c-8.7,8.2-23,15.9-30.5,19.1
		c-4.1,1.8-12.8,5.8-20.4,9.3c-4,1.9-8.5,3.9-11.5,5.3c-2.5-4.7-6.7-7-12.6-6.7l-0.1,0c-0.1,0-0.3,0-0.4,0c-0.8,0-7.8,0.3-33.5,1.3
		c-30.4,1.2-81.2,3.3-85.4,3.3c-0.8,0-3.1-1.4-4.1-1.9c-0.8-0.5-1.6-0.9-2.4-1.3c-8.4-4.2-16.1-2.1-20.5,5.5
		c-1.5,2.4-7.5,11.8-10,15.2c-4.7,6.3-4.8,15.2-3.4,20.8c0.5,2.1,1.9,7.4,3.7,14.2l0.1,0.2c2.5,9.1,5.5,20.5,7.3,28
		c2.6,10.8,0.4,19-1.1,25l-0.2,0.7c-1.5,5.9-3.2,9.3-8.1,19.3c-2.2,4.5-4.6,4.8-12,3.6c-1.3-0.2-2.8-0.5-4.6-0.8
		c-7.2-1.2-18.1-3.1-30.5-4.5c-15.3-1.7-30.1,0.6-38.1,1.9l-1.5,0.2c-2.1,0.3-9.1,1.5-17.3,2.9c-19.2,3.2-51.2,8.6-57.1,9.2
		c-0.1,0-0.2,0-0.2,0c0-0.1-0.1-0.2-0.1-0.3c-0.5-1.2-0.2-2.6,0-3c3.3-2.4,13-11.4,28.5-25.8c8.3-7.7,16.1-15,18.9-17.3
		c4.8-4.1,7-9.8,6.2-16.4c-0.5-4.5-2.3-8.3-3.3-10.6c-0.1-0.3-0.2-0.5-0.3-0.7l-0.1-0.1c-1.1-2.4-1.7-6.4-1-8.1
		c2.3-5.4,33-90.2,36.1-99.4c2.4-7.4,5.2-9.8,7.7-11.5c1.9-1.3,6.7-3.5,11.3-5.6l0.3-0.1c2-0.9,4.2-1.9,6.3-2.9
		c11.7-5.5,13.3-13.6,14.5-19.5c0.2-1,0.4-2,0.5-2.8c0.1-0.6,0.2-1.3,0.3-1.8c6.8-2.4,20-6.7,28.1-8.2c9.8-1.7,50.7-7.2,68.1-7.2
		c12.6,0,28.5,3,40.2,5.2c4.5,0.8,8.3,1.6,11.4,2c3,0.5,6.2,1,9.2,1.6c8.8,1.6,17.9,3.3,26.3,3c4.5-0.2,15.3-0.4,26.8-0.6
		C368.5,164.9,386.6,164.5,395.6,164.2L395.6,164.2z"/>
</g>
</svg>
