<svg width="100" height="100" viewBox="0 0 100 100" fill="none" xmlns="http://www.w3.org/2000/svg">
<g clip-path="url(#clip0_429_1566)">
<path d="M77.8989 79.5003L76.9264 79.4621L75.0957 77.0403L77.0408 74.7329L77.9752 74.752L76.0301 77.0975L77.8989 79.5003Z" fill="white"/>
<path d="M75.9726 79.4622L75.0191 79.4431L73.1885 77.0213L75.1526 74.6758L76.1061 74.6949L74.1419 77.0404L75.9726 79.4622Z" fill="white"/>
<path d="M26.545 72.3875C23.3223 72.3875 20.6907 71.8535 18.5359 70.7666C13.9783 68.4592 10.4123 63.3486 9.6114 58.0854C9.30629 56.045 7.38028 44.1457 7.01796 41.9908C5.28264 41.762 4.82498 40.389 4.71056 39.569C4.57707 38.5774 4.38638 37.7574 3.85244 36.7277C3.49012 36.0412 2.72734 34.2105 1.67852 31.7124C1.14458 30.4348 0.591566 29.138 0.439011 28.8139C0.0194839 27.9748 -0.304696 26.1441 0.45808 24.5614C0.839469 23.7795 1.65945 22.7689 3.3757 22.4065C6.1789 21.8344 12.5672 20.6712 13.4443 20.5377C14.169 20.4424 15.8852 20.1945 17.1629 22.1586C17.3726 22.5019 17.9638 23.3791 18.7075 24.4851C20.4428 27.0976 22.8265 30.6636 23.3986 31.6171C24.1423 32.8756 26.5641 35.8505 29.3482 38.6537C32.1705 41.5332 45.2331 54.0427 45.7861 54.5766C45.9005 54.691 45.9958 54.7864 46.0721 54.8817C46.1103 54.9389 46.1865 54.9962 46.2247 55.0343C46.2819 55.0343 46.3772 55.0152 46.5679 54.9771C48.0744 54.5385 49.2758 54.3097 51.0683 55.0534C52.5176 55.6636 53.2231 56.5026 53.5855 56.9603C53.6236 57.0175 53.6617 57.0557 53.6999 57.1129C53.9669 57.3798 54.005 57.3798 54.0813 57.3798C54.4245 57.3798 63.3681 57.5515 76.9646 57.8375C86.0988 58.0282 94.6991 58.1998 95.3665 58.1998C96.4535 58.2189 97.5786 58.6956 98.4749 59.5156C99.4665 60.4309 100.019 61.6704 100.019 62.9862C100.019 65.656 98.3795 68.3447 95.9386 69.6605C92.735 71.4149 87.9485 72.254 81.3124 72.254C78.9287 72.2349 77.8418 72.2349 77.8418 72.2349H38.7495C38.0058 72.2349 37.4146 72.0061 37.0141 71.5865C36.6518 71.2052 36.5374 70.7666 36.4993 70.4042C36.4611 70.4233 36.4039 70.4424 36.3467 70.4614C35.4505 70.8428 32.7235 72.0442 28.5283 72.2921C27.8418 72.3684 27.1743 72.3875 26.545 72.3875ZM7.47562 39.2448C8.63886 39.283 9.40163 39.9313 9.68768 41.0564C9.84023 41.6857 12.1667 56.2929 12.3765 57.6659C13.0248 62.0328 16.0759 66.3806 19.7945 68.2875C21.8921 69.3364 24.7525 69.775 28.3376 69.5461C32.0561 69.3173 34.4398 68.2875 35.2216 67.9443C35.2979 67.9061 35.3551 67.8871 35.4123 67.868C36.0035 67.6201 36.709 67.3722 37.5099 67.3722C37.9867 67.3722 38.4062 67.5629 38.7304 67.8871C39.2071 68.3829 39.2834 69.0312 39.2834 69.4889H77.8227C77.8418 69.4889 78.9096 69.4889 81.3124 69.508C87.3765 69.508 91.8387 68.7452 94.6038 67.2387C96.1484 66.3997 97.2353 64.6643 97.2353 63.0053C97.2353 61.7277 95.9768 61.003 95.3284 61.003C94.661 61.003 86.0416 60.8123 76.9074 60.6407C66.4001 60.4309 54.5008 60.183 54.0813 60.183C52.8227 60.183 52.079 59.4393 51.7167 59.0961L51.6976 59.0579C51.6213 58.9817 51.545 58.8863 51.4497 58.7719C51.1446 58.4096 50.8204 58.0091 50.0004 57.6659C49.0279 57.2654 48.5511 57.3417 47.3307 57.704C45.3475 58.2761 44.4512 57.2845 44.0126 56.8078C43.9554 56.7505 43.9173 56.6933 43.8601 56.6552C43.3071 56.1213 30.2254 43.5736 27.365 40.675C24.3139 37.5667 21.854 34.5156 21.0149 33.1045C20.481 32.1891 18.021 28.5087 16.4001 26.0869C15.6564 24.9618 15.0653 24.0846 14.8364 23.7223C14.5313 23.2647 14.4169 23.2647 13.8448 23.3409C13.1011 23.4363 6.80819 24.5804 3.94778 25.1716C3.29942 25.3051 3.08966 25.5911 2.97524 25.82C2.67013 26.4492 2.86083 27.4027 2.95617 27.6125C3.1278 27.9748 3.56639 29.0045 4.25289 30.6636C5.03474 32.5324 6.00728 34.8398 6.33146 35.4882C7.07517 36.9374 7.32307 38.1388 7.47562 39.2067C7.47562 39.2067 7.47562 39.2258 7.47562 39.2448Z" fill="white"/>
</g>
<defs>
<clipPath id="clip0_429_1566">
<rect width="100" height="100" fill="white"/>
</clipPath>
</defs>
</svg>
