<svg width="100" height="100" viewBox="0 0 100 100" fill="none" xmlns="http://www.w3.org/2000/svg">
<g clip-path="url(#clip0_429_1656)">
<path d="M68.5356 38.8443L67.5631 38.8061L65.7324 36.3843L67.6775 34.0769H68.6119L66.6668 36.4224L68.5356 38.8443Z" fill="white"/>
<path d="M66.6093 38.7871H65.6559L63.8252 36.3462L65.7893 34.0198H66.7428L64.7787 36.3653L66.6093 38.7871Z" fill="white"/>
<path d="M99.7334 27.5552C99.3329 26.5827 98.246 24.18 97.712 23.3028C96.606 21.5293 94.7372 21.0144 92.6968 21.9298C91.6861 22.3874 88.1011 23.913 85.2406 25.1525C83.2384 26.0106 81.3505 26.8306 80.8356 27.0594C79.8059 27.5171 78.3757 27.9366 77.6319 28.0511C76.7357 28.2036 75.725 28.2417 75.3245 28.2608C73.6274 28.318 70.1949 28.3943 67.1628 28.4706H67.0675C64.7982 28.5278 62.8532 28.5659 61.995 28.585C60.7174 28.6231 59.1537 28.3371 57.6281 28.0701C57.0179 27.9557 56.4077 27.8413 55.7784 27.7459C55.2254 27.6697 54.5198 27.5362 53.6998 27.3836C51.3543 26.945 48.1697 26.3348 45.4618 26.3348C41.9149 26.3348 33.9249 27.4027 31.9416 27.7459C29.7487 28.1273 26.3734 29.3287 26.011 29.4622C24.3901 30.0343 24.1804 31.3119 24.0278 32.1891C24.0088 32.3226 23.9897 32.4561 23.9515 32.6086C23.7609 33.5049 23.7036 33.7909 22.8646 34.1723C22.4451 34.363 22.0446 34.5537 21.6632 34.7253L21.6251 34.7444C20.4809 35.2593 19.5847 35.6788 18.9935 36.0983C18.1544 36.6895 17.0866 37.643 16.3619 39.855C15.6945 41.8382 9.93553 57.7612 9.57321 58.5812C8.82951 60.3165 9.63042 62.2234 9.78298 62.5858C9.80205 62.643 9.84018 62.7192 9.87832 62.7955C10.4504 64.035 10.2406 64.2257 10.1262 64.3211C9.53507 64.8169 8.10487 66.1517 6.42676 67.7154L6.40769 67.7345C4.55796 69.4507 1.75475 72.0633 1.29709 72.3874C0.152923 73.1693 -0.323813 74.9427 0.24827 76.4683C0.725005 77.7459 1.83103 78.5278 3.14682 78.5278C3.26124 78.5278 3.39472 78.5278 3.50914 78.5087C4.72958 78.3752 10.6602 77.3836 14.5885 76.7162C16.0568 76.4683 17.4489 76.2395 17.8493 76.1822L18.1544 76.1441C19.5274 75.9343 22.1018 75.5148 24.5999 75.8009C26.8882 76.0488 28.9096 76.4111 30.2445 76.6399C30.5877 76.6971 30.8928 76.7543 31.1407 76.7925C32.4565 77.0022 35.1834 77.4599 36.6708 74.4279C37.7006 72.3493 38.0629 71.5674 38.4252 70.1563L38.4634 70.0228C38.8257 68.6498 39.3596 66.5903 38.6922 63.7681C38.349 62.2997 37.7578 60.1067 37.2811 58.3523V58.3333C36.9569 57.0938 36.6708 56.0449 36.5946 55.7017V55.6826C36.4611 55.0915 36.5564 54.4622 36.7281 54.2334C37.262 53.5087 38.368 51.7734 38.7113 51.2204C38.7685 51.2395 38.8638 51.3157 38.9592 51.3729C39.4741 51.6781 40.2368 52.1166 41.1712 52.1548C41.5717 52.1739 45.4428 52.0213 57.7044 51.5255H57.7425C60.6602 51.4111 63.4443 51.2967 63.902 51.2776C64.8364 53.1655 66.3238 52.8413 66.9531 52.6125C67.2773 52.479 68.2498 52.0404 69.9279 51.2585L69.947 51.2395C71.3772 50.572 72.9981 49.8283 73.7418 49.5232C75.1529 48.9321 78.3566 47.273 80.4542 45.3089C81.7891 44.0694 85.4885 40.1792 87.7197 37.8527C88.5587 36.9755 89.3406 36.1556 89.4931 36.003C89.8364 35.6597 91.1331 34.6681 92.8303 33.8863L93.8409 33.4286C96.1865 32.3607 97.7692 31.6361 98.1888 31.4073C100.534 30.1487 100.058 28.2799 99.7334 27.5552ZM75.439 31.3119C75.8966 31.2929 77.0599 31.2356 78.1087 31.064C79.0622 30.9115 80.7784 30.4347 82.0942 29.8436C82.5709 29.6338 84.3634 28.852 86.442 27.9748H86.4611C89.4931 26.6781 92.9256 25.1906 93.9744 24.733C94.7944 24.3707 94.947 24.6186 95.1186 24.9237C95.4428 25.4576 96.32 27.3264 96.873 28.6422C96.8348 28.6613 96.7967 28.6994 96.7395 28.7185C96.3581 28.9282 94.0888 29.958 92.5824 30.6445L91.5526 31.1022C89.5313 32.0366 87.9294 33.257 87.3383 33.8291C87.1666 34.0007 86.6136 34.5728 85.4885 35.7551C83.2956 38.0434 79.6342 41.8764 78.3566 43.0777C76.6975 44.6414 73.9706 46.1098 72.5404 46.72C71.7586 47.0633 70.0995 47.826 68.6503 48.4935C67.8875 48.8558 67.0294 49.2372 66.4573 49.5041C65.9805 48.6079 65.1796 48.1693 64.0545 48.2265H64.0355C64.0164 48.2265 63.9782 48.2265 63.9592 48.2265C63.8066 48.2265 62.4718 48.2837 57.5709 48.4744C51.7738 48.7032 42.0866 49.1037 41.2856 49.1037C41.1331 49.1037 40.6945 48.8367 40.5038 48.7414C40.3512 48.646 40.1987 48.5697 40.0461 48.4935C38.4443 47.6925 36.976 48.093 36.1369 49.5423C35.8509 49.9999 34.7067 51.7925 34.23 52.4408C33.3337 53.6422 33.3146 55.3394 33.5816 56.4073C33.677 56.8077 33.9439 57.8184 34.2872 59.1151L34.3062 59.1533C34.783 60.8886 35.3551 63.0625 35.6983 64.4927C36.1941 66.5522 35.7746 68.1159 35.4885 69.2601L35.4504 69.3935C35.1644 70.5186 34.8402 71.167 33.9058 73.0739C33.4863 73.9321 33.0286 73.9893 31.6175 73.7604C31.3696 73.7223 31.0835 73.6651 30.7403 73.6079C29.3673 73.379 27.2887 73.0167 24.9241 72.7498C22.0065 72.4256 19.1842 72.8642 17.6586 73.1121L17.3726 73.1502C16.9721 73.2074 15.6373 73.4363 14.0736 73.7032C10.4123 74.3134 4.31005 75.3432 3.18496 75.4576C3.16589 75.4576 3.14682 75.4576 3.14682 75.4576C3.14682 75.4385 3.12775 75.4195 3.12775 75.4004C3.0324 75.1716 3.08961 74.9046 3.12775 74.8283C3.75704 74.3707 5.60677 72.6544 8.56253 69.9084C10.1453 68.4401 11.6327 67.048 12.1667 66.6094C13.082 65.8276 13.5015 64.7406 13.349 63.482C13.2536 62.6239 12.9104 61.8993 12.7197 61.4607C12.7006 61.4035 12.6815 61.3653 12.6625 61.3272L12.6434 61.3081C12.4336 60.8504 12.3192 60.0877 12.4527 59.7635C12.8913 58.7337 18.7456 42.5629 19.3368 40.8085C19.7944 39.3974 20.3284 38.9397 20.8051 38.6155C21.1674 38.3676 22.0827 37.9481 22.9599 37.5476L23.0171 37.5285C23.3985 37.3569 23.8181 37.1662 24.2185 36.9755C26.4496 35.9267 26.7548 34.3821 26.9836 33.257C27.0217 33.0663 27.0599 32.8756 27.0789 32.7231C27.098 32.6086 27.1171 32.4752 27.1361 32.3798C28.4329 31.9221 30.95 31.1022 32.4946 30.8161C34.3634 30.4919 42.1628 29.4431 45.4809 29.4431C47.8837 29.4431 50.9157 30.0152 53.1468 30.4347C54.0049 30.5873 54.7296 30.7398 55.3207 30.8161C55.8928 30.9115 56.503 31.0068 57.0751 31.1212C58.7532 31.4263 60.4885 31.7505 62.0904 31.6933C62.9485 31.6552 65.008 31.617 67.201 31.5789C70.2711 31.4454 73.7227 31.3691 75.439 31.3119Z" fill="white"/>
</g>
<defs>
<clipPath id="clip0_429_1656">
<rect width="100" height="100" fill="white"/>
</clipPath>
</defs>
</svg>
