<svg width="100" height="100" viewBox="0 0 100 100" fill="none" xmlns="http://www.w3.org/2000/svg">
<g clip-path="url(#clip0_429_1446)">
<path d="M84.9974 37.2698L85.6115 38.0325L84.9752 40.9992L81.9635 41.0441L81.3535 40.3238L84.3975 40.2586L84.9974 37.2698Z" fill="white"/>
<path d="M86.2213 38.7527L86.8414 39.4891L86.2051 42.4558L83.151 42.5049L82.541 41.7846L85.5951 41.7355L86.2213 38.7527Z" fill="white"/>
<path d="M95.3682 77.7071C93.3216 77.7071 91.9053 76.9937 91.0383 75.5261C90.9609 75.3949 90.8287 75.1696 90.6586 74.88C88.6477 71.4552 87.5091 69.5605 87.2743 69.2488C87.1509 69.0877 87.0546 68.9457 86.9699 68.8204C86.7444 68.4877 86.6839 68.3984 86.2328 68.1772C85.7838 67.9618 85.179 67.9668 84.5386 67.9711C84.2959 67.9731 84.0447 67.9748 83.7904 67.9647C82 67.9204 79.6703 66.7811 78.9726 63.7112L78.8417 63.1257C78.343 60.8865 78.2511 60.5686 77.5181 59.7422C77.0094 59.1743 76.245 59.1263 74.9383 59.091C73.3036 59.0468 71.0645 58.9861 69.3923 56.8399C67.9995 55.0774 67.9568 52.7716 69.271 49.9938C70.1584 48.1019 69.9766 46.5327 68.7706 45.6931C67.3537 44.7068 65.4885 43.7099 62.3439 43.7975C59.4243 43.886 56.9049 45.8057 56.2044 46.6678C55.1443 47.968 51.3443 52.5125 51.1088 52.7905L51.0729 52.8313C50.8427 53.0825 50.2313 53.7498 49.1162 53.7945C48.8558 53.8049 46.8878 53.934 45.3064 54.0378C43.7919 54.1373 42.8544 54.1986 42.6719 54.2073C41.242 54.2738 40.1617 53.3893 39.9126 51.95C39.8642 51.6698 39.6616 50.5902 39.396 49.1824C34.0344 47.2473 18.0749 41.4356 15.0979 40.1163C11.4663 38.5067 5.64175 34.3815 4.37272 33.3504C4.26355 33.262 4.14093 33.1653 4.01005 33.0618C2.51039 31.8771 0 29.8941 0 27.1117C0 25.5106 0.61059 23.4315 3.5192 22.6195C4.5036 22.3448 5.6554 22.2927 7.43662 22.2927C9.16595 22.2927 10.5605 23.2078 11.2654 24.8043C11.5872 25.4944 13.0511 28.8702 13.874 30.9972C15.2032 34.4403 19.3422 38.5867 26.6341 38.9439C31.5298 39.1898 32.9641 37.2795 34.0143 35.8858L34.1759 35.6723C34.5708 35.1541 35.9881 32.9136 36.8348 31.5748C37.2836 30.8655 37.6098 30.3499 37.7579 30.1269C38.514 28.9591 39.9564 28.5791 41.118 29.2433C42.1441 29.8301 42.7901 31.1998 42.0388 32.6821C41.8787 32.9947 41.6936 33.3862 41.4974 33.8008C41.1641 34.5055 40.8195 35.234 40.4918 35.8105C40.1772 36.3643 40.0529 37.4586 40.2024 38.356C40.3098 39.0009 41.0135 42.7214 41.634 46.0039C41.7046 46.3767 41.7738 46.7424 41.8408 47.0971C41.9337 47.1302 41.999 47.1531 42.0344 47.1652C42.7126 47.4013 43.0839 47.5299 44.5019 47.1878C44.9757 47.0736 46.433 46.5636 47.0484 46.2584L47.198 46.1802C48.319 45.595 49.854 44.7936 52.6008 42.0469C54.1347 40.5326 58.1493 37.1622 58.8262 36.703C59.4376 36.2814 60.6724 35.7674 61.9751 37.1294C62.1779 37.3414 62.3155 37.4741 62.4358 37.5895C62.4671 37.56 62.5002 37.5287 62.5328 37.4977C63.2906 36.7784 64.8674 35.2817 67.9536 35.2817C71.5514 35.2817 75.1567 38.1928 77.151 40.6858L77.1666 40.7058C78.9655 43.0405 79.5682 43.7672 79.5742 43.7742L79.5836 43.7858C80.3502 44.7268 98.3643 66.8435 99.0227 67.7216C99.9671 68.9808 100.252 70.908 99.7674 72.7511C98.7037 76.8465 96.7879 77.7071 95.3682 77.7071ZM84.8156 65.1804C85.6007 65.1804 86.528 65.225 87.4501 65.6676C88.4933 66.1788 88.8952 66.6893 89.2792 67.2562C89.3419 67.3488 89.4076 67.4469 89.4885 67.5524C89.8027 67.9621 90.8052 69.6207 93.0638 73.4678C93.2322 73.7543 93.3629 73.9771 93.4397 74.1072C93.6306 74.4301 93.9187 74.9177 95.3682 74.9177C95.8085 74.9177 96.5181 74.1654 97.0687 72.0456C97.3743 70.8843 97.1388 69.8586 96.7914 69.3952C96.2724 68.7035 82.6409 51.9561 77.4257 45.5532C77.3597 45.4737 76.7357 44.7165 74.9649 42.4183C73.2849 40.3226 70.3775 38.071 67.9536 38.071C65.9803 38.071 65.0976 38.9089 64.4532 39.5208C64.3188 39.6482 64.192 39.7687 64.0598 39.8768C62.8903 40.8514 61.456 40.6236 60.742 39.8383C60.6832 39.7735 60.6186 39.7116 60.5208 39.6178C60.4197 39.5209 60.2896 39.3961 60.1176 39.2209C59.0961 40.0277 55.9242 42.6856 54.5667 44.0255C51.524 47.0684 49.6976 48.0219 48.4889 48.6529L48.3065 48.7479C47.4716 49.1654 45.803 49.7433 45.1563 49.8993C43.9249 50.1966 43.1043 50.2354 42.4143 50.1395C42.5291 50.7512 42.6123 51.1994 42.6505 51.4148C43.0153 51.3929 44.0848 51.3226 45.1236 51.2545C47.122 51.1233 48.5838 51.0279 48.9567 51.0095C48.9674 50.9989 48.9813 50.9846 48.9988 50.9658C49.3685 50.5269 53.0471 46.1262 54.0411 44.907C55.2152 43.4619 58.4874 41.1237 62.263 41.0093C66.2381 40.8984 68.6796 42.231 70.3642 43.4039C73.1867 45.3688 72.9538 48.7105 71.7945 51.1824C70.6805 53.5367 71.1424 54.5558 71.5867 55.118C72.4158 56.182 73.3802 56.2585 75.0139 56.3027C76.4605 56.3419 78.2607 56.3906 79.6003 57.8862C80.8451 59.2894 81.0556 60.235 81.5643 62.5193L81.6932 63.0964C82.1353 65.0414 83.5802 65.1703 83.8654 65.1764L83.8936 65.1772C84.0833 65.185 84.2944 65.1837 84.5177 65.1819C84.6144 65.1812 84.7137 65.1804 84.8156 65.1804ZM27.1884 41.7522C31.4072 43.3116 35.8699 44.9383 38.7942 45.9983C38.1727 42.7112 37.5579 39.4552 37.451 38.8146C37.2682 37.7178 37.3359 36.5356 37.6153 35.5437C37.0637 36.4003 36.6307 37.0529 36.3936 37.3641L36.2419 37.5644C35.1053 39.0733 33.0229 41.8357 27.1884 41.7522ZM7.43662 25.082C5.93907 25.082 4.94083 25.1187 4.26913 25.3062C3.33201 25.5677 2.78945 25.947 2.78945 27.1117C2.78945 28.5429 4.63583 30.0016 5.73919 30.8731C5.87949 30.9839 6.01076 31.0876 6.12972 31.184C7.20311 32.0561 11.0219 34.7496 14.1571 36.5086C12.9559 35.2654 11.9558 33.7731 11.2722 32.0027C10.4788 29.9519 9.01835 26.5821 8.73237 25.9718L8.71719 25.9387C8.38527 25.1794 7.85848 25.082 7.43662 25.082Z" fill="white"/>
</g>
<defs>
<clipPath id="clip0_429_1446">
<rect width="100" height="100" fill="white"/>
</clipPath>
</defs>
</svg>
