<?xml version="1.0" encoding="utf-8"?>
<!-- Generator: Adobe Illustrator 28.2.0, SVG Export Plug-In . SVG Version: 6.00 Build 0)  -->
<svg version="1.1" id="uuid-6b8ef73f-59dc-466c-80f1-c767afc37668"
	 xmlns="http://www.w3.org/2000/svg" xmlns:xlink="http://www.w3.org/1999/xlink" x="0px" y="0px" viewBox="0 0 524.4 524.4"
	 style="enable-background:new 0 0 524.4 524.4;" xml:space="preserve">
<style type="text/css">
	.st0{fill:#241758;}
	.st1{fill:none;}
</style>
<g id="uuid-741ea929-6ce4-4a13-8577-2ab1c48fabf2">
	<path class="st0" d="M283.9,427.2c-14.8,0-27.5,0-39-0.1c-20.8-0.1-34.1-0.4-41.6-0.5c-8.5-0.2-12.3-0.4-16.3-0.8
		c-4.3-0.4-8.4-1-12.2-1.8c-3.9-0.8-8-1.9-12.5-3.4c-4.2-1.4-8.6-2.9-12.3-4.3c-3.5-1.3-6.8-2.5-10.6-4.2c-3.6-1.6-7.7-3.6-12.8-6.1
		c-5.3-2.6-11.3-5.6-19.1-9.9c-8.8-4.8-19.1-10.6-25.3-14.1c-6.5-3.7-10.2-6-13-7.7l-1.5-0.9c-2.4-1.5-4.1-2.5-6.6-4.1
		c-2.6-1.8-6-4.2-10.7-7.6l-0.2-0.1c-4.6-3.3-10.9-7.9-16.5-11.5c-6.3-4.2-11.2-7-13.5-8.3c-3.4-1.9-5.1-2.7-6.7-3.3
		c-1.1-0.4-2.3-0.8-3.3-1.1c-0.8-0.2-1.5-0.5-2.1-0.7c-1.8-0.6-3.1-1.3-4.2-2.1c-1.2-0.9-2.1-1.9-2.7-3c-0.5-1-0.9-2-1.1-3.2
		c-0.3-1.7-0.1-2.8,1.2-8.3c1.1-4.4,3-12.2,4.6-18.4l0.8-3.2c1.6-6.2,2.3-9,3.5-11.7c1.2-2.8,2.9-5.1,4.3-7c1.3-1.7,2.8-3.6,5.1-5.4
		c1.7-1.4,3.6-2.5,5.7-3.7l1.9-1.2c2-1.2,4.2-2.5,6.8-3.8c3.3-1.6,7.1-3.1,9.7-4.1l2-0.7c2.2-0.8,4.3-1.6,6.5-2.6
		c2.3-1,5.1-2.4,8.6-4.2c2.8-1.5,4.9-2.6,7.4-4.1c3.5-2.1,6-3.7,7.8-5.1c2.1-1.6,3.6-3.2,5-4.8c1.4-1.5,2.8-3.2,3.8-4.6
		c0.8-1.2,1.4-2.5,2-4.2c0.6-1.6,1.1-3.2,1.5-5.1c0.4-1.6,0.9-3.8,1.2-7.1c0.3-3,0.6-7,0.8-18.5c0.1-6.8,0.3-16.3,0.4-24.7
		c0.1-6,0.2-11.7,0.3-15.8c0.2-10.2,0.3-11.6,0.6-13.5c0.2-1.6,0.6-3.9,1.1-6.1c0.5-2.1,1.2-3.9,2.3-6.2c1-2.1,2.2-4.2,3.5-6.3
		c1.1-1.7,2.7-4.2,5.1-6.7c2.4-2.6,5.1-4.7,7-6c2.4-1.7,4.8-3.2,7.5-4.4c2.6-1.2,5.4-2.3,8-3.1c2.7-0.8,5-1.2,6.6-1.5
		c2-0.3,3.5-0.5,5.5-0.6c2.2-0.1,4.7-0.1,6.8,0c2.5,0.1,4.4,0.3,6.7,0.8c2.3,0.5,5,1.3,7.5,2.2c2.3,0.8,4.5,1.8,6.8,2.9
		c2.2,1.1,4,2.1,5.9,3.3c2.1,1.3,4,2.8,5.7,4.2c1.6,1.4,3.2,3,4.7,4.7c1.3,1.5,2.3,2.8,3.4,4.5c1.2,1.8,2.2,3.5,3.1,5.3
		c0.9,1.8,1.8,3.9,2.4,5.9c0.6,1.7,1,3.3,1.3,4.9c0.3,1.7,0.5,3.2,0.7,10.8c0.1,5.1,0.3,13.2,0.4,20.4c0.1,3.5,0.1,6.8,0.2,9.6
		c0.1,7.1,0.2,10.3,0.4,12c1.9,0.1,5,0.1,6.2,0.1c12.3,0.2,29.6,0.1,52.9-0.2c30.1-0.4,76.3-1.4,108.6-2.1
		c28.6-0.7,49.1-1.2,60.8-1.7c10-0.4,12.3-0.7,14.2-1c2-0.3,3.8-0.7,5.3-1.1c1.5-0.4,3-0.9,4.6-1.6c1.7-0.7,3.3-1.5,4.8-2.4
		c1.5-0.9,2.9-1.8,4.2-2.9c1.2-1,2.4-2,3.4-3c0.9-0.9,1.7-1.9,2.3-2.8c0.7-0.9,1.2-1.9,1.5-2.6c0.3-0.7,0.5-1.4,0.6-2.1
		c0.1-0.8,0.1-1.6,0.1-2.7c-0.1-1.3-0.2-2.6-0.5-3.9c-0.3-1.5-0.7-3.1-1.3-4.5c-0.5-1.3-1.2-2.8-1.9-4.1c-0.6-1.1-1.2-2-3-4.7
		l-0.1-0.2c-1.8-2.8-4.6-6.9-6.4-9.9c-1.8-2.8-2.9-4.8-3.6-6.5c-0.9-2.1-1.1-3.5-1.3-8.3c-0.2-4.5-0.5-13.1-0.7-17.2l0-0.1
		c-0.1-2.8-0.2-4.3-0.2-4.5c0-0.6,0-1.4,0.3-2.5c0.3-1.2,0.8-2.3,1.6-3.3c0.8-1.1,1.7-1.9,2.8-2.6c1.2-0.7,2.6-1.1,4.1-1.1
		c1,0,2.2,0.1,3.2,0.4c1.4,0.3,2.6,0.9,3.8,1.7c1.2,0.8,2.3,1.9,3.5,3.4c0.8,1,1.7,2.3,3.2,4.4l1.4,2.1c0.9,1.3,2.1,2.9,3.3,4.7
		c1.8,2.5,3.8,5.4,5.8,8.2c1,1.5,2,2.9,3,4.4c2.3,3.4,4.8,6.9,7.6,10.8c2.1,3,4.4,6.2,6.8,9.5c2.2,3.1,4.5,6.2,6.7,9.3
		c4.7,6.5,9,12.7,11.8,16.9c2.9,4.3,4.3,6.6,5.5,8.9c1,2.1,1.9,4.1,2.6,6.4c0.6,1.9,1.1,3.9,1.4,5.5c0.4,1.9,0.7,3.5,0.9,6.7
		c0.1,3.1,0.1,7.5-0.2,40.9c-0.3,34.2-1,96-1.3,126.4c-0.2,21.7-0.5,33.1-0.7,34c-0.3,1.5-1,2.8-1.9,3.9c-0.7,0.9-1.6,1.7-2.8,2.6
		c-0.4,0.3-0.8,0.5-1.2,0.8c-0.4,0.3-0.9,0.6-1.3,0.9c-0.5,0.4-0.7,0.6-0.8,0.7c-0.1,0.1-0.2,0.3-0.4,0.9c-0.2,0.6-0.3,1.2-0.3,2
		c0,0.5-0.1,1.1-0.1,1.6c0,0.6,0,1.2-0.1,1.7c-0.1,1.4-0.3,2.6-0.6,3.6c-0.3,1.1-0.7,1.9-1,2.4c-1.7,3-4,3-9,3.1
		c-3.8,0.1-11.4,0.1-27.8,0.2c-27.9,0.2-93,0.6-139.8,0.8C315.4,427.1,298.6,427.2,283.9,427.2L283.9,427.2z M11.9,325.7L11.9,325.7
		c0.5,0.2,1.1,0.4,1.7,0.6c1.2,0.4,2.5,0.8,3.9,1.3c2.5,0.9,4.8,2,8.4,4c2.5,1.4,7.7,4.4,14.3,8.8c5.7,3.8,12.1,8.4,16.8,11.7
		l0.2,0.1c4.6,3.3,7.9,5.7,10.4,7.4c2.2,1.5,3.8,2.5,6.1,3.8l1.6,0.9c2.7,1.6,6.4,3.9,12.8,7.6c6.5,3.8,16.8,9.5,25,13.9
		c7.7,4.2,13.6,7.1,18.8,9.7c4.9,2.4,8.9,4.3,12.3,5.8c3.5,1.5,6.6,2.7,9.9,3.9c3.6,1.3,7.8,2.8,11.8,4.1c4.1,1.3,7.8,2.3,11.4,3.1
		c3.5,0.7,7.2,1.3,11,1.6c3.7,0.4,7.3,0.5,15.5,0.7c7.4,0.2,20.6,0.4,41.4,0.5c23,0.2,50.8,0.2,90,0c46.8-0.2,111.9-0.6,139.7-0.8
		c13.7-0.1,22.4-0.2,27-0.2c0-0.6,0.1-1.2,0.1-1.8c0.1-1.6,0.4-3,0.8-4.3c0.5-1.7,1.2-3.1,2.1-4.4c0.9-1.2,2-2.3,3.4-3.4
		c0.6-0.4,1.2-0.8,1.7-1.2c0.3-0.2,0.6-0.4,0.9-0.6c0,0,0.1,0,0.1-0.1c0.1-2.6,0.2-11.4,0.4-31.2c0.3-30.3,1-92.1,1.3-126.3
		c0.3-32.4,0.3-37.5,0.2-40.3c-0.1-2.5-0.3-3.4-0.6-4.7c-0.3-1.5-0.7-3.1-1.2-4.7c-0.5-1.7-1.1-3.1-1.8-4.6
		c-0.9-1.8-2.2-3.8-4.8-7.6c-2.8-4.1-7-10.2-11.7-16.7c-2.2-3.1-4.5-6.2-6.7-9.3c-2.4-3.3-4.7-6.6-6.8-9.5c-2.8-4-5.3-7.5-7.7-10.9
		c-1-1.5-2-2.9-3-4.3c-2-2.8-4-5.7-5.8-8.2c-1.2-1.8-2.4-3.4-3.3-4.7l-1.5-2.1c-0.4-0.6-0.8-1.1-1.1-1.6c0.2,4.4,0.4,11.8,0.6,15.8
		c0,1,0.2,3.6,0.3,4.1c0,0,0,0.1,0.1,0.1c0.5,1.1,1.4,2.7,2.8,5c1.8,2.8,4.5,6.9,6.2,9.6l0.1,0.2c1.8,2.7,2.6,3.9,3.5,5.5
		c0.7,1.3,1.7,3.3,2.6,5.6c0.7,2,1.4,4.2,1.8,6.3c0.4,1.9,0.6,3.7,0.7,5.6c0.1,1.8,0,3.4-0.2,4.9c-0.2,1.8-0.7,3.5-1.4,5.1
		c-0.6,1.5-1.5,3.1-2.7,4.7c-1,1.5-2.2,2.9-3.5,4.3c-1.4,1.4-2.9,2.8-4.6,4.1c-1.8,1.4-3.6,2.6-5.6,3.8c-1.9,1.1-3.9,2.1-6,3
		c-2.1,0.9-4,1.6-6.1,2.1c-2,0.5-4.1,1-6.6,1.4c-2.4,0.4-4.9,0.7-15.6,1.1c-11.8,0.5-32.3,1-61,1.7c-32.4,0.8-78.5,1.7-108.7,2.1
		c-23.4,0.3-40.8,0.4-53.2,0.2c-8.4-0.1-9.6-0.2-11.4-1c-1.5-0.7-2.7-1.7-3.4-2.4c-1.5-1.5-2.3-3.3-2.6-6.1c-0.2-2-0.4-4.9-0.5-14
		c-0.1-2.8-0.1-6.1-0.2-9.6c-0.1-7.2-0.3-15.3-0.4-20.3c-0.2-7.4-0.3-8.1-0.5-8.8c-0.2-1.2-0.5-2.3-1-3.5c-0.5-1.5-1.2-3.1-1.9-4.5
		c-0.7-1.3-1.4-2.6-2.3-4c-0.8-1.2-1.6-2.2-2.5-3.3c-1.1-1.3-2.3-2.5-3.5-3.5c-1.3-1.1-2.8-2.2-4.4-3.2c-1.5-1-3-1.8-4.7-2.7
		c-1.9-0.9-3.7-1.7-5.6-2.4c-2-0.7-4.2-1.4-6.1-1.8c-1.6-0.3-2.9-0.5-4.7-0.6c-1.8-0.1-4-0.1-5.8,0c-1.5,0.1-2.6,0.2-4.2,0.4
		c-1.3,0.2-3.1,0.5-5.1,1.1c-2,0.6-4.3,1.5-6.3,2.5c-2,1-3.9,2.1-5.7,3.4c-2,1.4-3.9,3.1-5.3,4.6c-1.3,1.4-2.4,2.9-3.7,4.9
		c-1.1,1.7-2.1,3.6-2.9,5.2c-0.8,1.5-1.2,2.7-1.5,4c-0.4,1.6-0.7,3.5-0.9,4.8c-0.2,1.2-0.3,2.1-0.5,12.1c-0.1,4.1-0.2,9.8-0.3,15.8
		c-0.1,8.4-0.3,18-0.4,24.8c-0.3,12-0.5,16.1-0.9,19.5c-0.3,3.1-0.8,5.7-1.5,8.6c-0.6,2.4-1.2,4.4-1.9,6.4c-0.9,2.5-2,4.6-3.2,6.5
		c-1.3,2-2.9,3.9-4.8,6c-1.7,1.9-3.7,4-6.5,6.2c-2.2,1.7-5.1,3.6-9,6c-2.6,1.6-4.9,2.9-7.9,4.4c-3.7,1.9-6.7,3.4-9.3,4.6
		c-2.5,1.1-4.7,1.9-7.1,2.8l-1.9,0.7c-2.4,0.9-5.9,2.3-8.7,3.7c-2.2,1.1-4.1,2.2-5.9,3.4l-2,1.2c-1.7,1-3.3,2-4.4,2.8
		c-1.1,0.9-1.9,1.8-3,3.3c-1.2,1.6-2.2,3-2.9,4.7c-0.8,1.8-1.4,4.3-2.8,9.9l-0.8,3.2c-1.6,6.2-3.5,13.9-4.6,18.3
		C12.3,324.1,12.1,325,11.9,325.7L11.9,325.7z"/>
	<rect class="st1" width="524.4" height="524.4"/>
	<rect class="st1" width="524.4" height="524.4"/>
	<rect class="st1" width="524.4" height="524.4"/>
	<rect class="st1" width="524.4" height="524.4"/>
	<rect class="st1" width="524.4" height="524.4"/>
	<rect class="st1" width="524.4" height="524.4"/>
	<rect class="st1" width="524.4" height="524.4"/>
	<rect class="st1" width="524.4" height="524.4"/>
	<g id="uuid-f99fee3e-856d-4265-be3b-f840b76eb9dd">
		<g>
			<polygon class="st0" points="493.4,125.3 490.3,121.2 494.2,105.7 510,106.1 513.1,110 497.1,109.7 			"/>
			<polygon class="st0" points="487.3,117.3 484.2,113.3 488.1,97.9 504.1,98.2 507.2,102.1 491.1,101.8 			"/>
		</g>
	</g>
</g>
</svg>
