<svg width="100" height="100" viewBox="0 0 100 100" fill="none" xmlns="http://www.w3.org/2000/svg">
<g clip-path="url(#clip0_429_1610)">
<path d="M26.2969 13.0625L27.2695 13.1769L28.9285 15.7131L26.8309 17.8871L25.8965 17.8108L27.9941 15.5987L26.2969 13.0625Z" fill="white"/>
<path d="M28.2233 13.2532L29.1768 13.3295L30.8167 15.8848L28.7 18.0777L27.7656 18.0015L29.8823 15.8085L28.2233 13.2532Z" fill="white"/>
<path d="M75.8582 86.9374C75.3243 86.9374 74.7522 86.8039 74.2564 86.5179C73.2076 85.9458 72.6546 84.8779 72.769 83.6765C73.0169 81.0259 74.409 65.389 74.4471 64.3974C74.4662 63.7681 74.2755 63.6918 74.0276 63.5965C73.9132 63.5583 73.7415 63.5011 73.5509 63.4248C72.1969 62.9672 69.6607 62.1281 68.4402 59.9351C68.1351 59.363 67.8491 58.81 67.6012 58.2761C67.01 57.0747 66.457 55.9496 65.8277 55.5873C64.7408 54.958 64.2831 54.9199 63.158 54.8436H63.1199C61.8613 54.7673 56.0451 54.2524 55.1298 54.1189H55.0917C53.7377 53.9092 52.1931 52.8032 51.7736 50.8009C51.5638 49.8093 51.3541 49.199 51.1252 48.4744L50.9917 48.0739C50.9345 47.8833 50.8201 47.7879 50.3052 47.5019C50.248 47.4637 50.1908 47.4447 50.1336 47.4065C49.1992 46.9107 42.1054 43.421 41.457 43.1731C40.7705 42.9252 40.1412 42.7917 39.5119 42.7345C39.1306 42.6964 35.1451 42.315 30.5303 41.8764C24.1801 41.2662 16.2854 40.5034 15.9612 40.4653C15.4082 40.4271 13.6157 40.0839 13.2724 37.3379C13.1771 36.5751 12.8529 34.3058 12.5669 32.3035C12.3762 31.0068 12.2236 29.8245 12.1092 29.0999C11.5562 29.958 10.5837 31.3882 8.75299 31.1403C7.45627 30.9496 6.78884 30.4538 6.38838 30.1678C6.36931 30.1487 6.35024 30.1487 6.33117 30.1296C5.43491 30.0534 2.47915 29.7864 2.11683 29.7292C1.50661 29.6529 0.915458 29.2906 0.53407 28.7566C0.22896 28.318 -0.11429 27.5743 0.0764043 26.4874V26.4683C0.324307 25.2097 1.22057 22.0442 4.0047 19.9466C6.7507 17.868 8.84833 18.0015 10.8888 18.1159H11.0032C12.8529 18.2303 13.7873 18.3638 13.978 18.3829C14.7217 18.4782 30.0726 20.2326 34.1153 20.4996C38.139 20.7856 49.3136 21.5103 53.4898 21.701C57.6851 21.8916 65.5417 22.4256 69.7751 22.8451C72.4639 23.1121 78.2038 23.6651 82.8377 24.1418C85.412 24.3897 87.5669 24.6186 88.4631 24.6949C90.9803 24.9428 94.0123 25.4004 95.2137 25.7055C97.5211 26.2585 97.3113 28.2799 97.2351 28.9473V28.9855C97.1969 29.2715 97.1397 29.8627 97.0825 30.492C96.9872 31.5598 96.93 32.151 96.8918 32.4752C97.3685 32.704 97.7309 32.8375 98.0169 32.9519C98.1695 33.0091 98.2839 33.0473 98.3792 33.0854L98.4936 33.1426C99.5806 33.6575 100.076 34.5347 99.962 35.7551C99.8857 36.7849 99.5806 39.2067 99.3899 40.1983V40.2364C99.142 41.4378 97.6546 45.1563 97.0062 46.4149C96.6248 47.1586 92.2579 55.1678 88.0245 62.929C85.0688 68.3447 82.2656 73.4744 82.0177 73.9702C81.6363 74.733 81.1595 75.4004 80.7782 75.9534C80.6256 76.1632 80.4921 76.373 80.3968 76.5064C80.6447 76.6399 80.9307 76.7734 81.2358 76.926C81.8842 77.2311 82.5325 77.5553 83.0474 77.9557C83.753 78.4897 84.1534 79.3096 84.1534 80.1487C84.1534 80.8733 83.8293 81.5408 83.2572 81.9794C82.7232 82.3989 77.8796 86.0793 77.3266 86.4797C76.9643 86.7849 76.4303 86.9374 75.8582 86.9374ZM75.6103 83.9817C75.6485 84.0198 75.7248 84.0389 75.801 84.0579C76.7164 83.3714 79.8247 81.0068 81.0642 80.0534C80.7782 79.8817 80.3777 79.691 80.0154 79.5194C79.634 79.3287 79.2145 79.138 78.8521 78.9283C78.0322 78.4515 77.708 77.8032 77.5745 77.3264C77.3838 76.6209 77.4982 75.839 77.9177 75.1334C78.0512 74.8855 78.2419 74.6186 78.4517 74.3135C78.7759 73.8558 79.1763 73.2646 79.4814 72.6926L79.5005 72.6735C79.7484 72.1968 82.4372 67.2768 85.5455 61.5751C89.3785 54.5575 94.1458 45.8238 94.4891 45.1182C95.1184 43.8977 96.4341 40.5415 96.6058 39.7025C96.7774 38.7299 97.0444 36.6132 97.1206 35.6979C97.0825 35.6788 97.0444 35.6788 97.0062 35.6598C96.663 35.5263 96.1672 35.3356 95.5188 35.0114C94.3746 34.4584 93.8788 33.5812 94.0314 32.3989L94.0505 32.2845C94.0886 32.0938 94.184 30.9878 94.2602 30.2441C94.3174 29.5957 94.3746 29.0045 94.4128 28.6994V28.6613C94.4128 28.6041 94.4319 28.5469 94.4319 28.4706C93.4021 28.2227 90.6943 27.8032 88.2152 27.5553C87.319 27.4599 85.1641 27.2502 82.5898 27.0023C77.975 26.5446 72.216 25.9725 69.5272 25.7055C65.351 25.286 57.5707 24.7521 53.3945 24.5804C49.1992 24.3897 37.9673 23.6651 33.9437 23.3791C29.7484 23.093 14.3022 21.3196 13.6538 21.2433H13.5966C13.5775 21.2433 12.7385 21.1098 10.8506 20.9954H10.7362C8.8674 20.881 7.64696 20.8047 5.74002 22.2349C3.77587 23.7223 3.10844 26.0869 2.91775 26.926C3.90936 27.0213 6.25489 27.2502 6.71256 27.2692C7.36092 27.3074 7.78045 27.6315 8.06649 27.8413C8.33346 28.032 8.54322 28.2036 9.09624 28.2799C9.26786 28.1655 9.5539 27.7078 9.72553 27.4408C10.0306 26.9641 10.3357 26.4683 10.8316 26.1251C11.499 25.6483 12.4525 25.572 13.2724 25.9344C14.1306 26.3158 14.7217 27.0976 14.8552 28.0511V28.0892C14.8933 28.4134 15.1412 30.1868 15.3891 31.9031C15.6943 34.0198 15.9994 36.1937 16.0947 36.9756C16.1328 37.3188 16.2091 37.5095 16.2473 37.5858C17.1054 37.6621 22.8644 38.2151 30.7782 38.9778C35.393 39.4164 39.3785 39.8169 39.7408 39.836C40.618 39.9122 41.4761 40.122 42.4105 40.4462C43.2114 40.7322 51.3731 44.8131 51.4494 44.8512L51.6401 44.9466C52.2694 45.2898 53.3182 45.8428 53.7187 47.2158L53.8331 47.54C54.081 48.2837 54.3289 49.0274 54.5768 50.1716C54.7293 50.8581 55.2251 51.1823 55.5112 51.2395C56.4265 51.3539 62.0901 51.8497 63.2724 51.945H63.3106C64.5882 52.0213 65.5798 52.0976 67.2389 53.0701C68.6119 53.871 69.3556 55.3775 70.1565 56.9794C70.4044 57.4752 70.6523 58.0091 70.9383 58.5049C71.6058 59.7254 73.3792 60.3165 74.4471 60.6788C74.6759 60.7551 74.8857 60.8314 75.0573 60.8886C76.5638 61.4797 77.3647 62.7574 77.3075 64.4736C77.2694 65.7132 75.6294 83.7338 75.6103 83.9244C75.6103 83.9626 75.6103 83.9626 75.6103 83.9817Z" fill="white"/>
</g>
<defs>
<clipPath id="clip0_429_1610">
<rect width="100" height="100" fill="white"/>
</clipPath>
</defs>
</svg>
