<?xml version="1.0" encoding="utf-8"?>
<!-- Generator: Adobe Illustrator 28.2.0, SVG Export Plug-In . SVG Version: 6.00 Build 0)  -->
<svg version="1.1" id="uuid-97eb3cc7-4d88-4ab2-9302-f38f13d86668"
	 xmlns="http://www.w3.org/2000/svg" xmlns:xlink="http://www.w3.org/1999/xlink" x="0px" y="0px" viewBox="0 0 524.4 524.4"
	 style="enable-background:new 0 0 524.4 524.4;" xml:space="preserve">
<style type="text/css">
	.st0{fill:#241758;}
	.st1{fill:none;}
</style>
<g id="uuid-84a449a3-e1c4-4aaa-8a94-0154af940b63">
	<g>
		<g id="uuid-5fcd8453-44df-41a5-923c-6ec388c68dc5">
			<g>
				<polygon class="st0" points="137.9,68.5 143,69.1 151.7,82.4 140.7,93.8 135.8,93.4 146.8,81.8 				"/>
				<polygon class="st0" points="148,69.5 153,69.9 161.6,83.3 150.5,94.8 145.6,94.4 156.7,82.9 				"/>
			</g>
		</g>
		<g id="uuid-83d1deb9-1f2f-429c-a510-6a09b096b030">
			<path class="st0" d="M397.8,455.9c-2.8,0-5.8-0.7-8.4-2.2c-5.5-3-8.4-8.6-7.8-14.9c1.3-13.9,8.6-95.9,8.8-101.1
				c0.1-3.3-0.9-3.7-2.2-4.2c-0.6-0.2-1.5-0.5-2.5-0.9c-7.1-2.4-20.4-6.8-26.8-18.3c-1.6-3-3.1-5.9-4.4-8.7
				c-3.1-6.3-6-12.2-9.3-14.1c-5.7-3.3-8.1-3.5-14-3.9l-0.2,0c-6.6-0.4-37.1-3.1-41.9-3.8l-0.2,0c-7.1-1.1-15.2-6.9-17.4-17.4
				c-1.1-5.2-2.2-8.4-3.4-12.2l-0.7-2.1c-0.3-1-0.9-1.5-3.6-3c-0.3-0.2-0.6-0.3-0.9-0.5c-4.9-2.6-42.1-20.9-45.5-22.2
				c-3.6-1.3-6.9-2-10.2-2.3c-2-0.2-22.9-2.2-47.1-4.5c-33.3-3.2-74.7-7.2-76.4-7.4c-2.9-0.2-12.3-2-14.1-16.4
				c-0.5-4-2.2-15.9-3.7-26.4c-1-6.8-1.8-13-2.4-16.8c-2.9,4.5-8,12-17.6,10.7c-6.8-1-10.3-3.6-12.4-5.1c-0.1-0.1-0.2-0.1-0.3-0.2
				c-4.7-0.4-20.2-1.8-22.1-2.1c-3.2-0.4-6.3-2.3-8.3-5.1c-1.6-2.3-3.4-6.2-2.4-11.9l0-0.1c1.3-6.6,6-23.2,20.6-34.2
				C35.4,93.7,46.4,94.4,57.1,95l0.6,0c9.7,0.6,14.6,1.3,15.6,1.4c3.9,0.5,84.4,9.7,105.6,11.1c21.1,1.5,79.7,5.3,101.6,6.3
				c22,1,63.2,3.8,85.4,6c14.1,1.4,44.2,4.3,68.5,6.8c13.5,1.3,24.8,2.5,29.5,2.9c13.2,1.3,29.1,3.7,35.4,5.3
				c12.1,2.9,11,13.5,10.6,17l0,0.2c-0.2,1.5-0.5,4.6-0.8,7.9c-0.5,5.6-0.8,8.7-1,10.4c2.5,1.2,4.4,1.9,5.9,2.5
				c0.8,0.3,1.4,0.5,1.9,0.7l0.6,0.3c5.7,2.7,8.3,7.3,7.7,13.7c-0.4,5.4-2,18.1-3,23.3l0,0.2c-1.3,6.3-9.1,25.8-12.5,32.4
				c-2,3.9-24.9,45.9-47.1,86.6c-15.5,28.4-30.2,55.3-31.5,57.9c-2,4-4.5,7.5-6.5,10.4c-0.8,1.1-1.5,2.2-2,2.9
				c1.3,0.7,2.8,1.4,4.4,2.2c3.4,1.6,6.8,3.3,9.5,5.4c3.7,2.8,5.8,7.1,5.8,11.5c0,3.8-1.7,7.3-4.7,9.6c-2.8,2.2-28.2,21.5-31.1,23.6
				C403.6,455.1,400.8,455.9,397.8,455.9L397.8,455.9z M396.5,440.4c0.2,0.2,0.6,0.3,1,0.4c4.8-3.6,21.1-16,27.6-21
				c-1.5-0.9-3.6-1.9-5.5-2.8c-2-1-4.2-2-6.1-3.1c-4.3-2.5-6-5.9-6.7-8.4c-1-3.7-0.4-7.8,1.8-11.5c0.7-1.3,1.7-2.7,2.8-4.3
				c1.7-2.4,3.8-5.5,5.4-8.5l0.1-0.1c1.3-2.5,15.4-28.3,31.7-58.2c20.1-36.8,45.1-82.6,46.9-86.3c3.3-6.4,10.2-24,11.1-28.4
				c0.9-5.1,2.3-16.2,2.7-21c-0.2-0.1-0.4-0.1-0.6-0.2c-1.8-0.7-4.4-1.7-7.8-3.4c-6-2.9-8.6-7.5-7.8-13.7l0.1-0.6
				c0.2-1,0.7-6.8,1.1-10.7c0.3-3.4,0.6-6.5,0.8-8.1l0-0.2c0-0.3,0.1-0.6,0.1-1c-5.4-1.3-19.6-3.5-32.6-4.8
				c-4.7-0.5-16-1.6-29.5-2.9c-24.2-2.4-54.4-5.4-68.5-6.8c-21.9-2.2-62.7-5-84.6-5.9c-22-1-80.9-4.8-102-6.3
				c-22-1.5-103-10.8-106.4-11.2l-0.3,0c-0.1,0-4.5-0.7-14.4-1.3l-0.6,0c-9.8-0.6-16.2-1-26.2,6.5c-10.3,7.8-13.8,20.2-14.8,24.6
				c5.2,0.5,17.5,1.7,19.9,1.8c3.4,0.2,5.6,1.9,7.1,3c1.4,1,2.5,1.9,5.4,2.3c0.9-0.6,2.4-3,3.3-4.4c1.6-2.5,3.2-5.1,5.8-6.9
				c3.5-2.5,8.5-2.9,12.8-1c4.5,2,7.6,6.1,8.3,11.1l0,0.2c0.2,1.7,1.5,11,2.8,20c1.6,11.1,3.2,22.5,3.7,26.6
				c0.2,1.8,0.6,2.8,0.8,3.2c4.5,0.4,34.7,3.3,76.2,7.3c24.2,2.3,45.1,4.4,47,4.5c4.6,0.4,9.1,1.5,14,3.2c4.2,1.5,47,22.9,47.4,23.1
				l1,0.5c3.3,1.8,8.8,4.7,10.9,11.9l0.6,1.7c1.3,3.9,2.6,7.8,3.9,13.8c0.8,3.6,3.4,5.3,4.9,5.6c4.8,0.6,34.5,3.2,40.7,3.7l0.2,0
				c6.7,0.4,11.9,0.8,20.6,5.9c7.2,4.2,11.1,12.1,15.3,20.5c1.3,2.6,2.6,5.4,4.1,8c3.5,6.4,12.8,9.5,18.4,11.4
				c1.2,0.4,2.3,0.8,3.2,1.1c7.9,3.1,12.1,9.8,11.8,18.8c-0.2,6.5-8.8,101-8.9,102C396.5,440.3,396.5,440.3,396.5,440.4L396.5,440.4
				z M506.9,169.7L506.9,169.7L506.9,169.7z"/>
		</g>
	</g>
	<rect class="st1" width="524.4" height="524.4"/>
</g>
</svg>
