<svg width="100" height="100" viewBox="0 0 100 100" fill="none" xmlns="http://www.w3.org/2000/svg">
<g clip-path="url(#clip0_429_1477)">
<path d="M43.8213 42.582L44.6985 43.0206L45.3087 45.9955L42.5627 47.254L41.7236 46.8345L44.4887 45.5569L43.8213 42.582Z" fill="white"/>
<path d="M45.5371 43.4402L46.4143 43.8597L47.0246 46.8345L44.2404 48.1122L43.4014 47.6927L46.1664 46.4341L45.5371 43.4402Z" fill="white"/>
<path d="M99.1228 40.5417C99.0084 40.4654 98.894 40.3891 98.7796 40.3319C98.8558 40.0649 98.9702 39.6264 99.0847 39.2068C99.4851 37.7957 99.6758 37.071 99.714 36.7087C99.7712 36.2511 99.8856 35.1832 99.18 34.3632C98.894 34.039 98.36 33.6386 97.4828 33.6195C96.6629 33.6004 35.0877 31.1977 30.9306 31.007C28.1655 30.8926 15.0839 30.3777 14.3211 30.3777C12.643 30.3777 11.5179 31.4074 11.5179 32.933C11.5179 34.4013 12.3379 35.0497 12.7765 35.3929C12.8146 35.4311 12.8528 35.4501 12.8909 35.4883C13.196 35.7362 14.3593 36.518 16.2853 37.7957L16.3425 37.8338C16.6095 38.0054 16.8192 38.1389 16.8955 38.1961C17.3913 38.5394 18.4211 39.0924 19.8513 39.0924H21.0908C22.0824 39.0924 23.1312 38.8064 24.3135 38.2343C24.4661 38.158 24.7712 38.0055 25.1526 37.8148C26.2967 37.2427 28.6995 36.0413 29.2143 35.8315C29.5194 35.698 30.1487 35.5455 31.4073 35.5455H34.5347C34.9733 35.5455 36.4035 35.8697 36.8993 36.1176C37.5286 36.4227 38.3486 36.8994 38.3486 36.8994C39.4928 37.5859 45.6522 41.171 51.087 44.3556L51.2776 44.47C55.7208 47.0634 60.3165 49.7522 60.6979 50.0001C60.9458 50.1527 61.3463 50.4387 61.4226 50.6866C61.3463 50.8392 61.0603 51.2396 60.5072 51.5447L60.4119 51.6019C59.2296 52.2503 57.418 53.2228 57.2464 55.2251C57.2082 55.6447 57.2273 56.1214 57.2654 56.6744C57.3227 57.8948 57.418 59.7255 56.6743 60.3167L56.6171 60.3548C55.0153 61.6325 53.1846 63.0817 48.1312 63.0817C46.3768 63.0817 43.0778 61.8231 41.0946 60.6408C39.2449 59.5348 30.759 54.5768 29.8246 54.081C28.4897 53.3754 27.2121 53.0321 26.0107 53.0512C24.5042 53.0894 22.3875 53.8712 21.0908 54.8628C19.9275 55.7591 19.0313 56.3502 17.3341 56.3502C16.8955 56.3502 15.942 56.1023 14.4928 54.4624L14.4546 54.4242C14.2258 54.1572 12.1472 51.9071 9.26773 51.9071C6.80778 51.9071 3.89016 52.8796 2.49809 54.1763C1.06789 55.4921 0 56.6935 0 59.4967C0 61.9948 1.83066 63.6729 4.57666 63.6729C4.95805 63.6729 5.33944 63.6347 5.75896 63.5775C6.42639 63.5013 7.24638 63.4059 8.56217 63.4059C9.32494 63.4059 10.4119 63.7301 11.6895 64.0924C13.5393 64.6264 15.6369 65.2366 17.9634 65.2366C20.4424 65.2366 27.0214 65.1412 31.3501 65.0649H31.3883C33.5812 65.0268 35.4691 65.0077 35.8124 65.0077C36.3463 65.0077 38.2723 65.0649 40.2365 65.8468C40.5225 65.9612 40.923 66.1519 41.3616 66.3426C43.8596 67.4868 48.4935 69.6035 54.1571 69.6035C56.3883 69.6035 60.8696 69.4128 63.4439 68.6881C65.7513 68.0398 77.0976 64.1115 79.0236 63.3868C79.6911 63.1389 84.1342 61.232 87.8146 59.4204C88.3486 59.1534 88.8444 58.9246 89.283 58.6958C91.3425 57.6851 92.4676 57.1321 93.6499 56.2549C94.0503 55.9498 94.8703 55.3395 94.8703 54.0428C94.8703 52.8415 93.8596 52.1931 93.3829 51.8689L93.3638 51.8498C93.3257 51.8308 93.2876 51.7926 93.2494 51.7736C93.0397 51.621 92.6583 51.3922 92.0099 51.0108C91.6285 50.782 91.2471 50.5341 91.0755 50.4387C90.7513 50.2289 90.1983 49.8666 90.1983 49.0657C90.1983 48.3983 90.5225 47.5974 91.3997 47.5974H94.4889H94.5843C95.2136 47.5974 96.8345 47.6164 98.1312 45.843C99.1228 44.47 99.714 43.5165 99.8474 43.0588L99.8665 43.0016C100.305 41.5714 99.5995 40.8468 99.1228 40.5417ZM87.3379 49.0657C87.3379 51.3922 88.9588 52.4601 89.4927 52.8224C89.7025 52.9749 90.103 53.2038 90.5416 53.4707L90.5606 53.4898C90.942 53.7186 91.4569 54.0428 91.5904 54.1191C91.6095 54.1382 91.6285 54.1572 91.6667 54.1763C90.7895 54.7865 89.8169 55.2633 88.0435 56.1405C87.6049 56.3502 87.1091 56.5981 86.5561 56.8651C82.7803 58.7339 78.4897 60.5455 78.032 60.7171C76.1442 61.4418 64.9695 65.2938 62.7002 65.9231C60.431 66.5714 56.1404 66.7431 54.1953 66.7431C52.1167 66.7431 50.1716 66.4189 48.4554 65.9612C54.2525 65.904 56.5408 64.0924 58.3905 62.6241L58.4477 62.5669C60.3356 61.0604 60.2021 58.3334 60.1259 56.5409C60.1068 56.1405 60.0877 55.7019 60.1068 55.4921C60.1449 55.0344 60.8886 54.5958 61.804 54.1191L61.8993 54.0619C63.3295 53.28 64.3211 51.9261 64.3211 50.7629C64.3211 49.4662 63.6346 48.4173 62.2235 47.5592C61.804 47.3113 57.6087 44.8514 52.746 42.01L52.6888 41.9719C47.1968 38.7682 40.9611 35.126 39.8551 34.4585L39.836 34.4395C39.836 34.4395 39.6453 34.3251 39.3974 34.1916C56.0641 34.859 91.8764 36.2701 96.9108 36.4418C96.8345 36.8041 96.5294 37.891 96.3959 38.3868L96.8535 38.5203L96.3959 38.4059C96.2243 39.0161 96.0717 39.531 96.0145 39.817C95.6903 41.1519 96.2243 42.0291 96.8154 42.4105C96.8535 42.4296 96.9108 42.4677 96.968 42.5058C96.7773 42.83 96.415 43.364 95.8619 44.1458C95.4424 44.7179 95.1182 44.7179 94.6606 44.7179C94.6224 44.7179 94.5652 44.7179 94.5271 44.7179H91.4378C89.0732 44.756 87.3379 46.6058 87.3379 49.0657ZM26.1251 55.9307C26.7925 55.9307 27.5934 56.1595 28.4516 56.6363C29.1571 57.0177 35.2975 60.5836 38.3486 62.3952C37.1472 62.1855 36.1937 62.1664 35.8124 62.1664C35.4691 62.1664 33.8863 62.1855 31.3501 62.2236H31.2929C26.9642 62.2808 20.4233 62.3952 17.9634 62.3952C16.0374 62.3952 14.1495 61.8422 12.4714 61.3655C11.0031 60.946 9.74447 60.5646 8.56217 60.5646C7.07475 60.5646 6.12128 60.679 5.41571 60.7553C5.05339 60.7934 4.78642 60.8315 4.55759 60.8315C3.03204 60.8315 2.84134 60.126 2.84134 59.4967C2.84134 57.7423 3.35622 57.2656 4.38596 56.3121C5.28223 55.4921 7.49428 54.8056 9.2296 54.8056C10.8696 54.8056 12.2616 56.3502 12.2807 56.3693L12.3188 56.4074C13.9969 58.2953 15.6751 59.2678 17.296 59.2678C20.0801 59.2678 21.6438 58.0665 22.7879 57.1893C23.7033 56.4837 25.2098 55.9879 26.0488 55.9688C26.087 55.9498 26.106 55.9307 26.1251 55.9307ZM21.0908 36.2511H19.8513C19.1838 36.2511 18.7071 36.0032 18.4973 35.8506C18.402 35.7934 18.1731 35.6408 17.868 35.4311C15.942 34.1534 14.8741 33.4288 14.7216 33.2953C14.7025 33.2762 14.6834 33.2762 14.6644 33.2572C16.2471 33.2953 22.6545 33.5432 27.0404 33.7148C26.2014 34.1153 25.0381 34.7064 23.8749 35.2785L23.7605 35.3357C23.4363 35.4883 23.1884 35.6218 23.0549 35.679C22.2731 36.0604 21.6247 36.2511 21.0908 36.2511Z" fill="white"/>
</g>
<defs>
<clipPath id="clip0_429_1477">
<rect width="100" height="100" fill="white"/>
</clipPath>
</defs>
</svg>
