<?xml version="1.0" encoding="utf-8"?>
<!-- Generator: Adobe Illustrator 28.2.0, SVG Export Plug-In . SVG Version: 6.00 Build 0)  -->
<svg version="1.1" id="uuid-8d76013e-8318-47f6-8d51-09ad34a6dabd"
	 xmlns="http://www.w3.org/2000/svg" xmlns:xlink="http://www.w3.org/1999/xlink" x="0px" y="0px" viewBox="0 0 524.4 524.4"
	 style="enable-background:new 0 0 524.4 524.4;" xml:space="preserve">
<style type="text/css">
	.st0{fill:#241758;}
	.st1{fill:none;}
</style>
<g id="uuid-1655b830-9ff3-47eb-9e2f-3881977b3c0f">
	<g id="uuid-c58c408e-459f-4968-b173-aec69bb18700">
		<g>
			<polygon class="st0" points="229.8,223.3 234.4,225.6 237.6,241.2 223.2,247.8 218.8,245.6 233.3,238.9 			"/>
			<polygon class="st0" points="238.8,227.8 243.4,230 246.6,245.6 232,252.3 227.6,250.1 242.1,243.5 			"/>
		</g>
	</g>
	<path class="st0" d="M519.8,212.6c-0.6-0.4-1.2-0.8-1.8-1.1c0.4-1.4,1-3.7,1.6-5.9c2.1-7.4,3.1-11.2,3.3-13.1
		c0.3-2.4,0.9-8-2.8-12.3c-1.5-1.7-4.3-3.8-8.9-3.9c-4.3-0.1-327.2-12.7-349-13.7c-14.5-0.6-83.1-3.3-87.1-3.3
		c-8.8,0-14.7,5.4-14.7,13.4c0,7.7,4.3,11.1,6.6,12.9c0.2,0.2,0.4,0.3,0.6,0.5c1.6,1.3,7.7,5.4,17.8,12.1l0.3,0.2
		c1.4,0.9,2.5,1.6,2.9,1.9c2.6,1.8,8,4.7,15.5,4.7h6.5c5.2,0,10.7-1.5,16.9-4.5c0.8-0.4,2.4-1.2,4.4-2.2c6-3,18.6-9.3,21.3-10.4
		c1.6-0.7,4.9-1.5,11.5-1.5h16.4c2.3,0,9.8,1.7,12.4,3c3.3,1.6,7.6,4.1,7.6,4.1c6,3.6,38.3,22.4,66.8,39.1l1,0.6
		c23.3,13.6,47.4,27.7,49.4,29c1.3,0.8,3.4,2.3,3.8,3.6c-0.4,0.8-1.9,2.9-4.8,4.5l-0.5,0.3c-6.2,3.4-15.7,8.5-16.6,19
		c-0.2,2.2-0.1,4.7,0.1,7.6c0.3,6.4,0.8,16-3.1,19.1l-0.3,0.2c-8.4,6.7-18,14.3-44.5,14.3c-9.2,0-26.5-6.6-36.9-12.8
		c-9.7-5.8-54.2-31.8-59.1-34.4c-7-3.7-13.7-5.5-20-5.4c-7.9,0.2-19,4.3-25.8,9.5c-6.1,4.7-10.8,7.8-19.7,7.8
		c-2.3,0-7.3-1.3-14.9-9.9l-0.2-0.2c-1.2-1.4-12.1-13.2-27.2-13.2c-12.9,0-28.2,5.1-35.5,11.9C5.6,291,0,297.3,0,312
		c0,13.1,9.6,21.9,24,21.9c2,0,4-0.2,6.2-0.5c3.5-0.4,7.8-0.9,14.7-0.9c4,0,9.7,1.7,16.4,3.6c9.7,2.8,20.7,6,32.9,6
		c13,0,47.5-0.5,70.2-0.9l0.2,0c11.5-0.2,21.4-0.3,23.2-0.3c2.8,0,12.9,0.3,23.2,4.4c1.5,0.6,3.6,1.6,5.9,2.6
		c13.1,6,37.4,17.1,67.1,17.1c11.7,0,35.2-1,48.7-4.8c12.1-3.4,71.6-24,81.7-27.8c3.5-1.3,26.8-11.3,46.1-20.8
		c2.8-1.4,5.4-2.6,7.7-3.8c10.8-5.3,16.7-8.2,22.9-12.8c2.1-1.6,6.4-4.8,6.4-11.6c0-6.3-5.3-9.7-7.8-11.4l-0.1-0.1
		c-0.2-0.1-0.4-0.3-0.6-0.4c-1.1-0.8-3.1-2-6.5-4c-2-1.2-4-2.5-4.9-3c-1.7-1.1-4.6-3-4.6-7.2c0-3.5,1.7-7.7,6.3-7.7h16.2l0.5,0
		c3.3,0,11.8,0.1,18.6-9.2c5.2-7.2,8.3-12.2,9-14.6l0.1-0.3C526,218,522.3,214.2,519.8,212.6L519.8,212.6z M458,257.3
		c0,12.2,8.5,17.8,11.3,19.7c1.1,0.8,3.2,2,5.5,3.4l0.1,0.1c2,1.2,4.7,2.9,5.4,3.3c0.1,0.1,0.2,0.2,0.4,0.3
		c-4.6,3.2-9.7,5.7-19,10.3c-2.3,1.1-4.9,2.4-7.8,3.8c-19.8,9.8-42.3,19.3-44.7,20.2c-9.9,3.8-68.5,24-80.4,27.3
		c-11.9,3.4-34.4,4.3-44.6,4.3c-10.9,0-21.1-1.7-30.1-4.1c30.4-0.3,42.4-9.8,52.1-17.5l0.3-0.3c9.9-7.9,9.2-22.2,8.8-31.6
		c-0.1-2.1-0.2-4.4-0.1-5.5c0.2-2.4,4.1-4.7,8.9-7.2l0.5-0.3c7.5-4.1,12.7-11.2,12.7-17.3c0-6.8-3.6-12.3-11-16.8
		c-2.2-1.3-24.2-14.2-49.7-29.1l-0.3-0.2c-28.8-16.8-61.5-35.9-67.3-39.4l-0.1-0.1c0,0-1-0.6-2.3-1.3
		c87.4,3.5,275.2,10.9,301.6,11.8c-0.4,1.9-2,7.6-2.7,10.2l2.4,0.7l0,0l-2.4-0.6c-0.9,3.2-1.7,5.9-2,7.4c-1.7,7,1.1,11.6,4.2,13.6
		c0.2,0.1,0.5,0.3,0.8,0.5c-1,1.7-2.9,4.5-5.8,8.6c-2.2,3-3.9,3-6.3,3c-0.2,0-0.5,0-0.7,0h-16.2C467.1,234.7,458,244.4,458,257.3
		L458,257.3z M137,293.3c3.5,0,7.7,1.2,12.2,3.7c3.7,2,35.9,20.7,51.9,30.2c-6.3-1.1-11.3-1.2-13.3-1.2c-1.8,0-10.1,0.1-23.4,0.3
		l-0.3,0c-22.7,0.3-57,0.9-69.9,0.9c-10.1,0-20-2.9-28.8-5.4c-7.7-2.2-14.3-4.2-20.5-4.2c-7.8,0-12.8,0.6-16.5,1
		c-1.9,0.2-3.3,0.4-4.5,0.4c-8,0-9-3.7-9-7c0-9.2,2.7-11.7,8.1-16.7c4.7-4.3,16.3-7.9,25.4-7.9c8.6,0,15.9,8.1,16,8.2l0.2,0.2
		c8.8,9.9,17.6,15,26.1,15c14.6,0,22.8-6.3,28.8-10.9c4.8-3.7,12.7-6.3,17.1-6.4C136.8,293.4,136.9,293.3,137,293.3L137,293.3z
		 M110.6,190.1h-6.5c-3.5,0-6-1.3-7.1-2.1c-0.5-0.3-1.7-1.1-3.3-2.2c-10.1-6.7-15.7-10.5-16.5-11.2c-0.1-0.1-0.2-0.1-0.3-0.2
		c8.3,0.2,41.9,1.5,64.9,2.4c-4.4,2.1-10.5,5.2-16.6,8.2l-0.6,0.3c-1.7,0.8-3,1.5-3.7,1.8C116.8,189.1,113.4,190.1,110.6,190.1z"/>
	<rect class="st1" width="524.4" height="524.4"/>
</g>
</svg>
