<?xml version="1.0" encoding="utf-8"?>
<!-- Generator: Adobe Illustrator 28.2.0, SVG Export Plug-In . SVG Version: 6.00 Build 0)  -->
<svg version="1.1" id="uuid-62277c14-1898-4b88-835d-5fa285513cd6"
	 xmlns="http://www.w3.org/2000/svg" xmlns:xlink="http://www.w3.org/1999/xlink" x="0px" y="0px" viewBox="0 0 524.4 524.4"
	 style="enable-background:new 0 0 524.4 524.4;" xml:space="preserve">
<style type="text/css">
	.st0{fill:#241758;}
	.st1{fill:none;}
</style>
<g id="uuid-b9dbee00-3633-4882-bcdb-abdad0dc6e52">
	<g id="uuid-6cc9f676-1f4d-4af0-9029-0b4dde5ed13a">
		<g>
			<polygon class="st0" points="33.2,197.8 36.8,194.1 52.6,195.4 54.9,211 51.6,214.7 49.2,198.9 			"/>
			<polygon class="st0" points="40.1,190.4 43.5,186.7 59.4,188 61.7,203.9 58.4,207.5 56,191.7 			"/>
		</g>
	</g>
	<g id="uuid-efe9ddba-008e-47b9-a756-a7a79c9c7ee4">
		<path class="st0" d="M35.2,373.4c-1.7,0-3.6-0.4-5.4-1.3c-11.3-5.1-20.4-11.8-27.1-20c-2-2.5-2.9-5.6-2.5-8.5
			c0.3-2.4,1.6-5.8,5.9-8.9c1.3-0.9,2.8-2.6,3.1-7.4c0.3-5.6,2.5-16,5.7-23.6c1.8-4.3,8.8-20,16.5-34.7
			c8.2-15.4,17.6-30.2,19.5-33.1c0,0,0.1-0.1,0.1-0.1c7.7-10.9,21-26.7,29.6-35.3L82,199c8.6-8.5,22.9-22.7,36.7-27.9
			c9.4-3.5,11-5.1,12.5-6.5c0.5-0.5,1.2-1.1,2-1.7c1.7-1.3,2.8-2.3,3.8-3.3c0.7-0.7,1.4-1.2,2.1-1.8c7.6-6.4,14.2-2.1,16.6,0.1
			c2.1,1.8,7.6,6.1,12.5,9.9c3.5,2.7,6.9,5.3,8.6,6.8c7.9,6.5,14.6,11.4,18.9,13.7c7,3.8,34.3,20.4,40.5,24.6
			c3.3,2.2,6.9,5.1,10.3,7.8c3.1,2.5,6.2,5,8.2,6.2c6,3.6,15.2,6.9,23.3,9.7c6.2,2.2,11.6,4.1,15.1,6c4.7,2.6,13.7,9.4,22.5,16.1
			c5.3,4.1,10.4,7.9,12.5,9.2c3.8,2.4,11.7,6.1,22.8,4.2c11.7-2,18.5-12.6,20-22.3c0.6-4,0.4-8.2,0.2-11.8c-0.1-2-0.2-3.8-0.2-5.5
			c0.1-5.7,2.8-19.4,25.1-23c17.3-2.9,71.7-9.8,77.3-10.1c12.5-0.7,15.9,7,16.9,11.6c1,5-0.3,9.1-2.1,12.3c1.9,0.1,3.9,0.5,6.2,1.5
			c4.5,1.9,16.6,7.9,19.9,10c0,0,0.1,0.1,0.1,0.1l0.1,0.1c2.9,1.9,4.7,3.2,7.2,6.1c2.1,2.4,3.1,5.7,2.8,9c-0.3,3.3-1.8,6.4-4.3,8.4
			c-2.5,2.1-34.7,29.6-39.1,33.3c-4.9,4.2-20.5,14.3-29.7,18.5c-16.9,7.7-29.6,12.3-37.6,13.7c-9.6,1.7-23.5,2.9-34.9-1.1
			c-3.9-1.4-14.1-4.8-24.8-8.5c-15.4-5.2-31.3-10.7-34.3-11.8c-6-2.2-33.5-16.6-41.5-23.3c-4.9-4.1-13.2-10.2-18.2-13.8
			c-1.1-0.8-1.9-1.4-2.6-1.9c-0.4,0.5-0.7,0.9-1,1.2c-0.1,0.1-0.2,0.2-0.3,0.3c-3.1,3.5-8.5,3.9-12.5,0.8c-0.1,0-0.1-0.1-0.2-0.1
			c-0.5-0.4-1.2-0.9-2-1.5c-2.1-1.6-3.4-2.6-4.2-3.4c-0.1-0.1-0.1-0.1-0.2-0.2c-1.9-2-3-4-3.3-7.9c0-0.6-0.1-1-0.2-1.2
			c-5.9-4.7-68.6-53.7-75.2-58.7c-0.6-0.1-2.4-0.1-6.2,0.8c-6.8,1.7-15.9,5.3-18.2,6.7c-0.4,0.2-1,0.6-1.9,1.1
			c-4.7,2.6-17,9.5-26.2,23.8c0,1.1,0.2,3.1,0.4,4.3c0.1,0.8,0.2,1.6,0.3,2.3c0.3,3.1,0.5,10.9-3.3,15.1
			c-1.7,2.1-15.9,22.2-22.7,31.9c-5,7.1-6.3,9-6.6,9.4c-3.7,4.9-9.6,6.3-14.8,3.6c-0.6-0.3-1.5-0.8-2.4-1.1
			c-5.3,10.2-11.1,22.1-12.2,25.8c-2.1,7.2-3.7,17.4-2.7,23.9c0.9,5.8,2.1,8.3,3,10.3c0.4,0.8,0.7,1.5,1.1,2.4
			c1.5,3.9,1.7,10-1.2,14.6C42.3,371.4,39,373.4,35.2,373.4L35.2,373.4z M13.5,345.1c5.1,5.9,12,11,20.6,14.9
			c0.2-0.7,0.2-1.8-0.1-2.6c-0.1-0.4-0.4-0.8-0.6-1.4c-1.2-2.5-3-6.2-4.1-13.8c-1.8-11.5,2.2-26.5,3.1-29.4
			c1.9-6.5,11.2-24.6,14.1-30c2.2-4.1,6.3-6.2,11.1-5.4c2.4,0.4,4.7,1.4,6.6,2.4c0.9-1.2,3.4-4.8,6-8.6
			c15.8-22.4,21.7-30.7,23.3-32.7c0.3-0.9,0.6-3.3,0.4-5.8c-0.1-0.6-0.1-1.3-0.2-2c-0.5-4.4-1-8.5,1-11.7c11-17.7,25.8-26,31.4-29.1
			c0.6-0.3,1.1-0.6,1.4-0.8c4.4-2.7,15.1-6.5,21.9-8.2c7.3-1.8,12.4-1.6,16,0.6c-1.4-1.1-3.1-2.4-4.8-3.7c-5.2-4-10.5-8.1-13-10.3
			c-0.6,0.5-1.2,1-1.8,1.6c-1.1,1-2.4,2.2-4.4,3.7c0,0,0,0-0.1,0.1c-0.4,0.3-0.7,0.6-1.1,1c-2.8,2.7-5.9,5.1-16.8,9.2
			c-11.2,4.2-24.3,17.2-32.1,25l-1.4,1.4c-8,8-20.9,23.3-28.1,33.5c-1.9,2.9-10.9,17.1-18.8,31.9c-7.6,14.3-14.3,29.5-16.1,33.7
			c-2.5,6-4.5,14.9-4.8,19.3C21.5,335.6,18.7,341.3,13.5,345.1C13.5,345.1,13.5,345.1,13.5,345.1L13.5,345.1z M256.9,249.6
			c2.5,0,5,0.9,6.9,2.5c0.3,0.3,2.1,1.6,3.9,2.8c5.1,3.7,13.6,9.9,18.9,14.3c6.6,5.5,33,19.4,37.7,21.1c2.9,1.1,19.5,6.7,34,11.7
			c10.8,3.7,21,7.2,24.9,8.6c6.8,2.4,16.9,2.6,28.4,0.6c4.8-0.8,14.6-3.7,34.5-12.8c8.3-3.7,22.9-13.3,26.7-16.5
			c4.2-3.6,34.2-29.1,38.7-33c-1.2-1.2-2.1-1.9-4.3-3.4l-0.1,0c-2.4-1.5-13.5-7.1-17.9-9c-1.4-0.6-1.9-0.7-3.6,0.4
			c-0.2,0.7-0.4,2.1-0.4,4.2c0,0.4,0,0.8,0,1c0,0.7-0.1,1.4-0.2,2.5c-0.3,2.6-0.7,6.4-0.6,10.7c0.1,4.7-1.8,8.7-5.4,10.8
			c-4.1,2.5-9.2,1.9-12.4,0.1c-2.2-1.2-9-6.1-2.6-17.9c1.4-2.6,2.5-9.6,2.6-13.2c0.1-5.8,3.8-10.3,7.1-14.2l0.4-0.4
			c2.8-3.2,3.9-4.8,3.5-7c-0.2-0.8-0.4-1.1-0.4-1.1c0,0-0.6-0.5-3.2-0.3c-4.4,0.2-58,7-75.9,10c-6.5,1-14.1,3.7-14.3,10.6
			c0,1.2,0.1,2.8,0.2,4.6c0.2,4.1,0.5,9.1-0.3,14.5c-2.7,17.1-15,30.3-30.5,33c-15.2,2.6-26.4-2.6-31.8-6c-2.5-1.6-7.6-5.4-13.4-9.8
			c-7.6-5.8-17-12.9-20.9-15.1c-2.5-1.4-7.7-3.2-13.2-5.1c-8.7-3.1-18.5-6.5-25.6-10.8c-2.7-1.7-6.1-4.4-9.6-7.2
			c-3.2-2.6-6.5-5.2-9.4-7.2c-5.9-4-32.9-20.3-39.5-24c-2.4-1.3-5-3-7.7-4.9c22.2,17.3,59.5,46.4,60.8,47.6c2.4,2.2,3.7,5.3,4,9.5
			c0,0.1,0,0.2,0,0.2c0.5,0.4,1.5,1.2,2.3,1.8c0.4-0.4,0.7-0.8,1-1.1C251.9,250.5,254.4,249.6,256.9,249.6L256.9,249.6z
			 M471.4,256.1L471.4,256.1L471.4,256.1z"/>
	</g>
	<rect class="st1" width="524.4" height="524.4"/>
</g>
</svg>
