<svg width="100" height="100" viewBox="0 0 100 100" fill="none" xmlns="http://www.w3.org/2000/svg">
<g clip-path="url(#clip0_429_1485)">
<path d="M6.33105 37.7192L7.01755 37.0137L10.0305 37.2616L10.4691 40.2364L9.83983 40.942L9.38216 37.929L6.33105 37.7192Z" fill="white"/>
<path d="M7.64648 36.3081L8.29484 35.6025L11.3269 35.8504L11.7655 38.8825L11.1362 39.569L10.6785 36.556L7.64648 36.3081Z" fill="white"/>
<path d="M6.71255 71.2053C6.38837 71.2053 6.02605 71.129 5.6828 70.9574C3.52795 69.9848 1.79264 68.7072 0.514987 67.1435C0.133599 66.6667 -0.0380259 66.0756 0.0382517 65.5226C0.09546 65.0649 0.343362 64.4166 1.16335 63.8254C1.41125 63.6538 1.69729 63.3296 1.7545 62.4143C1.81171 61.3464 2.23123 59.3632 2.84146 57.9139C3.1847 57.0939 4.51956 54.1 5.98791 51.2968C7.5516 48.3601 9.34412 45.5378 9.70644 44.9848L9.72551 44.9658C11.1939 42.8872 13.7301 39.8742 15.3701 38.2343L15.637 37.9482C17.277 36.3273 20.0039 33.6195 22.6355 32.6278C24.428 31.9604 24.7331 31.6553 25.0192 31.3883C25.1145 31.293 25.248 31.1786 25.4006 31.0642C25.7247 30.8162 25.9345 30.6256 26.1252 30.4349C26.2587 30.3014 26.3922 30.206 26.5257 30.0916C27.9749 28.8712 29.2335 29.6912 29.6912 30.1107C30.0916 30.4539 31.1405 31.2739 32.0749 31.9986C32.7423 32.5134 33.3907 33.0092 33.7148 33.2953C35.2213 34.5348 36.499 35.4692 37.319 35.9078C38.6538 36.6324 43.8598 39.7979 45.0421 40.5989C45.6714 41.0184 46.3579 41.5714 47.0062 42.0863C47.5974 42.563 48.1885 43.0397 48.5699 43.2686C49.7141 43.9551 51.4685 44.5844 53.0131 45.1183C54.1954 45.5378 55.2251 45.9002 55.8926 46.2625C56.7888 46.7583 58.5051 48.055 60.1832 49.3327C61.1939 50.1145 62.1664 50.8391 62.5669 51.087C63.2915 51.5447 64.798 52.2503 66.9147 51.888C69.1458 51.5066 70.4425 49.4852 70.7286 47.6355C70.843 46.8727 70.8048 46.0718 70.7667 45.3853C70.7476 45.0039 70.7286 44.6606 70.7286 44.3365C70.7476 43.2495 71.2625 40.637 75.515 39.9505C78.814 39.3975 89.1877 38.0817 90.2556 38.0245C92.6393 37.891 93.2877 39.3593 93.4784 40.2365C93.6691 41.19 93.4212 41.9719 93.0779 42.5821C93.4402 42.6011 93.8216 42.6774 94.2602 42.8681C95.1183 43.2304 97.4257 44.3746 98.055 44.7751L98.0741 44.7941L98.0932 44.8132C98.6462 45.1755 98.9894 45.4234 99.4662 45.9764C99.8666 46.4341 100.057 47.0634 100 47.6927C99.9429 48.322 99.6569 48.9131 99.1801 49.2945C98.7034 49.695 92.563 54.9391 91.724 55.6446C90.7896 56.4455 87.8148 58.3716 86.0604 59.1725C82.8376 60.6408 80.4158 61.518 78.8903 61.785C77.0596 62.1092 74.409 62.338 72.235 61.5752C71.4913 61.3082 69.5463 60.6599 67.5058 59.9543C64.5691 58.9627 61.5371 57.9139 60.965 57.7041C59.8209 57.2846 54.5768 54.5386 53.0512 53.2609C52.1168 52.4791 50.5341 51.3159 49.5806 50.6294C49.3708 50.4768 49.2183 50.3624 49.0848 50.2671C49.0085 50.3624 48.9513 50.4387 48.8941 50.4959C48.875 50.515 48.8559 50.534 48.8369 50.5531C48.2457 51.2205 47.216 51.2968 46.4532 50.7056C46.4341 50.7056 46.4341 50.6866 46.4151 50.6866C46.3197 50.6103 46.1862 50.515 46.0337 50.4005C45.6332 50.0954 45.3853 49.9047 45.2328 49.7522C45.2137 49.7331 45.2137 49.7331 45.1946 49.714C44.8323 49.3327 44.6225 48.9513 44.5653 48.2076C44.5653 48.0931 44.5463 48.0169 44.5272 47.9787C43.4021 47.0825 31.4456 37.7384 30.187 36.785C30.0726 36.7659 29.7293 36.7659 29.0047 36.9375C27.708 37.2617 25.9727 37.9482 25.5341 38.2152C25.4578 38.2533 25.3434 38.3296 25.1717 38.4249C24.2755 38.9208 21.9299 40.2365 20.1756 42.9635C20.1756 43.1732 20.2137 43.5546 20.2518 43.7835C20.2709 43.936 20.29 44.0886 20.309 44.222C20.3662 44.8132 20.4044 46.3006 19.6797 47.1015C19.3556 47.502 16.6477 51.3349 15.351 53.1847C14.3975 54.5386 14.1496 54.9009 14.0924 54.9772C13.3868 55.9116 12.2617 56.1786 11.2701 55.6637C11.1557 55.6065 10.9841 55.5111 10.8125 55.4539C9.80179 57.399 8.69576 59.6683 8.486 60.3738C8.08554 61.7468 7.78043 63.6919 7.97113 64.9314C8.14275 66.0375 8.37158 66.5142 8.54321 66.8956C8.61949 67.0481 8.6767 67.1816 8.75297 67.3532C9.03901 68.097 9.07715 69.2602 8.52414 70.1374C8.06647 70.8239 7.43718 71.2053 6.71255 71.2053ZM2.57448 65.8086C3.54702 66.9337 4.86281 67.9063 6.50278 68.65C6.54092 68.5165 6.54092 68.3067 6.48371 68.1542C6.46464 68.0779 6.40744 68.0016 6.3693 67.8872C6.14046 67.4105 5.79721 66.7049 5.58745 65.2556C5.2442 63.0626 6.00698 60.2022 6.1786 59.6492C6.54092 58.4097 8.31438 54.9581 8.86739 53.9284C9.28692 53.1465 10.0688 52.7461 10.9841 52.8986C11.4418 52.9749 11.8804 53.1656 12.2427 53.3563C12.4143 53.1275 12.891 52.441 13.3868 51.7163C16.3998 47.4448 17.5249 45.862 17.83 45.4806C17.8872 45.309 17.9444 44.8513 17.9063 44.3746C17.8872 44.2602 17.8872 44.1267 17.8682 43.9932C17.7728 43.1542 17.6775 42.3723 18.0588 41.7621C20.1565 38.3868 22.9788 36.804 24.0466 36.2129C24.1611 36.1557 24.2564 36.0985 24.3136 36.0603C25.1527 35.5455 27.1931 34.8208 28.4898 34.4966C29.8819 34.1534 30.8544 34.1915 31.5409 34.6111C31.2739 34.4013 30.9498 34.1534 30.6256 33.9055C29.634 33.1427 28.6233 32.3609 28.1466 31.9413C28.0322 32.0367 27.9177 32.132 27.8033 32.2465C27.5936 32.4372 27.3456 32.666 26.9643 32.952C26.9643 32.952 26.9643 32.952 26.9452 32.9711C26.8689 33.0283 26.8117 33.0855 26.7354 33.1618C26.2015 33.6767 25.6103 34.1343 23.5318 34.9162C21.396 35.7171 18.8979 38.1961 17.4105 39.6835L17.1435 39.9505C15.618 41.4761 13.158 44.3937 11.785 46.3388C11.4227 46.8918 9.70644 49.5996 8.19996 52.4219C6.75068 55.1488 5.47303 58.0474 5.12978 58.8483C4.65305 59.9925 4.27166 61.6896 4.21445 62.5287C4.10004 63.997 3.56609 65.084 2.57448 65.8086ZM48.9894 47.5973C49.4662 47.5973 49.9429 47.769 50.3052 48.0741C50.3624 48.1313 50.7057 48.3792 51.0489 48.608C52.0215 49.3136 53.6424 50.4959 54.653 51.3349C55.9116 52.3838 60.9459 55.0344 61.8422 55.3586C62.3952 55.5683 65.5607 56.6362 68.3258 57.5897C70.3853 58.2953 72.3304 58.9627 73.0741 59.2297C74.3708 59.6873 76.2968 59.7255 78.4898 59.3441C79.4051 59.1915 81.2739 58.6385 85.0688 56.9032C86.6515 56.1976 89.4357 54.367 90.1603 53.7568C90.9612 53.0703 96.682 48.2076 97.5402 47.4638C97.3113 47.235 97.1397 47.1015 96.7202 46.8155H96.7011C96.2434 46.5294 94.1267 45.4616 93.2877 45.0992C93.0207 44.9848 92.9254 44.9658 92.6012 45.1755C92.563 45.309 92.5249 45.576 92.5249 45.9764C92.5249 46.0527 92.5249 46.129 92.5249 46.1671C92.5249 46.3006 92.5058 46.4341 92.4868 46.6439C92.4296 47.1397 92.3533 47.8643 92.3723 48.6843C92.3914 49.5806 92.0291 50.3433 91.3426 50.7438C90.5607 51.2205 89.5882 51.1061 88.978 50.7629C88.5585 50.534 87.2617 49.5996 88.4822 47.3494C88.7492 46.8536 88.9589 45.5188 88.978 44.8323C88.9971 43.7262 89.7026 42.8681 90.3319 42.1244L90.4082 42.0481C90.9421 41.4379 91.1519 41.1328 91.0756 40.7133C91.0375 40.5607 90.9993 40.5035 90.9993 40.5035C90.9993 40.5035 90.8849 40.4082 90.3891 40.4463C89.5501 40.4844 79.3289 41.7812 75.9154 42.3532C74.6759 42.5439 73.2267 43.0588 73.1885 44.3746C73.1885 44.6034 73.2076 44.9085 73.2267 45.2518C73.2648 46.0336 73.322 46.9871 73.1694 48.0169C72.6546 51.2777 70.309 53.7949 67.3533 54.3098C64.4547 54.8056 62.3189 53.814 61.2892 53.1656C60.8125 52.8605 59.8399 52.1359 58.7339 51.2968C57.2846 50.1908 55.4921 48.8368 54.7484 48.4173C54.2717 48.1503 53.28 47.8071 52.2312 47.4448C50.5722 46.8536 48.7034 46.2053 47.3495 45.3853C46.8346 45.0611 46.1862 44.5462 45.5188 44.0123C44.9086 43.5165 44.2793 43.0207 43.7263 42.6393C42.6012 41.8765 37.4524 38.7682 36.1939 38.0626C35.7362 37.8147 35.2404 37.4905 34.7255 37.1282C38.9589 40.4272 46.0718 45.9764 46.3197 46.2053C46.7774 46.6248 47.0253 47.2159 47.0825 48.0169C47.0825 48.0359 47.0825 48.055 47.0825 48.055C47.1778 48.1313 47.3685 48.2838 47.5211 48.3982C47.5974 48.322 47.6546 48.2457 47.7118 48.1885C48.036 47.769 48.5127 47.5973 48.9894 47.5973Z" fill="white"/>
</g>
<defs>
<clipPath id="clip0_429_1485">
<rect width="100" height="100" fill="white"/>
</clipPath>
</defs>
</svg>
