<?xml version="1.0" encoding="utf-8"?>
<!-- Generator: Adobe Illustrator 28.2.0, SVG Export Plug-In . SVG Version: 6.00 Build 0)  -->
<svg version="1.1" id="uuid-92db460e-1994-44de-89aa-fecedee1087a"
	 xmlns="http://www.w3.org/2000/svg" xmlns:xlink="http://www.w3.org/1999/xlink" x="0px" y="0px" viewBox="0 0 524.4 524.4"
	 style="enable-background:new 0 0 524.4 524.4;" xml:space="preserve">
<style type="text/css">
	.st0{fill:none;}
	.st1{fill:#241758;}
</style>
<g id="uuid-04cf9b01-7b3b-4f64-aa1c-bb1602c5a318">
	<rect class="st0" width="524.4" height="524.4"/>
	<g>
		<g id="uuid-809508ee-a322-428d-81dc-bcbeaf8a947e">
			<g>
				<polygon class="st1" points="408.5,416.9 403.4,416.7 393.8,404 404,391.9 408.9,392 398.7,404.3 				"/>
				<polygon class="st1" points="398.4,416.7 393.4,416.6 383.8,403.9 394.1,391.6 399.1,391.7 388.8,404 				"/>
			</g>
		</g>
		<g id="uuid-78c783ef-3f56-4092-82e7-8459a898d415">
			<path class="st1" d="M139.2,379.6c-16.9,0-30.7-2.8-42-8.5c-23.9-12.1-42.6-38.9-46.8-66.5c-1.6-10.7-11.7-73.1-13.6-84.4
				c-9.1-1.2-11.5-8.4-12.1-12.7c-0.7-5.2-1.7-9.5-4.5-14.9c-1.9-3.6-5.9-13.2-11.4-26.3c-2.8-6.7-5.7-13.5-6.5-15.2
				c-2.2-4.4-3.9-14,0.1-22.3c2-4.1,6.3-9.4,15.3-11.3c14.7-3,48.2-9.1,52.8-9.8c3.8-0.5,12.8-1.8,19.5,8.5
				c1.1,1.8,4.2,6.4,8.1,12.2c9.1,13.7,21.6,32.4,24.6,37.4c3.9,6.6,16.6,22.2,31.2,36.9c14.8,15.1,83.3,80.7,86.2,83.5
				c0.6,0.6,1.1,1.1,1.5,1.6c0.2,0.3,0.6,0.6,0.8,0.8c0.3,0,0.8-0.1,1.8-0.3c7.9-2.3,14.2-3.5,23.6,0.4c7.6,3.2,11.3,7.6,13.2,10
				c0.2,0.3,0.4,0.5,0.6,0.8c1.4,1.4,1.6,1.4,2,1.4c1.8,0,48.7,0.9,120,2.4c47.9,1,93,1.9,96.5,1.9c5.7,0.1,11.6,2.6,16.3,6.9
				c5.2,4.8,8.1,11.3,8.1,18.2c0,14-8.6,28.1-21.4,35c-16.8,9.2-41.9,13.6-76.7,13.6c-12.5-0.1-18.2-0.1-18.2-0.1H203.2
				c-3.9,0-7-1.2-9.1-3.4c-1.9-2-2.5-4.3-2.7-6.2c-0.2,0.1-0.5,0.2-0.8,0.3c-4.7,2-19,8.3-41,9.6C146,379.5,142.5,379.6,139.2,379.6
				L139.2,379.6z M39.2,205.8C39.2,205.8,39.3,205.8,39.2,205.8c6.1,0.2,10.1,3.6,11.6,9.5c0.8,3.3,13,79.9,14.1,87.1
				c3.4,22.9,19.4,45.7,38.9,55.7c11,5.5,26,7.8,44.8,6.6c19.5-1.2,32-6.6,36.1-8.4c0.4-0.2,0.7-0.3,1-0.4c3.1-1.3,6.8-2.6,11-2.6
				c2.5,0,4.7,1,6.4,2.7c2.5,2.6,2.9,6,2.9,8.4h202.1c0.1,0,5.7,0,18.3,0.1c31.8,0,55.2-4,69.7-11.9c8.1-4.4,13.8-13.5,13.8-22.2
				c0-6.7-6.6-10.5-10-10.5c-3.5,0-48.7-1-96.6-1.9c-55.1-1.1-117.5-2.4-119.7-2.4c-6.6,0-10.5-3.9-12.4-5.7l-0.1-0.2
				c-0.4-0.4-0.8-0.9-1.3-1.5c-1.6-1.9-3.3-4-7.6-5.8c-5.1-2.1-7.6-1.7-14,0.2c-10.4,3-15.1-2.2-17.4-4.7c-0.3-0.3-0.5-0.6-0.8-0.8
				c-2.9-2.8-71.5-68.6-86.5-83.8c-16-16.3-28.9-32.3-33.3-39.7c-2.8-4.8-15.7-24.1-24.2-36.8c-3.9-5.9-7-10.5-8.2-12.4
				c-1.6-2.4-2.2-2.4-5.2-2c-3.9,0.5-36.9,6.5-51.9,9.6c-3.4,0.7-4.5,2.2-5.1,3.4c-1.6,3.3-0.6,8.3-0.1,9.4c0.9,1.9,3.2,7.3,6.8,16
				c4.1,9.8,9.2,21.9,10.9,25.3c3.9,7.6,5.2,13.9,6,19.5C39.2,205.6,39.2,205.7,39.2,205.8L39.2,205.8z"/>
		</g>
	</g>
</g>
</svg>
