<svg width="100" height="100" viewBox="0 0 100 100" fill="none" xmlns="http://www.w3.org/2000/svg">
<g clip-path="url(#clip0_429_1553)">
<path d="M20.4586 90.6095C15.342 90.6095 10.8253 89.3204 9.12081 88.7663C6.44165 87.9079 0 83.0699 0 76.2029C0 74.3544 0.259367 70.8144 1.99669 67.8726C2.34037 67.2899 33.3887 14.6448 34.6321 12.4181C35.671 10.5571 37.0428 9.8807 38.0108 9.64088C39.053 9.38293 40.7326 9.35872 42.8132 10.7123C44.3056 11.6829 45.1394 13.2702 45.1608 15.1819C45.1767 16.5854 44.7559 17.8902 44.3319 18.5607L44.3122 18.5911C42.8549 20.7921 39.4009 26.6929 38.5751 28.2781C37.7067 29.9002 36.653 32.7595 36.37 35.2448C36.1353 37.3059 36.0442 37.9376 35.9838 38.3557C35.9637 38.4956 35.947 38.6102 35.9288 38.7559C35.7891 39.9216 34.6657 42.3341 31.4219 43.0633C29.1973 43.5634 26.0951 44.2868 24.6742 44.6794C23.8369 44.9107 23.9357 46.0723 24.017 46.5609C24.0446 46.7272 24.1218 46.975 24.4712 47.2073C25.0972 47.6236 26.1798 47.7318 27.2294 47.4818L27.5701 47.4037C30.2124 46.7969 35.7104 45.5351 41.9509 45.9985C45.3035 46.2478 48.4197 47.4817 51.4333 48.675C54.1679 49.758 56.7535 50.7818 58.9639 50.7818C58.9978 50.7818 59.0316 50.7815 59.0654 50.7811C62.8511 50.72 66.4699 48.7619 68.209 47.8209C68.3514 47.7438 68.4805 47.674 68.5958 47.6128C70.0441 46.8421 73.991 45.1541 79.346 46.119C83.9155 46.9421 89.2355 48.063 91.5155 48.5761C94.0391 49.144 98.4669 51.966 99.6044 57.1206C100.225 59.8985 99.9974 64.1847 95.3829 68.8051L95.1538 69.0339C93.9753 70.2097 90.8446 73.3331 89.366 75.6083L88.9025 76.3147C86.7385 79.6146 85.1614 82.0057 84.611 82.6601C84.0968 83.2867 82.7454 84.9146 80.1308 84.7187L80.105 84.7166C78.3328 84.5575 72.4389 83.4026 69.1259 81.091C66.0955 78.9591 63.6001 75.8828 62.975 74.7582C61.9075 72.8916 62.803 70.4621 64.3151 69.3578L64.4147 69.285C65.7177 68.3303 67.5023 67.0227 72.26 67.0227C76.5366 67.0227 77.5376 66.8718 79.9612 66.2261C82.9016 65.4354 83.0498 64.2636 83.1055 63.8224C83.3906 61.6913 82.8099 60.7799 80.8879 60.327C77.5571 59.542 71.4521 58.1799 67.987 57.875C64.5064 57.5689 57.8517 57.6393 53.4939 58.2322C48.8737 58.8609 42.1977 60.1829 39.7569 60.9526C37.2739 61.7351 35.1176 62.62 34.6495 62.8254C33.8594 63.2053 32.9291 63.2416 32.1505 62.9217C31.3618 62.5974 30.7599 61.9262 30.4559 61.0318L30.4051 60.8808C29.7712 58.9905 29.2084 58.4295 28.0958 58.5756C26.832 58.7401 26.6952 59.1642 26.6987 60.7644L26.6988 60.8891C26.6988 61.4849 26.8646 66.1815 27.0248 70.7235C27.221 76.2806 27.4062 81.5294 27.4062 82.4064C27.4062 87.543 24.809 90.6095 20.4586 90.6095ZM39.1692 12.9634C39.0527 12.9634 38.9431 12.9759 38.8408 13.0013C38.3986 13.1108 37.9978 13.483 37.6491 14.1075C36.3854 16.3708 6.25445 67.4602 4.97238 69.6337L4.97191 69.6347C3.65352 71.8672 3.45655 74.7081 3.45655 76.2029C3.45655 81.4602 8.8125 85.0331 10.1811 85.4715C11.396 85.8665 15.7061 87.1478 20.4586 87.1478C21.322 87.1478 23.9496 87.1478 23.9496 82.4064C23.9496 81.5907 23.7481 75.8821 23.5704 70.8456C23.3662 65.0593 23.2422 61.5019 23.2422 60.8891L23.242 60.772C23.2393 59.522 23.231 55.7183 27.6499 55.1429C29.4912 54.9035 31.0688 55.5068 32.2144 56.8889C32.9538 57.781 33.348 58.8033 33.5925 59.5145C34.4588 59.1532 36.4491 58.3661 38.7188 57.6506C41.5973 56.7431 48.6479 55.3982 53.0285 54.8022C57.7648 54.1576 64.6376 54.1055 68.2895 54.4266C71.7858 54.7343 77.5009 55.9727 81.6796 56.9574C83.7912 57.4549 87.2294 59.0665 86.533 64.2696C86.206 66.8574 84.2947 68.6451 80.8538 69.5703C77.9672 70.3395 76.6025 70.4845 72.26 70.4845C68.6317 70.4845 67.4756 71.3315 66.4556 72.0787L66.352 72.1546C65.9535 72.4456 65.9525 72.9357 65.9892 73.0636L65.9952 73.0745C66.2827 73.599 68.3726 76.3307 71.1072 78.2546C73.6516 80.0298 78.7034 81.1119 80.4006 81.2675C81.1196 81.3197 81.4443 81.0673 81.9482 80.4527L81.968 80.4293C82.4096 79.9098 84.6655 76.4698 86.0133 74.4145L86.4732 73.7135C88.1466 71.1388 91.3474 67.9453 92.7142 66.5815L92.9388 66.3573C95.7516 63.5409 96.8591 60.6862 96.2301 57.8721C95.4158 54.1808 92.1312 52.2626 90.7576 51.9535C88.5058 51.4466 83.2501 50.3394 78.7339 49.5259C74.4426 48.7529 71.348 50.0681 70.2172 50.6698C70.1086 50.7276 69.9864 50.7937 69.8521 50.8665C68.0265 51.8543 63.7511 54.1675 59.118 54.2424C56.1928 54.2826 53.2662 53.1233 50.1622 51.8942C47.3894 50.7962 44.5223 49.6609 41.6951 49.4506C35.9743 49.0255 30.82 50.209 28.3426 50.7777L28.0128 50.8533C26.032 51.3244 23.9877 51.041 22.559 50.091C21.5012 49.3877 20.8081 48.3361 20.6074 47.13C20.1394 44.3177 21.4043 41.9918 23.7549 41.3424C25.2337 40.9338 28.2939 40.2187 30.6648 39.6857C32.2036 39.3398 32.4789 38.3978 32.5006 38.3134C32.5217 38.1462 32.5402 38.0169 32.5628 37.8606C32.6202 37.463 32.7068 36.8621 32.9356 34.8527C33.2719 31.8986 34.4759 28.6091 35.5196 26.6595C36.3825 25.003 39.8665 19.0472 41.4124 16.7068C41.4423 16.6355 42.3071 14.5107 40.9305 13.6153C40.2732 13.1878 39.662 12.9634 39.1692 12.9634ZM33.1492 59.7069C33.149 59.7071 33.1488 59.7072 33.1485 59.7072L33.1492 59.7069ZM32.4994 38.3226C32.4988 38.3269 32.4983 38.331 32.4978 38.335C32.4984 38.3308 32.4989 38.3266 32.4994 38.3226Z" fill="white"/>
<path d="M14.6816 31.6462L15.1499 30.7865L18.1295 30.2366L19.3242 33.0008L18.8935 33.8403L17.6677 31.0541L14.6816 31.6462Z" fill="white"/>
<path d="M15.5801 29.9471L16.0218 29.092L19.0013 28.542L20.2161 31.3438L19.7854 32.1834L18.5707 29.3816L15.5801 29.9471Z" fill="white"/>
</g>
<defs>
<clipPath id="clip0_429_1553">
<rect width="100" height="100" fill="white"/>
</clipPath>
</defs>
</svg>
