<?xml version="1.0" encoding="utf-8"?>
<!-- Generator: Adobe Illustrator 28.2.0, SVG Export Plug-In . SVG Version: 6.00 Build 0)  -->
<svg version="1.1" id="uuid-1a3423d6-f5fa-4018-8f7d-988ddc12ce24"
	 xmlns="http://www.w3.org/2000/svg" xmlns:xlink="http://www.w3.org/1999/xlink" x="0px" y="0px" viewBox="0 0 524.4 524.4"
	 style="enable-background:new 0 0 524.4 524.4;" xml:space="preserve">
<style type="text/css">
	.st0{fill:#241758;}
	.st1{fill:none;}
</style>
<g id="uuid-298a2f04-9bb2-4d4c-a5e8-979381a7da30">
	<g id="uuid-6eee0cd1-f942-4902-b114-ad70e5fb952e">
		<g>
			<polygon class="st0" points="206.2,418.2 201.1,418.1 191.3,405.5 201.2,393.3 206.2,393.2 196.2,405.7 			"/>
			<polygon class="st0" points="196.1,418.1 191.1,418.1 181.3,405.5 191.4,393.1 196.3,393.1 186.2,405.5 			"/>
		</g>
	</g>
	<g id="uuid-e8751171-cb97-43dd-bcb7-9992a890d76a">
		<path class="st0" d="M483.9,452.6H74c-26.7,0-33.7-21.2-33.7-32.4c0-13.3,7.1-24.5,20.1-31.4c5.2-2.8,11.7-6.2,18.6-9.9
			c13.1-6.9,27.9-14.7,33.7-18.4c7.2-4.7,8.4-5.7,8.4-15.5c0-8.5-7.8-13.8-14.4-16.7c-8.4-3.8-40.5-20.2-45-22.7
			c-5.5-3.1-13-11.1-16.5-21.3c-2.7-7.1-41.7-116.4-44-124.4c-3.5-12.4,0.4-28.6,14.5-34.4c11.5-4.7,30.8-11.8,38.5-14.2
			c11.4-3.6,28.1,2.2,33.8,16.4c3.7,9.2,26.5,70.4,29.1,81.7c0.8,3.6,3.7,4.8,5.9,4.7c1.8-0.1,4.1-0.9,4.6-4.6
			c0.9-6,4.3-37.4,7.3-65.1c2.4-21.9,4.4-40.7,5-45c1.9-13.4,11.8-28.7,33.8-27.4c8.3,0.5,27.6,3.8,28.6,24.7
			c0.3,7.2,3.6,23.1,10.9,35c7,11.6,23,26,29.8,32.2c1,0.9,1.8,1.7,2.4,2.2c5.9,5.5,12.2,13.7,8.9,28.9c-1.6,7.2-5.9,22.6-9.4,35
			c-2.1,7.6-4,14.2-4.7,16.8c-1.8,7.5-1.4,10.9,1.6,13.6c4,3.5,23.2,2.3,36.7-5c1.2-0.6,2.4-1.3,3.8-2c15.8-8.2,42.3-22,63.1-72.5
			c2.6-6.2,8.3-21.3,13.8-35.9c5.4-14.2,10.5-27.7,12.3-31.8c4.9-11.7,18.9-23.6,36-23.6h45.2c10.1,0,18.8,4.8,24.4,13.6
			c4.8,7.5,26.3,45.5,28.8,50.6c5.8,11.7,5.8,21.9,0,30.3c-5.1,7.4-63.1,78.2-65.6,81.2c-6.5,8-3,13.7-1.9,15.5
			c3.1,5,24.9,37.3,44.2,65.9c21.5,31.9,34.8,51.6,36.6,54.5c4.5,7.5,5.1,14.4,5.1,19c0.1,3.1-0.2,12.9-8.1,21.2
			C509.2,448.8,498.3,452.6,483.9,452.6L483.9,452.6z M61.3,126c-0.9,0-1.6,0.1-2.3,0.3c-7.3,2.3-26.4,9.3-37.4,13.8
			c-7.2,2.9-6,13-5.3,15.5c1.8,6.1,39.7,113,43.6,123.2l0.1,0.2c2.2,6.6,7.3,11.6,9.5,12.8c3.7,2.1,35.2,18.3,43.6,22
			c15.3,6.8,23.7,17.9,23.7,31.1c0,16.1-4.6,21.6-15.6,28.8c-6.4,4.1-20.9,11.8-35,19.1c-6.8,3.6-13.3,7-18.4,9.8
			c-7.8,4.2-11.8,10.1-11.8,17.6c0,3.9,1.3,16.6,17.9,16.6h409.9c9.7,0,17-2.2,21-6.4c3.9-4.1,3.8-9.2,3.8-9.8l0-0.4
			c0-4.4-0.9-7.7-2.9-11.1l-0.1-0.1c-1.5-2.5-19.8-29.7-36-53.7c-20.3-30.1-41.3-61.2-44.6-66.5c-6.6-10.8-5.5-23.1,3.2-33.8
			c4.7-5.7,60.4-73.8,64.7-80.1c1.6-2.3,2.9-6.2-1.1-14.4c-2.4-4.7-23.5-42.1-27.9-49.1c-2.8-4.3-6.4-6.4-11.2-6.4h-45.2
			c-10.8,0-19,8.2-21.4,14c-1.7,3.9-6.9,17.8-12,31.3c-5.6,14.7-11.3,29.9-14,36.3c-23,55.8-53.9,71.9-70.4,80.5
			c-1.3,0.7-2.5,1.3-3.5,1.9c-8.1,4.4-18.4,7.5-28.4,8.5c-8.2,0.8-19.3,0.5-26.2-5.4c-11.3-9.8-8-23.4-6.6-29.2
			c0.7-3,2.5-9.3,4.8-17.4c3.4-12.2,7.7-27.3,9.2-34c1.7-7.8-0.8-10.9-4.2-14c-0.6-0.5-1.3-1.2-2.3-2.1
			c-7.3-6.6-24.5-22.2-32.7-35.7c-9.5-15.7-12.8-34.6-13.2-42.5c-0.1-2.9-0.4-9-13.7-9.8c-5.7-0.3-15.5,1-17.2,13.8
			c-0.6,4.1-2.7,23.8-5,44.6c-3.2,29.2-6.4,59.5-7.4,65.8c-1.6,10.4-9.5,17.6-19.6,18c-10.5,0.4-19.5-6.6-21.9-17
			c-2.2-9.7-24.2-68.9-28.3-79.3C71.4,128.5,65.5,126,61.3,126L61.3,126z"/>
	</g>
	<rect x="0" class="st1" width="524.4" height="524.4"/>
	<rect x="0" class="st1" width="524.4" height="524.4"/>
	<rect x="0" class="st1" width="524.4" height="524.4"/>
	<rect x="0" class="st1" width="524.4" height="524.4"/>
</g>
</svg>
