<svg width="100" height="100" viewBox="0 0 100 100" fill="none" xmlns="http://www.w3.org/2000/svg">
<g clip-path="url(#clip0_429_1635)">
<path d="M39.3218 79.7483L38.3493 79.7292L36.4805 77.3265L38.3683 75L39.3218 74.981L37.4149 77.3646L39.3218 79.7483Z" fill="white"/>
<path d="M37.3955 79.7293H36.442L34.5732 77.3265L36.4993 74.9619H37.4337L35.5076 77.3265L37.3955 79.7293Z" fill="white"/>
<path d="M92.2772 86.3081H14.1117C9.02015 86.3081 7.68529 82.2653 7.68529 80.1296C7.68529 77.5933 9.03922 75.4576 11.5182 74.1418C12.5099 73.6078 13.7494 72.9595 15.0652 72.2539C17.5633 70.9381 20.3855 69.4507 21.4915 68.7451C22.8645 67.8489 23.0934 67.6582 23.0934 65.7894C23.0934 64.1685 21.606 63.1578 20.3474 62.6048C18.7456 61.8801 12.6243 58.7528 11.7661 58.276C10.7173 57.6849 9.28713 56.1593 8.6197 54.2142C8.10482 52.8603 0.667751 32.0174 0.229154 30.4919C-0.438275 28.1273 0.305432 25.038 2.99422 23.932C5.1872 23.0357 8.8676 21.6818 10.3359 21.2241C12.5099 20.5376 15.6944 21.6437 16.7814 24.3515C17.487 26.1059 21.8348 37.7764 22.3306 39.9312C22.4832 40.6177 23.0362 40.8466 23.4557 40.8275C23.7989 40.8084 24.2375 40.6559 24.3329 39.9503C24.5045 38.8061 25.1529 32.8183 25.725 27.5361C26.1826 23.3599 26.564 19.7749 26.6784 18.9549C27.0407 16.3996 28.9286 13.482 33.1239 13.7299C34.7067 13.8252 38.387 14.4545 38.5777 18.44C38.635 19.813 39.2642 22.845 40.6563 25.1143C41.9912 27.3264 45.0423 30.0724 46.339 31.2547C46.5297 31.4263 46.6822 31.5788 46.7967 31.6742C47.9218 32.723 49.1231 34.2867 48.4938 37.1852C48.1887 38.5582 47.3687 41.4949 46.7013 43.8595C46.3009 45.3088 45.9385 46.5674 45.805 47.0632C45.4618 48.4934 45.5381 49.1418 46.1102 49.6566C46.8729 50.3241 50.5343 50.0952 53.1086 48.7032C53.3375 48.5888 53.5663 48.4553 53.8333 48.3218C56.8462 46.7581 61.8996 44.1265 65.8661 34.4965C66.3619 33.3142 67.4488 30.4347 68.4977 27.6505C69.5274 24.9427 70.4999 22.3683 70.8432 21.5865C71.7776 19.3553 74.4473 17.0861 77.7082 17.0861H86.3276C88.2536 17.0861 89.9126 18.0014 90.9805 19.6795C91.8958 21.1097 95.9957 28.3561 96.4725 29.3286C97.5785 31.5598 97.5785 33.5048 96.4725 35.1067C95.4999 36.5178 84.4397 50.019 83.9629 50.591C82.7234 52.1166 83.3909 53.2035 83.6006 53.5468C84.1918 54.5003 88.3489 60.6597 92.0293 66.1135C96.1292 72.1967 98.6655 75.9534 99.0087 76.5064C99.8668 77.9366 99.9813 79.2524 99.9813 80.1296C100 80.7207 99.9431 82.5895 98.4366 84.1723C97.1018 85.5834 95.0232 86.3081 92.2772 86.3081ZM11.6899 24.0273C11.5182 24.0273 11.3848 24.0464 11.2513 24.0846C9.85921 24.5232 6.21695 25.858 4.11931 26.7161C2.74632 27.2692 2.97515 29.1952 3.10864 29.6719C3.45188 30.8351 10.6792 51.2203 11.4229 53.1654L11.442 53.2036C11.8615 54.4621 12.834 55.4156 13.2536 55.6444C13.9591 56.0449 19.966 59.1341 21.5678 59.8397C24.4854 61.1364 26.0873 63.2531 26.0873 65.7703C26.0873 68.8405 25.2101 69.8893 23.1124 71.2623C21.892 72.0441 19.1269 73.5125 16.4382 74.9045C15.1414 75.591 13.9019 76.2394 12.9294 76.7733C11.442 77.5743 10.6792 78.6994 10.6792 80.1296C10.6792 80.8733 10.9271 83.2951 14.0926 83.2951H92.2581C94.1079 83.2951 95.4999 82.8756 96.2627 82.0746C97.0064 81.2928 96.9874 80.3203 96.9874 80.2058V80.1296C96.9874 79.2905 96.8157 78.6612 96.4343 78.0129L96.4153 77.9938C96.1292 77.5171 92.6395 72.3302 89.5503 67.7535C85.6792 62.0136 81.6746 56.083 81.0453 55.0724C79.7867 53.0129 79.9965 50.6673 81.6555 48.6269C82.5518 47.5399 93.1735 34.5537 93.9935 33.3523C94.2986 32.9137 94.5465 32.17 93.7837 30.6063C93.326 29.71 89.3024 22.5781 88.4633 21.2432C87.9294 20.4232 87.2429 20.0228 86.3276 20.0228H77.7082C75.6487 20.0228 74.085 21.5865 73.6273 22.6925C73.3031 23.4362 72.3115 26.0868 71.339 28.6612C70.2711 31.4644 69.1842 34.363 68.6693 35.5834C64.2833 46.2241 58.3909 49.2943 55.2444 50.9343C54.9965 51.0678 54.7677 51.1822 54.577 51.2966C53.0324 52.1357 51.0682 52.7268 49.1613 52.9175C47.5976 53.0701 45.4809 53.0129 44.1651 51.8878C42.0102 50.019 42.6395 47.4255 42.9065 46.3195C43.04 45.7474 43.3832 44.546 43.8218 43.0014C44.4702 40.6749 45.2902 37.7955 45.5762 36.5178C45.9004 35.0304 45.4237 34.4392 44.7753 33.8481C44.6609 33.7528 44.5274 33.6193 44.3367 33.4476C42.9446 32.1891 39.6647 29.2142 38.101 26.6399C36.2894 23.646 35.6601 20.0418 35.5838 18.5354C35.5648 17.9823 35.5076 16.8191 32.9713 16.6666C31.8844 16.6093 30.0156 16.8573 29.6914 19.2981C29.577 20.08 29.1765 23.8367 28.7379 27.8031C28.1277 33.3714 27.5175 39.1494 27.3268 40.3508C27.0217 42.334 25.5152 43.707 23.5892 43.7833C21.5869 43.8595 19.8706 42.5247 19.413 40.5415C18.9935 38.6917 14.7982 27.4026 14.0163 25.4194C13.6159 24.5041 12.4908 24.0273 11.6899 24.0273Z" fill="white"/>
</g>
<defs>
<clipPath id="clip0_429_1635">
<rect width="100" height="100" fill="white"/>
</clipPath>
</defs>
</svg>
