<?xml version="1.0" encoding="utf-8"?>
<!-- Generator: Adobe Illustrator 28.2.0, SVG Export Plug-In . SVG Version: 6.00 Build 0)  -->
<svg version="1.1" id="uuid-26550234-9ba1-470a-a40c-b3b77cf86123"
	 xmlns="http://www.w3.org/2000/svg" xmlns:xlink="http://www.w3.org/1999/xlink" x="0px" y="0px" viewBox="0 0 524.4 524.4"
	 style="enable-background:new 0 0 524.4 524.4;" xml:space="preserve">
<style type="text/css">
	.st0{fill:#241758;}
	.st1{fill:none;}
</style>
<g id="uuid-e4d61afe-01db-4fe6-bac4-c917e047b718">
	<g id="uuid-8ae3a411-6b58-46b5-af50-4857a1939273">
		<g>
			<polygon class="st0" points="362.5,191.4 358.4,194.6 342.9,191.1 342.8,175.3 346.6,172.1 346.8,188.1 			"/>
			<polygon class="st0" points="354.6,197.7 350.7,201 335.2,197.5 335.1,181.4 338.9,178.3 339,194.3 			"/>
		</g>
	</g>
	<g id="uuid-b5d85ec5-a1dd-4928-a22e-31f2b337e496">
		<path class="st0" d="M18.3,417.6c-5.4,0-9.9-2.1-13.2-6.2c-5.3-6.6-5.6-12.4-4.8-16.1c1.6-7.8,8.3-12,10.4-13.1
			c3.1-1.6,27.3-12.5,46.9-20.8c8.2-3.5,16-6.6,21.1-8.7c2.8-1.1,5.7-2.3,6.3-2.6c8.5-4.3,23.7-4.1,26.7-4l0.2,0
			c4.2,0.1,8.5,0.2,14.7-2.2c13.5-5.2,21.3,4.2,23.9,7.3c2.5,3.1,7,5.6,9.3,5.2c3.4-0.5,13.1-4.5,17.4-6.6c5-2.3,5.2-2.9,5.3-4.6
			c0.2-3.3,1.2-9.8,4.4-12.9c0,0,0.1-0.1,0.1-0.1l0.1-0.1c1.6-1.6,6-5.7,12.2-9.6c9.6-5.9,16.2-4,22-2.4l0.5,0.1c0,0,0.1,0,0.1,0
			c2.6,0.8,7.8,1.6,13.7-1.6c5.6-3,8.1-8,8-16.3c0-7.2,1.9-9.1,8-11.5c2.5-1,8-3.9,13.9-7.4l3.6-2.1c8.7-5.1,25-14.7,32.8-19
			c5.5-3.1,12-3,17.8-2.9c1.7,0,3.4,0,4.8,0c2.2-0.1,4-0.6,5-1.1c-1.8-1.8-4.8-5.2-4.5-9.5c0.3-4.6,3.9-7.3,6-8.8
			c0.4-0.3,0.8-0.5,1.1-0.8c3.9-3.1,63.2-52,76.3-64.1c0.1-0.1,0.2-0.1,0.2-0.2c0.1-0.1,7.3-6,12.1-10.2c0,0,0.1-0.1,0.1-0.1
			c2.9-2.3,7.1-5.3,11.2-8.1c3.5-2.4,7-4.9,9.3-6.7c3.4-2.7,21.6-14.2,41.5-26.9c6.2-3.9,11.5-7.3,12.4-7.9c0.4-0.3,0.9-0.7,1.4-1
			c3.6-2.6,9.5-7,16.4-6.2c3.3,0.4,6.1,2,8.1,4.6c3.5,4.5,3.2,10.4,2.8,13.6c-0.6,4-4.2,16.2-8.5,30.6c-0.9,3.1-1.7,5.7-2.2,7.3
			c-5.3,18.3-18.9,37.2-39.6,54.7c-11.7,9.9-27.9,19.5-41.4,24.2c-12,4.2-34,1.8-50.4-0.9c-7.3-1.2-11.6,0.5-12.7,1
			c-0.1,0-0.2,0.1-0.2,0.1c-1.7,0.7-7.1,3.7-12,7.4c-2.9,2.2-4,4.7-6.1,10c-0.5,1.2-1,2.5-1.6,3.9c-4.8,11.4-8.9,12.7-18.4,13.2
			l-0.4,0c-10.3,0.6-25.9,5.4-35.4,11c-7.5,4.5-18.2,12.4-25.9,24.9c-10.6,17.1-33.5,26.3-42.3,27.9c-6.6,1.2-20.1,10-32,24
			c-11.2,13.2-24.7,18-31.1,20.3c-0.8,0.3-1.6,0.6-2,0.7c-7.3,3-25.4,5.4-31.9-7.1c-2.5-4.9-4.5-4.3-8.2-3.3l-0.7,0.2
			c-0.5,0.1-1.2,0.4-2.1,0.7c-4.3,1.5-11.5,4.1-22,2.2c-10.2-1.9-20.6-0.9-29.9,2.9c-8.7,3.5-18.7,14.4-22.3,20.6
			c-3.4,5.8-14.5,14.4-25.1,15.1C19.4,417.6,18.9,417.6,18.3,417.6L18.3,417.6z M109.3,357.2c-6.9,0-15.3,0.8-19.3,2.8
			c-0.9,0.5-2.9,1.2-7.2,3c-5.1,2-12.8,5.1-20.8,8.6c-20.1,8.6-43.5,19.1-46,20.4c-1.8,1-4.2,3-4.7,5.4c-0.4,2,0.5,4.3,2.6,6.9
			c0.8,1,2.1,2.2,5.2,2c6.4-0.5,14.4-6.6,16.2-9.6c4.4-7.7,16-20.6,27.8-25.4c11.4-4.6,23.9-5.8,36.2-3.5c7.5,1.4,12.5-0.4,16.1-1.7
			c1-0.4,2-0.7,2.9-1l0.6-0.2c4-1.1,14.5-4.1,21.2,9c2.7,5.2,14.4,3.2,17.6,1.9c0.7-0.3,1.6-0.6,2.5-0.9c5.5-2,17-6.1,26.3-17
			c0.3-0.3,0.5-0.6,0.8-0.9c-1.8,1.2-3.7,2.1-5.4,2.9c-0.1,0-14.1,6.6-20.6,7.5c-7.1,1-15.2-3.9-19.6-9.2c-3.4-4.1-6.1-5.9-11.2-3.9
			c-8.2,3.1-14.1,3-18.9,2.9l-0.3,0C110.7,357.2,110,357.2,109.3,357.2L109.3,357.2z M195,340.1c-0.4,0.8-1.2,3.2-1.3,5.6
			c-0.1,2.5-0.7,4.5-1.6,6.2c9.5-9.7,20.1-17.3,28.5-20.4c-0.7-0.2-1.3-0.3-1.9-0.5l-0.5-0.1c-4.9-1.4-7.6-2.2-13,1.1
			C200.2,335.2,196.5,338.7,195,340.1L195,340.1z M255,301.7c0,0.2,0,0.5,0,0.6c0,5.2-0.8,9.7-2.4,13.7c2.9-2.5,5.4-5.4,7.3-8.5
			c3.3-5.4,7.1-10.1,11-14c-6.4,3.7-12,6.7-15.1,7.9C255.6,301.5,255.2,301.6,255,301.7L255,301.7z M330.6,259.4
			C330.7,259.4,330.7,259.4,330.6,259.4C330.7,259.4,330.7,259.4,330.6,259.4z M330.7,257.9C330.7,257.9,330.7,257.9,330.7,257.9
			C330.7,257.9,330.7,257.9,330.7,257.9z M337,249.8c0.3,0.3,0.7,0.7,1.2,1.2c1.3,1.2,2.3,2.7,2.9,4.4c2.1-5.4,4.2-10,9.5-14
			c5.3-3.9,11.4-7.5,14.4-8.7c3-1.4,9.4-3.4,19.1-1.8c21.1,3.5,37.4,4,44.8,1.4c12.1-4.3,27.3-13.2,37.8-22.2
			c18.9-16.1,31.4-33.1,36.1-49.3c0.5-1.7,1.3-4.3,2.2-7.4c2.7-8.9,7.6-25.4,8.1-28.9c0.4-2.6-0.1-4.5-0.6-5.2
			c-0.1-0.1-0.2-0.2-0.6-0.3c-2.4-0.3-5.9,2.3-8.3,4c-0.7,0.5-1.3,0.9-1.8,1.3c-1,0.7-5,3.2-12.7,8.1c-13,8.3-37.3,23.7-40.6,26.2
			c-2.5,2-6,4.4-9.8,7.1c-3.9,2.8-8,5.6-10.6,7.7c-4.6,3.9-11.1,9.3-12.1,10.1c-13.9,12.8-72.9,61.5-76.8,64.5
			c-0.4,0.3-1,0.7-1.5,1.1C337.6,249.4,337.3,249.6,337,249.8L337,249.8z"/>
	</g>
	<rect class="st1" width="524.4" height="524.4"/>
	<rect class="st1" width="524.4" height="524.4"/>
	<rect class="st1" width="524.4" height="524.4"/>
	<rect class="st1" width="524.4" height="524.4"/>
</g>
</svg>
