<svg width="100" height="100" viewBox="0 0 100 100" fill="none" xmlns="http://www.w3.org/2000/svg">
<g clip-path="url(#clip0_429_1465)">
<path d="M69.1278 36.4988L68.3459 37.109L65.3902 36.4415L65.3711 33.4286L66.0957 32.8184L66.1339 35.8695L69.1278 36.4988Z" fill="white"/>
<path d="M67.6209 37.7002L66.8772 38.3295L63.9214 37.6621L63.9023 34.5919L64.627 34.0007L64.646 37.0518L67.6209 37.7002Z" fill="white"/>
<path d="M3.4901 79.6339C2.46035 79.6339 1.60223 79.2334 0.97294 78.4516C-0.0377384 77.193 -0.0949466 76.087 0.0576087 75.3814C0.362719 73.894 1.64037 73.0931 2.04083 72.8833C2.63198 72.5782 7.24678 70.4996 10.9844 68.9169C12.5481 68.2494 14.0355 67.6583 15.008 67.2578C15.542 67.0481 16.095 66.8192 16.2094 66.762C17.8303 65.942 20.7289 65.9802 21.3009 65.9992H21.3391C22.14 66.0183 22.96 66.0374 24.1423 65.5797C26.7166 64.5881 28.2041 66.3806 28.6999 66.9718C29.1766 67.5629 30.0347 68.0397 30.4733 67.9634C31.1217 67.868 32.9714 67.1053 33.7914 66.7048C34.7449 66.2662 34.783 66.1518 34.8021 65.8276C34.8402 65.1983 35.0309 63.9588 35.6411 63.3677L35.6602 63.3486L35.6793 63.3295C35.9844 63.0244 36.8234 62.2426 38.0057 61.4989C39.8364 60.3738 41.095 60.7361 42.201 61.0412L42.2964 61.0603H42.3154C42.8112 61.2128 43.8028 61.3654 44.9279 60.7552C45.9958 60.1831 46.4726 59.2296 46.4535 57.6468C46.4535 56.2738 46.8158 55.9115 47.979 55.4539C48.4558 55.2632 49.5046 54.7102 50.6297 54.0427L51.3162 53.6423C52.9752 52.6697 56.0835 50.8391 57.571 50.0191C58.6198 49.4279 59.8593 49.447 60.9653 49.4661C61.2895 49.4661 61.6137 49.4661 61.8806 49.4661C62.3002 49.447 62.6434 49.3516 62.8341 49.2563C62.4909 48.913 61.9188 48.2647 61.976 47.4447C62.0332 46.5675 62.7197 46.0526 63.1202 45.7666C63.1964 45.7094 63.2727 45.6713 63.3299 45.614C64.0736 45.0229 75.3818 35.698 77.8799 33.3906C77.899 33.3715 77.918 33.3715 77.918 33.3524C77.9371 33.3333 79.3101 32.2082 80.2254 31.4073L80.2445 31.3883C80.7975 30.9497 81.5984 30.3776 82.3803 29.8436C83.0477 29.386 83.7151 28.9092 84.1537 28.566C84.8021 28.0511 88.2727 25.8581 92.0675 23.4363C93.2498 22.6926 94.2605 22.0443 94.4321 21.9298C94.5084 21.8726 94.6038 21.7963 94.6991 21.7391C95.3856 21.2433 96.5107 20.4043 97.8265 20.5568C98.4558 20.6331 98.9897 20.9382 99.3711 21.434C100.039 22.2922 99.9813 23.4172 99.9051 24.0275C99.7906 24.7902 99.1041 27.1167 98.2842 29.8627C98.1125 30.4539 97.96 30.9497 97.8646 31.2548C96.854 34.7445 94.2605 38.3486 90.3131 41.6857C88.082 43.5736 84.9928 45.4043 82.4184 46.3005C80.1301 47.1015 75.9348 46.6438 72.8074 46.1289C71.4153 45.9001 70.5954 46.2243 70.3856 46.3196C70.3665 46.3196 70.3475 46.3387 70.3475 46.3387C70.0233 46.4722 68.9935 47.0442 68.0591 47.7498C67.5061 48.1693 67.2964 48.6461 66.8959 49.6568C66.8006 49.8856 66.7052 50.1335 66.5908 50.4005C65.6755 52.5744 64.8936 52.8223 63.082 52.9176H63.0057C61.0416 53.032 58.0668 53.9474 56.2552 55.0153C54.825 55.8734 52.7845 57.3799 51.3162 59.7635C49.2948 63.0244 44.9279 64.7788 43.2498 65.0839C41.9912 65.3127 39.4169 66.9909 37.1476 69.6606C35.0118 72.1777 32.4375 73.0931 31.217 73.5317C31.0645 73.5889 30.9119 73.6461 30.8356 73.6651C29.4436 74.2372 25.992 74.6949 24.7525 72.3112C24.2758 71.3768 23.8944 71.4912 23.1888 71.6819L23.0553 71.7201C22.96 71.7391 22.8265 71.7963 22.6549 71.8536C21.8349 72.1396 20.4619 72.6354 18.4596 72.2731C16.5145 71.9108 14.5313 72.1015 12.7578 72.8261C11.0988 73.4935 9.19186 75.5721 8.50536 76.7544C7.857 77.8604 5.74029 79.5004 3.71894 79.6339C3.69987 79.6339 3.60452 79.6339 3.4901 79.6339ZM20.8433 68.116C19.5275 68.116 17.9256 68.2685 17.1629 68.6499C16.9912 68.7452 16.6099 68.8787 15.7899 69.222C14.8173 69.6034 13.349 70.1945 11.8234 70.8619C7.99048 72.5019 3.52824 74.5042 3.05151 74.7521C2.70826 74.9428 2.25059 75.3242 2.15524 75.7819C2.07897 76.1632 2.25059 76.6018 2.65105 77.0976C2.8036 77.2883 3.05151 77.5172 3.64266 77.479C4.8631 77.3837 6.38865 76.2205 6.7319 75.6484C7.57096 74.18 9.78301 71.7201 12.0332 70.8047C14.2071 69.9275 16.5908 69.6987 18.9363 70.1373C20.3665 70.4043 21.32 70.061 22.0065 69.8131C22.1972 69.7369 22.3879 69.6796 22.5595 69.6224L22.6739 69.5843C23.4367 69.3745 25.439 68.8025 26.7166 71.3005C27.2315 72.2922 29.4626 71.9108 30.0729 71.6629C30.2063 71.6057 30.378 71.5484 30.5496 71.4912C31.5984 71.1098 33.7914 70.328 35.5649 68.2494C35.6221 68.1922 35.6602 68.135 35.7174 68.0778C35.3742 68.3066 35.0118 68.4783 34.6877 68.6308C34.6686 68.6308 31.9989 69.8894 30.7594 70.061C29.4054 70.2517 27.8608 69.3173 27.0218 68.3066C26.3734 67.5248 25.8585 67.1815 24.886 67.5629C23.3223 68.1541 22.1972 68.135 21.2819 68.116H21.2247C21.1102 68.116 20.9768 68.116 20.8433 68.116ZM37.1858 64.8551C37.1095 65.0076 36.9569 65.4653 36.9379 65.923C36.9188 66.3997 36.8044 66.7811 36.6327 67.1053C38.4443 65.2555 40.4657 63.8063 42.0675 63.2151C41.934 63.177 41.8196 63.1579 41.7052 63.1198L41.6099 63.1007C40.6755 62.8337 40.1606 62.6812 39.1308 63.3105C38.1774 63.9207 37.4718 64.5881 37.1858 64.8551ZM48.6274 57.5324C48.6274 57.5706 48.6274 57.6278 48.6274 57.6468C48.6274 58.6384 48.4748 59.4966 48.1697 60.2594C48.7227 59.7826 49.1995 59.2296 49.5618 58.6385C50.1911 57.6087 50.9157 56.7124 51.6594 55.9687C50.439 56.6743 49.3711 57.2464 48.78 57.4752C48.7418 57.4943 48.6655 57.5134 48.6274 57.5324ZM64.2643 47.6354C64.3215 47.6926 64.3978 47.7689 64.4932 47.8642C64.7411 48.0931 64.9318 48.3791 65.0462 48.7033C65.4466 47.6735 65.8471 46.7963 66.8578 46.0336C67.8684 45.2899 69.0317 44.6034 69.6038 44.3745C70.1758 44.1076 71.3963 43.7262 73.246 44.0313C77.2697 44.6987 80.378 44.7941 81.7891 44.2983C84.0965 43.4783 86.9951 41.7811 88.9974 40.0648C92.6015 36.9947 94.9851 33.7529 95.8814 30.6636C95.9768 30.3394 96.1293 29.8436 96.3009 29.2525C96.8158 27.5553 97.7502 24.4089 97.8456 23.7414C97.9218 23.2456 97.8265 22.8833 97.7311 22.7498C97.7121 22.7308 97.693 22.7117 97.6167 22.6926C97.1591 22.6354 96.4916 23.1312 96.034 23.4554C95.9005 23.5507 95.7861 23.627 95.6907 23.7033C95.5 23.8368 94.7372 24.3135 93.2689 25.2479C90.7899 26.8307 86.156 29.7674 85.5267 30.2441C85.05 30.6255 84.3826 31.0832 83.6579 31.598C82.9142 32.132 82.1324 32.6659 81.6366 33.0664C80.7594 33.8101 79.5199 34.8398 79.3292 34.9924C76.6785 37.4333 65.4276 46.7201 64.6839 47.2922C64.6076 47.3494 64.4932 47.4256 64.3978 47.5019C64.3787 47.5591 64.3215 47.5973 64.2643 47.6354Z" fill="white"/>
</g>
<defs>
<clipPath id="clip0_429_1465">
<rect width="100" height="100" fill="white"/>
</clipPath>
</defs>
</svg>
