<?xml version="1.0" encoding="utf-8"?>
<!-- Generator: Adobe Illustrator 28.2.0, SVG Export Plug-In . SVG Version: 6.00 Build 0)  -->
<svg version="1.1" id="uuid-d9dabedc-4430-48ab-8b64-2c1c036b7694"
	 xmlns="http://www.w3.org/2000/svg" xmlns:xlink="http://www.w3.org/1999/xlink" x="0px" y="0px" viewBox="0 0 524.6 524.4"
	 style="enable-background:new 0 0 524.6 524.4;" xml:space="preserve">
<style type="text/css">
	.st0{fill:#241758;}
	.st1{fill:none;}
</style>
<g id="uuid-7a919a42-e40d-49ee-9e41-6ab0704018a5">
	<g id="uuid-af5864a6-e11e-428a-bb25-f1c7caeb8c24">
		<g>
			<polygon class="st0" points="473,283.8 472.2,278.8 482.7,266.9 496.6,274.4 497.5,279.3 483.5,271.7 			"/>
			<polygon class="st0" points="471.3,273.9 470.3,268.9 480.9,257 494.9,264.7 495.9,269.5 481.8,261.9 			"/>
		</g>
	</g>
	<g id="uuid-e86b3632-5290-4922-a384-b0c244c21a6e">
		<path class="st0" d="M94,430.9c-5.2,0-9.9-3.3-12.3-8.9l-0.1-0.1c-1.6-4-5.7-9.5-10.8-14.5c-2.8-2.7-21.8-18-25.7-21
			c-4.8-3.7-8.1-9.9-8.5-15.8c-0.2-3.2-0.5-13.1-0.5-15.6l0-0.7c-0.2,0-0.5,0-0.8,0l-0.3,0c-4.5-0.3-8.3-2.3-11.5-4.2
			c-2.6-1.6-12-8.7-14.3-11.2c-3.1-3.3-8.2-15.7-8.8-19.3c-0.9-5.2,0.3-9.5,3.8-13.4c1.5-1.8,8.1-11.5,10.3-15.6
			c1-1.8,9.2-16.8,18.7-34.3c17.8-32.8,30.6-56.3,32.1-58.8c2.9-5,10.9-12.4,14.1-14.4c5-3.1,12.4-3.1,18.2,0.1
			c3.8,2.1,11.9,9,22.9,18.8l0.8,0.7c4.3,3.8,9.8,10.9,14.7,17.1c0.4,0.5,0.8,1.1,1.2,1.6c2.7-5.4,8.7-17,11-21
			c2.2-3.7,13.8-19.6,23.2-32.2l0.4-0.5c4-5.1,11.4-6.6,17.2-3.6c1.6,0.8,17.1,10.1,53.7,32c18.5,11.1,36.1,21.6,39,23.3
			c6.2,3.6,17.4,7,20.3,7.2c1,0,7.1,0.4,17.1,1c33.2,2,110.9,6.7,120.7,6.7c8.3,0,11.2-3.7,11.6-4.7c0-4.9-0.5-20.3-1.8-27.8
			c-1.2-6.4-9.4-27.2-12.9-36.1c-1.1-2.8-2-5-2.4-6.1c-1.2-3.2-5.1-14.3-5.1-21.8c0-5.7,1.7-24.4,2.2-28.5c1-7.9,6.8-15.9,16-15.9
			c10.3,0,14.3,7.9,15.6,10.5c0.3,0.6,0.5,1.1,0.8,1.7c0.9,2.1,1.3,2.9,4.6,4.9c3.9,2.3,8.3,2.4,13.7,1.8c10-1.2,16.4,3.8,17.9,13.9
			l0,0.1c0.9,6.4,23.4,173,23.6,174.7l0.1,0.6c0.1,2.1,0.4,6,0.7,7.6l0.1,0.5c0.4,3.8-0.6,7.6-2.9,11.2c-0.2,0.4-0.8,1.3-1.5,2.5
			c-5.9,9.8-10.4,16.9-12.8,19.8c-4.5,5.6-8.5,7.4-15.6,7.1l-0.2,0c-6-0.4-75.5-4.3-82-4.3c-6.2,0-14.6-1.7-19.9-6.5
			c-4.6-4.2-7.5-10.2-7.5-15.5v-7.7c-7.4-0.6-33-2.3-36.9-2.3c-0.3,0-0.6,0-0.9,0c-0.3,1.5-0.8,3.4-1.4,6c-1.1,4.5-2.8,11.2-3,13.4
			l0,0.2c-1.3,8.9-8.1,12.7-13.7,12.4c-0.6,0-3.9-0.2-8.7-0.5c-14.2-0.8-40.8-2.3-51.6-2.7c-14.9-0.6-21.6-12.8-21.6-21.4v-14.2
			h-12.3c-14.5,0-21-4.8-27.3-9.4c-0.6-0.4-1.1-0.8-1.7-1.2c-3-2.1-17-13.5-36.5-29.3c-7.2-5.8-14.5-11.8-18.5-15
			c-2.8,7.7-9.1,25.1-15.1,42c-8.9,25.1-11.5,41.4-12.2,45.8c-0.7,5-4.2,25-7.7,44.3c-2.7,15.2-5.7,32.4-6,34.6
			c-0.5,5.7-5,10.5-10.8,11.4C95.3,430.9,94.6,430.9,94,430.9L94,430.9z M91.6,418.1L91.6,418.1L91.6,418.1z M36.1,339
			c3.6,0.1,7.7,0.8,11.4,3.9c4.1,3.5,4,8.5,4,11.4l0,0.7c0,2.6,0.2,11.9,0.4,14.6c0.1,1.2,1.1,3.5,2.7,4.8
			c2.3,1.8,23.2,18.5,26.9,22.1c2.4,2.4,7.5,7.6,11.3,13.8c0.9-5.4,2.5-14.2,5-28.3c3.2-18.3,6.9-39.1,7.6-43.8
			c0.7-4.7,3.5-22.3,12.9-48.8c7.1-19.9,15.7-44,16.9-46.8c0.5-1.2,1.2-2.3,1.9-3.3c-2.8-0.2-6.2-1.6-9.4-5.6
			c-1.1-1.4-2.3-2.9-3.6-4.5c-4-5.1-9.6-12.2-12.8-15.1l-0.8-0.7c-14-12.5-18.6-16-20-16.7c-1.4-0.7-2.6-0.6-3-0.5
			c-1.8,1.2-7.5,6.7-8.7,8.8l-0.1,0.1c-1.2,2.1-18.9,34.7-31.9,58.5c-9.9,18.2-17.7,32.6-18.8,34.4c-2.6,4.6-9.8,15.3-12.1,18
			l-0.1,0.2c-0.1,0.1-0.2,0.2-0.2,0.3c0,0.1,0,0.1,0,0.2c0.5,2.1,3.8,9.7,5.2,11.8c1.8,1.7,9.2,7.4,10.8,8.3
			C32.3,337.5,34.6,338.9,36.1,339L36.1,339z M492.5,335c1,0,1.4,0,1.7,0c0.2-0.2,0.6-0.6,1.3-1.5c2.2-2.7,9-13.8,11.5-18
			c0.8-1.3,1.4-2.3,1.7-2.8c0.5-0.8,0.6-1.2,0.6-1.4c-0.4-2.8-0.7-7.2-0.8-8.5c-1.1-7.9-22.6-167.1-23.6-174.4
			c-0.1-0.4-0.1-0.7-0.2-1c-0.2,0-0.5,0-0.8,0.1c-7.1,0.8-15.4,1-23.4-3.9c-6.8-4.1-8.8-7.7-10.6-11.7c-0.2-0.4-0.4-0.8-0.6-1.2
			c-0.8-1.7-1.2-1.9-1.3-2l0,0c0,0-0.1-0.1-0.5-0.1c-0.3,0.3-0.9,1.3-1,2.5c-0.5,4.1-2.1,22-2.1,26.6c0,3.1,1.7,9.9,4.2,16.4
			c0.4,1.1,1.2,3.2,2.3,5.8c6,15.1,12.4,31.7,13.7,39c1.7,9.4,2.1,26.9,2.1,30.7c0,5-2.9,10.3-7.8,14c-3.5,2.6-9.6,5.8-19,5.8
			c-10.3,0-85.5-4.6-121.6-6.8c-9.3-0.6-16-1-16.9-1c-6.2-0.3-20-5-27.3-9.2c-3-1.7-19.8-11.8-39.2-23.3
			c-20.7-12.4-46.1-27.5-51.9-30.9c-14.3,19.3-20.5,28.2-21.6,30c-2.4,4.1-10.2,19.2-11.3,21.8c-1,2.2-2.1,3.8-3.2,5.1
			c2.4,0.2,4.8,1.1,7,2.7c1.6,1.1,9,7.2,22,17.7c13.9,11.3,33,26.8,35.6,28.6l0.1,0.1c0.6,0.4,1.2,0.9,1.8,1.3
			c5.5,4,8.8,6.4,18.3,6.4h13.8c6.7,0,13.8,5,13.8,14.1v15.3c0,0.2,0.3,5.8,6.9,6.1c11,0.4,37.7,1.9,52,2.8c2.8,0.2,5,0.3,6.6,0.4
			c0.5-3,1.7-7.9,3.2-14.3c0.7-2.9,1.5-6,1.7-7.1c1.3-7,6.5-10.6,15.5-10.6c5.2,0,38,2.2,40.7,2.5c5.6,0.7,11.5,5,11.5,14.7v8
			c0,0.5,0.8,2.5,2.6,4.1l0.1,0.1c1.3,1.2,5.2,2.5,9.5,2.5C416.9,330.7,487.8,334.7,492.5,335L492.5,335z"/>
	</g>
	<rect class="st1" width="524.4" height="524.4"/>
	<rect class="st1" width="524.4" height="524.4"/>
	<rect class="st1" width="524.4" height="524.4"/>
	<rect class="st1" width="524.4" height="524.4"/>
</g>
</svg>
