<svg width="100" height="100" viewBox="0 0 100 100" fill="none" xmlns="http://www.w3.org/2000/svg">
<g clip-path="url(#clip0_429_1588)">
<path d="M90.1642 54.119L90.0117 53.1655L92.0132 50.8962L94.6629 52.3264L94.8344 53.2608L92.1657 51.8116L90.1642 54.119Z" fill="white"/>
<path d="M89.84 52.2312L89.6494 51.2777L91.67 49.0084L94.3387 50.4768L94.5293 51.3921L91.8416 49.9428L89.84 52.2312Z" fill="white"/>
<path d="M17.9184 82.1701C16.9272 82.1701 16.0313 81.5408 15.5738 80.4729L15.5547 80.4538C15.2497 79.691 14.4682 78.6422 13.496 77.6887C12.9623 77.1739 9.34046 74.2563 8.59704 73.6842C7.68205 72.9786 7.053 71.7963 6.97675 70.6712C6.93863 70.061 6.88144 68.1731 6.88144 67.6964V67.5629C6.84332 67.5629 6.78613 67.5629 6.72895 67.5629H6.67176C5.81396 67.5057 5.0896 67.1243 4.47961 66.762C3.984 66.4569 2.19216 65.1029 1.75373 64.6262C1.1628 63.9969 0.190632 61.6323 0.0762589 60.9458C-0.0953004 59.9542 0.133445 59.1342 0.80062 58.3905C1.08655 58.0473 2.34465 56.1975 2.76402 55.4157C2.95464 55.0724 4.51774 52.212 6.32864 48.8749C9.7217 42.6201 12.1617 38.1388 12.4476 37.662C13.0004 36.7086 14.5254 35.2974 15.1354 34.9161C16.0885 34.3249 17.4991 34.3249 18.6047 34.9351C19.329 35.3356 20.8731 36.6514 22.9699 38.5202L23.1224 38.6537C23.9421 39.3783 24.9905 40.7322 25.9245 41.9145C26.0008 42.0099 26.077 42.1243 26.1533 42.2196C26.6679 41.1899 27.8117 38.9778 28.2501 38.2151C28.6695 37.5095 30.8807 34.4775 32.6725 32.0747L32.7488 31.9794C33.5113 31.0068 34.9219 30.7208 36.0275 31.2929C36.3325 31.4454 39.2871 33.2189 46.2638 37.3951C49.7903 39.5118 53.1453 41.5141 53.6981 41.8382C54.8799 42.5247 57.0149 43.1731 57.5677 43.2113C57.7583 43.2113 58.9211 43.2875 60.8273 43.4019C67.1559 43.7833 81.9672 44.6796 83.8353 44.6796C85.4175 44.6796 85.9703 43.974 86.0465 43.7833C86.0465 42.8489 85.9512 39.9122 85.7034 38.482C85.4747 37.2616 83.9116 33.2952 83.2444 31.598C83.0347 31.064 82.8631 30.6445 82.7869 30.4347C82.5582 29.8245 81.8147 27.7078 81.8147 26.2776C81.8147 25.1907 82.1388 21.6247 82.2341 20.8428C82.4247 19.3363 83.5303 17.8108 85.284 17.8108C87.2474 17.8108 88.0099 19.3173 88.2577 19.8131C88.3149 19.9275 88.353 20.0228 88.4102 20.1373C88.5818 20.5377 88.658 20.6903 89.2871 21.0717C90.0305 21.5103 90.8693 21.5293 91.8986 21.4149C93.8048 21.1861 95.0248 22.1395 95.3107 24.0656V24.0846C95.4823 25.3051 99.7713 57.0747 99.8094 57.3989L99.8285 57.5133C99.8475 57.9138 99.9047 58.6575 99.9619 58.9626L99.9809 59.0579C100.057 59.7826 99.8666 60.5072 99.4281 61.1937C99.39 61.27 99.2756 61.4416 99.1422 61.6704C98.0175 63.5392 97.1598 64.8932 96.7023 65.4462C95.8445 66.5141 95.082 66.8573 93.7286 66.8001H93.6904C92.5467 66.7238 79.2985 65.9801 78.0595 65.9801C76.8776 65.9801 75.2764 65.6559 74.2661 64.7406C73.3893 63.9397 72.8365 62.7955 72.8365 61.7849V60.3165C71.4259 60.2021 66.546 59.8779 65.8025 59.8779C65.7453 59.8779 65.6882 59.8779 65.631 59.8779C65.5738 60.164 65.4785 60.5263 65.3641 61.0221C65.1544 61.8802 64.8304 63.1579 64.7922 63.5774V63.6155C64.5444 65.3127 63.2482 66.0373 62.1807 65.9801C62.0664 65.9801 61.4373 65.942 60.5223 65.8848C57.8155 65.7322 52.745 65.4462 50.6863 65.3699C47.846 65.2555 46.5688 62.929 46.5688 61.2891V58.5812H44.2242C41.4602 58.5812 40.2211 57.6659 39.0202 56.7887C38.9058 56.7124 38.8105 56.6361 38.6962 56.5598C38.1243 56.1594 35.4556 53.9855 31.7385 50.9725C30.366 49.8665 28.9745 48.7223 28.212 48.1121C27.6782 49.5804 26.4773 52.8985 25.3336 56.1212C23.6371 60.9077 23.1415 64.016 23.008 64.855C22.8746 65.8085 22.2074 69.6224 21.5402 73.3028C21.0256 76.2013 20.4537 79.4813 20.3965 79.9008C20.3012 80.9878 19.4434 81.9031 18.3378 82.0747C18.1662 82.1701 18.0328 82.1701 17.9184 82.1701ZM6.88144 64.6453C7.56768 64.6643 8.34923 64.7978 9.05453 65.389C9.83608 66.0564 9.81701 67.0099 9.81701 67.5629V67.6964C9.81701 68.1922 9.85514 69.9656 9.89326 70.4805C9.91233 70.7093 10.1029 71.1479 10.4079 71.3958C10.8464 71.7391 14.8304 74.9237 15.5357 75.6102C15.9931 76.0678 16.9653 77.0595 17.6897 78.2418C17.8612 77.212 18.1662 75.5339 18.6428 72.8451C19.2528 69.3554 19.9581 65.389 20.0915 64.4927C20.2249 63.5965 20.7587 60.2402 22.5505 55.1868C23.9039 51.392 25.5433 46.7963 25.772 46.2624C25.8673 46.0335 26.0008 45.8238 26.1342 45.6331C25.6005 45.5949 24.9524 45.328 24.3424 44.5652C24.1327 44.2982 23.9039 44.0122 23.6561 43.7071C22.8936 42.7345 21.8262 41.3806 21.2162 40.8276L21.0637 40.6941C18.395 38.3104 17.5181 37.643 17.2512 37.5095C16.9844 37.376 16.7556 37.3951 16.6794 37.4141C16.3363 37.643 15.2497 38.6918 15.021 39.0923L15.0019 39.1113C14.7732 39.5118 11.3992 45.7284 8.92109 50.2669C7.03394 53.7376 5.54709 56.4836 5.33741 56.8268C4.8418 57.704 3.46932 59.7444 3.03089 60.2593L3.01183 60.2974C2.99277 60.3165 2.9737 60.3356 2.9737 60.3547C2.9737 60.3737 2.9737 60.3737 2.9737 60.3928C3.06902 60.7932 3.69807 62.2425 3.96494 62.643C4.30805 62.9672 5.71865 64.0541 6.02365 64.2257C6.15708 64.3592 6.59551 64.6262 6.88144 64.6453ZM93.8811 63.8825C94.0717 63.8825 94.1479 63.8825 94.2051 63.8825C94.2433 63.8444 94.3195 63.7681 94.4529 63.5965C94.8723 63.0816 96.1685 60.9649 96.6451 60.164C96.7976 59.9161 96.912 59.7254 96.9691 59.63C97.0645 59.4775 97.0835 59.4012 97.0835 59.363C97.0073 58.8291 96.9501 57.99 96.931 57.7421C96.7213 56.2357 92.623 25.8772 92.4323 24.4851C92.4133 24.4088 92.4133 24.3516 92.3942 24.2944C92.3561 24.2944 92.2989 24.2944 92.2417 24.3135C90.8883 24.466 89.3062 24.5042 87.7812 23.5698C86.485 22.7879 86.1037 22.1014 85.7606 21.3386C85.7225 21.2624 85.6843 21.1861 85.6462 21.1098C85.4937 20.7856 85.4175 20.7475 85.3984 20.7284C85.3984 20.7284 85.3794 20.7093 85.3031 20.7093C85.2459 20.7665 85.1315 20.9572 85.1125 21.1861C85.0172 21.9679 84.7122 25.3813 84.7122 26.2585C84.7122 26.8497 85.0362 28.1464 85.5128 29.3859C85.589 29.5957 85.7415 29.9961 85.9512 30.4919C87.0949 33.3714 88.3149 36.537 88.5627 37.929C88.8868 39.7215 88.963 43.0587 88.963 43.7833C88.963 44.7368 88.4102 45.7475 87.4762 46.4531C86.809 46.9489 85.6462 47.5591 83.8544 47.5591C81.891 47.5591 67.5562 46.6819 60.6748 46.2624C58.902 46.1479 57.6249 46.0717 57.4533 46.0717C56.2715 46.0145 53.6409 45.1182 52.2493 44.3173C51.6775 43.9931 48.475 42.0671 44.777 39.8741C40.8311 37.5095 35.9893 34.63 34.8837 33.9817C32.1578 37.662 30.976 39.3592 30.7663 39.7025C30.3088 40.4843 28.822 43.3638 28.6123 43.8596C28.4217 44.2791 28.212 44.5842 28.0023 44.8322C28.4598 44.8703 28.9173 45.0419 29.3366 45.347C29.6416 45.5568 31.0522 46.72 33.5303 48.7223C36.18 50.8772 39.8208 53.8329 40.3164 54.1762L40.3355 54.1952C40.4499 54.2715 40.5643 54.3669 40.6786 54.4431C41.727 55.2059 42.3561 55.6636 44.167 55.6636H46.7976C48.0747 55.6636 49.4281 56.617 49.4281 58.3524V61.27C49.4281 61.3081 49.4853 62.376 50.7434 62.4332C52.8403 62.5095 57.9299 62.7955 60.6558 62.9672C61.1895 63.0053 61.6089 63.0244 61.9139 63.0434C62.0092 62.4714 62.2379 61.537 62.5238 60.3165C62.6573 59.7635 62.8098 59.1723 62.8479 58.9626C63.0957 57.6277 64.0869 56.9412 65.8025 56.9412C66.7938 56.9412 73.0461 57.3608 73.5608 57.418C74.6283 57.5514 75.753 58.3714 75.753 60.2212V61.7467C75.753 61.8421 75.9055 62.2235 76.2486 62.5286L76.2677 62.5476C76.5155 62.7765 77.2589 63.0244 78.0786 63.0244C79.4701 63.0625 92.9851 63.8253 93.8811 63.8825Z" fill="white"/>
</g>
<defs>
<clipPath id="clip0_429_1588">
<rect width="100" height="100" fill="white"/>
</clipPath>
</defs>
</svg>
