<svg width="100" height="100" viewBox="0 0 100 100" fill="none" xmlns="http://www.w3.org/2000/svg">
<g clip-path="url(#clip0_429_1676)">
<path d="M11.5563 80.7971C11.0415 80.7971 10.4312 80.6827 9.84008 80.3204C8.67685 79.6339 7.97128 78.2609 7.72338 76.2586C7.17036 71.7391 3.39462 48.6842 3.35648 48.4554L3.33741 48.3028V48.2838C2.44115 48.2838 1.64023 48.0168 1.06815 47.4828C0.362583 46.8345 0.0193333 45.8619 0.0193333 44.6224C0.0193333 44.4889 0.0193333 44.3364 0.0193333 44.1838C-0.0188056 41.9527 -0.0378752 38.9016 4.34809 36.2128L22.6738 25.1907C22.9217 25.0381 25.4198 23.4935 29.1193 22.5973C34.2108 21.3768 39.1879 22.0061 43.4785 24.4279L43.4976 24.447C43.7455 24.5995 43.9743 24.7521 44.165 24.8856C44.7943 25.3242 45.1376 25.5721 46.2817 25.3623C48.2268 24.9047 49.7142 24.4851 50.0765 24.3707C51.1063 23.8749 53.0514 22.9024 53.5853 22.6163C53.6807 22.5591 53.7951 22.4828 53.9476 22.3684C54.7676 21.8154 56.2741 20.7857 59.0773 20.4996C60.2024 20.3852 60.7554 20.2708 61.0224 20.1945C61.2894 19.8322 61.7852 19.4699 62.3954 19.4317C62.834 19.4127 63.5014 19.5652 64.1307 20.3661C64.4549 20.7857 64.7791 21.2052 65.1795 21.3196C65.6944 21.4722 66.4953 21.1671 67.506 20.4424L67.792 20.2327H67.8492C68.4594 19.8703 69.9659 19.1457 73.818 19.2029C78.4518 19.2792 91.5525 19.6034 91.686 19.6034H91.7241C91.8004 19.6034 99.9812 20.2517 99.9812 28.7376C99.9812 31.8841 98.5128 34.3249 95.8241 35.5645C94.2794 36.2891 92.3916 36.5751 90.4846 36.3844C88.673 36.2128 87.0521 35.6026 86.0224 34.7445L73.5128 24.7521C73.0933 24.5614 71.9682 24.2563 71.091 25.6674C69.718 27.8604 68.2688 29.9581 67.9064 30.5111C67.6013 31.2548 66.4762 32.418 62.4717 32.2845L61.6707 32.2655C60.8889 32.2655 59.554 32.2845 58.3527 32.3227C58.1048 32.3608 56.8271 32.6087 55.5876 33.4478C53.8332 34.6301 52.937 36.4798 52.937 38.9016V43.8024V43.8597C52.9179 44.0885 52.8988 44.8703 53.2039 45.2899C53.5472 45.7666 54.0811 46.4912 53.8714 47.4256C53.6997 48.2266 53.0514 48.894 51.7356 49.6186C49.5998 50.8009 45.9575 52.7079 45.9194 52.7269H45.9003C45.8431 52.7651 44.146 53.6613 44.146 55.7018C44.146 56.4836 44.3939 57.2845 44.6418 58.1045C45.1757 59.8208 45.8431 61.9565 43.9553 64.1877C42.0102 66.5141 39.5502 66.7811 39.0163 66.8002L25.9156 68.9169C25.8584 68.9359 25.8012 68.9741 25.744 68.9931C25.8965 69.1838 26.0491 69.3364 26.1635 69.4699C26.8691 70.2136 27.1742 70.6903 27.2505 72.4066L27.2695 72.9024L27.1932 72.9787C27.1551 73.3982 27.136 74.161 27.117 74.8284C27.1932 76.0298 26.4495 78.3181 23.0361 78.852L22.4831 78.9474L22.464 78.9283C20.9003 79.1571 15.9232 80.0153 12.6814 80.5873C12.4717 80.6827 12.0521 80.7971 11.5563 80.7971ZM5.56853 48.1884C5.87364 50.0572 9.38241 71.5294 9.91636 75.9916C10.0689 77.2311 10.4312 78.0702 10.9461 78.3944C11.4228 78.6804 11.9568 78.4897 11.9759 78.4897L12.0903 78.4325H12.1665C12.1665 78.4325 14.76 77.9748 17.3725 77.5362C18.898 77.2693 20.0994 77.0786 20.9766 76.926C21.4724 76.8497 21.8919 76.7735 22.1971 76.7353C22.3878 76.7163 22.5594 76.6781 22.7119 76.6781C24.7524 76.3349 24.8477 75.2479 24.8477 75L24.8286 74.9047L24.8477 74.8665C24.8858 73.4935 24.924 72.788 24.9812 72.3875C24.9431 71.5103 24.8858 71.4531 24.5045 71.0526C24.3328 70.8619 24.104 70.6331 23.8561 70.3089C23.2077 69.508 23.3031 68.7834 23.4175 68.4211C23.7607 67.315 25.0193 66.8764 25.2863 66.8002L25.3626 66.7811L25.4389 66.762L38.7684 64.6072H38.8447C38.9019 64.6072 40.7325 64.5309 42.2009 62.7765C43.2497 61.537 43.0018 60.5645 42.4678 58.791C42.1818 57.8757 41.8576 56.8459 41.8576 55.7208C41.8576 52.3837 44.5845 50.8963 44.8325 50.7628C44.9469 50.7056 48.5128 48.8368 50.5914 47.6926C51.2207 47.3494 51.4877 47.1015 51.583 47.0061C51.5067 46.8917 51.3923 46.7201 51.3351 46.6438C50.5342 45.5568 50.6105 44.0885 50.6486 43.7071V38.9016C50.6486 32.6659 55.4923 30.4157 58.0666 30.1106H58.181C60.9461 30.0343 62.0712 30.0153 62.6242 30.0725C64.8553 30.1297 65.6181 29.7483 65.8088 29.6148V29.5957L65.9423 29.405C65.9614 29.386 67.6204 27.0214 69.165 24.5423C70.8622 21.8345 73.4747 22.2731 74.5998 22.8833L74.6951 22.9405L74.7714 22.9977L87.4144 33.0854C88.8446 34.2868 92.3344 34.7635 94.8515 33.6003C96.7585 32.704 97.7119 31.1022 97.7119 28.7948C97.7119 22.5401 92.0102 21.9298 91.5525 21.8917C90.8469 21.8726 78.2611 21.5675 73.7417 21.4912C72.1017 21.4722 69.9087 21.5675 68.879 22.2731C68.8218 22.3112 68.7646 22.3494 68.6692 22.4066C65.1032 24.8856 63.3107 23.0549 62.4907 21.987C61.9759 22.3684 61.0414 22.5782 59.2871 22.7689C57.0369 22.9977 55.9308 23.7605 55.1871 24.2754C54.9964 24.4089 54.8248 24.5233 54.6341 24.6186C53.9095 25.0191 51.0491 26.4111 50.9347 26.4684L50.8584 26.5065L50.763 26.5256C50.6868 26.5446 49.0659 27.0404 46.7203 27.5744L46.6822 27.5934C44.5845 27.9939 43.612 27.2883 42.8302 26.7353C42.6585 26.6209 42.506 26.5065 42.3344 26.4111C38.5014 24.2754 34.2299 23.7224 29.6723 24.8093C26.2016 25.6293 23.837 27.1167 23.818 27.1358L23.837 27.0786L5.51132 38.1007C2.19325 40.1411 2.21232 42.0862 2.23138 44.1457C2.23138 44.2983 2.23138 44.4508 2.23138 44.6034C2.23138 45.1945 2.3458 45.614 2.57463 45.8238C2.80347 46.0336 3.20392 46.0336 3.41369 46.0336C4.00484 45.9954 4.55785 46.1671 4.95831 46.5675C5.49225 47.1015 5.56853 47.8452 5.56853 48.1884Z" fill="white"/>
<path d="M10.6589 62.5667L10.4873 61.5942L12.5087 59.344L15.1593 60.7742L15.3309 61.7086L12.6421 60.2593L10.6589 62.5667Z" fill="white"/>
<path d="M10.3162 60.6788L10.1445 59.7253L12.1659 57.4561L14.8356 58.9244L15.0263 59.8588L12.3375 58.3905L10.3162 60.6788Z" fill="white"/>
</g>
<defs>
<clipPath id="clip0_429_1676">
<rect width="100" height="100" fill="white"/>
</clipPath>
</defs>
</svg>
