<svg width="100" height="100" viewBox="0 0 100 100" fill="none" xmlns="http://www.w3.org/2000/svg">
<g clip-path="url(#clip0_429_1494)">
<path d="M69.318 72.8259L68.3263 72.8068L66.4385 70.4422L68.3263 68.0776H69.2608L67.3919 70.4613L69.318 72.8259Z" fill="white"/>
<path d="M67.3917 72.8259L66.4191 72.845L64.5312 70.4613L66.4382 68.0777L67.3917 68.0586L65.4847 70.4423L67.3917 72.8259Z" fill="white"/>
<path d="M91.4378 65.427H17.8299C14.7788 65.427 13.0435 63.9587 13.0435 61.4034V61.1364C13.0435 58.8481 12.9291 57.2844 11.1747 56.5598C10.3928 56.2356 9.53471 55.8923 8.69565 55.5491C6.7315 54.7672 4.8627 54.0235 3.89016 53.4514C2.09764 52.3836 0 49.6948 0 45.6139C0 43.3447 1.373 40.5415 3.41342 38.6345C5.89245 36.289 10.2212 34.5918 13.7109 34.5918H31.0641C33.4096 34.5918 36.0412 36.4797 36.0412 39.2066C36.0412 41.4377 35.0305 43.4781 33.1998 44.9465C31.598 46.2432 29.5004 46.9678 27.46 46.9678H14.9504C14.3021 46.9678 13.2151 47.1585 13.2151 48.4553C13.2151 49.5041 13.5965 49.7329 14.2449 50.0952C14.3021 50.1334 14.3593 50.1524 14.4165 50.1906C14.8932 50.4766 16.8192 51.7543 19.0885 53.2989C19.9275 53.871 20.6522 54.3477 20.9191 54.5193C20.9764 54.5575 21.0717 54.6147 21.167 54.691C22.2731 55.4347 25.6674 57.6849 29.2906 57.6849H35.8124C36.1937 57.6849 38.0816 57.6086 38.0816 55.9495V53.8519C38.0816 53.604 38.1198 51.3538 39.5118 49.3515C39.9695 48.7032 41.2662 46.8534 42.6583 44.8893C44.6034 42.1242 46.8154 39.0159 47.1587 38.482C47.7307 37.6238 49.1228 36.7848 50.7056 36.3271C52.5934 35.7932 54.405 35.9076 55.778 36.6704C57.6278 37.681 66.7811 43.173 74.8665 48.0167C80.6064 51.4492 86.0221 54.71 86.537 54.977C87.5286 55.4919 88.2723 55.4728 88.7872 54.9198C89.3021 54.3668 89.4355 52.6696 88.4821 50.3241C87.6239 48.1692 85.6407 47.4637 84.5728 47.1013C84.3821 47.0441 84.1533 46.9678 83.9054 46.8916C82.4371 46.453 80.225 45.7855 79.4622 43.9358C78.6232 41.9145 78.9664 39.4736 80.2822 38.0052C81.5789 36.5559 83.9054 36.1555 85.3928 36.5941C86.4035 36.8992 91.9908 38.8061 95.2136 39.9122L95.3661 39.9694C99.0275 41.2089 100 44.7367 100 46.6246V58.4476C100 59.0388 99.8665 61.0792 98.2647 62.8717C96.3387 64.9694 93.4973 65.427 91.4378 65.427ZM13.7109 36.5178C10.717 36.5178 6.86499 38.0243 4.72921 40.0266C2.8032 41.8382 1.92601 44.1837 1.92601 45.6139C1.92601 49.1036 3.77574 51.144 4.8627 51.7924C5.70175 52.2882 7.58963 53.0319 9.40122 53.7756C10.2403 54.1189 11.1175 54.4621 11.9184 54.7863C14.9695 56.064 14.9695 59.0006 14.9695 61.1364V61.4034C14.9695 62.0327 14.9695 63.482 17.8299 63.482H91.4188C96.6629 63.482 98.0549 60.2974 98.0549 58.4095V46.5865C98.0549 45.3088 97.3684 42.6582 94.7368 41.7619L94.5843 41.7047C89.0351 39.7977 85.5645 38.6345 84.8398 38.4247C83.9626 38.1578 82.4561 38.4438 81.6934 39.2829C80.8734 40.1982 80.6636 41.8572 81.2166 43.173C81.6362 44.1837 83.3143 44.6986 84.4394 45.0228C84.7063 45.099 84.9733 45.1753 85.2021 45.2707C86.3654 45.6711 89.0732 46.6437 90.2555 49.5994C91.4188 52.4598 91.3997 54.9389 90.1792 56.2356C89.0351 57.437 87.376 57.6086 85.6217 56.6742C85.0877 56.3881 80.7971 53.8328 73.8558 49.6566C66.1899 45.0609 56.6552 39.3401 54.8436 38.3485C52.6125 37.128 49.2754 38.768 48.7605 39.5308C48.3982 40.0838 46.2815 43.0777 44.222 45.9953C42.8299 47.9595 41.5332 49.8092 41.0946 50.4385C40.0267 51.9831 40.0076 53.7566 40.0076 53.8328V55.9305C40.0076 58.4476 37.8337 59.5918 35.8124 59.5918H29.2906C25.0763 59.5918 21.3196 57.0937 20.0992 56.2737C20.0038 56.2165 19.9275 56.1593 19.8703 56.1212C19.5843 55.9305 18.8978 55.4728 18.0206 54.8817C16.3806 53.7756 13.9207 52.1166 13.4439 51.8496C13.3867 51.8115 13.3486 51.7924 13.2914 51.7543C12.5477 51.3347 11.2891 50.6101 11.2891 48.4362C11.2891 46.9869 11.9947 46.1669 12.5858 45.7283C13.2151 45.2707 14.0542 45.0037 14.9504 45.0037H27.46C30.2441 45.0037 34.0961 42.9633 34.0961 39.1494C34.0961 37.4903 32.3227 36.4606 31.0641 36.4606H13.7109V36.5178Z" fill="white"/>
</g>
<defs>
<clipPath id="clip0_429_1494">
<rect width="100" height="100" fill="white"/>
</clipPath>
</defs>
</svg>
