<?xml version="1.0" encoding="UTF-8"?>
<svg id="uuid-f66b7d58-a78e-4e28-b56a-787ead2530cb" data-name="Layer 2" xmlns="http://www.w3.org/2000/svg" width="524.40944" height="524.40942" viewBox="0 0 524.40944 524.40942">
  <g id="uuid-847aadfd-ddc5-44e2-aa4f-d4a0f5db5782" data-name="uuid-e9f0bc97-7d7e-4633-bdae-1995a9ac8279">
    <g id="uuid-a4b274c6-5096-49ab-aea4-eb9489d21812" data-name="uuid-21926adb-89ad-4706-9813-35e83a138160">
      <g id="uuid-015084de-4bff-496b-bcea-44a5f09a2959" data-name="uuid-72aa993a-edb4-441c-874b-f7fdf643a5b0">
        <g>
          <polygon points="445.73395 195.44589 448.95444 199.44569 445.61755 215.00314 429.82407 215.23897 426.62521 211.46175 442.5881 211.11955 445.73395 195.44589" style="fill: #241758; stroke-width: 0px;"/>
          <polygon points="452.15329 203.2229 455.4053 207.08481 452.06839 222.64229 436.05234 222.89981 432.85352 219.12256 448.86957 218.86507 452.15329 203.2229" style="fill: #241758; stroke-width: 0px;"/>
        </g>
      </g>
      <g id="uuid-a6696463-4301-4954-9f2c-134fdeb32a64" data-name="uuid-4c88a20d-7402-43dd-9439-cb39eb3410d9">
        <path d="M500.11981,407.50385c-10.73276,0-18.1597-3.74121-22.70618-11.43726-.40616-.68839-1.09958-1.8696-1.99155-3.38843-10.54529-17.96014-16.5159-27.89569-17.7475-29.53046-.64706-.84509-1.15198-1.58939-1.59647-2.24652-1.18222-1.7446-1.49969-2.21326-3.86517-3.37283-2.35437-1.12982-5.52612-1.10361-8.88434-1.08093-1.27292.01059-2.59021.01917-3.92361-.03375-9.38928-.2323-21.6066-6.20694-25.26517-22.30557l-.68637-3.07047c-2.61542-11.74265-3.09717-13.40964-6.94116-17.74347-2.66782-2.97824-6.67609-3.22971-13.52856-3.41516-8.57291-.23181-20.31454-.5498-29.08395-11.80463-7.30399-9.24265-7.52774-21.3345-.63596-35.90167,4.65332-9.92142,3.69986-18.15015-2.62448-22.5535-7.42999-5.17186-17.2113-10.40016-33.702-9.94057-15.31049.46413-28.52258,10.53117-32.19626,15.05196-5.55939,6.81871-25.48688,30.65018-26.72153,32.10806l-.18848.21417c-1.20743,1.31729-4.41345,4.81659-10.26108,5.05093-1.36566.05441-11.6862.73172-19.97891,1.27597-7.94199.52158-12.85834.84308-13.81581.88895-7.49852.34872-13.16373-4.28946-14.46992-11.83737-.25398-1.46948-1.31627-7.13116-2.70914-14.51376-28.11641-10.14769-111.80953-40.62503-127.42136-47.54352-19.04462-8.44087-49.58898-30.07368-56.24391-35.48088-.57247-.46362-1.21549-.97057-1.90184-1.51331C13.16474,167.16685,0,156.7677,0,142.17683,0,133.78032,3.20199,122.87723,18.45502,118.61949c5.16229-1.44074,11.20242-1.71387,20.54331-1.71387,9.06877,0,16.38184,4.79895,20.07869,13.17078,1.68717,3.61925,9.36407,21.32188,13.67975,32.47644,6.9704,18.05589,28.67578,39.80009,66.91519,41.6732,25.67336,1.28957,33.19505-8.7281,38.70203-16.03716l.84761-1.11974c2.07117-2.71719,9.50316-14.4669,13.94382-21.48769,2.35336-3.71953,4.06371-6.42313,4.84077-7.59274,3.96494-6.12379,11.52898-8.11684,17.62051-4.63367,5.381,3.07751,8.76843,10.26007,4.82867,18.03323-.83955,1.6393-1.81013,3.69283-2.83916,5.86678-1.74763,3.69534-3.55473,7.51566-5.27315,10.53925-1.64989,2.90416-2.30196,8.64244-1.51784,13.34866.5634,3.3819,4.25319,22.89265,7.50758,40.10648.36989,1.95474.73273,3.87273,1.08446,5.73274.4868.17336.82947.29379,1.01492.35728,3.55676,1.23766,5.50395,1.91241,12.93999.11842,2.48439-.59918,10.12703-3.27354,13.35422-4.87404l.78412-.4102c5.87888-3.06845,13.92871-7.27124,28.3331-21.67516,8.04376-7.94147,29.09708-25.61591,32.64676-28.02419,3.20602-2.21075,9.68155-4.9063,16.51285,2.23645,1.06329,1.11168,1.78494,1.80762,2.41586,2.41283.16428-.15471.33762-.31898.50897-.48177,3.974-3.77194,12.24255-11.62068,28.42685-11.62068,18.86722,0,37.77377,15.26613,48.23239,28.33966l.08163.10481c9.43362,12.24355,12.59427,16.05428,12.62552,16.09106l.04938.06047c4.02036,4.93501,98.48758,120.91708,101.94052,125.52203,4.95264,6.60303,6.4483,16.70941,3.90546,26.37482-5.57855,21.47659-15.62494,25.98981-23.07004,25.98981l.00003.00003ZM444.78094,341.81271c4.11713,0,8.98007.23383,13.8158,2.55493,5.4707,2.68091,7.57812,5.35782,9.59186,8.33051.32855.48578.67325,1.00031,1.09756,1.55362,1.64786,2.14825,6.90488,10.84613,18.7493,31.02057.8829,1.50272,1.56824,2.67084,1.97137,3.35318,1.00082,1.69321,2.5116,4.25018,10.11292,4.25018,2.30902,0,6.03006-3.94479,8.9176-15.06155,1.60251-6.08951.36786-11.46851-1.45435-13.89847-2.72125-3.62781-74.20609-91.45267-101.55551-125.02969-.3457-.41727-3.61823-4.38774-12.90469-16.43979-8.80975-10.99026-24.05673-22.79791-36.76794-22.79791-10.34775,0-14.97687,4.39429-18.35626,7.60283-.7045.66821-1.36969,1.30016-2.06311,1.86707-6.13287,5.11089-13.65457,3.91606-17.39877-.20209-.30841-.33965-.64706-.66418-1.16006-1.15602-.53015-.50847-1.21246-1.16257-2.1145-2.08176-5.35681,4.23102-21.9906,18.1693-29.10916,25.19612-15.95651,15.95702-25.53427,20.95755-31.87273,24.26637l-.95647.49838c-4.37817,2.18909-13.12845,5.21973-16.51993,6.03812-6.4574,1.55865-10.76099,1.76224-14.37921,1.25934.6017,3.20804,1.0381,5.55838,1.23866,6.68768,1.91293-.1149,7.5217-.48328,12.96921-.84055,10.47978-.68787,18.1456-1.18826,20.10088-1.28452.05643-.05594.129-.13052.22073-.22928,1.93912-2.30145,21.22968-25.37956,26.44235-31.77295,6.15704-7.57814,23.31696-19.83981,43.11646-20.44,20.84567-.58154,33.6496,6.407,42.48352,12.5575,14.80151,10.30441,13.57996,27.82816,7.50052,40.79132-5.84158,12.34634-3.41968,17.69055-1.08951,20.63855,4.34793,5.57953,9.4054,5.98068,17.97226,6.21249,7.58621.2056,17.02689.46109,24.0517,8.30429,6.52795,7.35843,7.63156,12.31711,10.29938,24.2966l.67627,3.02612c2.31808,10.19958,9.89523,10.87585,11.3909,10.90762l.14816.00455c.99475.04083,2.10141.03375,3.27255.0242.50696-.00354,1.02802-.00757,1.56219-.00757h.00006ZM142.57864,218.95296c22.12366,8.17783,45.52628,16.70839,60.86195,22.26675-3.25945-17.23752-6.4836-34.31226-7.04398-37.67198-.95848-5.75137-.60371-11.95126.86172-17.15286-2.89256,4.49205-5.16328,7.91426-6.407,9.54649l-.79521,1.0502c-5.96051,7.91275-16.88072,22.39931-47.47749,21.96138v.00002ZM38.99833,131.53275c-7.85328,0-13.08814.1925-16.61062,1.17567-4.91435,1.3717-7.75955,3.36073-7.75955,9.46838,0,7.50507,9.68256,15.15475,15.46871,19.72493.73574.58102,1.42411,1.12527,2.04798,1.63074,5.62893,4.5732,25.65521,18.69791,42.09652,27.92239-6.29916-6.51938-11.54409-14.34494-15.12906-23.62939-4.16047-10.75443-11.81923-28.42583-13.31894-31.6263l-.07962-.17386c-1.74058-3.98157-4.50314-4.49255-6.71541-4.49255v-.00002Z" style="fill: #241758; stroke-width: 0px;"/>
      </g>
      <rect width="524.40942" height="524.40942" style="fill: none; stroke-width: 0px;"/>
    </g>
  </g>
</svg>