<svg width="100" height="100" viewBox="0 0 100 100" fill="none" xmlns="http://www.w3.org/2000/svg">
<g clip-path="url(#clip0_429_1525)">
<path d="M71.0528 69.5463L70.2328 69.0124L69.9277 65.9994L72.7691 65.0269L73.57 65.5227L70.6905 66.5143L71.0528 69.5463Z" fill="white"/>
<path d="M69.4317 68.5165L68.6117 68.0016L68.3066 64.9887L71.1861 63.9971L72.0061 64.4929L69.1076 65.4845L69.4317 68.5165Z" fill="white"/>
<path d="M76.7544 78.7949C76.0679 78.7949 75.5148 78.6233 74.8474 78.28C74.7711 78.2419 74.7139 78.2037 74.6567 78.1465C74.1418 77.7651 73.4744 77.3838 73.4554 77.3456C71.4149 76.1442 53.4706 65.6179 51.9069 64.5119C49.7521 62.9673 49.5232 60.1069 49.5614 57.4944C49.5614 57.0748 49.5995 56.5981 49.6186 56.0832C49.7521 53.9475 49.9237 51.0298 48.4363 49.4471C47.2158 48.1503 45.3661 46.2625 43.7261 44.6034C41.9527 42.8109 40.942 41.7812 40.6369 41.3998L40.6178 41.3807C39.855 40.4654 39.5499 39.4547 39.7406 38.5394C39.9122 37.7575 40.4271 37.1092 41.209 36.7278C41.7429 36.4799 42.5629 36.1175 43.421 35.7362C44.2982 35.3548 45.3089 34.9162 45.7094 34.7064C45.7856 34.6683 45.8428 34.6301 45.9 34.592C45.7475 34.4966 45.5377 34.4204 45.3089 34.3632H45.2898C44.0503 34.0771 39.0923 33.8483 38.463 33.8864C38.2723 33.9055 37.9672 34.1343 37.8718 34.2869C37.109 35.3738 18.5545 61.5561 17.601 62.8147C17.0671 63.5203 17.029 65.1793 17.3913 65.7323C17.6392 66.1137 17.868 66.3426 19.0885 66.2281C20.881 66.0565 22.1586 66.0947 23.093 66.3807C23.1121 66.3807 23.1121 66.3807 23.1312 66.3998C23.9702 66.6667 26.2204 67.4105 26.3158 70.9192C26.3539 72.2732 25.8009 73.4745 24.7711 74.2754C23.3981 75.3433 21.5484 75.4768 20.328 75.1145C18.8024 74.6759 13.8825 72.8643 12.2425 72.1206C10.3737 71.2625 7.72308 68.6118 7.03658 67.7537C6.40729 66.9719 5.07243 64.7979 4.51942 62.1854C4.405 61.6324 4.08082 60.0687 3.6613 58.1046C1.90691 49.9238 0.190665 41.8384 0.0571788 40.6561C-0.247932 38.3296 0.705538 35.2404 4.27152 33.5432C7.51332 31.9986 13.6537 29.7865 16.228 29.2526C17.9824 28.8902 21.5675 28.3754 24.1991 27.994C25.4195 27.8224 26.4874 27.6698 26.926 27.5935H26.945C28.1083 27.4219 29.8055 26.6019 30.5682 25.8582L30.5873 25.8391C31.6552 24.7903 33.257 23.2266 36.4035 24.0848C38.2151 24.5806 39.2448 24.8475 40.0648 25.0573L40.675 25.2098C41.5332 25.4387 43.3829 25.0954 43.7643 24.714C43.8978 24.5806 44.0312 24.428 44.1647 24.2754C45.328 22.9978 46.9298 21.2434 49.2944 21.2434C51.5255 21.2434 53.5469 22.5211 54.8436 24.7331C55.6636 26.1061 56.8078 27.3075 57.1319 27.5745C57.4943 27.8605 58.2189 28.28 59.0198 28.5661C60.0496 28.9475 84.6872 38.6729 85.9649 39.2068C87.2997 39.7407 93.0587 42.296 94.5461 43.116C94.6987 43.2114 94.8894 43.2876 95.0801 43.383C96.701 44.203 99.7139 45.7285 99.9809 49.6187C100.267 53.9475 96.8917 55.8735 95.8047 56.5027L95.7475 56.5409C94.7177 57.1702 91.5522 59.4966 90.0648 61.232C89.1304 62.338 87.3951 64.2449 85.8695 65.923C84.8779 67.01 83.8672 68.116 83.5431 68.4974C83.5621 68.5165 83.6003 68.5546 83.6384 68.5737L83.8482 68.7453C84.7635 69.4318 85.8123 70.2137 85.7361 71.968C85.6979 73.3982 84.7254 74.3517 84.0961 75.0001C83.9817 75.1145 83.8863 75.2098 83.791 75.3052C83.1045 76.0298 80.8733 78.0512 78.7376 78.547C77.9176 78.6995 77.2883 78.7949 76.7544 78.7949ZM76.4111 75.5531C76.6972 75.7056 76.8878 75.7056 78.032 75.4577C79.2143 75.1908 80.8733 73.7987 81.5026 73.1313C81.6171 72.9978 81.7505 72.8643 81.884 72.7308C82.1319 72.4829 82.5896 72.0253 82.6087 71.8346C82.6087 71.8155 82.6087 71.8155 82.6087 71.7964C82.6087 71.7583 82.6087 71.7392 82.6087 71.7201C82.5133 71.6057 82.2082 71.396 81.9794 71.2053L81.7505 71.0336C80.7017 70.2518 80.4157 69.3937 80.3394 68.8025C80.2631 68.2495 80.3394 67.4295 81.045 66.5523C81.3119 66.2281 82.1319 65.3319 83.5431 63.7491C84.9733 62.1664 86.7658 60.1831 87.6811 59.1343C89.4927 56.9986 93.0396 54.4433 94.1457 53.7758C94.1457 53.7758 94.1647 53.7758 94.1647 53.7568L94.241 53.7186C95.5759 52.9558 96.987 51.9452 96.8535 49.7522C96.72 47.8071 95.4042 46.9871 93.6689 46.1099C93.4401 45.9955 93.2113 45.8811 93.0206 45.7667C91.762 45.0611 86.1937 42.6011 84.7826 42.0291C83.6193 41.5523 58.8672 31.7697 57.9519 31.4265C56.9222 31.0451 55.8924 30.4921 55.1869 29.9391C54.5194 29.4242 53.1464 27.9177 52.1357 26.2396C51.6971 25.4959 50.7818 24.2754 49.2753 24.2754C48.3028 24.2754 47.3112 25.3433 46.4531 26.2968C46.3005 26.4684 46.1479 26.621 46.0145 26.7735C44.6415 28.2228 41.3997 28.547 39.855 28.1465L39.2639 27.994C38.4439 27.7842 37.4142 27.5172 35.5835 27.0214C34.1724 26.6401 33.7338 27.0596 32.7803 27.994L32.7612 28.013C31.5408 29.2144 29.2334 30.3204 27.4218 30.6065C26.926 30.6828 25.9153 30.8353 24.6376 31.026C22.0442 31.4074 18.5164 31.9223 16.8573 32.2465C14.5118 32.7423 8.61934 34.859 5.60638 36.3082C3.01294 37.5478 3.07015 39.6073 3.14642 40.1984V40.2175C3.27991 41.2854 5.56824 52.174 6.69333 57.4181C7.13193 59.4776 7.43704 60.965 7.55146 61.518C7.95192 63.3677 8.92446 65.1031 9.4584 65.7705C10.0496 66.5142 12.2997 68.6881 13.5011 69.2411C15.0267 69.9276 19.7559 71.682 21.1479 72.0825C21.6056 72.2159 22.3684 72.1397 22.8261 71.7773C23.074 71.5867 23.1693 71.3388 23.1693 70.9764C23.1312 69.6797 22.7879 69.5653 22.1777 69.3555C21.8154 69.2602 21.0335 69.1648 19.3936 69.3365C17.9252 69.489 16.0564 69.3937 14.7788 67.4486C13.6537 65.7514 13.8062 62.624 15.1029 60.9078C16.0946 59.592 35.164 32.666 35.2975 32.4944L35.3165 32.4753C35.8314 31.7507 36.8993 30.8544 38.2151 30.759C39.1304 30.6828 44.3745 30.9307 46.0145 31.293C48.0549 31.7507 49.3135 33.219 49.4851 34.3822C49.6377 35.5455 48.8749 36.5752 47.1968 37.4715C46.701 37.7384 45.7284 38.158 44.6987 38.5966C44.1075 38.8635 43.4782 39.1305 43.0206 39.3403C43.0206 39.3593 43.0396 39.3593 43.0396 39.3784C43.3066 39.7026 44.6605 41.0756 45.9763 42.3914C47.6354 44.0695 49.5042 45.9574 50.7437 47.2922C53.1655 49.8666 52.9367 53.7186 52.765 56.2739C52.746 56.7507 52.7078 57.1893 52.7078 57.5325C52.6697 59.0962 52.746 61.251 53.7376 61.9566C54.8245 62.7384 67.0862 69.9658 75.0572 74.6378C75.0572 74.6759 75.7818 75.0954 76.4111 75.5531Z" fill="white"/>
</g>
<defs>
<clipPath id="clip0_429_1525">
<rect width="100" height="100" fill="white"/>
</clipPath>
</defs>
</svg>
