<?xml version="1.0" encoding="utf-8"?>
<!-- Generator: Adobe Illustrator 28.2.0, SVG Export Plug-In . SVG Version: 6.00 Build 0)  -->
<svg version="1.1" id="uuid-e8c61640-474d-4d2e-a588-f733995fe195"
	 xmlns="http://www.w3.org/2000/svg" xmlns:xlink="http://www.w3.org/1999/xlink" x="0px" y="0px" viewBox="0 0 524.4 524.4"
	 style="enable-background:new 0 0 524.4 524.4;" xml:space="preserve">
<style type="text/css">
	.st0{fill:#241758;}
	.st1{fill:none;}
</style>
<g id="uuid-cf764ab3-30fc-42ab-9f8e-0da38dd7c9dc">
	<g id="uuid-45492a8c-77d9-4f89-96a8-3d8891f3f4fb">
		<g>
			<polygon class="st0" points="107.3,299.8 111.4,302.8 112.1,318.5 97.1,322.6 93.1,319.8 108.2,315.5 			"/>
			<polygon class="st0" points="115.4,305.6 119.4,308.5 120.1,324.1 105,328.4 101,325.6 116.2,321.3 			"/>
		</g>
	</g>
	<rect class="st1" width="524.4" height="524.4"/>
	<g id="uuid-49e763e8-9336-4932-ad65-e33867e679ca">
		<path class="st0" d="M182.6,414.1c-9.5,0-20.6-8.7-24.5-11.9C152,396.9,10.7,284,8.4,282.1c-0.2-0.1-2.6-2.1-4.6-3.7l-0.4-0.3
			L3,277.7c-2.4-2.5-3.4-5.9-2.9-9.4c0.6-3.8,3-7.1,6.6-9.1c3.8-2.1,63.2-27.7,69.5-29.6c10.9-3.4,16.3,3.1,18.1,5.2
			c1.6,1.9,24.7,32.3,28.9,40.2c5.1,9.4,14.4,11.1,21.1,12.2l0.4,0.1c6.1,1.1,10.4-0.1,11.1-0.4l1.6-0.8c8.7-4.1,13.5-6.5,14.4-7
			l0.2-0.1c0.4-0.2,0.7-0.4,1.1-0.5c0.2-0.1,0.5-0.2,0.7-0.3c1.2-2.4,4.9-10.8,5.6-13.4c0-6.7-0.5-9-0.7-9.5
			c-0.9-2-6.1-10.8-10.3-18c-11.3-19.3-13.7-23.7-14.3-25.8c-1.1-3.7-0.7-7.2,1-10.1c1.4-2.4,3.8-4.1,6.5-4.7
			c1.9-0.4,4.5-0.5,8.8-0.5c1.3,0,7.9,0.2,12.9,4c2.5,1.9,6.4,6.4,12,13.2l0.9,1.1c2.8,3.6,4.4,7.5,5.4,13.1c0.1,0.6,0.2,0.9,0.3,1
			c0.1,0,0.2,0.1,0.5,0.2c1.7,0.4,8.2,1,13,1c-2.1-3.6-7.9-12-12.2-18c-1.8-2.6-5-6.7-8.1-10.8c-4.8-6.3-7.9-10.3-9.1-12.4
			c-2.6-4.5-1.6-8.1-0.7-9.9c1.5-3.2,4.7-5.3,8.9-5.9c1.7-0.3,40.1-4.6,44-4.9c20.5-1.4,65-7,89.5-11.7c4-0.8,8.7-1.6,13.9-2.6
			c10.8-2,23-4.2,35.1-6.6c22.1-4.5,42.3-9.5,46.1-10.4c14.5-3.5,84-24.9,86.5-25.7c5-1.7,10.1,0.1,13,4.5
			c3.4,5.2,2.6,12.5-1.8,17.3c-1.8,2-22.3,27.3-37.4,45.8c-14.3,17.6-23.2,28.5-24.3,29.8c-3,3.5-6.7,6.9-13.4,8.2
			c-0.6,0.1-2.9,0.6-6.1,1.2c-12.1,2.5-34.6,7-38.7,7.8c-10.6,2-15.1-5.8-17.3-9.6l-0.1-0.1c-2-3.6-3.5-5.1-7.6-4.8
			c-3.5,0.2-3.6,0.3-7.5,5.5c-1.3,1.7-2.8,3.7-4.8,6.1c-4.1,4.8-13.7,16.1-25.3,16.1c-2.6,0-5.3-0.6-8.1-1.9
			c-2.5-1.1-17.7-8.5-25.1-12.1c-5.1-2.5-13.1,2.3-16.3,4.5c-6.2,4.3-10.1,7.4-11.2,18.6c-1.8,18.4-10.6,22.9-21.9,26.9
			c-6.7,2.4-7.3,3.9-10.2,11.1l-0.4,1c-3.3,8.3-7.8,16.7-17.7,22.1l-0.3,0.2c-7.2,3.9-22.2,12.1-37.4,22.4
			c-11.9,8.1-10.7,20.1-9.6,24.9c0.3,1.2,2,5.8,3.5,9.8c11.4,30.8,13.6,40.6,6.6,45.5C187.7,413.4,185.2,414.1,182.6,414.1
			L182.6,414.1z M17.6,270.5L17.6,270.5c5.9,4.7,143.8,115,150.1,120.3c3.6,3.1,7.4,5.5,10.4,6.9c-2-7.8-6.7-20.6-8.8-26.3
			c-2.3-6.3-3.5-9.7-4-11.7c-1.4-6-4.3-26.8,15.7-40.5c15.8-10.8,31.3-19.1,38.7-23.2l0.3-0.2c4.9-2.6,7.8-6.5,11-14.6l0.4-0.9
			c3.3-8.4,6-15,19-19.6c8.8-3.1,11.1-4.3,12.1-14.4c1.7-17.2,9.2-23.7,17.5-29.4c11.6-8,22.4-9.9,31.3-5.6
			c7.7,3.8,22.8,11.1,24.7,11.9l0.2,0.1c1.2,0.6,4.9,2.4,15.7-10.4c1.7-2.1,3.1-3.9,4.4-5.5c4.5-5.9,8.1-10.6,18.3-11.3
			c14.2-1,19.8,9,21.6,12.3c0.7,1.2,1.2,2,1.5,2.4c0.1,0,0.1,0,0.2,0c3.9-0.7,27.2-5.5,38.4-7.7c3.3-0.7,5.6-1.1,6.2-1.3
			c2.1-0.4,3.1-1,5.1-3.3c1-1.2,12.7-15.6,24.1-29.5c15.4-19,27.6-34,33.7-41.4c-19.7,6.1-66.9,20.4-79,23.4
			c-3.8,0.9-24.3,5.9-46.7,10.5c-12.2,2.5-24.5,4.7-35.4,6.7c-5.1,0.9-9.8,1.8-13.8,2.5c-25.3,4.9-69.9,10.4-91.3,11.9
			c-2.3,0.1-24.8,2.6-36.3,4c1.3,1.7,2.7,3.6,4,5.2c3.2,4.1,6.5,8.4,8.4,11.2c3.9,5.5,10.6,15.2,13.1,19.5c2.7,4.7,3,10.6,0.6,15.1
			c-2.1,3.9-5.9,6.4-10.4,6.7c-6,0.4-17.4-0.3-21.2-1.7c-2.2-0.8-8.8-3.2-10.4-12.6c-0.6-3.6-1.4-5.1-2.5-6.5l-0.7-0.9
			c-6.4-7.8-8.7-10.2-9.5-10.8c-0.7-0.5-2.6-1-3.9-1c2.7,4.9,7.4,12.9,10.8,18.8c8.4,14.3,10.7,18.5,11.4,20.3
			c1.1,3,1.6,7.8,1.6,15.3c0,4.9-7.5,20.1-7.6,20.2c-2.1,3.8-5.1,5.3-6.9,6.2c-0.2,0.1-0.4,0.2-0.6,0.3c-1.3,0.7-5.7,2.8-15.2,7.4
			l-1.6,0.7c-3.6,1.7-11.1,3.2-20.1,1.7l-0.4-0.1c-3.8-0.7-9.5-1.7-15.3-4.4c-7.2-3.4-12.7-8.6-16.4-15.5
			c-3.3-6.1-25.1-35.1-27.3-37.8c-0.4-0.5-0.6-0.7-0.7-0.8c-0.2,0-0.7,0-1.5,0.3l-0.1,0C76.1,245.2,31.5,264.3,17.6,270.5
			L17.6,270.5z M202.5,228.9C202.5,228.9,202.5,228.9,202.5,228.9C202.5,228.9,202.5,228.9,202.5,228.9z M514,125.1
			C514,125.1,514,125.1,514,125.1C514,125.1,514,125.1,514,125.1z"/>
	</g>
</g>
</svg>
