<svg width="100" height="100" viewBox="0 0 100 100" fill="none" xmlns="http://www.w3.org/2000/svg">
<g clip-path="url(#clip0_429_1600)">
<path d="M20.4618 57.1702L21.2436 57.7422L21.3771 60.7361L18.5167 61.518L17.7539 60.984L20.6334 60.1641L20.4618 57.1702Z" fill="white"/>
<path d="M22.0067 58.2761L22.7695 58.8291L22.903 61.804L20.0235 62.6239L19.2607 62.09L22.1593 61.27L22.0067 58.2761Z" fill="white"/>
<path d="M34.8207 78.9665C33.0091 78.9665 30.8924 77.3074 30.1487 76.6972C28.9855 75.6865 2.0404 54.1572 1.6018 53.7949C1.56367 53.7758 1.106 53.3944 0.724611 53.0893L0.648334 53.0321L0.572056 52.9558C0.11439 52.4791 -0.0763041 51.8307 0.019043 51.1633C0.133459 50.4386 0.591125 49.8093 1.27762 49.428C2.00226 49.0275 13.3295 44.1457 14.5309 43.7834C16.6094 43.1351 17.6392 44.3746 17.9824 44.775C18.2875 45.1373 22.6926 50.9344 23.4935 52.4409C24.466 54.2334 26.2395 54.5576 27.5171 54.7674L27.5934 54.7865C28.7566 54.9962 29.5766 54.7674 29.7101 54.7102L30.0152 54.5576C31.6743 53.7758 32.5896 53.3181 32.7612 53.2228L32.7994 53.2037C32.8756 53.1656 32.9328 53.1274 33.0091 53.1084C33.0473 53.0893 33.1045 53.0702 33.1426 53.0511C33.3714 52.5935 34.077 50.9916 34.2105 50.4958C34.2105 49.2182 34.1152 48.7796 34.077 48.6843C33.9054 48.3029 32.9138 46.6248 32.1129 45.2518C29.958 41.5714 29.5004 40.7323 29.3859 40.3318C29.1762 39.6263 29.2525 38.9588 29.5766 38.4058C29.8436 37.9482 30.3013 37.624 30.8161 37.5096C31.1785 37.4333 31.6743 37.4142 32.4943 37.4142C32.7422 37.4142 34.0007 37.4524 34.9542 38.177C35.4309 38.5393 36.1746 39.3974 37.2425 40.6942L37.4142 40.9039C37.9481 41.5904 38.2532 42.3341 38.4439 43.402C38.463 43.5164 38.482 43.5736 38.5011 43.5927C38.5202 43.5927 38.5393 43.6118 38.5965 43.6309C38.9206 43.7071 40.1602 43.8216 41.0755 43.8216C40.675 43.1351 39.569 41.5332 38.749 40.3891C38.4058 39.8933 37.7956 39.1114 37.2044 38.3296C36.2891 37.1282 35.6979 36.3654 35.4691 35.965C34.9733 35.1068 35.164 34.4203 35.3356 34.0771C35.6216 33.4669 36.2319 33.0664 37.0328 32.952C37.357 32.8948 44.6796 32.0748 45.4233 32.0176C49.3325 31.7506 57.8184 30.6827 62.4904 29.7865C63.2532 29.6339 64.1495 29.4814 65.1411 29.2907C67.2006 28.9093 69.5271 28.4897 71.8344 28.0321C76.0488 27.174 79.9008 26.2205 80.6254 26.0489C83.3905 25.3814 96.6438 21.3006 97.1205 21.148C98.074 20.8238 99.0465 21.1671 99.5995 22.0061C100.248 22.9978 100.095 24.3898 99.2563 25.3052C98.913 25.6865 95.0038 30.5111 92.1243 34.0389C89.3974 37.3952 87.7002 39.4737 87.4904 39.7216C86.9183 40.3891 86.2128 41.0374 84.9351 41.2853C84.8207 41.3044 84.3821 41.3997 83.7719 41.5142C81.4645 41.9909 77.1739 42.849 76.392 43.0016C74.3707 43.383 73.5126 41.8955 73.093 41.1709L73.074 41.1518C72.6926 40.4653 72.4065 40.1793 71.6247 40.2365C70.9573 40.2746 70.9382 40.2937 70.1945 41.2853C69.9466 41.6095 69.6605 41.9909 69.2791 42.4486C68.4973 43.3639 66.6666 45.5187 64.4546 45.5187C63.9588 45.5187 63.4439 45.4043 62.91 45.1564C62.4332 44.9466 59.5347 43.5355 58.1235 42.849C57.151 42.3723 55.6254 43.2876 55.0152 43.7071C53.8329 44.5271 53.0892 45.1183 52.8794 47.254C52.5362 50.7628 50.8581 51.6209 48.7033 52.3837C47.4256 52.8414 47.3112 53.1274 46.7582 54.5004L46.6819 54.6911C46.0526 56.2739 45.1945 57.8757 43.3066 58.9055L43.2494 58.9436C41.8764 59.6873 39.016 61.251 36.1174 63.2151C33.8482 64.7598 34.077 67.0481 34.2868 67.9634C34.344 68.1923 34.6682 69.0695 34.9542 69.8322C37.1281 75.7056 37.5476 77.5744 36.2128 78.5088C35.7933 78.833 35.3165 78.9665 34.8207 78.9665ZM3.35619 51.5828C4.48129 52.4791 30.778 73.5126 31.9794 74.5233C32.6659 75.1145 33.3905 75.5721 33.9626 75.8391C33.5812 74.3517 32.6849 71.9108 32.2845 70.8238C31.8459 69.6225 31.6171 68.9741 31.5217 68.5927C31.2547 67.4486 30.7017 63.4821 34.5156 60.8696C37.5286 58.8101 40.4843 57.2273 41.8955 56.4455L41.9527 56.4074C42.8871 55.9116 43.4401 55.1679 44.0503 53.6232L44.1266 53.4516C44.7559 51.8498 45.2708 50.5912 47.7498 49.714C49.4279 49.1228 49.8665 48.894 50.0572 46.968C50.3814 43.6881 51.8116 42.4486 53.3943 41.3616C55.6064 39.836 57.6659 39.4737 59.363 40.2937C60.8314 41.0183 63.7109 42.4104 64.0732 42.563L64.1113 42.582C64.3402 42.6965 65.0457 43.0397 67.1052 40.5988C67.4294 40.1984 67.6964 39.8551 67.9443 39.55C68.8024 38.4249 69.4889 37.5286 71.434 37.3952C74.1418 37.2045 75.2097 39.1114 75.553 39.7407C75.6865 39.9695 75.7818 40.1221 75.839 40.1984C75.8581 40.1984 75.8581 40.1984 75.8772 40.1984C76.6209 40.0649 81.064 39.1495 83.1998 38.73C83.8291 38.5965 84.2677 38.5203 84.3821 38.4821C84.7826 38.4058 84.9733 38.2914 85.3547 37.8528C85.5454 37.624 87.7765 34.878 89.9504 32.2273C92.8871 28.6042 95.2135 25.7437 96.3768 24.3326C92.6201 25.4958 83.6193 28.2228 81.3119 28.7949C80.5873 28.9665 76.6781 29.9199 72.4065 30.7971C70.0801 31.2739 67.7345 31.6934 65.656 32.0748C64.6834 32.2464 63.7872 32.418 63.0244 32.5515C58.1998 33.4859 49.6949 34.5347 45.614 34.8208C45.1754 34.8399 40.8848 35.3166 38.6918 35.5836C38.9397 35.9077 39.2067 36.2701 39.4546 36.5752C40.0648 37.357 40.6941 38.177 41.0564 38.7109C41.8001 39.7598 43.0778 41.6095 43.5545 42.4295C44.0694 43.3257 44.1266 44.4508 43.6689 45.309C43.2685 46.0527 42.5438 46.5294 41.6857 46.5866C40.5415 46.6629 38.3676 46.5294 37.643 46.2624C37.2235 46.1099 35.9649 45.6522 35.6598 43.8597C35.5454 43.1732 35.3928 42.8871 35.183 42.6202L35.0496 42.4486C33.8291 40.9611 33.3905 40.5035 33.238 40.3891C33.1045 40.2937 32.7422 40.1984 32.4943 40.1984C33.0091 41.1328 33.9054 42.6583 34.5537 43.7834C36.1556 46.5103 36.5942 47.3113 36.7277 47.6545C36.9374 48.2266 37.0328 49.1419 37.0328 50.5721C37.0328 51.5065 35.6026 54.4051 35.5835 54.4241C35.183 55.1488 34.611 55.4348 34.2677 55.6064C34.2296 55.6255 34.1914 55.6446 34.1533 55.6637C33.9054 55.7971 33.0663 56.1976 31.2547 57.0748L30.9496 57.2083C30.2631 57.5325 28.8329 57.8185 27.1167 57.5325L27.0404 57.5134C26.3158 57.3799 25.2288 57.1892 24.1228 56.6743C22.7498 56.026 21.701 55.0344 20.9954 53.7186C20.3661 52.5553 16.209 47.0252 15.7894 46.5103C15.7132 46.415 15.675 46.3769 15.656 46.3578C15.6178 46.3578 15.5225 46.3578 15.3699 46.415H15.3509C14.5118 46.7582 6.00684 50.4005 3.35619 51.5828Z" fill="white"/>
</g>
<defs>
<clipPath id="clip0_429_1600">
<rect width="100" height="100" fill="white"/>
</clipPath>
</defs>
</svg>
