<svg width="100" height="100" viewBox="0 0 100 100" fill="none" xmlns="http://www.w3.org/2000/svg">
<g clip-path="url(#clip0_429_1620)">
<path d="M54.1384 81.4646C51.3161 81.4646 48.8943 81.4646 46.7013 81.4455C42.7348 81.4264 40.1986 81.3692 38.7684 81.3502C37.1475 81.312 36.4229 81.2739 35.6601 81.1976C34.8401 81.1213 34.0583 81.0069 33.3336 80.8543C32.5899 80.7018 31.8081 80.492 30.95 80.206C30.149 79.939 29.31 79.653 28.6044 79.386C27.937 79.1381 27.3077 78.9093 26.5831 78.5851C25.8966 78.28 25.1147 77.8986 24.1422 77.4219C23.1315 76.9261 21.9873 76.354 20.4999 75.534C18.8218 74.6187 16.8577 73.5126 15.6754 72.8452C14.4358 72.1396 13.7303 71.701 13.1963 71.3768L12.9103 71.2052C12.4526 70.9192 12.1284 70.7285 11.6517 70.4234C11.1559 70.0801 10.5075 69.6225 9.61128 68.9741L9.57314 68.955C8.69595 68.3258 7.49458 67.4486 6.42669 66.7621C5.22532 65.9611 4.29092 65.4272 3.85232 65.1793C3.20396 64.817 2.87978 64.6644 2.57467 64.55C2.36491 64.4737 2.13607 64.3974 1.94538 64.3402C1.79282 64.3021 1.65934 64.2449 1.54492 64.2068C1.20167 64.0923 0.95377 63.9589 0.744006 63.8063C0.515174 63.6347 0.343549 63.444 0.229132 63.2342C0.133785 63.0435 0.0575077 62.8528 0.0193689 62.624C-0.0378394 62.2998 0.000299469 62.0901 0.248202 61.0412C0.457965 60.2022 0.820284 58.7148 1.12539 57.5325L1.27795 56.9222C1.58306 55.7399 1.71655 55.206 1.94538 54.6911C2.17421 54.1572 2.49839 53.7186 2.76536 53.3563C3.01327 53.0321 3.29931 52.6698 3.7379 52.3265C4.06208 52.0595 4.4244 51.8498 4.82486 51.6209L5.18718 51.3921C5.56857 51.1633 5.98809 50.9154 6.4839 50.6675C7.11319 50.3624 7.83783 50.0763 8.33363 49.8856L8.71502 49.7521C9.13455 49.5996 9.53501 49.447 9.95453 49.2563C10.3931 49.0656 10.9271 48.7987 11.5945 48.4554C12.1284 48.1694 12.5289 47.9596 13.0056 47.6736C13.6731 47.2731 14.1498 46.968 14.4931 46.701C14.8935 46.3959 15.1796 46.0908 15.4465 45.7857C15.7135 45.4997 15.9805 45.1755 16.1712 44.9085C16.3237 44.6797 16.4381 44.4318 16.5525 44.1076C16.667 43.8025 16.7623 43.4974 16.8386 43.1351C16.9149 42.8299 17.0102 42.4104 17.0674 41.7811C17.1246 41.209 17.1818 40.4463 17.22 38.2533C17.239 36.9566 17.2772 35.145 17.2963 33.5431C17.3153 32.399 17.3344 31.312 17.3535 30.5302C17.3916 28.5851 17.4107 28.3181 17.4679 27.9558C17.506 27.6507 17.5823 27.2121 17.6776 26.7926C17.773 26.3921 17.9065 26.0489 18.1162 25.6103C18.3069 25.2098 18.5358 24.8093 18.7837 24.4089C18.9934 24.0847 19.2985 23.608 19.7562 23.1312C20.2139 22.6354 20.7287 22.235 21.0911 21.9871C21.5487 21.6629 22.0064 21.3769 22.5213 21.148C23.0171 20.9192 23.551 20.7094 24.0468 20.5569C24.5617 20.4043 25.0003 20.328 25.3054 20.2708C25.6868 20.2136 25.9728 20.1755 26.3542 20.1564C26.7738 20.1373 27.2505 20.1373 27.6509 20.1564C28.1277 20.1755 28.49 20.2136 28.9286 20.309C29.3672 20.4043 29.8821 20.5569 30.3588 20.7285C30.7974 20.8811 31.2169 21.0717 31.6555 21.2815C32.075 21.4913 32.4183 21.682 32.7806 21.9108C33.1811 22.1587 33.5434 22.4447 33.8676 22.7117C34.1727 22.9787 34.4778 23.2838 34.7638 23.608C35.0117 23.894 35.2024 24.1419 35.4122 24.4661C35.641 24.8094 35.8317 25.1335 36.0033 25.4768C36.175 25.82 36.3466 26.2205 36.461 26.6019C36.5754 26.9261 36.6517 27.2312 36.7089 27.5363C36.7661 27.8605 36.8043 28.1465 36.8424 29.5958C36.8615 30.5683 36.8996 32.1129 36.9187 33.4859C36.9377 34.1534 36.9377 34.7827 36.9568 35.3166C36.9759 36.6705 36.995 37.2807 37.0331 37.6049C37.3954 37.624 37.9866 37.624 38.2154 37.624C40.5609 37.6621 43.8599 37.6431 48.3031 37.5859C54.043 37.5096 62.8531 37.3189 69.0125 37.1854C74.4663 37.0519 78.3756 36.9566 80.6067 36.8612C82.5136 36.7849 82.9522 36.7277 83.3146 36.6705C83.6959 36.6133 84.0392 36.537 84.3252 36.4608C84.6113 36.3845 84.8973 36.2891 85.2024 36.1557C85.5266 36.0222 85.8317 35.8696 86.1178 35.698C86.4038 35.5264 86.6708 35.3547 86.9187 35.145C87.1475 34.9543 87.3763 34.7636 87.567 34.5729C87.7387 34.4013 87.8912 34.2106 88.0056 34.0389C88.1391 33.8673 88.2345 33.6766 88.2917 33.5431C88.3489 33.4097 88.387 33.2762 88.4061 33.1427C88.4252 32.9901 88.4252 32.8376 88.4252 32.6278C88.4061 32.3799 88.387 32.132 88.3298 31.8841C88.2726 31.5981 88.1963 31.2929 88.0819 31.026C87.9866 30.7781 87.8531 30.492 87.7196 30.2441C87.6052 30.0344 87.4908 29.8627 87.1475 29.3479L87.1284 29.3097C86.7852 28.7758 86.2512 27.9939 85.908 27.4219C85.5647 26.8879 85.355 26.5065 85.2215 26.1823C85.0499 25.7819 85.0117 25.5149 84.9736 24.5996C84.9355 23.7415 84.8782 22.1015 84.8401 21.3196V21.3006C84.821 20.7666 84.802 20.4806 84.802 20.4425C84.802 20.328 84.802 20.1755 84.8592 19.9657C84.9164 19.7369 85.0117 19.5271 85.1643 19.3364C85.3168 19.1267 85.4885 18.9741 85.6982 18.8406C85.9271 18.7071 86.194 18.6309 86.4801 18.6309C86.6708 18.6309 86.8996 18.6499 87.0903 18.7071C87.3573 18.7643 87.5861 18.8788 87.8149 19.0313C88.0438 19.1839 88.2535 19.3936 88.4824 19.6797C88.6349 19.8704 88.8065 20.1183 89.0926 20.5187L89.3596 20.9192C89.5312 21.1671 89.76 21.4722 89.9888 21.8155C90.3321 22.2922 90.7135 22.8452 91.0949 23.3791C91.2856 23.6652 91.4763 23.9322 91.667 24.2182C92.1056 24.8666 92.5823 25.534 93.1162 26.2777C93.5167 26.8498 93.9553 27.46 94.413 28.0893C94.8325 28.6804 95.2711 29.2716 95.6906 29.8627C96.5869 31.1023 97.4068 32.2846 97.9408 33.0855C98.4938 33.9055 98.7608 34.3441 98.9896 34.7827C99.1803 35.1831 99.3519 35.5645 99.4854 36.0031C99.5998 36.3654 99.6952 36.7468 99.7524 37.0519C99.8287 37.4142 99.8859 37.7193 99.924 38.3296C99.9431 38.9207 99.9431 39.7598 99.8859 46.129C99.8287 52.6507 99.6952 64.4356 99.638 70.2327C99.5998 74.3707 99.5426 76.5447 99.5045 76.7163C99.4473 77.0023 99.3138 77.2502 99.1422 77.46C99.0087 77.6316 98.837 77.7842 98.6082 77.9558C98.5319 78.013 98.4557 78.0512 98.3794 78.1084C98.3031 78.1656 98.2078 78.2228 98.1315 78.28C98.0361 78.3563 97.998 78.3944 97.9789 78.4135C97.9599 78.4325 97.9408 78.4707 97.9027 78.5851C97.8645 78.6995 97.8454 78.8139 97.8454 78.9665C97.8454 79.0618 97.8264 79.1762 97.8264 79.2716C97.8264 79.386 97.8264 79.5004 97.8073 79.5958C97.7882 79.8627 97.7501 80.0916 97.6929 80.2823C97.6357 80.492 97.5594 80.6446 97.5022 80.7399C97.178 81.312 96.7394 81.312 95.7859 81.3311C95.0613 81.3502 93.612 81.3502 90.4847 81.3692C85.1643 81.4074 72.7501 81.4836 63.8256 81.5218C60.1452 81.4455 56.9416 81.4646 54.1384 81.4646ZM2.26956 62.1091C2.36491 62.1473 2.47932 62.1854 2.59374 62.2235C2.82257 62.2998 3.07047 62.3761 3.33745 62.4714C3.81418 62.6431 4.25278 62.8528 4.93928 63.2342C5.41601 63.5012 6.40762 64.0733 7.6662 64.9123C8.75316 65.637 9.9736 66.5142 10.8699 67.1434L10.908 67.1625C11.7852 67.7918 12.4145 68.2495 12.8912 68.5737C13.3107 68.8597 13.6159 69.0504 14.0545 69.2983L14.3596 69.4699C14.8744 69.775 15.58 70.2136 16.8005 70.9192C18.04 71.6438 20.0041 72.7308 21.5678 73.5698C23.0361 74.3707 24.1612 74.9238 25.1529 75.4196C26.0873 75.8772 26.85 76.2395 27.4984 76.5256C28.1658 76.8116 28.757 77.0405 29.3863 77.2693C30.0728 77.5172 30.8737 77.8032 31.6364 78.0511C32.4183 78.299 33.1239 78.4897 33.8104 78.6423C34.4778 78.7758 35.1834 78.8902 35.908 78.9474C36.6136 79.0237 37.3001 79.0428 38.8638 79.0809C40.2749 79.119 42.7921 79.1572 46.7585 79.1762C51.1445 79.2144 56.4458 79.2144 63.921 79.1762C72.8455 79.1381 85.2596 79.0618 90.5609 79.0237C93.1734 79.0046 94.8325 78.9855 95.7097 78.9855C95.7097 78.8711 95.7287 78.7567 95.7287 78.6423C95.7478 78.3372 95.805 78.0702 95.8813 77.8223C95.9766 77.4981 96.1101 77.2312 96.2818 76.9833C96.4534 76.7544 96.6631 76.5447 96.9301 76.3349C97.0445 76.2586 97.1589 76.1824 97.2543 76.1061C97.3115 76.0679 97.3687 76.0298 97.4259 75.9916C97.4259 75.9916 97.445 75.9917 97.445 75.9726C97.4641 75.4768 97.4831 73.7987 97.5213 70.0229C97.5785 64.2449 97.712 52.46 97.7692 45.9383C97.8264 39.7598 97.8264 38.7872 97.8073 38.2533C97.7882 37.7766 97.7501 37.6049 97.6929 37.357C97.6357 37.071 97.5594 36.7659 97.4641 36.4608C97.3687 36.1366 97.2543 35.8696 97.1208 35.5836C96.9492 35.2403 96.7013 34.8589 96.2055 34.1343C95.6715 33.3524 94.8706 32.1892 93.9744 30.9497C93.5548 30.3585 93.1162 29.7674 92.6967 29.1762C92.239 28.547 91.8004 27.9177 91.4 27.3647C90.866 26.6019 90.3893 25.9344 89.9316 25.2861C89.7409 25 89.5503 24.7331 89.3596 24.4661C88.9782 23.9322 88.5968 23.3791 88.2535 22.9024C88.0247 22.5592 87.7959 22.254 87.6242 22.0061L87.3382 21.6057C87.2619 21.4913 87.1856 21.3959 87.1284 21.3006C87.1666 22.1396 87.2047 23.5508 87.2429 24.3135C87.2429 24.5042 87.281 25 87.3001 25.0954C87.3001 25.0954 87.3001 25.1145 87.3191 25.1145C87.4145 25.3242 87.5861 25.6293 87.8531 26.0679C88.1963 26.6019 88.7112 27.3837 89.0354 27.8986L89.0544 27.9367C89.3977 28.4516 89.5503 28.6804 89.7219 28.9856C89.8554 29.2335 90.0461 29.6148 90.2177 30.0534C90.3512 30.4348 90.4847 30.8544 90.5609 31.2548C90.6372 31.6171 90.6754 31.9604 90.6944 32.3227C90.7135 32.6659 90.6944 32.9711 90.6563 33.2571C90.6181 33.6003 90.5228 33.9245 90.3893 34.2296C90.2749 34.5157 90.1033 34.8208 89.8744 35.1259C89.6837 35.4119 89.4549 35.6789 89.207 35.9459C88.94 36.2129 88.654 36.4798 88.3298 36.7277C87.9866 36.9947 87.6433 37.2235 87.2619 37.4524C86.8996 37.6621 86.5182 37.8528 86.1178 38.0245C85.7173 38.1961 85.355 38.3296 84.9545 38.4249C84.5731 38.5203 84.1727 38.6156 83.6959 38.6919C83.2383 38.7682 82.7615 38.8254 80.7211 38.9016C78.4709 38.997 74.5617 39.0923 69.0888 39.2258C62.9103 39.3784 54.1193 39.55 48.3603 39.6263C43.8981 39.6835 40.58 39.7026 38.2154 39.6644C36.6136 39.6454 36.3847 39.6263 36.0415 39.4737C35.7554 39.3402 35.5266 39.1495 35.3931 39.0161C35.1071 38.73 34.9545 38.3868 34.8973 37.8528C34.8592 37.4714 34.821 36.9184 34.802 35.1831C34.7829 34.6492 34.7829 34.0199 34.7638 33.3524C34.7448 31.9794 34.7066 30.4348 34.6876 29.4814C34.6494 28.0702 34.6303 27.9367 34.5922 27.8032C34.5541 27.5744 34.4969 27.3647 34.4015 27.1358C34.3062 26.8498 34.1727 26.5447 34.0392 26.2777C33.9057 26.0298 33.7722 25.7819 33.6006 25.5149C33.448 25.2861 33.2955 25.0954 33.1239 24.8856C32.9141 24.6377 32.6853 24.4089 32.4564 24.2182C32.2085 24.0084 31.9225 23.7987 31.6174 23.608C31.3313 23.4173 31.0453 23.2647 30.7211 23.0931C30.3588 22.9215 30.0156 22.7689 29.6532 22.6354C29.2718 22.502 28.8523 22.3685 28.49 22.2922C28.1849 22.235 27.937 22.1968 27.5937 22.1778C27.2505 22.1587 26.831 22.1587 26.4877 22.1778C26.2017 22.1968 25.9919 22.2159 25.6868 22.254C25.4389 22.2922 25.0956 22.3494 24.7143 22.4638C24.3329 22.5782 23.8943 22.7499 23.5129 22.9405C23.1315 23.1312 22.7692 23.341 22.4259 23.5889C22.0445 23.8559 21.6822 24.1801 21.4152 24.4661C21.1673 24.7331 20.9576 25.0191 20.7097 25.4005C20.4999 25.7247 20.3092 26.087 20.1567 26.3921C20.0041 26.6782 19.9278 26.907 19.8706 27.1549C19.7943 27.46 19.7371 27.8223 19.699 28.0702C19.6609 28.2991 19.6418 28.4707 19.6037 30.3776C19.5846 31.1595 19.5655 32.2464 19.5464 33.3906C19.5274 34.9924 19.4892 36.8231 19.4702 38.1198C19.413 40.4081 19.3748 41.19 19.2985 41.8383C19.2413 42.4295 19.146 42.9253 19.0125 43.4783C18.8981 43.936 18.7837 44.3174 18.6502 44.6987C18.4786 45.1755 18.2688 45.5759 18.04 45.9383C17.7921 46.3196 17.487 46.682 17.1246 47.0824C16.8005 47.4447 16.4191 47.8452 15.8851 48.2647C15.4656 48.5889 14.9126 48.9512 14.1689 49.4089C13.6731 49.714 13.2345 49.9619 12.6624 50.2479C11.9568 50.6103 11.3847 50.8963 10.8889 51.1251C10.4122 51.3349 9.99267 51.4875 9.53501 51.6591L9.17269 51.7926C8.71502 51.9642 8.04759 52.2312 7.51365 52.4981C7.09412 52.7079 6.7318 52.9177 6.38855 53.1465L6.00716 53.3753C5.68298 53.566 5.37787 53.7567 5.16811 53.9093C4.95835 54.0809 4.80579 54.2525 4.59603 54.5386C4.36719 54.8437 4.1765 55.1106 4.04301 55.4348C3.89046 55.7781 3.77604 56.2548 3.50907 57.3227L3.35652 57.9329C3.05141 59.1152 2.68909 60.5836 2.47932 61.4226C2.34584 61.804 2.3077 61.9756 2.26956 62.1091Z" fill="white"/>
<path d="M94.0882 23.8939L93.4971 23.112L94.2408 20.1562L97.2537 20.2325L97.8449 20.9762L94.7938 20.919L94.0882 23.8939Z" fill="white"/>
<path d="M92.9251 22.3684L92.334 21.6056L93.0777 18.6689L96.1288 18.7262L96.7199 19.4699L93.6498 19.4127L92.9251 22.3684Z" fill="white"/>
</g>
<defs>
<clipPath id="clip0_429_1620">
<rect width="100" height="100" fill="white"/>
</clipPath>
</defs>
</svg>
