<?xml version="1.0" encoding="UTF-8"?>
<svg id="uuid-514c01f7-2778-4425-b8df-1633be3c7306" data-name="Layer 2" xmlns="http://www.w3.org/2000/svg" width="525.16644" height="524.40942" viewBox="0 0 525.16644 524.40942">
  <g id="uuid-d70a8852-611f-4317-a25d-e0d32900fc51" data-name="uuid-956e7b65-7a39-4a06-93e9-f31962895cf2">
    <g id="uuid-a717124f-b286-466c-8af5-2f2f5098cb82" data-name="uuid-28cd20aa-65aa-4357-b707-874ff20342cd">
      <g id="uuid-a96b48d6-7e1b-480c-a080-53626600a9c4" data-name="uuid-8195bd1c-9440-41b3-a478-0a6d48a8c02a">
        <path d="M107.44185,475.16559c-26.87062,0-50.59115-6.7605-59.54239-9.66608-14.07009-4.50159-47.89946-29.8725-47.89946-65.88388,0-9.6936,1.36211-28.25775,10.48596-43.68494,1.80488-3.05566,164.86041-279.13153,171.39014-290.80826,5.45593-9.75925,12.66045-13.30648,17.74364-14.56415,5.47343-1.35272,14.29398-1.47968,25.22084,5.61853,7.83742,5.09007,12.21642,13.41405,12.32899,23.43909.08318,7.36025-2.12634,14.20267-4.35336,17.71863l-.1032.15948c-7.65356,11.54225-25.79245,42.48667-30.12955,50.7994-4.56036,8.50659-10.09445,23.50101-11.5804,36.53419-1.23265,10.80865-1.71107,14.12137-2.02815,16.314-.10568.7336-.19325,1.33459-.28893,2.09882-.7336,6.11259-6.63354,18.76428-23.66861,22.58794-11.68295,2.62289-27.97444,6.41653-35.43663,8.47533-4.39714,1.21265-3.87869,7.3046-3.45154,9.86682.14509.8718.55035,2.17136,2.38525,3.38963,3.28769,2.18324,8.97314,2.75047,14.48535,1.43965l1.78925-.40964c13.87621-3.18201,42.74997-9.79929,75.52304-7.369,17.60667,1.30707,33.97195,7.77802,49.79816,14.03569,14.36151,5.6792,27.94006,11.04819,39.54858,11.04819.17761,0,.35522-.00125.53284-.00375,19.88126-.32019,38.88568-10.58852,48.01892-15.5235.74796-.40401,1.4259-.77048,2.03128-1.09131,7.60602-4.04129,28.33405-12.89372,56.4567-7.83366,23.99756,4.31647,51.93637,10.19453,63.91013,12.88559,13.25333,2.97813,36.50665,17.77678,42.48041,44.80815,3.25952,14.56726,2.06378,37.04453-22.17017,61.27472l-1.20325,1.19949c-6.1889,6.16638-22.63046,22.54541-30.39532,34.47665l-2.43402,3.70483c-11.36465,17.30463-19.64734,29.84375-22.5379,33.27591-2.70044,3.2858-9.79739,11.82242-23.52853,10.79553l-.13507-.01126c-9.3071-.83426-40.26028-6.89059-57.65872-19.01318-15.91498-11.17953-29.01947-27.31216-32.3028-33.20963-5.60602-9.78864-.90308-22.52914,7.03818-28.32028l.52283-.3815c6.84305-5.0069,16.21518-11.86371,41.20087-11.86371,22.45911,0,27.71616-.79175,40.44415-4.17761,15.4422-4.14636,16.22018-10.29147,16.51288-12.60541,1.49719-11.17578-1.55222-15.95502-11.64606-18.33026-17.49225-4.11633-49.55362-11.25958-67.75131-12.85806-18.27899-1.60538-53.22717-1.23639-76.11279,1.87305-24.26398,3.29706-59.32413,10.22955-72.14218,14.26584-13.04005,4.10382-24.36404,8.74423-26.82246,9.82117-4.14948,1.99249-9.03505,2.18262-13.12387.50531-4.14198-1.70108-7.3027-5.22079-8.89934-9.91122l-.26704-.79175c-3.32896-9.91309-6.28458-12.85495-12.12762-12.08884-6.63667.86304-7.35524,3.08694-7.33711,11.47845l.00063.65417c0,3.12445.87054,27.75369,1.71233,51.57239,1.03001,29.14206,2.0025,56.66684,2.0025,61.26599,0,26.93692-13.63919,43.01828-36.48604,43.01828v-.00003ZM205.70357,67.98175c-.61163,0-1.18762.06567-1.72482.19887-2.32208.57411-4.42715,2.52596-6.25832,5.80114-6.63667,11.8687-164.87418,279.78631-171.60715,291.18475l-.0025.005c-6.92372,11.70734-7.95812,26.60547-7.95812,34.44412,0,27.56982,28.12766,46.30658,35.3153,48.60553,6.38026,2.07129,29.0151,8.79053,53.9739,8.79053,4.5341,0,18.33339,0,18.33339-24.86435,0-4.27768-1.05816-34.21399-1.99125-60.62558-1.07255-30.34406-1.72358-48.99951-1.72358-52.2128l-.00125-.61414c-.01438-6.55536-.05754-26.50226,23.14891-29.51978,9.66982-1.25516,17.95503,1.90869,23.9713,9.15637,3.88306,4.67795,5.95311,10.03943,7.23705,13.76865,4.54973-1.89432,15.00192-6.02191,26.92191-9.77426,15.11699-4.75925,52.144-11.8118,75.1497-14.9375,24.87311-3.38025,60.96704-3.65353,80.14532-1.96936,18.36154,1.61349,48.37537,8.1076,70.3204,13.27145,11.08945,2.60913,29.14581,11.0607,25.48849,38.34595-1.71732,13.57101-11.75488,22.94565-29.82498,27.79745-15.15952,4.03378-22.32651,4.79425-45.13208,4.79425-19.05447,0-25.12579,4.44153-30.48288,8.36026l-.5441.39774c-2.09256,1.52597-2.09756,4.09631-1.90494,4.76675l.03128.05753c1.5097,2.75049,12.48535,17.07571,26.84686,27.16455,13.36215,9.3096,39.89255,14.98441,48.80563,15.79993,3.77612.27393,5.48093-1.04941,8.12759-4.27267l.10382-.12259c2.31897-2.72421,14.16641-20.76428,21.2446-31.5423l2.41528-3.67606c8.78802-13.50223,25.59732-30.24899,32.77557-37.401l1.1795-1.17575c14.77179-14.76929,20.58792-29.73993,17.28461-44.49731-4.27643-19.35715-21.52603-29.4166-28.73929-31.03763-11.82617-2.65793-39.42728-8.46408-63.14465-12.7305-22.53665-4.0538-38.78812,2.84366-44.72684,5.99878-.57037.30331-1.21201.64978-1.91745,1.03128-9.58728,5.18015-32.04013,17.31088-56.37164,17.70361-15.36215.21075-30.73181-5.86868-47.03329-12.314-14.56165-5.758-29.61861-11.71173-44.46605-12.8143-30.04387-2.22952-57.11275,3.97687-70.12279,6.95938l-1.73235.39651c-10.40216,2.47031-21.13827.98438-28.64111-3.9975-5.55536-3.68857-9.19515-9.20328-10.24956-15.52788-2.45779-14.74802,4.18513-26.94505,16.52976-30.35094,7.76614-2.14259,23.83747-5.89246,36.28841-8.68796,8.08133-1.81364,9.52724-6.75362,9.64105-7.1964.11069-.8768.20827-1.55473.32646-2.37462.30144-2.08505.75673-5.23579,1.9581-15.77367,1.76611-15.49159,8.08884-32.74181,13.5704-42.96573,4.5316-8.68671,22.82809-39.91944,30.94693-52.19278.15697-.37398,4.69858-11.51661-2.53096-16.21206-3.45154-2.24203-6.66168-3.41902-9.24956-3.41902l-.00006.00002ZM174.0887,313.10944c-.00125.00064-.0025.00125-.00375.00125l.00375-.00125ZM170.67593,200.96776c-.00313.02251-.00563.0444-.00813.06503.00313-.0219.00563-.04378.00813-.06503Z" style="fill: #241758; stroke-width: 0px;"/>
      </g>
      <rect x=".75703" width="524.40941" height="524.40942" style="fill: none; stroke-width: 0px;"/>
      <rect x=".75703" width="524.40941" height="524.40942" style="fill: none; stroke-width: 0px;"/>
      <rect x=".75703" width="524.40941" height="524.40942" style="fill: none; stroke-width: 0px;"/>
      <rect x=".75703" width="524.40941" height="524.40942" style="fill: none; stroke-width: 0px;"/>
      <g id="uuid-9e73223c-9d78-4832-822f-d18b7b67a1f2" data-name="uuid-9d31b354-d91b-4e87-916b-b1967a2dcd35">
        <g>
          <polygon points="77.1042 165.9558 79.56324 161.44768 95.21096 158.56357 101.48516 173.05923 99.22337 177.46201 92.78599 162.85069 77.1042 165.9558" style="fill: #241758; stroke-width: 0px;"/>
          <polygon points="81.82502 157.04492 84.14462 152.56056 99.79237 149.67647 106.17195 164.36935 103.91014 168.77211 97.53059 154.07922 81.82502 157.04492" style="fill: #241758; stroke-width: 0px;"/>
        </g>
      </g>
    </g>
  </g>
</svg>