<svg width="170" height="100" viewBox="0 0 170 100" fill="none" xmlns="http://www.w3.org/2000/svg">
<g clip-path="url(#clip0_721_1321)">
<path d="M76.1841 58.2029C78.8279 56.0492 80.9562 53.3446 82.4164 50.283C83.8767 47.2213 84.6327 43.8786 84.6302 40.4945C84.6302 38.948 85.0457 37.4877 85.781 36.2345C86.1217 35.6459 86.5372 35.0983 87.0066 34.604C88.4116 33.1226 90.3033 32.1814 92.3452 31.9479L92.3846 31.9438C92.7045 31.913 93.0992 31.7756 93.1844 31.7448C93.292 31.6993 93.3926 31.6392 93.4835 31.5664V17.4841C88.2322 17.4841 83.5355 19.1044 79.7009 21.859C79.2855 22.1543 78.8804 22.4681 78.4857 22.784C75.842 24.9377 73.7137 27.6423 72.2534 30.7039C70.7932 33.7655 70.0371 37.1083 70.0396 40.4924C70.0396 42.0389 69.6241 43.4992 68.8888 44.7524C68.5461 45.3412 68.1347 45.8885 67.6632 46.3829C66.8526 47.2402 65.872 47.9235 64.7824 48.3903C63.6927 48.8571 62.5174 49.0975 61.3297 49.0964H61.3151C56.5125 49.0964 52.6031 45.2364 52.6031 40.4945C52.6031 35.7525 56.5125 31.8925 61.3151 31.8925C63.8182 31.8925 66.0658 32.9344 67.6632 34.606C68.8124 29.7511 71.3479 25.3236 74.9689 21.8487C71.0007 19.0016 66.2204 17.4699 61.3151 17.4739C48.459 17.4739 38 27.8007 38 40.4945C38 53.1882 48.459 63.5151 61.3151 63.5151H61.3421C67.0068 63.5151 72.1958 61.5092 76.2194 58.1763L76.1841 58.2029ZM95.8994 53.2702C95.7678 53.094 95.6219 52.9287 95.4631 52.7759C94.9586 52.2901 94.3563 51.9142 93.6954 51.6725C93.3653 51.5545 93.0534 51.3916 92.7689 51.1885C92.4386 50.9464 91.9817 50.4952 91.8113 50.1158C91.7261 49.9168 91.4706 49.3159 91.3543 49.1272C91.1528 48.8113 90.6294 49.0431 90.7893 49.443C90.9285 49.7897 91.0988 50.2204 91.1404 50.5362C91.2151 51.0736 90.6938 51.2418 90.405 51.252C89.6801 51.2828 89.2646 51.2828 88.5417 51.3669C87.4538 51.4989 86.3573 51.5483 85.2617 51.5146C83.9406 54.3655 81.7159 57.2882 79.7009 59.1382C83.5254 61.8808 88.1076 63.4037 92.8333 63.5027C93.4835 63.5027 93.4835 63.513 93.4835 63.513V58.0553C93.2975 58.13 93.0923 58.1449 92.8972 58.0978C92.7021 58.0506 92.5271 57.9439 92.3971 57.7927C92.2588 57.6451 92.1376 57.4828 92.0357 57.3087C91.9193 57.1097 91.8217 56.8882 91.7158 56.6667C91.5018 56.2032 91.481 56.1827 90.97 56.2032L90.9222 56.2052C90.8107 56.2051 90.7005 56.1817 90.5988 56.1364C90.4971 56.0912 90.4063 56.0251 90.3323 55.9427C89.9724 55.5372 89.6551 55.0967 89.3851 54.628C89.3311 54.587 89.545 54.4393 89.6406 54.4291C90.162 54.3347 90.6958 54.2506 91.2276 54.1665C91.5579 54.1132 91.803 54.2609 91.9837 54.5234C92.1125 54.7018 92.2081 54.9028 92.3244 55.0915C92.3784 55.1859 92.4303 55.2802 92.474 55.3869C92.7191 55.9345 93.1657 56.1232 93.7411 56.0391C94.5928 55.9242 95.2969 55.5243 95.8703 54.8823C96.4872 54.1563 96.3605 53.863 95.9014 53.2723L95.8994 53.2702ZM94.3539 54.8064C94.1915 54.8905 94.0147 54.9441 93.8325 54.9644C93.5022 55.0054 93.3526 54.9234 93.2155 54.628C93.0556 54.2814 92.906 53.9348 92.8853 53.5123C93.3651 53.3974 93.8325 53.3133 94.3019 53.2907C94.5263 53.5225 94.6426 53.7215 94.6966 53.9635C94.7922 54.3204 94.6862 54.626 94.356 54.8044L94.3539 54.8064ZM97.316 36.3801C98.1262 36.938 98.8719 37.5472 99.3933 38.3983C99.5096 38.5973 99.6592 38.6609 99.7984 38.5973C99.9895 38.5132 99.9687 38.3348 99.9895 38.1973C99.9742 37.8081 99.8607 37.4288 99.6592 37.0939C99.1845 36.2661 98.512 35.5655 97.7003 35.0531C97.5238 34.9522 97.3381 34.8678 97.1457 34.8009C97.0629 34.7725 96.9758 34.7579 96.8881 34.7578H96.8674C96.643 34.7578 96.4727 34.8521 96.3667 35.0408C96.2608 35.2295 96.2608 35.4305 96.3875 35.609C96.4765 35.727 96.5805 35.8331 96.697 35.9248C96.8881 36.0827 97.1021 36.2304 97.314 36.376L97.316 36.3801ZM106.444 50.0317C106.219 50.0953 105.987 50.1794 105.793 50.3147C105.399 50.5875 105.262 50.9977 105.347 51.4612C105.378 51.6499 105.486 51.734 105.847 51.7668C106.72 51.7033 106.923 51.3566 106.923 50.6306C106.923 50.5773 106.913 50.4727 106.903 50.3578C106.871 50.0953 106.699 49.9578 106.444 50.0317Z" fill="black"/>
<path d="M96.2816 17.4718V31.1213L96.5474 31.1747C96.7718 31.228 96.9733 31.3121 97.0377 31.3326C97.1665 31.3859 97.2828 31.4474 97.5591 31.6054C99.1149 32.6042 100.798 33.3508 102.416 34.2348C103.386 34.7701 104.364 35.2767 105.28 35.9063C106.176 36.5278 107.038 37.1903 107.729 38.0312C108.261 38.6732 108.731 39.3459 109.03 40.1232C109.476 41.3005 109.915 42.4798 110.34 43.6674C110.691 44.6457 111.011 45.6446 111.448 46.5901C111.819 47.4105 112.247 48.1981 112.779 48.9241C113.546 49.9866 114.42 50.7741 115.592 51.3648C115.592 51.3648 115.943 51.5228 115.878 51.5966C115.324 51.8079 115.079 51.8181 114.622 51.6704C114.218 51.5319 113.853 51.3015 113.556 50.9977C113.29 50.7454 113.045 50.4726 112.779 50.2081C112.353 49.7979 111.927 49.3979 111.491 48.998C111.365 48.8899 111.221 48.8045 111.065 48.7457C111.018 48.7258 110.966 48.7182 110.915 48.7238C110.864 48.7295 110.815 48.748 110.773 48.7777C110.732 48.8074 110.698 48.8472 110.677 48.8934C110.655 48.9395 110.646 48.9904 110.65 49.041V49.039C110.66 49.2006 110.704 49.3585 110.779 49.5025C110.939 49.765 111.13 50.0173 111.321 50.2593C111.641 50.6798 111.961 51.1105 112.312 51.5105C112.588 51.8263 112.898 52.1196 113.207 52.3944C113.431 52.5831 113.676 52.7411 113.909 52.9195C113.994 52.9831 114.069 53.0569 114.185 53.1718C114.069 53.2128 114.005 53.2456 113.94 53.2559C113.429 53.3092 112.949 53.182 112.482 52.9933C111.972 52.7751 111.486 52.5035 111.034 52.1832C110.748 51.9842 110.459 51.773 110.162 51.5946C109.777 51.3628 109.532 51.3833 109.204 51.6684C109.013 51.8413 108.836 52.0277 108.672 52.2263C108.534 52.3991 108.355 52.5361 108.151 52.6258C107.947 52.7154 107.724 52.755 107.501 52.7411C107.224 52.7291 106.946 52.7325 106.67 52.7513C106.004 52.8092 105.364 53.0298 104.807 53.3933C104.605 53.5205 104.402 53.6558 104.19 53.7727C103.917 53.9274 103.632 54.0611 103.338 54.1727C103.186 54.2239 103.024 54.2424 102.864 54.2268C102.703 54.2112 102.548 54.1619 102.409 54.0822C102.27 54.0025 102.149 53.8944 102.056 53.7649C101.962 53.6355 101.898 53.4878 101.867 53.3318C101.836 53.1738 101.847 53.0057 101.836 52.8375C101.836 52.6898 101.847 52.5421 101.836 52.3965C101.815 52.0396 101.707 51.9555 101.346 52.0068C100.876 52.0601 100.771 51.933 100.93 51.492C101.09 51.0408 101.282 50.608 101.452 50.167C101.728 49.4512 102.079 48.7683 102.517 48.1263C102.719 47.8207 102.889 47.4946 103.062 47.1685C103.157 46.9798 103.222 46.7583 103.276 46.547C103.317 46.3583 103.234 46.1901 103.095 46.1368C102.935 46.0732 102.808 46.1265 102.69 46.2311C102.391 46.5039 102.083 46.7665 101.805 47.0618C101.213 47.6762 100.413 48.0543 99.5574 48.1242C99.3019 48.155 99.0464 48.2083 98.7909 48.2391C98.6621 48.2493 98.5354 48.2391 98.3962 48.2391C98.3547 48.0176 98.4502 47.8597 98.5021 47.6915C98.7784 46.8403 98.9591 45.9666 99.0568 45.0723C99.1419 44.3565 99.0464 43.653 98.8864 42.9475C98.8523 42.8058 98.7947 42.6707 98.7161 42.5475C98.5873 42.3363 98.3214 42.326 98.1407 42.5045C98.0882 42.5571 98.047 42.6196 98.0195 42.6883C97.992 42.7571 97.9788 42.8305 97.9807 42.9044L98.0015 43.5033C98.0119 44.3135 97.96 45.1113 97.7876 45.9009C97.7066 46.2203 97.611 46.5358 97.5009 46.8465C97.3557 47.2412 97.1146 47.5948 96.7988 47.8761C96.5641 48.0873 96.3293 48.2863 96.1071 48.5078C95.5857 49.0226 95.5213 49.644 95.9575 50.2327C96.4041 50.8418 96.8424 51.453 97.3202 52.0314C97.7149 52.5155 97.906 53.0405 97.906 53.6415C97.906 53.8096 97.9267 53.9676 97.9475 54.1358C97.9683 54.2198 98.0223 54.2937 98.0867 54.4188C98.1926 54.345 98.3006 54.3039 98.3422 54.2199C98.6932 53.5676 98.7992 52.8744 98.6829 52.1483C98.6394 51.9714 98.5634 51.8038 98.4585 51.654C98.1386 51.1905 97.798 50.729 97.4677 50.2655L97.0418 49.4984C97.4988 49.0882 97.6816 49.119 98.0119 49.603C98.5021 50.3086 98.9591 51.0326 99.4286 51.7586C99.6841 52.1688 99.7381 52.5995 99.6426 53.0733C99.5366 53.5676 99.4618 54.0824 99.3559 54.6936C99.2396 55.2515 99.1315 55.3664 98.5354 55.3561C98.0992 55.3561 97.7793 55.5038 97.5653 55.8607C97.3728 56.1771 97.0757 56.4184 96.724 56.5436L96.3086 56.7221V63.4945L97.4261 63.4843C109.663 63.1889 119.58 53.3154 119.665 41.1364C119.665 40.9149 119.655 40.6955 119.665 40.474V32.313H126.578L132 17.4534H96.2878L96.2816 17.4718Z" fill="black"/>
<path d="M107.796 46.4774C107.85 46.6353 107.925 46.783 107.997 46.9183C108.072 47.0455 108.199 47.0558 108.338 47.0455C108.488 47.0353 108.583 46.9512 108.637 46.824C108.668 46.7399 108.668 46.6456 108.691 46.541C108.575 45.7841 108.404 45.0376 107.754 44.5105C107.111 43.9887 106.5 43.4305 105.922 42.8389C105.741 42.6912 105.561 42.6912 105.367 42.8286C105.292 42.8828 105.225 42.9462 105.166 43.0173C104.771 43.5116 104.516 44.0797 104.366 44.6889C104.345 44.773 104.345 44.8673 104.345 44.9617C104.356 45.1934 104.441 45.3288 104.622 45.3821C104.813 45.4355 104.994 45.3924 105.112 45.2345C105.208 45.1073 105.293 44.9617 105.399 44.8345C105.515 44.6868 105.665 44.6356 105.835 44.7074C105.974 44.7607 106.111 44.812 106.24 44.8858C106.527 45.0745 106.815 45.2857 107.092 45.4949C107.424 45.7401 107.67 46.0824 107.794 46.4733L107.796 46.4774ZM47.8857 73.0524H47.2043V82.4235H52.6363V81.7507H47.8857V73.0524ZM114.069 74.2194C113.7 73.8449 113.258 73.5491 112.769 73.3501C112.279 73.1511 111.754 73.0533 111.225 73.0626H106.901V82.4214H109.404V80.9919H111.225L111.396 80.9816L112.258 82.4214H115.176L113.78 80.0874C114.761 79.2875 115.251 78.2681 115.251 77.017C115.251 75.934 114.856 74.9988 114.069 74.2194ZM112.301 78.0794C112.162 78.2208 111.994 78.3321 111.809 78.4063C111.624 78.4804 111.425 78.5158 111.225 78.5101H109.404V75.5238H111.225C111.641 75.5238 112.002 75.6715 112.301 75.9648C112.6 76.2581 112.738 76.6068 112.738 77.0272C112.744 77.2231 112.709 77.4181 112.634 77.5994C112.558 77.7808 112.445 77.9444 112.301 78.0794ZM57.8108 73.0626H53.8058V82.4214H54.4872V79.4454H57.8108C58.6957 79.4454 59.4622 79.1295 60.0895 78.5101C60.7169 77.8907 61.0368 77.1318 61.0368 76.2602C61.0368 75.3864 60.7169 74.6193 60.0895 74.0102C59.7957 73.7067 59.4418 73.4661 59.0498 73.3034C58.6577 73.1408 58.236 73.0574 57.8108 73.0626ZM59.6222 78.0363C59.3882 78.2768 59.1067 78.4672 58.7951 78.5956C58.4835 78.724 58.1484 78.7878 57.8108 78.7829H54.4872V73.7456H57.8108C58.5129 73.7456 59.1215 73.9979 59.6222 74.4819C60.1228 74.966 60.3679 75.5649 60.3679 76.2704C60.3679 76.9534 60.1228 77.542 59.6222 78.0363ZM41.8782 73.0626H41.4088L38 82.4214H38.7457L39.8321 79.4454H43.9326L45.019 82.4214H45.7544L42.3456 73.0503H41.8762L41.8782 73.0626ZM40.0669 78.7727L41.8782 73.8092L43.6896 78.7727H40.0669ZM117.083 73.0626H119.586V82.4337H117.083V73.0626ZM75.2265 73.0626H74.757L71.3483 82.4214H72.0836L73.17 79.4454H77.2705L78.3569 82.4214H79.0923L75.6835 73.0503H75.2265V73.0626ZM73.4151 78.7727L75.2265 73.8092L77.0379 78.7727H73.4151ZM87.0689 73.0626H78.1326L79.0383 75.5341H81.3503V82.4214H83.8637V75.5341H86.1757L87.0689 73.0626ZM102.299 78.2353C102.299 79.2546 101.468 80.075 100.436 80.075C99.4037 80.075 98.5728 79.2546 98.5728 78.2353V73.0606H96.0697V78.2353C96.0697 80.6124 98.0285 82.5465 100.436 82.5465C102.844 82.5465 104.802 80.6124 104.802 78.2353V73.0606H102.299V78.2353ZM69.2502 78.7727H63.1057V73.0524H62.4348V82.4235H63.1057V79.4474H69.2523V82.4235H69.9337V73.0524H69.2523L69.2502 78.7727ZM89.5201 73.0626L86.1009 82.4214H88.6144L89.0091 81.3487H92.5238L92.9289 82.4214H95.4527L92.0336 73.0503H89.5201V73.0626ZM89.8068 79.0885L90.7768 76.2273L91.7345 79.0885H89.8068Z" fill="black"/>
</g>
<defs>
<clipPath id="clip0_721_1321">
<rect width="94" height="66" fill="white" transform="translate(38 17)"/>
</clipPath>
</defs>
</svg>
