<svg width="170" height="100" viewBox="0 0 170 100" fill="none" xmlns="http://www.w3.org/2000/svg">
<mask id="mask0_670_82" style="mask-type:luminance" maskUnits="userSpaceOnUse" x="35" y="21" width="100" height="59">
<path d="M135 21H35V80H135V21Z" fill="white"/>
</mask>
<g mask="url(#mask0_670_82)">
<path d="M115.78 33.5974C111.96 33.5974 108.412 34.8515 105.52 36.9779C102.627 34.8515 99.08 33.5974 95.2598 33.5974C91.4396 33.5974 87.8922 34.8515 84.9997 36.9779C82.1073 34.8515 78.6145 33.5974 74.7397 33.5974C70.9194 33.5974 67.3721 34.8515 64.4796 36.9779C61.6417 34.8515 58.0943 33.5974 54.2195 33.5974C44.778 33.5974 37.083 41.1763 37.083 50.4998C37.083 59.8234 44.778 67.4023 54.2195 67.4023C58.0398 67.4023 61.5871 66.1482 64.4796 64.0218C67.3721 66.1482 70.9194 67.4023 74.7397 67.4023C78.5599 67.4023 82.1073 66.1482 84.9997 64.0218C87.8376 66.1482 91.385 67.4023 95.2598 67.4023C99.08 67.4023 102.627 66.1482 105.52 64.0218C108.358 66.1482 111.905 67.4023 115.78 67.4023C125.221 67.4023 132.916 59.8235 132.916 50.4999C132.916 41.1762 125.221 33.5974 115.78 33.5974ZM105.52 59.2237C103.446 56.8792 102.191 53.8258 102.191 50.4998C102.191 47.1739 103.446 44.1206 105.52 41.776C107.594 44.1206 108.849 47.1739 108.849 50.4998C108.849 53.8258 107.594 56.8792 105.52 59.2237ZM84.9997 59.2237C82.9259 56.8792 81.6707 53.8258 81.6707 50.4998C81.6707 47.1739 82.9259 44.1206 84.9997 41.776C87.0736 44.1206 88.3288 47.1739 88.3288 50.4998C88.3288 53.8258 87.0736 56.8792 84.9997 59.2237ZM64.4796 59.2237C62.4057 56.8792 61.1505 53.8258 61.1505 50.4998C61.1505 47.1739 62.4057 44.1206 64.4796 41.776C66.5534 44.1206 67.8087 47.1739 67.8087 50.4998C67.8633 53.8258 66.5534 56.8792 64.4796 59.2237ZM40.6304 50.4998C40.6304 43.1391 46.7427 37.1415 54.2195 37.1415C57.0028 37.1415 59.6224 37.9594 61.8054 39.4315C59.1858 42.3758 57.6032 46.247 57.6032 50.4998C57.6032 54.7527 59.1858 58.6239 61.8054 61.5682C59.6224 62.9858 57.0574 63.8582 54.2195 63.8582C46.7427 63.8582 40.6304 57.8606 40.6304 50.4998ZM67.1538 61.5682C69.7734 58.6239 71.356 54.7527 71.356 50.4998C71.356 46.247 69.7734 42.3758 67.1538 39.4315C69.3367 38.0139 71.9018 37.1415 74.7397 37.1415C77.5776 37.1415 80.1426 37.9594 82.3256 39.4315C79.706 42.3758 78.0687 46.247 78.0687 50.4998C78.0687 54.7527 79.6514 58.6239 82.3256 61.5682C80.1426 62.9858 77.5776 63.8582 74.7397 63.8582C71.9563 63.8582 69.3367 62.9858 67.1538 61.5682ZM87.6739 61.5682C90.2935 58.6239 91.9307 54.7527 91.9307 50.4998C91.9307 46.247 90.3481 42.3758 87.6739 39.4315C89.8569 38.0139 92.4219 37.1415 95.2598 37.1415C98.0977 37.1415 100.663 37.9594 102.846 39.4315C100.226 42.3758 98.5889 46.247 98.5889 50.4998C98.5889 54.7527 100.172 58.6239 102.846 61.5682C100.663 62.9858 98.0977 63.8582 95.2598 63.8582C92.4219 63.8582 89.8569 62.9858 87.6739 61.5682ZM115.78 63.8582C112.997 63.8582 110.377 63.0404 108.194 61.5682C110.814 58.6239 112.451 54.7527 112.451 50.4999C112.451 46.247 110.868 42.3758 108.194 39.4315C110.377 38.0139 112.942 37.1415 115.78 37.1415C123.257 37.1415 129.369 43.1391 129.369 50.4999C129.369 57.8606 123.257 63.8582 115.78 63.8582Z" fill="white"/>
</g>
</svg>
