<svg width="170" height="100" viewBox="0 0 170 100" fill="none" xmlns="http://www.w3.org/2000/svg">
<g clip-path="url(#clip0_670_84)">
<mask id="mask0_670_84" style="mask-type:luminance" maskUnits="userSpaceOnUse" x="35" y="0" width="100" height="100">
<path d="M135 0H35V100H135V0Z" fill="white"/>
</mask>
<g mask="url(#mask0_670_84)">
<path d="M132.916 62.3893V62.7816L132.33 63.334C130.303 61.8584 126.83 61.3573 124.596 62.5843C122.468 63.7538 122.498 66.5164 124.624 67.6595C126.884 68.8749 130.281 68.3 132.332 66.8585L132.916 67.4891V67.803C132.066 68.3348 131.157 68.7925 130.17 69.02C129.651 69.1398 129.117 69.1715 128.6 69.2938C128.037 69.2617 127.431 69.3377 126.874 69.2939C124.382 69.0977 121.63 67.668 121.852 64.7837C122.111 61.43 126.331 60.6609 129.022 60.987C130.411 61.1555 131.747 61.6384 132.916 62.3893Z" fill="white"/>
<path d="M37.0962 64.5887C37.575 60.591 43.7099 60.4449 46.5905 61.569C46.8728 61.6791 48.141 62.2631 48.1657 62.51C48.1625 62.8494 47.8305 63.0191 47.6912 63.2975L47.5753 63.3363C45.7082 62.0226 43.2569 61.5852 41.0337 62.1309C37.3116 63.0444 37.3381 67.1963 41.0041 68.096C43.2036 68.6358 45.6636 68.1735 47.5131 66.8785L47.6806 66.874C47.7684 67.1752 48.2688 67.3986 48.1531 67.7523C48.0804 67.9748 46.6157 68.6423 46.3193 68.7488C45.596 69.0088 44.6093 69.2401 43.8453 69.2961H42.1188C41.768 69.1907 41.3898 69.1795 41.0193 69.1008C39.1423 68.7023 37.5066 67.6741 37.0962 65.6871C37.1258 65.336 37.0552 64.9308 37.0962 64.5887Z" fill="white"/>
<path d="M118.084 30.6919L113.705 37.0243C112.755 40.5793 112.624 44.799 111.532 48.2679C110.683 50.966 106.937 51.2903 104.509 51.8382C98.1063 53.2825 91.6319 54.451 85.1627 55.5711C78.4345 54.4051 71.6851 53.219 65.033 51.6821C63.4442 51.315 60.4611 50.8014 59.3854 49.5611C58.9278 49.0336 58.7416 48.3687 58.5737 47.7049C57.6973 44.2383 57.3649 40.5173 56.5418 37.0257L52.1631 30.6937L118.084 30.6919ZM114.631 31.8689L55.6946 31.8705L59.109 36.8913C59.8402 40.3339 60.129 43.9897 60.911 47.408C61.2727 48.989 61.553 49.5288 63.1507 50.0333C64.5597 50.4783 66.2964 50.7491 67.7655 51.0685C73.5325 52.3222 79.3388 53.4261 85.1632 54.3937C90.8525 53.4284 96.5305 52.3675 102.168 51.1461C103.681 50.8183 105.394 50.5337 106.863 50.112C108.345 49.6863 108.859 49.3213 109.256 47.7973C110.155 44.3474 110.366 40.4578 111.121 36.9512L114.631 31.8689Z" fill="white"/>
<path d="M65.2697 69.1386L65.2695 61.0572C66.7438 61.1041 68.2329 60.9955 69.7067 61.0539C72.6757 61.1715 75.8719 61.7717 75.6322 65.4934C75.3318 70.157 68.3781 68.9798 65.2697 69.1386ZM66.4469 68.1185C68.8706 67.9679 74.2328 68.9698 74.4547 65.3365C74.7037 61.2587 69.0068 62.1934 66.4467 62.0772L66.4469 68.1185Z" fill="white"/>
<path d="M62.3659 69.1387L61.1103 69.1388L59.8002 67.114L53.2184 67.0942L52.9886 67.1782L51.7323 69.139L50.5159 69.1391C50.5058 68.8155 50.7779 68.4853 50.9541 68.2041C52.4539 65.8109 54.1764 63.5453 55.6565 61.1366C55.792 61.0234 57.041 61.0095 57.1856 61.0974L62.2751 68.7195L62.3659 69.1387ZM59.1483 66.0789L56.6773 62.1553C56.5985 62.0689 56.4711 62.06 56.3617 62.0691C56.1228 62.0891 54.0896 65.6527 53.7334 66.079L59.1483 66.0789Z" fill="white"/>
<path d="M120.124 69.137L118.869 69.1371L117.561 67.1101L110.977 67.0925L110.747 67.1765L109.491 69.1373L108.274 69.1374L108.348 68.7788L113.415 61.1349C113.567 61.0077 114.827 61.0034 114.983 61.1348L120.034 68.7178L120.124 69.137ZM116.907 66.0772L114.436 62.1536C114.357 62.0672 114.23 62.0583 114.12 62.0674C113.881 62.0874 111.848 65.651 111.492 66.0773L116.907 66.0772Z" fill="white"/>
<path d="M97.6803 68.1176L105.685 68.1174L105.371 69.1374L96.5031 69.1376L96.5029 61.174C96.7643 60.9817 97.4279 60.9844 97.6801 61.174L97.6803 68.1176Z" fill="white"/>
<path d="M85.0455 68.1181L93.0501 68.1179L92.7363 69.1379L83.8684 69.1381L83.8682 61.1745C84.1295 60.9822 84.7931 60.9848 85.0453 61.1744L85.0455 68.1181Z" fill="white"/>
<path d="M80.102 61.0527H78.9248V69.138H80.102V61.0527Z" fill="white"/>
<path d="M110 38.1458L109.373 41.9902L95.3253 41.9907L95.3252 38.2639L95.4429 38.1462L110 38.1458Z" fill="white"/>
<path d="M75.6281 51.7986L75.6279 47.0126L84.692 47.0125L84.8097 47.1301L84.8099 53.3284L84.633 53.4308L75.6281 51.7986Z" fill="white"/>
<path d="M74.9995 42.6189L74.9996 46.3457L61.5798 46.3857L60.9521 42.6193L74.9995 42.6189Z" fill="white"/>
<path d="M84.7309 36.8911L84.731 38.7742L60.3247 38.7748L60.0107 36.8918L84.7309 36.8911Z" fill="white"/>
<path d="M108.745 45.7563C108.631 46.4002 108.561 47.1336 108.313 47.7178L85.5157 47.7184L85.5156 45.7569L108.745 45.7563Z" fill="white"/>
<path d="M94.6974 33.7527H85.5156V37.5187H94.6974V33.7527Z" fill="white"/>
<path d="M108.195 48.2671C107.653 49.2655 106.029 49.3909 104.979 49.6413C98.5588 51.1726 92.0042 52.2389 85.5158 53.446L85.5156 48.2677L108.195 48.2671ZM102.231 48.8949L86.1435 48.8954L86.1436 52.6614C90.4541 51.8336 94.9077 51.2176 99.1717 50.1907C99.9268 50.0088 101.578 49.6532 102.112 49.129C102.189 49.0537 102.26 49.0265 102.231 48.8949Z" fill="white"/>
<path d="M84.8094 33.7527L84.8095 36.2634H84.1032V34.3804L64.4839 34.3809L65.5042 36.2639L59.6969 36.2641L58.0488 33.7534L84.8094 33.7527Z" fill="white"/>
<path d="M84.103 41.991V40.0295L66.3672 40.03L66.5242 41.9915L60.8739 41.9917L60.4814 39.4025L84.6916 39.4019L84.8093 39.5195V41.8733C84.6422 42.0785 84.3397 41.969 84.103 41.991Z" fill="white"/>
<path d="M109.294 42.6182L108.887 45.075L108.784 45.2073L103.33 45.2075L103.565 43.246L86.1435 43.2465V45.2079L85.5157 45.208L85.5156 42.6188L109.294 42.6182Z" fill="white"/>
<path d="M111.334 34.929L110.432 36.2628L95.3252 36.2632V35.0471L95.4429 34.9294L111.334 34.929Z" fill="white"/>
<path d="M75.0004 48.2681L75.0005 49.6019L65.0732 49.6021C64.8531 49.6021 63.2911 49.1756 63.0176 49.0682C62.613 48.9092 62.2395 48.6767 62.0518 48.2684L75.0004 48.2681Z" fill="white"/>
<path d="M84.7907 43.7957H75.6279V45.2079H84.7907V43.7957Z" fill="white"/>
<path d="M94.6974 39.4016H85.5156V40.7354H94.6974V39.4016Z" fill="white"/>
</g>
</g>
<defs>
<clipPath id="clip0_670_84">
<rect width="100" height="100" fill="white" transform="translate(35)"/>
</clipPath>
</defs>
</svg>
