<svg width="170" height="100" viewBox="0 0 170 100" fill="none" xmlns="http://www.w3.org/2000/svg">
<g clip-path="url(#clip0_421_1151)">
<mask id="mask0_421_1151" style="mask-type:luminance" maskUnits="userSpaceOnUse" x="35" y="0" width="100" height="100">
<path d="M135 0H35V100H135V0Z" fill="white"/>
</mask>
<g mask="url(#mask0_421_1151)">
<mask id="mask1_421_1151" style="mask-type:luminance" maskUnits="userSpaceOnUse" x="35" y="0" width="100" height="100">
<path d="M35 0H135V100H35V0Z" fill="white"/>
</mask>
<g mask="url(#mask1_421_1151)">
<mask id="mask2_421_1151" style="mask-type:luminance" maskUnits="userSpaceOnUse" x="35" y="0" width="100" height="100">
<path d="M35 0H135V100H35V0Z" fill="white"/>
</mask>
<g mask="url(#mask2_421_1151)">
<path d="M134.116 50C134.116 59.7143 131.235 69.2104 125.838 77.2875C120.442 85.3642 112.77 91.66 103.796 95.3775C94.8208 99.095 84.9452 100.068 75.4176 98.1725C65.89 96.2767 57.1383 91.5992 50.2694 84.73C43.4004 77.861 38.7226 69.1094 36.8275 59.5818C34.9324 50.0542 35.9051 40.1785 39.6227 31.2038C43.3403 22.229 49.6357 14.5582 57.7128 9.16129C65.7899 3.76446 75.2861 0.883933 85.0003 0.884033C91.4503 0.8839 97.8373 2.15423 103.796 4.6225C109.755 7.09077 115.17 10.7086 119.731 15.2695C124.292 19.8304 127.91 25.2449 130.378 31.204C132.846 37.163 134.116 43.55 134.116 50Z" fill="#231F20"/>
<path d="M85.0001 100.001C73.4648 99.9934 62.2865 95.9992 53.3589 88.6942C44.4312 81.3897 38.3032 71.2233 36.0129 59.9177C33.7225 48.6121 35.4107 36.8622 40.7914 26.6587C46.1721 16.4552 54.9145 8.4254 65.5376 3.92955C77.7482 -1.18789 91.4898 -1.25486 103.75 3.7433C116.01 8.74148 125.787 18.3969 130.939 30.5929C136.092 42.7889 136.197 56.5301 131.235 68.8042C126.272 81.0783 116.644 90.8834 104.463 96.0709C98.3055 98.6759 91.6859 100.013 85.0001 100.001ZM85.0001 1.76855C75.4607 1.76845 66.1355 4.59712 58.2037 9.89689C50.2719 15.1966 44.0898 22.7294 40.4392 31.5426C36.7885 40.3558 35.8333 50.0537 37.6943 59.4098C39.5553 68.766 44.1489 77.3601 50.8942 84.1059C57.6396 90.8509 66.2338 95.4451 75.5898 97.3059C84.9459 99.1667 94.6438 98.2117 103.457 94.5609C112.27 90.9109 119.803 84.7284 125.103 76.7969C130.402 68.8651 133.232 59.54 133.232 50.0006C133.217 37.2131 128.131 24.9536 119.089 15.9115C110.047 6.86936 97.7875 1.7831 85.0001 1.76855Z" fill="#00E701"/>
<path d="M66.86 75.7456C66.4919 75.7259 66.1312 75.8533 65.857 76.0996C65.7398 76.2066 65.6465 76.337 65.5831 76.4824C65.5197 76.6278 65.4877 76.7849 65.489 76.9436C65.4771 77.0719 65.4914 77.2014 65.5311 77.3241C65.5708 77.4468 65.6351 77.56 65.72 77.6571C66.1112 77.9409 66.5383 78.1719 66.99 78.3441C67.536 78.5477 68.024 78.8818 68.4115 79.3171C68.6951 79.7613 68.8291 80.2847 68.794 80.8106C68.8231 81.2773 68.7482 81.7448 68.5747 82.1791C68.4012 82.6133 68.1336 83.0038 67.791 83.3221C67.03 83.9418 66.0655 84.2559 65.0855 84.2034C64.6056 84.2009 64.1271 84.1526 63.6565 84.0584C63.261 83.9884 62.8706 83.8918 62.488 83.7701L62.084 83.6109L62.4155 82.1821C63.26 82.3481 64.1167 82.4444 64.977 82.4701C65.4544 82.5068 65.9315 82.3935 66.3415 82.1461C66.4962 82.0098 66.6162 81.8387 66.6914 81.6468C66.7666 81.4548 66.7949 81.2477 66.774 81.0426C66.7816 80.9234 66.7628 80.8041 66.7192 80.693C66.6756 80.5819 66.6081 80.4818 66.5215 80.3996C66.1373 80.1293 65.7232 79.9043 65.2875 79.7291C64.7505 79.5156 64.2711 79.1793 63.8875 78.7471C63.5846 78.313 63.4372 77.7894 63.469 77.2611C63.4549 76.8343 63.5284 76.4091 63.6848 76.0118C63.8412 75.6144 64.0772 75.2533 64.3785 74.9506C64.6997 74.6423 65.0802 74.4028 65.4972 74.2466C65.914 74.0903 66.3583 74.0208 66.803 74.0421C67.2895 74.0447 67.7747 74.0909 68.253 74.1801C68.6455 74.2447 69.0336 74.3338 69.415 74.4471L69.819 74.5911L69.4585 76.0051C68.5997 75.852 67.7305 75.7653 66.8585 75.7456M68.3365 84.0284L72.753 74.2151H76.188L75.885 84.0284H73.893L73.9505 82.3251H71.0925L70.328 84.0284H68.3365ZM73.924 75.9486L71.846 80.5951H74.024L74.224 75.9486H73.924ZM78.9705 80.6956C78.8887 81.0193 78.8449 81.3513 78.84 81.6851C78.8277 81.8047 78.8489 81.9254 78.9012 82.0337C78.9534 82.142 79.0347 82.2337 79.136 82.2986C79.4634 82.4388 79.8198 82.4979 80.175 82.4711C80.3787 82.4864 80.5834 82.4591 80.7759 82.3909C80.9685 82.3228 81.1448 82.2152 81.2935 82.0751C81.6062 81.6739 81.8101 81.1988 81.885 80.6956L83.385 74.2171H85.377L83.877 80.6956C83.7142 81.709 83.2372 82.6458 82.5135 83.3734C81.8111 83.9518 80.9183 84.2484 80.0095 84.2043C77.9118 84.2043 76.863 83.4626 76.863 81.9806C76.8678 81.4421 76.9307 80.9057 77.0505 80.3806L78.4795 74.2181H80.4715L78.9705 80.6956ZM90.1195 74.2171C91.8318 74.2171 92.6882 74.9243 92.6885 76.3386C92.7107 76.8817 92.57 77.4191 92.2845 77.8816C91.9657 78.3325 91.5521 78.7079 91.0725 78.9816C91.3872 79.1441 91.6477 79.3946 91.8225 79.7026C91.957 80.0119 92.0211 80.3474 92.01 80.6846C92.0217 81.1322 91.9385 81.5772 91.7656 81.9902C91.5926 82.4033 91.3342 82.7748 91.007 83.0806C90.2128 83.7593 89.1847 84.1001 88.1425 84.0309H84.447L86.713 74.2171H90.1195ZM89.0225 79.9171H87.393L86.83 82.3266H88.53C88.7257 82.3347 88.9207 82.2987 89.1007 82.2214C89.2807 82.1442 89.441 82.0275 89.57 81.8801C89.8378 81.5565 89.9764 81.1453 89.959 80.7256C89.959 80.1856 89.6465 79.9176 89.021 79.9176M89.8005 75.9176H88.314L87.764 78.2566H89.2505C89.4371 78.26 89.6223 78.2238 89.7939 78.1503C89.9655 78.0769 90.1196 77.9679 90.246 77.8306C90.5197 77.5351 90.6651 77.1431 90.65 76.7406C90.6642 76.6267 90.6518 76.5111 90.6137 76.4028C90.5757 76.2946 90.5129 76.1967 90.4305 76.1168C90.348 76.037 90.2482 75.9774 90.1387 75.9428C90.0293 75.9083 89.9138 75.8996 89.8005 75.9176ZM92.2875 84.0284L94.5375 74.2151H100.296L99.892 75.9471H96.1425L95.609 78.2561H98.582L98.178 79.9881H95.219L94.6875 82.2986H98.4545L98.0645 84.0309L92.2875 84.0284ZM104.164 74.2171C104.984 74.1495 105.8 74.3829 106.459 74.8736C106.723 75.1458 106.926 75.4716 107.053 75.8288C107.18 76.186 107.228 76.5663 107.195 76.9441C107.225 77.7765 107.009 78.5993 106.575 79.3101C106.205 79.9088 105.654 80.3743 105.002 80.6386L105.795 84.0301H103.804L103.154 80.9131H101.783L101.061 84.0301H99.0695L101.335 74.2166L104.164 74.2171ZM104.691 78.5891C104.988 78.1939 105.148 77.7127 105.146 77.2186C105.184 76.8588 105.098 76.4968 104.901 76.1931C104.786 76.0904 104.651 76.0129 104.505 75.9657C104.359 75.9184 104.204 75.9023 104.051 75.9186H102.937L102.172 79.2096H103.457C103.698 79.2169 103.937 79.1639 104.153 79.0555C104.368 78.947 104.554 78.7871 104.691 78.5891Z" fill="white"/>
<path fill-rule="evenodd" clip-rule="evenodd" d="M62.8433 17.2786H79.5278V28.4016H85.0893V22.8401H90.6498V17.2786H107.335V33.9631H101.773V39.5246H96.2118V45.0861H101.773V50.6486H107.335V67.3326H90.6498V61.7701H85.0888V56.2086H79.5273V67.3316H62.8433V17.2786Z" fill="#00E701"/>
</g>
</g>
</g>
</g>
<defs>
<clipPath id="clip0_421_1151">
<rect width="100" height="100" fill="white" transform="translate(35)"/>
</clipPath>
</defs>
</svg>
