<svg width="170" height="100" viewBox="0 0 170 100" fill="none" xmlns="http://www.w3.org/2000/svg">
<mask id="mask0_434_681" style="mask-type:luminance" maskUnits="userSpaceOnUse" x="45" y="10" width="80" height="80">
<path d="M125 10H45V90H125V10Z" fill="white"/>
</mask>
<g mask="url(#mask0_434_681)">
<mask id="mask1_434_681" style="mask-type:luminance" maskUnits="userSpaceOnUse" x="45" y="10" width="80" height="80">
<path d="M125 10H45V90H125V10Z" fill="white"/>
</mask>
<g mask="url(#mask1_434_681)">
<mask id="mask2_434_681" style="mask-type:luminance" maskUnits="userSpaceOnUse" x="45" y="10" width="80" height="80">
<path d="M45 10H125V90H45V10Z" fill="white"/>
</mask>
<g mask="url(#mask2_434_681)">
<mask id="mask3_434_681" style="mask-type:luminance" maskUnits="userSpaceOnUse" x="45" y="10" width="80" height="80">
<path d="M45 10H125V90H45V10Z" fill="white"/>
</mask>
<g mask="url(#mask3_434_681)">
<path d="M124.293 50C124.293 57.7715 121.988 65.3684 117.67 71.83C113.354 78.2914 107.216 83.3281 100.037 86.3021C92.8566 89.2761 84.9562 90.0545 77.3341 88.5381C69.712 87.0214 62.7106 83.2794 57.2155 77.7841C51.7203 72.2889 47.9781 65.2876 46.462 57.6655C44.9459 50.0434 45.7241 42.1428 48.6982 34.9631C51.6722 27.7832 56.7086 21.6466 63.1702 17.3291C69.6319 13.0116 77.2289 10.7072 85.0002 10.7073C90.1602 10.7072 95.2698 11.7234 100.037 13.698C104.804 15.6727 109.136 18.5669 112.785 22.2156C116.434 25.8644 119.328 30.196 121.302 34.9632C123.277 39.7304 124.293 44.84 124.293 50Z" fill="#231F20"/>
<path d="M85.0001 90.0007C75.7719 89.9947 66.8292 86.7993 59.6871 80.9553C52.545 75.1117 47.6426 66.9786 45.8103 57.9341C43.978 48.8896 45.3286 39.4897 49.6331 31.3269C53.9377 23.1641 60.9316 16.7403 69.4301 13.1436C79.1986 9.04964 90.1919 8.99606 100 12.9946C109.808 16.9931 117.63 24.7175 121.751 34.4743C125.874 44.2311 125.958 55.224 121.988 65.0433C118.018 74.8626 110.315 82.7067 100.57 86.8567C95.6444 88.9407 90.3487 90.0103 85.0001 90.0007ZM85.0001 11.4148C77.3686 11.4147 69.9084 13.6776 63.563 17.9175C57.2175 22.1572 52.2719 28.1835 49.3514 35.234C46.4308 42.2846 45.6667 50.0429 47.1555 57.5278C48.6443 65.0127 52.3191 71.888 57.7154 77.2847C63.1117 82.6807 69.9871 86.356 77.4719 87.8447C84.9567 89.3333 92.7151 88.5693 99.7656 85.6487C106.816 82.7287 112.842 77.7827 117.082 71.4375C121.322 65.092 123.586 57.6319 123.586 50.0004C123.574 39.7704 119.505 29.9628 112.271 22.7292C105.038 15.4954 95.23 11.4264 85.0001 11.4148Z" fill="#00E701"/>
<path d="M70.488 70.5965C70.1936 70.5808 69.905 70.6827 69.6856 70.8797C69.5919 70.9653 69.5172 71.0696 69.4665 71.186C69.4158 71.3023 69.3902 71.428 69.3912 71.5549C69.3817 71.6576 69.3932 71.7612 69.4249 71.8593C69.4567 71.9575 69.5081 72.048 69.576 72.1257C69.889 72.3528 70.2307 72.5376 70.592 72.6753C71.0288 72.8382 71.4192 73.1055 71.7292 73.4537C71.9561 73.8091 72.0633 74.2278 72.0352 74.6485C72.0585 75.0219 71.9986 75.3959 71.8598 75.7433C71.721 76.0907 71.5069 76.4031 71.2328 76.6577C70.624 77.1535 69.8524 77.4048 69.0684 77.3628C68.6845 77.3608 68.3017 77.3221 67.9252 77.2468C67.6088 77.1908 67.2965 77.1135 66.9904 77.0161L66.6672 76.8888L66.9324 75.7457C67.608 75.8785 68.2934 75.9556 68.9816 75.9761C69.3636 76.0055 69.7452 75.9148 70.0732 75.7169C70.197 75.6079 70.293 75.471 70.3532 75.3175C70.4133 75.1639 70.436 74.9982 70.4192 74.8341C70.4253 74.7388 70.4103 74.6433 70.3754 74.5544C70.3405 74.4656 70.2865 74.3855 70.2172 74.3197C69.9099 74.1035 69.5786 73.9235 69.23 73.7833C68.8004 73.6125 68.4169 73.3435 68.11 72.9977C67.8677 72.6504 67.7498 72.2316 67.7752 71.8089C67.764 71.4675 67.8228 71.1273 67.9479 70.8095C68.073 70.4916 68.2618 70.2027 68.5028 69.9605C68.7598 69.7139 69.0642 69.5223 69.3978 69.3973C69.7312 69.2723 70.0867 69.2167 70.4424 69.2337C70.8316 69.2358 71.2198 69.2728 71.6024 69.3441C71.9164 69.3958 72.2269 69.4671 72.532 69.5577L72.8552 69.6729L72.5668 70.8041C71.8798 70.6816 71.1844 70.6123 70.4868 70.5965M71.6692 77.2228L75.2024 69.3721H77.9504L77.708 77.2228H76.1144L76.1604 75.8601H73.874L73.2624 77.2228H71.6692ZM76.1392 70.7589L74.4768 74.4761H76.2192L76.3792 70.7589H76.1392ZM80.1764 74.5565C80.111 74.8155 80.076 75.0811 80.072 75.3481C80.0622 75.4438 80.0792 75.5404 80.121 75.627C80.1628 75.7136 80.2278 75.787 80.3088 75.8389C80.5708 75.9511 80.8559 75.9984 81.14 75.9769C81.303 75.9892 81.4668 75.9673 81.6208 75.9128C81.7748 75.8583 81.9159 75.7722 82.0348 75.6601C82.285 75.3392 82.4481 74.9591 82.508 74.5565L83.708 69.3737H85.3016L84.1016 74.5565C83.9714 75.3672 83.5898 76.1167 83.0108 76.6988C82.4489 77.1615 81.7347 77.3988 81.0076 77.3635C79.3295 77.3635 78.4904 76.7701 78.4904 75.5845C78.4943 75.1537 78.5446 74.7246 78.6404 74.3045L79.7836 69.3745H81.3772L80.1764 74.5565ZM89.0956 69.3737C90.4655 69.3737 91.1506 69.9395 91.1508 71.0709C91.1686 71.5054 91.056 71.9353 90.8276 72.3053C90.5726 72.666 90.2417 72.9664 89.858 73.1853C90.1098 73.3153 90.3182 73.5157 90.458 73.7621C90.5656 74.0096 90.6169 74.278 90.608 74.5477C90.6174 74.9058 90.5508 75.2618 90.4125 75.5922C90.2741 75.9227 90.0674 76.2199 89.8056 76.4645C89.1703 77.0075 88.3478 77.2801 87.514 77.2248H84.5576L86.3704 69.3737H89.0956ZM88.218 73.9337H86.9144L86.464 75.8613H87.824C87.9806 75.8678 88.1366 75.839 88.2806 75.7772C88.4246 75.7154 88.5528 75.622 88.656 75.5041C88.8703 75.2452 88.9812 74.9163 88.9672 74.5805C88.9672 74.1485 88.7172 73.9341 88.2168 73.9341M88.8404 70.7341H87.6512L87.2112 72.6053H88.4004C88.5497 72.608 88.6979 72.5791 88.8352 72.5203C88.9724 72.4616 89.0957 72.3744 89.1968 72.2645C89.4158 72.0281 89.5321 71.7145 89.52 71.3925C89.5314 71.3014 89.5215 71.2089 89.491 71.1223C89.4606 71.0357 89.4104 70.9574 89.3444 70.8935C89.2784 70.8296 89.1986 70.782 89.111 70.7543C89.0235 70.7267 88.9311 70.7197 88.8404 70.7341ZM90.83 77.2228L92.63 69.3721H97.2368L96.9136 70.7577H93.914L93.4872 72.6049H95.8656L95.5424 73.9905H93.1752L92.75 75.8389H95.7636L95.4516 77.2248L90.83 77.2228ZM100.331 69.3737C100.987 69.3196 101.64 69.5064 102.167 69.8989C102.378 70.1167 102.541 70.3773 102.642 70.6631C102.744 70.9488 102.782 71.2531 102.756 71.5553C102.78 72.2212 102.607 72.8795 102.26 73.4481C101.964 73.9271 101.523 74.2995 101.002 74.5109L101.636 77.2241H100.043L99.5232 74.7305H98.4264L97.8488 77.2241H96.2556L98.068 69.3733L100.331 69.3737ZM100.753 72.8713C100.99 72.5552 101.118 72.1702 101.117 71.7749C101.147 71.4871 101.078 71.1975 100.921 70.9545C100.829 70.8724 100.721 70.8104 100.604 70.7726C100.487 70.7348 100.363 70.7219 100.241 70.7349H99.3496L98.7376 73.3677H99.7656C99.9584 73.3736 100.15 73.3312 100.322 73.2444C100.494 73.1576 100.643 73.0297 100.753 72.8713Z" fill="white"/>
<path fill-rule="evenodd" clip-rule="evenodd" d="M67.2747 23.8228H80.6223V32.7212H85.0715V28.272H89.5199V23.8228H102.868V37.1704H98.4184V41.6196H93.9695V46.0688H98.4184V50.5188H102.868V63.866H89.5199V59.416H85.0711V54.9668H80.6219V63.8651H67.2747V23.8228Z" fill="#00E701"/>
</g>
</g>
</g>
</g>
</svg>
