<svg width="375" height="375" viewBox="0 0 375 375" fill="none" xmlns="http://www.w3.org/2000/svg">
<g clip-path="url(#clip0_721_1317)">
<path d="M157.957 215.76C166.817 208.455 173.949 199.281 178.842 188.896C183.736 178.511 186.269 167.172 186.261 155.694C186.261 150.448 187.653 145.495 190.117 141.244C191.259 139.247 192.651 137.39 194.224 135.713C198.933 130.688 205.272 127.496 212.114 126.704L212.246 126.69C213.318 126.586 214.641 126.119 214.926 126.015C215.287 125.861 215.624 125.657 215.929 125.41V77.6432C198.331 77.6432 182.592 83.1392 169.742 92.4824C168.35 93.4843 166.993 94.5487 165.67 95.62C156.811 102.925 149.679 112.099 144.785 122.484C139.892 132.869 137.359 144.208 137.367 155.687C137.367 160.932 135.975 165.886 133.51 170.136C132.362 172.134 130.983 173.99 129.403 175.667C126.687 178.575 123.401 180.893 119.749 182.476C116.098 184.06 112.16 184.875 108.179 184.871H108.13C92.0366 184.871 78.936 171.778 78.936 155.694C78.936 139.609 92.0366 126.516 108.13 126.516C116.518 126.516 124.05 130.05 129.403 135.72C133.254 119.252 141.751 104.234 153.885 92.4477C140.587 82.7903 124.568 77.595 108.13 77.6084C65.0487 77.6084 30 112.637 30 155.694C30 198.75 65.0487 233.779 108.13 233.779H108.221C127.204 233.779 144.592 226.975 158.076 215.67L157.957 215.76ZM224.024 199.029C223.584 198.431 223.095 197.87 222.563 197.352C220.872 195.704 218.854 194.429 216.639 193.609C215.533 193.209 214.488 192.656 213.534 191.967C212.427 191.146 210.896 189.616 210.325 188.329C210.04 187.654 209.184 185.616 208.794 184.975C208.119 183.904 206.364 184.69 206.9 186.047C207.367 187.223 207.938 188.684 208.077 189.755C208.327 191.578 206.58 192.148 205.613 192.183C203.183 192.287 201.791 192.287 199.369 192.573C195.723 193.02 192.048 193.188 188.377 193.073C183.95 202.744 176.495 212.657 169.742 218.933C182.559 228.235 197.914 233.401 213.75 233.737C215.929 233.737 215.929 233.772 215.929 233.772V215.259C215.305 215.513 214.618 215.563 213.964 215.404C213.31 215.244 212.724 214.881 212.288 214.369C211.825 213.868 211.418 213.317 211.077 212.727C210.687 212.052 210.36 211.301 210.005 210.549C209.288 208.977 209.218 208.908 207.506 208.977L207.346 208.984C206.972 208.984 206.603 208.904 206.262 208.751C205.921 208.597 205.617 208.373 205.369 208.094C204.163 206.718 203.099 205.224 202.195 203.634C202.014 203.495 202.731 202.994 203.051 202.959C204.798 202.639 206.587 202.354 208.369 202.069C209.476 201.888 210.297 202.389 210.903 203.279C211.335 203.885 211.655 204.566 212.045 205.206C212.226 205.526 212.4 205.846 212.546 206.208C213.367 208.066 214.864 208.706 216.792 208.421C219.646 208.031 222.006 206.674 223.927 204.497C225.994 202.034 225.57 201.039 224.031 199.036L224.024 199.029ZM218.845 204.239C218.301 204.525 217.709 204.706 217.098 204.775C215.991 204.914 215.49 204.636 215.031 203.634C214.495 202.458 213.994 201.283 213.924 199.85C215.532 199.46 217.098 199.175 218.671 199.098C219.423 199.884 219.813 200.559 219.994 201.38C220.314 202.591 219.959 203.627 218.852 204.232L218.845 204.239ZM228.772 141.738C231.487 143.63 233.986 145.696 235.733 148.584C236.123 149.258 236.624 149.474 237.09 149.258C237.731 148.973 237.661 148.368 237.731 147.902C237.679 146.581 237.299 145.295 236.624 144.159C235.033 141.351 232.78 138.975 230.06 137.237C229.468 136.895 228.846 136.608 228.201 136.381C227.923 136.285 227.632 136.235 227.338 136.235H227.268C226.517 136.235 225.946 136.555 225.591 137.195C225.236 137.835 225.236 138.517 225.66 139.122C225.958 139.522 226.307 139.882 226.697 140.193C227.338 140.729 228.055 141.23 228.765 141.724L228.772 141.738ZM259.359 188.044C258.607 188.259 257.827 188.544 257.18 189.004C255.857 189.929 255.398 191.32 255.683 192.893C255.788 193.533 256.15 193.818 257.361 193.929C260.284 193.713 260.967 192.538 260.967 190.075C260.967 189.894 260.932 189.539 260.897 189.15C260.793 188.259 260.215 187.793 259.359 188.044Z" fill="black"/>
<path d="M225.305 77.6017V123.9L226.196 124.081C226.948 124.262 227.623 124.547 227.839 124.617C228.271 124.798 228.661 125.007 229.586 125.542C234.8 128.93 240.439 131.463 245.861 134.461C249.112 136.277 252.391 137.995 255.46 140.131C258.461 142.239 261.349 144.486 263.667 147.338C265.449 149.516 267.023 151.798 268.025 154.435C269.522 158.428 270.99 162.428 272.417 166.456C273.594 169.775 274.666 173.163 276.128 176.37C277.374 179.153 278.808 181.824 280.59 184.287C283.158 187.891 286.089 190.562 290.015 192.566C290.015 192.566 291.191 193.101 290.976 193.352C289.117 194.068 288.296 194.103 286.764 193.602C285.411 193.133 284.188 192.351 283.193 191.32C282.302 190.465 281.481 189.539 280.59 188.642C279.163 187.251 277.736 185.894 276.274 184.537C275.852 184.171 275.369 183.881 274.847 183.682C274.688 183.614 274.515 183.589 274.343 183.608C274.172 183.627 274.008 183.69 273.868 183.79C273.728 183.891 273.617 184.026 273.544 184.183C273.472 184.339 273.441 184.512 273.455 184.684V184.677C273.488 185.225 273.635 185.76 273.886 186.249C274.422 187.139 275.063 187.995 275.703 188.816C276.775 190.242 277.847 191.703 279.023 193.06C279.949 194.131 280.986 195.126 282.024 196.058C282.775 196.698 283.597 197.234 284.376 197.839C284.662 198.055 284.912 198.305 285.302 198.695C284.912 198.834 284.697 198.945 284.481 198.98C282.768 199.161 281.16 198.73 279.594 198.09C277.883 197.349 276.257 196.428 274.742 195.342C273.782 194.667 272.814 193.95 271.819 193.345C270.531 192.559 269.71 192.628 268.61 193.595C267.97 194.182 267.375 194.814 266.828 195.488C266.363 196.074 265.763 196.539 265.079 196.843C264.396 197.147 263.649 197.281 262.902 197.234C261.974 197.193 261.044 197.205 260.117 197.269C257.887 197.465 255.741 198.213 253.873 199.446C253.198 199.878 252.516 200.337 251.806 200.733C250.891 201.258 249.937 201.711 248.952 202.09C248.441 202.264 247.899 202.326 247.362 202.273C246.825 202.22 246.306 202.053 245.839 201.783C245.372 201.513 244.969 201.146 244.655 200.707C244.342 200.268 244.127 199.767 244.023 199.238C243.919 198.702 243.954 198.131 243.919 197.561C243.919 197.06 243.954 196.559 243.919 196.065C243.849 194.855 243.487 194.569 242.276 194.743C240.703 194.924 240.348 194.493 240.884 192.997C241.42 191.467 242.06 189.999 242.631 188.503C243.557 186.075 244.733 183.758 246.202 181.581C246.877 180.544 247.448 179.438 248.026 178.332C248.346 177.692 248.562 176.94 248.743 176.224C248.882 175.584 248.604 175.013 248.137 174.832C247.601 174.617 247.177 174.798 246.78 175.152C245.778 176.078 244.747 176.968 243.815 177.97C241.831 180.054 239.151 181.337 236.283 181.574C235.427 181.678 234.57 181.859 233.714 181.963C233.283 181.998 232.858 181.963 232.392 181.963C232.252 181.212 232.573 180.676 232.747 180.106C233.672 177.219 234.278 174.255 234.605 171.222C234.891 168.794 234.57 166.408 234.034 164.014C233.92 163.534 233.727 163.076 233.464 162.658C233.032 161.941 232.141 161.906 231.535 162.512C231.359 162.69 231.221 162.902 231.129 163.135C231.037 163.368 230.993 163.618 230.999 163.868L231.069 165.9C231.104 168.648 230.93 171.354 230.352 174.032C230.081 175.116 229.76 176.186 229.391 177.24C228.905 178.579 228.097 179.778 227.039 180.732C226.252 181.449 225.465 182.123 224.721 182.875C222.973 184.621 222.758 186.729 224.219 188.726C225.716 190.792 227.185 192.865 228.786 194.827C230.108 196.469 230.749 198.25 230.749 200.288C230.749 200.858 230.818 201.394 230.888 201.965C230.958 202.25 231.139 202.5 231.354 202.925C231.709 202.674 232.071 202.535 232.211 202.25C233.387 200.038 233.742 197.686 233.352 195.223C233.207 194.623 232.952 194.055 232.6 193.547C231.528 191.974 230.387 190.409 229.28 188.837L227.853 186.235C229.384 184.844 229.997 184.948 231.104 186.59C232.747 188.983 234.278 191.439 235.851 193.902C236.707 195.293 236.888 196.754 236.568 198.361C236.213 200.038 235.963 201.784 235.608 203.857C235.218 205.749 234.856 206.139 232.858 206.104C231.396 206.104 230.324 206.605 229.607 207.815C228.962 208.889 227.966 209.707 226.788 210.132L225.396 210.737V233.709L229.141 233.675C270.148 232.673 303.38 199.182 303.665 157.871C303.665 157.12 303.631 156.376 303.665 155.624V127.942H326.832L345 77.5391H225.326L225.305 77.6017Z" fill="black"/>
<path d="M263.89 176.045C264.071 176.581 264.322 177.082 264.565 177.541C264.816 177.973 265.241 178.008 265.707 177.973C266.208 177.938 266.528 177.653 266.709 177.221C266.814 176.936 266.814 176.615 266.89 176.26C266.501 173.692 265.93 171.158 263.751 169.369C261.597 167.598 259.547 165.704 257.611 163.696C257.006 163.195 256.4 163.195 255.753 163.661C255.501 163.845 255.274 164.06 255.078 164.301C253.755 165.979 252.899 167.907 252.398 169.975C252.328 170.26 252.328 170.58 252.328 170.9C252.363 171.687 252.648 172.146 253.254 172.327C253.894 172.508 254.5 172.362 254.897 171.826C255.217 171.395 255.502 170.9 255.857 170.469C256.247 169.968 256.748 169.794 257.319 170.037C257.785 170.218 258.245 170.392 258.676 170.643C259.637 171.283 260.605 172 261.53 172.71C262.644 173.542 263.467 174.704 263.883 176.031L263.89 176.045ZM63.1275 266.239H60.8443V298.043H79.0473V295.76H63.1275V266.239ZM284.912 270.199C283.677 268.928 282.193 267.924 280.554 267.249C278.915 266.574 277.155 266.242 275.383 266.273H260.89V298.037H269.278V293.185H275.383L275.954 293.15L278.842 298.037H288.623L283.945 290.115C287.23 287.4 288.873 283.94 288.873 279.694C288.873 276.019 287.551 272.845 284.912 270.199ZM278.989 283.3C278.522 283.78 277.96 284.158 277.339 284.409C276.719 284.661 276.052 284.781 275.383 284.762H269.278V274.627H275.383C276.775 274.627 277.986 275.128 278.989 276.123C279.991 277.119 280.45 278.302 280.45 279.729C280.473 280.394 280.354 281.056 280.102 281.671C279.85 282.286 279.47 282.842 278.989 283.3ZM96.3872 266.273H82.9664V298.037H85.2496V287.936H96.3872C99.3526 287.936 101.921 286.864 104.023 284.762C106.126 282.66 107.198 280.084 107.198 277.126C107.198 274.16 106.126 271.557 104.023 269.489C103.039 268.459 101.853 267.643 100.539 267.091C99.2254 266.539 97.8121 266.256 96.3872 266.273ZM102.457 283.154C101.673 283.97 100.73 284.616 99.6857 285.052C98.6415 285.488 97.5187 285.704 96.3872 285.688H85.2496V268.591H96.3872C98.7401 268.591 100.78 269.448 102.457 271.09C104.135 272.733 104.956 274.766 104.956 277.16C104.956 279.478 104.135 281.476 102.457 283.154ZM42.9962 266.273H41.423L30 298.037H32.499L36.1396 287.936H49.8807L53.5213 298.037H55.9855L44.5625 266.232H42.9893L42.9962 266.273ZM36.9262 285.653L42.9962 268.807L49.0662 285.653H36.9262ZM295.013 266.273H303.401V298.078H295.013V266.273ZM154.748 266.273H153.175L141.752 298.037H144.216L147.857 287.936H161.598L165.239 298.037H167.703L156.28 266.232H154.748V266.273ZM148.678 285.653L154.748 268.807L160.818 285.653H148.678ZM194.433 266.273H164.487L167.522 274.661H175.269V298.037H183.692V274.661H191.44L194.433 266.273ZM245.471 283.829C245.471 287.289 242.687 290.073 239.227 290.073C235.768 290.073 232.983 287.289 232.983 283.829V266.266H224.595V283.829C224.595 291.897 231.159 298.461 239.227 298.461C247.295 298.461 253.859 291.897 253.859 283.829V266.266H245.471V283.829ZM134.722 285.653H114.131V266.239H111.882V298.043H114.131V287.943H134.729V298.043H137.012V266.239H134.729L134.722 285.653ZM202.647 266.273L191.189 298.037H199.612L200.935 294.396H212.713L214.07 298.037H222.528L211.07 266.232H202.647V266.273ZM203.608 286.725L206.859 277.014L210.068 286.725H203.608Z" fill="black"/>
</g>
<defs>
<clipPath id="clip0_721_1317">
<rect width="315" height="224" fill="white" transform="translate(30 76)"/>
</clipPath>
</defs>
</svg>
