<svg width="100" height="100" viewBox="0 0 100 100" fill="none" xmlns="http://www.w3.org/2000/svg">
<g clip-path="url(#clip0_414_700)">
<path d="M16.8816 54.2622L29.7286 54.2715L43.4843 43.6391H66.8417L63.377 54.2715H73.7677L77.2103 43.6391H88.9197L97.6297 36.8941H79.423L89.4167 6.20068H79.0131L39.344 36.8941H23.6621L27.9875 23.6093L2.08691 43.6386H30.6196L16.8816 54.2622ZM74.7007 19.4947L69.0455 36.8943H52.2076L74.7007 19.4947Z" fill="white"/>
<path d="M27.6523 83.5145H28.4502V81.0342H31.2612V80.3139H28.4502V78.6314H31.516V77.9111H27.6523V83.5145Z" fill="white"/>
<path d="M33.9834 78.5974H35.3833V83.5137H36.183V77.9086H33.9834L33.9834 78.5974Z" fill="white"/>
<path d="M39.6287 77.7416C39.0654 77.7416 38.6572 78.111 38.6572 78.713C38.6572 79.3096 39.0654 79.6845 39.6287 79.6845C40.1864 79.6845 40.6002 79.3096 40.6002 78.713C40.6002 78.111 40.1865 77.7416 39.6287 77.7416ZM39.6287 79.5127C39.1725 79.5127 38.8327 79.2135 38.8327 78.713C38.8327 78.2088 39.1725 77.9078 39.6287 77.9078C40.0812 77.9078 40.4155 78.2089 40.4155 78.713C40.4155 79.2135 40.0812 79.5127 39.6287 79.5127Z" fill="white"/>
<path d="M40.0584 78.5075C40.0584 78.2933 39.9181 78.1862 39.6466 78.1862H39.2236V79.2407H39.4563V78.8474H39.6022L39.8257 79.2407H40.0787L39.835 78.8086C39.9809 78.7643 40.0584 78.6627 40.0584 78.5075ZM39.6558 78.6571H39.4563V78.3764H39.6558C39.7666 78.3764 39.8165 78.43 39.8165 78.5112C39.8165 78.6036 39.7666 78.6571 39.6558 78.6571Z" fill="white"/>
<path d="M45.3066 78.6304H47.2441V83.5136H48.0419V78.6304H49.9775V77.9083H45.3067L45.3066 78.6304Z" fill="white"/>
<path d="M52.6113 83.5146H56.475V82.7924H53.411V81.0342H56.2201V80.3139H53.411V78.6314H56.475V77.9111H52.6113V83.5146Z" fill="white"/>
<path d="M60.81 77.9119L58.8135 83.5155H59.663L60.1728 82.0454H62.6014L63.1093 83.5155H63.9589L61.955 77.9119H60.81ZM60.4277 81.3249L61.3862 78.5564L62.3466 81.3249H60.4277Z" fill="white"/>
<path d="M69.599 82.9093L68.0033 77.9099H66.6348V83.5136H67.4345V78.6565L68.9877 83.5136H70.2103L71.7802 78.5974V83.5136H72.5799V77.9099H71.1947L69.599 82.9093Z" fill="white"/>
<path d="M2.08301 71.2075H4.70007L6.08339 69.6468H13.591L14.9762 71.2075H17.5933L9.83837 62.7377L2.08301 71.2075ZM7.4096 68.1693L9.83825 65.436L12.2669 68.1693H7.4096Z" fill="white"/>
<path d="M58.8383 62.9996H56.6221V71.2108H58.8383V62.9996Z" fill="white"/>
<path d="M77.2915 68.0633L68.1182 62.9954H65.8779V71.2065H67.9317V65.1414L79.3678 71.441V62.9954H77.2919L77.2915 68.0633Z" fill="white"/>
<path d="M24.5746 62.9996H22.3564V71.2108H32.4347L33.0552 69.7333H24.5741L24.5746 62.9996Z" fill="white"/>
<path d="M88.6247 69.7324V67.7729H97.6226V66.2954H88.6247V64.4762H97.6226V62.9987H86.4082V71.2098H97.5044L97.9163 69.7323L88.6247 69.7324Z" fill="white"/>
<path d="M47.203 62.9996H37.7139V71.2108H39.9301V68.4663H47.0978C49.761 68.4663 50.7934 67.3508 50.7934 65.6978C50.7934 64.1021 49.6668 62.9996 47.203 62.9996ZM46.6748 66.9869H39.9298V64.477H46.6635C48.0006 64.477 48.4107 64.887 48.4107 65.7569C48.4107 66.5178 47.8363 66.9869 46.6746 66.9869" fill="white"/>
<path d="M42.9475 92.3938L41.1689 93.7992H47.5981L49.3767 92.3938H42.9475Z" fill="#2173B8"/>
<path d="M49.3772 92.3938L47.5986 93.7992H50.598L52.3766 92.3938H49.3772Z" fill="#FFFFFD"/>
<path d="M52.3801 92.3938L50.6016 93.7992H57.0544L58.8329 92.3938H52.3801Z" fill="#E12319"/>
</g>
<defs>
<clipPath id="clip0_414_700">
<rect width="100" height="100" fill="white"/>
</clipPath>
</defs>
</svg>
