<svg width="100" height="100" viewBox="0 0 100 100" fill="none" xmlns="http://www.w3.org/2000/svg">
<g clip-path="url(#clip0_414_701)">
<path d="M50.1979 44.7192C37.7184 44.7192 18.4111 44.7832 2.08301 45.1412V45.2179C18.4111 45.5759 38.5751 45.6526 51.0162 45.6526C55.6193 45.6526 78.9671 45.6399 97.9163 45.2179V45.1412C84.8615 44.8599 67.9069 44.7192 50.1979 44.7192Z" fill="white"/>
<path d="M92.61 17.7529H57.1664C56.5271 17.7529 55.6321 17.7402 54.6859 18.6863C53.7908 19.5814 54.0593 20.4764 52.5761 20.4764H47.4105C45.9273 20.4764 46.1958 19.5942 45.3007 18.6863C44.3545 17.7402 43.4595 17.7529 42.8202 17.7529H7.36377C6.14907 17.7529 5.61204 18.827 6.20021 19.786L6.83953 20.8472C7.18476 21.4354 7.63228 21.5249 7.96472 21.5888C8.27159 21.6528 8.4506 21.6911 8.69354 22.1003L9.25614 23.0848C9.69087 23.8904 10.2151 23.9927 10.5987 24.0566C10.9056 24.1205 11.1741 24.1333 11.5577 24.8238C11.9668 25.5654 12.5166 26.4988 13.8081 26.8951C13.8081 26.8951 27.0419 30.7566 27.0547 30.7566C28.4356 31.2041 28.7808 31.7028 29.19 32.291C29.4074 32.5978 30.0595 33.6975 31.8495 34.1833L44.444 37.5845C45.6204 37.9041 46.4515 37.4566 47.0269 36.9452L49.3156 34.7843C49.9038 34.2345 50.1467 34.2345 50.7349 34.7843L53.0237 36.9452C53.599 37.4566 54.4174 37.9041 55.6065 37.5845L68.201 34.1833C69.9911 33.6975 70.6432 32.5978 70.8605 32.291C71.2697 31.7028 71.6149 31.2041 72.9959 30.7566L86.2425 26.8951C87.5339 26.5116 88.0837 25.5782 88.4929 24.8238C88.8637 24.1333 89.1449 24.1077 89.4518 24.0566C89.8354 23.9799 90.3596 23.8904 90.7944 23.0848L91.357 22.1003C91.5871 21.6911 91.7789 21.6528 92.0858 21.5888C92.4182 21.5249 92.8658 21.4354 93.211 20.8472L93.8503 19.786C94.3618 18.827 93.8247 17.7529 92.61 17.7529ZM7.38934 19.9522L7.00575 19.3129C6.89067 19.1211 6.81396 18.6863 7.36377 18.6863H42.8202C43.5362 18.6863 44.3417 18.6736 45.1217 20.0289C45.224 20.2079 45.3391 20.4125 45.4925 20.6043H9.56301C8.10537 20.6171 7.82407 20.6171 7.38934 19.9522ZM30.3791 21.3331H69.6075V27.4833H30.3791V21.3331ZM10.2023 22.8419C9.86988 22.5094 9.65252 21.819 9.35843 21.4098L29.6887 21.3203V22.2154L12.4911 23.2127C11.1357 23.315 10.5859 23.2383 10.2023 22.8419ZM12.8619 25.1818C12.6701 24.9388 12.5166 24.6575 12.3632 24.389C12.2865 24.2484 12.2098 24.1333 12.1331 24.031C12.376 24.0182 12.4271 24.0054 12.8874 23.9799L29.6631 22.9442V23.9031L16.4037 25.3224C14.6264 25.5142 13.4117 25.7827 12.8619 25.1818ZM17.401 26.9846C16.4293 26.7033 15.5854 26.4604 14.9844 26.2814C16.5955 26.0896 29.6631 24.632 29.6631 24.632V25.6932L21.173 27.0614C20.1884 27.2276 19.0121 27.4194 17.401 26.9846ZM23.2955 28.7108C22.4388 28.4679 21.5182 28.1993 20.6104 27.9308C20.8533 27.8925 21.0195 27.8669 21.3008 27.8285C22.1575 27.6879 29.6759 26.4348 29.6759 26.4348V27.5856C29.6759 27.5856 26.5304 28.4806 26.5176 28.4806C26.4921 28.4679 24.5486 29.056 23.2955 28.7108ZM27.2976 29.8744C27.1697 29.836 26.5944 29.6698 25.7505 29.4268C26.3003 29.3245 26.6455 29.2095 26.7222 29.1839C26.7734 29.1711 30.149 28.1866 30.149 28.1866H33.9848L30.443 29.836C29.3051 30.2707 28.3077 30.1429 27.2976 29.8744ZM30.8266 32.7257C30.4047 32.4316 30.1745 32.112 29.9316 31.7667C29.727 31.4726 29.5224 31.1786 29.19 30.8717C29.2667 30.8717 29.6247 30.8461 30.0211 30.7438C30.443 30.6415 31.3637 30.2452 31.3637 30.2452L35.6215 28.1738H38.4601L32.8724 32.1247C32.0285 32.7001 31.3509 32.9047 30.8266 32.7257ZM35.0461 34.0938L32.3098 33.3522C32.6806 33.1988 33.0387 32.9942 33.3327 32.8024C33.614 32.6106 33.2944 32.8536 39.7643 28.1738H42.1425L37.7696 32.649C36.9896 33.4417 36.1457 34.3112 35.0461 34.0938ZM39.3551 35.2702L36.785 34.5797C37.4883 34.1706 38.1148 33.4801 38.3578 33.2371L43.2166 28.1993H45.3391L41.4648 34.2473C40.8383 35.1934 40.1095 35.398 39.3551 35.2702ZM43.8559 36.4849L41.1196 35.7433C41.2475 35.6538 41.7333 35.3597 42.1937 34.6181L46.2469 28.1738H48.0881C48.0881 28.1738 45.7099 35.1551 45.5437 35.5003C45.0706 36.536 44.5208 36.6127 43.8559 36.4849ZM53.6118 36.2675L51.3486 34.1194C50.4025 33.2244 49.5969 33.2244 48.6379 34.1194L46.3748 36.2675C46.1958 36.4209 46.0295 36.536 45.8505 36.6255C46.2725 36.1013 46.5154 35.3725 46.6689 34.8994L48.9192 28.1866H51.0673L53.3177 34.8994C53.484 35.398 53.7269 36.1141 54.1361 36.6255C53.9571 36.536 53.7908 36.4209 53.6118 36.2675ZM56.1179 36.4849C55.453 36.6127 54.9032 36.536 54.4301 35.5131C54.2639 35.1551 51.8857 28.1866 51.8857 28.1866H53.7269L57.7802 34.6309C58.2405 35.3597 58.7135 35.6665 58.8542 35.756L56.1179 36.4849ZM60.6315 35.2702C59.8771 35.4108 59.1483 35.1935 58.509 34.2345L54.6347 28.1866H56.77L61.6288 33.2244C61.8718 33.4801 62.4855 34.1578 63.2015 34.5669L60.6315 35.2702ZM64.9405 34.0938C63.8281 34.3112 62.9842 33.4289 62.217 32.649L57.8441 28.1738H60.2223C60.2223 28.1738 66.3725 32.6106 66.6538 32.8024C66.9479 32.9942 67.2932 33.1988 67.6767 33.3522L64.9405 34.0938ZM70.0422 31.7795C69.7993 32.1247 69.5819 32.4444 69.1472 32.7385C68.6357 32.9047 67.9453 32.7001 67.0886 32.1503C66.8456 31.9969 61.501 28.1993 61.501 28.1993H64.3395C64.3395 28.1993 67.6256 29.8232 68.5974 30.2707C69.1472 30.5265 69.8504 30.8461 70.771 30.8973C70.4514 31.1786 70.2468 31.4854 70.0422 31.7795ZM72.689 29.8744C71.6789 30.1429 70.6815 30.2707 69.5436 29.836C69.1344 29.6826 66.0017 28.1866 66.0017 28.1866H69.8376C69.8376 28.1866 73.2132 29.1711 73.2644 29.1839C73.3539 29.2095 73.6863 29.3118 74.2361 29.4268C73.3922 29.6698 72.8168 29.836 72.689 29.8744ZM76.6911 28.7108C75.438 29.056 73.4689 28.4679 73.4689 28.4679C73.4562 28.4679 70.3107 27.5728 70.3107 27.5728V26.4221C70.3107 26.4221 77.8419 27.6751 78.6858 27.8158C78.9671 27.8669 79.1205 27.8925 79.3762 27.918C78.4556 28.1866 77.5478 28.4551 76.6911 28.7108ZM82.5856 26.9846C80.9873 27.4066 79.7982 27.2148 78.8136 27.0614C77.9697 26.9207 70.3107 25.6932 70.3107 25.6932V24.632L84.9894 26.2814C84.4012 26.4604 83.5445 26.7033 82.5856 26.9846ZM87.6234 24.4018C87.4827 24.6703 87.3165 24.9388 87.1247 25.1946C86.5749 25.7955 85.3602 25.527 83.5701 25.3352L70.3107 23.9159V22.9442C70.3107 22.9442 86.8818 23.9671 87.0864 23.9799C87.5467 24.0054 87.5978 24.0182 87.8408 24.031C87.764 24.1461 87.6873 24.2612 87.6234 24.4018ZM89.5285 22.957C88.8764 23.3661 88.1476 23.251 85.9612 23.1232L70.3107 22.2154V21.3203L90.6282 21.4098C90.219 21.998 90.1039 22.5989 89.5285 22.957ZM92.9808 19.3129L92.5973 19.9522C92.1625 20.6171 91.8812 20.6171 90.4236 20.6171H54.4941C54.6475 20.4253 54.7626 20.2207 54.8649 20.0417C55.6448 18.6863 56.4504 18.6991 57.1664 18.6991H92.6228C93.1726 18.6863 93.0959 19.1211 92.9808 19.3129ZM52.9469 26.243C52.8574 25.1306 52.7935 24.4785 52.7423 24.031C52.1414 25.1178 51.8857 25.6293 51.6427 26.1919H51.3998C50.7988 24.9772 50.7349 24.8366 50.5687 24.5169C50.5175 24.4146 50.4408 24.2867 50.3257 24.0566C50.2746 24.4913 50.1851 25.3608 50.1212 26.243H49.5074C49.6864 24.9644 49.9677 22.7907 49.9933 22.6117H50.3641C50.3641 22.6117 51.2463 24.3635 51.6299 25.0283C52.0775 24.21 52.3588 23.6346 52.9341 22.6117H53.2666C53.3305 23.136 53.5223 24.7982 53.7013 26.243L52.9469 26.243ZM64.1477 22.6117H63.4317V26.243H64.1477V22.6117ZM61.9868 26.243V23.1488C62.5239 23.1615 62.8052 23.1871 63.0737 23.2255V22.6117H60.1456V23.2255C60.4525 23.1871 60.7594 23.1615 61.2708 23.1488V26.243H61.9868ZM39.3039 26.243V23.1488C39.841 23.1615 40.1223 23.1871 40.3908 23.2255V22.6117H37.4627V23.2255C37.7696 23.1871 38.0765 23.1615 38.5879 23.1488V26.243H39.3039ZM47.7045 26.243V22.6117H47.142V24.9516L44.9811 22.6117H44.5719V26.243H45.1473V23.7881L47.3465 26.243H47.7045ZM35.0589 25.2201V26.0257C35.289 26.1663 35.5703 26.3325 36.0434 26.3325C36.8234 26.3325 37.5267 25.8978 37.5267 25.1434C37.5267 24.9005 37.4499 24.4657 36.9001 24.2228C36.4398 24.0182 36.1457 23.9671 35.9412 23.8009C35.5831 23.494 35.8772 23.0081 36.3631 23.0081C36.5165 23.0081 36.8746 23.0465 36.9768 23.4045H37.2454V22.7396C36.9896 22.6245 36.67 22.5094 36.3375 22.5094C36.0434 22.5094 35.7621 22.5989 35.532 22.7652C34.9822 23.1743 34.8287 23.9927 35.6087 24.4657C36.1074 24.7598 36.7723 24.7343 36.7978 25.2713C36.8106 25.6677 36.427 25.8211 36.1457 25.8211C35.5704 25.8211 35.3913 25.3224 35.353 25.2201L35.0589 25.2201ZM35.0461 26.243L33.4478 22.535H33.141L31.4915 26.243H32.1692C32.2587 25.949 32.3226 25.7188 32.5272 25.2201H33.8314C33.9976 25.6165 34.1127 25.9745 34.215 26.243H35.0461ZM32.7318 24.747C32.8085 24.568 32.8213 24.5297 33.1793 23.6858C33.5245 24.4913 33.5501 24.5425 33.6268 24.747H32.7318ZM44.0988 24.4274C44.0988 23.1488 43.1398 22.4839 42.2064 22.4839C41.273 22.4839 40.3141 23.136 40.3141 24.4274C40.3141 25.706 41.273 26.3709 42.2064 26.3709C43.1526 26.3709 44.0988 25.7188 44.0988 24.4274ZM42.2192 25.885C41.6438 25.885 41.1324 25.348 41.1324 24.4274C41.1324 23.4684 41.6822 22.9697 42.2192 22.9697C42.7563 22.9697 43.3061 23.4684 43.3061 24.4274C43.3061 25.3864 42.7562 25.885 42.2192 25.885ZM57.5628 26.243H58.2788V24.747H58.4578L59.6725 26.243H60.5676L59.2122 24.6448C59.404 24.568 59.5702 24.4657 59.6981 24.3379C60.0689 23.9671 60.12 23.3278 59.6981 22.9058C59.4807 22.6885 59.2378 22.5734 58.624 22.5734C58.624 22.5734 57.7929 22.5862 57.5756 22.5989L57.5628 26.243ZM58.2788 23.0465C58.3683 23.0337 58.445 23.0337 58.5218 23.0337C59.2634 23.0337 59.2889 23.5835 59.2889 23.6602C59.2889 24.0438 58.9565 24.389 58.2788 24.274V23.0465ZM57.371 26.243L55.7727 22.535H55.4658L53.8164 26.243H54.4941C54.5836 25.949 54.6475 25.7188 54.8521 25.2201H56.1435C56.3097 25.6165 56.4248 25.9745 56.5271 26.243H57.371ZM55.0695 24.747C55.1462 24.568 55.159 24.5297 55.517 23.6858C55.8622 24.4913 55.8878 24.5425 55.9645 24.747H55.0695ZM68.022 26.243V22.6117H67.4594V24.9516L65.2857 22.6117H64.8766V26.243H65.4519V23.7881L67.6512 26.243H68.022Z" fill="white"/>
<path d="M43.3695 75.8539H42.9092L40.1602 82.0297H41.2086C41.3109 81.6589 41.4388 81.2369 41.8096 80.3035H44.06C44.3285 80.9684 44.5459 81.5821 44.7121 82.0297H46.0291L43.3695 75.8539ZM42.9348 77.644C43.5997 79.1783 43.6125 79.1783 43.7659 79.5875H42.1037C42.2827 79.1911 42.2955 79.1783 42.9348 77.644Z" fill="white"/>
<path d="M85.2962 75.8539H84.8487L82.0996 82.0297H83.1481C83.2504 81.6589 83.3782 81.2369 83.749 80.3035H85.9994C86.2679 80.9684 86.4853 81.5821 86.6515 82.0297H87.9685L85.2962 75.8539ZM84.8742 77.644C85.5391 79.1783 85.5519 79.1783 85.7054 79.5875H84.0431C84.2221 79.1911 84.2221 79.1783 84.8742 77.644Z" fill="white"/>
<path d="M27.5783 82.0297C27.4249 80.1118 27.3098 78.961 27.2203 78.1938C26.1846 80.0606 25.7371 80.9685 25.3152 81.9402H24.9699C23.9214 79.7921 23.8064 79.5876 23.5634 79.14C23.4611 78.9482 23.3461 78.7309 23.0903 78.2322C23.0392 78.6158 22.8602 80.3036 22.7323 82.0297H21.7861C22.093 79.8561 22.5661 76.1864 22.5917 75.9818H23.1543C23.2438 76.148 23.3205 76.3143 23.3972 76.4805C24.0877 77.8614 24.6375 78.961 25.3024 80.099L25.3152 80.1118L25.3279 80.099C25.622 79.5492 25.9033 79.0377 26.159 78.5391C26.5682 77.7719 26.9902 76.9791 27.5528 75.9818H28.0514C28.077 76.1736 28.4222 79.1656 28.7675 82.0297H27.5783Z" fill="white"/>
<path d="M94.1818 82.0297C94.0284 80.1118 93.9133 78.961 93.8238 78.1938C92.7881 80.0606 92.3406 80.9685 91.9187 81.9402H91.5734C90.525 79.7921 90.4099 79.5876 90.1669 79.14C90.0647 78.9482 89.9496 78.7309 89.6938 78.2322C89.6555 78.6158 89.4637 80.3036 89.3358 82.0297H88.3896C88.6965 79.8561 89.1696 76.1864 89.1952 75.9818H89.7578C89.8473 76.148 89.924 76.3143 90.0007 76.4805C90.6912 77.8614 91.241 78.961 91.9059 80.099L91.9187 80.1118L91.9315 80.099C92.2255 79.5492 92.5068 79.0377 92.7626 78.5391C93.1717 77.7719 93.5937 76.9791 94.1563 75.9818H94.6549C94.6805 76.1736 95.0258 79.1656 95.371 82.0297H94.1818Z" fill="white"/>
<path d="M12.1454 82.2471C10.8796 82.2471 10.138 81.5822 9.95897 81.4032C9.44752 80.9173 9 80.1374 9 79.0122C9 77.887 9.44752 77.107 9.95897 76.6211C10.138 76.4549 10.8796 75.7772 12.1454 75.7772C12.9126 75.7772 14.383 76.0969 15.0224 77.6312C15.2014 78.0404 15.2781 78.5135 15.2781 79.0122C15.2781 80.1373 14.8306 80.9173 14.3191 81.4032C14.1401 81.5694 13.3985 82.2471 12.1454 82.2471ZM12.1454 81.5183C13.0788 81.5183 14.0378 80.6488 14.0378 78.9994C14.0378 77.3499 13.0916 76.4805 12.1454 76.4805C11.212 76.4805 10.2531 77.3499 10.2531 78.9994C10.2531 80.6488 11.1992 81.5183 12.1454 81.5183Z" fill="white"/>
<path d="M52.1279 82.2471C50.862 82.2471 50.1204 81.5822 49.9414 81.4032C49.4299 80.9173 48.9824 80.1374 48.9824 79.0122C48.9824 77.887 49.4299 77.107 49.9414 76.6211C50.1204 76.4549 50.862 75.7772 52.1279 75.7772C52.895 75.7772 54.3655 76.0969 55.0048 77.6312C55.1838 78.0404 55.2605 78.5135 55.2605 79.0122C55.2605 80.1373 54.813 80.9173 54.3015 81.4032C54.1353 81.5694 53.3937 82.2471 52.1279 82.2471ZM52.1279 81.5183C53.0613 81.5183 54.0202 80.6488 54.0202 78.9994C54.0202 77.3499 53.074 76.4805 52.1279 76.4805C51.1945 76.4805 50.2355 77.3499 50.2355 78.9994C50.2355 80.6488 51.1945 81.5183 52.1279 81.5183Z" fill="white"/>
<path d="M16.3652 75.969C16.6977 75.9434 18.0658 75.9307 18.0914 75.9307C19.1271 75.9307 19.5362 76.1352 19.8815 76.4805C20.2139 76.8129 20.3801 77.2349 20.3673 77.6824C20.3546 78.1043 20.1756 78.5263 19.8815 78.8204C19.5618 79.14 19.1654 79.2935 19.0248 79.3446L21.3007 82.0169H19.9198L17.874 79.4853H17.5032V82.0169H16.378L16.3652 75.969ZM17.938 76.6083C17.7973 76.6083 17.6439 76.6211 17.4904 76.6467H17.4776V78.782H17.4904C17.6567 78.8076 17.8101 78.8204 17.9507 78.8204C18.8586 78.8204 19.2677 78.245 19.2677 77.6952C19.2677 77.6185 19.2549 77.2477 18.9609 76.9536C18.7307 76.7234 18.3855 76.6083 17.938 76.6083Z" fill="white"/>
<path d="M36.2988 82.0297V75.9818H37.424V81.237H39.9301V82.0297H36.2988Z" fill="white"/>
<path d="M67.5873 76.2248H67.127V75.9818H68.3544V76.2248H67.8813V77.5545H67.5873V76.2248Z" fill="white"/>
<path d="M69.9525 76.9152C69.9397 76.7107 69.9269 76.4677 69.9269 76.2504H69.9141C69.863 76.4421 69.799 76.6595 69.7223 76.8513L69.505 77.5418H69.262L69.0447 76.8641C68.9807 76.6595 68.9296 76.4421 68.8784 76.2504C68.8656 76.4549 68.8656 76.7107 68.8529 76.928L68.8145 77.5673H68.5332L68.6355 75.9946H69.0319L69.2492 76.6339C69.3132 76.8129 69.3515 77.0047 69.4027 77.1838H69.4155C69.4538 77.0175 69.5177 76.8129 69.5817 76.6339L69.8118 76.0074H70.2082L70.2977 77.5801H70.0036L69.9525 76.9152Z" fill="white"/>
<path d="M61.0146 82.0297C60.7588 81.7101 58.956 79.7154 57.2298 77.8103V82.0297H56.3604V75.9818H56.9741L60.6949 80.0223V75.9818H61.5644V82.0297H61.0146Z" fill="white"/>
<path d="M74.2489 82.0297V76.8001C73.3027 76.8129 72.7146 76.8768 72.3438 76.9152V75.969H77.2025V76.9152C76.9212 76.8768 76.3714 76.8001 75.3741 76.7873V82.0169L74.2489 82.0297Z" fill="white"/>
<path d="M64.0451 81.2242V79.2679H66.206V78.5263H64.0451V76.7363C64.5566 76.7363 65.2726 76.7363 66.5129 76.813V75.9563H62.9199V82.0042H66.6152V81.1092C65.7968 81.1859 64.8634 81.2242 64.0451 81.2242Z" fill="white"/>
<path d="M79.1203 81.2242V79.2679H81.2812V78.5263H79.1203V76.7363C79.6318 76.7363 80.3478 76.7363 81.5881 76.813V75.9563H77.9951V82.0042H81.6904V81.1092C80.872 81.1859 79.9258 81.2242 79.1203 81.2242Z" fill="white"/>
<path d="M33.9712 75.9818C34.0095 78.3089 33.9967 79.2295 33.9967 79.2295C33.9967 79.9839 33.9456 81.3521 32.488 81.3521C31.9637 81.3521 30.928 81.2626 30.928 79.5364C30.928 77.9765 30.9664 76.0457 30.9664 75.9818H29.79V79.5364C29.79 82.0169 31.7847 82.1192 32.2834 82.1192C33.7154 82.1192 34.8406 81.4671 34.8662 79.4853L34.879 75.9818H33.9712Z" fill="white"/>
<path d="M8.29671 76.8385V75.9818H4.61426V82.0425H5.73945V79.4469H8.01541V78.6541H5.73945V76.7746C6.86465 76.7618 7.52953 76.7874 8.29671 76.8385Z" fill="white"/>
<path d="M88.0841 52.7235C84.0692 52.7235 80.7959 55.9968 80.7959 60.0117C80.7959 64.0266 84.0692 67.3127 88.0841 67.3127C92.099 67.3127 95.3339 64.0394 95.3339 60.0117C95.3339 55.9968 92.099 52.7235 88.0841 52.7235ZM88.0841 63.9882C85.8721 63.9882 84.1076 62.1854 84.1076 60.0117C84.1076 57.838 85.8721 56.0735 88.0841 56.0735C90.2578 56.0735 92.0223 57.838 92.0223 60.0117C92.0223 62.1854 90.2578 63.9882 88.0841 63.9882Z" fill="white"/>
<path d="M61.3857 52.5573C59.7874 52.5573 58.1508 52.8897 56.8338 53.4139C55.7725 52.8002 54.7496 52.5573 53.2664 52.5573C51.4252 52.5573 49.5456 52.8002 47.487 53.5034L47.1162 53.6313V67.0313H50.7603V56.0479C51.5019 55.805 52.0773 55.7155 52.8061 55.7155C54.609 55.7155 55.146 56.2909 55.146 58.1704V67.0186H58.8285V57.9275C58.8285 57.1092 58.7901 56.5722 58.6622 56.0863C59.4038 55.8433 59.9792 55.7155 60.6313 55.7155C62.3575 55.7155 63.1374 56.4954 63.1374 58.1704V67.0186H66.7815V57.8764C66.7815 56.0735 66.4875 55.0122 65.6691 54.1044C64.7741 53.1326 63.2653 52.5573 61.3857 52.5573Z" fill="white"/>
<path d="M76.0005 64.1416C73.5711 64.1416 72.1774 62.6328 72.1774 59.9989C72.1774 57.3009 73.5839 55.7538 76.0389 55.7538C76.5503 55.7538 76.9723 55.8049 77.3814 55.9328C77.3814 55.9328 78.1358 56.1502 78.8007 56.6616L80.3478 54.0149C79.5039 53.3116 78.5194 53.0047 78.187 52.928C77.2408 52.6467 75.8471 52.5956 75.8471 52.5956C71.4614 52.5956 68.5205 55.6387 68.5205 60.1523C68.5205 64.4996 71.3079 67.2998 75.6425 67.2998C75.6425 67.2998 78.545 67.4277 80.4885 65.6248L78.6728 63.2977C77.6755 63.9243 76.9851 64.1416 76.0005 64.1416Z" fill="white"/>
<path d="M28.4615 52.6852C23.2574 52.6852 20.8408 54.9739 20.8408 59.8583V67.0314H24.5744V59.8199C24.5744 57.365 25.9681 55.8434 28.1418 55.8434C29.0496 55.8434 29.7401 56.0096 30.226 56.1247L31.0826 52.8898C29.6378 52.6852 28.4615 52.6852 28.4615 52.6852Z" fill="white"/>
<path d="M44.9945 59.4491V67.0314H39.995C36.5555 67.0314 35.0339 66.7885 33.2311 65.5993C31.6711 64.5381 30.8145 62.5306 30.8145 59.9094C30.8145 56.3037 33.1927 52.6596 38.4351 52.6596C42.6929 52.6468 44.9945 55.0251 44.9945 59.4491ZM41.3504 59.8583C41.3504 57.1092 40.2891 55.7667 38.1538 55.7667C35.9801 55.7667 34.5864 57.365 34.5864 59.7816C34.5864 62.6968 35.9801 63.9627 39.0872 63.9627H41.3376V59.8583H41.3504Z" fill="white"/>
<path d="M18.8077 59.4491V67.0314H13.8466C10.4071 67.0314 8.88549 66.7885 7.08263 65.5993C5.5227 64.5381 4.66602 62.5306 4.66602 59.9094C4.66602 56.3037 7.04427 52.6596 12.2867 52.6596C16.5573 52.6468 18.8077 55.0251 18.8077 59.4491ZM15.0357 59.8583C15.0357 57.0709 14.0512 55.7667 11.8775 55.7667C9.70382 55.7667 8.31011 57.365 8.31011 59.7816C8.31011 62.6968 9.70382 63.9627 12.8109 63.9627H15.0229L15.0357 59.8583Z" fill="white"/>
</g>
<defs>
<clipPath id="clip0_414_701">
<rect width="100" height="100" fill="white"/>
</clipPath>
</defs>
</svg>
