<svg width="100" height="100" viewBox="0 0 100 100" fill="none" xmlns="http://www.w3.org/2000/svg">
<g clip-path="url(#clip0_414_702)">
<path d="M80.78 33.5975C76.9597 33.5975 73.4124 34.8516 70.5199 36.978C67.6274 34.8516 64.08 33.5975 60.2598 33.5975C56.4396 33.5975 52.8922 34.8516 49.9997 36.978C47.1073 34.8516 43.6145 33.5975 39.7397 33.5975C35.9194 33.5975 32.3721 34.8516 29.4796 36.978C26.6417 34.8516 23.0943 33.5975 19.2195 33.5975C9.77805 33.5975 2.08301 41.1764 2.08301 50.4999C2.08301 59.8235 9.77805 67.4024 19.2195 67.4024C23.0398 67.4024 26.5871 66.1483 29.4796 64.0219C32.3721 66.1483 35.9194 67.4024 39.7397 67.4024C43.5599 67.4024 47.1073 66.1483 49.9997 64.0219C52.8376 66.1483 56.385 67.4024 60.2598 67.4024C64.08 67.4024 67.6274 66.1483 70.5199 64.0219C73.3578 66.1483 76.9051 67.4024 80.78 67.4024C90.2214 67.4024 97.9165 59.8236 97.9165 50.5C97.9165 41.1763 90.2214 33.5975 80.78 33.5975ZM70.5199 59.2238C68.446 56.8793 67.1908 53.8259 67.1908 50.4999C67.1908 47.174 68.446 44.1207 70.5199 41.7761C72.5937 44.1207 73.8489 47.174 73.8489 50.4999C73.8489 53.8259 72.5937 56.8793 70.5199 59.2238ZM49.9997 59.2238C47.9259 56.8793 46.6707 53.8259 46.6707 50.4999C46.6707 47.174 47.9259 44.1207 49.9997 41.7761C52.0736 44.1207 53.3288 47.174 53.3288 50.4999C53.3288 53.8259 52.0736 56.8793 49.9997 59.2238ZM29.4796 59.2238C27.4057 56.8793 26.1505 53.8259 26.1505 50.4999C26.1505 47.174 27.4057 44.1207 29.4796 41.7761C31.5534 44.1207 32.8087 47.174 32.8087 50.4999C32.8633 53.8259 31.5534 56.8793 29.4796 59.2238ZM5.63037 50.4999C5.63037 43.1392 11.7427 37.1416 19.2195 37.1416C22.0028 37.1416 24.6224 37.9595 26.8054 39.4316C24.1858 42.3759 22.6032 46.2471 22.6032 50.4999C22.6032 54.7528 24.1858 58.624 26.8054 61.5683C24.6224 62.9859 22.0574 63.8583 19.2195 63.8583C11.7427 63.8583 5.63037 57.8607 5.63037 50.4999ZM32.1538 61.5683C34.7734 58.624 36.356 54.7528 36.356 50.4999C36.356 46.2471 34.7734 42.3759 32.1538 39.4316C34.3367 38.014 36.9018 37.1416 39.7397 37.1416C42.5776 37.1416 45.1426 37.9595 47.3256 39.4316C44.706 42.3759 43.0687 46.2471 43.0687 50.4999C43.0687 54.7528 44.6514 58.624 47.3256 61.5683C45.1426 62.9859 42.5776 63.8583 39.7397 63.8583C36.9563 63.8583 34.3367 62.9859 32.1538 61.5683ZM52.6739 61.5683C55.2935 58.624 56.9307 54.7528 56.9307 50.4999C56.9307 46.2471 55.3481 42.3759 52.6739 39.4316C54.8569 38.014 57.4219 37.1416 60.2598 37.1416C63.0977 37.1416 65.6627 37.9595 67.8457 39.4316C65.2261 42.3759 63.5889 46.2471 63.5889 50.4999C63.5889 54.7528 65.1716 58.624 67.8457 61.5683C65.6627 62.9859 63.0977 63.8583 60.2598 63.8583C57.4219 63.8583 54.8569 62.9859 52.6739 61.5683ZM80.7799 63.8583C77.9966 63.8583 75.3771 63.0405 73.194 61.5683C75.8136 58.624 77.4509 54.7528 77.4509 50.5C77.4509 46.2471 75.8682 42.3759 73.194 39.4316C75.3771 38.014 77.9421 37.1416 80.7799 37.1416C88.2567 37.1416 94.3691 43.1392 94.3691 50.5C94.3691 57.8607 88.2567 63.8583 80.7799 63.8583Z" fill="white"/>
</g>
<defs>
<clipPath id="clip0_414_702">
<rect width="100" height="59" fill="white" transform="translate(0 21)"/>
</clipPath>
</defs>
</svg>
