<svg width="100" height="100" viewBox="0 0 100 100" fill="none" xmlns="http://www.w3.org/2000/svg">
<g clip-path="url(#clip0_414_703)">
<path d="M97.9162 62.3893L97.9162 62.7816L97.3302 63.334C95.303 61.8584 91.8296 61.3573 89.5964 62.5843C87.468 63.7538 87.4976 66.5164 89.6238 67.6595C91.8844 68.8749 95.2807 68.3 97.3316 66.8585L97.9164 67.4891L97.9164 67.803C97.0661 68.3348 96.157 68.7925 95.1705 69.02C94.6507 69.1398 94.1174 69.1715 93.6002 69.2938C93.0371 69.2617 92.4306 69.3377 91.8737 69.2939C89.3823 69.0977 86.6303 67.668 86.8525 64.7837C87.1107 61.43 91.3315 60.6609 94.0217 60.987C95.4114 61.1555 96.7473 61.6384 97.9162 62.3893Z" fill="white"/>
<path d="M2.09615 64.5887C2.57496 60.591 8.70988 60.4449 11.5905 61.569C11.8728 61.6791 13.141 62.2631 13.1657 62.51C13.1625 62.8494 12.8305 63.0191 12.6912 63.2975L12.5753 63.3363C10.7082 62.0226 8.25689 61.5852 6.03368 62.1309C2.31161 63.0444 2.33809 67.1963 6.00413 68.096C8.20359 68.6358 10.6636 68.1735 12.5131 66.8785L12.6806 66.874C12.7684 67.1752 13.2688 67.3986 13.1531 67.7523C13.0804 67.9748 11.6157 68.6423 11.3193 68.7488C10.596 69.0088 9.60929 69.2401 8.84529 69.2961L7.1188 69.2961C6.76802 69.1907 6.38981 69.1795 6.01931 69.1008C4.14228 68.7023 2.50656 67.6741 2.09618 65.6871C2.12581 65.336 2.05518 64.9308 2.09615 64.5887Z" fill="white"/>
<path d="M83.0836 30.692L78.7054 37.0244C77.7553 40.5794 77.6241 44.7991 76.5322 48.268C75.6829 50.9661 71.9372 51.2904 69.5087 51.8383C63.1063 53.2826 56.6319 54.4511 50.1627 55.5712C43.4345 54.4052 36.6851 53.2191 30.033 51.6822C28.4442 51.3151 25.4611 50.8015 24.3854 49.5612C23.9278 49.0337 23.7416 48.3688 23.5737 47.705C22.6973 44.2384 22.3649 40.5174 21.5418 37.0258L17.1631 30.6938L83.0836 30.692ZM79.6307 31.869L20.6946 31.8706L24.109 36.8914C24.8402 40.334 25.129 43.9898 25.911 47.4081C26.2727 48.9891 26.553 49.5289 28.1507 50.0334C29.5597 50.4784 31.2964 50.7492 32.7655 51.0686C38.5325 52.3223 44.3388 53.4262 50.1632 54.3938C55.8525 53.4285 61.5305 52.3676 67.1684 51.1462C68.6813 50.8184 70.3945 50.5338 71.863 50.1121C73.345 49.6864 73.8592 49.3214 74.2564 47.7974C75.1555 44.3475 75.3661 40.4579 76.1209 36.9513L79.6307 31.869Z" fill="white"/>
<path d="M30.2697 69.1386L30.2695 61.0572C31.7438 61.1041 33.2329 60.9955 34.7067 61.0539C37.6757 61.1715 40.8719 61.7717 40.6322 65.4934C40.3318 70.157 33.3781 68.9798 30.2697 69.1386ZM31.4469 68.1185C33.8706 67.9679 39.2328 68.9698 39.4547 65.3365C39.7037 61.2587 34.0068 62.1934 31.4467 62.0772L31.4469 68.1185Z" fill="white"/>
<path d="M27.3659 69.1387L26.1103 69.1388L24.8002 67.114L18.2184 67.0942L17.9886 67.1782L16.7323 69.139L15.5159 69.1391C15.5058 68.8155 15.7779 68.4853 15.9541 68.2041C17.4539 65.8109 19.1764 63.5453 20.6565 61.1366C20.792 61.0234 22.041 61.0095 22.1856 61.0974L27.2751 68.7195L27.3659 69.1387ZM24.1483 66.0789L21.6773 62.1553C21.5985 62.0689 21.4711 62.06 21.3617 62.0691C21.1228 62.0891 19.0896 65.6527 18.7334 66.079L24.1483 66.0789Z" fill="white"/>
<path d="M85.1244 69.1371L83.8688 69.1372L82.5609 67.1102L75.977 67.0926L75.7471 67.1766L74.4908 69.1374L73.2744 69.1375L73.3475 68.7789L78.415 61.135C78.5674 61.0078 79.8266 61.0035 79.9834 61.1349L85.0336 68.7179L85.1244 69.1371ZM81.9068 66.0773L79.4359 62.1537C79.357 62.0673 79.2296 62.0584 79.1202 62.0675C78.8813 62.0875 76.8481 65.6511 76.4919 66.0774L81.9068 66.0773Z" fill="white"/>
<path d="M62.6803 68.1177L70.6849 68.1175L70.371 69.1375L61.5031 69.1377L61.5029 61.1741C61.7643 60.9818 62.4279 60.9845 62.6801 61.1741L62.6803 68.1177Z" fill="white"/>
<path d="M50.0455 68.1181L58.0501 68.1179L57.7363 69.1379L48.8684 69.1381L48.8682 61.1745C49.1295 60.9822 49.7931 60.9848 50.0453 61.1744L50.0455 68.1181Z" fill="white"/>
<path d="M45.102 61.0529H43.9248V69.1382H45.102V61.0529Z" fill="white"/>
<path d="M75.0004 38.1459L74.3727 41.9904L60.3253 41.9908L60.3252 38.264L60.4429 38.1463L75.0004 38.1459Z" fill="white"/>
<path d="M40.6281 51.7987L40.6279 47.0127L49.692 47.0125L49.8097 47.1301L49.8099 53.3284L49.633 53.4308L40.6281 51.7987Z" fill="white"/>
<path d="M39.9995 42.619L39.9996 46.3458L26.5798 46.3858L25.9521 42.6194L39.9995 42.619Z" fill="white"/>
<path d="M49.7309 36.8912L49.731 38.7743L25.3247 38.7749L25.0107 36.8919L49.7309 36.8912Z" fill="white"/>
<path d="M73.7448 45.7565C73.6307 46.4004 73.561 47.1338 73.3132 47.718L50.5157 47.7186L50.5156 45.7571L73.7448 45.7565Z" fill="white"/>
<path d="M59.6974 33.7527H50.5156V37.5187H59.6974V33.7527Z" fill="white"/>
<path d="M73.1954 48.2672C72.6532 49.2656 71.0286 49.391 69.979 49.6414C63.5588 51.1727 57.0042 52.239 50.5158 53.4461L50.5156 48.2678L73.1954 48.2672ZM67.2312 48.895L51.1435 48.8955L51.1436 52.6615C55.4541 51.8337 59.9077 51.2177 64.1717 50.1908C64.9268 50.0089 66.5781 49.6533 67.1122 49.1291C67.189 49.0538 67.2597 49.0266 67.2312 48.895Z" fill="white"/>
<path d="M49.8094 33.7528L49.8095 36.2635L49.1032 36.2635L49.1032 34.3805L29.4839 34.381L30.5042 36.264L24.6969 36.2642L23.0488 33.7535L49.8094 33.7528Z" fill="white"/>
<path d="M49.103 41.991L49.103 40.0295L31.3672 40.03L31.5242 41.9915L25.8739 41.9917L25.4814 39.4025L49.6916 39.4019L49.8093 39.5195L49.8093 41.8733C49.6422 42.0785 49.3397 41.969 49.103 41.991Z" fill="white"/>
<path d="M74.2941 42.6182L73.8871 45.075L73.7841 45.2073L68.3299 45.2075L68.5653 43.246L51.1435 43.2465L51.1435 45.2079L50.5157 45.208L50.5156 42.6188L74.2941 42.6182Z" fill="white"/>
<path d="M76.3345 34.929L75.432 36.2628L60.3252 36.2632L60.3252 35.0471L60.4429 34.9294L76.3345 34.929Z" fill="white"/>
<path d="M40.0004 48.2681L40.0005 49.6019L30.0732 49.6021C29.8531 49.6021 28.2911 49.1756 28.0176 49.0682C27.613 48.9092 27.2395 48.6767 27.0518 48.2684L40.0004 48.2681Z" fill="white"/>
<path d="M49.7907 43.7958H40.6279V45.208H49.7907V43.7958Z" fill="white"/>
<path d="M59.6974 39.4017H50.5156V40.7355H59.6974V39.4017Z" fill="white"/>
</g>
<defs>
<clipPath id="clip0_414_703">
<rect width="100" height="100" fill="white"/>
</clipPath>
</defs>
</svg>
