<svg width="100" height="100" viewBox="0 0 100 100" fill="none" xmlns="http://www.w3.org/2000/svg">
<g clip-path="url(#clip0_414_699)">
<path fill-rule="evenodd" clip-rule="evenodd" d="M85.4287 10.1994V12.0256L49.9991 5.81641L14.5723 12.0256V10.1994L49.9991 3.94934L85.4287 10.1994Z" fill="white"/>
<path fill-rule="evenodd" clip-rule="evenodd" d="M85.4287 8.33183V10.1994L49.9991 3.94935L14.5723 10.1994V8.33183L49.9991 2.08337L85.4287 8.33183Z" fill="#33A457"/>
<path fill-rule="evenodd" clip-rule="evenodd" d="M85.4287 12.0256L49.9991 5.81641L14.5723 12.0256L14.5728 18.3259L14.8798 18.1519C15.0047 18.0821 27.5758 11.1122 50.0673 11.1122C72.5604 11.1122 84.9848 18.0838 85.1108 18.153L85.4145 18.3275L85.4287 12.0256Z" fill="#CC2131"/>
<path fill-rule="evenodd" clip-rule="evenodd" d="M50.068 12.3298C70.3789 12.3298 82.2721 18.0455 84.1997 19.0478V37.1852C84.1997 47.0734 81.8708 56.9241 77.2806 66.4688C67.2331 87.3163 52.1144 95.5021 49.9998 96.5703C47.8835 95.5021 32.7534 87.3163 22.7087 66.4688C18.1184 56.9241 15.79 47.0734 15.79 37.1852V19.05C17.7351 18.0488 29.7532 12.3298 50.068 12.3298Z" fill="#FFF22D"/>
<path fill-rule="evenodd" clip-rule="evenodd" d="M14.8802 18.1514L14.5732 18.3253V37.1852C14.5732 47.2589 16.9414 57.2883 21.6124 66.9939C32.5776 89.7597 49.5775 97.7236 49.7476 97.8016L49.9995 97.9167L50.2509 97.8016C50.4227 97.7236 67.4084 89.7575 78.3731 66.9939C83.0462 57.2883 85.4149 47.2589 85.4149 37.1852V18.3269L85.1112 18.1525C84.9858 18.0832 72.5608 11.1117 50.0677 11.1117C27.5762 11.1117 15.0051 18.0816 14.8802 18.1514ZM50.0677 12.3299C70.3786 12.3299 82.2719 18.0456 84.1995 19.0478V37.1852C84.1995 47.0735 81.8706 56.9241 77.2803 66.4688C67.2328 87.3163 52.1142 95.5022 49.9995 96.5704C47.8833 95.5022 32.7532 87.3163 22.7084 66.4688C18.1182 56.9241 15.7898 47.0735 15.7898 37.1852V19.05C17.7348 18.0489 29.753 12.3299 50.0677 12.3299Z" fill="black"/>
<path fill-rule="evenodd" clip-rule="evenodd" d="M55.388 78.9946C55.978 79.4025 55.55 80.1108 55.1132 80.2215C54.6584 80.3453 54.2696 79.8404 54.0493 80.3938C53.9256 80.691 54.2615 82.9425 56.5647 82.9425C58.7148 82.9425 59.7405 80.1823 59.9428 79.7668C60.1462 79.3523 60.2771 78.8234 60.0737 78.8234C59.1303 78.8234 58.8555 79.3834 58.8555 79.3834C58.8555 79.3834 58.7841 78.8447 59.253 78.4379C59.6396 78.1058 60.1467 78.1865 60.33 78.1865C60.7144 78.1865 60.6539 77.9002 60.8862 77.3337C61.4156 76.0005 61.7799 75.9405 62.124 75.3325C62.4091 74.8374 61.8704 74.6432 60.8076 74.5434C59.7416 74.442 59.1707 74.4851 58.6946 74.5544C58.2175 74.6225 57.7426 74.8161 57.4465 75.5457C57.2878 75.941 57.5784 76.3303 58.1368 76.2295C58.6946 76.1253 59.2317 75.7033 59.2317 75.7033C59.2317 75.7033 58.9804 76.7022 58.1477 76.9089C57.3756 77.0987 56.4639 76.633 56.5865 75.8516C56.7463 74.8379 57.447 74.0952 58.7252 73.8449C60.0055 73.587 61.2815 73.7844 62.4195 74.0641C63.5537 74.3504 64.3885 74.177 65.4431 74.1154C67.717 73.9938 69.126 73.4572 69.126 73.4572C69.126 73.4572 68.1014 74.2888 66.6809 74.6732C65.2605 75.0609 63.9937 74.9001 63.5837 75.0609C63.2527 75.2027 62.7848 75.8598 62.3993 76.6106C62.0449 77.301 61.6675 78.0965 61.8306 78.0965C63.1513 78.1467 63.6349 77.8577 63.6349 77.8577C63.6349 77.8577 63.3738 78.4275 62.7445 78.6969C62.3077 78.8736 61.5667 78.8736 61.5667 78.8736C61.5667 78.8736 61.2335 79.7171 60.8583 80.4784C60.4805 81.239 59.8615 82.4272 58.7475 83.015C57.6291 83.6018 55.4905 84.3335 54.1436 82.3961C52.7188 80.3638 54.0193 78.0518 55.388 78.9946ZM38.8521 79.2597C39.115 79.9325 38.5566 80.2832 38.2321 80.2832C37.9066 80.2832 37.5015 80.0416 37.4169 80.4484C37.3395 80.8519 38.2812 82.9333 40.4722 82.9333C42.6642 82.9333 43.6801 81.6649 43.5258 80.5285C43.354 79.2602 41.3392 78.7564 39.7333 77.9117C38.9476 77.4995 37.1716 77.2236 37.1716 75.561C37.1716 72.0111 42.5737 74.2784 42.5737 74.2784C42.5737 74.2784 42.5852 73.8346 42.8366 73.8139C42.9582 73.8024 43.2024 73.7544 43.2837 74.1557C43.3639 74.5604 43.721 76.6924 43.721 76.6924C43.721 76.6924 42.9271 75.0691 40.7481 74.3602C40.3626 74.225 38.6771 73.9044 38.6869 75.2387C38.7071 76.031 39.6728 76.3865 41.3468 77.0365C43.5471 77.8991 44.6742 78.7024 44.1545 81.0155C43.6599 83.2364 41.4886 83.6018 40.4329 83.6018C39.3794 83.6018 36.9551 82.8629 36.9551 80.426C36.9551 78.7029 38.6455 78.7433 38.8521 79.2597ZM50.3953 65.9121L51.2825 66.3325C51.794 66.5304 52.1206 66.4432 52.2379 66.3941C52.3617 66.3407 52.8301 65.8379 52.932 65.4099C52.98 65.2354 52.9544 65.0838 52.8617 64.972C52.5165 64.563 51.9053 62.6845 51.6784 61.6692C51.5944 61.2924 51.6964 60.2525 51.7755 59.4155C51.8447 58.6968 51.8873 58.2502 51.8513 58.1352C51.7907 57.9574 51.5252 57.7857 51.2198 57.5921L50.7362 57.2627C50.4782 57.0517 50.4668 56.7643 50.4526 56.4557L50.4014 55.9764C50.289 55.5303 48.019 53.2118 47.6673 53.1905C47.1574 53.1572 47.0249 53.7167 46.9922 54.0531C46.972 54.25 47.1994 55.129 47.4044 55.9082L47.6307 56.8478C47.863 58.3249 49.4335 60.9265 50.1031 62.0367L50.421 62.5765C50.5584 62.8895 50.505 63.1366 50.2607 63.2751C50.0235 63.4114 47.9825 63.1982 47.0075 62.9735C46.5887 62.8775 46.0718 62.6687 45.5674 62.4642C44.9899 62.2341 44.4424 62.0105 44.1262 61.9947C43.757 61.9756 43.582 62.0503 43.4462 62.1131L43.2248 62.1747L43.0045 62.1043C42.7341 61.9849 42.2286 61.7668 40.8484 61.6419C38.8369 61.4533 38.6858 61.8579 38.604 62.0765C38.5043 62.3546 39.7339 63.6622 39.9536 63.8373C40.2334 64.063 41.138 64.4071 41.6904 64.3155C42.3218 64.214 43.3513 64.0865 43.4789 64.1121L43.6861 64.2386L43.8786 64.3749C44.0531 64.4463 45.1775 64.508 45.5172 64.526C45.9093 64.5472 46.9388 64.7604 47.6913 64.918L48.5321 65.0876C48.8615 65.1481 49.7099 65.5669 50.3953 65.9121Z" fill="black"/>
<path fill-rule="evenodd" clip-rule="evenodd" d="M71.2042 39.8239C71.1595 39.7688 71.1224 39.7655 71.099 39.7715C71.0777 39.7786 71.0488 39.7988 71.0406 39.8642C71.0035 40.1445 70.6518 40.8648 70.3726 40.9712C69.8072 41.1898 69.5143 41.8529 69.3022 42.336C69.1937 42.5852 69.0879 42.8229 69.004 42.8262C68.968 42.8289 68.9282 42.7902 68.8846 42.7095C68.5361 42.1086 68.7313 41.1898 68.8878 40.4493L68.9238 40.2677C69.0514 39.6434 69.7821 38.7687 70.2189 38.2442L70.4119 38.0119C70.7091 37.6411 70.7838 36.3847 70.7282 36.2904C70.7102 36.2849 70.6982 36.2953 70.6911 36.3062C70.6843 36.3117 70.6786 36.3183 70.6742 36.3258L70.6676 36.3248V36.3313C70.6497 36.3509 70.6344 36.3531 70.6197 36.4164C70.5417 36.809 69.8241 37.6067 68.5983 38.6668C68.3469 38.8843 68.0606 39.2775 67.8262 39.5932C67.6751 39.8004 67.4979 40.0393 67.451 40.0507C67.1473 38.4301 67.6969 37.5037 67.9581 37.056L68.0797 36.8286C68.5983 35.4174 69.9337 34.3486 69.9479 34.3388C69.9659 34.2979 69.9659 34.2543 69.9331 34.2265C69.8819 34.1872 69.7881 34.2041 69.6403 34.2783L69.5596 34.3186C69.0939 34.5449 67.6893 35.2293 66.8277 36.8771C66.2088 38.0637 65.9694 39.3898 65.9694 40.3899C65.9694 40.9003 66.0311 41.3234 66.1358 41.6037C66.4384 42.4107 66.9684 44.4163 67.1315 45.2037C67.2329 45.6917 67.2487 47.3674 67.2487 48.4176C67.2487 48.9307 67.2465 49.2901 67.2465 49.3037C67.2432 49.3037 66.9793 50.1554 66.9793 50.1554C66.9782 50.1642 66.8506 50.8294 65.7633 51.9413C64.6684 53.0596 63.4491 53.4152 63.4382 53.4195C62.9485 53.4577 62.502 53.4375 62.4861 53.3737C62.4861 52.0956 60.2974 49.1221 59.1773 48.1411C58.0344 47.1394 57.1211 46.4218 55.5692 45.4774C53.9889 44.5155 52.2314 40.4831 52.2113 40.4438L52.0591 39.8991C52.0591 39.8991 51.9741 38.8112 51.9506 38.5282C52.0079 38.561 52.0826 38.6073 52.0826 38.6073L52.6213 38.9209L53.2402 39.1586C53.2457 39.1602 54.0505 39.3178 54.0505 39.3178C54.0505 39.3195 54.5009 39.5501 54.5009 39.5501L54.9186 39.8217L55.5681 40.2906L56.235 40.6412C56.2486 40.6451 57.036 40.6854 57.036 40.6854L57.054 40.6205C57.054 40.6205 56.1423 40.1925 56.1401 40.1925C56.1401 40.1794 55.8118 39.6177 55.8118 39.6177C55.6842 39.4345 55.5568 39.2511 55.4296 39.0675C55.417 39.0588 54.9557 38.7834 54.9557 38.7834C54.7604 38.7537 54.5648 38.7261 54.369 38.7005C54.369 38.6956 54.2539 38.5969 54.1945 38.5435C54.2457 38.5135 54.3423 38.4535 54.3423 38.4535C54.3423 38.4606 54.9704 38.5331 54.9726 38.5331C54.9726 38.5397 55.5315 38.9198 55.5315 38.9198L56.1417 39.3898C56.1515 39.3947 56.7192 39.615 56.7192 39.615L56.7939 39.6444L56.5447 38.9961C56.3889 38.8468 56.232 38.6987 56.0741 38.5517L55.3827 37.9639C55.3772 37.9589 54.8396 37.6819 54.8396 37.6819C54.8341 37.6809 54.2605 37.4873 54.2605 37.4873C54.2605 37.4862 53.6536 37.099 53.6536 37.099C53.6536 37.099 53.6601 37.0576 53.6645 37.0221C53.7414 37.0516 54.5048 37.358 54.5048 37.358C54.5091 37.3586 55.2365 37.5565 55.2365 37.5565C55.2354 37.5538 55.8467 37.7899 55.8467 37.7899C55.8445 37.7877 56.7241 38.2169 56.7241 38.2169C56.7317 38.2207 57.4602 38.3788 57.4602 38.3788C57.4728 38.3794 58.3589 38.2207 58.3589 38.2207C58.3703 38.2152 59.215 37.6274 59.215 37.6274C59.2248 37.6116 59.3802 37.2621 59.3802 37.2621L59.4134 37.1814L59.1419 37.2937C59.1397 37.2937 58.3752 37.6819 58.3741 37.6819L57.8447 37.8003C57.8447 37.7975 57.247 37.6803 57.2459 37.6803H57.247C57.247 37.6732 56.7623 37.2223 56.7623 37.2223L56.0741 36.5559L55.4519 36.2375C55.4432 36.2337 54.7158 36.1159 54.7158 36.1159C54.7158 36.1142 54.273 35.889 54.2654 35.8852C54.2676 35.8852 54.2687 35.877 54.2687 35.8656C54.2687 35.8122 54.255 35.6955 54.2496 35.6409L55.1646 35.7178L56.1668 35.6371C56.1668 35.6398 56.7312 35.7549 56.7312 35.7549L57.3021 35.9905L57.8866 36.0695L57.9919 36.0837L57.3403 35.4604C57.3337 35.4572 56.6832 34.9871 56.6832 34.9871C56.6756 34.9833 56.1379 34.7865 56.1379 34.7865C56.1281 34.7843 55.2316 34.7085 55.2136 34.7068C55.2213 34.7063 55.2224 34.691 55.2224 34.6687C55.2224 34.6141 55.2136 34.5367 55.2087 34.4969L55.6324 34.4249C55.6324 34.4277 56.3108 34.5803 56.3108 34.5803C56.3108 34.5825 56.9531 34.968 56.9531 34.968L57.6473 35.2052C57.6674 35.2058 58.661 35.0498 58.661 35.0498L58.7204 35.0417L58.4178 34.642C58.4009 34.6289 57.9014 34.4735 57.9003 34.4735C57.9003 34.4707 57.488 34.1659 57.488 34.1659L56.8735 33.734C56.8648 33.7291 56.4062 33.5732 56.4062 33.5732C56.3986 33.5705 55.6755 33.4549 55.6733 33.4543C55.6733 33.4467 55.3178 33.1195 55.3102 33.1141C55.3211 33.1119 55.3434 32.9979 55.3516 32.9461L55.7338 33.053L56.2257 33.2875L56.9242 33.5088L56.7699 33.2008L56.4983 32.9172L56.2606 32.6108L56.3637 32.5851C56.3637 32.5944 57.1069 32.9734 57.1069 32.9734L57.686 33.1708C57.686 33.174 58.1331 33.5934 58.1331 33.5934C58.1396 33.5988 58.9859 34.0765 58.9859 34.0765L59.071 34.1245L58.9167 33.7111C58.9123 33.7019 58.4532 33.1146 58.4532 33.1146L58.071 32.4537C58.0677 32.4461 57.3757 31.7421 57.3757 31.7421C57.3692 31.7356 56.4885 31.265 56.4863 31.265C56.4863 31.2612 56.151 30.8811 56.151 30.8811C55.9457 30.6723 55.7409 30.4631 55.5365 30.2535C55.5365 30.2453 55.4737 30.0305 55.4416 29.9214C55.5457 29.9547 56.0381 30.1182 56.0381 30.1182L56.7274 30.3129C56.7274 30.3145 57.2192 30.621 57.2192 30.621C57.2192 30.6243 57.6293 31.1221 57.6293 31.1221C57.644 31.1336 58.2972 31.4084 58.2972 31.4084L59.962 31.6243L60.0591 31.6363L59.6021 31.1554C59.5907 31.1467 58.7084 30.7546 58.7084 30.7546L58.1789 30.3685C58.1789 30.3614 57.8828 29.8303 57.8828 29.8303L57.5742 29.2829C57.5687 29.2747 57.0704 28.8052 57.0704 28.8052C57.0627 28.7997 56.4493 28.4475 56.4493 28.4475L55.8424 27.9425C55.8424 27.9376 55.6962 27.635 55.603 27.4332L56.0245 27.8395L56.8299 28.5445C56.8397 28.5505 57.4542 28.8248 57.4542 28.8248L57.9804 29.2501L58.5917 29.874C58.613 29.8838 59.5683 30.0185 59.5683 30.0185L59.6877 30.0359L58.7177 29.1956C58.7177 29.1803 58.4985 28.5069 58.4985 28.5069C58.3307 28.3437 58.1613 28.1821 57.9903 28.0222L57.7263 27.7119C57.7263 27.7037 57.4635 26.9027 57.4635 26.9027C57.2828 26.7146 57.1007 26.5279 56.9171 26.3427C56.9171 26.3383 56.0408 25.5209 56.0387 25.5176V25.516C56.0387 25.5035 56.0076 25.3786 55.9896 25.2963C56.0567 25.3301 56.1483 25.3786 56.1483 25.3786L56.9526 25.847C56.9602 25.8508 57.9177 26.1246 57.9177 26.1246L58.9167 26.3612L60.0711 26.5455L59.7995 25.9964C59.7804 25.979 59.2062 25.745 59.2062 25.745L58.6735 25.4342C58.668 25.4326 58.0175 25.1578 58.0175 25.1578L57.4444 24.9233C57.4444 24.9178 57.0725 24.438 56.8653 24.173C57.0643 24.3066 57.3713 24.5154 57.3713 24.5154C57.3861 24.5203 57.8877 24.5601 57.8877 24.5601L59.4609 24.5607C59.4609 24.565 60.0978 24.9091 60.0978 24.9102C60.0978 24.9124 60.6409 25.498 60.6409 25.498L60.7123 25.5749L60.6463 24.914C60.6398 24.8949 60.2946 24.4636 60.2946 24.4636C60.2848 24.456 59.3627 23.9467 59.3627 23.9467L58.6299 23.6708C58.6244 23.6691 57.5202 23.4739 57.5148 23.4739V23.4723C57.5148 23.4619 57.3037 23.2105 57.3037 23.2105C57.2994 23.2084 56.4956 22.4646 56.4956 22.4646C56.3657 22.3967 56.2354 22.3296 56.1046 22.2634C56.1046 22.2612 55.9819 22.1352 55.9056 22.0556H56.3189C56.3189 22.0622 56.9526 22.4428 56.9526 22.4428C56.958 22.4466 57.8038 22.7192 57.8038 22.7192L58.8829 22.8768H58.8818C58.8818 22.8883 59.282 23.3365 59.282 23.3365L59.8655 23.6948C60.0868 23.7356 60.3084 23.775 60.5302 23.8131L60.6229 23.8278L59.2575 22.1549C59.2488 22.1467 58.5961 21.795 58.5961 21.795C58.5906 21.7917 57.825 21.5567 57.825 21.5567C57.825 21.5485 57.1511 20.784 57.1511 20.784C57.1434 20.7758 56.2993 20.2682 56.2993 20.2682C56.0953 20.2165 55.8908 20.1667 55.6859 20.1188C55.724 20.0571 55.8511 19.8477 55.8511 19.8467C55.8533 19.8527 56.5272 19.5478 56.5272 19.5478C56.5272 19.5495 57.5153 19.3548 57.5153 19.3548C57.542 19.3319 57.6167 19.0958 57.6167 19.0958C57.6042 19.056 57.1821 18.7823 57.1821 18.7823C57.0137 18.7276 56.8451 18.6738 56.6761 18.6208C56.645 18.6247 56.3778 18.7812 56.3778 18.7823C56.3778 18.7773 55.5512 18.815 55.5512 18.815C55.5512 18.8144 54.5631 18.5821 54.5631 18.581C54.5631 18.5761 53.5451 17.7277 53.5451 17.7277C53.3892 17.6474 53.2331 17.5678 53.0767 17.4888C53.0652 17.4866 51.3835 17.2898 51.3792 17.2898C51.3792 17.2685 50.9838 16.6785 50.9838 16.6785L50.4429 16.0874C50.4407 16.0842 49.7542 15.4647 49.7542 15.4647L49.733 15.51L49.5028 16.0193C49.5039 16.0144 49.276 16.3666 49.276 16.3666V16.3754C49.276 16.4402 49.3082 16.7805 49.3082 16.7805C49.318 16.8018 49.5405 17.0297 49.5454 17.0362C49.5339 17.0362 49.4614 17.3907 49.4614 17.3934C49.4592 17.3689 48.5388 17.4065 48.5371 17.4065C48.5371 17.4021 47.7852 17.057 47.7852 17.057C47.7803 17.0537 47.2039 16.8585 47.2039 16.8585C47.1925 16.8547 45.8516 16.8961 45.8516 16.8961C45.8221 16.9114 45.5948 17.2636 45.5948 17.2636L45.5642 17.31L46.1542 17.395C46.1542 17.3972 46.2415 17.4528 46.29 17.4839L46.139 17.6072C46.139 17.5995 45.3183 17.5619 45.3183 17.5619C45.3047 17.5641 44.7272 17.798 44.7272 17.798L44.6672 17.8236L44.9535 18.0161C44.9715 18.0227 46.1978 18.0614 46.1978 18.0614L47.1085 18.2959V18.297C47.1085 18.3095 47.2819 18.5571 47.2819 18.5571C47.2819 18.5571 47.4051 18.731 47.4515 18.7992L47.0616 19.014C47.0665 19.0135 45.9536 19.483 45.9536 19.483L43.653 20.7747C43.6508 20.7726 42.1382 20.9983 42.1382 20.9983C42.1267 21.0021 41.546 21.3255 41.546 21.3255C41.5334 21.3342 41.0672 21.9804 41.0672 21.9804C41.0623 21.9886 40.7984 22.7929 40.7984 22.7929C40.7777 24.1594 40.8322 24.191 40.8518 24.2019C40.8971 24.2302 41.2919 24.4538 41.5973 24.2902C41.943 24.1021 42.6829 23.9172 43.0673 23.8354C43.2571 23.7967 43.346 23.8649 43.3618 23.9352C43.3825 24.0121 43.3253 24.1168 43.1835 24.1555L43.1039 24.179C42.4354 24.3606 41.7532 24.5803 41.7756 24.8382L41.8933 25.0351C42.1916 25.2527 42.967 25.1496 43.3787 25.0564L43.8084 24.9358C44.1792 24.823 44.6007 24.697 44.9606 24.7374C45.1683 24.7614 45.3516 24.8508 45.568 24.9527C45.8614 25.0945 46.1968 25.2554 46.6968 25.2881C47.5305 25.3459 48.0998 25.5144 48.1445 25.5635C48.2563 25.7909 48.1843 26.1273 48.1282 26.3978L48.0851 26.6426C47.8517 28.7589 45.489 31.1516 44.3504 32.2994C44.0429 32.6102 43.8395 32.8153 43.7958 32.9009L43.665 33.2035C43.5543 33.4843 43.4643 33.7264 43.1033 33.8715C42.8945 33.9527 42.4075 34.3192 41.8426 34.7423C41.0269 35.3508 40.0154 36.1077 39.7367 36.075C39.2705 36.0199 37.0932 34.5209 37.0016 34.4288C34.8809 32.3768 33.9937 32.7978 33.4626 33.0486L33.3787 33.0879C32.7461 33.3758 32.082 35.1676 32.022 35.5521L31.7657 36.6557L31.5689 37.4666C31.5105 37.7409 31.2493 38.4148 31.0001 39.0659L30.4886 40.4837C30.4041 40.8119 30.1991 41.2732 30.0322 41.6462L29.8059 42.1986C29.6483 42.8469 29.6456 46.3979 29.9199 46.7119L29.9319 46.725L29.9859 46.7408C30.2612 46.7125 30.8523 46.1034 31.1359 45.8095L31.2013 45.7413C31.4412 45.5003 31.6959 44.8569 31.6959 44.5864C31.6959 44.3214 31.5721 43.7674 31.523 43.6163C31.1392 42.444 31.2842 41.3267 31.354 40.7912L31.3818 40.5524C31.402 40.3037 31.6512 40.0283 31.8933 39.7644L32.1992 39.4105C32.3671 39.1869 32.5536 39.1128 32.7199 39.0468L32.9931 38.8909L33.0357 38.8467C33.2167 38.6651 33.5204 38.3587 33.6535 37.9486L33.913 36.8259L33.9697 36.5259C33.9828 36.466 34.0134 36.4327 34.0641 36.4218C34.1671 36.3989 34.3215 36.4807 34.3874 36.5685L36.2643 38.7464C36.7453 39.1559 37.2393 39.6444 37.2393 39.7519L37.2388 39.7611C37.2388 39.7595 37.2273 39.7617 37.2273 39.7617C36.9645 39.7889 35.6421 39.507 35.4224 39.4443C33.6257 38.9176 32.8056 39.0103 32.173 39.802C31.4522 40.7088 31.679 43.486 31.8262 43.7903C31.9615 44.0662 32.6191 47.4497 32.6485 47.9007C32.678 48.3429 32.8492 49.1336 33.028 49.3151L33.0771 49.3653C33.2985 49.5845 33.882 50.1707 33.985 50.7487C34.0963 51.378 35.4328 53.0629 35.9426 53.2139C36.0201 53.2364 36.1038 53.2202 36.1673 53.1703C36.556 52.8944 36.7327 51.5459 36.754 50.9766C36.7791 50.2672 36.5244 49.9242 36.254 49.5572L36.1504 49.4138C35.9513 49.1423 35.6007 49.0436 35.3695 48.9787C35.2708 48.9509 35.1356 48.9182 35.1356 48.8876C35.1356 48.8773 35.1083 47.838 34.7768 47.6373C34.5189 47.4786 34.2549 46.4758 34.2239 46.0941C34.1939 45.7151 34.0472 44.8002 33.8503 44.3983C33.6513 43.9948 33.4839 43.251 33.569 42.6773C33.6044 42.4309 33.78 42.3534 33.9229 42.3311C34.1693 42.2918 34.454 42.3982 34.4981 42.4843C34.5963 42.6817 36.4912 43.8246 37.1302 44.07C37.5272 44.2205 38.0643 44.6742 38.5387 45.0788C38.8763 45.3618 39.1663 45.6055 39.3474 45.6922C39.5917 45.81 40.2842 45.8237 40.8404 45.8346C41.1354 45.8395 41.4418 45.8466 41.4833 45.8711C41.2575 45.9616 41.2603 46.3575 41.2788 46.4851C41.5094 48.1226 47.4667 52.6207 47.9275 52.8731C48.4608 53.1594 50.3737 55.1568 50.5411 55.4284C50.7145 55.6966 50.883 55.9884 50.8508 56.213C50.805 56.5451 50.938 56.9246 51.2041 57.2344C51.4588 57.5228 51.7909 57.6968 52.0979 57.6968C52.364 57.6968 52.5417 57.4579 52.6731 57.2856L52.701 57.2496C53.0565 56.779 53.5838 56.0898 53.6519 55.0118C53.7245 53.9065 54.2294 53.4675 54.3941 53.4386C54.4677 53.425 54.5217 53.4473 54.5413 53.4959C54.5615 53.546 54.5369 53.63 54.4371 53.696C54.219 53.8438 54.0827 54.3329 53.9333 54.8558C53.9322 54.8602 53.8777 55.3896 53.8777 55.3896C53.8651 55.785 53.8499 56.2332 53.4551 56.6678C52.864 57.308 52.1857 58.7841 52.0101 60.6479C51.9037 61.7706 52.4092 63.3879 53.5118 65.4491L53.5887 65.5964L53.8869 66.0969C54.1885 66.5817 54.6923 67.3876 54.6689 67.5763C54.6367 67.8424 54.6116 68.0512 54.1525 68.6276C53.6476 69.2612 51.805 71.4053 51.6251 71.4391C51.2587 71.4391 51.197 71.486 50.902 71.7096L50.5912 71.9462C50.251 72.1878 50.1915 72.3688 50.1343 72.5286C50.0923 72.6491 50.0525 72.7544 49.8943 72.8727L49.776 72.9523C49.7515 72.9736 49.685 73.0673 48.9445 73.8084C48.0954 74.6476 47.7165 75.5975 47.8473 76.5414C47.8893 76.8364 48.1434 76.9394 48.897 76.9738C49.6495 77.0087 51.3748 75.8014 51.4517 75.4083L51.4784 75.2583C51.5444 74.9039 51.6551 74.3062 51.8503 74.2201C52.0859 74.117 52.4894 73.6513 52.7855 73.3127L52.8427 73.2489C53.0003 73.0668 53.0385 72.8858 53.0761 72.7134C53.1083 72.5771 53.1377 72.4397 53.2271 72.3143C53.2975 72.2227 53.4005 72.1725 53.52 72.1175C53.749 72.0079 54.0374 71.8683 54.2452 71.3464C54.4519 70.8349 55.6853 69.9499 56.5861 69.3059C57.0464 68.9788 57.4073 68.717 57.4935 68.602C57.6118 68.4477 57.6843 68.1505 57.6843 67.8353C57.6843 67.4612 57.584 67.0632 57.349 66.8418C57.0071 66.5244 56.6854 65.58 56.5894 65.2839V65.2773C56.5894 65.1547 56.5779 64.93 56.5594 64.5118C56.5572 64.4927 56.5572 64.4725 56.5572 64.4545C56.5572 63.3481 58.2018 62.2657 58.9118 61.7995L59.2357 61.5759C61.81 59.3053 62.3138 57.579 62.4093 57.1051L62.4616 56.5375C62.4774 56.1443 62.4905 55.7697 62.7277 55.7206C62.8204 55.7026 62.9747 55.7773 63.0685 55.8891C63.122 55.9496 63.2005 56.0756 63.1481 56.2212C63.0309 56.5396 62.9916 59.741 62.9905 59.8741C62.9993 59.8964 63.2675 60.2127 63.2675 60.2127L63.3166 60.27L63.3313 60.1953C63.3346 60.1582 63.4824 59.2857 63.4824 58.9771C63.4824 58.6319 64.0375 57.1536 64.1716 57.128C64.1716 57.1324 64.1804 57.1449 64.1804 57.1449C64.2453 57.3494 64.3281 57.8543 64.3281 58.3865C64.3281 58.9095 64.2491 59.4591 63.995 59.7776C63.6094 60.2547 63.3025 61.0099 63.1023 61.5083L62.9169 61.932C62.896 61.9907 62.8869 62.053 62.8902 62.1152C62.8902 62.5209 63.0991 63.3857 63.2365 63.5466C63.2725 63.5848 63.3014 63.5848 63.3215 63.5777C63.3662 63.5608 63.4066 63.503 63.4066 63.1633C63.4066 61.8693 64.4939 60.9309 64.507 60.9238C65.4656 60.1631 65.6745 58.7524 65.6745 57.6777C65.6745 56.8641 65.555 56.243 65.5518 56.2261C65.4002 56.0013 65.2468 55.7777 65.0915 55.5554C65.1139 55.5663 65.2388 55.4638 65.2802 55.4305C65.3216 55.484 65.7584 56.0631 65.7584 56.0631C65.832 56.1661 66.0185 56.4666 66.0185 56.586C66.0185 57.2518 66.121 57.7077 66.1941 58.0419L66.2121 58.121C66.289 58.4754 66.7683 59.608 66.7896 59.6565L66.8408 59.7759L66.8566 59.6462C66.8566 59.6407 66.9324 59.0485 66.8566 58.5419C66.813 58.2579 66.8675 57.9094 66.9226 57.5332L67.0099 56.6694C67.0099 55.9676 66.9095 55.5243 66.6592 55.1208L66.5316 54.9272C66.4815 54.8482 66.4324 54.7707 66.4379 54.7549L66.5316 54.7146C68.5563 54.0275 69.4986 52.5367 69.8824 51.7111C70.2849 50.8365 70.3061 49.4896 70.3061 49.2306C70.3061 48.8931 70.2914 47.1427 69.9975 46.2435C69.8252 45.7129 69.8803 45.1431 69.9381 44.528L70.0008 43.4751C70.0008 42.7548 70.3798 42.2198 70.7473 41.7029L71.1851 41.0246C71.4714 40.4596 71.3193 39.9651 71.2042 39.8239Z" fill="black"/>
<path fill-rule="evenodd" clip-rule="evenodd" d="M48.5419 17.2779C48.5757 17.2801 49.0059 17.0756 49.0059 17.0756C49.025 17.0369 48.9252 16.6295 48.9252 16.6295C48.6147 16.2612 48.3026 15.8943 47.9889 15.5286L47.9426 15.4746L47.9268 15.5422L47.8264 15.9834C47.827 15.979 47.5293 16.6912 47.5293 16.6912L47.5156 16.7211L48.1427 17.0418L48.5419 17.2779Z" fill="black"/>
<path fill-rule="evenodd" clip-rule="evenodd" d="M48.7282 20.1041C48.8275 20.1412 48.9774 20.1248 49.1192 20.0616C49.3362 19.9596 49.4644 19.7851 49.4093 19.6603L49.3095 19.5703C49.2114 19.5327 49.0614 19.5496 48.9218 19.6139C48.7359 19.6968 48.617 19.8348 48.617 19.952C48.617 19.9733 48.623 19.9962 48.6301 20.0142L48.7282 20.1041ZM52.4738 18.5582L52.6527 18.6547C52.6817 18.7175 52.7377 18.7636 52.8048 18.7802C52.882 18.7963 52.9624 18.7762 53.0229 18.7256C53.0709 18.688 53.0824 18.6177 53.0518 18.5288C53.0038 18.381 52.8495 18.2196 52.6832 18.2196C52.4689 18.2196 52.2732 18.2441 52.2732 18.4023C52.2737 18.4912 52.3757 18.525 52.4738 18.5582ZM52.6881 19.1902C52.6052 19.2513 52.5687 19.3336 52.5921 19.4171L52.609 19.4863C52.6303 19.5681 52.6379 19.585 52.7132 19.5937L52.8495 19.6183C53.024 19.663 53.2999 19.5545 53.3626 19.4149C53.3839 19.3696 53.4008 19.2818 53.2819 19.1989C53.0775 19.0626 52.8255 19.0921 52.6881 19.1902ZM53.2459 21.6173C53.1958 21.5933 53.217 21.5137 53.2558 21.3981C53.2868 21.3038 53.3152 21.2132 53.2667 21.1636C53.2241 21.1227 53.1483 21.126 53.0197 21.174C52.5562 21.3408 52.4853 21.8131 52.434 22.1582L52.4182 22.2646C52.3915 22.4183 52.4706 22.4707 52.5196 22.4881C52.6794 22.5448 52.9679 22.3998 53.0327 22.2891C53.1053 22.1697 53.5055 22.0606 53.7972 21.981L53.909 21.9505C54.0443 21.9134 54.1135 21.8616 54.1233 21.7912C54.138 21.6991 54.0361 21.6151 53.9456 21.5611C53.8616 21.5115 53.7367 21.547 53.6058 21.5846C53.4761 21.62 53.3365 21.6566 53.2459 21.6173ZM48.3471 21.7945C48.4496 21.7842 48.5297 21.7443 48.5805 21.6713C48.7282 21.451 48.7359 21.1391 48.5925 20.8561C48.454 20.5862 48.2168 20.4133 47.9746 20.4046L47.9779 20.4057L47.925 20.3986L47.479 20.4335C47.2434 20.4858 47.0248 20.6598 46.9719 20.831C46.9451 20.9177 46.9604 20.9968 47.0198 21.0562C47.3776 21.4352 47.9954 21.8212 48.3471 21.7945ZM43.9548 21.4357C44.0082 21.5671 44.2531 21.5819 44.6124 21.475L44.6915 21.451L45.3354 21.1991L46.2684 20.5856C46.2957 20.5643 46.5394 20.3811 46.4893 20.2639C46.4538 20.187 46.3322 20.2006 46.2444 20.217C45.9871 20.2639 45.7346 20.3877 45.4658 20.5185L45.0863 20.6947L44.9189 20.7634C44.3414 21.0022 43.8681 21.2165 43.9548 21.4357ZM41.9928 22.1184C41.7987 22.1184 41.7115 22.2237 41.6406 22.3169L41.5539 22.4151C41.4045 22.5432 41.3587 22.8529 41.3772 23.0885C41.3848 23.1866 41.4126 23.3644 41.5092 23.4211C41.694 23.5351 41.7823 23.4549 41.971 23.2755L42.1172 23.1501C42.3025 22.9947 42.5179 22.8186 42.5447 22.5476C42.5577 22.433 42.5305 22.3387 42.4667 22.2678C42.3533 22.1446 42.1461 22.1184 41.9928 22.1184ZM43.066 22.204C43.0103 22.192 42.9771 22.2095 42.9596 22.2275C42.9035 22.2825 42.9264 22.4003 42.9438 22.4947L42.9547 22.5606L42.9433 22.6005C42.9307 22.6343 42.9165 22.6773 42.9433 22.7139C42.9673 22.7504 43.0256 22.7662 43.1249 22.7662C43.2508 22.7673 43.2634 22.7542 43.3059 22.6419L43.3397 22.5552C43.3702 22.4789 43.3708 22.4101 43.3419 22.3556C43.2901 22.2596 43.1614 22.2231 43.066 22.204ZM44.1036 23.8857C44.245 23.8792 44.3544 23.7593 44.3478 23.6179C44.3417 23.4856 44.2359 23.3798 44.1036 23.3737C43.9642 23.3746 43.8519 23.4883 43.8528 23.6277C43.8528 23.6283 43.8528 23.6289 43.8528 23.6294C43.8528 23.7706 43.9646 23.8857 44.1036 23.8857ZM48.7784 23.2619C48.705 23.2482 48.63 23.2764 48.5837 23.335C48.5145 23.4157 48.093 23.7047 47.7849 23.9162L47.3874 24.1987L47.3552 24.2298C47.3056 24.2767 47.281 24.3056 47.3132 24.4026L47.3617 24.4708L47.4664 24.4495L47.6213 24.3923L47.8443 24.3574C48.0641 24.329 48.3045 24.2963 48.418 24.1802L48.5657 23.9386L48.7855 23.5858C48.8907 23.4696 48.8962 23.39 48.8815 23.3448C48.8642 23.3009 48.825 23.2694 48.7784 23.2619ZM49.2403 24.6873C49.2403 24.8176 49.3052 24.8689 49.3417 24.8868C49.4404 24.9392 49.5822 24.8885 49.6667 24.7707L49.9524 24.522C50.1073 24.4108 50.2801 24.2854 50.4334 24.0907C50.5751 23.9081 50.5141 23.7957 50.4633 23.7477C50.3663 23.6529 50.1667 23.631 50.0991 23.6867L50.0168 23.7428C49.8297 23.8644 49.3869 24.1518 49.2757 24.5013C49.2537 24.5609 49.2418 24.6238 49.2403 24.6873ZM51.1019 24.5466C51.0435 24.4615 50.9432 24.4261 50.8685 24.4626L50.6673 24.6153C50.5255 24.7309 50.3488 24.8776 50.1956 24.9207C49.8237 25.0204 49.3193 25.1868 49.2882 25.4419L49.2877 25.4752C49.2877 25.5456 49.3193 25.5875 49.3499 25.611C49.4911 25.726 49.8341 25.6579 50.0822 25.5641C50.4628 25.4234 50.694 25.2516 50.9928 24.9801C51.1766 24.8127 51.1684 24.6453 51.1019 24.5466ZM49.6558 27.4857L49.5347 27.4721C49.2217 27.5555 48.6873 28.4759 48.3122 29.1619L48.2451 29.2808L47.1207 31.391L46.7679 32.0628C46.7287 32.1239 46.7423 32.2133 46.8012 32.2717C46.8557 32.3262 46.9511 32.3562 47.0667 32.2831C47.2543 32.1583 47.9387 31.4794 48.256 30.9461L48.6786 30.3632C48.9496 30.0093 49.2583 29.6134 49.4393 29.1417L49.5031 28.9792C49.9322 27.8663 49.9993 27.6962 49.6558 27.4857ZM53.8839 23.4293C53.7493 23.4262 53.6378 23.5329 53.6347 23.6675C53.6347 23.6674 53.6347 23.6675 53.6347 23.6675C53.6347 23.7989 53.7465 23.9059 53.8839 23.9059C54.0213 23.9059 54.131 23.799 54.131 23.6676C54.1289 23.5339 54.0188 23.4272 53.8851 23.4293C53.8847 23.4293 53.8843 23.4293 53.8839 23.4293ZM53.7656 24.4233C53.7656 24.5553 53.8774 24.6622 54.0148 24.6622C54.1479 24.6637 54.257 24.557 54.2585 24.4239C54.2585 24.4237 54.2585 24.4235 54.2585 24.4233C54.2571 24.2901 54.148 24.1833 54.0148 24.1845C53.8803 24.1824 53.7692 24.2889 53.7656 24.4233ZM53.9946 24.9517C53.8392 24.9517 53.7105 25.0548 53.7105 25.178C53.7105 25.3029 53.8392 25.4049 53.9946 25.4049C54.1522 25.4049 54.2798 25.3034 54.2798 25.178C54.2804 25.0548 54.1522 24.9517 53.9946 24.9517ZM53.9832 25.6126C53.8043 25.6126 53.6615 25.7255 53.6615 25.8646C53.6615 26.0025 53.8043 26.1154 53.9832 26.1154C54.162 26.1154 54.3027 26.002 54.3027 25.8646C54.3027 25.7255 54.162 25.6126 53.9832 25.6126ZM53.9946 26.4513C53.7978 26.4513 53.6347 26.5685 53.6347 26.7163C53.6347 26.8619 53.7978 26.9791 53.9946 26.9791C54.1926 26.9791 54.3523 26.8619 54.3523 26.7163C54.3523 26.5685 54.1926 26.4513 53.9946 26.4513ZM53.873 27.857C54.0966 27.8374 54.2607 27.7147 54.2482 27.5729L54.1778 27.4442C54.101 27.3794 53.9668 27.3466 53.8305 27.3592C53.6146 27.3788 53.4548 27.4955 53.4548 27.6291L53.4559 27.6427L53.5284 27.7709C53.6069 27.8374 53.7351 27.8701 53.873 27.857ZM53.8605 28.7399C54.1108 28.7028 54.2874 28.5654 54.2673 28.4236L54.1937 28.3058C54.1064 28.2387 53.9499 28.212 53.7901 28.2355C53.5442 28.2698 53.3632 28.41 53.3834 28.5517L53.4592 28.669C53.5475 28.7366 53.7007 28.7622 53.8605 28.7399ZM53.439 29.1657C53.439 29.32 53.6266 29.4433 53.8725 29.4433C54.1173 29.4433 54.3027 29.32 54.3027 29.1657C54.3027 29.0114 54.1173 28.8898 53.8725 28.8898C53.626 28.8904 53.439 29.0114 53.439 29.1657ZM54.2057 30.0682C54.2057 29.9046 53.9821 29.7797 53.6964 29.7797C53.4139 29.7797 53.1903 29.9046 53.1903 30.0682C53.1903 30.2307 53.4139 30.3577 53.6964 30.3577C53.9821 30.3577 54.2057 30.2307 54.2057 30.0682ZM53.8807 30.8299C53.8807 30.6702 53.7133 30.5409 53.511 30.5409C53.3054 30.5409 53.138 30.6702 53.138 30.8299C53.138 30.9897 53.3054 31.1195 53.511 31.1195C53.7138 31.1195 53.8807 30.9897 53.8807 30.8299ZM53.7062 31.7826C53.7062 31.6032 53.5295 31.4554 53.3098 31.4554C53.0927 31.4554 52.9166 31.6032 52.9166 31.7826C52.9166 31.9636 53.0922 32.1092 53.3098 32.1092C53.5295 32.1092 53.7062 31.9636 53.7062 31.7826ZM53.3844 32.7096C53.3844 32.5481 53.2394 32.42 53.0627 32.42C52.8872 32.42 52.7388 32.5476 52.7388 32.7096C52.7388 32.8682 52.8866 32.998 53.0627 32.998C53.2394 32.9986 53.3844 32.8682 53.3844 32.7096ZM52.8272 33.2581C52.657 33.2581 52.5164 33.3873 52.5164 33.5477C52.5164 33.7063 52.657 33.8356 52.8272 33.8356C52.9967 33.8356 53.1358 33.7058 53.1358 33.5477C53.1363 33.3873 52.9967 33.2581 52.8272 33.2581ZM52.5643 34.6491C52.7388 34.6491 52.8872 34.5368 52.8872 34.3978C52.8872 34.2587 52.7394 34.148 52.5643 34.148C52.3888 34.148 52.2448 34.2593 52.2448 34.3978C52.2448 34.5363 52.3888 34.6491 52.5643 34.6491ZM52.2682 35.2582C52.4302 35.2582 52.5632 35.1639 52.5632 35.045C52.5632 34.9267 52.4324 34.8329 52.2682 34.8329C52.0987 34.8329 51.97 34.9262 51.97 35.045C51.97 35.1639 52.103 35.2582 52.2682 35.2582ZM51.9809 35.8439C52.1352 35.8439 52.2661 35.7484 52.2661 35.6301C52.2661 35.5129 52.1352 35.4175 51.9809 35.4175C51.8222 35.4175 51.6968 35.5129 51.6968 35.6301C51.6962 35.7484 51.8222 35.8439 51.9809 35.8439ZM43.5736 35.3253L43.6249 35.3351L44.0131 35.2653C44.3578 35.189 44.8769 35.0728 45.5154 35.0559C45.9822 35.0434 46.4882 35.2064 46.8557 35.3264C47.1894 35.4376 47.3557 35.4856 47.419 35.4169C47.4588 35.3717 47.4343 35.3057 47.4125 35.2593C47.3121 35.0428 46.8726 34.3312 45.4385 34.2985C44.5066 34.2773 43.747 34.9109 43.5845 35.1786C43.5524 35.2331 43.5436 35.2735 43.56 35.3035L43.5736 35.3253ZM48.9065 38.0212C48.9976 37.9629 49.0369 37.8598 49.0309 37.712C49.0003 37.1318 48.8449 37.0659 48.5248 37.0659C48.2004 37.0659 47.9659 37.3914 47.9659 37.5604C47.9659 37.7191 48.0826 37.8582 48.3089 37.9716C48.437 38.0392 48.7321 38.1357 48.9065 38.0212ZM53.3065 45.1138C53.7689 45.3297 53.9314 45.4066 54.0006 45.4279C54.0028 45.4279 54.005 45.4344 54.005 45.4344C54.005 45.4344 54.0083 45.4317 54.0083 45.4306C54.0404 45.4404 54.0508 45.4366 54.0584 45.4257C54.0541 45.4224 54.0361 45.3951 54.0263 45.3875C54.0317 45.3831 54.0372 45.3717 54.0372 45.3717C54.0372 45.3717 54.0083 45.3597 54.0061 45.357C53.7002 44.9709 51.8582 42.3519 51.4661 40.6282C51.4045 40.3441 51.332 40.0797 51.1466 39.9739C51.0424 39.9155 50.911 39.9112 50.7513 39.9646H50.7502C50.7131 39.9755 50.6864 40.0061 50.6695 40.0508C50.6536 40.0993 50.6468 40.1503 50.6493 40.2013C50.6493 40.8169 51.3053 42.5117 51.5196 42.8601C52.705 44.7844 53.2841 45.1007 53.3065 45.1138ZM68.363 45.8625L68.2926 45.8761C68.2948 45.887 68.3106 46.4012 68.3106 47.0615C68.3106 48.0245 68.2774 49.3087 68.1105 49.8856C67.9753 50.3529 67.3553 51.2477 66.8547 51.9637C66.8547 51.9637 66.2723 52.8372 66.2723 52.8383C66.2557 52.8675 66.2472 52.9007 66.2478 52.9343C66.2478 53.0205 66.2914 53.1017 66.3683 53.1524C66.4267 53.1928 66.6377 53.2964 66.9316 52.9457L67.3035 52.5526C67.7997 52.0575 68.4164 51.4429 68.851 50.0863C69.3276 48.5971 68.3712 45.8881 68.363 45.8625ZM52.8501 50.7144C52.8948 50.7591 52.9673 50.7717 53.0431 50.7444C53.1623 50.7031 53.246 50.5954 53.2563 50.4696C53.2743 50.2831 53.4041 50.0328 53.5971 49.8191C53.8062 49.5814 53.7898 49.221 53.56 49.0033L53.313 48.9046C53.1543 48.9101 53.036 49.0371 53.0295 49.0409C52.9467 49.4372 52.8658 49.8338 52.7868 50.2308V50.2297C52.7634 50.2957 52.7421 50.6108 52.8501 50.7144ZM60.8822 55.1062L60.8696 55.1007L60.8571 55.1062C60.8473 55.1138 60.64 55.2103 60.5812 55.4126C60.5408 55.549 60.6161 55.6673 60.675 55.7649L60.7442 55.8947L60.7742 56.1537L60.8211 56.5348C60.8451 56.616 60.922 56.6699 61.0065 56.6646C61.1035 56.6613 61.2164 56.5866 61.2535 56.4356C61.3037 56.2311 61.3282 55.9541 61.3282 55.5855C61.3271 55.249 60.9013 55.1105 60.8822 55.1062ZM48.4158 52.0051C48.388 51.973 45.4434 48.7776 44.8071 47.9405C44.1587 47.0828 43.849 47.0179 43.5316 47.1935C43.4842 47.2206 43.453 47.2693 43.4482 47.3238C43.4024 47.6723 44.138 48.5153 44.782 49.1342C45.6823 50.0006 48.3416 52.0373 48.3689 52.0575L48.4158 52.0051ZM36.8748 42.5744C36.2782 42.2041 35.2454 41.9985 35.2351 41.9942L35.2078 42.0569L36.3535 42.9206C36.5421 43.0755 37.3759 43.593 37.6452 43.3814C37.6806 43.3547 37.7006 43.3123 37.6987 43.268C37.69 43.1126 37.401 42.9048 36.8748 42.5744ZM36.595 37.6859L36.6757 37.6515C36.7788 37.5354 36.5416 37.2055 36.2531 36.9388C35.993 36.6989 35.7286 36.544 35.5901 36.5517L35.5115 36.5855C35.4947 36.606 35.4861 36.632 35.4875 36.6585C35.4875 36.809 35.6937 37.0751 35.933 37.2987C36.1937 37.5386 36.4603 37.6946 36.595 37.6859ZM39.6563 37.2687L39.539 37.2758C39.3166 37.369 38.9632 37.9345 38.6813 38.6505C38.4828 39.1559 38.3329 39.7072 38.3329 40.0393C38.3329 40.1969 38.3667 40.3038 38.4419 40.3354L38.5575 40.3283C38.78 40.2334 39.1322 39.6669 39.4174 38.9531C39.6154 38.4465 39.7637 37.8952 39.7637 37.5626C39.7637 37.4061 39.7315 37.2987 39.6563 37.2687ZM34.1456 33.7767C33.8582 33.7767 33.6292 33.913 33.6292 34.0853C33.6292 34.2565 33.8582 34.3912 34.1456 34.3912C34.4373 34.3912 34.6642 34.2565 34.6642 34.0853C34.6642 33.913 34.4373 33.7767 34.1456 33.7767ZM32.3129 37.5921L32.4023 37.5839C32.5577 37.5075 32.7927 37.0849 32.9699 36.5577C33.1575 35.9965 33.26 35.394 33.0785 35.3297L32.9907 35.3389C32.8325 35.4169 32.5981 35.8384 32.4225 36.3652C32.2316 36.9268 32.1351 37.5294 32.3129 37.5921ZM32.7927 40.4946C32.9454 40.2902 32.9759 40.06 32.8625 39.9739L32.7306 39.9455C32.6204 39.9597 32.489 40.0524 32.3908 40.1893C32.2382 40.3938 32.2076 40.6233 32.3205 40.7078L32.453 40.7389C32.5626 40.722 32.6957 40.6304 32.7927 40.4946ZM32.6171 43.6737L32.6046 43.666L32.5473 43.66C32.3412 43.708 32.4863 44.6056 32.5926 45.0778C32.7436 45.737 32.9481 46.2692 33.0899 46.3576L33.1019 46.3663L33.1581 46.3723C33.3675 46.3243 33.2191 45.4224 33.1134 44.9545C32.9634 44.2915 32.7611 43.7625 32.6171 43.6737ZM30.5407 44.8788C30.3744 44.8788 30.2402 45.002 30.2402 45.1558C30.2402 45.3019 30.3744 45.4251 30.5407 45.4251C30.7059 45.4251 30.8444 45.3019 30.8444 45.1558C30.845 45.002 30.7065 44.8788 30.5407 44.8788ZM35.6424 51.3939C35.4509 51.3929 35.2945 51.5465 35.2918 51.7379C35.2918 51.9233 35.4494 52.0766 35.6424 52.0766C35.833 52.0799 35.9905 51.9285 35.9947 51.7379C35.992 51.5458 35.8345 51.392 35.6424 51.3939ZM52.8893 60.4707C52.9002 60.4876 52.9319 60.5443 52.9798 60.5389L53 60.5378L53.0371 60.4822L53.3534 59.5181L53.6004 58.8758L53.8114 58.3872C53.8763 58.223 53.8763 58.1134 53.8125 58.0496C53.7111 57.9569 53.5017 58.036 53.4761 58.0453C53.4592 58.0589 52.8817 59.023 52.8817 59.023C52.7688 59.1953 52.7263 59.4276 52.7263 59.6664C52.7263 60.0067 52.8114 60.3464 52.8893 60.4707ZM54.3322 65.2867L54.3436 65.1897C54.3512 65.1324 54.5246 63.7915 54.1124 63.2735C54.0273 63.16 53.8982 63.0877 53.7569 63.0745C53.6331 63.063 53.548 63.099 53.5011 63.177C53.2498 63.5881 54.2362 65.1368 54.2798 65.2038L54.3322 65.2867ZM56.6415 67.8376C56.4439 67.8352 56.2818 67.9933 56.2794 68.1909C56.2794 68.1912 56.2794 68.1916 56.2794 68.192C56.2794 68.391 56.4413 68.5453 56.6415 68.5453C56.8369 68.5453 56.9954 68.3869 56.9954 68.1915C56.9954 67.996 56.8369 67.8376 56.6415 67.8376ZM51.2044 63.5189C51.0348 63.5189 50.8903 63.6508 50.8903 63.8139C50.8903 63.9813 51.0353 64.11 51.2044 64.11C51.3778 64.11 51.5174 63.9813 51.5174 63.8139C51.5174 63.6508 51.3778 63.5189 51.2044 63.5189ZM55.1665 68.7482L55.1283 68.7395C54.9407 68.7395 54.2307 69.3606 53.6255 69.98C53.572 70.0367 52.2579 71.3847 52.4318 71.5602L52.4416 71.5712L52.4842 71.5799C52.6739 71.5799 53.3828 70.9566 53.9848 70.3404C54.0415 70.2832 55.3578 68.9401 55.1785 68.758L55.1665 68.7482ZM51.2202 72.3924C51.1106 72.3924 50.9388 72.4949 50.7856 72.6481C50.6024 72.8313 50.4693 73.0849 50.5675 73.189L50.6646 73.2239C50.7763 73.2239 50.9487 73.1236 51.1013 72.9671C51.2802 72.7817 51.4176 72.5336 51.3156 72.4284L51.2202 72.3924ZM49.4889 74.8871C49.3542 74.8871 49.1639 74.9978 48.9976 75.1662C48.8237 75.3407 48.7239 75.5338 48.7239 75.6679C48.7239 75.7192 48.7375 75.7606 48.7697 75.7895L48.8924 75.8364C49.0249 75.8364 49.2206 75.729 49.3837 75.5594C49.6252 75.3124 49.7223 75.0479 49.6127 74.9334L49.4889 74.8871ZM40.4377 62.322C40.1781 62.322 39.9671 62.4698 39.9671 62.6562C39.9671 62.8416 40.1787 62.9845 40.4377 62.9845C40.6994 62.9845 40.9083 62.8416 40.9083 62.6562C40.9088 62.4698 40.6994 62.322 40.4377 62.322ZM44.271 62.5903C44.0867 62.5903 43.9433 62.6895 43.9433 62.8204C43.9433 62.9431 44.0867 63.0439 44.271 63.0439C44.4488 63.0439 44.596 62.9425 44.596 62.8204C44.596 62.6922 44.4488 62.5903 44.271 62.5903ZM48.9496 64.1558L48.978 64.1122C49.0309 63.8919 47.9272 63.5478 47.3372 63.3984C46.6289 63.2173 45.7869 63.0723 45.601 63.1841L45.5879 63.1928L45.5579 63.2386C45.5045 63.4611 46.6076 63.8008 47.1987 63.9551C47.9065 64.1329 48.7484 64.2736 48.9371 64.1629L48.9496 64.1558Z" fill="white"/>
</g>
<defs>
<clipPath id="clip0_414_699">
<rect width="100" height="100" fill="white"/>
</clipPath>
</defs>
</svg>
