<svg width="100" height="100" viewBox="0 0 100 100" fill="none" xmlns="http://www.w3.org/2000/svg">
<g clip-path="url(#clip0_414_704)">
<path fill-rule="evenodd" clip-rule="evenodd" d="M47.3563 51.261V44.542H57.0638V51.261H59.457V36.76H57.0638V42.4791H47.3563V36.76H44.9561V51.261H47.3563ZM68.3184 48.6968C67.5467 49.2082 66.5039 49.49 65.3829 49.49C63.9555 49.49 62.9959 48.8715 62.9959 47.9516C62.9959 47.0097 63.6516 46.5614 65.3344 46.3521L67.6501 46.0747C68.5719 45.9625 69.1595 45.8483 69.5302 45.5943L69.5308 46.6793C69.5308 47.4624 69.1008 48.178 68.3184 48.6968ZM69.6966 49.7214C69.9349 50.8575 70.7552 51.022 71.6145 51.022C72.1523 51.022 72.7721 50.976 73.2317 50.9016L73.3276 50.8859L73.3269 49.2668L73.1901 49.2933C72.9966 49.3305 72.7128 49.3702 72.4953 49.3702C71.9216 49.3702 71.6871 49.1432 71.6864 48.5871L71.6852 42.9835C71.6845 40.3115 68.517 39.9124 66.63 39.9124C63.1756 39.9124 61.4475 41.0933 61.1883 43.6284L61.1757 43.7501H63.3389L63.3433 43.6436C63.3931 42.3246 64.4416 41.684 66.5487 41.684C68.6381 41.684 69.5289 42.1613 69.5296 43.2817C69.5296 44.0969 68.9615 44.2993 67.7674 44.4228L65.4308 44.6618C62.0389 45.0142 60.7174 45.953 60.718 48.0109C60.718 48.9881 61.1556 51.261 65.1988 51.261C66.7164 51.261 68.7125 50.7774 69.6966 49.7214ZM82.7709 46.6793C82.7709 47.4624 82.3409 48.178 81.5585 48.6968C80.7868 49.2082 79.7439 49.49 78.623 49.49C77.1956 49.49 76.236 48.8715 76.236 47.9516C76.236 47.0097 76.8917 46.5614 78.5744 46.3521L80.8908 46.0747C81.8113 45.9625 82.4001 45.8483 82.7702 45.5943L82.7709 46.6793ZM86.4302 49.2933C86.2012 49.3386 85.9687 49.3644 85.7354 49.3702C85.1616 49.3702 84.9277 49.1432 84.9271 48.5871L84.9252 42.9835C84.9246 40.3115 81.7577 39.9124 79.87 39.9124C76.4163 39.9124 74.6875 41.0933 74.4284 43.6284L74.4158 43.7507H76.5789L76.5834 43.6436C76.6332 42.3246 77.6816 41.684 79.7887 41.684C81.8781 41.684 82.7696 42.1613 82.7702 43.2823C82.7702 44.0969 82.2022 44.2993 81.008 44.4235L78.6709 44.6618C75.2789 45.0142 73.9574 45.953 73.958 48.0109C73.958 48.9881 74.3956 51.261 78.4389 51.261C79.9564 51.261 81.9525 50.7774 82.9367 49.7214C83.175 50.8575 83.9953 51.022 84.8552 51.022C85.3924 51.022 86.0122 50.976 86.4718 50.9016L86.5676 50.8859L86.567 49.2668L86.4302 49.2933ZM87.1981 47.4031L87.2063 47.5216C87.3866 50.0032 89.2049 51.261 92.6126 51.261C94.2544 51.261 95.5469 50.9622 96.4547 50.3739C97.4251 49.7447 97.9168 48.8091 97.9162 47.5935C97.9162 45.9814 96.7372 45.0691 94.2052 44.7217L91.4008 44.344C90.0352 44.1511 89.7761 43.7797 89.7761 43.1625C89.7761 42.6499 90.0535 42.2609 90.6008 42.0062C91.0484 41.7982 91.6839 41.684 92.3913 41.684C94.5204 41.684 95.3331 42.6361 95.3842 43.5263L95.3892 43.631H97.5896L97.5789 43.5105C97.374 41.1904 95.5393 39.9124 92.4109 39.9124C90.9563 39.9124 89.742 40.227 88.8985 40.8216C88.036 41.4293 87.5808 42.3145 87.5808 43.3813C87.5808 45.0962 89.0384 46.0589 90.4822 46.2525L93.7418 46.6894C95.2978 46.905 95.6017 47.3224 95.6017 47.9712C95.6023 48.2505 95.5027 48.6508 95.0273 48.9692C94.5103 49.3147 93.6781 49.49 92.5521 49.49C90.2307 49.49 89.4029 48.4686 89.4022 47.5141V47.4031L87.1981 47.4031Z" fill="#E6002D"/>
<path fill-rule="evenodd" clip-rule="evenodd" d="M51.8907 53.7828H44.9561V63.24H46.4629V59.1186H51.6379L51.6366 57.6975H46.4629V55.2039H51.8913L51.8907 53.7828ZM56.2334 53.7828L56.2246 53.89C56.1325 54.9417 55.2467 55.475 53.5892 55.475H53.1523L53.1529 56.7158H55.9207L55.9232 63.24H57.5656L57.5606 53.7828H56.2334ZM70.1752 55.2039V53.7828H61.979L61.9796 55.2039H65.3123V63.24H66.8469V55.2039H70.1752ZM73.3887 57.5285C74.511 57.5285 75.3236 58.1231 75.5386 59.0883H71.1537C71.3718 58.1502 72.2532 57.5285 73.3887 57.5285ZM73.4505 56.3048C72.2267 56.3048 71.2123 56.6616 70.5188 57.3375C69.8902 57.949 69.5441 58.8141 69.5447 59.7724C69.546 61.8788 71.0799 63.24 73.4537 63.24C74.6957 63.24 76.2612 62.6644 76.9282 61.0485L76.9887 60.9003H75.4283L75.3987 60.9633C74.9447 61.9135 73.8433 62.0162 73.3912 62.0162C72.3812 62.0162 71.2621 61.3946 71.1051 60.2402H77.1104V59.9766C77.1085 57.2687 75.219 56.3048 73.4505 56.3048ZM82.9701 60.4319C82.9701 60.8908 82.7211 61.3114 82.269 61.6159C81.8176 61.9204 81.2073 62.0875 80.5509 62.0875C79.7288 62.0875 79.1765 61.7313 79.1765 61.1998C79.1759 60.6513 79.5422 60.3997 80.5264 60.2755L81.9008 60.1078C82.4033 60.0454 82.7419 59.9817 82.9695 59.8518V60.4319H82.9701ZM85.1749 61.9702C85.042 61.9973 84.9069 62.0125 84.7714 62.0156C84.4561 62.0156 84.3332 61.8946 84.3326 61.5844V58.2006C84.3326 56.5506 82.4254 56.3047 81.2899 56.3047C79.215 56.3047 78.1753 57.0298 78.0202 58.5858L78.0076 58.7043H79.3776L79.3814 58.6003C79.4098 57.8311 80.0182 57.4566 81.2413 57.4566C82.4518 57.4566 82.9688 57.7334 82.9688 58.3809C82.9688 58.8437 82.658 58.9546 81.9607 59.0284L80.5736 59.1734C78.5612 59.3859 77.7403 59.9836 77.7409 61.2363C77.7409 61.8391 78.0057 63.24 80.4419 63.24C81.3245 63.24 82.4783 62.9613 83.0874 62.3529C83.2569 63.0017 83.7632 63.0962 84.2487 63.0962C84.5683 63.0962 84.9384 63.0679 85.2152 63.0225L85.3066 63.0074V61.9437L85.1749 61.9696V61.9702ZM97.9162 58.7069C97.9149 56.8104 96.2915 56.3047 95.3325 56.3047C94.2134 56.3047 93.3767 56.6629 92.7122 57.4295C92.2123 56.7026 91.4292 56.3047 90.4904 56.3047C89.8625 56.3047 88.7541 56.4422 88.0334 57.3104V56.5273H86.5676V63.24H88.036L88.0341 59.3884C88.0341 58.8254 88.2421 58.3557 88.6368 58.0304C88.9987 57.7321 89.5024 57.5682 90.0566 57.5682C90.7193 57.5682 91.5093 57.8173 91.5099 59.0045L91.5118 63.24H92.977V59.2024C92.977 58.669 93.1762 58.2523 93.5728 57.9648C93.9253 57.7088 94.4315 57.5676 94.9977 57.5676C95.6603 57.5676 96.4503 57.8173 96.4509 59.0044L96.4535 63.24H97.9162L97.9162 58.7069Z" fill="white"/>
<path fill-rule="evenodd" clip-rule="evenodd" d="M21.8057 62.1537C18.5354 62.1537 15.5848 60.8354 13.4128 58.6955H16.7865C16.7865 58.6955 26.4819 41.4198 26.516 41.3511C26.5633 41.2805 26.5393 41.2344 26.4719 41.2344H22.515C22.4349 41.2344 22.4229 41.2584 22.4009 41.2925C22.3775 41.3271 16.9346 50.9135 16.9346 50.9135H9.82283C9.79968 50.6096 9.78853 50.3048 9.78942 50C9.78942 43.293 15.1624 37.8456 21.8063 37.8456C25.1901 37.8456 28.2549 39.2686 30.4388 41.5585C29.4906 43.1776 25.2361 50.4848 24.6649 51.5491C24.3333 50.7736 22.8006 50.9249 22.0119 50.9123C21.6682 51.4904 20.0574 54.5672 20.0574 54.5672C20.0574 54.5672 20.9476 54.5558 21.7483 54.5672C22.5263 54.5798 22.6184 55.3994 22.3094 55.9202C21.9999 56.4409 20.7301 58.6943 20.7301 58.6943H24.8131C24.8131 58.6943 29.8222 49.8487 32.6688 44.8193C33.4319 46.4396 33.8258 48.209 33.822 50C33.822 56.7076 28.4377 62.1531 21.8051 62.1531M10.6696 54.5678H14.8194L12.8176 58.0714C11.9144 57.029 11.1885 55.8454 10.6689 54.5678M21.8051 34.238C13.1953 34.238 6.22154 41.2931 6.22154 50.0006C6.22154 50.3121 6.23163 50.6122 6.24361 50.9135H4.20842C4.09431 50.9135 4.03693 50.9829 3.99091 51.0649C3.95686 51.1456 2.14991 54.3604 2.10389 54.4411C2.06984 54.5218 2.06984 54.5678 2.16189 54.5678H6.88417C8.81596 61.0428 14.7626 65.7619 21.8051 65.7619C30.4161 65.7619 37.3905 58.7069 37.3905 50.0006C37.3905 41.2925 30.4161 34.238 21.8057 34.238" fill="#E6002D"/>
<path fill-rule="evenodd" clip-rule="evenodd" d="M58.186 54.3723C58.2112 54.3723 58.2364 54.3711 58.2591 54.3692C58.2802 54.3681 58.3009 54.3634 58.3203 54.3553C58.3377 54.3476 58.3524 54.3348 58.3625 54.3187C58.3743 54.298 58.38 54.2744 58.3789 54.2506C58.3789 54.2254 58.3739 54.2065 58.3644 54.1914C58.3554 54.177 58.3428 54.1653 58.3278 54.1573C58.3114 54.1491 58.2937 54.1438 58.2755 54.1416C58.2563 54.1388 58.2369 54.1373 58.2175 54.1372H58.0668V54.3723H58.1866H58.186ZM58.2364 54.0445C58.3234 54.0445 58.3877 54.0621 58.43 54.0968C58.4722 54.1315 58.493 54.1851 58.493 54.2557C58.493 54.3219 58.4741 54.3704 58.4375 54.4013C58.3984 54.4334 58.3505 54.4527 58.3001 54.4568L58.5094 54.7821H58.3871L58.1879 54.4644H58.0668V54.7821H57.9533V54.0445H58.2364ZM57.7188 54.6258C57.8184 54.8889 58.1125 55.0215 58.3756 54.9219C58.4468 54.8949 58.5111 54.8523 58.5636 54.7973C58.6109 54.7477 58.6482 54.6895 58.6733 54.6258C58.7 54.5573 58.7132 54.4843 58.7124 54.4108C58.7124 54.3351 58.6998 54.2651 58.6733 54.1996C58.6227 54.0734 58.5247 53.9721 58.4004 53.9171C58.3366 53.8892 58.2676 53.875 58.198 53.8755C57.9865 53.8738 57.7959 54.0027 57.7188 54.1996C57.6924 54.2668 57.6791 54.3385 57.6797 54.4108C57.6797 54.4883 57.6923 54.5602 57.7188 54.6258ZM57.616 54.1624C57.7532 53.8442 58.1216 53.6963 58.4407 53.8314C58.6749 53.9285 58.8272 54.1573 58.8266 54.4108C58.8289 54.5809 58.7617 54.7446 58.6406 54.8641C58.5225 54.9801 58.3634 55.0447 58.198 55.0438C58.0315 55.0448 57.8714 54.9803 57.7522 54.8641C57.5671 54.6803 57.5131 54.4021 57.616 54.1624Z" fill="white"/>
</g>
<defs>
<clipPath id="clip0_414_704">
<rect width="100" height="100" fill="white"/>
</clipPath>
</defs>
</svg>
