<svg width="120" height="120" viewBox="0 0 120 120" fill="none" xmlns="http://www.w3.org/2000/svg">
<g clip-path="url(#clip0_415_1041)">
<mask id="mask0_415_1041" style="mask-type:luminance" maskUnits="userSpaceOnUse" x="0" y="0" width="120" height="120">
<path d="M0 0H120V120H0V0Z" fill="white"/>
</mask>
<g mask="url(#mask0_415_1041)">
<mask id="mask1_415_1041" style="mask-type:luminance" maskUnits="userSpaceOnUse" x="0" y="0" width="120" height="120">
<path d="M0 0H120V120H0V0Z" fill="white"/>
</mask>
<g mask="url(#mask1_415_1041)">
<path d="M118.939 60C118.939 71.6571 115.482 83.0524 109.006 92.7449C102.53 102.437 93.3245 109.992 82.5547 114.453C71.7849 118.914 59.9342 120.081 48.5011 117.807C37.068 115.532 26.566 109.919 18.3233 101.676C10.0805 93.4332 4.46711 82.9312 2.193 71.4981C-0.0811139 60.065 1.08616 48.2142 5.54723 37.4445C10.0083 26.6748 17.5628 17.4698 27.2553 10.9935C36.9479 4.5173 48.3433 1.06067 60.0004 1.06079C67.7404 1.06063 75.4047 2.58503 82.5556 5.54695C89.7065 8.50887 96.204 12.8503 101.677 18.3233C107.15 23.7964 111.492 30.2938 114.453 37.4447C117.415 44.5956 118.939 52.2599 118.939 60Z" fill="#231F20"/>
<path d="M60.0001 120.001C46.1578 119.992 32.7438 115.199 22.0307 106.433C11.3175 97.6676 3.9639 85.4679 1.21548 71.9012C-1.53294 58.3344 0.492857 44.2346 6.94969 31.9904C13.4065 19.7462 23.8974 10.1104 36.6451 4.71538C51.2978 -1.42554 67.7877 -1.50591 82.4996 4.49189C97.2114 10.4897 108.945 22.0762 115.127 36.7114C121.31 51.3466 121.437 67.8361 115.482 82.565C109.526 97.2939 97.9726 109.06 83.3551 115.285C75.9666 118.411 68.0231 120.015 60.0001 120.001ZM60.0001 2.12218C48.5528 2.12206 37.3626 5.51647 27.8444 11.8762C18.3263 18.2358 10.9078 27.2752 6.52703 37.8511C2.14626 48.4269 0.999985 60.0644 3.23317 71.2917C5.46635 82.5191 10.9787 92.8321 19.0731 100.927C27.1675 109.021 37.4805 114.534 48.7078 116.767C59.9351 119 71.5726 117.854 82.1485 113.473C92.7244 109.093 101.764 101.674 108.124 92.1562C114.483 82.6381 117.878 71.4479 117.878 60.0006C117.861 44.6557 111.757 29.9442 100.907 19.0937C90.0564 8.24316 75.345 2.13965 60.0001 2.12218Z" fill="#00E701"/>
<path d="M38.2322 90.8946C37.7905 90.871 37.3576 91.0238 37.0286 91.3194C36.888 91.4478 36.776 91.6043 36.6999 91.7788C36.6239 91.9533 36.5854 92.1418 36.587 92.3322C36.5727 92.4862 36.5899 92.6416 36.6375 92.7888C36.6852 92.936 36.7623 93.0719 36.8642 93.1884C37.3337 93.529 37.8462 93.8062 38.3882 94.0128C39.0434 94.2571 39.629 94.658 40.094 95.1804C40.4343 95.7135 40.5951 96.3415 40.553 96.9726C40.5879 97.5327 40.498 98.0936 40.2899 98.6148C40.0817 99.1359 39.7605 99.6044 39.3494 99.9864C38.4362 100.73 37.2788 101.107 36.1028 101.044C35.5269 101.041 34.9527 100.983 34.388 100.87C33.9134 100.786 33.4449 100.67 32.9858 100.524L32.501 100.333L32.8988 98.6184C33.9122 98.8176 34.9402 98.9332 35.9726 98.964C36.5455 99.008 37.118 98.8721 37.61 98.5752C37.7956 98.4117 37.9396 98.2063 38.0299 97.976C38.1201 97.7456 38.1541 97.4971 38.129 97.251C38.1381 97.108 38.1156 96.9648 38.0633 96.8315C38.0109 96.6982 37.9299 96.578 37.826 96.4794C37.365 96.1551 36.8681 95.8851 36.3452 95.6748C35.7008 95.4186 35.1255 95.015 34.6652 94.4964C34.3017 93.9755 34.1248 93.3472 34.163 92.7132C34.1461 92.201 34.2343 91.6908 34.422 91.214C34.6097 90.7372 34.8929 90.3038 35.2544 89.9406C35.6398 89.5707 36.0965 89.2832 36.5968 89.0958C37.097 88.9083 37.6302 88.8248 38.1638 88.8504C38.7476 88.8535 39.3299 88.909 39.9038 89.016C40.3748 89.0935 40.8405 89.2005 41.2982 89.3364L41.783 89.5092L41.3504 91.206C40.3199 91.0223 39.2768 90.9182 38.2304 90.8946M40.004 100.834L45.3038 89.058H49.4258L49.0622 100.834H46.6718L46.7408 98.79H43.3112L42.3938 100.834H40.004ZM46.709 91.1382L44.2154 96.714H46.829L47.069 91.1382H46.709ZM52.7648 96.8346C52.6667 97.223 52.6141 97.6214 52.6082 98.022C52.5935 98.1655 52.6189 98.3104 52.6816 98.4403C52.7443 98.5703 52.8419 98.6803 52.9634 98.7582C53.3563 98.9264 53.784 98.9974 54.2102 98.9652C54.4546 98.9836 54.7003 98.9508 54.9313 98.869C55.1624 98.7872 55.374 98.6581 55.5524 98.49C55.9277 98.0086 56.1723 97.4384 56.2622 96.8346L58.0622 89.0604H60.4526L58.6526 96.8346C58.4572 98.0507 57.8849 99.1748 57.0164 100.048C56.1735 100.742 55.1022 101.098 54.0116 101.045C51.4944 101.045 50.2358 100.155 50.2358 98.3766C50.2416 97.7304 50.3171 97.0867 50.4608 96.4566L52.1756 89.0616H54.566L52.7648 96.8346ZM66.1436 89.0604C68.1984 89.0604 69.226 89.909 69.2264 91.6062C69.2531 92.2579 69.0842 92.9028 68.7416 93.4578C68.3591 93.9989 67.8627 94.4494 67.2872 94.7778C67.6648 94.9728 67.9775 95.2734 68.1872 95.643C68.3486 96.0142 68.4255 96.4168 68.4122 96.8214C68.4263 97.3585 68.3264 97.8925 68.1189 98.3881C67.9114 98.8838 67.6012 99.3297 67.2086 99.6966C66.2556 100.511 65.0219 100.92 63.7712 100.837H59.3366L62.0558 89.0604H66.1436ZM64.8272 95.9004H62.8718L62.1962 98.7918H64.2362C64.471 98.8015 64.705 98.7583 64.921 98.6656C65.137 98.5729 65.3294 98.4329 65.4842 98.256C65.8056 97.8677 65.9719 97.3742 65.951 96.8706C65.951 96.2226 65.576 95.901 64.8254 95.901M65.7608 91.101H63.977L63.317 93.9078H65.1008C65.3247 93.9119 65.547 93.8684 65.7529 93.7803C65.9588 93.6922 66.1437 93.5614 66.2954 93.3966C66.6239 93.042 66.7983 92.5716 66.7802 92.0886C66.7973 91.9519 66.7824 91.8132 66.7367 91.6833C66.691 91.5534 66.6157 91.4359 66.5168 91.3401C66.4178 91.2443 66.298 91.1728 66.1667 91.1313C66.0354 91.0898 65.8968 91.0794 65.7608 91.101ZM68.7452 100.834L71.4452 89.058H78.3554L77.8706 91.1364H73.3712L72.731 93.9072H76.2986L75.8138 95.9856H72.263L71.6252 98.7582H76.1456L75.6776 100.837L68.7452 100.834ZM82.9976 89.0604C83.9808 88.9793 84.9599 89.2594 85.7516 89.8482C86.0683 90.1748 86.311 90.5658 86.4634 90.9944C86.6158 91.4231 86.6742 91.8795 86.6348 92.3328C86.6702 93.3317 86.4112 94.319 85.8902 95.172C85.4464 95.8905 84.7853 96.449 84.0026 96.7662L84.9542 100.836H82.565L81.785 97.0956H80.1404L79.274 100.836H76.8836L79.6028 89.0598L82.9976 89.0604ZM83.63 94.3068C83.9859 93.8326 84.1774 93.2551 84.1754 92.6622C84.2212 92.2304 84.1174 91.796 83.8814 91.4316C83.7438 91.3084 83.582 91.2154 83.4063 91.1587C83.2306 91.102 83.045 91.0827 82.8614 91.1022H81.5252L80.6066 95.0514H82.1486C82.4379 95.0602 82.7249 94.9966 82.9834 94.8665C83.242 94.7363 83.464 94.5438 83.6294 94.3062" fill="white"/>
<path fill-rule="evenodd" clip-rule="evenodd" d="M33.4121 20.7342H53.4335V34.0818H60.1073V27.408H66.7799V20.7342H86.8019V40.7556H80.1281V47.4294H73.4543V54.1032H80.1281V60.7782H86.8019V80.799H66.7799V74.124H60.1067V67.4502H53.4329V80.7978H33.4121V20.7342Z" fill="#00E701"/>
</g>
</g>
</g>
<defs>
<clipPath id="clip0_415_1041">
<rect width="120" height="120" fill="white"/>
</clipPath>
</defs>
</svg>
