<svg width="100" height="100" viewBox="0 0 100 100" fill="none" xmlns="http://www.w3.org/2000/svg">
<g clip-path="url(#clip0_414_696)">
<path d="M52.5289 49.3595C52.5289 49.7428 52.3595 50.0208 51.8356 50.0208H48.4909C48.0596 50.0208 47.8136 49.8962 47.8136 49.4968C47.8136 49.0975 47.9829 48.8994 48.4909 48.8994H52.5289L52.5289 49.3595ZM67.2783 47.7622V47.3309C67.2783 46.9316 67.4476 46.6696 67.9875 46.6696H71.3322C71.7923 46.6696 72.0223 46.807 72.0223 47.2383C72.0223 47.6056 71.8402 47.7749 71.3642 47.7749L67.2783 47.7622ZM76.0602 44.8008V51.8608H79.4433V46.7335H82.2034C83.1427 46.7335 83.6187 47.0274 83.6187 47.9315V51.8768H86.9953V47.6536C86.9953 45.6729 85.9028 44.8136 82.82 44.8136L76.0602 44.8008ZM67.7543 44.8008C65.0357 44.8008 63.9463 45.7049 63.9463 47.7462V49.1454C63.9463 50.9089 65.0357 51.8608 67.4923 51.8608H74.6323V50.0176H68.1536C67.5147 50.0176 67.2943 49.8323 67.2943 49.3563V49.0656H72.4056C74.169 49.0656 75.1658 48.5129 75.1658 47.1935V46.8741C75.1658 45.6761 74.5684 44.8168 71.575 44.8168L67.7543 44.8008ZM56.8927 51.8608H60.2694V47.2383C60.2694 46.9188 60.3939 46.7303 60.8092 46.7303H63.4192V44.8136H59.6656C57.653 44.8136 56.8863 45.5643 56.8863 46.823L56.8927 51.8608ZM45.3506 44.8008V46.66H51.6919C52.3308 46.66 52.5384 46.8773 52.5384 47.3373V47.6088H47.4463C45.3123 47.6088 44.6701 48.4873 44.6701 49.6055V49.8802C44.6701 51.4328 45.9128 51.8608 48.3535 51.8608H52.1008C54.7555 51.8608 55.9055 51.2634 55.9055 49.1742V47.5449C55.9055 45.7783 54.8162 44.8136 52.3468 44.8136L45.3506 44.8008ZM25.1416 48.7429C25.1416 50.9791 26.2757 51.8736 29.2083 51.8736H35.6422V49.9569H29.7003C28.9943 49.9569 28.5183 49.6374 28.5183 48.6215V48.0209C28.5183 47.1137 28.9623 46.7431 29.6843 46.7431H35.6422V44.8263H29.1157C26.2405 44.8263 25.1416 46.0371 25.1416 47.973V48.7429ZM36.6421 43.6923V51.8736H43.9897V49.9569H40.0284V43.6923H36.6421ZM15.5578 48.2669V43.6923H13.6411C12.4591 43.6923 11.785 44.1651 11.0854 44.7209L2.08301 51.8736H6.14973L12.1396 47.0242V51.8736H14.9476L20.749 46.9923V51.8736H24.1896V43.6923H22.3144C21.3017 43.6923 20.5957 44.1076 19.8897 44.689L15.5578 48.2669Z" fill="white"/>
<path d="M95.116 37.7504C93.2312 37.7504 90.5765 38.3126 87.6982 39.3668C85.1246 40.3025 82.6609 41.5162 80.3506 42.9863C82.5665 42.1719 84.9032 41.7346 87.2637 41.6925C90.5669 41.6925 92.9181 42.9703 89.4456 47.3885C99.6683 40.6798 99.4032 37.7663 95.116 37.7663" fill="#FF8000"/>
<path d="M20.9062 58.9432H23.0019V59.5598H21.5707V60.2882H22.8486V60.9079H21.5707V62.1858H20.9062V58.9432Z" fill="white"/>
<path d="M25.541 60.5949V60.5406C25.541 59.563 26.1544 58.8794 27.0169 58.8794C27.8795 58.8794 28.4864 59.5566 28.4864 60.531V60.5853C28.4864 61.5437 27.8699 62.2465 27.0105 62.2465C26.1512 62.2465 25.541 61.566 25.541 60.5949ZM27.7772 60.5949V60.5406C27.7772 59.9017 27.4578 59.496 27.0009 59.496C26.5441 59.496 26.2342 59.9017 26.2342 60.5406V60.5725C26.2342 61.2114 26.5537 61.6204 27.0169 61.6204C27.4801 61.6204 27.7868 61.2178 27.7868 60.5789L27.7772 60.5949Z" fill="white"/>
<path d="M31.2883 58.9433H32.5119C32.8357 58.9279 33.1521 59.0429 33.3904 59.2627C33.5812 59.4659 33.6805 59.7383 33.6651 60.0166C33.6864 60.4315 33.4447 60.8151 33.0613 60.975L33.7546 62.1826H32.9847L32.3841 61.1124H31.9624V62.1826H31.2852L31.2883 58.9433ZM32.4608 60.5406C32.7179 60.5744 32.9538 60.3934 32.9876 60.1362C32.9913 60.1083 32.9925 60.08 32.9911 60.0518C32.9911 59.7323 32.7898 59.563 32.448 59.563H31.9656V60.5406H32.4608Z" fill="white"/>
<path d="M36.4795 58.9432H37.1855L37.9107 60.2626L38.6295 58.9432H39.3387V62.1889H38.6774V60.1125L37.9107 61.4542L37.1472 60.122V62.1889H36.5082L36.4795 58.9432Z" fill="white"/>
<path d="M42.249 60.9239V58.9432H42.9263V60.9367C42.9263 61.3967 43.1435 61.6235 43.4917 61.6235C43.8399 61.6235 44.0604 61.3999 44.0604 60.9494V58.9432H44.728V60.9175C44.728 61.8152 44.2361 62.2496 43.4821 62.2496C42.7282 62.2496 42.249 61.8184 42.249 60.9239Z" fill="white"/>
<path d="M47.6387 58.9432H48.3127V61.5788H49.6289V62.1985H47.6387V58.9432Z" fill="white"/>
<path d="M53.3564 58.9177H53.9953L55.1645 62.189H54.4745L54.2253 61.499H53.1072L52.8772 62.189H52.2031L53.3564 58.9177ZM54.0208 60.8888L53.6663 59.8282L53.3085 60.8888H54.0208Z" fill="white"/>
<path d="M61.6341 59.6046L61.1389 59.7388L61.0303 59.1542L61.8225 58.9114H62.2889V62.189H61.6245L61.6341 59.6046Z" fill="white"/>
<path d="M69.3012 59.5598H68.4834V58.9432H70.7899V59.5822H69.9689V62.2113H69.3012V59.5598Z" fill="white"/>
<path d="M73.4629 58.9432H75.5585V59.5502H74.137V60.253H75.3924V60.86H74.137V61.5852H75.5809V62.1953H73.4661L73.4629 58.9432Z" fill="white"/>
<path d="M79.3415 58.9177H79.9805L81.1465 62.189H80.4501L80.2137 61.499H79.0924L78.856 62.205H78.1787L79.3415 58.9177ZM80.006 60.8888L79.6546 59.8282L79.2968 60.8888H80.006Z" fill="white"/>
<path d="M83.8047 58.9432H84.5043L85.2295 60.2626L85.9547 58.9432H86.667V62.1889H86.0058V60.1125L85.2391 61.4542L84.4756 60.122V62.1889H83.8175L83.8047 58.9432Z" fill="white"/>
</g>
<defs>
<clipPath id="clip0_414_696">
<rect width="100" height="100" fill="white"/>
</clipPath>
</defs>
</svg>
