<svg width="100" height="100" viewBox="0 0 100 100" fill="none" xmlns="http://www.w3.org/2000/svg">
<g clip-path="url(#clip0_414_698)">
<path d="M31.6625 50.0001C31.6625 58.0842 25.1205 64.6263 17.0363 64.6263C8.95221 64.6263 2.41016 58.0842 2.41016 50.0001C2.41016 41.916 8.95222 35.3739 17.0363 35.3739C25.1205 35.3739 31.6625 41.916 31.6625 50.0001ZM17.0363 36.2618C9.41951 36.2618 3.29801 42.3833 3.29801 50.0001C3.29801 57.6169 9.46623 63.7384 17.0363 63.7384C24.6532 63.7384 30.7747 57.5702 30.7747 50.0001C30.7747 42.3833 24.6532 36.2618 17.0363 36.2618Z" fill="url(#paint0_linear_414_698)"/>
<path d="M17.0362 36.2617C9.41935 36.2617 3.29785 42.3832 3.29785 50C3.29785 57.6169 9.46608 63.7384 17.0362 63.7384C24.653 63.7384 30.7745 57.5701 30.7745 50C30.7745 42.3832 24.653 36.2617 17.0362 36.2617ZM17.0362 62.8505C9.93337 62.8505 4.1857 57.1029 4.1857 50C4.1857 42.8972 9.93337 37.1496 17.0362 37.1496C24.139 37.1496 29.8867 42.8972 29.8867 50C29.8867 57.1029 24.139 62.8505 17.0362 62.8505Z" fill="url(#paint1_linear_414_698)"/>
<path d="M17.0363 64.6262C25.1204 64.6262 31.6625 58.0842 31.6625 50C31.6625 41.9159 25.1204 35.3739 17.0363 35.3739C8.95217 35.3739 2.41011 41.9159 2.41011 50C2.41011 58.0842 8.95217 64.6262 17.0363 64.6262ZM17.0363 35.0468C25.2606 35.0468 31.9896 41.7757 31.9896 50C31.9896 58.2243 25.2606 64.9533 17.0363 64.9533C8.81198 64.9533 2.08301 58.2243 2.08301 50C2.08301 41.7757 8.81198 35.0468 17.0363 35.0468Z" fill="url(#paint2_linear_414_698)"/>
<path d="M3.11133 50.0468C3.11133 42.3832 9.32629 36.0748 17.0366 36.0748C24.7469 36.0748 30.9618 42.3365 30.9618 50.0468C30.9618 57.7104 24.7469 63.9253 17.0366 63.9253C9.32629 63.9253 3.11133 57.7104 3.11133 50.0468ZM7.45713 40.4206C4.98049 42.8973 3.43843 46.3085 3.43843 50.0468C3.43843 53.7851 4.98049 57.1963 7.4104 59.6262C9.88703 62.0562 13.2983 63.5982 17.0366 63.5982C20.7749 63.5982 24.1861 62.1029 26.616 59.6262C29.0927 57.1963 30.588 53.7851 30.588 50.0468C30.588 46.3085 29.0459 42.8973 26.616 40.4206C24.1861 37.944 20.7749 36.4019 17.0366 36.4019C13.2983 36.4019 9.88703 37.944 7.45713 40.4206Z" fill="white"/>
<path d="M17.0359 62.8972C13.5779 62.8972 10.3536 61.542 7.92372 59.1121C5.49381 56.6822 4.13867 53.4579 4.13867 50C4.13867 46.542 5.49381 43.3177 7.92372 40.8878C10.3536 38.4579 13.5779 37.1028 17.0359 37.1028C20.4938 37.1028 23.7181 38.4579 26.148 40.8878C28.5779 43.3177 29.9331 46.542 29.9331 50C29.9331 53.4579 28.5779 56.6822 26.148 59.1121C23.7181 61.5421 20.4938 62.8972 17.0359 62.8972ZM17.0359 62.5234C20.3536 62.5234 23.5312 61.2149 25.8677 58.8785C28.2508 56.4953 29.5125 53.3645 29.5125 50.0467C29.5125 46.729 28.2041 43.5514 25.8677 41.2149C23.4845 38.8318 20.3536 37.5701 17.0359 37.5701C13.7181 37.5701 10.5405 38.8785 8.2041 41.2149C5.82092 43.5047 4.51251 46.6822 4.51251 50C4.51251 53.3177 5.82092 56.4953 8.15737 58.8318C10.5405 61.2149 13.7181 62.5234 17.0359 62.5234Z" fill="url(#paint3_linear_414_698)"/>
<path d="M28.3914 56.0748C28.1577 55.8879 19.139 48.7384 19.139 48.7384L17.0362 36.729C16.896 36.7757 16.7091 36.9159 16.6156 37.1028L15.1203 48.7851L5.82124 55.9346C5.82124 55.9346 5.63433 56.1683 5.54087 56.3085C5.49414 56.4019 5.49414 56.5421 5.49414 56.6823L16.9895 51.9627L28.4848 56.6823C28.5783 56.4486 28.4848 56.215 28.3914 56.0748Z" fill="white"/>
<path d="M17.1296 50.3738L17.0361 52.5234L27.5969 56.7757C27.9707 56.9626 28.2511 56.8692 28.5315 56.6822L17.2698 50.3271C17.223 50.2804 17.1296 50.3271 17.1296 50.3738Z" fill="#565F64"/>
<path d="M17.1299 50.3738C17.1299 50.3738 17.7374 51.4486 18.4383 52.1963C19.4196 53.271 20.728 54.0187 20.728 54.0187L27.5972 56.7757C27.971 56.9626 28.2514 56.8692 28.5318 56.6822L17.2701 50.3271C17.2233 50.2804 17.1299 50.3271 17.1299 50.3738Z" fill="url(#paint4_linear_414_698)"/>
<path d="M28.4851 56.2617C28.4851 56.2149 28.4383 56.1682 28.3916 56.0748L18.7654 49.0187L17.457 49.8598C17.457 49.8598 17.5505 49.9065 17.5972 49.8598C17.7374 49.8131 18.0178 49.7663 18.2982 49.8598C18.5318 49.9533 28.4851 56.3084 28.4851 56.3084V56.2617Z" fill="#A4AAAE" fill-opacity="0.6"/>
<path d="M28.1582 55.8412L19.1862 48.7384L18.7656 49.0188L28.3918 56.1216C28.3451 56.0281 28.2516 55.9347 28.1582 55.8412Z" fill="#333E46"/>
<path d="M17.2696 49.673L17.2229 49.7197C17.2229 49.7197 17.2229 49.8131 17.3164 49.7664C17.3631 49.7197 18.7182 49.0188 19.1855 48.7384L17.55 37.5234C17.5033 37.1029 17.3164 36.9159 16.9893 36.7758L17.1762 49.7664L17.2696 49.673Z" fill="#565F64"/>
<path d="M16.4753 37.5234V38.1309L15.4473 48.458C15.4473 48.5982 15.494 48.7384 15.6342 48.8318L16.2417 49.2991L16.6622 37.8973L16.7089 37.0094C16.5688 37.1029 16.522 37.2898 16.4753 37.5234Z" fill="#A4AAAE" fill-opacity="0.6"/>
<path d="M15.9149 49.486L15.3541 49.0187L5.86812 55.8878C5.86812 55.8878 5.58774 56.0748 5.54102 56.2617L5.86812 56.0748L15.8214 49.8131C16.0083 49.7196 16.055 49.6262 15.9149 49.486Z" fill="#A4AAAE" fill-opacity="0.6"/>
<path d="M16.896 50.3738C16.896 50.3271 16.8493 50.2804 16.8026 50.3271L5.49414 56.729C5.77452 56.9159 6.05489 56.9626 6.42872 56.8224L16.9895 52.5701L16.896 50.3738Z" fill="#565F64"/>
<path d="M17.2236 49.7196C17.2236 49.7196 17.2236 49.7663 17.2704 49.7663H17.3171C17.3638 49.7196 18.719 49.0187 19.1863 48.7383L18.9993 47.3832L17.5507 37.5233C17.5507 37.3364 17.504 37.1962 17.4105 37.1028C17.4105 37.1028 18.1115 46.542 18.1115 47.5701C18.1115 48.9252 17.2236 49.7196 17.2236 49.7196Z" fill="url(#paint5_linear_414_698)"/>
<path d="M16.896 50.3738C16.896 50.3271 16.8493 50.2804 16.8026 50.3271L5.49414 56.729C5.77452 56.9159 6.05489 56.9626 6.42872 56.8224L16.9895 52.5701L16.896 50.3738Z" fill="url(#paint6_linear_414_698)"/>
<path d="M6.42906 56.7757L16.9898 52.5234L16.8964 50.4673C16.7094 51.028 16.3823 51.6355 15.4945 52.1028C14.8403 52.4766 8.57859 55.5607 6.3356 56.6355C6.19541 56.729 6.0085 56.7757 5.91504 56.8224C6.10196 56.9159 6.24214 56.8692 6.42906 56.7757Z" fill="url(#paint7_linear_414_698)"/>
<path d="M17.2696 49.673L17.2229 49.7197C17.2229 49.7197 17.2229 49.8131 17.3164 49.7664C17.3631 49.7197 18.7182 49.0188 19.1855 48.7384L17.55 37.5234C17.5033 37.1029 17.3164 36.9159 16.9893 36.7758L17.1762 49.7664L17.2696 49.673Z" fill="url(#paint8_linear_414_698)"/>
<path d="M17.2696 49.673L17.2229 49.7197C17.2229 49.7197 17.2229 49.8131 17.3164 49.7664C17.3631 49.7197 18.7182 49.0188 19.1855 48.7384L17.55 37.5234C17.5033 37.1029 17.3164 36.9159 16.9893 36.7758L17.1762 49.7664L17.2696 49.673Z" fill="url(#paint9_linear_414_698)"/>
<path d="M4.46623 55.7945C4.13913 55.0468 2.26997 51.4019 4.32605 44.3926H3.53165C3.11109 45.7944 2.78399 46.6356 2.59707 47.8973C2.59707 47.8973 2.50361 48.3645 2.45689 48.8786C2.41016 49.3926 2.41016 49.673 2.41016 50.0001C2.41016 52.8038 3.11109 54.4393 3.11109 54.4393C3.85876 56.7758 5.16717 58.8786 6.94287 60.4674C8.48493 61.8225 10.8681 62.8505 12.8307 63.2244C12.5036 63.1776 6.89614 60.7945 4.46623 55.7945Z" fill="url(#paint10_linear_414_698)"/>
<path d="M17.2233 50.2805H16.8027C16.8495 50.2805 16.8962 50.2805 16.8962 50.3272L16.9897 52.4767H17.0364L17.1298 50.3272C17.1298 50.2805 17.1766 50.2337 17.2233 50.2805Z" fill="url(#paint11_linear_414_698)"/>
<path d="M21.709 36.1215C26.6156 37.9906 31.2418 43.1308 31.2418 49.6261C31.2418 57.4766 24.9801 63.8785 17.0361 63.8785V64.6262C24.9801 64.6262 31.6623 58.0841 31.6623 50C31.6623 43.5514 27.5502 38.1308 21.709 36.1215Z" fill="url(#paint12_linear_414_698)"/>
<path d="M29.56 44.486C26.289 36.9626 18.9058 36.5421 18.4852 36.4954H18.4385C24.0927 37.5234 27.6908 41.215 28.9525 45.0935V45.1402C29.5133 46.6356 29.7936 48.2243 29.8404 49.9533C29.8871 51.5888 29.5132 53.4113 28.8123 55.0935C28.7656 55.3271 28.7189 55.6075 28.6721 55.6075H29.4198C31.6628 51.4019 30.6815 47.1496 29.56 44.486Z" fill="url(#paint13_linear_414_698)"/>
<path d="M3.11133 50.0468C3.11133 42.3832 9.32629 36.0748 17.0366 36.0748C24.7469 36.0748 30.9618 42.3365 30.9618 50.0468C30.9618 57.7104 24.7469 63.9253 17.0366 63.9253C9.32629 63.9253 3.11133 57.7104 3.11133 50.0468ZM7.45713 40.4206C4.98049 42.8973 3.43843 46.3085 3.43843 50.0468C3.43843 53.7851 4.98049 57.1963 7.4104 59.6262C9.88703 62.0562 13.2983 63.5982 17.0366 63.5982C20.7749 63.5982 24.1861 62.1029 26.616 59.6262C29.0927 57.1963 30.588 53.7851 30.588 50.0468C30.588 46.3085 29.0459 42.8973 26.616 40.4206C24.1861 37.944 20.7749 36.4019 17.0366 36.4019C13.2983 36.4019 9.88703 37.944 7.45713 40.4206Z" fill="#FBFBFB"/>
<path d="M5.77441 55.9813L15.3071 49.1121C15.8211 49.3925 16.6623 49.7663 16.7557 49.7663C16.8492 49.8131 16.8492 49.7196 16.8492 49.7196L15.681 48.7383C15.5408 48.6448 15.494 48.5047 15.494 48.3645L16.6155 37.1028C16.5688 37.1495 16.5688 37.243 16.5221 37.2897C16.4754 37.3832 16.4754 37.4299 16.4754 37.5233L14.8398 48.785L5.86787 55.8411C5.82114 55.8878 5.77441 55.9346 5.77441 55.9813Z" fill="#333F47"/>
<path fill-rule="evenodd" clip-rule="evenodd" d="M87.9453 45.859H97.5216C97.6774 45.859 97.8063 45.73 97.8063 45.5742V43.1835C97.8063 43.0277 97.6774 42.8988 97.5216 42.8988H92.8154C92.6596 42.8988 92.5307 43.0277 92.5307 43.1835V43.616C92.5307 43.7718 92.6596 43.9007 92.8154 43.9007H95.9072C95.9582 43.9007 96.0012 43.9437 96.0012 43.9947V44.4568C96.0012 44.5078 95.9582 44.5508 95.9072 44.5508H89.7531C89.5973 44.5508 89.4684 44.4218 89.4684 44.266V42.4932C89.4684 42.3374 89.5973 42.2084 89.7531 42.2084H97.5243C97.6801 42.2084 97.809 42.0795 97.809 41.9237V41.2736C97.809 41.1178 97.6801 40.9889 97.5243 40.9889H87.948C87.7922 40.9889 87.6633 41.1178 87.6633 41.2736V45.5715C87.6606 45.73 87.7895 45.859 87.9453 45.859ZM85.2645 45.859H86.5001C86.6559 45.859 86.7849 45.73 86.7849 45.5742V41.2763C86.7849 41.1205 86.6559 40.9916 86.5001 40.9916H85.1114C85.055 40.9916 85.0039 41.005 84.9556 41.0372L81.5683 43.248C81.4716 43.3098 81.3534 43.3098 81.2567 43.248L77.8694 41.0372C77.8211 41.005 77.7727 40.9916 77.7136 40.9916H76.3249C76.1691 40.9916 76.0401 41.1205 76.0401 41.2763V45.5742C76.0401 45.73 76.1691 45.859 76.3249 45.859H77.5605C77.7163 45.859 77.8452 45.73 77.8452 45.5742V42.9847C77.8452 42.9364 77.8694 42.8934 77.9124 42.8692C77.9554 42.8451 78.0064 42.8477 78.0467 42.8719L80.6684 44.5159C80.7168 44.5454 80.7625 44.5588 80.8189 44.5588H81.9954C82.0518 44.5588 82.1002 44.5454 82.1458 44.5159L84.7676 42.8719C84.8105 42.845 84.8589 42.845 84.9019 42.8692C84.9449 42.8934 84.9717 42.9364 84.9717 42.9847V45.5742C84.9798 45.73 85.1087 45.859 85.2645 45.859ZM74.8824 45.859H73.6467C73.4909 45.859 73.362 45.73 73.362 45.5742V44.8167C73.362 44.7657 73.319 44.7227 73.268 44.7227H66.7701C66.6787 44.7227 66.6008 44.7603 66.5444 44.8328L65.8648 45.7112C65.7896 45.8079 65.6848 45.859 65.564 45.859H63.8663C63.8153 45.859 63.7696 45.8321 63.7481 45.7837C63.7239 45.7381 63.7293 45.6844 63.7615 45.6441L67.2724 41.1017C67.3288 41.0292 67.4067 40.9916 67.498 40.9916H74.8824C75.0382 40.9916 75.1671 41.1205 75.1671 41.2763V45.5742C75.1671 45.73 75.0409 45.859 74.8824 45.859ZM73.362 43.3742V42.3078C73.362 42.2568 73.319 42.2138 73.268 42.2138H68.6638C68.602 42.2138 68.551 42.2407 68.5134 42.2863L67.6941 43.3474C67.6753 43.3715 67.6726 43.4011 67.6861 43.428C67.6995 43.4548 67.7237 43.4709 67.7532 43.4709H73.268C73.319 43.4682 73.362 43.4253 73.362 43.3742ZM52.0363 45.859H47.9613C47.9103 45.859 47.8646 45.8321 47.8432 45.7837C47.819 45.7381 47.8243 45.6844 47.8566 45.6441L51.3674 41.1017C51.4238 41.0292 51.5017 40.9916 51.5931 40.9916H55.6277C55.6868 40.9916 55.7379 41.0238 55.7647 41.0775C55.7916 41.1313 55.7835 41.1904 55.7486 41.2387L52.2619 45.7488C52.2055 45.8214 52.1276 45.859 52.0363 45.859ZM54.9992 45.859H53.0705C53.0194 45.859 52.9738 45.8321 52.9523 45.7837C52.9281 45.7381 52.9335 45.6844 52.9657 45.6441L56.4766 41.1017C56.533 41.0292 56.6109 40.9916 56.7022 40.9916H58.5933C58.6524 40.9916 58.7034 41.0238 58.7303 41.0775C58.7571 41.1313 58.7491 41.1904 58.7142 41.2387L55.2275 45.7488C55.1684 45.8214 55.0905 45.859 54.9992 45.859ZM57.6558 45.859H56.165C56.1139 45.859 56.0683 45.8321 56.0468 45.7837C56.0226 45.7381 56.028 45.6844 56.0602 45.6441L59.5711 41.1017C59.6275 41.0292 59.7054 40.9916 59.7967 40.9916H61.2472C61.3063 40.9916 61.3574 41.0238 61.3842 41.0775C61.4111 41.1313 61.4057 41.1904 61.3681 41.2387L57.8815 45.7488C57.825 45.8214 57.7471 45.859 57.6558 45.859ZM60.0546 45.859H59.015C58.964 45.859 58.9183 45.8321 58.8968 45.7837C58.8727 45.7381 58.878 45.6844 58.9103 45.6441L62.4211 41.1017C62.4775 41.0292 62.5554 40.9916 62.6468 40.9916H63.6487C63.7078 40.9916 63.7588 41.0238 63.7857 41.0775C63.8126 41.1313 63.8045 41.1904 63.7696 41.2387L60.2829 45.7488C60.2238 45.8214 60.1459 45.859 60.0546 45.859ZM62.354 45.859H61.5884C61.5374 45.859 61.4917 45.8321 61.4702 45.7837C61.446 45.7381 61.4514 45.6844 61.4836 45.6441L64.9945 41.1017C65.0509 41.0292 65.1288 40.9916 65.2201 40.9916H65.9454C66.0045 40.9916 66.0555 41.0238 66.0824 41.0775C66.1092 41.1313 66.1012 41.1904 66.0663 41.2387L62.5796 45.7488C62.5232 45.8214 62.4453 45.859 62.354 45.859Z" fill="white"/>
<path d="M44.6063 48.5452C44.3296 48.3733 43.787 48.2927 42.9489 48.2927H39.3037V53.195H40.08V51.3147H42.9489C43.7897 51.3147 44.3323 51.2341 44.6063 51.0649C44.8883 50.893 45.0307 50.5733 45.0307 50.1193V49.4935C45.0334 49.0395 44.891 48.7198 44.6063 48.5452ZM44.2114 49.6788V49.9071C44.2114 50.2107 44.1442 50.4094 44.0153 50.4954C43.8756 50.5894 43.5801 50.6378 43.1342 50.6378H40.0827V48.9482H43.1342C43.5801 48.9482 43.8783 48.9965 44.0153 49.0905C44.1442 49.1792 44.2114 49.3779 44.2114 49.6788Z" fill="#00A19B"/>
<path d="M47.4055 48.9616H51.8457V48.2927H46.6426V53.195H51.8457V52.5262H47.4055V50.987H51.6604V50.3181H47.4055L47.4055 48.9616Z" fill="#00A19B"/>
<path d="M52.9688 48.9616H55.5179V53.195H56.2943V48.9616H58.8408V48.2927H52.9688L52.9688 48.9616Z" fill="#00A19B"/>
<path d="M65.6898 48.5425C65.4104 48.3733 64.8678 48.29 64.027 48.29H60.2852V53.1923H61.0615V51.3228H64.113C64.7604 51.3228 65.0048 51.406 65.0961 51.4786C65.2251 51.5779 65.2895 51.774 65.2895 52.0615V53.1923H66.0659V51.9433C66.0659 51.6505 65.988 51.4141 65.8322 51.2449C65.7355 51.1401 65.6092 51.0595 65.4561 51.0085C65.6549 50.944 65.8026 50.8607 65.902 50.7587C66.0471 50.6082 66.1196 50.3745 66.1196 50.0629V49.4935C66.1223 49.0368 65.9772 48.7171 65.6898 48.5425ZM65.311 49.6788V49.9071C65.311 50.2026 65.2439 50.4014 65.1149 50.4927C64.9752 50.5894 64.6798 50.6378 64.2365 50.6378H61.0642V48.9482H64.2365C64.6798 48.9482 64.9752 48.9965 65.1149 49.0959C65.2439 49.1899 65.311 49.386 65.311 49.6788Z" fill="#00A19B"/>
<path d="M73.854 48.5802C73.6821 48.4539 73.4564 48.3653 73.1771 48.3115C72.9058 48.2605 72.4921 48.2336 71.9495 48.2336H70.2303C69.6877 48.2336 69.274 48.2605 69.0027 48.3115C68.7261 48.3653 68.4977 48.4539 68.3258 48.5802C68.1324 48.7225 67.9927 48.9186 67.9068 49.1658C67.8235 49.4075 67.7832 49.7325 67.7832 50.1355V51.4356C67.7832 51.8036 67.8262 52.1071 67.9095 52.3355C67.9954 52.5692 68.1378 52.7599 68.3339 52.9049C68.5085 53.0312 68.7341 53.1225 69.0054 53.1736C69.2714 53.2246 69.6877 53.2488 70.2384 53.2488H71.9495C72.5055 53.2488 72.9219 53.2219 73.1878 53.1736C73.4591 53.1225 73.6821 53.0312 73.854 52.9049C74.042 52.7679 74.1817 52.5745 74.2677 52.3328C74.3536 52.0964 74.3966 51.7848 74.3966 51.406V50.0791C74.3966 49.703 74.3536 49.3941 74.2677 49.155C74.1817 48.9106 74.042 48.7172 73.854 48.5802ZM72.253 52.5638H69.9268C69.6017 52.5638 69.3519 52.5369 69.1773 52.4859C69.0108 52.4375 68.8818 52.3543 68.7905 52.2414C68.7234 52.1609 68.675 52.0615 68.6481 51.9513C68.6186 51.8331 68.6052 51.6317 68.6052 51.355V50.1032C68.6052 49.8266 68.6186 49.6251 68.6481 49.5069C68.675 49.3941 68.7234 49.2974 68.7905 49.2168C68.8818 49.104 69.0135 49.0234 69.1773 48.975C69.3492 48.924 69.6017 48.8971 69.9268 48.8971H72.253C72.5781 48.8971 72.8279 48.924 72.9998 48.975C73.1636 49.0234 73.2953 49.1067 73.3866 49.2168C73.4484 49.2947 73.494 49.3887 73.5209 49.4935C73.5505 49.6063 73.5639 49.7863 73.5639 50.0307V51.4302C73.5639 51.672 73.5505 51.8519 73.5209 51.9648C73.494 52.0722 73.4484 52.1662 73.3866 52.2441C73.2953 52.3569 73.1636 52.4375 72.9998 52.4886C72.8279 52.5369 72.5781 52.5638 72.253 52.5638Z" fill="#00A19B"/>
<path d="M82.6104 48.2927H81.8368V52.4268L77.281 48.2927H76.1797V53.195H76.9587V48.9965L81.5816 53.195H82.6104L82.6104 48.2927Z" fill="#00A19B"/>
<path d="M86.8894 48.2927L83.8164 53.195H84.7082L85.3637 52.1447H89.3795L90.0538 53.195H90.8945L87.8135 48.2927H86.8894ZM85.7639 51.5054L87.3595 48.9643L88.982 51.5054H85.7639Z" fill="#00A19B"/>
<path d="M97.8007 50.9789C97.7201 50.7936 97.5831 50.6458 97.3924 50.5438C97.2635 50.4712 97.0916 50.4202 96.8794 50.388C96.6725 50.3584 96.3636 50.3423 95.958 50.3423H94.1099C93.5538 50.3423 93.1885 50.2886 93.0193 50.1811C92.8581 50.0791 92.7802 49.891 92.7802 49.6063C92.7802 49.3269 92.8608 49.1416 93.0247 49.0422C93.1993 48.9374 93.5511 48.8837 94.0696 48.8837H95.8237C96.3314 48.8837 96.6671 48.9347 96.8176 49.0368C96.9599 49.1335 97.0298 49.3269 97.0298 49.6143V49.7567H97.7819V49.5499C97.7819 49.3108 97.7524 49.1093 97.6933 48.9509C97.6342 48.787 97.5375 48.6527 97.4085 48.5506C97.2554 48.4324 97.0432 48.3491 96.7773 48.3035C96.5194 48.2578 96.0627 48.2363 95.4234 48.2363H94.2549C93.39 48.2363 92.8098 48.3357 92.4794 48.5426C92.1436 48.7521 91.9717 49.1201 91.9717 49.6331C91.9717 50.1355 92.1221 50.4954 92.4176 50.7049C92.7104 50.9118 93.1966 51.0138 93.903 51.0138H96.0762C96.5167 51.0138 96.8095 51.0649 96.9438 51.167C97.0728 51.2637 97.1372 51.4544 97.1372 51.7311C97.1372 52.0695 97.0432 52.2898 96.8525 52.4053C96.651 52.5262 96.2051 52.588 95.5228 52.588H94.1797C93.6129 52.588 93.2261 52.5315 93.0247 52.4214C92.834 52.3167 92.7426 52.1313 92.7426 51.8573C92.7426 51.8251 92.7453 51.7633 92.7507 51.672L92.7641 51.5054H92.0147L92.0039 51.5618C92.0012 51.5779 91.9985 51.5994 91.9985 51.6263C91.9905 51.7714 91.9878 51.8734 91.9878 51.9325C91.9878 52.4026 92.1463 52.7464 92.4606 52.9506C92.7695 53.1521 93.2637 53.2514 93.9756 53.2514H95.7216C96.5436 53.2514 97.1023 53.144 97.4247 52.9264C97.7497 52.7035 97.9162 52.314 97.9162 51.7633C97.9189 51.4248 97.8786 51.1616 97.8007 50.9789Z" fill="#00A19B"/>
<path d="M49.4492 57.2538V57.5197H47.9959V59.2308H47.6924V55.6663H49.5566V55.9322H47.9959V57.2511H49.4492V57.2538Z" fill="white"/>
<path d="M53.2102 57.4445C53.2102 58.5298 52.6326 59.2873 51.816 59.2873C50.9779 59.2873 50.4111 58.5324 50.4111 57.423C50.4111 56.3647 50.9994 55.6072 51.8106 55.6072C52.6326 55.6072 53.2102 56.3674 53.2102 57.4445ZM50.7389 57.4284C50.7389 58.3632 51.1767 59.016 51.808 59.016C52.4338 59.016 52.8771 58.3632 52.8771 57.4445C52.8771 56.5312 52.4338 55.8785 51.808 55.8785C51.1901 55.8785 50.7389 56.5312 50.7389 57.4284Z" fill="white"/>
<path d="M54.8698 55.6663C55.4204 55.6663 55.5816 55.6824 55.8153 55.763C56.1833 55.8812 56.4143 56.2169 56.4143 56.644C56.4143 57.1141 56.1591 57.4338 55.6461 57.6057L56.6238 59.2308H56.2505L55.2942 57.6487H54.6307V59.2308H54.3271V55.6663H54.8698ZM54.8805 57.3801C55.3506 57.3801 55.4688 57.3693 55.6488 57.3048C55.9254 57.2081 56.0812 56.9691 56.0812 56.636C56.0812 56.3324 55.9415 56.1068 55.7078 56.0101C55.5359 55.9456 55.3936 55.9295 54.8859 55.9295H54.6307V57.3774H54.8805L54.8805 57.3801Z" fill="white"/>
<path d="M58.1119 55.6663L59.1864 58.8897L60.2609 55.6663H60.7525V59.2308H60.4489V55.9456L59.3422 59.2308H59.0387L57.9266 55.9456V59.2308H57.623V55.6663H58.1119Z" fill="white"/>
<path d="M62.2894 55.6663V57.783C62.2948 58.425 62.3055 58.5217 62.4237 58.6855C62.5634 58.8951 62.8508 59.0159 63.1919 59.0159C63.5761 59.0159 63.8823 58.8655 64.0085 58.6157C64.0891 58.4599 64.0945 58.3713 64.0999 57.783V55.6663H64.4034V57.7884C64.4034 58.3713 64.3981 58.4411 64.3336 58.6211C64.1832 59.0428 63.7614 59.2899 63.1893 59.2899C62.6762 59.2899 62.2867 59.0912 62.104 58.7446C62.0127 58.5673 61.9805 58.3927 61.9805 58.0489V55.6663L62.2894 55.6663Z" fill="white"/>
<path d="M65.9481 55.6663V58.9622H67.4658V59.2281H65.6338V55.6636H65.9481V55.6663Z" fill="white"/>
<path d="M69.7296 55.6394L70.9653 59.2308H70.6456L70.2991 58.2208H68.9318L68.5799 59.2308H68.2656L69.5013 55.6394H69.7296ZM69.6114 56.0719L69.0124 57.9522H70.2051L69.6114 56.0719Z" fill="white"/>
<path d="M76.2248 57.4445C76.2248 58.5298 75.6473 59.2873 74.8307 59.2873C73.9926 59.2873 73.4258 58.5324 73.4258 57.423C73.4258 56.3647 74.0141 55.6072 74.8253 55.6072C75.6473 55.6072 76.2248 56.3674 76.2248 57.4445ZM73.7562 57.4284C73.7562 58.3632 74.194 59.016 74.8253 59.016C75.4512 59.016 75.8944 58.3632 75.8944 57.4445C75.8944 56.5312 75.4512 55.8785 74.8253 55.8785C74.2048 55.8785 73.7562 56.5312 73.7562 57.4284Z" fill="white"/>
<path d="M77.6756 55.6663L79.47 58.7876V55.6663H79.752V59.2308H79.4002L77.6273 56.1202V59.2308H77.3398V55.6663H77.6756Z" fill="white"/>
<path d="M82.7929 57.2538V57.5197H81.3397V58.9622H82.9218V59.2282H81.0361V55.6636H82.9004V55.9295H81.3397V57.2484H82.7929L82.7929 57.2538Z" fill="white"/>
<path d="M87.4881 55.6663V55.9322H86.5694V59.2282H86.2659V55.9322H85.3418V55.6663H87.4881Z" fill="white"/>
<path d="M90.1904 57.2538V57.5197H88.7371V58.9622H90.3193V59.2282H88.4336V55.6636H90.2978V55.9295H88.7371V57.2484H90.1904L90.1904 57.2538Z" fill="white"/>
<path d="M92.5245 55.6394L93.7602 59.2308H93.4405L93.094 58.2208H91.7267L91.3748 59.2308H91.0605L92.2962 55.6394H92.5245ZM92.4063 56.0719L91.8073 57.9522H93L92.4063 56.0719Z" fill="white"/>
<path d="M95.195 55.6663L96.2694 58.8897L97.3439 55.6663H97.8355V59.2308H97.5319V55.9456L96.4252 59.2308H96.1217L95.0096 55.9456V59.2308H94.7061V55.6663H95.195Z" fill="white"/>
</g>
<defs>
<linearGradient id="paint0_linear_414_698" x1="5.81978" y1="40.6062" x2="28.2516" y2="59.3928" gradientUnits="userSpaceOnUse">
<stop stop-color="white"/>
<stop offset="0.1" stop-color="#CDD0D0"/>
<stop offset="0.2" stop-color="#A5ACAF"/>
<stop offset="0.3" stop-color="#98A0A4"/>
<stop offset="0.4" stop-color="#828A8F"/>
<stop offset="0.5" stop-color="#667075"/>
<stop offset="0.6" stop-color="#535C63"/>
<stop offset="0.7" stop-color="#475158"/>
<stop offset="0.8" stop-color="#434D54"/>
<stop offset="1" stop-color="#475157"/>
</linearGradient>
<linearGradient id="paint1_linear_414_698" x1="6.50908" y1="41.1491" x2="27.5371" y2="58.8126" gradientUnits="userSpaceOnUse">
<stop stop-color="#0B1F2A"/>
<stop offset="0.2" stop-color="#333F47"/>
<stop offset="0.5" stop-color="#81898D"/>
<stop offset="0.7" stop-color="#B3B8B8"/>
<stop offset="0.8" stop-color="#DEE0DD"/>
<stop offset="1" stop-color="#FBFBFB"/>
</linearGradient>
<linearGradient id="paint2_linear_414_698" x1="22.1468" y1="64.0491" x2="11.9132" y2="35.9183" gradientUnits="userSpaceOnUse">
<stop stop-color="#E1E3E1" stop-opacity="0.4"/>
<stop offset="0.1" stop-color="#C1C5C4" stop-opacity="0.4"/>
<stop offset="0.3" stop-color="#9BA1A2" stop-opacity="0.4"/>
<stop offset="0.5" stop-color="#7D8487" stop-opacity="0.4"/>
<stop offset="0.7" stop-color="#687074" stop-opacity="0"/>
<stop offset="0.8" stop-color="#5B6469" stop-opacity="0"/>
<stop offset="1" stop-color="#576065" stop-opacity="0"/>
</linearGradient>
<linearGradient id="paint3_linear_414_698" x1="10.5874" y1="38.8323" x2="23.4839" y2="61.1676" gradientUnits="userSpaceOnUse">
<stop stop-color="#E1E3E1" stop-opacity="0.4"/>
<stop offset="0.1" stop-color="#C1C5C4" stop-opacity="0.4"/>
<stop offset="0.3" stop-color="#9BA1A2" stop-opacity="0.4"/>
<stop offset="0.5" stop-color="#7D8487" stop-opacity="0.4"/>
<stop offset="0.7" stop-color="#687074" stop-opacity="0"/>
<stop offset="0.8" stop-color="#5B6469" stop-opacity="0"/>
<stop offset="1" stop-color="#576065" stop-opacity="0"/>
</linearGradient>
<linearGradient id="paint4_linear_414_698" x1="22.8719" y1="53.4545" x2="22.0775" y2="54.7629" gradientUnits="userSpaceOnUse">
<stop stop-color="#27343C"/>
<stop offset="1" stop-color="#00111E" stop-opacity="0"/>
</linearGradient>
<linearGradient id="paint5_linear_414_698" x1="20.5788" y1="48.6506" x2="19.2704" y2="46.5478" gradientUnits="userSpaceOnUse">
<stop stop-color="#02131F"/>
<stop offset="0.1" stop-color="#02131F"/>
<stop offset="0.9" stop-color="#02131F" stop-opacity="0"/>
<stop offset="1" stop-color="#02131F" stop-opacity="0"/>
</linearGradient>
<linearGradient id="paint6_linear_414_698" x1="17.0278" y1="52.0265" x2="15.0652" y2="52.5873" gradientUnits="userSpaceOnUse">
<stop stop-color="#02131F" stop-opacity="0.8"/>
<stop offset="0.2" stop-color="#02131F" stop-opacity="0.8"/>
<stop offset="0.9" stop-color="#02131F" stop-opacity="0"/>
<stop offset="1" stop-color="#02131F" stop-opacity="0"/>
</linearGradient>
<linearGradient id="paint7_linear_414_698" x1="11.7988" y1="54.6278" x2="11.5185" y2="53.9269" gradientUnits="userSpaceOnUse">
<stop stop-color="#02131F" stop-opacity="0.8"/>
<stop offset="0.1" stop-color="#02131F" stop-opacity="0.8"/>
<stop offset="1" stop-color="#02131F" stop-opacity="0"/>
</linearGradient>
<linearGradient id="paint8_linear_414_698" x1="18.719" y1="43.0908" x2="17.1303" y2="43.2777" gradientUnits="userSpaceOnUse">
<stop stop-color="#02131F"/>
<stop offset="0.3" stop-color="#02131F"/>
<stop offset="0.8" stop-color="#02131F" stop-opacity="0"/>
<stop offset="1" stop-color="#02131F" stop-opacity="0"/>
</linearGradient>
<linearGradient id="paint9_linear_414_698" x1="18.7684" y1="43.064" x2="17.6937" y2="43.2042" gradientUnits="userSpaceOnUse">
<stop stop-color="#27343C"/>
<stop offset="0.4" stop-color="#27343C"/>
<stop offset="1" stop-color="#3B474E" stop-opacity="0"/>
</linearGradient>
<linearGradient id="paint10_linear_414_698" x1="1.91473" y1="50.3891" x2="14.9522" y2="57.9125" gradientUnits="userSpaceOnUse">
<stop stop-color="#25323B" stop-opacity="0"/>
<stop offset="0.1" stop-color="#27343C"/>
<stop offset="1" stop-color="#27343C"/>
</linearGradient>
<linearGradient id="paint11_linear_414_698" x1="17.013" y1="52.5235" x2="17.013" y2="50.2805" gradientUnits="userSpaceOnUse">
<stop stop-color="#A5ABAF"/>
<stop offset="0.3" stop-color="#A5ABAF"/>
<stop offset="1" stop-color="#A5ABAF" stop-opacity="0"/>
</linearGradient>
<linearGradient id="paint12_linear_414_698" x1="24.3496" y1="36.1216" x2="24.3496" y2="64.6262" gradientUnits="userSpaceOnUse">
<stop stop-color="#6B7378"/>
<stop offset="0.2" stop-color="#333F47"/>
<stop offset="0.5" stop-color="#27343C"/>
<stop offset="0.8" stop-color="#333F47"/>
<stop offset="1" stop-color="#434D54"/>
</linearGradient>
<linearGradient id="paint13_linear_414_698" x1="28.854" y1="38.8286" x2="22.5456" y2="48.0809" gradientUnits="userSpaceOnUse">
<stop stop-color="#27343C"/>
<stop offset="0.7" stop-color="#49545B"/>
<stop offset="0.8" stop-color="white" stop-opacity="0"/>
<stop offset="1" stop-color="white" stop-opacity="0"/>
</linearGradient>
<clipPath id="clip0_414_698">
<rect width="100" height="100" fill="white"/>
</clipPath>
</defs>
</svg>
