<svg width="100" height="100" viewBox="0 0 100 100" fill="none" xmlns="http://www.w3.org/2000/svg">
<g clip-path="url(#clip0_414_697)">
<path d="M20.551 52.4731C20.3348 52.6082 20.1185 52.7163 19.9023 52.8515V47.0403C20.3618 46.5808 20.7672 46.0943 21.1456 45.6078C23.0647 43.04 22.8484 39.0398 20.7132 36.6883C20.4699 36.418 20.1996 36.1747 19.9023 35.9315V5.0105H38.8495C47.4717 5.0105 54.4721 11.8758 54.4721 20.3358C54.4721 27.5525 49.4178 33.58 42.5795 35.2287L46.3905 40.6345C46.3095 40.7156 46.2284 40.7696 46.1743 40.8507C42.9579 40.8777 40.4172 41.7967 37.9846 43.7698L37.9035 43.8239L37.8494 43.8779C37.5251 44.1752 37.2278 44.4455 36.9034 44.7158L33.7951 39.9047V27.4985H36.3628C40.4442 27.4985 43.7417 24.4712 43.7417 20.7142C43.7417 16.9572 40.6604 13.93 36.5791 13.93H30.9571V46.9051C30.4706 46.9862 30.0111 47.0673 29.2543 47.2565C26.6595 47.8512 24.308 49.6891 22.416 51.1487C21.3889 51.9595 21.0916 52.1487 21.0105 52.2028C20.8483 52.2839 20.6861 52.392 20.551 52.4731ZM61.4186 32.5529L61.5267 32.4988L61.6618 32.4447C62.9862 31.8771 64.5269 31.5798 66.1216 31.5798C67.2838 31.5798 68.446 31.769 69.4461 32.0934V13.93H76.3655C79.3927 13.93 81.8523 16.714 81.8523 19.7412C81.8523 22.7684 79.3927 25.228 76.3655 25.228H72.7707V33.634C73.0409 33.8232 73.3383 34.0124 73.6896 34.2557L73.7978 34.3368L74.0681 34.553H79.3927C83.0686 34.553 85.8526 37.5262 85.8526 41.2021C85.7986 42.4724 85.5013 43.6076 84.9877 44.5807C86.5283 46.4457 88.4474 48.9323 89.5826 50.7703L89.6367 50.8514C90.1232 51.6893 90.5827 52.7974 90.88 53.7975C94.691 51.0676 97.1507 46.797 97.1507 42.0129C97.1507 36.0936 95.0694 31.9042 88.096 28.6607C90.934 26.0119 92.6639 22.4711 92.6639 18.579C92.6639 15.0382 91.3124 11.7947 88.9339 9.25403C86.4743 6.52412 82.0956 5.0105 76.1763 5.0105H58.3913V34.3908C58.6886 34.2016 59.013 34.0124 59.3373 33.7962C59.986 33.3908 60.6618 32.9313 61.4186 32.5529ZM55.4722 76.3125C55.7695 76.9612 56.0398 77.5558 56.3371 77.6369C56.4723 77.6639 56.6074 77.691 56.7696 77.691C57.4453 77.691 58.4183 77.3126 59.0941 76.772C59.4725 76.4476 59.3644 76.2314 59.1752 75.9341C59.1211 75.853 59.067 75.7449 58.986 75.6097C58.7967 75.2584 58.6886 74.88 58.6075 74.5556C58.4183 73.8799 58.2562 73.3123 57.5534 73.4204C56.5263 73.5556 55.5533 73.6366 54.4451 73.6366C54.4181 73.6366 54.0937 73.6366 53.9856 73.8799C53.8505 74.1502 54.1478 74.4205 54.4451 74.6908C54.6073 74.8529 54.7965 75.0151 54.9046 75.1773C55.0668 75.4746 55.283 75.9071 55.4722 76.3125ZM4.38776 78.5559C4.36073 78.5559 4.30668 78.5559 4.27965 78.5829C3.68502 78.8262 3.00929 79.583 2.98227 80.0425C2.84713 82.0156 2.76604 82.2318 2.25249 82.8265C2.09032 82.9886 2.00923 83.3941 2.17141 83.5562C2.33358 83.7184 4.25263 84.313 4.46886 84.313H4.52292C4.68509 84.259 4.84726 83.8265 5.22567 82.4481C5.4419 81.7183 5.68516 80.8804 5.95545 80.1236C5.98248 80.0695 5.98248 80.0155 5.79327 79.7452C5.57703 79.4208 4.82022 78.5559 4.38776 78.5559ZM97.9075 75.7719C97.8804 75.9611 97.7453 76.0963 97.529 76.1233C97.2858 76.1774 97.0425 76.2044 96.7722 76.2044C94.7991 76.2044 92.7179 74.6367 91.9071 73.1771C90.8259 71.204 89.934 70.0418 88.3392 69.4742C88.5014 69.7985 88.6906 70.0959 88.9068 70.3932C89.042 70.5553 89.1501 70.7445 89.2582 70.9067C89.7718 71.7716 90.5015 73.042 90.8799 74.3123C91.2313 75.5016 92.5017 76.3936 93.6639 77.1233L95.1235 77.9072C95.4208 78.0423 95.583 78.2585 95.5559 78.4477C95.5289 78.6099 95.4748 78.7451 95.2046 78.8262L94.9343 78.8532H94.637C92.0152 78.8532 89.9069 77.9612 88.2041 76.1233C87.6905 75.5557 87.177 75.2583 86.6635 75.2583C85.5012 76.2854 84.3119 77.3125 82.7173 77.4207C80.7442 77.0963 79.0954 77.2044 77.8521 77.745C77.6358 77.8261 77.4466 77.8801 77.2304 77.9612C76.0952 78.3667 74.933 78.7991 73.6356 78.8532C72.9328 78.8532 72.0409 78.5018 71.7976 77.7991C71.7165 77.5017 71.7436 77.2314 71.6355 76.8801C71.4733 76.2584 71.3381 75.6097 71.6895 75.0151L72.6626 73.5555C72.6626 73.4204 72.5544 73.3123 72.4193 73.2852C72.2841 73.2582 72.122 73.3393 71.9598 73.3934C71.7976 73.4474 71.6625 73.5285 71.5273 73.5285C71.0949 73.5015 71.1219 73.096 71.1219 73.096C71.176 71.9608 72.0949 71.0689 72.9599 70.2851C73.2031 70.0688 73.4464 69.8526 73.6626 69.6093C73.9059 68.366 74.3924 67.3389 75.1762 66.447C75.1492 66.3659 75.0951 66.2848 74.987 66.2307C74.6897 66.2848 74.3924 66.3388 74.0951 66.3929C73.1491 66.5821 72.176 66.7443 71.1489 66.7443C69.7975 67.447 67.9325 67.6632 67.4189 67.3119C67.4189 67.3119 67.2027 67.1497 67.1757 66.9605C67.1486 66.7713 67.2027 66.5551 67.2568 66.447C68.5812 64.609 69.0947 62.2845 68.7163 60.0682C68.6893 59.879 68.6082 59.8249 68.5001 59.8249C68.3379 59.8249 68.2839 60.0141 68.2568 60.1222C67.8514 62.4467 67.2027 64.1495 66.1486 65.7712C65.7972 66.3118 64.8242 66.528 63.8782 66.7172C63.4727 66.7983 63.1214 66.8524 62.7159 67.0146C62.4997 67.0956 62.2024 67.3119 62.2024 67.6362C62.1753 68.3119 62.5267 68.9066 62.8781 69.4472L62.9321 69.5012C63.0132 69.6634 65.2566 73.3393 65.3377 74.0961C65.4188 74.7448 65.1215 76.7449 64.8512 77.5828C64.7701 77.8802 64.9053 77.9072 64.9323 77.9072C64.9863 77.9072 65.0674 77.8802 65.1755 77.7991C65.554 77.5288 66.8784 75.5016 66.9865 74.88C67.0946 74.2583 66.9054 73.8529 66.7162 73.4474L64.0674 68.2039L64.0944 68.1498C64.2295 67.8795 64.5809 67.7173 65.0674 67.6903H65.1215C65.5539 67.6903 65.9324 67.8254 66.2837 67.9876C66.4459 68.0417 66.6351 68.1228 66.7973 68.1768H66.8513L66.8784 68.2309C67.473 69.8256 67.7433 70.4473 69.2028 72.7988C69.6893 73.5826 69.6893 74.5827 69.2028 75.5827C68.6623 76.7179 68.0136 77.7991 67.2838 78.8532C66.6892 79.4749 65.8783 79.5289 65.0945 79.583C64.9323 79.583 64.7431 79.61 64.5809 79.637H63.8241C61.5267 80.8533 59.1211 81.6642 56.6345 82.448C56.2831 82.5562 55.9317 82.6102 55.5533 82.6102C54.6884 82.6102 53.8775 82.3129 53.3099 81.8264C52.6883 81.3399 52.3098 80.6641 51.9585 80.0154C51.8233 79.7452 51.6612 79.4749 51.499 79.2316C51.3098 78.9884 50.9854 78.8802 50.5259 78.8802C50.3638 78.8802 50.2016 78.8802 50.0665 78.9073C49.9313 78.9073 49.7962 78.9343 49.661 78.9343C49.4448 78.9343 49.1475 78.9073 49.0123 78.691L48.7691 78.2856C48.2285 77.3666 47.6879 76.4747 47.1473 75.5287C47.0122 75.3125 47.0122 75.0422 47.0933 74.853C47.1744 74.6637 47.3365 74.5556 47.5528 74.5016C48.5799 74.2854 49.4718 74.0962 50.4178 74.0151C51.3909 73.934 52.1206 74.1772 52.6883 74.8259C53.1207 75.3124 53.4451 75.8801 53.7694 76.4206C54.364 77.4207 54.2559 77.718 55.2019 78.5829C55.229 78.61 55.7425 78.9884 56.3371 79.0424C57.2291 79.0965 58.7427 78.5019 59.6887 78.0424C60.2834 77.691 61.0942 77.0964 61.0942 76.2585C60.9861 74.4205 59.6076 73.0961 58.4724 72.2852C56.6885 71.3662 55.256 70.231 54.337 69.0688C53.9046 68.4742 53.6883 67.7444 53.4991 67.0687C53.4451 66.9065 53.4181 66.7443 53.364 66.5821C53.337 66.474 53.2288 66.447 53.1478 66.447C53.0667 66.447 52.9586 66.474 52.9045 66.5281C52.445 66.9335 52.7153 67.7714 52.9045 68.339C52.9315 68.4201 52.9586 68.5012 52.9856 68.5823L53.0126 68.6634C53.1477 69.0958 53.2288 69.4202 52.9585 69.6634C52.5531 69.9878 52.0125 70.1499 51.2557 70.1499C50.9314 70.1499 50.607 70.1229 50.2827 70.0959C50.0935 70.0689 49.9313 70.0689 49.7691 70.0689C48.8502 70.0148 47.9582 69.8526 47.1203 69.6634C46.1473 69.4742 45.1202 69.258 44.0661 69.258C43.8228 69.258 43.6066 69.258 43.3903 69.285C42.8498 69.3121 42.2281 69.4202 41.5794 69.5013C40.7415 69.6364 39.8496 69.7715 39.0657 69.7715C37.7413 69.7715 36.9034 69.3661 36.525 68.5282C35.6871 66.42 36.1196 63.9063 36.471 62.0683C36.471 61.8791 36.2277 61.798 36.1196 61.771C36.0655 61.744 36.0385 61.744 36.0115 61.744C35.9034 61.744 35.7953 61.798 35.7412 61.9332C35.4979 62.8251 35.3628 63.7711 35.2277 64.7171C35.0655 65.8794 34.8763 67.0957 34.4979 68.2309C33.9303 69.9607 32.4977 72.1501 30.5517 73.1231C29.0381 73.9069 27.3082 74.3124 24.9026 74.4745C21.6592 74.5286 17.6589 75.0151 15.3074 78.3667C15.1452 78.664 15.1182 78.7451 15.0642 78.9884C15.0371 79.0965 15.0371 79.2046 15.0912 79.2586C15.1723 79.3668 15.3345 79.3397 15.4426 79.2316C17.6589 76.745 20.6862 75.4746 24.4432 75.4746H25.0648C28.092 75.4746 31.8761 75.0692 34.2006 71.9068C34.7682 71.2581 35.6331 69.8256 35.6331 69.8256L35.6871 69.7445L37.0115 70.7446L36.9845 70.7986C36.9845 70.8257 36.4169 72.2582 36.0655 72.9069C35.7142 73.6096 34.7411 75.3395 33.6329 75.9611C33.3627 76.0963 33.0383 76.2855 32.6869 76.4747C32.0382 76.799 31.2544 77.2315 30.4706 77.6639C29.8219 78.0423 29.011 78.2315 28.1731 78.2315C27.6866 78.2315 27.2001 78.1775 26.7136 78.0423C25.8216 77.8802 24.6864 77.6639 23.6323 77.6639C22.7674 77.6639 22.0916 77.7991 21.497 78.0694C21.0375 78.3667 20.578 78.7721 20.1456 79.1775C19.8753 79.4478 19.578 79.6911 19.3077 79.9344C18.659 80.4479 17.3075 81.3399 15.902 81.2588C15.6047 81.2317 15.3074 81.1507 15.0371 81.0966C14.7128 81.0155 14.3884 80.9344 14.0911 80.9344C13.7397 80.9344 13.4965 81.0425 13.2802 81.2858C12.9018 81.6372 12.6316 82.0967 12.3883 82.5561C11.9829 83.2319 11.5774 83.9346 10.8206 84.286C10.3882 84.5292 9.90165 84.6374 9.33404 84.6374C8.73941 84.6374 8.11775 84.5022 7.55014 84.3671C7.09065 84.259 6.68522 84.1779 6.25276 84.1508H6.14465L6.17168 83.9887C6.19871 83.7995 6.25276 83.6373 6.27979 83.4481C6.52305 82.2588 6.79334 81.0425 7.57717 80.1236L7.60421 80.0965H7.63124C8.14478 80.0425 8.68536 79.9343 9.11782 79.5559C9.6584 79.0694 10.0909 78.4478 10.4963 77.772L10.5233 77.745C10.7666 77.5828 11.0369 77.4477 11.2801 77.2855C12.3072 76.6909 13.3614 76.0692 14.01 75.0421C14.2263 74.5556 14.4695 73.988 14.6858 73.4474C15.0371 72.5285 15.3615 71.7446 15.6318 71.4473C15.794 71.2851 15.9561 71.204 16.1994 71.177C16.3075 71.177 16.4697 71.15 16.7129 71.15C17.1724 71.123 17.8211 71.0959 18.4157 71.0148C18.7941 70.9608 20.7943 70.258 21.7943 69.339C22.0646 69.0688 22.1998 68.6093 22.0646 68.2038C22.0376 68.0687 21.9295 67.8254 21.7943 67.5281C21.497 66.7983 21.0375 65.6631 20.8483 64.7442C20.7672 64.3387 20.7132 63.3386 20.6862 62.3116C20.6591 61.6629 20.6321 61.0142 20.578 60.4195C20.551 60.1222 20.4429 60.1222 20.3888 60.1222C20.3618 60.1222 20.3078 60.1222 20.2537 60.1493C18.9563 60.4736 17.6049 60.825 16.1723 60.825C15.7128 60.825 15.3074 60.7979 14.875 60.7169C12.4694 60.4195 9.57731 58.8248 8.52319 56.0138C7.71232 53.8786 7.79341 50.5811 9.55028 48.662C10.8747 47.0403 12.4694 45.7159 14.0371 44.4185C14.3344 44.1752 14.6587 43.9049 14.956 43.6617C15.2804 43.3914 15.4155 43.2022 15.3885 42.9319C15.3344 42.4994 14.9831 42.1481 14.6317 42.0399C14.2533 41.9318 13.8208 41.9318 13.4695 41.9318H12.7127C12.1451 41.9318 11.5504 41.9048 10.9558 41.6615C10.8747 41.6345 10.7936 41.6075 10.7125 41.5805C8.9016 40.7426 7.25285 38.7154 7.00958 36.7423C6.95552 35.7963 7.1177 34.9584 7.60422 34.2016C8.9016 34.9043 10.0368 36.0396 11.5234 36.445C12.091 36.5801 12.6586 36.6612 13.2532 36.7964C13.3343 36.8234 13.4965 36.8234 13.6046 36.8504L13.7668 36.8774C14.6858 37.0937 17.1724 37.7153 18.2806 38.9316C19.3888 40.1479 19.4969 42.3913 18.5239 43.7157C17.686 44.8509 16.4426 45.9051 15.1453 46.9862C14.3344 47.6619 13.5235 48.3647 12.7937 49.0945C11.2531 50.6351 10.6855 52.6082 11.2261 54.5543C11.7937 56.2841 13.5235 57.5815 15.4155 57.7167H15.6047C18.1455 57.7167 20.1186 56.5544 22.1998 55.3381C22.389 55.23 22.6052 55.0949 22.7674 54.9868C23.1188 54.7705 23.8485 54.2029 24.4161 53.7705C26.0919 52.4461 28.0921 50.9054 29.957 50.473C31.2004 50.1756 31.4166 50.1756 32.714 50.0405C33.633 49.9594 34.4979 49.8513 35.2817 49.581C37.0116 48.9864 38.5252 47.689 40.0118 46.3375C41.9038 44.7969 43.7417 44.1482 46.3095 44.1482C47.4177 44.1482 47.5798 44.0131 48.9313 42.7427C49.2286 42.4724 49.58 42.1481 50.0124 41.7426C51.472 40.3912 53.337 39.8236 55.1479 39.256C56.0669 38.9587 57.0129 38.6884 57.9049 38.283C59.0401 37.9046 60.0942 37.2288 61.0943 36.5801C61.6889 36.2017 62.3105 35.7963 62.9322 35.472C63.8512 35.0665 64.9594 34.8503 66.0946 34.8503C66.9865 34.8503 67.8515 34.9854 68.5812 35.2557C69.7165 35.6612 70.203 35.8774 71.7706 36.9585L79.6901 43.5265L79.7982 43.6347C79.9333 43.7698 80.1225 43.932 80.2577 44.0942C80.501 44.3374 84.9066 49.4729 86.7446 52.4731C87.3392 53.4731 87.8258 55.0138 87.8798 55.7436C88.2312 60.3655 89.6367 64.5279 90.9341 68.0417C90.9881 68.1768 91.2584 68.4201 91.5557 68.6904C91.9071 68.9877 92.2855 69.3391 92.5288 69.6904C92.8801 70.177 93.2045 70.7175 93.5018 71.2311C94.2856 72.5555 95.1235 73.934 96.529 74.7448L97.7183 75.3395C97.9075 75.4746 97.9345 75.6097 97.9075 75.7719ZM69.0677 46.743C68.6623 45.9321 68.2568 45.4186 67.8514 45.2294C67.7433 45.1753 67.6081 45.1483 67.473 45.1483C67.2027 45.1483 66.9324 45.2564 66.8513 45.4186C66.5 45.9862 66.8243 46.3916 67.1757 46.8781C67.3379 47.1214 67.5271 47.3646 67.6892 47.689C68.1758 48.662 68.419 49.7161 68.8245 51.8244C68.8515 52.0136 68.9866 52.0406 69.0137 52.0406C69.1218 52.0406 69.2029 51.9325 69.2569 51.7974C69.2839 51.7703 70.0948 48.8242 69.0677 46.743ZM82.3929 71.5825C82.0145 71.3933 81.6091 71.5284 81.6091 71.5284C80.3657 71.8527 79.7441 73.1501 79.663 73.2853C79.663 73.2853 79.4738 73.6366 79.5819 73.8259C79.69 73.988 79.8792 74.0691 80.4198 74.0961C80.9604 74.1232 81.9604 73.988 82.2307 73.7177C82.501 73.4745 82.5821 72.8528 82.5821 72.8528C82.5821 72.7447 82.7713 71.7717 82.3929 71.5825ZM86.1229 62.9062C85.9877 62.2846 85.4472 61.2575 84.9606 60.7439C84.4741 60.2304 84.3119 59.9601 84.1498 59.6898C83.9876 59.4195 84.1228 59.5006 83.5281 58.7708C83.0146 58.1491 82.5551 58.2032 82.42 58.2032C82.42 58.2032 81.8794 58.1762 81.4739 58.7708C81.3118 58.987 80.9334 59.906 80.9334 59.906C80.7442 60.3655 80.582 60.5007 80.4198 61.1764C80.2576 61.8251 80.3117 62.0954 80.3928 62.4467C80.4468 62.7981 80.6361 62.8251 80.7712 62.7441C80.9063 62.663 80.9063 62.5819 81.3388 62.0143C81.7172 61.5278 82.2037 61.2304 82.3929 61.2304C83.1497 61.1494 84.4471 62.8522 84.7174 63.4468C84.9607 63.9874 85.0147 65.2848 85.0147 65.2848C85.0147 65.3388 84.9877 65.8253 85.3931 65.8253C85.7445 65.8253 85.8796 65.5551 85.9337 65.4469C85.9878 65.3388 86.1229 65.0956 86.204 64.609C86.258 64.0685 86.2851 63.5279 86.1229 62.9062ZM6.55007 78.5018C6.71225 78.637 6.92847 78.7992 7.27985 78.7992C7.46906 78.7992 7.68528 78.7451 7.87449 78.637C8.98267 78.0964 10.1179 76.0422 10.1449 75.9341C10.253 75.6098 9.87462 75.3124 9.41512 74.934L9.36106 74.88C9.14484 74.7178 8.76643 74.7448 8.52317 74.907C8.33397 75.0151 8.1718 75.1503 7.98259 75.2584C7.41499 75.6368 6.82036 76.0152 6.19869 76.5558C5.98246 76.745 5.84732 77.0963 5.82029 77.3666C5.79326 77.5828 5.84732 77.7721 5.9284 77.8802C6.00949 77.9342 6.44195 78.4208 6.55007 78.5018ZM19.4428 94.8813H20.0915V93.1244H21.8213V92.5568H20.0915V91.2865H21.8754V90.6918H19.4158V94.8813C19.4158 94.8813 19.4428 94.8813 19.4428 94.8813ZM26.3352 94.8002C26.6054 94.6921 26.8217 94.5299 27.0379 94.3407C27.2271 94.1515 27.3893 93.9083 27.4974 93.638C27.6055 93.3677 27.6596 93.0974 27.6596 92.773C27.6596 92.4757 27.6055 92.1784 27.4974 91.9081C27.3893 91.6378 27.2271 91.4216 27.0379 91.2324C26.8487 91.0432 26.6054 90.881 26.3352 90.7729C26.0649 90.6648 25.7675 90.6107 25.4702 90.6107C25.1459 90.6107 24.8486 90.6648 24.6053 90.7729C24.335 90.881 24.1188 91.0432 23.9026 91.2324C23.7133 91.4216 23.5512 91.6649 23.4431 91.9081C23.3349 92.1784 23.2809 92.4487 23.2809 92.773C23.2809 93.0704 23.3349 93.3677 23.4431 93.638C23.5512 93.9083 23.7133 94.1245 23.9026 94.3407C24.0918 94.5299 24.335 94.6921 24.6053 94.8002C24.8756 94.9083 25.1729 94.9624 25.4702 94.9624C25.7675 94.9624 26.0649 94.9083 26.3352 94.8002ZM24.8486 94.2326C24.6594 94.1515 24.4972 94.0434 24.3621 93.9083C24.2269 93.7731 24.1188 93.6109 24.0377 93.4218C23.9566 93.2325 23.9296 93.0163 23.9296 92.8001C23.9296 92.5839 23.9566 92.3676 24.0377 92.1784C24.1188 91.9892 24.2269 91.8271 24.3621 91.6919C24.4972 91.5568 24.6594 91.4487 24.8486 91.3676C25.0378 91.2865 25.227 91.2595 25.4702 91.2595C25.6865 91.2595 25.8757 91.2865 26.0649 91.3676C26.2541 91.4487 26.4162 91.5568 26.5514 91.6919C26.6865 91.8271 26.7946 91.9892 26.8757 92.1784C26.9568 92.3676 26.9838 92.5839 26.9838 92.8001C26.9838 93.0163 26.9568 93.2326 26.8757 93.4218C26.7946 93.611 26.6865 93.7731 26.5514 93.9083C26.4162 94.0434 26.2541 94.1515 26.0649 94.2326C25.8757 94.3137 25.6865 94.3407 25.4702 94.3407C25.227 94.3678 25.0378 94.3137 24.8486 94.2326ZM29.3624 94.8813H30.0111V93.2325H30.5787L31.6328 94.8813H32.3896L31.2814 93.1785C31.5517 93.0974 31.7409 92.9352 31.9031 92.719C32.0382 92.5028 32.1193 92.2595 32.1193 91.9622C32.1193 91.5568 31.9842 91.2594 31.7409 91.0432C31.4976 90.827 31.1463 90.6918 30.7138 90.6918H29.3353V94.8813L29.3624 94.8813ZM30.0111 92.692V91.2594H30.7138C30.9571 91.2594 31.1193 91.3135 31.2544 91.4486C31.3895 91.5838 31.4436 91.746 31.4436 91.9622C31.4436 92.1784 31.3895 92.3676 31.2544 92.5028C31.1193 92.6379 30.9301 92.692 30.7138 92.692L30.0111 92.692ZM37.3089 90.6918L36.0926 94.0434L34.8763 90.6918H33.9843V94.8813H34.606V91.6649L35.7952 94.8813H36.3628L37.5521 91.6649V94.8813H38.2008V90.6918H37.3089ZM42.4443 94.8543C42.6335 94.7732 42.8227 94.6651 42.9579 94.5029C43.093 94.3678 43.2011 94.1786 43.2822 93.9623C43.3633 93.7461 43.3903 93.5028 43.3903 93.2596V90.6918H42.7146V93.2596C42.7146 93.6109 42.6335 93.8812 42.4714 94.0704C42.3092 94.2596 42.0659 94.3678 41.7686 94.3678C41.4713 94.3678 41.228 94.2596 41.0659 94.0704C40.9037 93.8812 40.8226 93.6109 40.8226 93.2596V90.6918H40.1739V93.2596C40.1739 93.5299 40.2009 93.7461 40.282 93.9623C40.3631 94.1786 40.4712 94.3678 40.6064 94.5029C40.7415 94.638 40.9307 94.7732 41.1199 94.8543C41.3091 94.9354 41.5524 94.9894 41.7956 94.9894C42.0119 94.9624 42.2281 94.9354 42.4443 94.8543ZM45.3094 94.8813H47.6068V94.2867H45.9581V90.6918H45.3094V94.8813ZM51.8774 94.8813H52.5801L51.0125 90.6918H50.3097L48.715 94.8813H49.4178L49.7691 93.8812H51.526L51.8774 94.8813ZM50.6611 91.3676L51.3638 93.3677H49.9583L50.6611 91.3676ZM59.5536 94.8002C59.8238 94.6921 60.0401 94.5299 60.2563 94.3407C60.4455 94.1515 60.6077 93.9083 60.7158 93.638C60.8239 93.3677 60.878 93.0974 60.878 92.773C60.878 92.4757 60.8239 92.1784 60.7158 91.9081C60.6077 91.6378 60.4455 91.4216 60.2563 91.2324C60.0671 91.0432 59.8238 90.881 59.5536 90.7729C59.2833 90.6648 58.986 90.6107 58.6886 90.6107C58.3643 90.6107 58.067 90.6648 57.8237 90.7729C57.5534 90.881 57.3372 91.0432 57.121 91.2324C56.9318 91.4216 56.7696 91.6649 56.6615 91.9081C56.5534 92.1784 56.4993 92.4487 56.4993 92.773C56.4993 93.0704 56.5534 93.3677 56.6615 93.638C56.7696 93.9083 56.9318 94.1245 57.121 94.3407C57.3102 94.5299 57.5534 94.6921 57.8237 94.8002C58.094 94.9083 58.3913 94.9624 58.6886 94.9624C58.986 94.9624 59.2833 94.9083 59.5536 94.8002ZM58.067 94.2326C57.8778 94.1515 57.7156 94.0434 57.5805 93.9083C57.4453 93.7731 57.3372 93.6109 57.2561 93.4218C57.175 93.2325 57.148 93.0163 57.148 92.8001C57.148 92.5839 57.175 92.3676 57.2561 92.1784C57.3372 91.9892 57.4453 91.8271 57.5805 91.6919C57.7156 91.5568 57.8778 91.4487 58.067 91.3676C58.2562 91.2865 58.4454 91.2595 58.6886 91.2595C58.9049 91.2595 59.0941 91.2865 59.2833 91.3676C59.4725 91.4487 59.6346 91.5568 59.7698 91.6919C59.9049 91.8271 60.0131 91.9892 60.0941 92.1784C60.1752 92.3676 60.2023 92.5839 60.2023 92.8001C60.2023 93.0163 60.1752 93.2326 60.0941 93.4218C60.0131 93.611 59.9049 93.7731 59.7698 93.9083C59.6346 94.0434 59.4725 94.1515 59.2833 94.2326C59.0941 94.3137 58.9049 94.3407 58.6886 94.3407C58.4724 94.3678 58.2562 94.3137 58.067 94.2326ZM65.1485 90.6918V93.8001L63.2835 90.6918H62.5538V94.8813H63.2025V91.7189L65.0945 94.8813H65.7972V90.6918H65.1485ZM67.7703 94.8813H70.311V94.3137H68.419V92.9893H70.1759V92.4217H68.419V91.2594H70.23V90.6918H67.7703L67.7703 94.8813ZM75.4195 94.8813H76.0682V91.2865H77.3115V90.6918H74.2302V91.2865H75.4195V94.8813ZM78.9602 94.8813H81.501V94.3137H79.6089V92.9893H81.3658V92.4217H79.6089V91.2594H81.4199V90.6918H78.9603L78.9602 94.8813ZM85.9877 94.8813H86.6905L85.1228 90.6918H84.4201L82.8254 94.8813H83.5281L83.8795 93.8812H85.6364L85.9877 94.8813ZM84.7444 91.3676L85.4472 93.3677H84.0687L84.7444 91.3676ZM91.5827 90.6918L90.3664 94.0434L89.1501 90.6918H88.2582V94.8813H88.8798V91.6649L90.0691 94.8813H90.6367L91.826 91.6649V94.8813H92.4747V90.6918H91.5827Z" fill="white"/>
</g>
<defs>
<clipPath id="clip0_414_697">
<rect width="100" height="100" fill="white"/>
</clipPath>
</defs>
</svg>
