<svg width="100" height="100" viewBox="0 0 100 100" fill="none" xmlns="http://www.w3.org/2000/svg">
<g clip-path="url(#clip0_414_705)">
<path d="M10.0328 68.0178C10.0328 66.7733 9.16007 66.0205 7.69738 66.0051H2.09863V72.5749H3.04815V70.1811H7.60213C8.41951 70.1811 8.91116 70.5898 8.91116 71.2751V72.5749H9.87911V71.2843C9.90679 70.6137 9.50926 69.9983 8.88658 69.7478C9.60022 69.4768 10.0614 68.7807 10.0328 68.0178ZM7.70353 69.3177H3.04815V66.8594H7.70353C8.97569 66.8594 9.07403 67.7966 9.07403 68.0885C9.07403 68.3804 8.9757 69.3177 7.70353 69.3177ZM26.7215 67.2988C26.236 66.3185 25.6828 65.9191 24.8101 65.9191C23.9375 65.9191 23.3598 66.3308 22.8927 67.2988L20.3975 72.4089L20.3176 72.5718H21.3378L21.3685 72.5073L22.2566 70.6881H27.3576L28.2456 72.5073L28.2764 72.5718H29.3058L29.2259 72.4089L26.7215 67.2988ZM22.6899 69.8247L23.7992 67.5569C24.0604 67.0161 24.3523 66.7948 24.8101 66.7948C25.268 66.7948 25.5507 67.0161 25.815 67.5569L26.9243 69.8247H22.6899ZM39.2526 69.29C39.2526 71.5117 40.2175 72.5564 42.2947 72.5749H47.4387V71.653H42.3685C40.8075 71.653 40.2175 71.0139 40.2175 69.2992C40.2175 67.5845 40.7983 66.9423 42.3685 66.9423H47.451V66.0205H42.307C40.199 66.0266 39.2526 67.0376 39.2526 69.29ZM58.206 72.5718H59.1524V66.002H58.206V72.5718ZM77.817 71.6254C76.9136 71.6254 76.6954 71.3181 75.0514 69.124L74.9777 69.0257C73.2046 66.6535 72.7283 66.0174 71.1796 66.002H70.4114V72.5718H71.3486V66.9546C72.2029 66.9546 72.418 67.2342 74.0282 69.3422L74.2279 69.6003C76.0132 71.9357 76.4957 72.5626 77.9891 72.5749H78.7726V66.0051H77.8323V71.6284L77.817 71.6254ZM96.9548 69.1855V71.6438H92.7941C91.2331 71.6438 90.6431 71.0016 90.6431 69.2808C90.6431 67.56 91.2239 66.9331 92.7941 66.9331H97.8521V66.0112H92.7204C90.6462 66.0297 89.6813 67.0714 89.6813 69.2869C89.6813 71.5024 90.6462 72.5595 92.7234 72.581H97.9043V69.2009H96.9517L96.9548 69.1855Z" fill="white"/>
<path d="M26.6536 61.9458H25.6795C14.946 61.9458 2.08301 62.1732 2.08301 62.3453C2.08301 62.5173 12.7028 62.926 25.6826 62.926H74.3198C85.0533 62.926 97.9163 62.6987 97.9163 62.5266C97.9163 62.3545 87.2965 61.9458 74.3168 61.9458H26.6536Z" fill="white"/>
<path d="M43.3699 50.0631V54.1131C43.3208 54.8225 42.7059 55.3578 41.9965 55.3086C41.3555 55.2643 40.8454 54.7541 40.801 54.1131V50.0631H38.5701V54.5464C38.5701 56.0644 40.1403 57.2935 42.0762 57.2935C44.0121 57.2935 45.5824 56.0644 45.5824 54.5464V50.0662L43.3699 50.0631ZM50.6219 45.2479V57.0416H52.8681V45.2479H50.6219ZM46.8238 57.0416H49.0701V45.2479H46.8238V57.0416ZM35.8199 50.9204C36.4409 50.3614 36.7997 49.5681 36.8093 48.7325C36.8081 47.981 36.5189 47.2585 36.0012 46.7137C35.4665 46.1237 34.517 45.7918 33.2356 45.7918H29.3945V57.0446H34.3541C36.2562 57.0139 37.7865 55.5789 37.7865 53.8181C37.7865 52.5306 37.3348 51.618 35.8199 50.9204ZM33.9393 55.0934H31.7883V47.7185H33.2879C33.9585 47.7514 34.4842 48.3069 34.4801 48.9784C34.4801 49.6368 33.9463 50.1706 33.2879 50.1706H32.5073V52.1926H33.9393C34.7378 52.2294 35.3552 52.9065 35.3184 53.705C35.284 54.452 34.6862 55.0497 33.9393 55.0841V55.0934Z" fill="#E2071F"/>
<path d="M9.59334 49.1136C9.57644 47.2627 8.06406 45.7751 6.21319 45.7887H2.09863V57.0416H4.48932V47.7216H5.71846C6.54607 47.6909 7.24186 48.3369 7.27254 49.1646C7.27289 49.1742 7.27316 49.1838 7.27333 49.1935C7.23841 50.0411 6.52309 50.7 5.67544 50.6654H5.11925V53.3572L7.50687 57.0446H10.3247L7.02443 52.3432C8.52349 51.9886 9.58507 50.654 9.59334 49.1136ZM13.7724 49.7742C11.696 49.8336 10.0609 51.565 10.1203 53.6414C10.1772 55.6343 11.7795 57.2366 13.7724 57.2935C15.3396 57.2935 16.5595 56.5837 17.1894 55.4744L15.3642 54.6324C15.1001 55.1657 14.5518 55.4985 13.9568 55.4867C13.1465 55.5248 12.4587 54.8989 12.4205 54.0886C12.4205 54.0875 12.4204 54.0865 12.4204 54.0855V53.9933H17.3707C17.3707 53.8396 17.3923 53.686 17.3923 53.5201C17.4353 51.1048 15.8251 49.7742 13.7724 49.7742ZM12.4204 52.7211C12.4204 51.9625 13.0353 51.3475 13.7939 51.3475C14.5525 51.3475 15.1675 51.9625 15.1675 52.7211H12.4204ZM26.322 57.0446V45.2479H24.0819V50.8282C23.4844 50.2257 22.6719 49.8852 21.8233 49.8818C19.9796 49.8818 18.4647 51.5289 18.4647 53.5692C18.4647 55.6096 19.9673 57.2567 21.8233 57.2567C22.6793 57.2494 23.4965 56.8984 24.0911 56.2826V57.0661L26.322 57.0446ZM22.4594 55.3177C21.4637 55.4059 20.585 54.6703 20.4968 53.6746C20.4085 52.6789 21.1441 51.8002 22.1398 51.712C23.1355 51.6237 24.0142 52.3594 24.1025 53.3551C24.1071 53.4079 24.1095 53.4609 24.1095 53.5139C24.1477 54.4656 23.4108 55.2698 22.4594 55.3146L22.4594 55.3177Z" fill="#E2071F"/>
<path d="M77.6721 58.5964C81.9114 58.5964 85.3481 55.1597 85.3481 50.9204C85.3481 46.681 81.9114 43.2444 77.6721 43.2444C73.4328 43.2444 69.9961 46.681 69.9961 50.9204C69.9961 55.1597 73.4328 58.5964 77.6721 58.5964Z" fill="#FFD800"/>
<path d="M97.806 56.0613C97.7953 56.0405 97.786 56.0189 97.7783 55.9968C97.7783 55.9569 97.7783 55.9077 97.7568 55.8585C97.7465 55.7323 97.7186 55.6082 97.6738 55.4898C97.5866 55.2988 97.4128 55.1615 97.2067 55.121C97.194 55.0574 97.169 54.9968 97.133 54.9428C97.0067 54.7782 96.849 54.6403 96.669 54.5372L96.5676 54.4665L96.5276 54.4358C96.434 54.3619 96.3181 54.3218 96.1988 54.3221C95.9853 54.3357 95.7881 54.441 95.658 54.6109C95.6365 54.5525 95.5996 54.4173 95.5781 54.3405C95.5566 54.2637 95.5228 54.1346 95.4951 54.0578V54.024C95.428 53.757 95.2166 53.5504 94.9482 53.4893C94.8524 53.4756 94.756 53.4673 94.6593 53.4647C94.5656 53.4686 94.4723 53.4518 94.3858 53.4156C94.3858 53.4002 94.3858 53.3756 94.4165 53.3357C94.4467 53.2625 94.4723 53.1876 94.4933 53.1114C94.5874 52.8019 94.6105 52.4753 94.5609 52.1557C94.6535 52.1693 94.747 52.1765 94.8406 52.1772C95.15 52.1766 95.4562 52.1139 95.7409 51.9928C96.3776 51.6994 96.788 51.0652 96.7949 50.3642V50.3058C96.7334 49.6513 96.3678 49.0306 95.6825 48.4191C95.875 48.3764 96.0582 48.2994 96.2234 48.1917C96.7378 47.8203 96.971 47.1708 96.8103 46.557V46.5109C96.7885 46.292 96.6061 46.1242 96.3862 46.1206C96.2785 46.1208 96.175 46.1627 96.0974 46.2374L96.0451 46.2865C96.0064 46.326 95.9642 46.362 95.9191 46.3941C95.7848 46.4574 95.6419 46.5009 95.4951 46.5232C95.36 46.5486 95.2266 46.5825 95.0956 46.6246C94.481 46.8366 94.0939 47.1685 93.9433 47.6079C93.8542 47.9063 93.8943 48.2285 94.0539 48.4959V48.5175C94.2504 48.8022 94.4804 49.0622 94.7392 49.2918C95.071 49.5991 95.3814 49.9064 95.4459 50.269C95.4459 50.3335 95.4766 50.4564 95.2585 50.6193C95.1528 50.6722 95.0355 50.6976 94.9174 50.693C94.7129 50.6904 94.5119 50.6399 94.3305 50.5455C94.0513 50.3971 93.7815 50.2319 93.5223 50.0508C93.0995 49.7388 92.6351 49.4874 92.1426 49.3041C91.9137 49.2127 91.6758 49.1457 91.4328 49.1044C91.1718 49.0741 90.9209 48.9859 90.6984 48.8463L90.6707 48.8278C90.5877 48.7756 90.5048 48.7141 90.4249 48.6557C90.1688 48.4466 89.876 48.2872 89.5614 48.1856C89.4463 48.1494 89.328 48.1246 89.208 48.1118C89.1191 48.108 89.0321 48.085 88.953 48.0442L88.787 47.9244C88.5598 47.7479 88.3182 47.5907 88.0649 47.4543C87.636 47.2566 87.1838 47.1141 86.719 47.0302C86.6944 47.0302 86.6299 46.9442 86.5838 46.8919C86.5031 46.785 86.408 46.6898 86.3011 46.6092C85.939 46.2789 85.4724 46.0864 84.9828 46.0653H84.8415C84.5413 46.1082 84.2631 46.2473 84.0487 46.4617C83.6461 46.8151 83.2067 47.1316 82.7827 47.4389C82.0862 47.9096 81.4396 48.4501 80.8529 49.0521C80.2383 49.6944 80.0048 50.4964 79.8051 51.2031C79.7774 51.3045 79.7467 51.4059 79.7159 51.5104C79.6606 51.704 79.6115 51.9037 79.5654 52.0973C79.3226 53.0776 79.0922 54.0025 78.1764 54.5986C78.0299 54.6914 77.9488 54.8595 77.9675 55.0319C77.9887 55.2079 78.1078 55.3567 78.2748 55.416C78.3876 55.4542 78.506 55.4729 78.6251 55.4713C78.6303 55.5714 78.6693 55.6667 78.7357 55.7417C78.837 55.8538 78.9811 55.9175 79.1321 55.9169H79.1475C79.7157 55.8795 80.2445 55.6134 80.6132 55.1794C80.7628 55.3284 80.9495 55.4345 81.1541 55.4867H81.2831C81.4922 55.4515 81.7041 55.4351 81.9161 55.4375C82.1005 55.4959 82.291 55.5666 82.4785 55.6373C82.6659 55.7079 82.7857 55.7479 82.924 55.8001L82.9978 55.8247H83.0623C83.3764 55.784 83.6501 55.5908 83.7936 55.3085V55.2532C83.8077 55.2214 83.819 55.1885 83.8274 55.1548L83.852 55.2409C83.8928 55.4341 83.9722 55.617 84.0856 55.7786C84.1996 55.9128 84.3673 55.9893 84.5434 55.9876C84.6021 55.9865 84.6606 55.9813 84.7186 55.9722H84.7309L84.7494 55.9937C84.8441 56.1082 84.9685 56.1943 85.1089 56.2426C85.2779 56.2979 85.4469 56.344 85.6129 56.3871C85.8211 56.4353 86.0263 56.4958 86.2274 56.5683H86.249C86.4033 56.6263 86.5665 56.6575 86.7314 56.6605C86.9425 56.662 87.1465 56.5842 87.3029 56.4424C87.4873 56.2967 87.6172 56.0932 87.6717 55.8647L87.7946 55.8339C88.0742 55.7417 88.3508 55.2194 88.3508 55.2194C88.3692 55.1844 88.3897 55.1505 88.4122 55.118C88.4801 55.0219 88.5157 54.9068 88.5136 54.7892C88.512 54.5212 88.2961 54.3039 88.0281 54.3006H87.2845C87.2228 54.3032 87.1617 54.3146 87.1032 54.3344C87.0633 54.2852 87.0202 54.1715 86.9619 54.1439H86.9834L87.1309 54.1592C87.2261 54.1592 87.3214 54.1746 87.4166 54.1746C87.7265 54.166 88.035 54.13 88.3385 54.067C88.5985 54.0368 88.8608 54.0296 89.1221 54.0455H89.2173C89.3344 54.0468 89.4513 54.054 89.5676 54.067C89.7024 54.082 89.8377 54.0902 89.9733 54.0916H90.1208C90.2522 54.0857 90.3823 54.063 90.5079 54.024L90.554 54.2698L90.5725 54.3528C90.6397 54.7981 90.8948 55.1931 91.2731 55.4375L91.353 55.4897C91.5759 55.6569 91.8386 55.7628 92.1151 55.797C92.2421 55.8118 92.3706 55.8066 92.4961 55.7817C92.9858 55.6879 93.4923 55.8051 93.8912 56.1043L93.928 56.1289C93.9729 56.1579 94.015 56.1908 94.054 56.2272C94.163 56.3282 94.2888 56.4094 94.4258 56.4669C94.533 56.5075 94.6463 56.5293 94.7608 56.5314C94.9166 56.5337 95.0699 56.4922 95.2033 56.4116C95.2186 56.4314 95.233 56.4519 95.2463 56.4731C95.322 56.5855 95.4107 56.6887 95.5106 56.7803C95.7012 56.949 95.951 57.0352 96.205 57.02H96.6783C96.7336 57.02 96.7704 57.0047 96.7889 57.0016C96.8616 57.0536 96.9484 57.0825 97.0378 57.0846C97.0774 57.0847 97.1169 57.0785 97.1546 57.0661L97.594 56.9217C97.7164 56.8837 97.817 56.7954 97.8705 56.6789C97.9479 56.4744 97.9239 56.2454 97.806 56.0613ZM83.9566 53.8827L83.9228 53.8335C83.9228 53.812 83.8951 53.7936 83.8767 53.7659C83.8175 53.6854 83.767 53.5989 83.7261 53.5078C83.8583 53.5078 83.9965 53.5354 84.144 53.5416L83.9566 53.8827Z" fill="#FFD800"/>
<path d="M77.4261 54.4604L77.1956 54.3467C76.9938 54.1936 76.8316 53.9945 76.7224 53.7659C76.6548 53.6553 76.5872 53.5385 76.5134 53.4341C76.4405 53.3342 76.3547 53.2443 76.2584 53.1667L76.2092 53.1237C75.9101 52.3757 75.7167 51.5897 75.6346 50.7883C75.5941 50.4996 75.4993 50.2212 75.355 49.9679C74.9389 49.3528 74.4842 48.7647 73.9937 48.2071C73.9599 48.1702 73.923 48.1334 73.8892 48.1026L73.8647 48.078L72.236 46.7229L72.2115 46.7045C71.9894 46.5347 71.7414 46.4019 71.477 46.3112C71.0126 46.1613 70.5103 46.1786 70.0574 46.3603H70.0297C69.8884 46.4341 69.7562 46.5201 69.6303 46.6C69.4548 46.7247 69.2649 46.8279 69.0649 46.9073H69.0311C68.862 46.9787 68.6885 47.0393 68.5117 47.0886C68.0787 47.1923 67.6744 47.3918 67.3287 47.6724L67.1074 47.8783C67.0214 47.9613 66.9384 48.0381 66.9046 48.0627H66.834C66.2805 48.0425 65.7398 48.2312 65.319 48.5912H65.3037C65.0656 48.8369 64.783 49.035 64.4709 49.1751C64.3307 49.2154 64.1864 49.2402 64.0407 49.2488H64.0254C63.8242 49.2608 63.6246 49.2916 63.4292 49.341C62.9586 49.496 62.5254 49.7471 62.1571 50.0785C61.9973 50.2014 61.8928 50.2813 61.8498 50.3089L61.7484 50.3735C61.4113 50.6188 61.0143 50.7685 60.5991 50.8067H60.5776C60.3506 50.7851 60.1543 50.6396 60.0675 50.4288C60.0019 50.1604 60.0879 49.8777 60.2918 49.6913C60.4301 49.553 60.5991 49.4147 60.7497 49.2826C61.0238 49.0692 61.2723 48.8249 61.4903 48.5543C61.7968 48.1125 61.7678 47.5198 61.4196 47.1101C61.1092 46.8355 60.7281 46.6535 60.3195 46.5846H60.1997L60.0768 46.5631L59.8739 46.5232C59.7316 46.4695 59.598 46.3949 59.4775 46.3019C59.3787 46.2299 59.2762 46.1632 59.1703 46.1022L58.863 45.9393L58.6755 46.2282C58.5326 46.4495 58.4687 46.7127 58.4942 46.9749V46.9964C58.5907 47.5518 58.9503 48.0259 59.4591 48.2686L59.5114 48.2901C59.6175 48.3321 59.7294 48.358 59.8432 48.3669C59.5641 48.5921 59.3069 48.8431 59.075 49.1167C58.6622 49.6459 58.5583 50.3533 58.8015 50.9788C59.0778 51.632 59.6829 52.087 60.3871 52.1711C60.4888 52.1866 60.5915 52.1948 60.6944 52.1957C60.8751 52.1938 61.0552 52.1743 61.2321 52.1373C61.2358 52.3192 61.2492 52.5007 61.2721 52.6812C61.3228 52.9004 61.3937 53.1143 61.4841 53.3203V53.3357C61.3563 53.4123 61.2202 53.4741 61.0785 53.5201C60.974 53.5201 60.8573 53.5385 60.7712 53.5446H60.6422C60.518 53.5583 60.4021 53.6135 60.3134 53.7014C60.1849 53.8588 60.0897 54.0407 60.0337 54.236C59.9969 54.3344 59.9569 54.4358 59.917 54.5188C59.8823 54.5693 59.8398 54.6139 59.791 54.6509C59.728 54.5505 59.6467 54.4629 59.5513 54.3928C59.3672 54.2623 59.1208 54.2623 58.9367 54.3928L58.8537 54.4481L58.8322 54.4634C58.6952 54.5503 58.5639 54.6458 58.4389 54.7492C58.3428 54.8351 58.2762 54.9491 58.2484 55.0749C58.2149 55.0799 58.1819 55.0881 58.1501 55.0995C57.8929 55.2082 57.708 55.4393 57.6584 55.7141C57.6538 55.8171 57.6425 55.9198 57.6246 56.0214L57.6031 56.049C57.4331 56.2364 57.4331 56.5223 57.6031 56.7097C57.8253 56.8488 58.0746 56.9389 58.3344 56.9739H58.4481L58.5342 56.9401H58.6509C58.7243 56.9497 58.7971 56.963 58.8691 56.9801C59.0141 57.0159 59.1624 57.0365 59.3116 57.0416C59.4754 57.0441 59.6372 57.0049 59.7817 56.9279C59.9873 56.815 60.1527 56.641 60.255 56.4301C60.2826 56.384 60.3072 56.3379 60.3349 56.301H60.3748C60.456 56.3249 60.5394 56.3403 60.6237 56.3471C60.9689 56.3441 61.3023 56.2214 61.5671 55.9999C61.6378 55.9445 61.7023 55.8831 61.7638 55.8278C61.826 55.7677 61.8917 55.7113 61.9604 55.6588C62.0415 55.6313 62.1269 55.6188 62.2124 55.6219C62.3953 55.6283 62.5773 55.6509 62.7563 55.6895C63.1029 55.7818 63.4716 55.7401 63.7888 55.5727C63.9455 55.4836 64.0961 55.4037 64.2282 55.3361H64.2497L64.4279 55.2409C64.7134 55.0484 64.9382 54.7788 65.0763 54.4634C65.1408 54.3313 65.2422 54.0885 65.2699 54.0209H65.3713C65.562 54.0161 65.752 53.9966 65.9397 53.9626C66.0626 53.9441 66.1763 53.9257 66.2655 53.9195H66.3853C66.5635 53.9195 66.8186 53.941 66.9999 53.9626C67.1812 53.9841 67.2703 53.9964 67.4823 54.0056H67.8019C67.9882 54.0066 68.1723 53.9646 68.3396 53.8827C68.3796 53.9226 68.4472 54.0179 68.4933 54.0578H68.4718C68.3381 54.0562 68.2098 54.1108 68.1184 54.2084C67.9572 54.1548 67.7855 54.1401 67.6175 54.1654C67.4108 54.184 67.2056 54.2158 67.0029 54.2606C66.852 54.283 66.7225 54.3801 66.6588 54.5187C66.5913 54.6714 66.6005 54.8471 66.6834 54.992C66.794 55.1917 66.9015 55.3699 67.0152 55.5604L67.0644 55.6434C67.1608 55.7981 67.3341 55.8877 67.5161 55.8769H67.6267L67.6482 55.9138C67.7362 56.0951 67.8607 56.2562 68.0139 56.387C68.209 56.5487 68.4551 56.6358 68.7084 56.6329C68.8208 56.6323 68.9325 56.6157 69.0402 56.5837C69.5347 56.4412 70.0158 56.2561 70.4783 56.0306H70.6873C70.9427 56.0371 71.1902 55.9421 71.3756 55.7663L71.3971 55.7448L71.4125 55.7202C71.4985 55.5973 71.5753 55.4713 71.6491 55.3454C71.6477 55.3607 71.6477 55.3761 71.6491 55.3914C71.7671 55.6857 72.0575 55.874 72.3743 55.8616H72.3896C72.6782 55.8383 72.9613 55.7699 73.2285 55.6588H73.2439L73.3484 55.6219H73.373C73.6247 55.5382 73.8945 55.5244 74.1535 55.582H74.2395C74.5472 55.5523 74.8372 55.424 75.0661 55.2163C75.4701 55.6481 76.039 55.8873 76.6302 55.8739H76.8299C77.0266 55.8336 77.1731 55.6683 77.1895 55.4683C77.1941 55.4295 77.1941 55.3903 77.1895 55.3515C77.2268 55.3484 77.2638 55.3422 77.3001 55.3331C77.4894 55.2946 77.6351 55.1428 77.6658 54.952C77.7043 54.753 77.6066 54.5526 77.4261 54.4604ZM72.0455 53.4279L71.9902 53.4771C71.8643 53.584 71.7519 53.7057 71.6553 53.8397C71.5815 53.7168 71.5323 53.6276 71.4924 53.5324C71.6545 53.5086 71.8126 53.4632 71.9625 53.3972H72.0486C72.0548 53.4065 72.0548 53.4186 72.0486 53.4279L72.0455 53.4279Z" fill="#FFD800"/>
<path d="M58.3224 55.4375H58.304C58.1762 55.4969 58.0808 55.6091 58.0428 55.7448C58.0121 56.1442 58.0029 56.1873 57.8922 56.3102C57.8615 56.344 57.84 56.4239 57.8769 56.4577C58.0269 56.5254 58.1834 56.5779 58.3439 56.6144C58.3808 56.6144 58.4085 56.513 58.4884 56.2364C58.5314 56.0889 58.5805 55.9292 58.6328 55.7663C58.6328 55.7663 58.6328 55.7417 58.6021 55.6895C58.5713 55.6372 58.4085 55.4375 58.3224 55.4375ZM58.7588 55.4375C58.7993 55.474 58.8517 55.4948 58.9063 55.4959C58.9493 55.4945 58.9915 55.4829 59.0292 55.4621C59.2241 55.3177 59.3821 55.1292 59.4901 54.912C59.5147 54.8444 59.4379 54.783 59.3396 54.7062C59.2876 54.671 59.2195 54.671 59.1675 54.7062L59.0599 54.7799C58.9345 54.859 58.8144 54.9462 58.7004 55.0411C58.6553 55.0848 58.6288 55.1443 58.6266 55.207C58.621 55.2423 58.6287 55.2785 58.6482 55.3084C58.6822 55.3519 58.7191 55.393 58.7588 55.4313V55.4375ZM77.2605 54.8014L77.0177 54.6816C76.7542 54.5003 76.5424 54.2535 76.4031 53.9656C76.3417 53.8611 76.2741 53.7505 76.2034 53.6583C76.1462 53.585 76.0813 53.5181 76.0098 53.4586C75.9602 53.4204 75.9166 53.3748 75.8808 53.3234C75.5597 52.5236 75.3528 51.6826 75.2662 50.8251C75.2306 50.5926 75.1525 50.3687 75.0357 50.1645C74.633 49.5703 74.1938 49.0018 73.7205 48.4621L73.6253 48.3668L73.6007 48.3423L71.9936 47.0086C71.799 46.8565 71.5797 46.7391 71.3452 46.6614C71.183 46.6058 71.0127 46.5778 70.8413 46.5784C70.6212 46.5767 70.4029 46.6185 70.199 46.7014C70.07 46.769 69.9471 46.8489 69.8272 46.9257C69.6261 47.0666 69.4083 47.1822 69.1788 47.2698C68.9965 47.3474 68.8098 47.4141 68.6196 47.4696C68.2399 47.5575 67.885 47.7297 67.581 47.9735L67.3628 48.1763C67.0862 48.4375 67.0555 48.4621 66.8312 48.4621C66.3644 48.4423 65.9075 48.6005 65.5529 48.9046C65.2792 49.1864 64.9523 49.4109 64.5911 49.5653C64.4222 49.6164 64.2479 49.6474 64.0717 49.6574C63.8819 49.6671 63.6935 49.696 63.5094 49.7435C63.0933 49.8894 62.7101 50.116 62.3817 50.4103C62.2711 50.4963 62.1205 50.6131 62.0498 50.6592L61.933 50.7329C61.5399 51.015 61.076 51.1821 60.5933 51.2154H60.5564C60.172 51.1867 59.8401 50.9354 59.7083 50.5732C59.5994 50.175 59.7173 49.7492 60.0156 49.4639C60.1631 49.3164 60.3229 49.1719 60.4949 49.0337C60.7465 48.8375 60.9753 48.6139 61.1771 48.3668C61.3753 48.0689 61.3566 47.6767 61.131 47.3989C60.8638 47.1848 60.5466 47.0421 60.2092 46.9841H60.1047C59.9848 46.9595 59.8711 46.9441 59.7544 46.9165C59.4741 46.7946 59.2083 46.6421 58.9616 46.4617C58.8641 46.6152 58.8209 46.7969 58.8387 46.9779C58.9176 47.4057 59.1963 47.77 59.5885 47.9582L59.6345 47.9766C59.7472 48.0195 59.8674 48.0394 59.9879 48.035H60.1477C60.226 48.0322 60.3044 48.0384 60.3812 48.0534C60.4632 48.0781 60.524 48.1472 60.538 48.2316C60.538 48.2839 60.5195 48.3269 60.4519 48.3791L60.2645 48.5358C59.9294 48.7913 59.6206 49.0795 59.3426 49.3962C59.0188 49.8231 58.9408 50.3879 59.1367 50.8866C59.3638 51.4122 59.8552 51.7758 60.4243 51.8392C60.5117 51.8526 60.6 51.8597 60.6885 51.8607C60.9686 51.8504 61.2464 51.805 61.5151 51.7255H61.5397C61.5397 51.7255 61.5735 51.7255 61.5797 51.7869C61.5797 51.9037 61.595 52.0389 61.5981 52.168C61.5981 52.38 61.6165 52.5767 61.6319 52.6627C61.6786 52.8564 61.7424 53.0456 61.8224 53.2281C61.8501 53.2926 61.8685 53.3418 61.8777 53.3664C61.9039 53.4475 61.8826 53.5365 61.8224 53.5969C61.62 53.7566 61.3867 53.8728 61.1372 53.9379C61.0173 53.9533 60.8883 53.9595 60.793 53.9656H60.6885C60.6458 53.9695 60.6056 53.9879 60.5748 54.0178C60.491 54.1419 60.4258 54.2775 60.3812 54.4204C60.3382 54.5341 60.2921 54.6478 60.246 54.7461C60.104 54.9424 59.9148 55.0999 59.696 55.204L59.5423 55.2961C59.4652 55.4294 59.37 55.5514 59.2596 55.6587C59.1723 55.7287 59.0642 55.7676 58.9524 55.7694C58.8075 55.967 58.7165 56.1989 58.6881 56.4423C58.6881 56.4792 58.6727 56.5161 58.6635 56.5529V56.5867H58.685C58.7711 56.5867 58.8571 56.6144 58.9462 56.6328C59.065 56.6622 59.1865 56.6797 59.3088 56.6851C59.4159 56.6877 59.5219 56.6623 59.6161 56.6113C59.7525 56.5293 59.8599 56.4069 59.9234 56.261C59.9728 56.1677 60.0337 56.081 60.1047 56.0029C60.1459 55.9547 60.2073 55.9285 60.2706 55.9322C60.3352 55.9363 60.3991 55.9476 60.4611 55.966C60.5193 55.9831 60.579 55.9944 60.6394 55.9998C60.8934 55.9914 61.1371 55.8971 61.3308 55.7325C61.3891 55.6864 61.4475 55.6311 61.5028 55.5788C61.5856 55.4956 61.6762 55.4205 61.7732 55.3545C61.9087 55.2952 62.0557 55.2669 62.2034 55.2715C62.4101 55.2793 62.6158 55.305 62.818 55.3484C62.9183 55.3746 63.0216 55.388 63.1253 55.3883C63.2891 55.3904 63.4507 55.3513 63.5954 55.2746L64.0441 55.0319L64.2377 54.9274C64.4533 54.7691 64.6238 54.5572 64.7324 54.3128C64.8 54.1776 64.9168 53.8887 64.9168 53.8857L64.6494 53.6829V53.7013C64.5615 53.8482 64.465 53.9897 64.3606 54.1254C63.8904 54.7676 63.1314 54.8475 62.5169 54.8475H62.3909C61.6993 54.8168 61.0301 55.0963 60.5656 55.6095C60.5476 55.6299 60.5166 55.6319 60.4962 55.6139C60.4947 55.6125 60.4932 55.6111 60.4919 55.6095C60.4836 55.5921 60.4836 55.5717 60.4919 55.5542C60.5011 55.5098 60.5177 55.4672 60.541 55.4283C61.0173 54.7522 61.8316 54.6508 62.4892 54.6385C62.886 54.6273 63.2762 54.5342 63.6354 54.365C64.0153 54.143 64.2998 53.7884 64.4343 53.3694C64.5017 53.1359 64.551 52.8976 64.5818 52.6565C64.6069 52.4674 64.6418 52.2797 64.6863 52.0942C64.695 52.0709 64.7168 52.0552 64.7416 52.0542H64.757C64.7816 52.0542 64.8277 52.0758 64.8307 52.1126C64.7124 52.541 64.7124 52.9934 64.8307 53.4217C64.9337 53.6046 65.1397 53.704 65.347 53.6706C65.5182 53.6655 65.6888 53.647 65.8571 53.6153C65.9892 53.5938 66.1152 53.5753 66.2228 53.5692H66.361C66.5681 53.5765 66.774 53.6043 66.9756 53.6521C67.1527 53.6914 67.3324 53.7181 67.5134 53.732H67.8145C67.9378 53.7416 68.0606 53.708 68.1617 53.6368C68.217 53.5907 68.1986 53.5231 68.1617 53.434V53.4186C68.1576 53.4019 68.1525 53.3855 68.1464 53.3694C68.1095 53.2527 68.0573 53.0806 68.1464 53.0007C68.1608 52.9907 68.178 52.9853 68.1955 52.9853C68.2144 52.9841 68.2318 52.9953 68.2386 53.013C68.2386 53.0468 68.257 53.0806 68.2693 53.1144C68.3015 53.2584 68.3587 53.3957 68.4383 53.52C68.6682 53.7941 68.9529 54.017 69.2741 54.1745C69.5637 54.3481 69.76 54.6425 69.8088 54.9765C69.8088 55.1455 69.6429 55.2654 69.523 55.3391C69.3129 55.4524 69.0818 55.5214 68.8439 55.5419C68.7587 55.5348 68.6775 55.5027 68.6104 55.4498C68.4229 55.2777 68.4444 55.2162 68.3215 55.0134C68.2577 54.9001 68.1848 54.7922 68.1034 54.6908C67.9855 54.5625 67.8115 54.5014 67.6394 54.5279C67.445 54.5476 67.2521 54.5795 67.0617 54.6232C67.0197 54.6305 66.984 54.6581 66.9664 54.6969C66.944 54.7403 66.944 54.7918 66.9664 54.8352C67.074 55.0288 67.1815 55.207 67.2921 55.3945L67.3413 55.4774C67.3727 55.5173 67.4232 55.5373 67.4734 55.5297H67.6516C67.7263 55.5196 67.8011 55.5473 67.8514 55.6034C67.8852 55.6557 67.9159 55.711 67.9436 55.7632C68.009 55.9032 68.1032 56.0278 68.2201 56.1289C68.348 56.2342 68.5092 56.2909 68.6749 56.2887C68.7499 56.2884 68.8245 56.277 68.8961 56.2549C69.3996 56.112 69.8883 55.9217 70.3558 55.6864H70.6108C70.7726 55.6952 70.9318 55.6425 71.0564 55.5389C71.2027 55.3265 71.3332 55.1037 71.4466 54.8721C71.5469 54.6958 71.5469 54.4798 71.4466 54.3036C71.2495 54.0187 71.0913 53.7086 70.9765 53.3817L70.872 53.3449C70.7975 53.3107 70.7172 53.2909 70.6354 53.2865C70.534 53.2865 70.4633 53.3203 70.4357 53.3786L70.9734 54.4419C71.021 54.5313 71.0393 54.6334 71.0256 54.7338C70.9418 54.9525 70.8178 55.1537 70.66 55.3268C70.6467 55.3372 70.6307 55.3436 70.6139 55.3453C70.6139 55.3453 70.5801 55.3453 70.5985 55.2777C70.6609 55.0462 70.6929 54.8076 70.6938 54.5678C70.5549 54.2484 70.3916 53.9402 70.2052 53.646C70.1234 53.5398 70.0762 53.4111 70.07 53.2772C70.0761 53.2196 70.116 53.1713 70.1714 53.1543C70.2477 53.1291 70.3257 53.1096 70.4049 53.0959C70.5954 53.0529 70.7952 53.0099 70.8659 52.9023C71.0883 52.5559 71.2349 52.1664 71.2961 51.7592C71.2961 51.7377 71.3145 51.6978 71.3452 51.6978C71.376 51.6978 71.379 51.6978 71.3883 51.7439C71.4633 52.1988 71.3526 52.6649 71.081 53.0375C71.0617 53.0676 71.055 53.104 71.0625 53.1389C71.071 53.1663 71.0883 53.1901 71.1117 53.2065C71.369 53.2664 71.6394 53.2258 71.8676 53.0929C72.068 53.0896 72.2677 53.067 72.4638 53.0252L72.645 52.9915C72.6612 53.0006 72.6741 53.0146 72.6819 53.0314C72.5234 53.2126 72.4172 53.4336 72.3746 53.6706C72.3316 53.7166 72.2794 53.7627 72.2333 53.8058C72.0397 53.9412 71.9055 54.1458 71.8584 54.3773C71.855 54.423 71.8893 54.4628 71.935 54.4662C71.9371 54.4664 71.9392 54.4664 71.9414 54.4664C71.9725 54.4651 72.003 54.4567 72.0305 54.4418C72.0593 54.4276 72.0906 54.4193 72.1227 54.4173C72.1502 54.4224 72.1714 54.4447 72.1749 54.4726L71.9752 54.7799C71.9215 54.9001 71.9215 55.0375 71.9752 55.1578C71.9967 55.2285 71.9752 55.2807 72.0059 55.3422C72.0744 55.483 72.2215 55.5681 72.3777 55.5573C72.6283 55.5341 72.8738 55.473 73.106 55.376L73.2289 55.333C73.5461 55.219 73.889 55.1966 74.2184 55.2684C74.5264 55.2158 74.8079 55.061 75.0173 54.829C75.1386 54.8452 75.2489 54.908 75.3246 55.0042C75.6569 55.3726 76.1346 55.5761 76.6306 55.5604H76.7412C76.7965 55.5604 76.8118 55.5204 76.8149 55.4866C76.818 55.4528 76.7873 55.4037 76.7258 55.376L76.4185 55.2193C76.1709 55.0971 75.9709 54.8961 75.85 54.6477C75.7693 54.4061 75.6599 54.1751 75.5243 53.9594C75.5028 53.9256 75.4813 53.8918 75.4567 53.858C75.4127 53.7988 75.3737 53.7362 75.3399 53.6706C75.6693 53.8182 75.9283 54.0882 76.0621 54.4234C76.2718 54.776 76.6395 55.0051 77.0484 55.038C77.1 55.0376 77.1515 55.0325 77.2021 55.0227C77.2407 55.0168 77.2715 54.9873 77.2789 54.9489C77.3205 54.9447 77.3508 54.9075 77.3465 54.8659C77.3423 54.8244 77.3051 54.7941 77.2636 54.7983L77.2605 54.8014ZM71.4866 49.9985C71.4866 50.0293 71.4589 50.0508 71.4374 50.0508C71.4159 50.0508 71.4067 50.0508 71.3975 50.0047C71.3582 49.7157 71.2796 49.4335 71.1639 49.1658C71.1345 49.1082 71.0995 49.0537 71.0594 49.0029C70.9888 48.9046 70.9242 48.8186 70.9949 48.6956C71.0262 48.657 71.0745 48.6364 71.124 48.6403C71.1503 48.6407 71.1763 48.6459 71.2008 48.6557C71.3133 48.7294 71.3994 48.837 71.4466 48.963C71.5678 49.2955 71.5818 49.6576 71.4866 49.9985ZM74.1815 54.3005C74.1763 54.3638 74.1516 54.4239 74.1108 54.4726C73.9965 54.5294 73.8695 54.5559 73.742 54.5494C73.6345 54.5494 73.5976 54.531 73.5761 54.4972C73.5546 54.4634 73.5915 54.3866 73.5915 54.3866C73.6682 54.2189 73.8104 54.09 73.9848 54.0301C74.0361 54.0096 74.0933 54.0096 74.1446 54.0301C74.2245 54.067 74.1907 54.2606 74.1815 54.3005ZM74.919 52.6135C74.9114 52.6734 74.8937 52.7316 74.8667 52.7856C74.8498 52.8321 74.8055 52.8628 74.7561 52.8624C74.6762 52.8624 74.6823 52.7672 74.6793 52.7549C74.6765 52.6277 74.6558 52.5015 74.6178 52.38C74.5625 52.2601 74.3105 51.9191 74.1446 51.9314C74.0587 51.9608 73.9845 52.0167 73.9326 52.0911C73.8434 52.2079 73.8434 52.2233 73.8158 52.2386C73.7881 52.254 73.7513 52.2386 73.739 52.1772C73.7175 52.0925 73.7175 52.0038 73.739 51.9191C73.7632 51.8301 73.7983 51.7444 73.8434 51.664C73.8434 51.664 73.9233 51.4797 73.9541 51.4336C73.9933 51.363 74.067 51.3186 74.1477 51.3168C74.2382 51.3152 74.3236 51.359 74.375 51.4336C74.4248 51.4905 74.4671 51.5535 74.501 51.621C74.5484 51.6975 74.6041 51.7686 74.667 51.833C74.7766 51.9614 74.8564 52.1125 74.9005 52.2755C74.9263 52.3831 74.9326 52.4945 74.919 52.6043V52.6135ZM68.5643 54.7645C68.6104 54.8391 68.6505 54.9172 68.6841 54.9981C68.7456 55.1333 68.7978 55.247 68.8593 55.2685C68.8877 55.2734 68.9168 55.2734 68.9453 55.2685C69.1178 55.2553 69.2826 55.1911 69.4185 55.0841C69.4984 55.0165 69.4708 54.9735 69.437 54.9151C69.4228 54.8937 69.4104 54.8711 69.4001 54.8475C69.3678 54.7781 69.341 54.7061 69.3202 54.6324C69.2803 54.4972 69.2495 54.3835 69.1051 54.4019C68.8965 54.4321 68.6859 54.4465 68.4752 54.445C68.4752 54.445 68.4014 54.445 68.3799 54.4941C68.3584 54.5433 68.4106 54.6017 68.4721 54.657C68.5079 54.6856 68.5399 54.7187 68.5673 54.7553L68.5643 54.7645Z" fill="#E2071F"/>
<path d="M97.4679 56.221C97.4452 56.1803 97.4277 56.137 97.4156 56.092C97.4156 56.0305 97.3941 55.966 97.3849 55.9045C97.3782 55.8124 97.3596 55.7215 97.3296 55.6341C97.2851 55.5399 97.191 55.4792 97.0869 55.4774C97.0517 55.4783 97.0171 55.4866 96.9855 55.502C96.8349 55.5788 96.7458 55.6587 96.7703 55.8277C96.8422 56.0475 96.9017 56.2711 96.9486 56.4976C96.9486 56.5345 96.9793 56.6574 97.0377 56.6574L97.4709 56.516C97.4914 56.51 97.5082 56.4954 97.517 56.4761C97.557 56.4116 97.5109 56.3163 97.4679 56.221ZM96.8256 55.1517C96.7253 55.0284 96.6035 54.9243 96.4661 54.8444C96.4108 54.8075 96.3616 54.7737 96.3278 54.7461L96.3032 54.7276C96.2763 54.7034 96.2411 54.6903 96.2049 54.6908C96.0762 54.708 95.9662 54.7922 95.9161 54.912C95.9161 54.995 96.0298 55.1425 96.1834 55.3238L96.2172 55.3637C96.2779 55.4453 96.3686 55.4994 96.4692 55.5143C96.5585 55.514 96.644 55.4774 96.7058 55.4129C96.758 55.3606 96.884 55.2224 96.8256 55.1517ZM86.6668 54.5371C86.5882 54.5467 86.5093 54.5518 86.4302 54.5525H86.2181C86.1752 54.5491 86.132 54.5491 86.0891 54.5525C86.0076 54.6876 85.9601 54.8405 85.9508 54.998C85.9723 55.1793 86.1567 55.2162 86.298 55.2439C86.3525 55.2562 86.4081 55.2634 86.4639 55.2654C86.545 55.2756 86.6241 55.2354 86.6637 55.164C86.7362 54.9838 86.7887 54.7963 86.8204 54.6047C86.8291 54.5884 86.8291 54.5688 86.8204 54.5525C86.7933 54.5288 86.758 54.5167 86.7221 54.5187L86.6668 54.5371ZM96.4999 55.8123C96.251 55.8277 96.0943 55.6249 95.9437 55.4282C95.8985 55.3656 95.8493 55.3061 95.7962 55.25C95.7218 55.1667 95.6417 55.0887 95.5565 55.0165C95.4806 54.9595 95.4151 54.8899 95.363 54.8106C95.3168 54.6959 95.2798 54.5777 95.2523 54.4572C95.2247 54.3589 95.2001 54.2667 95.1786 54.2022V54.1622C95.1325 54.0424 95.0772 53.8918 94.9205 53.8549C94.8389 53.8441 94.7569 53.838 94.6746 53.8365C94.4619 53.8554 94.252 53.7775 94.1031 53.6245C94.0189 53.4912 94.0189 53.3214 94.1031 53.1881C94.1286 53.1295 94.1491 53.0689 94.1645 53.0068C94.2508 52.7314 94.2667 52.4388 94.2106 52.1556C94.2106 52.1188 94.1891 52.0788 94.1768 52.042C94.1346 51.9454 94.1187 51.8394 94.1307 51.7347C94.1468 51.6972 94.1855 51.6747 94.226 51.6794C94.2699 51.6819 94.3133 51.6901 94.3551 51.7039L94.438 51.7255C94.8318 51.8283 95.2488 51.7947 95.6211 51.6302C96.1255 51.403 96.4535 50.9051 96.463 50.3519C96.4046 49.7527 96.0359 49.175 95.3322 48.585L95.28 48.542C95.1878 48.4651 95.0772 48.373 95.0741 48.2869C95.071 48.2009 95.2892 48.1517 95.4275 48.1179L95.5135 48.0964H95.5504C95.7287 48.0612 95.8993 47.9946 96.0544 47.8997C96.4314 47.5998 96.5983 47.1072 96.4815 46.6399C96.4798 46.6297 96.4798 46.6193 96.4815 46.6091C96.4815 46.5661 96.46 46.5139 96.42 46.5139C96.4058 46.5147 96.3924 46.5214 96.3832 46.5323L96.3371 46.5753C96.2785 46.6358 96.2124 46.6885 96.1404 46.7321C95.9722 46.8195 95.7904 46.8777 95.6027 46.9041C95.4831 46.9262 95.365 46.956 95.2493 46.9932C94.8408 47.0856 94.4995 47.3643 94.3274 47.7461C94.2729 47.9462 94.3041 48.1599 94.4135 48.3361C94.5899 48.594 94.7962 48.8302 95.028 49.0398C95.3876 49.3839 95.7594 49.7404 95.8454 50.2259C95.8885 50.5166 95.7496 50.8042 95.4951 50.9511C95.3284 51.045 95.1393 51.0917 94.9481 51.0863C94.6826 51.0836 94.4216 51.0184 94.1861 50.8958C93.8936 50.7403 93.6104 50.5679 93.3379 50.3795C92.9371 50.0843 92.4977 49.8455 92.032 49.6697C91.8234 49.5851 91.6059 49.5243 91.3836 49.4884C91.0648 49.4485 90.7597 49.3349 90.4925 49.1566C90.4034 49.0982 90.3142 49.0336 90.2313 48.9722C90.009 48.789 89.7548 48.6483 89.4815 48.5573C89.3811 48.527 89.2783 48.5054 89.1742 48.4928C89.0248 48.4836 88.8801 48.4371 88.7532 48.3576L88.575 48.2285C88.3643 48.0647 88.1402 47.9187 87.9051 47.7922C87.5022 47.6091 87.0779 47.4769 86.6422 47.3989C86.5036 47.3517 86.3853 47.2585 86.3073 47.1346C86.2465 47.0508 86.1729 46.9772 86.0891 46.9164C85.792 46.6345 85.4041 46.4678 84.9951 46.4463H84.8784C84.6605 46.4891 84.4603 46.5961 84.3038 46.7536C83.8889 47.1162 83.4434 47.4419 83.0101 47.7523C82.3322 48.2089 81.703 48.7341 81.1326 49.3194C80.5733 49.8971 80.3705 50.6162 80.1738 51.3137C80.1462 51.4151 80.1155 51.5196 80.0847 51.621C80.0325 51.8115 79.9833 52.0082 79.9372 52.1987C79.6822 53.2281 79.4148 54.2544 78.4008 54.9212C78.3608 54.947 78.3493 55.0002 78.375 55.0402C78.3855 55.0563 78.401 55.0686 78.4192 55.0749C78.7439 55.1661 79.0918 55.0577 79.3073 54.7983C79.5746 54.491 79.7098 54.1838 80.0233 53.8457C80.0233 53.8457 80.0694 53.8027 80.1001 53.8089C80.1308 53.815 80.1308 53.8273 80.1216 53.8672C80.0766 53.9988 80.009 54.1215 79.9219 54.2298C79.8349 54.3438 79.7655 54.4702 79.716 54.6047C79.5783 54.9012 79.3667 55.1573 79.1014 55.3484C79.0785 55.3626 79.0577 55.3802 79.0399 55.4006C79.0184 55.4283 79.0184 55.4406 79.0184 55.4406C79.0184 55.5051 79.0645 55.545 79.1659 55.5512C79.7406 55.5512 80.1523 55.1425 80.5487 54.7461C80.5664 54.728 80.5912 54.719 80.6163 54.7215C80.6375 54.7159 80.6597 54.7159 80.6808 54.7215C80.7283 54.7565 80.7734 54.7945 80.8161 54.8352C80.9351 54.9623 81.0856 55.0556 81.2524 55.1056C81.4485 55.0736 81.6468 55.0562 81.8455 55.0534H82.0022C82.2111 55.1179 82.4232 55.1947 82.6168 55.2715C82.7612 55.3268 82.924 55.3822 83.0562 55.4313C83.2467 55.4313 83.385 55.247 83.4864 55.0872C83.5201 54.9802 83.5201 54.8654 83.4864 54.7584C83.4718 54.6959 83.4646 54.632 83.4649 54.5679C83.5088 54.5535 83.5561 54.5535 83.6001 54.5679C83.645 54.5728 83.6903 54.5728 83.7353 54.5679C83.7983 54.5544 83.8385 54.4923 83.825 54.4292C83.8248 54.4283 83.8246 54.4274 83.8244 54.4265C83.7806 54.2594 83.7021 54.1034 83.5939 53.9687C83.5081 53.8533 83.4397 53.726 83.3911 53.5907C83.3131 53.4159 83.2013 53.2582 83.0623 53.1267C82.907 52.9873 82.7914 52.8091 82.7274 52.6104V52.5521C82.7274 52.5367 82.7827 52.5521 82.7827 52.5521C82.8503 52.6012 82.921 52.6596 82.9886 52.7149C83.1882 52.9106 83.4364 53.0496 83.7076 53.1175C83.9754 53.1536 84.2459 53.165 84.5158 53.1513C84.5748 53.1449 84.6175 53.0918 84.6111 53.0328C84.6105 53.0271 84.6095 53.0215 84.608 53.0161C84.4878 52.776 84.3911 52.5249 84.3191 52.2663C84.2012 51.8966 84.1821 51.5025 84.2638 51.1232C84.2698 51.0924 84.297 51.0704 84.3283 51.0709C84.372 51.0885 84.4027 51.1286 84.4082 51.1754V51.2277C84.4451 51.7777 84.482 52.297 84.82 52.7426C84.9088 52.8669 85.027 52.9672 85.1641 53.0345C85.2561 53.0774 85.3394 53.1368 85.41 53.2097C85.4799 53.3085 85.4928 53.4369 85.4438 53.5477L85.032 54.1622C84.9301 54.2936 84.853 54.4425 84.8046 54.6017C84.7832 54.7494 84.7832 54.8995 84.8046 55.0472V55.081C84.7908 55.0737 84.7799 55.0617 84.7739 55.0472C84.6213 54.8276 84.5782 54.5499 84.6571 54.2944C84.7124 54.1684 85.0474 53.6798 85.1457 53.5354C85.1764 53.4862 85.201 53.434 85.1764 53.4002C85.0711 53.3267 84.9519 53.2755 84.8261 53.2496C84.7695 53.273 84.7228 53.3154 84.694 53.3694L84.6725 53.4032L84.1624 54.3251V54.3589C84.1242 54.4469 84.1135 54.5444 84.1317 54.6385C84.1598 54.7723 84.1946 54.9046 84.2361 55.0349C84.2361 55.0657 84.2546 55.0964 84.2607 55.1271C84.2899 55.2677 84.344 55.402 84.4205 55.5235C84.4639 55.5747 84.5286 55.6031 84.5957 55.6003C84.6345 55.6032 84.6735 55.6032 84.7124 55.6003C84.7734 55.5898 84.8358 55.5898 84.8968 55.6003C84.9702 55.6263 85.0343 55.6733 85.0812 55.7355C85.1321 55.803 85.2014 55.8543 85.2809 55.883C85.4376 55.9353 85.5882 55.9783 85.7633 56.0213C85.9808 56.0741 86.1952 56.1387 86.4056 56.2149C86.5241 56.2577 86.6484 56.2825 86.7743 56.2887C86.9005 56.2905 87.0222 56.2418 87.1123 56.1535C87.2545 56.0396 87.3478 55.8759 87.3735 55.6956C87.4073 55.5205 87.4657 55.5082 87.5917 55.502C87.6368 55.5039 87.6817 55.4966 87.7238 55.4805C87.8687 55.3641 87.9862 55.2172 88.068 55.0503L88.1479 54.9151C88.1725 54.881 88.1864 54.8403 88.1878 54.7983C88.1879 54.7304 88.1328 54.6754 88.065 54.6754C88.0639 54.6754 88.0629 54.6754 88.0619 54.6754H87.3397C87.1154 54.6754 87.0324 54.9028 86.9403 55.0903C86.9134 55.1601 86.8816 55.2278 86.845 55.2931C86.7821 55.4023 86.6636 55.4674 86.5377 55.4621C86.4764 55.4548 86.4157 55.4425 86.3564 55.4252C86.0491 55.3545 85.7603 55.2777 85.6374 54.9888C85.6113 54.9067 85.6274 54.8171 85.6804 54.7492C85.8538 54.5393 86.0461 54.346 86.255 54.1715C86.5705 54.0948 86.8419 53.8943 87.0079 53.6153C87.0397 53.5675 87.0626 53.5144 87.0755 53.4586C87.0918 53.3764 87.1364 53.3024 87.2015 53.2496C87.2506 53.225 87.2875 53.2342 87.2967 53.2742C87.3094 53.4278 87.2796 53.5819 87.2107 53.7197L87.1738 53.815V53.8396H87.1984C87.2813 53.8443 87.3644 53.8443 87.4473 53.8396C87.7396 53.8313 88.0306 53.7974 88.3169 53.7382C88.5991 53.6791 88.886 53.6452 89.1742 53.6368H89.2695C89.4016 53.6368 89.5276 53.6368 89.6505 53.6583C89.7515 53.6717 89.853 53.681 89.9547 53.6859H90.0807C90.3993 53.7067 90.6953 53.5209 90.8151 53.225C90.8933 52.8315 90.8849 52.4257 90.7905 52.0358C90.7916 52.0205 90.7916 52.0051 90.7905 51.9897C90.7905 51.9682 90.7905 51.9467 90.8182 51.9344C90.8459 51.9221 90.8919 51.9344 90.9073 51.9805C91.0365 52.3639 91.1271 52.7591 91.1777 53.1605C91.2406 53.5036 91.3757 53.8293 91.5741 54.1161C91.8489 54.5235 92.312 54.7631 92.8033 54.7522C92.9217 54.7475 93.0398 54.7352 93.1566 54.7154C93.2118 54.7096 93.2674 54.7096 93.3226 54.7154C93.9593 54.7124 94.5599 55.011 94.942 55.5204C94.9458 55.5282 94.9458 55.5373 94.942 55.545C94.9353 55.5696 94.9099 55.5841 94.8854 55.5774C94.8837 55.5769 94.8821 55.5764 94.8805 55.5758L94.8252 55.5327C94.4877 55.2165 94.07 54.9987 93.6176 54.9028C93.5303 54.8876 93.4419 54.8804 93.3533 54.8813C93.2197 54.8836 93.0863 54.8939 92.9538 54.912C92.8295 54.9286 92.7043 54.9379 92.579 54.9397C92.4329 54.942 92.2879 54.9159 92.1518 54.8628C91.6337 54.6318 91.229 54.2039 91.0272 53.6737C91.0159 53.6516 90.9935 53.6375 90.9688 53.6368C90.9523 53.6377 90.9364 53.643 90.9227 53.6521C90.8612 53.6921 90.8489 53.7136 90.8397 53.7505C90.852 53.8953 90.8746 54.039 90.9073 54.1807C90.9467 54.5553 91.1505 54.893 91.4635 55.1025C91.6626 55.2664 91.9028 55.3727 92.158 55.4098C92.2375 55.4206 92.3181 55.4206 92.3976 55.4098C92.5348 55.379 92.675 55.3635 92.8156 55.3637C93.2774 55.3681 93.726 55.5187 94.0969 55.7939C94.1613 55.8335 94.222 55.8787 94.2782 55.9291C94.356 56.004 94.4465 56.0644 94.5456 56.1073C94.6106 56.1315 94.6791 56.145 94.7484 56.1473C94.8701 56.1454 94.9882 56.1056 95.0864 56.0336C95.1312 56.0108 95.1805 55.9982 95.2308 55.9967C95.3691 55.9967 95.4459 56.1043 95.5381 56.2426C95.6005 56.3359 95.6726 56.4224 95.7532 56.5007C95.8754 56.6012 96.0317 56.6508 96.1895 56.639H96.6842V56.6205C96.673 56.3358 96.6062 56.0561 96.4876 55.797L96.4999 55.8123ZM82.0575 54.5217C82.019 54.5736 81.9556 54.6007 81.8915 54.5924C81.8254 54.5929 81.7604 54.5748 81.7041 54.5402C81.5942 54.4548 81.5305 54.3229 81.532 54.1837C81.5239 54.1401 81.5419 54.0957 81.5781 54.07C81.5993 54.0571 81.6242 54.0517 81.6488 54.0547C81.7795 54.0644 81.9015 54.1238 81.9899 54.2206C81.9899 54.2206 82.1036 54.3865 82.039 54.5064L82.0575 54.5217ZM82.1988 52.2478C82.1704 52.3005 82.1074 52.3241 82.0513 52.3031C81.9955 52.2733 81.9512 52.2257 81.9253 52.1679C81.8885 52.1065 81.8608 52.0512 81.7778 52.0573C81.7077 52.067 81.6422 52.0981 81.5904 52.1464C81.5597 52.171 81.4429 52.257 81.4122 52.2847C81.2433 52.3964 81.1159 52.5605 81.0496 52.7518C81.0496 52.7968 81.0424 52.8307 81.0281 52.8532C81.0262 52.9191 80.9973 52.9813 80.9482 53.0253H80.9174C80.8913 53.0249 80.8662 53.0151 80.8468 52.9976C80.8254 52.9831 80.8127 52.9589 80.813 52.9331C80.7771 52.6224 80.8912 52.3133 81.1202 52.1003C81.2633 51.9734 81.3921 51.8312 81.5043 51.6763C81.5597 51.6025 81.618 51.5288 81.6795 51.4581C81.741 51.3874 81.7994 51.4581 81.9253 51.5872C82.0405 51.7469 82.1374 51.919 82.2142 52.1003C82.2212 52.1471 82.209 52.1948 82.1804 52.2325L82.1988 52.2478ZM84.9122 48.4405L84.7186 48.6188C84.4857 48.8158 84.2791 49.042 84.104 49.2917C84.0329 49.3951 83.9721 49.5052 83.9227 49.6205C83.9227 49.6205 83.9042 49.6574 83.8797 49.6574C83.8668 49.6569 83.8547 49.6514 83.8459 49.642C83.8156 49.4717 83.8326 49.2964 83.895 49.135C84.0624 48.7397 84.337 48.3991 84.6878 48.1517C84.7296 48.1264 84.7773 48.1126 84.8261 48.1118C84.8891 48.1076 84.948 48.1432 84.9736 48.2009C85.0035 48.2859 84.9686 48.3801 84.8906 48.4252L84.9122 48.4405Z" fill="#E2071F"/>
<path d="M43.4623 35.5315H49.7924L46.4491 30.1325L40.3034 39.8796H37.4979L44.9803 28.1812C45.312 27.6995 45.8612 27.414 46.446 27.4192C47.02 27.413 47.5603 27.69 47.8903 28.1597L55.388 39.8796H52.5917L51.2735 37.7071H44.8635L43.4654 35.5377M72.51 37.7071V27.5421H70.1316V38.7027C70.134 39.0111 70.2602 39.3057 70.4819 39.5201C70.7089 39.7528 71.0204 39.8836 71.3454 39.8827H82.1557L83.5631 37.704H72.5008M33.245 35.8849C35.5488 35.8224 37.3657 33.904 37.3032 31.6002C37.243 29.3844 35.4609 27.6023 33.245 27.5421H22.871V39.8827H25.2433V29.7177H33.1067C34.2098 29.7177 35.1041 30.6119 35.1041 31.715C35.1041 32.8181 34.2098 33.7124 33.1067 33.7124H26.414L33.5001 39.8827H36.9417L32.1818 35.888H33.2635M8.28416 39.8827H15.4562C18.864 39.8827 21.6265 37.1202 21.6265 33.7124C21.6265 30.3046 18.864 27.5421 15.4562 27.5421H8.27187C4.8641 27.5421 2.10156 30.3046 2.10156 33.7124C2.10156 37.1202 4.8641 39.8827 8.27187 39.8827M15.2841 37.7071H8.43166C6.22543 37.7071 4.43694 35.9186 4.43694 33.7124C4.43694 31.5062 6.22543 29.7177 8.43166 29.7177H15.2841C17.4904 29.7177 19.2789 31.5062 19.2789 33.7124C19.2789 35.9186 17.4904 37.7071 15.2841 37.7071ZM60.3415 39.8796H67.6641L69.0592 37.7071H60.5013C58.2951 37.7071 56.5066 35.9186 56.5066 33.7124C56.5066 31.5062 58.2951 29.7177 60.5013 29.7177H67.4582L68.8625 27.5359H60.3446C56.936 27.4599 54.1111 30.1615 54.0351 33.5702C53.9591 36.9788 56.6607 39.8036 60.0693 39.8796C60.1611 39.8817 60.2528 39.8817 60.3446 39.8796M89.3585 37.7071C87.5711 37.7073 86.0011 36.5201 85.5144 34.8002H95.6548L97.053 32.6246H85.5144C86.0011 30.9047 87.5711 29.7175 89.3585 29.7177H96.3216L97.7136 27.5359H89.2018C85.794 27.5359 83.0315 30.2985 83.0315 33.7062C83.0315 37.114 85.794 39.8765 89.2018 39.8765H96.5244L97.9164 37.704H89.3585" fill="white"/>
</g>
<defs>
<clipPath id="clip0_414_705">
<rect width="100" height="100" fill="white"/>
</clipPath>
</defs>
</svg>
