<svg width="100" height="100" viewBox="0 0 100 100" fill="none" xmlns="http://www.w3.org/2000/svg">
<g clip-path="url(#clip0_414_706)">
<path d="M7.85156 37.2916V44.7526L13.2054 38.1024C13.4409 37.862 14.3049 37.2916 14.6107 37.2916H18.3782L18.4501 44.2359L21.5915 40.3942H20.3357L22.7365 37.2916H30.6777L18.8971 52.0676C18.5779 52.3865 17.7096 52.9523 17.2701 52.9523H13.0964V46.0823L7.59301 52.9523H2.45898V37.2916L7.85156 37.2916Z" fill="white"/>
<path d="M84.6773 52.9522H80.1712V45.6759C80.1712 45.5918 79.9355 45.1299 79.8635 45.0233C79.108 43.9034 77.1512 44.0951 76.6837 45.3649C76.6581 45.4344 76.5515 45.7912 76.5515 45.8237V52.9522H72.0454V45.8237C72.0454 45.78 71.8758 45.3 71.837 45.2195C71.3062 44.1187 69.5839 43.9938 68.7954 44.8637C68.6948 44.9747 68.3518 45.5652 68.3518 45.6759V52.9522H63.8457V40.6158H68.3518C68.3814 40.7244 68.2595 41.1169 68.4605 41.0574C68.6447 41.0028 68.9173 40.7876 69.1452 40.7074C71.1206 40.0118 73.5304 40.3572 75.0361 41.8539C77.4649 39.8634 81.6259 39.7491 83.7548 42.2401C84.0577 42.5945 84.6773 43.6041 84.6773 44.0508V52.9522Z" fill="white"/>
<path d="M58.3797 52.9523L58.3789 52.2136C54.7223 54.5454 49.4452 52.7732 48.2966 48.5197C46.8328 43.0986 52.2821 38.8727 57.3429 40.877C57.4862 40.9338 58.3336 41.4051 58.3793 41.3542L58.3797 40.6159H62.8858V52.9523H58.3797ZM55.0389 44.2565C51.4762 44.6429 52.033 49.4552 55.5336 49.2584C59.3232 49.0454 58.818 43.8467 55.0389 44.2565Z" fill="white"/>
<path d="M97.4574 44.7526H92.545C92.39 44.6355 92.4528 44.426 92.3786 44.2542C92.1388 43.6997 90.5172 43.7166 90.6589 44.4927C90.7052 44.7457 91.3015 44.8842 91.5318 44.9532C93.8207 45.6389 97.303 45.4202 97.5301 48.632C97.8053 52.5236 93.1437 53.5735 90.1178 53.1634C87.6968 52.8352 85.2547 51.3387 85.4903 48.5939H90.2181C90.0876 49.218 90.814 49.7195 91.3626 49.7757C92.4049 49.8826 93.6144 48.9661 92.0813 48.6144C90.5245 48.2573 89.273 48.3232 87.7537 47.5494C83.8063 45.5387 85.378 41.5393 89.2261 40.6212C92.2199 39.9069 97.6951 40.6945 97.4574 44.7526Z" fill="white"/>
<path d="M36.3655 37.2916H31.8594V52.9523H36.3655V37.2916Z" fill="white"/>
<path d="M41.8323 37.2916H37.3262V52.9523H41.8323V37.2916Z" fill="white"/>
<path d="M47.2991 40.8374H42.793V52.9522H47.2991V40.8374Z" fill="white"/>
<path d="M30.9736 40.8374V52.9522H26.3936V43.9769L28.8682 40.8374H30.9736Z" fill="white"/>
<path d="M65.619 57.0151L67.1695 61.2996L68.6847 57.0151H70.1251V62.5185C70.1251 62.5642 70.1258 62.6151 70.1258 62.7025L69.2387 62.7032V57.9016L67.4706 62.7022L66.8347 62.7083L64.9542 57.9016V62.7032H64.1416V57.0151H65.619Z" fill="white"/>
<path d="M47.2991 40.0249H42.793V37.2916H46.7451C46.9205 37.2916 47.2991 37.8303 47.2991 37.9934L47.2991 40.0249Z" fill="white"/>
<path d="M55.2025 57.0151V57.7538H52.0261V59.4529H54.9071L54.9101 60.1561C54.8232 60.1561 54.8246 60.1564 54.7643 60.1564C53.6006 60.1564 52.8172 60.1461 52.1769 60.1481C52.0907 60.1484 52.1099 60.1488 52.0261 60.1488V61.9645H55.498V62.7032H51.1396V57.0151H55.2025Z" fill="white"/>
<path d="M60.291 57.0241L62.5152 62.7029L61.6357 62.7023L61.0667 61.295L58.371 61.3454L57.8516 62.6933L56.9014 62.7025L59.2014 57.0252L60.291 57.0241ZM60.7426 60.561L59.7454 57.9009L58.7481 60.561H60.7426Z" fill="white"/>
<path d="M35.9223 57.0151V57.7538H32.7458V59.4159L32.8566 59.5267H35.5529V60.2655H32.7458V62.7032H31.8594V57.0151H35.9223Z" fill="white"/>
<path d="M49.4413 57.0151V57.7538H47.5206V62.7032H46.6342V57.7538H44.6396V57.0151H49.4413Z" fill="white"/>
<path d="M39.1727 62.7032V57.7538H37.4736V57.0151H39.9483L40.0591 57.0245V62.4446C40.0591 62.5108 40.0271 62.6711 39.9408 62.6918L39.1727 62.7032Z" fill="white"/>
</g>
<defs>
<clipPath id="clip0_414_706">
<rect width="100" height="100" fill="white"/>
</clipPath>
</defs>
</svg>
