<svg width="15" height="9" viewBox="0 0 15 9" fill="none" xmlns="http://www.w3.org/2000/svg">
<path d="M0 0H15V9H0V0Z" fill="#1E50A0"/>
<path d="M0 0H15V9H0V0Z" fill="white"/>
<path d="M0 5.92105H15V9H0V5.92105ZM0 0H15V3.07895H0V0Z" fill="#61B2E4"/>
<path d="M7.49997 4.0019L7.799 3.55261L7.78448 4.09711L8.28287 3.91451L7.96013 4.34603L8.46771 4.49998L7.96013 4.65393L8.28287 5.08545L7.78448 4.90285L7.799 5.44735L7.49997 4.99806L7.20094 5.44735L7.21545 4.90285L6.71707 5.08545L7.03981 4.65393L6.53223 4.49998L7.03981 4.34603L6.71707 3.91451L7.21545 4.09711L7.20094 3.55261L7.49997 4.0019Z" fill="#F1B31C" stroke="#F1B31C" stroke-width="0.25" stroke-linecap="round" stroke-linejoin="round"/>
</svg>
