<svg width="15" height="9" viewBox="0 0 15 9" fill="none" xmlns="http://www.w3.org/2000/svg">
<path d="M0 0H15V9H0V0Z" fill="#1E50A0"/>
<path d="M11.9113 5.19755L12.1356 4.48702L12.3599 5.19755L11.7727 4.75821L12.4985 4.75844L11.9113 5.19755ZM3.75009 7.10508L3.37316 7.45489L3.41066 6.94094L2.90332 6.86326L3.32671 6.57194L3.07098 6.12526L3.56163 6.27613L3.75009 5.797L3.93856 6.27613L4.42921 6.12526L4.17348 6.57194L4.59687 6.86326L4.08953 6.94094L4.12703 7.45489L3.75009 7.10508ZM9.55655 4.36292L9.28727 4.61279L9.31413 4.24568L8.95171 4.19002L9.25413 3.98208L9.07147 3.66305L9.42203 3.77081L9.55655 3.42858L9.69106 3.77081L10.0416 3.66305L9.85897 3.98208L10.1614 4.19002L9.79896 4.24568L9.82582 4.61279L9.55655 4.36292ZM13.1856 3.65239L12.9163 3.90226L12.9432 3.53516L12.5807 3.4795L12.8832 3.27155L12.7005 2.95252L13.0511 3.06029L13.1856 2.71805L13.3201 3.06029L13.6707 2.95252L13.488 3.27155L13.7904 3.4795L13.428 3.53516L13.4549 3.90226L13.1856 3.65239ZM11.2501 2.23134L10.9808 2.48121L11.0077 2.1141L10.6453 2.05844L10.9477 1.8505L10.765 1.53147L11.1156 1.63923L11.2501 1.297L11.3846 1.63923L11.7352 1.53147L11.5525 1.8505L11.8549 2.05844L11.4925 2.1141L11.5194 2.48121L11.2501 2.23134ZM11.2501 7.20502L10.9808 7.45489L11.0077 7.08779L10.6453 7.03213L10.9477 6.82418L10.765 6.50515L11.1156 6.61292L11.2501 6.27068L11.3846 6.61292L11.7352 6.50515L11.5525 6.82418L11.8549 7.03213L11.4925 7.08779L11.5194 7.45489L11.2501 7.20502Z" fill="white" stroke="white" stroke-width="0.25" stroke-linecap="round" stroke-linejoin="round"/>
<path d="M1.18235 0.236816H0.241943V0.789132L6.5596 4.49997H7.50001V3.94766L1.18235 0.236816Z" fill="white"/>
<path d="M7.50001 0.789132V0.236816H6.5596L0.241943 3.94766V4.49997H1.18235L7.50001 0.789132Z" fill="white"/>
<path d="M0.241943 1.65784H7.50001V3.07889H0.241943V1.65784Z" fill="white"/>
<path d="M3.14526 0.236816H4.59688V4.49997H3.14526V0.236816Z" fill="white"/>
<path d="M3.62915 0.236816H4.11302V4.49997H3.62915V0.236816Z" fill="#D22F27"/>
<path d="M0.241943 2.13155H7.50001V2.60524H0.241943V2.13155ZM7.50001 3.94766L6.02106 3.07892H5.08065L7.50001 4.49997V3.94766ZM7.50001 0.236816H6.5596L4.59678 1.38976V1.65787H5.08065L7.50001 0.236816ZM0.241943 0.789132L1.7209 1.65787H2.6613L0.241943 0.236816V0.789132ZM0.241943 4.49997H1.18235L3.14517 3.34703V3.07892H2.6613L0.241943 4.49997Z" fill="#D22F27"/>
</svg>
