<svg width="15" height="9" viewBox="0 0 15 9" fill="none" xmlns="http://www.w3.org/2000/svg">
<path d="M0 0H15V9H0V0Z" fill="#D22F27"/>
<path d="M0 5.92102H15V8.99997H0V5.92102Z" fill="#5C9E31"/>
<path d="M0 0H15V3.07895H0V0Z" fill="#61B2E4"/>
<path d="M8.08934 4.17086L8.23111 3.78955L8.36708 4.17276L8.74281 4.00128L8.56208 4.36649L8.9516 4.50528L8.56015 4.63839L8.73531 5.00621L8.36224 4.82928L8.22047 5.2106L8.0845 4.82739L7.70877 4.99886L7.8895 4.63365L7.49998 4.49486L7.89144 4.36176L7.71628 3.99394L8.08934 4.17086ZM6.1766 4.50007C6.18057 4.27606 6.26452 4.06047 6.41389 3.89071C6.56326 3.72095 6.76862 3.60774 6.99434 3.57071C6.92957 3.55876 6.8638 3.55274 6.79789 3.55271C6.66716 3.54698 6.53661 3.56724 6.4141 3.61227C6.29159 3.6573 6.17967 3.72616 6.0851 3.81469C5.99052 3.90323 5.91525 4.0096 5.86383 4.1274C5.8124 4.2452 5.78589 4.37197 5.78589 4.50007C5.78589 4.62818 5.8124 4.75495 5.86383 4.87275C5.91525 4.99054 5.99052 5.09692 6.0851 5.18545C6.17967 5.27399 6.29159 5.34285 6.4141 5.38788C6.53661 5.4329 6.66716 5.45317 6.79789 5.44744C6.86372 5.44739 6.9294 5.44137 6.9941 5.42944C6.76846 5.39231 6.56322 5.27905 6.41395 5.1093C6.26468 4.93956 6.18055 4.72402 6.1766 4.50007Z" fill="white" stroke="white" stroke-width="0.25" stroke-linecap="round" stroke-linejoin="round"/>
</svg>
