<svg width="15" height="9" viewBox="0 0 15 9" fill="none" xmlns="http://www.w3.org/2000/svg">
<path d="M0 0H15V9H0V0Z" fill="#5C9E31"/>
<path d="M13.0701 4.50553L7.46759 7.97053L1.92993 4.569L7.53243 1.104L13.0701 4.50553Z" fill="#FCEA2B"/>
<path d="M7.49993 6.63157C8.70248 6.63157 9.67735 5.67723 9.67735 4.49999C9.67735 3.32275 8.70248 2.36841 7.49993 2.36841C6.29737 2.36841 5.32251 3.32275 5.32251 4.49999C5.32251 5.67723 6.29737 6.63157 7.49993 6.63157Z" fill="#1E50A0"/>
<path d="M9.47394 5.39579C9.55387 5.2254 9.61049 5.04542 9.64233 4.86053C9.46238 4.49236 9.20003 4.1686 8.87476 3.91329C8.54949 3.65797 8.16965 3.47766 7.76345 3.38574C7.35724 3.29382 6.9351 3.29264 6.52837 3.38231C6.12164 3.47198 5.74076 3.65018 5.41402 3.90368C5.36723 4.05892 5.33866 4.21888 5.32886 4.38045C5.64993 4.12261 6.02819 3.94193 6.43338 3.85285C6.83856 3.76377 7.25942 3.76877 7.66228 3.86745C8.06514 3.96613 8.43881 4.15575 8.75339 4.42114C9.06798 4.68653 9.31474 5.02031 9.47394 5.39579Z" fill="white"/>
</svg>
