<svg width="15" height="9" viewBox="0 0 15 9" fill="none" xmlns="http://www.w3.org/2000/svg">
<path d="M0 0H15V9H0V0Z" fill="white"/>
<path d="M0 0H4.1129V9H0V0ZM10.8871 0H15V9H10.8871V0Z" fill="#D22F27"/>
<path d="M7.49992 6.86843V5.68422V6.86843ZM7.49992 5.68422H9.14508L8.95153 5.21054L9.91928 4.26317V3.55264H9.19347L8.22573 4.50001V2.84212L7.49992 2.13159M7.49992 5.68422H5.85476L6.04831 5.21054L5.08057 4.26317V3.55264H5.80637L6.77411 4.50001V2.84212L7.49992 2.13159" fill="#D22F27"/>
<path d="M7.49992 6.86843V5.68422M7.49992 5.68422H9.14508L8.95153 5.21054L9.91928 4.26317V3.55264H9.19347L8.22573 4.50001V2.84212L7.49992 2.13159L6.77411 2.84212V4.50001L5.80637 3.55264H5.08057V4.26317L6.04831 5.21054L5.85476 5.68422H7.49992Z" stroke="#D22F27" stroke-width="0.5" stroke-linecap="round" stroke-linejoin="round"/>
</svg>
