<svg width="15" height="9" viewBox="0 0 15 9" fill="none" xmlns="http://www.w3.org/2000/svg">
<path d="M0 0H15V9H0V0Z" fill="#D22F27"/>
<path d="M4.59673 4.44076C4.83056 4.44076 5.02011 4.2552 5.02011 4.02629C5.02011 3.79738 4.83056 3.61182 4.59673 3.61182C4.3629 3.61182 4.17334 3.79738 4.17334 4.02629C4.17334 4.2552 4.3629 4.44076 4.59673 4.44076Z" fill="#F1B31C"/>
<path d="M4.59673 2.07236C4.83056 2.07236 5.02011 1.88679 5.02011 1.65788C5.02011 1.42897 4.83056 1.24341 4.59673 1.24341C4.3629 1.24341 4.17334 1.42897 4.17334 1.65788C4.17334 1.88679 4.3629 2.07236 4.59673 2.07236Z" fill="#F1B31C"/>
<path d="M5.5645 3.73019C5.79833 3.73019 5.98789 3.54463 5.98789 3.31572C5.98789 3.08681 5.79833 2.90125 5.5645 2.90125C5.33067 2.90125 5.14111 3.08681 5.14111 3.31572C5.14111 3.54463 5.33067 3.73019 5.5645 3.73019Z" fill="#F1B31C"/>
<path d="M5.5645 2.54599C5.79833 2.54599 5.98789 2.36042 5.98789 2.13151C5.98789 1.90261 5.79833 1.71704 5.5645 1.71704C5.33067 1.71704 5.14111 1.90261 5.14111 2.13151C5.14111 2.36042 5.33067 2.54599 5.5645 2.54599Z" fill="#F1B31C"/>
<path d="M2.06328 3.65804L2.66135 1.76331L3.25965 3.65804L1.6936 2.48686H3.62909L2.06328 3.65804Z" fill="#F1B31C" stroke="#F1B31C" stroke-width="0.25" stroke-linecap="round" stroke-linejoin="round"/>
</svg>
