<svg width="16" height="10" viewBox="0 0 16 10" fill="none" xmlns="http://www.w3.org/2000/svg">
<path d="M0 0H15.5V9.5H0V0Z" fill="white"/>
<path d="M7.75 7C8.99264 7 10 5.99264 10 4.75C10 3.50736 8.99264 2.5 7.75 2.5C6.50736 2.5 5.5 3.50736 5.5 4.75C5.5 5.99264 6.50736 7 7.75 7Z" fill="#D22F27"/>
<path d="M5.78176 3.669C5.64531 3.92944 5.61644 4.233 5.70136 4.51449C5.78627 4.79598 5.97819 5.03294 6.2359 5.17447C6.49361 5.31601 6.79655 5.35084 7.07965 5.27147C7.36275 5.1921 7.60344 5.00487 7.75001 4.75C7.75576 4.74 7.75851 4.72925 7.76376 4.71925L7.76976 4.72275C7.92435 4.47167 8.17146 4.29145 8.45776 4.22097C8.74406 4.1505 9.0466 4.19542 9.30007 4.34604C9.55354 4.49667 9.73762 4.74092 9.81259 5.02608C9.88755 5.31124 9.84739 5.61444 9.70076 5.87025L9.70151 5.87075C9.55694 6.12814 9.36309 6.35453 9.13103 6.53701C8.89896 6.71948 8.63323 6.85446 8.349 6.93424C7.77498 7.09535 7.16046 7.02184 6.64063 6.72987C6.12081 6.4379 5.73826 5.95139 5.57714 5.37736C5.41603 4.80334 5.48954 4.18882 5.78151 3.669M5.83276 3.57175L5.83776 3.5745C5.83026 3.586 5.82101 3.59575 5.81401 3.60775C5.82076 3.596 5.82576 3.58325 5.83276 3.57175Z" fill="#1E50A0"/>
<path d="M4.80799 6.22549L5.55799 7.52449M3.94199 6.72549L4.69199 8.02449M4.37499 6.47549L4.62499 6.90849M4.87499 7.34149L5.12499 7.77449M10.125 7.77449L10.375 7.34149M10.625 6.90849L10.875 6.47549M10.558 8.02449L10.808 7.59149M11.058 7.15849L11.308 6.72549M9.69199 7.52449L9.94199 7.09149M10.192 6.65849L10.442 6.22549M3.94199 2.77449L4.69199 1.47549M4.37499 3.02449L5.12499 1.72549M4.80799 3.27449L5.55799 1.97549M9.94199 1.97549L10.192 2.40849M10.442 2.84149L10.692 3.27449M10.808 1.47549L11.058 1.90849M11.308 2.34149L11.558 2.77449M10.375 1.72549L11.125 3.02449" stroke="black" stroke-width="0.25" stroke-linecap="round" stroke-linejoin="round"/>
</svg>
