<svg width="15" height="9" viewBox="0 0 15 9" fill="none" xmlns="http://www.w3.org/2000/svg">
<path d="M0 0H15V9H0V0Z" fill="white"/>
<path d="M0 0H5.08065V9H0V0Z" fill="#5C9E31"/>
<path d="M9.91943 0H15.0001V9H9.91943V0Z" fill="#D22F27"/>
<path d="M7.50009 5.0921C7.96776 5.0921 8.34687 4.72097 8.34687 4.26315C8.34687 3.80534 7.96776 3.4342 7.50009 3.4342C7.03243 3.4342 6.65332 3.80534 6.65332 4.26315C6.65332 4.72097 7.03243 5.0921 7.50009 5.0921Z" fill="#A57939" stroke="#A57939" stroke-width="0.5" stroke-miterlimit="10"/>
<path d="M6.04834 5.32556C6.21675 5.54703 6.43571 5.7269 6.68775 5.85082C6.93978 5.97473 7.21792 6.03926 7.49995 6.03926C7.78199 6.03926 8.06012 5.97473 8.31216 5.85082C8.56419 5.7269 8.78315 5.54703 8.95157 5.32556" stroke="#5C9E31" stroke-width="0.5" stroke-linecap="round" stroke-linejoin="round"/>
</svg>
