<svg width="16" height="9" viewBox="0 0 16 9" fill="none" xmlns="http://www.w3.org/2000/svg">
<path d="M0 0H15.5V9H0V0Z" fill="#1E50A0"/>
<path d="M1.22175 0.236816H0.25V0.789132L6.77825 4.49997H7.75V3.94766L1.22175 0.236816Z" fill="white"/>
<path d="M7.75 0.789132V0.236816H6.77825L0.25 3.94766V4.49997H1.22175L7.75 0.789132Z" fill="white"/>
<path d="M0.25 1.6579H7.75V3.07895H0.25V1.6579Z" fill="white"/>
<path d="M3.25 0.236816H4.75V4.49997H3.25V0.236816Z" fill="white"/>
<path d="M3.75 0.236816H4.25V4.49997H3.75V0.236816Z" fill="#D22F27"/>
<path d="M0.25 2.13155H7.75V2.60524H0.25V2.13155ZM7.75 3.94766L6.22175 3.07892H5.25L7.75 4.49997V3.94766ZM7.75 0.236816H6.77825L4.75 1.38976V1.65787H5.25L7.75 0.236816ZM0.25 0.789132L1.77825 1.65787H2.75L0.25 0.236816V0.789132ZM0.25 4.49997H1.22175L3.25 3.34703V3.07892H2.75L0.25 4.49997Z" fill="#D22F27"/>
<path d="M11.8985 2.43044L12.3292 2.11662L11.806 2.12894L11.6562 1.64081L11.4827 2.13652L10.9597 2.1486L11.3755 2.44276L11.2017 2.93823L11.6325 2.62441L12.0482 2.91857L11.8985 2.43044ZM11.8985 6.6936L12.3292 6.37978L11.806 6.3921L11.6562 5.90397L11.4827 6.39968L10.9597 6.41176L11.3755 6.70591L11.2017 7.20139L11.6325 6.88757L12.0482 7.18173L11.8985 6.6936ZM13.8985 3.61465L14.3292 3.30083L13.806 3.31315L13.6562 2.82502L13.4827 3.32073L12.9597 3.33281L13.3755 3.62697L13.2017 4.12244L13.6325 3.80862L14.0482 4.10278L13.8985 3.61465ZM10.1485 4.08833L10.5792 3.77452L10.056 3.78683L9.90622 3.2987L9.73272 3.79441L9.20972 3.80649L9.62547 4.10065L9.45172 4.59612L9.88247 4.28231L10.2982 4.57647L10.1485 4.08833Z" stroke="white" stroke-width="0.25" stroke-linecap="round" stroke-linejoin="round"/>
<path d="M11.8763 2.4184L12.2695 2.13182L11.792 2.14295L11.6553 1.69745L11.4968 2.14982L11.0195 2.16095L11.399 2.42929L11.2405 2.88166L11.6335 2.59532L12.013 2.86366L11.8763 2.4184ZM11.8763 6.68155L12.2695 6.39498L11.792 6.40611L11.6553 5.96061L11.4968 6.41298L11.0195 6.42411L11.399 6.69245L11.2405 7.14482L11.6335 6.85848L12.013 7.12682L11.8763 6.68155ZM13.8763 3.60261L14.2695 3.31603L13.792 3.32716L13.6553 2.88166L13.4968 3.33403L13.0195 3.34516L13.399 3.6135L13.2405 4.06587L13.6335 3.77953L14.013 4.04787L13.8763 3.60261ZM10.1263 4.07629L10.5195 3.78971L10.042 3.80084L9.90528 3.35534L9.74678 3.80771L9.26953 3.81884L9.64903 4.08719L9.49053 4.53955L9.88353 4.25321L10.263 4.52155L10.1263 4.07629Z" fill="#D22F27"/>
</svg>
