<svg width="15" height="9" viewBox="0 0 15 9" fill="none" xmlns="http://www.w3.org/2000/svg">
<path d="M13.3333 0H1.66667C1.22464 0 0.800716 0.145879 0.488155 0.405544C0.175595 0.66521 0 1.01739 0 1.38462L0 7.61539C0 7.98261 0.175595 8.33479 0.488155 8.59446C0.800716 8.85412 1.22464 9 1.66667 9H13.3333C13.7754 9 14.1993 8.85412 14.5118 8.59446C14.8244 8.33479 15 7.98261 15 7.61539V1.38462C15 1.01739 14.8244 0.66521 14.5118 0.405544C14.1993 0.145879 13.7754 0 13.3333 0Z" fill="#006C35"/>
<path d="M3.71639 3.13262C3.97972 3.15339 3.8343 2.76258 3.92972 2.69162C3.94764 2.65666 3.98097 2.65631 3.98347 2.70062V3.03224C3.98097 3.14024 4.06639 3.17173 4.13264 3.19423C4.2018 3.18973 4.24764 3.19181 4.27472 3.24754L4.30722 3.82147C4.30722 3.82147 4.46722 3.85954 4.47472 3.4985C4.48264 3.28666 4.42389 3.10943 4.45847 3.06824C4.45972 3.02774 4.5218 3.02531 4.56514 3.04504C4.63389 3.0852 4.66472 3.13504 4.77139 3.11531C4.9343 3.07827 5.0318 3.0125 5.0343 2.90866C5.02472 2.81 5.01139 2.71135 4.96014 2.6127C4.96722 2.5947 4.92889 2.54831 4.93597 2.53031C4.96514 2.56839 5.00972 2.56527 5.01972 2.53031C4.99222 2.4545 4.9493 2.38181 4.8793 2.35031C4.8218 2.30808 4.73764 2.31673 4.7068 2.40466C4.69264 2.50573 4.75097 2.6262 4.8393 2.72416C4.85805 2.76258 4.88472 2.82627 4.87305 2.88374C4.82597 2.90589 4.77847 2.89689 4.7393 2.86227C4.7393 2.86227 4.60972 2.78162 4.60972 2.76362C4.6443 2.58085 4.61764 2.56008 4.59847 2.50954C4.58514 2.43962 4.54514 2.41712 4.51264 2.36935C4.48014 2.34097 4.43639 2.34097 4.41555 2.36935C4.35805 2.45174 4.38472 2.62897 4.42639 2.70824C4.45597 2.78093 4.5018 2.82697 4.48014 2.82697C4.46222 2.86816 4.42555 2.85847 4.39889 2.81104C4.36055 2.71274 4.35305 2.56631 4.35305 2.5002C4.34139 2.4185 4.32889 2.2437 4.2643 2.19939C4.22472 2.15474 4.16597 2.1762 4.14555 2.21739C4.14139 2.29839 4.14055 2.37974 4.1518 2.45485C4.19597 2.58604 4.21014 2.70166 4.2318 2.83631C4.23764 3.01666 4.10639 2.91454 4.11222 2.82523C4.14264 2.70927 4.13472 2.5265 4.10764 2.48012C4.08639 2.43408 4.06097 2.42231 4.0093 2.42993C3.96847 2.42716 3.86264 2.52339 3.83264 2.68262C3.83264 2.68262 3.80722 2.76466 3.79639 2.8377C3.7818 2.92008 3.7168 2.97824 3.67097 2.82627C3.63139 2.71585 3.60722 2.44343 3.54097 2.50712C3.5218 2.72 3.49889 3.09454 3.71639 3.13262Z" fill="white"/>
<path d="M4.11257 3.28809C3.8959 3.29155 3.57882 3.52451 3.57007 3.65362C3.7984 3.56224 4.02299 3.47432 4.25549 3.38016C4.21799 3.33343 4.2534 3.29155 4.11257 3.28809Z" fill="white"/>
<path d="M5.30734 3.98637C5.40776 3.70841 5.29109 3.50348 5.34567 3.50452C5.46109 3.60802 5.62276 3.51837 5.65817 3.48237C5.67359 3.46437 5.71151 3.4526 5.73817 3.47614C5.82859 3.53014 5.98776 3.50452 6.02067 3.40967C6.04152 3.31442 6.05433 3.21807 6.05901 3.12133C5.98526 3.14037 5.93026 3.15317 5.92526 3.17844L5.90984 3.26083C5.90359 3.28748 5.83984 3.28852 5.83734 3.2546C5.80942 3.14902 5.69359 3.13517 5.62359 3.2989C5.57651 3.33075 5.49151 3.33698 5.48234 3.28956C5.49359 3.17983 5.44026 3.16494 5.33359 3.21652C5.29942 2.99879 5.26484 2.79075 5.23067 2.57302C5.27526 2.57198 5.31609 2.59933 5.35651 2.5571C5.31192 2.44183 5.21776 2.20644 5.16567 2.18948C5.14026 2.16387 5.11859 2.17979 5.08567 2.18637C5.02984 2.20125 4.97776 2.2414 4.99401 2.31929C5.06026 2.65333 5.10359 2.90775 5.16942 3.24179C5.17942 3.2809 5.14026 3.33248 5.08942 3.32729C5.00317 3.27883 4.98151 3.18052 4.83401 3.18467C4.72692 3.18571 4.60484 3.28194 4.58984 3.37506C4.57192 3.44879 4.56567 3.5291 4.58984 3.59383C4.66484 3.6686 4.75526 3.66133 4.83401 3.64437C4.89859 3.62221 4.95234 3.56821 4.97484 3.58102C4.99026 3.5966 4.97859 3.77417 4.66984 3.91056C4.48276 3.98014 4.33401 3.99606 4.25401 3.86937C4.20442 3.7901 4.25776 3.48894 4.13567 3.55887C3.77442 4.33252 4.98151 4.43983 5.11651 3.59071C5.12942 3.55575 5.18026 3.52079 5.18901 3.5779C5.16109 4.34706 4.25526 4.40002 4.10151 4.15806C4.06317 4.10094 4.05192 3.97425 4.04817 3.8981C4.02526 3.74683 3.92984 3.80498 3.91484 3.95487C3.89942 4.03829 3.90359 4.06183 3.90359 4.14179C3.95151 4.74929 5.11817 4.48829 5.30734 3.98637ZM4.85734 3.4609C4.84984 3.47267 4.81692 3.46783 4.79276 3.46783C4.76526 3.46679 4.75234 3.46298 4.73567 3.44464C4.72817 3.42387 4.75151 3.40414 4.76192 3.38856C4.77484 3.37021 4.84442 3.35117 4.86901 3.4024C4.87347 3.41214 4.87474 3.42269 4.87269 3.43296C4.87064 3.44324 4.86534 3.45288 4.85734 3.4609Z" fill="white"/>
<path d="M5.66768 2.77244C5.74018 2.75028 6.08393 2.42386 6.08393 2.42386C6.06601 2.41105 6.05018 2.40171 6.03226 2.3889C6.01309 2.37505 6.01518 2.36121 6.03226 2.34771C6.11726 2.30651 6.09018 2.21617 6.04559 2.17497C6.01671 2.16335 5.98499 2.15743 5.9529 2.15767C5.92081 2.15791 5.88922 2.16431 5.86059 2.17636C5.80101 2.22378 5.78684 2.29994 5.83393 2.34771C5.87976 2.36571 5.92559 2.40413 5.89518 2.42524C5.75476 2.54986 5.36976 2.76482 5.41434 2.77244C5.42393 2.78282 5.66018 2.78247 5.66768 2.77244ZM5.92226 2.25978C5.94434 2.25528 5.97268 2.27155 5.98601 2.29578C5.99934 2.32001 5.99226 2.34321 5.97059 2.34771H5.96976C5.94809 2.35221 5.91976 2.33594 5.90643 2.31171C5.89351 2.28713 5.90059 2.26428 5.92226 2.25978ZM3.69268 4.24324C3.63601 4.33913 3.61226 4.27336 3.60726 4.21971C3.60091 4.1296 3.60636 4.03918 3.62351 3.95005C3.63768 3.8739 3.62351 3.89709 3.59434 3.9279C3.46559 4.09821 3.45434 4.35297 3.52559 4.42878C3.56309 4.46478 3.62518 4.48071 3.67143 4.46894C3.75226 4.43986 3.78768 4.30347 3.76851 4.25397C3.74101 4.21901 3.71976 4.21347 3.69268 4.24324ZM7.93476 2.44047C8.08309 2.60594 8.22393 2.77451 8.36184 2.94621C8.38907 3.09459 8.40851 3.24078 8.42018 3.38478C8.44309 3.66309 8.44976 3.96424 8.42893 4.25744C8.49143 4.25951 8.59268 4.17297 8.62768 4.04663C8.65059 3.87182 8.61934 3.56063 8.61726 3.45747C8.6145 3.39282 8.61075 3.3282 8.60601 3.26363C8.77018 3.48655 8.93018 3.71986 9.08643 3.97913C9.14351 3.95697 9.13101 3.69182 9.09768 3.65444C8.97268 3.43186 8.80059 3.21171 8.74559 3.12724C8.72518 3.09609 8.65559 3.00747 8.57268 2.90605C8.56528 2.82513 8.5536 2.74451 8.53768 2.66444C8.51184 2.51628 8.61143 2.68071 8.59768 2.59451C8.56559 2.44636 8.46643 2.34632 8.35059 2.21063C8.31309 2.16667 8.31434 2.15767 8.25643 2.22136C8.23636 2.25962 8.22696 2.30116 8.22893 2.34286C8.21062 2.3209 8.1913 2.29954 8.17101 2.27882L7.98143 2.14451C7.93934 2.11959 7.83684 2.07459 7.81851 2.14936C7.81043 2.20178 7.81354 2.25498 7.82768 2.30651C7.83851 2.34355 7.90309 2.40517 7.93476 2.44047ZM8.24309 2.43217C8.25101 2.4609 8.25934 2.48963 8.26476 2.51905L8.27101 2.54709C8.25347 2.52684 8.23526 2.50699 8.21643 2.48755C8.14809 2.4204 8.20476 2.43494 8.24309 2.43217Z" fill="white"/>
<path d="M9.13303 4.04756C8.98803 4.17321 8.77887 4.32794 8.55137 4.3996C8.52678 4.42245 8.6122 4.52041 8.7222 4.52041C8.90678 4.50241 9.06928 4.41621 9.2197 4.18948C9.26012 4.13687 9.33095 4.02368 9.33262 3.93575C9.34637 3.42137 9.30178 3.02087 9.20887 2.6491C9.20265 2.61927 9.20436 2.58867 9.21387 2.55945C9.22553 2.54768 9.26637 2.55945 9.28803 2.53037C9.31928 2.50337 9.20428 2.28183 9.13845 2.19668C9.11512 2.1586 9.1072 2.13298 9.06845 2.20118C9.02762 2.25656 9.00053 2.35314 9.00387 2.44314C9.09178 2.94956 9.11887 3.39298 9.17637 3.89941C9.18095 3.94821 9.1722 4.01952 9.13303 4.04756ZM11.5622 2.76333C11.556 2.72733 11.5368 2.64356 11.5443 2.63283C11.556 2.60721 11.6164 2.6356 11.638 2.60618C11.6697 2.57952 11.4822 2.37945 11.4168 2.29429C11.393 2.25621 11.3851 2.2306 11.3464 2.29879C11.3055 2.35418 11.2914 2.45352 11.3076 2.54075C11.4055 3.09079 11.4785 3.5041 11.4935 3.99183C11.4847 4.03821 11.483 4.06314 11.4568 4.12129C11.3989 4.18291 11.3351 4.25975 11.2747 4.29714C11.2147 4.33418 11.0868 4.36983 11.0447 4.39718C10.9126 4.46121 10.9122 4.53425 11.0197 4.53668C11.2039 4.51868 11.4222 4.50621 11.5726 4.31721C11.613 4.2646 11.661 4.12164 11.663 4.03371C11.6768 3.51933 11.6551 3.1351 11.5622 2.76333ZM10.166 3.19152C10.1676 3.12091 10.1755 3.02745 10.1801 2.96895C10.1822 2.94714 10.1885 2.92256 10.2135 2.91702C10.2389 2.91148 10.2839 2.93848 10.2843 2.91564C10.2793 2.87098 10.2685 2.80452 10.238 2.77302C10.1964 2.72179 10.086 2.73425 10.0664 2.81456C10.0668 2.84433 10.083 2.86025 10.0801 2.88725C10.0751 2.90248 10.056 2.91287 10.0105 2.89487C10.018 2.88933 9.98095 2.84675 9.98095 2.84675C9.94553 2.82875 9.89803 2.84779 9.86762 2.86406C9.85673 2.88155 9.85023 2.90069 9.84851 2.92032C9.84679 2.93996 9.84989 2.95968 9.85762 2.97829C9.90762 3.05687 10.0822 3.19014 10.166 3.19152Z" fill="white"/>
<path d="M10.1071 2.58963L10.4792 2.96797C10.5062 3.2539 10.5133 3.4879 10.54 3.77382C10.5362 3.89497 10.4912 4.00055 10.4483 4.01578C10.4483 4.01578 10.3837 4.04694 10.3404 4.01267C10.3087 4.00194 10.1825 3.83786 10.1825 3.83786C10.1179 3.7887 10.0754 3.80255 10.0296 3.83786C9.90291 3.93928 9.84582 4.12967 9.75999 4.26051C9.73749 4.28994 9.67499 4.31486 9.60541 4.25844C9.42916 4.05801 9.53249 3.77313 9.51082 3.84651C9.35374 3.99363 9.42291 4.23697 9.45832 4.28959C9.50999 4.37544 9.55207 4.43082 9.65291 4.4734C9.74457 4.52947 9.81624 4.49417 9.85541 4.45505C9.94791 4.37509 9.94916 4.17259 9.99249 4.13174C10.0225 4.05801 10.0996 4.07047 10.1367 4.10336C10.1709 4.14296 10.2159 4.17533 10.2679 4.19786C10.3542 4.2612 10.4571 4.27263 10.5583 4.21482C10.6275 4.18263 10.6729 4.14074 10.7133 4.05801C10.7583 3.95832 10.7337 3.50001 10.7246 3.22517C10.7892 3.2944 10.8521 3.36674 10.9158 3.43909C10.9437 3.66859 10.9596 3.89705 10.9504 4.13036C10.9437 4.17709 11.1462 3.9919 11.1446 3.90397V3.70805C11.2421 3.8299 11.3371 3.95555 11.4262 4.08847C11.4821 4.06424 11.4637 3.8029 11.4283 3.7669C11.3254 3.62359 11.1883 3.4744 11.0937 3.36778C11.0875 3.35428 11.0842 3.33905 11.0767 3.32624C11.0387 3.2532 11.0625 3.19436 11.0446 3.11682C11.0271 3.03894 11.0317 2.92263 11.0046 2.8302C10.9971 2.7942 10.9746 2.67859 10.9812 2.66786C10.9921 2.6419 11.0337 2.66855 11.0542 2.63878C11.0846 2.61109 10.9487 2.31859 10.8796 2.23482C10.8546 2.19744 10.8096 2.21024 10.7537 2.27117C10.7025 2.31132 10.7217 2.4027 10.7412 2.48959C10.79 2.70005 10.8308 2.90186 10.8658 3.10159C10.7909 3.01883 10.7152 2.93656 10.6387 2.85478L10.6354 2.83955C10.6354 2.83574 10.6242 2.65817 10.6142 2.61594C10.6125 2.59897 10.6075 2.59378 10.6292 2.59586C10.6521 2.61178 10.655 2.61282 10.6696 2.61836C10.6929 2.62182 10.7133 2.58894 10.6996 2.55882L10.4842 2.22928C10.4671 2.21509 10.4446 2.19986 10.4175 2.23309C10.4006 2.24523 10.3871 2.26028 10.3779 2.2772C10.3686 2.29411 10.364 2.31249 10.3642 2.33105C10.3708 2.40894 10.3871 2.48855 10.3933 2.56678L10.4025 2.60901C10.3929 2.59967 10.3812 2.5879 10.3762 2.58374C10.1933 2.42382 10.4604 2.55778 10.3412 2.4342C10.2404 2.34213 10.2112 2.3134 10.1246 2.25801C10.0812 2.23482 10.055 2.19051 10.0408 2.26597C10.0341 2.33217 10.0321 2.39862 10.0346 2.46501C10.0346 2.49686 10.0733 2.55501 10.1071 2.58963ZM6.39832 2.96313C6.50332 2.99913 6.57041 2.83297 6.61374 2.6509C6.64291 2.59967 6.66541 2.59413 6.68041 2.62044C6.67666 2.86274 6.70124 2.9164 6.77624 2.99013C6.94332 3.09744 7.08166 3.00363 7.09291 2.99463L7.22291 2.88663C7.25166 2.86136 7.29041 2.85963 7.33124 2.88213C7.37124 2.9119 7.36582 2.96382 7.45082 2.99982C7.52249 3.0237 7.67582 3.00536 7.71124 2.95413C7.75916 2.88628 7.77082 2.86274 7.79249 2.83713C7.82666 2.7994 7.88499 2.81636 7.88499 2.82813C7.87957 2.84924 7.84541 2.87036 7.86874 2.90809C7.90957 2.93336 7.91874 2.91709 7.94291 2.91155C8.02791 2.87763 8.09124 2.72463 8.09124 2.72463C8.09499 2.66751 8.05666 2.67236 8.03166 2.68413C7.99916 2.7004 7.99707 2.70594 7.96457 2.72255C7.92291 2.72774 7.84249 2.75059 7.80291 2.69936C7.76207 2.63774 7.76124 2.5519 7.73041 2.48994C7.73041 2.48544 7.67624 2.39197 7.72666 2.38609C7.75207 2.3899 7.80582 2.40167 7.81457 2.36428C7.84082 2.32759 7.75749 2.22305 7.70082 2.17009C7.65124 2.12509 7.58249 2.11955 7.51624 2.16559C7.46957 2.20124 7.47624 2.2407 7.46707 2.27844C7.45924 2.30505 7.45912 2.33283 7.46672 2.35949C7.47433 2.38614 7.48944 2.41092 7.51082 2.43178C7.55707 2.50759 7.64166 2.60555 7.61374 2.74263C7.61374 2.74263 7.56457 2.8077 7.47832 2.7994C7.44249 2.79282 7.38416 2.78001 7.35332 2.58963C7.32999 2.44528 7.35916 2.24347 7.28541 2.14897C7.25874 2.09186 7.23957 2.03682 7.17457 2.13444C7.15707 2.17286 7.08207 2.23101 7.13666 2.35113C7.18124 2.42694 7.19916 2.55051 7.17916 2.68828C7.14832 2.7274 7.14166 2.74055 7.10124 2.77967C7.04457 2.8302 6.98332 2.8174 6.93624 2.79836C6.89207 2.77378 6.85791 2.76097 6.83791 2.68274C6.84166 2.55813 6.84999 2.3539 6.82249 2.31063C6.78207 2.24347 6.71541 2.2677 6.68666 2.28813C6.54957 2.39232 6.48207 2.56782 6.44082 2.70732C6.40291 2.80909 6.36249 2.78001 6.33416 2.73882C6.26499 2.68482 6.26041 2.26355 6.17666 2.33313C6.04207 2.64951 6.25249 2.99705 6.39832 2.96313Z" fill="white"/>
<path d="M8.39049 3.64292L8.35049 3.62389L7.56674 3.62077C7.52633 3.60796 7.53841 3.59689 7.56674 3.58789C7.75383 3.56677 8.08674 3.52177 8.10883 3.25627C8.10508 3.11815 8.03716 3.02746 7.83299 3.00254C7.68341 3.01223 7.57633 3.13304 7.59341 3.26562C7.58633 3.30162 7.60758 3.37154 7.56383 3.3795C7.27591 3.40131 6.96216 3.55085 6.95174 3.65815C6.93424 3.66819 6.89508 3.63912 6.90008 3.59342C6.88612 3.39798 6.81841 3.20781 6.70216 3.0375C6.61133 2.96204 6.63966 2.98696 6.57883 3.02262C6.53966 3.06 6.53258 3.08562 6.53466 3.16004C6.53466 3.16281 6.60799 3.33277 6.67008 3.45185C6.71133 3.57404 6.75008 3.71354 6.72216 3.84542C6.62549 4.01988 6.43091 4.17635 6.24341 4.26115C6.14674 4.28712 6.06383 4.27777 6.04341 4.25977C5.98383 4.22654 5.98674 4.16527 5.99133 4.16423C6.14924 4.0725 6.33008 3.99877 6.47174 3.75196C6.51341 3.65781 6.52591 3.60069 6.48466 3.45496C6.4735 3.40352 6.44504 3.35576 6.40258 3.31719C6.42799 3.30335 6.50091 3.34939 6.51216 3.32204C6.4911 3.24225 6.44329 3.16904 6.37424 3.11089C6.31799 3.06831 6.25674 3.06346 6.20508 3.10258C6.14674 3.12958 6.13424 3.22581 6.16216 3.31027C6.19299 3.37396 6.27674 3.38469 6.33674 3.51242C6.33674 3.51519 6.35841 3.60796 6.32758 3.64431C6.30299 3.708 5.98424 3.91604 5.96674 3.92539C5.95799 3.93439 5.96174 3.92088 5.96049 3.88627C5.95841 3.84404 5.98091 3.74435 5.97466 3.74365C5.87091 3.79939 5.83633 3.97004 5.81758 4.02058C5.55508 4.17115 5.25799 4.28331 5.08633 4.43631C4.99674 4.55227 5.70216 4.30304 5.78424 4.27292C5.80258 4.284 5.80049 4.33627 5.84966 4.383C5.92299 4.46539 6.07799 4.51627 6.23008 4.48477C6.48424 4.40827 6.63133 4.26427 6.78049 4.10469C6.80174 4.07873 6.83508 4.059 6.86591 4.07873C6.96841 4.26946 7.26466 4.40446 7.64674 4.41865C7.73549 4.329 7.69258 4.28573 7.65674 4.26704C7.65674 4.26427 7.46799 4.20473 7.43924 4.14519C7.42174 4.09119 7.46424 4.04377 7.54924 4.00777C7.79466 3.98319 8.03591 3.95585 8.26966 3.89354C8.27216 3.82846 8.31758 3.73085 8.34883 3.68862C8.37883 3.64569 8.39508 3.6585 8.39049 3.64292ZM7.74591 3.23723C7.75758 3.22096 7.79633 3.22165 7.83258 3.23931C7.86883 3.25696 7.88924 3.28431 7.87716 3.30058C7.86549 3.31719 7.82633 3.31615 7.79008 3.2985C7.75383 3.28085 7.73424 3.25385 7.74591 3.23723ZM7.43049 3.89492C7.34633 3.91881 7.26549 3.9375 7.26549 4.03858C7.29674 4.17912 7.22258 4.131 7.17883 4.11162C7.12716 4.08081 6.98174 4.00639 6.96091 3.84577C6.95758 3.80735 6.99383 3.77515 7.05174 3.77515C7.13883 3.79489 7.26758 3.79627 7.37924 3.80596C7.47049 3.81081 7.51591 3.87035 7.43049 3.89492ZM4.52758 2.3355C4.61758 2.3715 4.78758 2.35627 4.78008 2.23512C4.78008 2.22439 4.77674 2.18838 4.77549 2.17869C4.75716 2.14304 4.70716 2.15169 4.69549 2.18873C4.69174 2.20085 4.70174 2.22023 4.68883 2.22646C4.68133 2.23269 4.65258 2.22889 4.65383 2.19565C4.65383 2.18492 4.64424 2.1735 4.63883 2.16692C4.63299 2.16381 4.62966 2.16277 4.61924 2.16277C4.60674 2.16312 4.60674 2.16589 4.60008 2.17489C4.59716 2.18354 4.59299 2.19254 4.59299 2.20258C4.59133 2.21435 4.58591 2.2185 4.57549 2.22058C4.56383 2.22058 4.56633 2.22162 4.55716 2.21642C4.55133 2.21123 4.54424 2.20915 4.54424 2.2005C4.54405 2.19039 4.54209 2.18037 4.53841 2.17073C4.53313 2.16565 4.52577 2.16231 4.51633 2.16069C4.46716 2.16069 4.46383 2.20742 4.46674 2.22542C4.46216 2.22854 4.46049 2.31231 4.52758 2.3355Z" fill="white"/>
<path d="M7.29677 3.12477C7.29677 3.11404 7.28719 3.10296 7.28177 3.09604C7.27594 3.09293 7.27261 3.09189 7.26219 3.09189C7.24969 3.09223 7.25011 3.095 7.24302 3.104C7.24011 3.113 7.23594 3.12166 7.23594 3.1317C7.23469 3.14381 7.22886 3.14796 7.21844 3.1497C7.20677 3.1497 7.20927 3.15073 7.19969 3.14589C7.19386 3.1407 7.18677 3.13862 7.18677 3.12996C7.18658 3.11986 7.18462 3.10983 7.18094 3.1002C7.17566 3.09512 7.1683 3.09189 7.15886 3.0905C7.10969 3.0905 7.10636 3.13723 7.10886 3.15489C7.10511 3.15835 7.10302 3.24177 7.17011 3.26531C7.26052 3.30096 7.47511 3.2802 7.42261 3.16493C7.4217 3.14597 7.42018 3.12704 7.41802 3.10816C7.39969 3.0725 7.34927 3.0815 7.33802 3.1182C7.33469 3.13031 7.34469 3.1497 7.33136 3.15593C7.32469 3.16216 7.29552 3.15835 7.29677 3.12477ZM8.71219 2.88004C8.80219 2.91604 8.97177 2.90081 8.96427 2.78C8.96337 2.76105 8.96184 2.74212 8.95969 2.72323C8.94136 2.68758 8.89136 2.69658 8.88011 2.73327C8.87636 2.74539 8.88636 2.76477 8.87302 2.771C8.86552 2.77723 8.83677 2.77377 8.83803 2.7402C8.83803 2.72946 8.82844 2.71804 8.82302 2.71146C8.81719 2.70835 8.81386 2.70731 8.80303 2.70731C8.79052 2.708 8.79094 2.71043 8.78386 2.71943C8.78094 2.72843 8.77677 2.73708 8.77677 2.74712C8.77511 2.75923 8.76969 2.76339 8.75927 2.76512C8.74761 2.76512 8.75011 2.76616 8.74052 2.76131C8.73469 2.75612 8.72802 2.75404 8.72802 2.74539C8.72788 2.73517 8.72591 2.72502 8.72219 2.71527C8.71664 2.7102 8.70914 2.70696 8.69969 2.70558C8.65052 2.70558 8.64719 2.75231 8.65011 2.76996C8.64719 2.77343 8.64511 2.85685 8.71219 2.88004ZM8.77303 2.41204C8.80511 2.48681 8.74844 2.55812 8.78219 2.5685C8.81261 2.58027 8.85594 2.49131 8.87177 2.40927C8.89052 2.34281 8.83344 2.20677 8.75261 2.17873C8.70344 2.16904 8.63344 2.19327 8.65594 2.24796C8.64469 2.27427 8.75511 2.36358 8.77303 2.41204ZM9.60427 4.16496C9.66719 4.16531 9.73969 4.04554 9.77052 3.92681C9.78761 3.76343 9.75886 3.66408 9.75386 3.56785C9.74886 3.47162 9.62344 2.73985 9.59761 2.66716C9.56719 2.52973 9.71969 2.64881 9.70302 2.56885C9.65011 2.46812 9.51886 2.3217 9.47719 2.23412C9.45219 2.19673 9.46302 2.1635 9.40719 2.22443C9.35594 2.36462 9.33802 2.47885 9.35761 2.56608C9.49011 3.1407 9.62594 3.61839 9.60427 4.16496ZM11.1693 2.66266C11.1839 2.70004 11.1472 2.82085 11.1776 2.83193C11.2055 2.84439 11.2447 2.7485 11.2593 2.65954C11.2672 2.61073 11.2243 2.44043 11.1505 2.40996C11.1055 2.39958 11.0418 2.42554 11.0626 2.48508C11.0522 2.51381 11.153 2.61004 11.1693 2.66266ZM5.70302 3.9282C5.73011 3.93754 5.76719 3.86693 5.78136 3.8015C5.78927 3.7655 5.74761 3.64054 5.67719 3.61804C5.63386 3.61043 5.57469 3.62012 5.59302 3.67343C5.59094 3.70216 5.68886 3.73677 5.69469 3.80358C5.70886 3.83127 5.67386 3.92023 5.70302 3.9282ZM3.80469 2.3307C3.81844 2.35943 3.79094 2.45116 3.81969 2.45981C3.84594 2.4695 3.88303 2.39612 3.89678 2.32862C3.90469 2.29123 3.89844 2.16454 3.79427 2.13858C3.75136 2.13062 3.69177 2.15035 3.71136 2.1957C3.70136 2.21716 3.78927 2.29054 3.80469 2.3307ZM5.84719 2.73673C5.76761 2.77273 5.73636 2.87935 5.78636 2.94131C5.83261 2.99635 5.90594 2.97593 5.91594 2.97593C5.99427 2.98389 6.04052 2.85408 6.04052 2.85408C6.04052 2.85408 6.04302 2.81773 5.95011 2.88662C5.91094 2.89285 5.90594 2.88073 5.89636 2.86204C5.887 2.82816 5.89124 2.79266 5.90844 2.76096C5.92178 2.72877 5.89177 2.71458 5.84719 2.73673ZM6.44802 2.33762C6.46082 2.33098 6.4718 2.32219 6.48026 2.31182C6.48873 2.30144 6.4945 2.28972 6.49719 2.27739C6.50927 2.22685 6.43261 2.30127 6.42302 2.24485C6.40594 2.19258 6.45511 2.17112 6.50177 2.12058C6.50344 2.08562 6.50261 2.06104 6.44552 2.08943C6.40552 2.11193 6.32552 2.18046 6.32302 2.25939C6.32052 2.30404 6.31052 2.3037 6.34594 2.33208C6.37136 2.36289 6.39678 2.35977 6.44802 2.33762ZM6.98927 2.36462C7.04094 2.24831 7.04094 2.19916 7.04469 2.14966C7.02886 2.07454 6.96761 2.07696 6.92719 2.16039C6.90969 2.19189 6.88927 2.3577 6.89261 2.3577C6.87886 2.4072 6.95469 2.42831 6.98927 2.36462ZM10.3934 3.1895C10.3934 3.1895 9.97552 3.43631 9.96552 3.44496C9.92386 3.47543 9.94469 3.58343 9.96552 3.57096C9.99511 3.58066 10.4155 3.34354 10.4072 3.31585C10.4268 3.31654 10.4364 3.17704 10.3934 3.1895ZM10.3422 3.85896C10.3701 3.87143 10.4439 3.79562 10.4409 3.70112C10.4493 3.65231 10.4197 3.47335 10.3464 3.44289C10.3014 3.4325 10.2414 3.46435 10.2622 3.52354C10.2518 3.55193 10.3139 3.65127 10.3301 3.70389C10.3447 3.74162 10.3118 3.84789 10.3422 3.85896ZM7.97552 4.37681C7.97552 4.37993 8.01094 4.40519 8.05261 4.38512C8.14011 4.35708 8.19511 4.33008 8.31761 4.30758C8.34969 4.30723 8.34761 4.23558 8.29677 4.23316C8.23053 4.23593 8.16886 4.2387 8.10261 4.28231C8.06177 4.28993 8.05511 4.2695 8.04594 4.25081C8.03594 4.20477 8.06886 4.17293 8.06177 4.13866C8.06427 4.14073 8.02386 4.10993 7.98261 4.12723C7.98053 4.12723 7.89052 4.17777 7.86177 4.21308C7.84386 4.2245 7.84594 4.2342 7.85136 4.25323C7.86511 4.27954 7.88969 4.27158 7.91719 4.25912C7.95386 4.25496 7.97136 4.27504 7.96844 4.31139C7.95094 4.35743 7.97552 4.37439 7.97552 4.37681ZM10.7051 4.43427C10.6914 4.454 10.6822 4.48377 10.7247 4.49312C10.803 4.51146 10.9834 4.41385 10.9834 4.41212C11.0126 4.39377 11.003 4.3595 11.0005 4.3595C10.9834 4.34323 10.9451 4.35258 10.9193 4.35016C10.9072 4.35016 10.8664 4.34496 10.8859 4.3152C10.8997 4.29914 10.9106 4.28154 10.9184 4.26293C10.9305 4.24043 10.9201 4.22554 10.8759 4.21343C10.8314 4.2065 10.8134 4.20996 10.7639 4.21343C10.7372 4.21827 10.728 4.22796 10.723 4.25496C10.7251 4.29581 10.7547 4.29373 10.7855 4.31C10.8034 4.32904 10.8151 4.34635 10.7843 4.37716C10.7551 4.39966 10.7347 4.41212 10.7051 4.43427ZM10.6251 6.23081H10.0001V6.05773C10.0001 6.01183 9.97816 5.96781 9.93909 5.93535C9.90002 5.90289 9.84703 5.88466 9.79177 5.88466C9.73652 5.88466 9.68353 5.90289 9.64446 5.93535C9.60539 5.96781 9.58344 6.01183 9.58344 6.05773V6.23081H4.58344C4.58344 6.23081 4.58344 6.57696 5.83344 6.57696H9.58344V6.75004C9.58344 6.79594 9.60539 6.83997 9.64446 6.87243C9.68353 6.90488 9.73652 6.92312 9.79177 6.92312C9.84703 6.92312 9.90002 6.90488 9.93909 6.87243C9.97816 6.83997 10.0001 6.79594 10.0001 6.75004V6.57696H10.4168V6.75004C10.4168 6.79594 10.4387 6.83997 10.4778 6.87243C10.5169 6.90488 10.5699 6.92312 10.6251 6.92312C10.6804 6.92312 10.7334 6.90488 10.7724 6.87243C10.8115 6.83997 10.8334 6.79594 10.8334 6.75004V6.40389C10.8334 6.35798 10.8115 6.31396 10.7724 6.2815C10.7334 6.24905 10.6804 6.23081 10.6251 6.23081Z" fill="white"/>
</svg>
