<svg width="15" height="9" viewBox="0 0 15 9" fill="none" xmlns="http://www.w3.org/2000/svg">
<path d="M0 0H15V9H0V0Z" fill="#D22F27"/>
<path d="M0 4.5H15V9H0V4.5Z" fill="white"/>
<path d="M3.62914 1.42107C3.76276 1.42107 3.87108 1.31503 3.87108 1.18423C3.87108 1.05343 3.76276 0.947388 3.62914 0.947388C3.49553 0.947388 3.38721 1.05343 3.38721 1.18423C3.38721 1.31503 3.49553 1.42107 3.62914 1.42107Z" fill="white"/>
<path d="M3.14526 2.60528C3.27887 2.60528 3.38719 2.49924 3.38719 2.36843C3.38719 2.23763 3.27887 2.13159 3.14526 2.13159C3.01164 2.13159 2.90332 2.23763 2.90332 2.36843C2.90332 2.49924 3.01164 2.60528 3.14526 2.60528Z" fill="white"/>
<path d="M4.11279 2.60528C4.2464 2.60528 4.35472 2.49924 4.35472 2.36843C4.35472 2.23763 4.2464 2.13159 4.11279 2.13159C3.97917 2.13159 3.87085 2.23763 3.87085 2.36843C3.87085 2.49924 3.97917 2.60528 4.11279 2.60528Z" fill="white"/>
<path d="M2.90331 1.8947C3.03693 1.8947 3.14525 1.78867 3.14525 1.65786C3.14525 1.52706 3.03693 1.42102 2.90331 1.42102C2.7697 1.42102 2.66138 1.52706 2.66138 1.65786C2.66138 1.78867 2.7697 1.8947 2.90331 1.8947Z" fill="white"/>
<path d="M4.35473 1.8947C4.48835 1.8947 4.59666 1.78867 4.59666 1.65786C4.59666 1.52706 4.48835 1.42102 4.35473 1.42102C4.22111 1.42102 4.11279 1.52706 4.11279 1.65786C4.11279 1.78867 4.22111 1.8947 4.35473 1.8947Z" fill="white"/>
<path d="M1.49975 1.87654C1.49543 1.61149 1.58451 1.35307 1.752 1.14476C1.91948 0.936459 2.15515 0.79099 2.41934 0.732834C2.34676 0.718079 2.27283 0.710619 2.1987 0.710571C1.89166 0.723427 1.60155 0.851877 1.38893 1.06911C1.17631 1.28634 1.05762 1.57557 1.05762 1.87643C1.05762 2.17728 1.17631 2.46651 1.38893 2.68374C1.60155 2.90098 1.89166 3.02943 2.1987 3.04228C2.27283 3.04223 2.34676 3.03477 2.41934 3.02002C2.15519 2.96187 1.91955 2.81644 1.75207 2.60818C1.58459 2.39993 1.49549 2.14156 1.49975 1.87654Z" fill="white" stroke="white" stroke-width="0.25" stroke-linecap="round" stroke-linejoin="round"/>
</svg>
