<svg width="15" height="9" viewBox="0 0 15 9" fill="none" xmlns="http://www.w3.org/2000/svg">
<path d="M0 0H15V9H0V0Z" fill="#F1B31C"/>
<path d="M4.35484 3.78947V5.44737C4.35446 5.57288 4.30335 5.69315 4.21269 5.7819C4.12203 5.87065 3.99918 5.92068 3.87097 5.92105H2.90323C2.77501 5.92068 2.65216 5.87065 2.5615 5.7819C2.47084 5.69315 2.41974 5.57288 2.41935 5.44737V3.78947M0 0H15V2.13158H0V0ZM0 6.86842H15V9H0V6.86842Z" fill="#D22F27"/>
<path d="M3.38721 3.78943H4.35495V4.7368H3.38721V3.78943Z" fill="#F1B31C"/>
<path d="M3.38707 5.09212C3.5875 5.09212 3.74998 4.93306 3.74998 4.73685C3.74998 4.54065 3.5875 4.38159 3.38707 4.38159C3.18665 4.38159 3.02417 4.54065 3.02417 4.73685C3.02417 4.93306 3.18665 5.09212 3.38707 5.09212Z" fill="#6A462F"/>
<path d="M5.32262 3.78953V5.92111M1.45165 3.78953V5.92111M2.41939 3.07901C2.71758 2.92441 3.04971 2.84312 3.38714 2.84216C3.72456 2.84312 4.05669 2.92441 4.35488 3.07901M1.20972 5.92111H1.69359M5.08068 5.92111H5.56456M2.41939 3.78953H4.35488V5.44743C4.3545 5.57294 4.30339 5.69321 4.21273 5.78196C4.12207 5.87071 3.99922 5.92074 3.87101 5.92111H2.90327C2.77505 5.92074 2.6522 5.87071 2.56154 5.78196C2.47088 5.69321 2.41978 5.57294 2.41939 5.44743V3.78953Z" stroke="#6A462F" stroke-width="0.5" stroke-linecap="round" stroke-linejoin="round"/>
</svg>
