<svg width="15" height="9" viewBox="0 0 15 9" fill="none" xmlns="http://www.w3.org/2000/svg">
<path fill-rule="evenodd" clip-rule="evenodd" d="M0 0V9H15V0H0Z" fill="#2E42A5"/>
<mask id="mask0_254_41" style="mask-type:luminance" maskUnits="userSpaceOnUse" x="0" y="0" width="15" height="9">
<path fill-rule="evenodd" clip-rule="evenodd" d="M0 0V9H15V0H0Z" fill="white"/>
</mask>
<g mask="url(#mask0_254_41)">
<path d="M-1.67017 8.3569L1.63077 9.47402L15.0745 1.21427L16.8159 -0.445478L13.2862 -0.818604L7.8028 2.74052L3.38905 5.13902L-1.67017 8.3569Z" fill="white"/>
<path d="M-1.21875 9.13952L0.463594 9.78752L16.1906 -0.599609H13.8295L-1.21875 9.13952Z" fill="#F50100"/>
<path d="M16.6702 8.3569L13.3692 9.47402L-0.0745115 1.21427L-1.81592 -0.445478L1.71377 -0.818604L7.19721 2.74052L11.611 5.13902L16.6702 8.3569Z" fill="white"/>
<path d="M16.5578 8.91868L14.8759 9.56668L8.17933 5.11918L6.1937 4.62268L-1.98364 -0.439819H0.37792L8.55011 4.50268L10.7209 5.09818L16.5578 8.91868Z" fill="#F50100"/>
<path fill-rule="evenodd" clip-rule="evenodd" d="M9.271 -0.75H5.72912V3H-0.924316V6H5.72912V9.75H9.271V6H15.9507V3H9.271V-0.75Z" fill="#F50100"/>
<mask id="mask1_254_41" style="mask-type:luminance" maskUnits="userSpaceOnUse" x="-1" y="-1" width="17" height="11">
<path fill-rule="evenodd" clip-rule="evenodd" d="M9.271 -0.75H5.72912V3H-0.924316V6H5.72912V9.75H9.271V6H15.9507V3H9.271V-0.75Z" fill="white"/>
</mask>
<g mask="url(#mask1_254_41)">
<path d="M5.72912 -0.75V-1.5H4.79162V-0.75H5.72912ZM9.271 -0.75H10.2085V-1.5H9.271V-0.75ZM5.72912 3V3.75H6.66662V3H5.72912ZM-0.924316 3V2.25H-1.86182V3H-0.924316ZM-0.924316 6H-1.86182V6.75H-0.924316V6ZM5.72912 6H6.66662V5.25H5.72912V6ZM5.72912 9.75H4.79162V10.5H5.72912V9.75ZM9.271 9.75V10.5H10.2085V9.75H9.271ZM9.271 6V5.25H8.3335V6H9.271ZM15.9507 6V6.75H16.8882V6H15.9507ZM15.9507 3H16.8882V2.25H15.9507V3ZM9.271 3H8.3335V3.75H9.271V3ZM5.72912 0H9.271V-1.5H5.72912V0ZM6.66662 3V-0.75H4.79162V3H6.66662ZM-0.924316 3.75H5.72912V2.25H-0.924316V3.75ZM0.0131836 6V3H-1.86182V6H0.0131836ZM5.72912 5.25H-0.924316V6.75H5.72912V5.25ZM6.66662 9.75V6H4.79162V9.75H6.66662ZM9.271 9H5.72912V10.5H9.271V9ZM8.3335 6V9.75H10.2085V6H8.3335ZM15.9507 5.25H9.271V6.75H15.9507V5.25ZM15.0132 3V6H16.8882V3H15.0132ZM9.271 3.75H15.9507V2.25H9.271V3.75ZM8.3335 -0.75V3H10.2085V-0.75H8.3335Z" fill="white"/>
</g>
</g>
</svg>
