<svg width="15" height="9" viewBox="0 0 15 9" fill="none" xmlns="http://www.w3.org/2000/svg">
<path d="M0 0H15V9H0V0Z" fill="white"/>
<path d="M0 0H15V0.692321H0V0ZM0 1.38464H15V2.07696H0V1.38464ZM0 2.76923H15V3.46155H0V2.76923ZM0 4.15387H15V4.84619H0V4.15387ZM0 5.53845H15V6.23077H0V5.53845ZM0 6.92309H15V7.61542H0V6.92309ZM0 8.30768H15V9H0V8.30768Z" fill="#B22234"/>
<path d="M0 0H6V4.84613H0V0Z" fill="#3C3B6E"/>
<path d="M0.281982 0.393424L0.424932 0.511813L0.370332 0.703389L0.513232 0.585001L0.656182 0.703389L0.601582 0.511813L0.744482 0.393424H0.567832L0.513232 0.201904L0.458632 0.393424H0.281982ZM1.27673 0.393424L1.41963 0.511813L1.36503 0.703389L1.50798 0.585001L1.65093 0.703389L1.59633 0.511813L1.73923 0.393424H1.56258L1.50798 0.201904L1.45338 0.393424H1.27673ZM2.27148 0.393424L2.41438 0.511813L2.35978 0.703389L2.50273 0.585001L2.64563 0.703389L2.59103 0.511813L2.73398 0.393424H2.55733L2.50273 0.201904L2.44813 0.393424H2.27148ZM3.26623 0.393424L3.40913 0.511813L3.35453 0.703389L3.49748 0.585001L3.64038 0.703389L3.58578 0.511813L3.72873 0.393424H3.55203L3.49748 0.201904L3.44288 0.393424H3.26623ZM4.26093 0.393424L4.40388 0.511813L4.34928 0.703389L4.49218 0.585001L4.63513 0.703389L4.58053 0.511813L4.72343 0.393424H4.54678L4.49218 0.201904L4.43758 0.393424H4.26093ZM5.25568 0.393424L5.39858 0.511813L5.34398 0.703389L5.48693 0.585001L5.62983 0.703389L5.57523 0.511813L5.71818 0.393424H5.54153L5.48693 0.201904L5.43233 0.393424H5.25568ZM0.779332 0.879462L0.922282 0.997851L0.867682 1.18937L1.01063 1.07098L1.15353 1.18937L1.09893 0.997851L1.24188 0.879462H1.06518L1.01063 0.687885L0.956032 0.879462H0.779332ZM1.77408 0.879462L1.91703 0.997851L1.86243 1.18937L2.00533 1.07098L2.14828 1.18937L2.09368 0.997851L2.23658 0.879462H2.05993L2.00533 0.687885L1.95073 0.879462H1.77408ZM2.76883 0.879462L2.91178 0.997851L2.85718 1.18937L3.00008 1.07098L3.14303 1.18937L3.08843 0.997851L3.23133 0.879462H3.05468L3.00008 0.687885L2.94548 0.879462H2.76883ZM3.76358 0.879462L3.90648 0.997851L3.85188 1.18937L3.99483 1.07098L4.13773 1.18937L4.08313 0.997851L4.22608 0.879462H4.04943L3.99483 0.687885L3.94023 0.879462H3.76358ZM4.75828 0.879462L4.90123 0.997851L4.84663 1.18937L4.98953 1.07098L5.13248 1.18937L5.07788 0.997851L5.22078 0.879462H5.04413L4.98953 0.687885L4.93498 0.879462H4.75828ZM0.281982 1.36544L0.424932 1.48383L0.370332 1.67541L0.513232 1.55702L0.656182 1.67541L0.601582 1.48383L0.744482 1.36544H0.567832L0.513232 1.17392L0.458632 1.36544H0.281982ZM1.27673 1.36544L1.41963 1.48383L1.36503 1.67541L1.50798 1.55702L1.65093 1.67541L1.59633 1.48383L1.73923 1.36544H1.56258L1.50798 1.17392L1.45338 1.36544H1.27673ZM2.27148 1.36544L2.41438 1.48383L2.35978 1.67541L2.50273 1.55702L2.64563 1.67541L2.59103 1.48383L2.73398 1.36544H2.55733L2.50273 1.17392L2.44813 1.36544H2.27148ZM3.26623 1.36544L3.40913 1.48383L3.35453 1.67541L3.49748 1.55702L3.64038 1.67541L3.58578 1.48383L3.72873 1.36544H3.55203L3.49748 1.17392L3.44288 1.36544H3.26623ZM4.26093 1.36544L4.40388 1.48383L4.34928 1.67541L4.49218 1.55702L4.63513 1.67541L4.58053 1.48383L4.72343 1.36544H4.54678L4.49218 1.17392L4.43758 1.36544H4.26093ZM5.25568 1.36544L5.39858 1.48383L5.34398 1.67541L5.48693 1.55702L5.62983 1.67541L5.57523 1.48383L5.71818 1.36544H5.54153L5.48693 1.17392L5.43233 1.36544H5.25568ZM0.791632 1.85308L0.934532 1.97147L0.879982 2.16299L1.02288 2.0446L1.16583 2.16299L1.11123 1.97141L1.25413 1.85308H1.07748L1.02288 1.6615L0.968282 1.85308H0.791632ZM1.78638 1.85308L1.92928 1.97147L1.87468 2.16299L2.01763 2.0446L2.16053 2.16299L2.10593 1.97141L2.24888 1.85308H2.07223L2.01763 1.6615L1.96303 1.85308H1.78638ZM2.78113 1.85308L2.92403 1.97147L2.86943 2.16299L3.01238 2.0446L3.15528 2.16299L3.10068 1.97141L3.24363 1.85308H3.06693L3.01238 1.6615L2.95778 1.85308H2.78113ZM3.77583 1.85308L3.91878 1.97147L3.86418 2.16299L4.00708 2.0446L4.15003 2.16299L4.09543 1.97141L4.23833 1.85308H4.06168L4.00708 1.6615L3.95248 1.85308H3.77583ZM4.77058 1.85308L4.91348 1.97147L4.85888 2.16299L5.00183 2.0446L5.14473 2.16299L5.09013 1.97141L5.23308 1.85308H5.05643L5.00183 1.6615L4.94723 1.85308H4.77058ZM0.297082 2.33501L0.440032 2.45334L0.385432 2.64492L0.528332 2.52653L0.671282 2.64492L0.616682 2.45334L0.759582 2.33501H0.582932L0.528332 2.14343L0.473732 2.33501H0.297082ZM1.29183 2.33501L1.43473 2.45334L1.38013 2.64492L1.52308 2.52653L1.66598 2.64492L1.61143 2.45334L1.75433 2.33501H1.57768L1.52308 2.14343L1.46848 2.33501H1.29183ZM2.28658 2.33501L2.42948 2.45334L2.37488 2.64492L2.51783 2.52653L2.66073 2.64492L2.60613 2.45334L2.74908 2.33501H2.57243L2.51783 2.14343L2.46323 2.33501H2.28658ZM3.28128 2.33501L3.42423 2.45334L3.36963 2.64492L3.51253 2.52653L3.65548 2.64492L3.60088 2.45334L3.74383 2.33501H3.56713L3.51253 2.14343L3.45798 2.33501H3.28128ZM4.27603 2.33501L4.41893 2.45334L4.36438 2.64492L4.50728 2.52653L4.65023 2.64492L4.59563 2.45334L4.73853 2.33501H4.56188L4.50728 2.14343L4.45268 2.33501H4.27603ZM5.27078 2.33501L5.41368 2.45334L5.35908 2.64492L5.50203 2.52653L5.64493 2.64492L5.59033 2.45334L5.73328 2.33501H5.55663L5.50203 2.14343L5.44743 2.33501H5.27078ZM0.306432 3.29158L0.449332 3.40997L0.394732 3.60155L0.537682 3.48316L0.680582 3.60155L0.625982 3.40997L0.768932 3.29158H0.592282L0.537682 3.10006L0.483082 3.29158H0.306432ZM1.30113 3.29158L1.44408 3.40997L1.38948 3.60155L1.53238 3.48316L1.67533 3.60155L1.62073 3.40997L1.76363 3.29158H1.58698L1.53238 3.10006L1.47778 3.29158H1.30113ZM2.29588 3.29158L2.43878 3.40997L2.38423 3.60155L2.52713 3.48316L2.67008 3.60155L2.61548 3.40997L2.75838 3.29158H2.58173L2.52713 3.10006L2.47253 3.29158H2.29588ZM3.29063 3.29158L3.43353 3.40997L3.37893 3.60155L3.52188 3.48316L3.66478 3.60155L3.61023 3.40997L3.75313 3.29158H3.57648L3.52188 3.10006L3.46728 3.29158H3.29063ZM4.28533 3.29158L4.42828 3.40997L4.37368 3.60155L4.51658 3.48316L4.65953 3.60155L4.60493 3.40997L4.74788 3.29158H4.57118L4.51658 3.10006L4.46203 3.29158H4.28533ZM5.28008 3.29158L5.42298 3.40997L5.36843 3.60155L5.51133 3.48316L5.65428 3.60155L5.59968 3.40997L5.74258 3.29158H5.56593L5.51133 3.10006L5.45673 3.29158H5.28008ZM0.294282 4.25944L0.437182 4.37783L0.382582 4.56941L0.525532 4.45102L0.668432 4.56941L0.613832 4.37783L0.756782 4.25944H0.580082L0.525532 4.06792L0.470932 4.25944H0.294282ZM1.28898 4.25944L1.43193 4.37783L1.37733 4.56941L1.52023 4.45102L1.66318 4.56941L1.60858 4.37783L1.75148 4.25944H1.57483L1.52023 4.06792L1.46563 4.25944H1.28898ZM2.28373 4.25944L2.42663 4.37783L2.37208 4.56941L2.51498 4.45102L2.65793 4.56941L2.60333 4.37783L2.74623 4.25944H2.56958L2.51498 4.06792L2.46038 4.25944H2.28373ZM3.27848 4.25944L3.42138 4.37783L3.36678 4.56941L3.50973 4.45102L3.65263 4.56941L3.59808 4.37783L3.74098 4.25944H3.56433L3.50973 4.06792L3.45513 4.25944H3.27848ZM4.27318 4.25944L4.41613 4.37783L4.36153 4.56941L4.50443 4.45102L4.64738 4.56941L4.59278 4.37783L4.73573 4.25944H4.55903L4.50443 4.06792L4.44988 4.25944H4.27318ZM5.26793 4.25944L5.41083 4.37783L5.35628 4.56941L5.49918 4.45102L5.64213 4.56941L5.58753 4.37783L5.73043 4.25944H5.55378L5.49918 4.06792L5.44458 4.25944H5.26793ZM0.794582 2.80851L0.937482 2.9269L0.882932 3.11842L1.02583 3.00003L1.16878 3.11842L1.11418 2.9269L1.25708 2.80851H1.08043L1.02583 2.61693L0.971232 2.80851H0.794582ZM1.78933 2.80851L1.93223 2.9269L1.87763 3.11842L2.02058 3.00003L2.16348 3.11842L2.10893 2.9269L2.25183 2.80851H2.07518L2.02058 2.61693L1.96598 2.80851H1.78933ZM2.78408 2.80851L2.92698 2.9269L2.87238 3.11842L3.01533 3.00003L3.15823 3.11842L3.10363 2.9269L3.24658 2.80851H3.06993L3.01533 2.61693L2.96073 2.80851H2.78408ZM3.77878 2.80851L3.92173 2.9269L3.86713 3.11842L4.01003 3.00003L4.15298 3.11842L4.09838 2.9269L4.24128 2.80851H4.06463L4.01003 2.61693L3.95543 2.80851H3.77878ZM4.77353 2.80851L4.91643 2.9269L4.86183 3.11842L5.00478 3.00003L5.14768 3.11842L5.09313 2.9269L5.23603 2.80851H5.05938L5.00478 2.61693L4.95018 2.80851H4.77353ZM0.791632 3.77483L0.934582 3.89322L0.879982 4.08479L1.02288 3.96641L1.16583 4.08479L1.11123 3.89322L1.25413 3.77483H1.07748L1.02288 3.58331L0.968282 3.77483H0.791632ZM1.78638 3.77483L1.92928 3.89322L1.87468 4.08479L2.01763 3.96641L2.16058 4.08479L2.10598 3.89322L2.24888 3.77483H2.07223L2.01763 3.58331L1.96303 3.77483H1.78638ZM2.78113 3.77483L2.92403 3.89322L2.86943 4.08479L3.01238 3.96641L3.15528 4.08479L3.10068 3.89322L3.24363 3.77483H3.06698L3.01238 3.58331L2.95778 3.77483H2.78113ZM3.77583 3.77483L3.91878 3.89322L3.86418 4.08479L4.00708 3.96641L4.15003 4.08479L4.09543 3.89322L4.23833 3.77483H4.06168L4.00708 3.58331L3.95248 3.77483H3.77583ZM4.77058 3.77483L4.91348 3.89322L4.85888 4.08479L5.00183 3.96641L5.14473 4.08479L5.09018 3.89322L5.23308 3.77483H5.05643L5.00183 3.58331L4.94723 3.77483H4.77058Z" fill="white"/>
</svg>
